<?xml version="1.0" encoding="utf-8" standalone="yes"?>
<!DOCTYPE svg PUBLIC "-//W3C//DTD SVG 1.1//EN" "http://www.w3.org/Graphics/SVG/1.1/DTD/svg11.dtd">
<svg style="fill:none;stroke:none;fill-rule:evenodd;clip-rule:evenodd;stroke-linecap:round;stroke-linejoin:round;stroke-miterlimit:1.5;" version="1.1" xmlns="http://www.w3.org/2000/svg" xmlns:xlink="http://www.w3.org/1999/xlink" width="840" height="564" viewBox="0 0 840 564"><style class="text-font-style fontImports" data-font-family="Roboto">@import url(https://fonts.googleapis.com/css2?family=Roboto:wght@400;700&amp;amp;display=block);</style><g id="items" style="isolation: isolate"><g id="blend" style="mix-blend-mode: normal"><g id="g-root-cp_1_g-1_1d3067914l1oni-fill" data-item-order="-370645" transform="translate(38, 266)"></g><g id="g-root-cp_2_g-2_18n6o2t14l1pfr-fill" data-item-order="-370619" transform="translate(230, 266)"></g><g id="g-root-cp_3_g-3_18n6o2t14l1pfs-fill" data-item-order="-370593" transform="translate(422, 266)"></g><g id="g-root-cp_4_g-4_147zn1h14l1n29-fill" data-item-order="-370567" transform="translate(614, 266)"></g><g id="g-root-tx_mpeapiqu_147zn1h14l1n2a-fill" data-item-order="0" transform="translate(242, 38)"><g id="tx_mpeapiqu_147zn1h14l1n2a-fill-merged" stroke="none" fill="#f4f4f4" fill-opacity="1"><g><text style="font: bold 25px &quot;Roboto&quot;, sans-serif; white-space: pre;" transform="translate(178, 28)" font-weight="bold" font-size="25px" font-family="'Roboto', sans-serif"><tspan x="-161.18" y="15" dominant-baseline="ideographic">MPE API Quota Enforcement</tspan></text></g></g></g><g id="g-root-ic_stac_dbpi0514l31mt-fill" data-item-order="0" transform="translate(62, 122)"></g><g id="g-root-ic_view_v7cu3p14l4gst-fill" data-item-order="0" transform="translate(254, 122)"></g><g id="g-root-ic_cog_1uonwx114l5wjs-fill" data-item-order="0" transform="translate(446, 122)"></g><g id="g-root-ic_equa_v8ls9x14l5wcr-fill" data-item-order="0" transform="translate(638, 122)"></g><g id="g-root-tx_definesu_qwj4o514l1on7-fill" data-item-order="0" transform="translate(56, 314)"><g id="tx_definesu_qwj4o514l1on7-fill-merged" stroke="none" fill="#4f91fc" fill-opacity="1"><g><text style="font: bold 20px &quot;Roboto&quot;, sans-serif; white-space: pre;" transform="translate(76, 46)" font-weight="bold" font-size="20px" font-family="'Roboto', sans-serif"><tspan x="-31.49" y="-12" dominant-baseline="ideographic">Define </tspan><tspan x="-59.42" y="12" dominant-baseline="ideographic">Subscription </tspan><tspan x="-25.53" y="36" dominant-baseline="ideographic">Tiers</tspan></text></g></g></g><g id="g-root-tx_trackquo_18i6vdx14l4idn-fill" data-item-order="0" transform="translate(254, 314)"><g id="tx_trackquo_18i6vdx14l4idn-fill-merged" stroke="none" fill="#1ac3fb" fill-opacity="1"><g><text style="font: bold 20px &quot;Roboto&quot;, sans-serif; white-space: pre;" transform="translate(70, 34)" font-weight="bold" font-size="20px" font-family="'Roboto', sans-serif"><tspan x="-57.1" y="0" dominant-baseline="ideographic">Track Quota </tspan><tspan x="-45.1" y="24" dominant-baseline="ideographic">Metadata</tspan></text></g></g></g><g id="g-root-tx_implemen_8z0db914l5v5y-fill" data-item-order="0" transform="translate(440, 314)"><g id="tx_implemen_8z0db914l5v5y-fill-merged" stroke="none" fill="#43dd93" fill-opacity="1"><g><text style="font: bold 20px &quot;Roboto&quot;, sans-serif; white-space: pre;" transform="translate(76, 34)" font-weight="bold" font-size="20px" font-family="'Roboto', sans-serif"><tspan x="-48.31" y="0" dominant-baseline="ideographic">Implement </tspan><tspan x="-60.91" y="24" dominant-baseline="ideographic">Feature Flags</tspan></text></g></g></g><g id="g-root-tx_distingu_18k2an914l5urt-fill" data-item-order="0" transform="translate(638, 314)"><g id="tx_distingu_18k2an914l5urt-fill-merged" stroke="none" fill="#a6da37" fill-opacity="1"><g><text style="font: bold 20px &quot;Roboto&quot;, sans-serif; white-space: pre;" transform="translate(70, 34)" font-weight="bold" font-size="20px" font-family="'Roboto', sans-serif"><tspan x="-51.51" y="0" dominant-baseline="ideographic">Distinguish </tspan><tspan x="-54.71" y="24" dominant-baseline="ideographic">Billing Tiers</tspan></text></g></g></g><g id="g-root-tx_useannot_142dd9h14l4j5w-fill" data-item-order="0" transform="translate(242, 374)"><g id="tx_useannot_142dd9h14l4j5w-fill-merged" stroke="none" fill="#1ac3fb" fill-opacity="1"><g><text style="font: 15px &quot;Roboto&quot;, sans-serif; white-space: pre;" transform="translate(82, 40)" font-size="15px" font-family="'Roboto', sans-serif"><tspan x="-64.69" y="-9" dominant-baseline="ideographic">Use annotations to </tspan><tspan x="-39.57" y="9" dominant-baseline="ideographic">track quota </tspan><tspan x="-35.78" y="27" dominant-baseline="ideographic">metadata.</tspan></text></g></g></g><g id="g-root-tx_implemen_3dd2d14l5vyn-fill" data-item-order="0" transform="translate(440, 374)"><g id="tx_implemen_3dd2d14l5vyn-fill-merged" stroke="none" fill="#43dd93" fill-opacity="1"><g><text style="font: 15px &quot;Roboto&quot;, sans-serif; white-space: pre;" transform="translate(76, 40)" font-size="15px" font-family="'Roboto', sans-serif"><tspan x="-63.09" y="-9" dominant-baseline="ideographic">Implement feature </tspan><tspan x="-30.87" y="9" dominant-baseline="ideographic">flags per </tspan><tspan x="-62.12" y="27" dominant-baseline="ideographic">subscription level.</tspan></text></g></g></g><g id="g-root-tx_distingu_1448sit14l5vk2-fill" data-item-order="0" transform="translate(626, 374)"><g id="tx_distingu_1448sit14l5vk2-fill-merged" stroke="none" fill="#a6da37" fill-opacity="1"><g><text style="font: 15px &quot;Roboto&quot;, sans-serif; white-space: pre;" transform="translate(82, 40)" font-size="15px" font-family="'Roboto', sans-serif"><tspan x="-68.72" y="-9" dominant-baseline="ideographic">Distinguish between </tspan><tspan x="-67.53" y="9" dominant-baseline="ideographic">billing tiers at policy </tspan><tspan x="-54.27" y="27" dominant-baseline="ideographic">evaluation time.</tspan></text></g></g></g><g id="g-root-tx_definesu_i0w4f914l1pfw-fill" data-item-order="0" transform="translate(50, 398)"><g id="tx_definesu_i0w4f914l1pfw-fill-merged" stroke="none" fill="#4f91fc" fill-opacity="1"><g><text style="font: 15px &quot;Roboto&quot;, sans-serif; white-space: pre;" transform="translate(82, 40)" font-size="15px" font-family="'Roboto', sans-serif"><tspan x="-66.18" y="-9" dominant-baseline="ideographic">Define subscription </tspan><tspan x="-62.49" y="9" dominant-baseline="ideographic">tiers with different </tspan><tspan x="-22.21" y="27" dominant-baseline="ideographic">limits.</tspan></text></g></g></g><g id="g-root-cp_1_g-1_1d3067914l1oni-stroke" data-item-order="-370645" transform="translate(38, 266)"><g id="cp_1_g-1_1d3067914l1oni-stroke" fill="none" stroke-linecap="round" stroke-linejoin="round" stroke-miterlimit="4" stroke="#4f91fc" stroke-width="2" stroke-opacity="1"><g><path d="M 10 58L 10 46C 10 39.37 15.38 34 22 34L 70 34L 94 10L 118 34L 166 34C 172.63 34 178 39.37 178 46L 178 58M 178 58L 178 202M 10 202L 10 58M 178 202L 178 214C 178 220.63 172.63 226 166 226L 22 226C 15.37 226 10 220.63 10 214L 10 202"></path></g></g></g><g id="g-root-cp_2_g-2_18n6o2t14l1pfr-stroke" data-item-order="-370619" transform="translate(230, 266)"><g id="cp_2_g-2_18n6o2t14l1pfr-stroke" fill="none" stroke-linecap="round" stroke-linejoin="round" stroke-miterlimit="4" stroke="#1ac3fb" stroke-width="2" stroke-opacity="1"><g><path d="M 10 58L 10 46C 10 39.37 15.38 34 22 34L 70 34L 94 10L 118 34L 166 34C 172.63 34 178 39.37 178 46L 178 58M 178 58L 178 202M 10 202L 10 58M 178 202L 178 214C 178 220.63 172.63 226 166 226L 22 226C 15.37 226 10 220.63 10 214L 10 202"></path></g></g></g><g id="g-root-cp_3_g-3_18n6o2t14l1pfs-stroke" data-item-order="-370593" transform="translate(422, 266)"><g id="cp_3_g-3_18n6o2t14l1pfs-stroke" fill="none" stroke-linecap="round" stroke-linejoin="round" stroke-miterlimit="4" stroke="#43dd93" stroke-width="2" stroke-opacity="1"><g><path d="M 10 58L 10 46C 10 39.37 15.38 34 22 34L 70 34L 94 10L 118 34L 166 34C 172.63 34 178 39.37 178 46L 178 58M 178 58L 178 202M 10 202L 10 58M 178 202L 178 214C 178 220.63 172.63 226 166 226L 22 226C 15.37 226 10 220.63 10 214L 10 202"></path></g></g></g><g id="g-root-cp_4_g-4_147zn1h14l1n29-stroke" data-item-order="-370567" transform="translate(614, 266)"><g id="cp_4_g-4_147zn1h14l1n29-stroke" fill="none" stroke-linecap="round" stroke-linejoin="round" stroke-miterlimit="4" stroke="#a6da37" stroke-width="2" stroke-opacity="1"><g><path d="M 10 58L 10 46C 10 39.37 15.38 34 22 34L 70 34L 94 10L 118 34L 166 34C 172.63 34 178 39.37 178 46L 178 58M 178 58L 178 202M 10 202L 10 58M 178 202L 178 214C 178 220.63 172.63 226 166 226L 22 226C 15.37 226 10 220.63 10 214L 10 202"></path></g></g></g><g id="g-root-tx_mpeapiqu_147zn1h14l1n2a-stroke" data-item-order="0" transform="translate(242, 38)"></g><g id="g-root-ic_stac_dbpi0514l31mt-stroke" data-item-order="0" transform="translate(62, 122)"><g id="ic_stac_dbpi0514l31mt-stroke" fill="none" stroke-linecap="round" stroke-linejoin="round" stroke-miterlimit="4" stroke="#4f91fc" stroke-width="2" stroke-opacity="1"><g><path d="M 12.52 22.5C 12.520002 28.022846 29.309324 32.5 50.020004 32.5C 70.730682 32.5 87.520004 28.022846 87.520004 22.5C 87.520004 16.977152 70.730682 12.5 50.020004 12.5C 29.309324 12.5 12.520002 16.977152 12.520002 22.5ZM 87.5 22.5L 87.5 37.5C 87.5 43.025002 70.714996 47.5 50 47.5C 29.285 47.5 12.5 43.025002 12.5 37.5L 12.5 22.5M 87.5 37.5L 87.5 52.5C 87.5 58.024998 70.714996 62.5 50 62.5C 29.285 62.5 12.5 58.024998 12.5 52.5L 12.5 37.5M 52.519997 87.5C 52.520004 93.02285 69.309326 97.5 90.020004 97.5C 110.730682 97.5 127.520004 93.02285 127.520004 87.5C 127.520004 81.97715 110.730682 77.5 90.020004 77.5C 69.309326 77.5 52.520004 81.97715 52.520004 87.5ZM 127.5 87.5L 127.5 102.5C 127.5 108.024994 110.714996 112.5 90 112.5C 69.285004 112.5 52.5 108.024994 52.5 102.5L 52.5 87.5M 127.5 102.5L 127.5 117.5C 127.5 123.024994 110.714996 127.5 90 127.5C 69.285004 127.5 52.5 123.024994 52.5 117.5L 52.5 102.5M 87.5 52.5L 87.5 67.5C 87.5 73.024994 70.714996 77.5 50 77.5C 29.285 77.5 12.5 73.024994 12.5 67.5L 12.5 52.5M 12.5 67.5L 12.5 82.5C 12.5 88.024994 29.290001 92.5 50 92.5L 52.5 92.5M 12.5 82.5L 12.5 97.5C 12.5 103.024994 29.290001 107.5 50 107.5L 52.5 107.5M 87.519997 67.5L 87.519997 77.5"></path></g></g></g><g id="g-root-ic_view_v7cu3p14l4gst-stroke" data-item-order="0" transform="translate(254, 122)"><g id="ic_view_v7cu3p14l4gst-stroke" fill="none" stroke-linecap="round" stroke-linejoin="round" stroke-miterlimit="4" stroke="#1ac3fb" stroke-width="2" stroke-opacity="1"><g><path d="M 56.300003 97.659996L 25 97.659996C 19.477152 97.659996 15 93.182846 15 87.659996L 15 25.119999C 15 19.597153 19.477152 15.12 25 15.12L 100.045006 15.12C 105.567848 15.12 110.045006 19.597153 110.045006 25.119999L 110.045006 59.165001M 15 34.649998L 110.050003 34.649998M 15 76.169998L 56.84 76.169998M 15 55.445L 70.055 55.445M 53.825001 34.649998L 53.825001 97.659996M 81.654999 34.649998L 81.654999 55.445M 90.389999 114.080002C 104.045639 113.795708 114.888428 102.500854 114.615005 88.845001C 114.888428 75.18914 104.045639 63.894291 90.389999 63.610001C 76.73436 63.894291 65.891579 75.18914 66.165001 88.845001C 65.891579 102.500854 76.73436 113.795708 90.389999 114.080002ZM 125 124.884995L 107.5 106.68"></path></g></g></g><g id="g-root-ic_cog_1uonwx114l5wjs-stroke" data-item-order="0" transform="translate(446, 122)"><g id="ic_cog_1uonwx114l5wjs-stroke" fill="none" stroke-linecap="round" stroke-linejoin="round" stroke-miterlimit="4" stroke="#43dd93" stroke-width="2" stroke-opacity="1"><g><path d="M 12.9 101.5C 20.960634 100.366318 29.09004 99.791611 37.23 99.779999C 41.27 99.779999 45.200001 99.925003 48.985001 100.185005M 37.23 99.764999L 37.23 12.5M 37.23 12.5L 84.120003 35.709999L 37.23 58.915001M 88.024994 92.330002C 88.023865 96.646896 91.523094 100.147034 95.839996 100.147034C 100.156898 100.147034 103.65612 96.646896 103.654999 92.330002C 103.65612 88.013092 100.156898 84.512955 95.839996 84.512955C 91.523094 84.512955 88.023865 88.013092 88.024994 92.330002M 102.5 62.099998L 104.805 69.669998C 105.593216 72.276451 108.266449 73.826187 110.919998 73.214996L 118.590004 71.440002C 121.561401 70.814636 124.597137 72.176292 126.106117 74.81131C 127.615097 77.44632 127.253159 80.753708 125.209999 83L 119.840004 88.790001C 117.990578 90.793442 117.990578 93.881561 119.840004 95.885002L 125.209999 101.674995C 127.255013 103.924164 127.614655 107.236099 126.100075 109.871788C 124.585495 112.507477 121.542938 113.864372 118.570007 113.229996L 110.900002 111.450005C 108.244995 110.839249 105.571129 112.391541 104.785004 115L 102.5 122.565002C 101.620361 125.49588 98.922539 127.502892 95.862503 127.502892C 92.80246 127.502892 90.104645 125.49588 89.224998 122.565002L 86.900002 115C 86.111786 112.393539 83.438553 110.843811 80.784996 111.455002L 73.114998 113.229996C 70.144493 113.852379 67.111313 112.489632 65.603935 109.855415C 64.09655 107.221207 64.458405 103.915703 66.5 101.669998L 71.869995 95.880005C 73.719421 93.876564 73.719421 90.788437 71.869995 88.785004L 66.5 83C 64.454987 80.750839 64.095352 77.438896 65.609924 74.803215C 67.124512 72.167526 70.167061 70.810631 73.139999 71.445L 80.809998 73.220001C 83.463547 73.831192 86.136787 72.281448 86.925003 69.675003L 89.229996 62.104996C 90.111282 59.177963 92.806313 57.174068 95.863144 57.17292C 98.919975 57.171764 101.616508 59.173626 102.5 62.099998Z"></path></g></g></g><g id="g-root-ic_equa_v8ls9x14l5wcr-stroke" data-item-order="0" transform="translate(638, 122)"><g id="ic_equa_v8ls9x14l5wcr-stroke" fill="none" stroke-linecap="round" stroke-linejoin="round" stroke-miterlimit="4" stroke="#a6da37" stroke-width="2" stroke-opacity="1"><g><path d="M 67.519997 91.25L 47.52 116.25L 87.519997 116.25L 67.519997 91.25ZM 12.52 86.25L 127.519997 86.25M 40 41.25C 40 46.772846 35.522846 51.25 30 51.25L 17.5 51.25L 17.5 31.25L 30 31.25C 35.522846 31.25 40 35.727154 40 41.25ZM 40 61.25C 40 66.77285 35.522846 71.25 30 71.25L 17.5 71.25L 17.5 51.25L 30 51.25C 35.522846 51.25 40 55.727154 40 61.25ZM 22.52 26.25L 22.52 31.25M 27.52 71.25L 27.52 76.25M 40 41.25C 40 46.772846 35.522846 51.25 30 51.25L 17.5 51.25L 17.5 31.25L 30 31.25C 35.522846 31.25 40 35.727154 40 41.25ZM 40 61.25C 40 66.77285 35.522846 71.25 30 71.25L 17.5 71.25L 17.5 51.25L 30 51.25C 35.522846 51.25 40 55.727154 40 61.25ZM 22.52 26.25L 22.52 31.25M 27.52 71.25L 27.52 76.25M 122.5 31.25L 111.790001 31.25C 107.491974 31.251553 103.758698 34.207287 102.771294 38.390362C 101.78389 42.573437 103.801346 46.88662 107.645004 48.810001L 117.395004 53.685001C 121.244522 55.605507 123.266914 59.922073 122.278862 64.10907C 121.290817 68.296059 117.551994 71.253098 113.250008 71.25L 102.5 71.25M 112.519997 71.25L 112.519997 78.75M 112.519997 23.75L 112.519997 31.25"></path></g></g></g><g id="g-root-tx_definesu_qwj4o514l1on7-stroke" data-item-order="0" transform="translate(56, 314)"></g><g id="g-root-tx_trackquo_18i6vdx14l4idn-stroke" data-item-order="0" transform="translate(254, 314)"></g><g id="g-root-tx_implemen_8z0db914l5v5y-stroke" data-item-order="0" transform="translate(440, 314)"></g><g id="g-root-tx_distingu_18k2an914l5urt-stroke" data-item-order="0" transform="translate(638, 314)"></g><g id="g-root-tx_useannot_142dd9h14l4j5w-stroke" data-item-order="0" transform="translate(242, 374)"></g><g id="g-root-tx_implemen_3dd2d14l5vyn-stroke" data-item-order="0" transform="translate(440, 374)"></g><g id="g-root-tx_distingu_1448sit14l5vk2-stroke" data-item-order="0" transform="translate(626, 374)"></g><g id="g-root-tx_definesu_i0w4f914l1pfw-stroke" data-item-order="0" transform="translate(50, 398)"></g></g></g><path id="w1q8841117n1gr0" d="M65.283 12.757a.35.35 0 0 0 .584.157l5.203-5.141-6.183 3.523.396 1.461zm-2.216-11.7a.35.35 0 0 0-.522.305v3.111l3.276-1.868-2.754-1.548zm3.728 2.105l-4.25 2.421v2.445l6.391-3.644-2.141-1.222zm4.708 3.303a.35.35 0 0 0 0-.609l-1.592-.9-7.365 4.199v1.782a.35.35 0 0 0 .523.305l8.435-4.777z M44.542 2.513c0-.433.355-.783.792-.783s.792.35.792.783-.355.783-.792.783-.792-.35-.792-.783zm59.171 0c0-.433.355-.783.792-.783s.792.35.792.783-.355.783-.792.783-.792-.35-.792-.783zm-85.951 7.636h-1.27v-.487c-.276.201-.864.609-1.881.609-1.202 0-2.274-.794-2.137-2.078.118-1.106 1.153-1.584 1.848-1.727l2.17-.345c0-.539-.29-.956-1.064-1.006s-1.21.305-1.571 1.017l-1.124-.605c1.218-2.631 5.029-1.764 5.029.414v4.207zm-1.27-2.86c.006.396-.062 1.112-.819 1.59-.587.37-1.841.299-1.903-.395-.049-.555.461-.791.906-.898l1.816-.297zm72.662 2.86h-1.27v-.487c-.276.201-.864.609-1.881.609-1.202 0-2.274-.794-2.137-2.078.118-1.106 1.153-1.584 1.848-1.727l2.17-.345c0-.539-.29-.956-1.064-1.006s-1.21.305-1.571 1.017l-1.124-.605c1.218-2.631 5.029-1.764 5.029.414v4.207zm-1.27-2.86c.006.396-.062 1.112-.82 1.59-.587.37-1.841.299-1.903-.395-.049-.555.461-.791.906-.898l1.816-.297zM99.096 10.149H97.85v-8.45h1.246v4.895l2.68-2.559h1.738l-2.633 2.535 2.715 3.578h-1.556l-2.077-2.707-.867.844v1.863zm6.053-6.114h-1.255v6.113h1.255V4.035zm-59.2 0h-1.255v6.113h1.255V4.035zm5.584 6.113V1.697h1.255v2.695c.361-.346 1-.485 1.47-.485 1.452 0 2.477 1.082 2.457 2.448v3.792h-1.27v-3.68c0-.408-.214-1.339-1.315-1.339-.968 0-1.342.756-1.342 1.339v3.681h-1.255zm-4.76-4.894V4.039h.621a.45.45 0 0 0 .45-.45v-.855h1.251v1.305h1.309v1.215h-1.309v3.109c0 .293.105.664.648.664.365 0 .531-.035.736-.07v1.137s-.361.113-.857.113c-1.398 0-1.777-1.051-1.777-1.788V5.254h-1.071zM36.528 4.039h-1.394l2.191 6.106h1.125l1.234-3.918 1.238 3.918h1.129l2.188-6.106h-1.383l-1.359 3.93-1.256-3.93h-1.124l-1.242 3.957-1.348-3.957zM26.212 7.141c-.02 1.566 1.187 3.129 3.223 3.129 1.566 0 2.383-.918 2.734-1.719L31.172 8c-.315.399-.801 1.094-1.738 1.094-1.145 0-1.825-.781-1.891-1.52h4.625c.074-.284.148-.995-.03-1.559-.336-1.064-1.221-2.102-2.839-2.102s-3.088 1.152-3.088 3.227zm1.363-.75h3.348c-.055-.43-.566-1.301-1.623-1.301a1.79 1.79 0 0 0-1.725 1.301zm-8.758.75c.038 1.758 1.277 3.133 3.145 3.133 1.074 0 1.723-.477 1.961-.672v.547h1.242V1.703h-1.258v2.888c-.414-.36-1.062-.68-1.93-.68-1.91 0-3.198 1.473-3.16 3.23zm1.309-.08c0 1.119.723 1.978 1.836 1.978a1.88 1.88 0 0 0 1.94-1.904c0-1.371-1.011-1.99-1.972-1.99s-1.805.798-1.805 1.916zm76.683-.028C96.771 5.275 95.532 3.9 93.664 3.9c-1.074 0-1.723.477-1.961.672v-.547h-1.242v8.22h1.258V9.583c.414.36 1.063.68 1.93.68 1.91 0 3.198-1.473 3.16-3.23zm-1.309.08c0-1.119-.723-1.978-1.836-1.978a1.88 1.88 0 0 0-1.94 1.904c0 1.371 1.011 1.99 1.972 1.99S95.5 8.231 95.5 7.113zM106.441 10.173V4.036h1.254v.382c.361-.346 1-.485 1.47-.485 1.452 0 2.477 1.082 2.457 2.448v3.792h-1.27V6.492c0-.408-.214-1.339-1.315-1.339-.969 0-1.342.756-1.342 1.339v3.681h-1.254zm-30.383-.021V1.824h1.084l4.215 5.777V1.824h1.32v8.328h-1.094l-4.207-5.796v5.796h-1.319zM5.24 10.149H4V2.377h1.014l2.664 3.597 2.654-3.592h1.03v7.766h-1.256V4.762L7.678 8.068 5.24 4.742v5.407z" transform="translate(704, 530)" fill="#ababab88" stroke="none"></path></svg>