<?xml version="1.0" encoding="utf-8" standalone="yes"?>
<!DOCTYPE svg PUBLIC "-//W3C//DTD SVG 1.1//EN" "http://www.w3.org/Graphics/SVG/1.1/DTD/svg11.dtd">
<svg style="fill:none;stroke:none;fill-rule:evenodd;clip-rule:evenodd;stroke-linecap:round;stroke-linejoin:round;stroke-miterlimit:1.5;" version="1.1" xmlns="http://www.w3.org/2000/svg" xmlns:xlink="http://www.w3.org/1999/xlink" width="672" height="660" viewBox="0 0 672 660"><style class="text-font-style fontImports" data-font-family="Roboto">@import url(https://fonts.googleapis.com/css2?family=Roboto:wght@400;700&amp;amp;display=block);</style><g id="items" style="isolation: isolate"><g id="blend" style="mix-blend-mode: normal"><g id="g-root-cp_2_sign-2_vb3ol11737u2y-fill" data-item-order="-351923" transform="translate(326, 242)"></g><g id="g-root-cp_4_sign-4_vb3ol11737u2z-fill" data-item-order="-351899" transform="translate(326, 482)"></g><g id="g-root-cp_1_sign-1_qva6gl1737uv8-fill" data-item-order="-351879" transform="translate(92, 122)"></g><g id="g-root-cp_3_sign-3_hzn67p1737vnx-fill" data-item-order="-351855" transform="translate(56, 362)"></g><g id="g-root-tx_hipaaacc_djto391737wg6-fill" data-item-order="0" transform="translate(194, 38)"><g id="tx_hipaaacc_djto391737wg6-fill-merged" stroke="none" fill="#f4f4f4" fill-opacity="1"><g><text style="font: bold 25px &quot;Roboto&quot;, sans-serif; white-space: pre;" transform="translate(142, 28)" font-weight="bold" font-size="25px" font-family="'Roboto', sans-serif"><tspan x="-124.8" y="15" dominant-baseline="ideographic">HIPAA Access Control</tspan></text></g></g></g><g id="g-root-ic_grou_1uoo01h172r18l-fill" data-item-order="0" transform="translate(122, 152)"></g><g id="g-root-tx_rolehier_mbpwz9172sdtv-fill" data-item-order="0" transform="translate(170, 158)"><g id="tx_rolehier_mbpwz9172sdtv-fill-merged" stroke="none" fill="#f4f4f4" fill-opacity="1"><g><text style="font: 20px &quot;Roboto&quot;, sans-serif; white-space: pre;" transform="translate(154, 22)" font-size="20px" font-family="'Roboto', sans-serif"><tspan x="-130.7" y="12" dominant-baseline="ideographic">Role Hierarchy</tspan></text></g></g></g><g id="g-root-tx_definesa_4ot4xh1737u33-fill" data-item-order="0" transform="translate(338, 152)"><g id="tx_definesa_4ot4xh1737u33-fill-merged" stroke="none" fill="#f4f4f4" fill-opacity="1"><g><text style="font: 15px &quot;Roboto&quot;, sans-serif; white-space: pre;" transform="translate(10, 28)" font-size="15px" font-family="'Roboto', sans-serif"><tspan x="2" y="0" dominant-baseline="ideographic">Defines access levels for </tspan><tspan x="2" y="18" dominant-baseline="ideographic">different user types.</tspan></text></g></g></g><g id="g-root-ic_writ_94mn1x1737u2o-fill" data-item-order="0" transform="translate(506, 272)"></g><g id="g-root-tx_verifies_dg2wqd172semk-fill" data-item-order="0" transform="translate(110, 272)"><g id="tx_verifies_dg2wqd172semk-fill-merged" stroke="none" fill="#f4f4f4" fill-opacity="1"><g><text style="font: 15px &quot;Roboto&quot;, sans-serif; white-space: pre;" transform="translate(214, 28)" font-size="15px" font-family="'Roboto', sans-serif"><tspan x="-193.5" y="0" dominant-baseline="ideographic">Verifies patient authorization </tspan><tspan x="-158.63" y="18" dominant-baseline="ideographic">before granting access.</tspan></text></g></g></g><g id="g-root-tx_patientc_vccmr91737w95-fill" data-item-order="0" transform="translate(338, 278)"><g id="tx_patientc_vccmr91737w95-fill-merged" stroke="none" fill="#f4f4f4" fill-opacity="1"><g><text style="font: 20px &quot;Roboto&quot;, sans-serif; white-space: pre;" transform="translate(10, 22)" font-size="20px" font-family="'Roboto', sans-serif"><tspan x="2" y="12" dominant-baseline="ideographic">Patient Consent</tspan></text></g></g></g><g id="g-root-ic_kick_909elx172sfet-fill" data-item-order="0" transform="translate(86, 392)"></g><g id="g-root-tx_emergenc_1q8uhx1172tssp-fill" data-item-order="0" transform="translate(134, 398)"><g id="tx_emergenc_1q8uhx1172tssp-fill-merged" stroke="none" fill="#f4f4f4" fill-opacity="1"><g><text style="font: 20px &quot;Roboto&quot;, sans-serif; white-space: pre;" transform="translate(190, 22)" font-size="20px" font-family="'Roboto', sans-serif"><tspan x="-171.1" y="12" dominant-baseline="ideographic">Emergency Access</tspan></text></g></g></g><g id="g-root-tx_allowste_hrj039173998q-fill" data-item-order="0" transform="translate(338, 392)"><g id="tx_allowste_hrj039173998q-fill-merged" stroke="none" fill="#f4f4f4" fill-opacity="1"><g><text style="font: 15px &quot;Roboto&quot;, sans-serif; white-space: pre;" transform="translate(10, 28)" font-size="15px" font-family="'Roboto', sans-serif"><tspan x="2" y="0" dominant-baseline="ideographic">Allows temporary access in </tspan><tspan x="2" y="18" dominant-baseline="ideographic">critical situations.</tspan></text></g></g></g><g id="g-root-ic_posi_dbphyt1739a12-fill" data-item-order="0" transform="translate(518, 512)"></g><g id="g-root-tx_grantson_1lt0zsl172ttky-fill" data-item-order="0" transform="translate(134, 512)"><g id="tx_grantson_1lt0zsl172ttky-fill-merged" stroke="none" fill="#f4f4f4" fill-opacity="1"><g><text style="font: 15px &quot;Roboto&quot;, sans-serif; white-space: pre;" transform="translate(190, 28)" font-size="15px" font-family="'Roboto', sans-serif"><tspan x="-173.97" y="0" dominant-baseline="ideographic">Grants only the necessary </tspan><tspan x="-175.25" y="18" dominant-baseline="ideographic">permissions for each role.</tspan></text></g></g></g><g id="g-root-tx_minimuma_djto39173c26k-fill" data-item-order="0" transform="translate(338, 518)"><g id="tx_minimuma_djto39173c26k-fill-merged" stroke="none" fill="#f4f4f4" fill-opacity="1"><g><text style="font: 20px &quot;Roboto&quot;, sans-serif; white-space: pre;" transform="translate(10, 22)" font-size="20px" font-family="'Roboto', sans-serif"><tspan x="2" y="12" dominant-baseline="ideographic">Minimum Access</tspan></text></g></g></g><g id="g-root-cp_2_sign-2_vb3ol11737u2y-stroke" data-item-order="-351923" transform="translate(326, 242)"><g id="cp_2_sign-2_vb3ol11737u2y-stroke" fill="none" stroke-linecap="round" stroke-linejoin="round" stroke-miterlimit="4" stroke="#1ac3fb" stroke-width="2" stroke-opacity="1"><g><path d="M 208 106L 10 106M 10 10L 208 10M 208 10C 234.5097 10 256 31.4903 256 58C 256 84.5097 234.5097 106 208 106M 10 106L 10 10"></path></g></g></g><g id="g-root-cp_4_sign-4_vb3ol11737u2z-stroke" data-item-order="-351899" transform="translate(326, 482)"><g id="cp_4_sign-4_vb3ol11737u2z-stroke" fill="none" stroke-linecap="round" stroke-linejoin="round" stroke-miterlimit="4" stroke="#a6da37" stroke-width="2" stroke-opacity="1"><g><path d="M 220 106L 10 106M 10 10L 220 10M 220 10C 246.5097 10 268 31.4903 268 58C 268 84.5097 246.5097 106 220 106M 10 106L 10 10"></path></g></g></g><g id="g-root-cp_1_sign-1_qva6gl1737uv8-stroke" data-item-order="-351879" transform="translate(92, 122)"><g id="cp_1_sign-1_qva6gl1737uv8-stroke" fill="none" stroke-linecap="round" stroke-linejoin="round" stroke-miterlimit="4" stroke="#4f91fc" stroke-width="2" stroke-opacity="1"><g><path d="M 58 10L 244 10M 244 106L 58 106M 58 106C 31.4903 106 10 84.5097 10 58C 10 31.4903 31.4903 10 58 10M 244 10L 244 106"></path></g></g></g><g id="g-root-cp_3_sign-3_hzn67p1737vnx-stroke" data-item-order="-351855" transform="translate(56, 362)"><g id="cp_3_sign-3_hzn67p1737vnx-stroke" fill="none" stroke-linecap="round" stroke-linejoin="round" stroke-miterlimit="4" stroke="#43dd93" stroke-width="2" stroke-opacity="1"><g><path d="M 58 10L 280 10M 280 106L 58 106M 58 106C 31.4903 106 10 84.5097 10 58C 10 31.4903 31.4903 10 58 10M 280 10L 280 106"></path></g></g></g><g id="g-root-tx_hipaaacc_djto391737wg6-stroke" data-item-order="0" transform="translate(194, 38)"></g><g id="g-root-ic_grou_1uoo01h172r18l-stroke" data-item-order="0" transform="translate(122, 152)"><g id="ic_grou_1uoo01h172r18l-stroke" fill="none" stroke-linecap="round" stroke-linejoin="round" stroke-miterlimit="4" stroke="#4f91fc" stroke-width="2" stroke-opacity="1"><g><path d="M 28.0741 40.979198C 29.54875 40.979198 30.744101 39.783699 30.744101 38.3092C 30.744101 36.834549 29.54875 35.639198 28.0741 35.639198C 26.5996 35.639198 25.404099 36.834549 25.404099 38.3092C 25.404099 39.783699 26.5996 40.979198 28.0741 40.979198ZM 24.365829 44.6875C 24.365829 42.610748 25.997499 40.979198 28.0741 40.979198C 30.15085 40.979198 31.782551 42.610748 31.782551 44.6875M 15.020815 40.979198C 16.49542 40.979198 17.690815 39.783699 17.690815 38.3092C 17.690815 36.834549 16.49542 35.639198 15.020815 35.639198C 13.546225 35.639198 12.350815 36.834549 12.350815 38.3092C 12.350815 39.783699 13.546225 40.979198 15.020815 40.979198ZM 11.3125 44.6875C 11.3125 42.610748 12.94417 40.979198 15.02083 40.979198C 17.097506 40.979198 18.72916 42.610748 18.72916 44.6875M 40.979198 40.979198C 42.453697 40.979198 43.6492 39.783699 43.6492 38.3092C 43.6492 36.834549 42.453697 35.639198 40.979198 35.639198C 39.504551 35.639198 38.3092 36.834549 38.3092 38.3092C 38.3092 39.783699 39.504551 40.979198 40.979198 40.979198ZM 37.270897 44.6875C 37.270897 42.610748 38.902451 40.979198 40.979198 40.979198C 43.055801 40.979198 44.6875 42.610748 44.6875 44.6875M 28.0741 17.24584C 29.712549 17.24584 31.0408 15.917605 31.0408 14.27917C 31.0408 12.64072 29.712549 11.3125 28.0741 11.3125C 26.435801 11.3125 25.10755 12.64072 25.10755 14.27917C 25.10755 15.917605 26.435801 17.24584 28.0741 17.24584ZM 22.882496 30.595901L 22.882496 23.475864C 22.882496 20.65753 25.255899 18.284201 28.0741 18.284201C 30.89245 18.284201 33.2659 20.65753 33.2659 23.475864L 33.2659 30.595901M 10 10M 22.882496 26.5909L 32.032749 20.140615M 20.657499 30.595901L 35.490852 30.595901"></path></g></g></g><g id="g-root-tx_rolehier_mbpwz9172sdtv-stroke" data-item-order="0" transform="translate(170, 158)"></g><g id="g-root-tx_definesa_4ot4xh1737u33-stroke" data-item-order="0" transform="translate(338, 152)"></g><g id="g-root-ic_writ_94mn1x1737u2o-stroke" data-item-order="0" transform="translate(506, 272)"><g id="ic_writ_94mn1x1737u2o-stroke" fill="none" stroke-linecap="round" stroke-linejoin="round" stroke-miterlimit="4" stroke="#1ac3fb" stroke-width="2" stroke-opacity="1"><g><path d="M 31 40.75L 12.25 40.75C 11.421573 40.75 10.75 40.078426 10.75 39.25L 10.75 12.25C 10.75 11.421573 11.421573 10.75 12.25 10.75L 33.25 10.75C 34.078426 10.75 34.75 11.421573 34.75 12.25L 34.75 21.25M 19.75 15.25L 28.75 15.25M 19.75 19.75L 28.75 19.75M 19.75 24.25L 23.5 24.25M 15.25 14.875C 15.457107 14.875 15.625 15.042893 15.625 15.25C 15.625 15.457107 15.457107 15.625 15.25 15.625C 15.042893 15.625 14.875 15.457107 14.875 15.25C 14.875 15.042893 15.042893 14.875 15.25 14.875M 15.25 19.375C 15.457107 19.375 15.625 19.542892 15.625 19.75C 15.625 19.957108 15.457107 20.125 15.25 20.125C 15.042893 20.125 14.875 19.957108 14.875 19.75C 14.875 19.542892 15.042893 19.375 15.25 19.375M 15.25 23.875C 15.457107 23.875 15.625 24.042892 15.625 24.25C 15.625 24.457108 15.457107 24.625 15.25 24.625C 15.042893 24.625 14.875 24.457108 14.875 24.25C 14.875 24.042892 15.042893 23.875 15.25 23.875M 36.130001 25.255001C 36.130001 25.255001 35.23 23.755001 32.215 24.565001C 27.880001 25.645 26.815001 30.460001 26.724998 31.014999M 24.385 32.455002L 21.715 36.73L 26.724998 36.295002M 32.830002 32.5L 40.795002 27.625C 41.622925 26.907457 41.813656 25.697886 41.246712 24.760387C 40.679768 23.822891 39.519981 23.430038 38.5 23.83L 24.385 32.5L 26.724998 36.34L 29.5 34.614998M 37.150002 33.834999L 31.434999 32.139999C 30.836853 31.916862 30.164217 32.045502 29.69062 32.473614C 29.217026 32.901722 29.021347 33.557999 29.183159 34.175564C 29.344971 34.793129 29.837322 35.269131 30.459999 35.41L 34.060001 36.595001C 34.3965 38.611336 35.931034 40.217247 37.93 40.645L 38.064999 40.645L 38.5 45.25M 45.25 45.25C 45.25 45.25 43.555 32.064999 39.34 28.57"></path></g></g></g><g id="g-root-tx_verifies_dg2wqd172semk-stroke" data-item-order="0" transform="translate(110, 272)"></g><g id="g-root-tx_patientc_vccmr91737w95-stroke" data-item-order="0" transform="translate(338, 278)"></g><g id="g-root-ic_kick_909elx172sfet-stroke" data-item-order="0" transform="translate(86, 392)"><g id="ic_kick_909elx172sfet-stroke" fill="none" stroke-linecap="round" stroke-linejoin="round" stroke-miterlimit="4" stroke="#43dd93" stroke-width="2" stroke-opacity="1"><g><path d="M 37.75 39.25L 37.75 32.5C 37.75 28.563917 35.383308 25.013878 31.750002 23.5C 31.75 21.428932 30.071068 19.75 28 19.75C 25.928932 19.75 24.25 21.428932 24.25 23.5C 20.616692 25.013878 18.25 28.563917 18.25 32.5L 18.25 39.25C 18.25 40.906857 16.906855 42.25 15.25 42.25L 40.75 42.25C 39.093143 42.25 37.75 40.906857 37.75 39.25ZM 31 42.25C 31 43.906857 29.656855 45.25 28 45.25C 26.343145 45.25 25 43.906857 25 42.25M 15.25 23.5C 15.25 18.943651 18.943651 15.25 23.5 15.25M 10.75 23.5C 10.75 16.45837 16.45837 10.75 23.5 10.75M 40.75 23.5C 40.75 18.943651 37.056351 15.25 32.5 15.25M 45.25 23.5C 45.25 16.45837 39.54163 10.75 32.5 10.75"></path></g></g></g><g id="g-root-tx_emergenc_1q8uhx1172tssp-stroke" data-item-order="0" transform="translate(134, 398)"></g><g id="g-root-tx_allowste_hrj039173998q-stroke" data-item-order="0" transform="translate(338, 392)"></g><g id="g-root-ic_posi_dbphyt1739a12-stroke" data-item-order="0" transform="translate(518, 512)"><g id="ic_posi_dbphyt1739a12-stroke" fill="none" stroke-linecap="round" stroke-linejoin="round" stroke-miterlimit="4" stroke="#a6da37" stroke-width="2" stroke-opacity="1"><g><path d="M 13.115499 16.021C 13.114626 18.932711 15.474789 21.293581 18.386499 21.293581C 21.29821 21.293581 23.658373 18.932711 23.657499 16.021C 23.658373 13.109289 21.29821 10.748419 18.386499 10.748419C 15.474789 10.748419 13.114626 13.109289 13.115499 16.021M 25.096001 29.917C 25.041172 26.250978 22.05368 23.307833 18.387249 23.307833C 14.720819 23.307833 11.733327 26.250978 11.6785 29.917L 11.6785 35.6665L 14.713 35.6665L 15.5125 45.25L 21.261999 45.25L 22.061501 35.6665L 25.096001 35.6665ZM 38.772999 29.813499L 38.772999 26.963501L 40.355499 26.0515C 40.843369 25.767954 41.143555 25.246281 41.143555 24.681999C 41.143555 24.11772 40.843369 23.596045 40.355499 23.3125L 38.772999 22.405001L 38.772999 21.289L 40.355499 20.3755C 40.844166 20.092556 41.145042 19.570669 41.145042 19.006001C 41.145042 18.44133 40.844166 17.919443 40.355495 17.636499L 38.774502 16.724499C 38.742138 15.437575 37.689583 14.411157 36.402248 14.411157C 35.114918 14.411157 34.062363 15.437575 34.029999 16.724501L 34.029999 29.813499C 30.298553 30.984545 27.980518 34.703938 28.572874 38.569702C 29.16523 42.435471 32.490616 45.290115 36.401501 45.290115C 40.312386 45.290115 43.637772 42.435471 44.230129 38.569702C 44.822483 34.703938 42.504448 30.984545 38.773003 29.813501ZM 34.711002 39.842499C 34.710999 40.776138 35.467861 41.532997 36.401501 41.532997C 37.335136 41.532997 38.092003 40.776138 38.092003 39.842499C 38.092003 38.908863 37.335136 38.152 36.401501 38.152C 35.467861 38.152 34.710999 38.908863 34.710999 39.842499"></path></g></g></g><g id="g-root-tx_grantson_1lt0zsl172ttky-stroke" data-item-order="0" transform="translate(134, 512)"></g><g id="g-root-tx_minimuma_djto39173c26k-stroke" data-item-order="0" transform="translate(338, 518)"></g></g></g><path id="wi0vrr9155aqkl" d="M65.283 12.757a.35.35 0 0 0 .584.157l5.203-5.141-6.183 3.523.396 1.461zm-2.216-11.7a.35.35 0 0 0-.522.305v3.111l3.276-1.868-2.754-1.548zm3.728 2.105l-4.25 2.421v2.445l6.391-3.644-2.141-1.222zm4.708 3.303a.35.35 0 0 0 0-.609l-1.592-.9-7.365 4.199v1.782a.35.35 0 0 0 .523.305l8.435-4.777z M44.542 2.513c0-.433.355-.783.792-.783s.792.35.792.783-.355.783-.792.783-.792-.35-.792-.783zm59.171 0c0-.433.355-.783.792-.783s.792.35.792.783-.355.783-.792.783-.792-.35-.792-.783zm-85.951 7.636h-1.27v-.487c-.276.201-.864.609-1.881.609-1.202 0-2.274-.794-2.137-2.078.118-1.106 1.153-1.584 1.848-1.727l2.17-.345c0-.539-.29-.956-1.064-1.006s-1.21.305-1.571 1.017l-1.124-.605c1.218-2.631 5.029-1.764 5.029.414v4.207zm-1.27-2.86c.006.396-.062 1.112-.819 1.59-.587.37-1.841.299-1.903-.395-.049-.555.461-.791.906-.898l1.816-.297zm72.662 2.86h-1.27v-.487c-.276.201-.864.609-1.881.609-1.202 0-2.274-.794-2.137-2.078.118-1.106 1.153-1.584 1.848-1.727l2.17-.345c0-.539-.29-.956-1.064-1.006s-1.21.305-1.571 1.017l-1.124-.605c1.218-2.631 5.029-1.764 5.029.414v4.207zm-1.27-2.86c.006.396-.062 1.112-.82 1.59-.587.37-1.841.299-1.903-.395-.049-.555.461-.791.906-.898l1.816-.297zM99.096 10.149H97.85v-8.45h1.246v4.895l2.68-2.559h1.738l-2.633 2.535 2.715 3.578h-1.556l-2.077-2.707-.867.844v1.863zm6.053-6.114h-1.255v6.113h1.255V4.035zm-59.2 0h-1.255v6.113h1.255V4.035zm5.584 6.113V1.697h1.255v2.695c.361-.346 1-.485 1.47-.485 1.452 0 2.477 1.082 2.457 2.448v3.792h-1.27v-3.68c0-.408-.214-1.339-1.315-1.339-.968 0-1.342.756-1.342 1.339v3.681h-1.255zm-4.76-4.894V4.039h.621a.45.45 0 0 0 .45-.45v-.855h1.251v1.305h1.309v1.215h-1.309v3.109c0 .293.105.664.648.664.365 0 .531-.035.736-.07v1.137s-.361.113-.857.113c-1.398 0-1.777-1.051-1.777-1.788V5.254h-1.071zM36.528 4.039h-1.394l2.191 6.106h1.125l1.234-3.918 1.238 3.918h1.129l2.188-6.106h-1.383l-1.359 3.93-1.256-3.93h-1.124l-1.242 3.957-1.348-3.957zM26.212 7.141c-.02 1.566 1.187 3.129 3.223 3.129 1.566 0 2.383-.918 2.734-1.719L31.172 8c-.315.399-.801 1.094-1.738 1.094-1.145 0-1.825-.781-1.891-1.52h4.625c.074-.284.148-.995-.03-1.559-.336-1.064-1.221-2.102-2.839-2.102s-3.088 1.152-3.088 3.227zm1.363-.75h3.348c-.055-.43-.566-1.301-1.623-1.301a1.79 1.79 0 0 0-1.725 1.301zm-8.758.75c.038 1.758 1.277 3.133 3.145 3.133 1.074 0 1.723-.477 1.961-.672v.547h1.242V1.703h-1.258v2.888c-.414-.36-1.062-.68-1.93-.68-1.91 0-3.198 1.473-3.16 3.23zm1.309-.08c0 1.119.723 1.978 1.836 1.978a1.88 1.88 0 0 0 1.94-1.904c0-1.371-1.011-1.99-1.972-1.99s-1.805.798-1.805 1.916zm76.683-.028C96.771 5.275 95.532 3.9 93.664 3.9c-1.074 0-1.723.477-1.961.672v-.547h-1.242v8.22h1.258V9.583c.414.36 1.063.68 1.93.68 1.91 0 3.198-1.473 3.16-3.23zm-1.309.08c0-1.119-.723-1.978-1.836-1.978a1.88 1.88 0 0 0-1.94 1.904c0 1.371 1.011 1.99 1.972 1.99S95.5 8.231 95.5 7.113zM106.441 10.173V4.036h1.254v.382c.361-.346 1-.485 1.47-.485 1.452 0 2.477 1.082 2.457 2.448v3.792h-1.27V6.492c0-.408-.214-1.339-1.315-1.339-.969 0-1.342.756-1.342 1.339v3.681h-1.254zm-30.383-.021V1.824h1.084l4.215 5.777V1.824h1.32v8.328h-1.094l-4.207-5.796v5.796h-1.319zM5.24 10.149H4V2.377h1.014l2.664 3.597 2.654-3.592h1.03v7.766h-1.256V4.762L7.678 8.068 5.24 4.742v5.407z" transform="translate(536, 626)" fill="#ababab88" stroke="none"></path></svg>