<?xml version="1.0" encoding="utf-8" standalone="yes"?>
<!DOCTYPE svg PUBLIC "-//W3C//DTD SVG 1.1//EN" "http://www.w3.org/Graphics/SVG/1.1/DTD/svg11.dtd">
<svg style="fill:none;stroke:none;fill-rule:evenodd;clip-rule:evenodd;stroke-linecap:round;stroke-linejoin:round;stroke-miterlimit:1.5;" version="1.1" xmlns="http://www.w3.org/2000/svg" xmlns:xlink="http://www.w3.org/1999/xlink" width="576" height="582" viewBox="0 0 576 582"><style class="text-font-style fontImports" data-font-family="Roboto">@import url(https://fonts.googleapis.com/css2?family=Roboto:wght@400;700&amp;amp;display=block);</style><g id="items" style="isolation: isolate"><g id="blend" style="mix-blend-mode: normal"><g id="g-root-cp_0_g-0_4pfvh116iumma-fill" data-item-order="-256597" transform="translate(47, 98)"></g><g id="g-root-cp_1_g-1_1uuwx7916iun7v-fill" data-item-order="-256571" transform="translate(73.5, 122)"></g><g id="g-root-cp_2_g-2_1uuwx7916iun7w-fill" data-item-order="-256563" transform="translate(241, 122)"></g><g id="g-root-cp_3_g-3_1uuwx7916iun7x-fill" data-item-order="-256555" transform="translate(408.5, 122)"></g><g id="g-root-tx_mcpserve_1qf3f2t16iuo06-fill" data-item-order="0" transform="translate(146, 38)"><g id="tx_mcpserve_1qf3f2t16iuo06-fill-merged" stroke="none" fill="#f4f4f4" fill-opacity="1"><g><text style="font: bold 25px &quot;Roboto&quot;, sans-serif; white-space: pre;" transform="translate(142, 28)" font-weight="bold" font-size="25px" font-family="'Roboto', sans-serif"><tspan x="-128.72" y="15" dominant-baseline="ideographic">MCP Server Protection</tspan></text></g></g></g><g id="g-root-ic_lapt_1ha3aj916iw07j-fill" data-item-order="0" transform="translate(85.5, 224)"></g><g id="g-root-ic_nail_hz0yl116ixf5t-fill" data-item-order="0" transform="translate(253.5, 224)"></g><g id="g-root-ic_sear_4nkg7p16iyu4j-fill" data-item-order="0" transform="translate(421.5, 224)"></g><g id="g-root-tx_operatio_4mbi1h16j8pae-fill" data-item-order="0" transform="translate(44, 296)"><g id="tx_operatio_4mbi1h16j8pae-fill-merged" stroke="none" fill="#1ac3fb" fill-opacity="1"><g><text style="font: 20px &quot;Roboto&quot;, sans-serif; white-space: pre;" transform="translate(76, 34)" font-size="20px" font-family="'Roboto', sans-serif"><tspan x="-46.13" y="0" dominant-baseline="ideographic">Operation-</tspan><tspan x="-61" y="24" dominant-baseline="ideographic">based routing</tspan></text></g></g></g><g id="g-root-tx_toolleve_1d150d116j8p3d-fill" data-item-order="0" transform="translate(218, 296)"><g id="tx_toolleve_1d150d116j8p3d-fill-merged" stroke="none" fill="#43dd93" fill-opacity="1"><g><text style="font: 20px &quot;Roboto&quot;, sans-serif; white-space: pre;" transform="translate(70, 34)" font-size="20px" font-family="'Roboto', sans-serif"><tspan x="-42.28" y="0" dominant-baseline="ideographic">Tool-level </tspan><tspan x="-54.64" y="24" dominant-baseline="ideographic">permissions</tspan></text></g></g></g><g id="g-root-tx_serverco_zqaz2t16j8nim-fill" data-item-order="0" transform="translate(374, 296)"><g id="tx_serverco_zqaz2t16j8nim-fill-merged" stroke="none" fill="#a6da37" fill-opacity="1"><g><text style="font: 20px &quot;Roboto&quot;, sans-serif; white-space: pre;" transform="translate(82, 22)" font-size="20px" font-family="'Roboto', sans-serif"><tspan x="-66.99" y="12" dominant-baseline="ideographic">Server controls</tspan></text></g></g></g><g id="g-root-tx_provides_vahgyd16j8oaw-fill" data-item-order="0" transform="translate(374, 332)"><g id="tx_provides_vahgyd16j8oaw-fill-merged" stroke="none" fill="#f4f4f4" fill-opacity="1"><g><text style="font: 15px &quot;Roboto&quot;, sans-serif; white-space: pre;" transform="translate(82, 76)" font-size="15px" font-family="'Roboto', sans-serif"><tspan x="-69.68" y="-45" dominant-baseline="ideographic">Provides controls for </tspan><tspan x="-60.72" y="-27" dominant-baseline="ideographic">server registration </tspan><tspan x="-64.19" y="-9" dominant-baseline="ideographic">and discovery. This </tspan><tspan x="-57.41" y="9" dominant-baseline="ideographic">ensures that only </tspan><tspan x="-61.93" y="27" dominant-baseline="ideographic">authorized servers </tspan><tspan x="-57.93" y="45" dominant-baseline="ideographic">can participate in </tspan><tspan x="-29.69" y="63" dominant-baseline="ideographic">the MCP.</tspan></text></g></g></g><g id="g-root-tx_routesre_1qcliqd16j8nif-fill" data-item-order="0" transform="translate(38, 356)"><g id="tx_routesre_1qcliqd16j8nif-fill-merged" stroke="none" fill="#f4f4f4" fill-opacity="1"><g><text style="font: 15px &quot;Roboto&quot;, sans-serif; white-space: pre;" transform="translate(82, 82)" font-size="15px" font-family="'Roboto', sans-serif"><tspan x="-54.98" y="-54" dominant-baseline="ideographic">Routes requests </tspan><tspan x="-43.83" y="-36" dominant-baseline="ideographic">based on the </tspan><tspan x="-52.62" y="-18" dominant-baseline="ideographic">operation being </tspan><tspan x="-53.9" y="0" dominant-baseline="ideographic">performed. This </tspan><tspan x="-63.63" y="18" dominant-baseline="ideographic">allows for different </tspan><tspan x="-38.1" y="36" dominant-baseline="ideographic">handling of </tspan><tspan x="-65.8" y="54" dominant-baseline="ideographic">metadata and data-</tspan><tspan x="-54.98" y="72" dominant-baseline="ideographic">path operations.</tspan></text></g></g></g><g id="g-root-tx_usesanno_18lxzbp16j8mpv-fill" data-item-order="0" transform="translate(206, 356)"><g id="tx_usesanno_18lxzbp16j8mpv-fill-merged" stroke="none" fill="#f4f4f4" fill-opacity="1"><g><text style="font: 15px &quot;Roboto&quot;, sans-serif; white-space: pre;" transform="translate(82, 76)" font-size="15px" font-family="'Roboto', sans-serif"><tspan x="-68.36" y="-45" dominant-baseline="ideographic">Uses annotations to </tspan><tspan x="-64.97" y="-27" dominant-baseline="ideographic">define permissions </tspan><tspan x="-59.29" y="-9" dominant-baseline="ideographic">for specific tools. </tspan><tspan x="-60.11" y="9" dominant-baseline="ideographic">This enables fine-</tspan><tspan x="-52.03" y="27" dominant-baseline="ideographic">grained access </tspan><tspan x="-66.34" y="45" dominant-baseline="ideographic">control for different </tspan><tspan x="-50.97" y="63" dominant-baseline="ideographic">functionalities.</tspan></text></g></g></g><g id="g-root-cp_0_g-0_4pfvh116iumma-stroke" data-item-order="-256597" transform="translate(47, 98)"><g id="cp_0_g-0_4pfvh116iumma-stroke" fill="none" stroke-linecap="round" stroke-linejoin="round" stroke-miterlimit="4" stroke="#b7b7b7" stroke-width="2" stroke-opacity="1"><g><path d="M 383.5 83.5L 345 124.5L 362.5 156.5L 372 151L 358.5 125.5L 383.5 99L 383.5 83.5Z"></path></g></g><g id="cp_0_g-0_4pfvh116iumma-stroke" fill="none" stroke-linecap="round" stroke-linejoin="round" stroke-miterlimit="4" stroke="#b7b7b7" stroke-width="2" stroke-opacity="1"><g><path d="M 431.5 83.5L 470 124.5L 452.5 156.5L 443 151L 456.5 125.5L 431.5 99L 431.5 83.5Z"></path></g></g><g id="cp_0_g-0_4pfvh116iumma-stroke" fill="none" stroke-linecap="round" stroke-linejoin="round" stroke-miterlimit="4" stroke="#b7b7b7" stroke-width="2" stroke-opacity="1"><g><path d="M 394.5 106C 394.5 113.1797 400.3203 119 407.5 119C 414.6797 119 420.5 113.1797 420.5 106L 413.5 106C 413.5 109.3137 410.8137 112 407.5 112C 404.1863 112 401.5 109.3137 401.5 106L 394.5 106ZM 407.5 34L 407.5 10"></path></g></g><g id="cp_0_g-0_4pfvh116iumma-stroke" fill="none" stroke-linecap="round" stroke-linejoin="round" stroke-miterlimit="4" stroke="#b7b7b7" stroke-width="2" stroke-opacity="1"><g><path d="M 216 83.5L 177.5 124.5L 195 156.5L 204.5 151L 191 125.5L 216 99L 216 83.5Z"></path></g></g><g id="cp_0_g-0_4pfvh116iumma-stroke" fill="none" stroke-linecap="round" stroke-linejoin="round" stroke-miterlimit="4" stroke="#b7b7b7" stroke-width="2" stroke-opacity="1"><g><path d="M 264 83.5L 302.5 124.5L 285 156.5L 275.5 151L 289 125.5L 264 99L 264 83.5Z"></path></g></g><g id="cp_0_g-0_4pfvh116iumma-stroke" fill="none" stroke-linecap="round" stroke-linejoin="round" stroke-miterlimit="4" stroke="#b7b7b7" stroke-width="2" stroke-opacity="1"><g><path d="M 227 106C 227 113.1797 232.8203 119 240 119C 247.1797 119 253 113.1797 253 106L 246 106C 246 109.3137 243.3137 112 240 112C 236.6863 112 234 109.3137 234 106L 227 106ZM 240 34L 240 10"></path></g></g><g id="cp_0_g-0_4pfvh116iumma-stroke" fill="none" stroke-linecap="round" stroke-linejoin="round" stroke-miterlimit="4" stroke="#b7b7b7" stroke-width="2" stroke-opacity="1"><g><path d="M 48.5 83.5L 10 124.5L 27.5 156.5L 37 151L 23.5 125.5L 48.5 99L 48.5 83.5Z"></path></g></g><g id="cp_0_g-0_4pfvh116iumma-stroke" fill="none" stroke-linecap="round" stroke-linejoin="round" stroke-miterlimit="4" stroke="#b7b7b7" stroke-width="2" stroke-opacity="1"><g><path d="M 96.5 83.5L 135 124.5L 117.5 156.5L 108 151L 121.5 125.5L 96.5 99L 96.5 83.5Z"></path></g></g><g id="cp_0_g-0_4pfvh116iumma-stroke" fill="none" stroke-linecap="round" stroke-linejoin="round" stroke-miterlimit="4" stroke="#b7b7b7" stroke-width="2" stroke-opacity="1"><g><path d="M 59.5 106C 59.5 113.1797 65.3203 119 72.5 119C 79.6797 119 85.5 113.1797 85.5 106L 78.5 106C 78.5 109.3137 75.8137 112 72.5 112C 69.1863 112 66.5 109.3137 66.5 106L 59.5 106ZM 72.5 34L 72.5 10"></path></g></g></g><g id="g-root-cp_1_g-1_1uuwx7916iun7v-stroke" data-item-order="-256571" transform="translate(73.5, 122)"><g id="cp_1_g-1_1uuwx7916iun7v-stroke" fill="none" stroke-linecap="round" stroke-linejoin="round" stroke-miterlimit="4" stroke="#1ac3fb" stroke-width="2" stroke-opacity="1"><g><path d="M 22 10L 70 10L 70 82L 22 82ZM 10 136C 10 155.882251 26.117749 172 46 172C 65.882251 172 82 155.882251 82 136C 82 116.117749 65.882251 100 46 100C 26.117749 100 10 116.117749 10 136"></path></g></g><g id="cp_1_g-1_1uuwx7916iun7v-stroke" fill="none" stroke-linecap="round" stroke-linejoin="round" stroke-miterlimit="4" stroke="#1ac3fb" stroke-width="2" stroke-opacity="1"><g><path d="M 40 82C 40 85.3137 42.6863 88 46 88C 49.3137 88 52 85.3137 52 82L 40 82Z"></path></g></g></g><g id="g-root-cp_2_g-2_1uuwx7916iun7w-stroke" data-item-order="-256563" transform="translate(241, 122)"><g id="cp_2_g-2_1uuwx7916iun7w-stroke" fill="none" stroke-linecap="round" stroke-linejoin="round" stroke-miterlimit="4" stroke="#43dd93" stroke-width="2" stroke-opacity="1"><g><path d="M 22 10L 70 10L 70 82L 22 82ZM 10 136C 10 155.882251 26.117749 172 46 172C 65.882251 172 82 155.882251 82 136C 82 116.117749 65.882251 100 46 100C 26.117749 100 10 116.117749 10 136"></path></g></g><g id="cp_2_g-2_1uuwx7916iun7w-stroke" fill="none" stroke-linecap="round" stroke-linejoin="round" stroke-miterlimit="4" stroke="#43dd93" stroke-width="2" stroke-opacity="1"><g><path d="M 40 82C 40 85.3137 42.6863 88 46 88C 49.3137 88 52 85.3137 52 82L 40 82Z"></path></g></g></g><g id="g-root-cp_3_g-3_1uuwx7916iun7x-stroke" data-item-order="-256555" transform="translate(408.5, 122)"><g id="cp_3_g-3_1uuwx7916iun7x-stroke" fill="none" stroke-linecap="round" stroke-linejoin="round" stroke-miterlimit="4" stroke="#a6da37" stroke-width="2" stroke-opacity="1"><g><path d="M 22 10L 70 10L 70 82L 22 82ZM 10 136C 10 155.882251 26.117749 172 46 172C 65.882251 172 82 155.882251 82 136C 82 116.117749 65.882251 100 46 100C 26.117749 100 10 116.117749 10 136"></path></g></g><g id="cp_3_g-3_1uuwx7916iun7x-stroke" fill="none" stroke-linecap="round" stroke-linejoin="round" stroke-miterlimit="4" stroke="#a6da37" stroke-width="2" stroke-opacity="1"><g><path d="M 40 82C 40 85.3137 42.6863 88 46 88C 49.3137 88 52 85.3137 52 82L 40 82Z"></path></g></g></g><g id="g-root-tx_mcpserve_1qf3f2t16iuo06-stroke" data-item-order="0" transform="translate(146, 38)"></g><g id="g-root-ic_lapt_1ha3aj916iw07j-stroke" data-item-order="0" transform="translate(85.5, 224)"><g id="ic_lapt_1ha3aj916iw07j-stroke" fill="none" stroke-linecap="round" stroke-linejoin="round" stroke-miterlimit="4" stroke="#1ac3fb" stroke-width="2" stroke-opacity="1"><g><path d="M 53 47L 13.962 47C 13.248193 46.998554 12.589263 46.616787 12.232985 45.998249C 11.876707 45.379711 11.877094 44.618176 12.234 44L 16.9 36C 17.256542 35.38245 17.914917 35.001446 18.628 35L 48.330002 35C 49.043083 35.001446 49.701458 35.38245 50.057999 36L 54.723999 44C 55.080555 44.617558 55.081326 45.378246 54.726021 45.996525C 54.370716 46.614803 53.713093 46.997131 53 47ZM 19 11L 47 11C 47 11 49 11 49 13L 49 33C 49 33 49 35 47 35L 19 35C 19 35 17 35 17 33L 17 13C 17 13 17 11 19 11M 11 57L 57 57M 33 47L 33 57M 30 43L 36 43"></path></g></g></g><g id="g-root-ic_nail_hz0yl116ixf5t-stroke" data-item-order="0" transform="translate(253.5, 224)"><g id="ic_nail_hz0yl116ixf5t-stroke" fill="none" stroke-linecap="round" stroke-linejoin="round" stroke-miterlimit="4" stroke="#43dd93" stroke-width="2" stroke-opacity="1"><g><path d="M 10 10M 11 35.335999L 22.628 23.706001L 28.285999 29.364L 11 46.650002M 41.765999 21.577999L 46 25.810001L 37.514 34.295998L 33.281998 30.062ZM 10 10M 38.186001 19.464001L 33.236 14.514C 28.549545 9.82675 20.950455 9.82675 16.264 14.514L 14.639999 16.138C 14.344183 16.433949 14.263908 16.882788 14.438807 17.262924C 14.613706 17.643063 15.006792 17.874109 15.424 17.841999L 16.424 17.765999C 18.146404 17.634489 19.876842 17.878088 21.496 18.48C 22.510015 18.857473 23.26231 19.724926 23.492527 20.782146C 23.722744 21.839365 23.39925 22.941078 22.634001 23.706001L 28.285999 29.364C 29.852608 27.798016 32.388039 27.785524 33.970001 29.336L 33.98 29.346001L 41.049999 22.276001ZM 57 47C 57 48.104568 56.104568 49 55 49L 49 49C 47.895432 49 47 48.104568 47 47C 47 45.895432 47.895432 45 49 45L 55 45C 56.104568 45 57 45.895432 57 47ZM 52 49L 52 57"></path></g></g></g><g id="g-root-ic_sear_4nkg7p16iyu4j-stroke" data-item-order="0" transform="translate(421.5, 224)"><g id="ic_sear_4nkg7p16iyu4j-stroke" fill="none" stroke-linecap="round" stroke-linejoin="round" stroke-miterlimit="4" stroke="#a6da37" stroke-width="2" stroke-opacity="1"><g><path d="M 53 19C 53 21.209139 51.209141 23 49 23L 15 23C 12.790861 23 11 21.209139 11 19L 11 15C 11 12.790861 12.790861 11 15 11L 49 11C 51.209141 11 53 12.790861 53 15ZM 15 35C 12.790861 35 11 33.209137 11 31L 11 27C 11 24.790861 12.790861 23 15 23L 49 23C 51.209141 23 53 24.790861 53 27L 53 30M 19.5 16.5C 19.223858 16.5 19 16.723858 19 17C 19 17.276142 19.223858 17.5 19.5 17.5C 19.776142 17.5 20 17.276142 20 17C 20 16.723858 19.776142 16.5 19.5 16.5L 19.5 16.5M 26.5 16.5C 26.223858 16.5 26 16.723858 26 17C 26 17.276142 26.223858 17.5 26.5 17.5C 26.776142 17.5 27 17.276142 27 17C 27 16.723858 26.776142 16.5 26.5 16.5L 26.5 16.5M 19.5 28.5C 19.223858 28.5 19 28.723858 19 29C 19 29.276142 19.223858 29.5 19.5 29.5C 19.776142 29.5 20 29.276142 20 29C 20 28.723858 19.776142 28.5 19.5 28.5L 19.5 28.5M 26.5 28.5C 26.223858 28.5 26 28.723858 26 29C 26 29.276142 26.223858 29.5 26.5 29.5C 26.776142 29.5 27 29.276142 27 29C 27 28.723858 26.776142 28.5 26.5 28.5L 26.5 28.5M 28 47L 15 47C 12.790861 47 11 45.209141 11 43L 11 39C 11 36.790863 12.790861 35 15 35L 31 35M 19.5 40.5C 19.223858 40.5 19 40.723858 19 41C 19 41.276142 19.223858 41.5 19.5 41.5C 19.776142 41.5 20 41.276142 20 41C 20 40.723858 19.776142 40.5 19.5 40.5L 19.5 40.5M 26.5 40.5C 26.223858 40.5 26 40.723858 26 41C 26 41.276142 26.223858 41.5 26.5 41.5C 26.776142 41.5 27 41.276142 27 41C 27 40.723858 26.776142 40.5 26.5 40.5L 26.5 40.5M 35 44.057999C 35 49.060593 39.055405 53.115997 44.057999 53.115997C 49.060593 53.115997 53.115997 49.060593 53.115997 44.057999C 53.115997 39.055405 49.060593 35 44.057999 35C 39.055405 35 35 39.055405 35 44.057999ZM 57 57L 50.504002 50.504002"></path></g></g></g><g id="g-root-tx_operatio_4mbi1h16j8pae-stroke" data-item-order="0" transform="translate(44, 296)"></g><g id="g-root-tx_toolleve_1d150d116j8p3d-stroke" data-item-order="0" transform="translate(218, 296)"></g><g id="g-root-tx_serverco_zqaz2t16j8nim-stroke" data-item-order="0" transform="translate(374, 296)"></g><g id="g-root-tx_provides_vahgyd16j8oaw-stroke" data-item-order="0" transform="translate(374, 332)"></g><g id="g-root-tx_routesre_1qcliqd16j8nif-stroke" data-item-order="0" transform="translate(38, 356)"></g><g id="g-root-tx_usesanno_18lxzbp16j8mpv-stroke" data-item-order="0" transform="translate(206, 356)"></g></g></g><path id="wmgpsth14kxgxw" d="M65.283 12.757a.35.35 0 0 0 .584.157l5.203-5.141-6.183 3.523.396 1.461zm-2.216-11.7a.35.35 0 0 0-.522.305v3.111l3.276-1.868-2.754-1.548zm3.728 2.105l-4.25 2.421v2.445l6.391-3.644-2.141-1.222zm4.708 3.303a.35.35 0 0 0 0-.609l-1.592-.9-7.365 4.199v1.782a.35.35 0 0 0 .523.305l8.435-4.777z M44.542 2.513c0-.433.355-.783.792-.783s.792.35.792.783-.355.783-.792.783-.792-.35-.792-.783zm59.171 0c0-.433.355-.783.792-.783s.792.35.792.783-.355.783-.792.783-.792-.35-.792-.783zm-85.951 7.636h-1.27v-.487c-.276.201-.864.609-1.881.609-1.202 0-2.274-.794-2.137-2.078.118-1.106 1.153-1.584 1.848-1.727l2.17-.345c0-.539-.29-.956-1.064-1.006s-1.21.305-1.571 1.017l-1.124-.605c1.218-2.631 5.029-1.764 5.029.414v4.207zm-1.27-2.86c.006.396-.062 1.112-.819 1.59-.587.37-1.841.299-1.903-.395-.049-.555.461-.791.906-.898l1.816-.297zm72.662 2.86h-1.27v-.487c-.276.201-.864.609-1.881.609-1.202 0-2.274-.794-2.137-2.078.118-1.106 1.153-1.584 1.848-1.727l2.17-.345c0-.539-.29-.956-1.064-1.006s-1.21.305-1.571 1.017l-1.124-.605c1.218-2.631 5.029-1.764 5.029.414v4.207zm-1.27-2.86c.006.396-.062 1.112-.82 1.59-.587.37-1.841.299-1.903-.395-.049-.555.461-.791.906-.898l1.816-.297zM99.096 10.149H97.85v-8.45h1.246v4.895l2.68-2.559h1.738l-2.633 2.535 2.715 3.578h-1.556l-2.077-2.707-.867.844v1.863zm6.053-6.114h-1.255v6.113h1.255V4.035zm-59.2 0h-1.255v6.113h1.255V4.035zm5.584 6.113V1.697h1.255v2.695c.361-.346 1-.485 1.47-.485 1.452 0 2.477 1.082 2.457 2.448v3.792h-1.27v-3.68c0-.408-.214-1.339-1.315-1.339-.968 0-1.342.756-1.342 1.339v3.681h-1.255zm-4.76-4.894V4.039h.621a.45.45 0 0 0 .45-.45v-.855h1.251v1.305h1.309v1.215h-1.309v3.109c0 .293.105.664.648.664.365 0 .531-.035.736-.07v1.137s-.361.113-.857.113c-1.398 0-1.777-1.051-1.777-1.788V5.254h-1.071zM36.528 4.039h-1.394l2.191 6.106h1.125l1.234-3.918 1.238 3.918h1.129l2.188-6.106h-1.383l-1.359 3.93-1.256-3.93h-1.124l-1.242 3.957-1.348-3.957zM26.212 7.141c-.02 1.566 1.187 3.129 3.223 3.129 1.566 0 2.383-.918 2.734-1.719L31.172 8c-.315.399-.801 1.094-1.738 1.094-1.145 0-1.825-.781-1.891-1.52h4.625c.074-.284.148-.995-.03-1.559-.336-1.064-1.221-2.102-2.839-2.102s-3.088 1.152-3.088 3.227zm1.363-.75h3.348c-.055-.43-.566-1.301-1.623-1.301a1.79 1.79 0 0 0-1.725 1.301zm-8.758.75c.038 1.758 1.277 3.133 3.145 3.133 1.074 0 1.723-.477 1.961-.672v.547h1.242V1.703h-1.258v2.888c-.414-.36-1.062-.68-1.93-.68-1.91 0-3.198 1.473-3.16 3.23zm1.309-.08c0 1.119.723 1.978 1.836 1.978a1.88 1.88 0 0 0 1.94-1.904c0-1.371-1.011-1.99-1.972-1.99s-1.805.798-1.805 1.916zm76.683-.028C96.771 5.275 95.532 3.9 93.664 3.9c-1.074 0-1.723.477-1.961.672v-.547h-1.242v8.22h1.258V9.583c.414.36 1.063.68 1.93.68 1.91 0 3.198-1.473 3.16-3.23zm-1.309.08c0-1.119-.723-1.978-1.836-1.978a1.88 1.88 0 0 0-1.94 1.904c0 1.371 1.011 1.99 1.972 1.99S95.5 8.231 95.5 7.113zM106.441 10.173V4.036h1.254v.382c.361-.346 1-.485 1.47-.485 1.452 0 2.477 1.082 2.457 2.448v3.792h-1.27V6.492c0-.408-.214-1.339-1.315-1.339-.969 0-1.342.756-1.342 1.339v3.681h-1.254zm-30.383-.021V1.824h1.084l4.215 5.777V1.824h1.32v8.328h-1.094l-4.207-5.796v5.796h-1.319zM5.24 10.149H4V2.377h1.014l2.664 3.597 2.654-3.592h1.03v7.766h-1.256V4.762L7.678 8.068 5.24 4.742v5.407z" transform="translate(440, 548)" fill="#ababab88" stroke="none"></path></svg>