<?xml version="1.0" encoding="utf-8" standalone="yes"?>
<!DOCTYPE svg PUBLIC "-//W3C//DTD SVG 1.1//EN" "http://www.w3.org/Graphics/SVG/1.1/DTD/svg11.dtd">
<svg style="fill:none;stroke:none;fill-rule:evenodd;clip-rule:evenodd;stroke-linecap:round;stroke-linejoin:round;stroke-miterlimit:1.5;" version="1.1" xmlns="http://www.w3.org/2000/svg" xmlns:xlink="http://www.w3.org/1999/xlink" width="840" height="540" viewBox="0 0 840 540"><style class="text-font-style fontImports" data-font-family="Roboto">@import url(https://fonts.googleapis.com/css2?family=Roboto:wght@400;700&amp;amp;display=block);</style><g id="items" style="isolation: isolate"><g id="blend" style="mix-blend-mode: normal"><g id="g-root-cp_1_g-1_1luwrol172qyo8-fill" data-item-order="-351637" transform="translate(38, 266)"></g><g id="g-root-cp_2_g-2_143mr6t172r11d-fill" data-item-order="-351611" transform="translate(230, 266)"></g><g id="g-root-cp_3_g-3_v8m811172qyoa-fill" data-item-order="-351585" transform="translate(422, 266)"></g><g id="g-root-cp_4_g-4_qsspwl172qzgj-fill" data-item-order="-351559" transform="translate(614, 266)"></g><g id="g-root-tx_tenantis_hx5pnp172r098-fill" data-item-order="0" transform="translate(260, 38)"><g id="tx_tenantis_hx5pnp172r098-fill-merged" stroke="none" fill="#f4f4f4" fill-opacity="1"><g><text style="font: bold 25px &quot;Roboto&quot;, sans-serif; white-space: pre;" transform="translate(160, 28)" font-weight="bold" font-size="25px" font-family="'Roboto', sans-serif"><tspan x="-142.88" y="15" dominant-baseline="ideographic">Tenant Isolation Features</tspan></text></g></g></g><g id="g-root-ic_lock_1qbz7z9172r027-fill" data-item-order="0" transform="translate(62, 122)"></g><g id="g-root-ic_key_145i6g5172sdfp-fill" data-item-order="0" transform="translate(254, 122)"></g><g id="g-root-ic_circ_qvx3c5172ts7h-fill" data-item-order="0" transform="translate(446, 122)"></g><g id="g-root-ic_home_vb44dh172v8qz-fill" data-item-order="0" transform="translate(638, 122)"></g><g id="g-root-tx_strictbo_4mbodh172qyod-fill" data-item-order="0" transform="translate(50, 314)"><g id="tx_strictbo_4mbodh172qyod-fill-merged" stroke="none" fill="#4f91fc" fill-opacity="1"><g><text style="font: bold 20px &quot;Roboto&quot;, sans-serif; white-space: pre;" transform="translate(82, 22)" font-weight="bold" font-size="20px" font-family="'Roboto', sans-serif"><tspan x="-69.93" y="12" dominant-baseline="ideographic">Strict Boundary</tspan></text></g></g></g><g id="g-root-tx_adminacc_1lw5put172se8b-fill" data-item-order="0" transform="translate(242, 314)"><g id="tx_adminacc_1lw5put172se8b-fill-merged" stroke="none" fill="#1ac3fb" fill-opacity="1"><g><text style="font: bold 20px &quot;Roboto&quot;, sans-serif; white-space: pre;" transform="translate(82, 22)" font-weight="bold" font-size="20px" font-family="'Roboto', sans-serif"><tspan x="-64.55" y="12" dominant-baseline="ideographic">Admin Access</tspan></text></g></g></g><g id="g-root-tx_groupmem_146r4md172ttsb-fill" data-item-order="0" transform="translate(446, 314)"><g id="tx_groupmem_146r4md172ttsb-fill-merged" stroke="none" fill="#43dd93" fill-opacity="1"><g><text style="font: bold 20px &quot;Roboto&quot;, sans-serif; white-space: pre;" transform="translate(70, 34)" font-weight="bold" font-size="20px" font-family="'Roboto', sans-serif"><tspan x="-27.19" y="0" dominant-baseline="ideographic">Group </tspan><tspan x="-56.51" y="24" dominant-baseline="ideographic">Membership</tspan></text></g></g></g><g id="g-root-tx_resource_18mkmqt172v761-fill" data-item-order="0" transform="translate(650, 314)"><g id="tx_resource_18mkmqt172v761-fill-merged" stroke="none" fill="#a6da37" fill-opacity="1"><g><text style="font: bold 20px &quot;Roboto&quot;, sans-serif; white-space: pre;" transform="translate(58, 34)" font-weight="bold" font-size="20px" font-family="'Roboto', sans-serif"><tspan x="-44.84" y="0" dominant-baseline="ideographic">Resource </tspan><tspan x="-34.81" y="24" dominant-baseline="ideographic">Groups</tspan></text></g></g></g><g id="g-root-tx_enforces_6i691172qzgm-fill" data-item-order="0" transform="translate(56, 350)"><g id="tx_enforces_6i691172qzgm-fill-merged" stroke="none" fill="#4f91fc" fill-opacity="1"><g><text style="font: 15px &quot;Roboto&quot;, sans-serif; white-space: pre;" transform="translate(76, 46)" font-size="15px" font-family="'Roboto', sans-serif"><tspan x="-63.31" y="-18" dominant-baseline="ideographic">Enforces isolation, </tspan><tspan x="-36.81" y="0" dominant-baseline="ideographic">preventing </tspan><tspan x="-45.44" y="18" dominant-baseline="ideographic">unauthorized </tspan><tspan x="-27.49" y="36" dominant-baseline="ideographic">access.</tspan></text></g></g></g><g id="g-root-tx_allowssu_18kp7hh172sft8-fill" data-item-order="0" transform="translate(242, 350)"><g id="tx_allowssu_18kp7hh172sft8-fill-merged" stroke="none" fill="#1ac3fb" fill-opacity="1"><g><text style="font: 15px &quot;Roboto&quot;, sans-serif; white-space: pre;" transform="translate(82, 40)" font-size="15px" font-family="'Roboto', sans-serif"><tspan x="-51.92" y="-9" dominant-baseline="ideographic">Allows support </tspan><tspan x="-66.41" y="9" dominant-baseline="ideographic">teams cross-tenant </tspan><tspan x="-27.49" y="27" dominant-baseline="ideographic">access.</tspan></text></g></g></g><g id="g-root-tx_organize_146r4md172ttsc-fill" data-item-order="0" transform="translate(434, 374)"><g id="tx_organize_146r4md172ttsc-fill-merged" stroke="none" fill="#43dd93" fill-opacity="1"><g><text style="font: 15px &quot;Roboto&quot;, sans-serif; white-space: pre;" transform="translate(82, 40)" font-size="15px" font-family="'Roboto', sans-serif"><tspan x="-69.07" y="-9" dominant-baseline="ideographic">Organizes users into </tspan><tspan x="-45.96" y="9" dominant-baseline="ideographic">groups within </tspan><tspan x="-28.03" y="27" dominant-baseline="ideographic">tenants.</tspan></text></g></g></g><g id="g-root-tx_scopesre_146r4md172v7ya-fill" data-item-order="0" transform="translate(626, 374)"><g id="tx_scopesre_146r4md172v7ya-fill-merged" stroke="none" fill="#a6da37" fill-opacity="1"><g><text style="font: 15px &quot;Roboto&quot;, sans-serif; white-space: pre;" transform="translate(82, 28)" font-size="15px" font-family="'Roboto', sans-serif"><tspan x="-69.03" y="0" dominant-baseline="ideographic">Scopes resources to </tspan><tspan x="-55.82" y="18" dominant-baseline="ideographic">specific tenants.</tspan></text></g></g></g><g id="g-root-cp_1_g-1_1luwrol172qyo8-stroke" data-item-order="-351637" transform="translate(38, 266)"><g id="cp_1_g-1_1luwrol172qyo8-stroke" fill="none" stroke-linecap="round" stroke-linejoin="round" stroke-miterlimit="4" stroke="#4f91fc" stroke-width="2" stroke-opacity="1"><g><path d="M 10 58L 10 46C 10 39.37 15.38 34 22 34L 70 34L 94 10L 118 34L 166 34C 172.63 34 178 39.37 178 46L 178 58M 178 58L 178 178M 10 178L 10 58M 178 178L 178 190C 178 196.63 172.63 202 166 202L 22 202C 15.37 202 10 196.63 10 190L 10 178"></path></g></g></g><g id="g-root-cp_2_g-2_143mr6t172r11d-stroke" data-item-order="-351611" transform="translate(230, 266)"><g id="cp_2_g-2_143mr6t172r11d-stroke" fill="none" stroke-linecap="round" stroke-linejoin="round" stroke-miterlimit="4" stroke="#1ac3fb" stroke-width="2" stroke-opacity="1"><g><path d="M 10 58L 10 46C 10 39.37 15.38 34 22 34L 70 34L 94 10L 118 34L 166 34C 172.63 34 178 39.37 178 46L 178 58M 178 58L 178 178M 10 178L 10 58M 178 178L 178 190C 178 196.63 172.63 202 166 202L 22 202C 15.37 202 10 196.63 10 190L 10 178"></path></g></g></g><g id="g-root-cp_3_g-3_v8m811172qyoa-stroke" data-item-order="-351585" transform="translate(422, 266)"><g id="cp_3_g-3_v8m811172qyoa-stroke" fill="none" stroke-linecap="round" stroke-linejoin="round" stroke-miterlimit="4" stroke="#43dd93" stroke-width="2" stroke-opacity="1"><g><path d="M 10 58L 10 46C 10 39.37 15.38 34 22 34L 70 34L 94 10L 118 34L 166 34C 172.63 34 178 39.37 178 46L 178 58M 178 58L 178 178M 10 178L 10 58M 178 178L 178 190C 178 196.63 172.63 202 166 202L 22 202C 15.37 202 10 196.63 10 190L 10 178"></path></g></g></g><g id="g-root-cp_4_g-4_qsspwl172qzgj-stroke" data-item-order="-351559" transform="translate(614, 266)"><g id="cp_4_g-4_qsspwl172qzgj-stroke" fill="none" stroke-linecap="round" stroke-linejoin="round" stroke-miterlimit="4" stroke="#a6da37" stroke-width="2" stroke-opacity="1"><g><path d="M 10 58L 10 46C 10 39.37 15.38 34 22 34L 70 34L 94 10L 118 34L 166 34C 172.63 34 178 39.37 178 46L 178 58M 178 58L 178 178M 10 178L 10 58M 178 178L 178 190C 178 196.63 172.63 202 166 202L 22 202C 15.37 202 10 196.63 10 190L 10 178"></path></g></g></g><g id="g-root-tx_tenantis_hx5pnp172r098-stroke" data-item-order="0" transform="translate(260, 38)"></g><g id="g-root-ic_lock_1qbz7z9172r027-stroke" data-item-order="0" transform="translate(62, 122)"><g id="ic_lock_1qbz7z9172r027-stroke" fill="none" stroke-linecap="round" stroke-linejoin="round" stroke-miterlimit="4" stroke="#4f91fc" stroke-width="2" stroke-opacity="1"><g><path d="M 73.814995 98.739998L 23.445 98.739998C 17.674768 98.734482 12.999997 94.055237 13 88.285004L 13 22.955C 12.999997 17.184767 17.674768 12.505519 23.445 12.5L 101.845001 12.5C 107.617188 12.502761 112.295006 17.182816 112.295006 22.955L 112.294998 54.635002M 12.99 32.915001L 112.294998 32.915001M 12.99 76.290001L 73.814995 76.290001M 12.99 54.635002L 112.294998 54.635002M 53.549999 32.915001L 53.549999 98.739998M 82.629997 32.915001L 82.629997 68.014999M 84.18 97.760002C 84.18 93.653763 87.508759 90.325005 91.614998 90.325005L 119.575005 90.325005C 123.67733 90.330513 127 93.657669 127 97.760002L 127 120.065002C 127 124.167336 123.67733 127.494476 119.574997 127.5L 91.614998 127.5C 87.508759 127.5 84.18 124.171234 84.18 120.065002ZM 105.595001 68L 105.595001 68C 97.547905 68.166748 91.15818 74.8228 91.32 82.869995L 91.32 90.309998L 119.870003 90.309998L 119.870003 82.884995C 120.040222 74.831993 113.648071 68.166702 105.595001 68ZM 105.595001 103.704994C 103.398727 103.615196 101.368324 104.869301 100.465347 106.873383C 99.562378 108.877472 99.968109 111.229202 101.490402 112.814865C 103.012703 114.400528 105.345947 114.901794 107.38517 114.081253C 109.4244 113.260719 110.760208 111.283119 110.760002 109.085007C 110.818573 106.17337 108.506577 103.765137 105.595001 103.704994L 105.595001 103.704994"></path></g></g></g><g id="g-root-ic_key_145i6g5172sdfp-stroke" data-item-order="0" transform="translate(254, 122)"><g id="ic_key_145i6g5172sdfp-stroke" fill="none" stroke-linecap="round" stroke-linejoin="round" stroke-miterlimit="4" stroke="#1ac3fb" stroke-width="2" stroke-opacity="1"><g><path d="M 90 110.039993C 90 112.80143 92.238579 115.039993 95 115.039993C 97.761421 115.039993 100 112.80143 100 110.039993C 100 107.27858 97.761421 105.039993 95 105.039993C 92.238579 105.039993 90 107.27858 90 110.039993ZM 127.5 77.540001L 117.5 77.540001L 101.32 93.720001C 93.605789 90.732864 84.853607 93.555382 80.337997 100.486588C 75.822395 107.417786 76.776955 116.564148 82.626404 122.413605C 88.475861 128.263062 97.622231 129.217621 104.553421 124.702003C 111.484619 120.186394 114.307144 111.434219 111.320007 103.720009L 127.5 87.540001ZM 12.5 77.540001C 12.548613 72.89843 13.508448 68.311607 15.325001 64.040001C 17.325001 60.040001 25.639999 57.290001 36.09 53.419998C 38.915001 52.375 38.450001 45 37.200001 43.619999C 33.171379 39.254581 31.197678 33.377136 31.775 27.464998C 31.413013 23.700649 32.631844 19.955187 35.139862 17.124777C 37.647881 14.294369 41.219444 12.633658 44.999996 12.54C 48.780552 12.633658 52.352119 14.294369 54.860134 17.124777C 57.368156 19.955187 58.586983 23.700649 58.224998 27.464998C 58.803787 33.378811 56.829983 39.258377 52.799995 43.625C 51.550003 45.005001 51.084999 52.379997 53.909996 53.425003C 64.360001 57.294998 72.68 60.060001 74.675003 64.044998C 76.491554 68.316612 77.451385 72.903435 77.5 77.544998ZM 64.559998 13.725C 66.265099 12.937654 68.121902 12.533184 69.999992 12.54C 73.780548 12.633658 77.352119 14.294369 79.860138 17.124777C 82.368156 19.955187 83.586983 23.700649 83.224998 27.464998C 83.803787 33.378811 81.829979 39.258377 77.799995 43.625C 76.550003 45.005001 76.084999 52.379997 78.909996 53.425003C 89.360001 57.294998 97.679993 60.060001 99.674995 64.044998C 101.491554 68.316612 102.451393 72.903435 102.5 77.544998L 87.5 77.544998"></path></g></g></g><g id="g-root-ic_circ_qvx3c5172ts7h-stroke" data-item-order="0" transform="translate(446, 122)"><g id="ic_circ_qvx3c5172ts7h-stroke" fill="none" stroke-linecap="round" stroke-linejoin="round" stroke-miterlimit="4" stroke="#43dd93" stroke-width="2" stroke-opacity="1"><g><path d="M 95 108.5C 114.239998 110.125 127.5 113.549995 127.5 117.5C 127.5 123 101.759995 127.5 70 127.5C 38.239998 127.5 12.5 123 12.5 117.5C 12.5 113.549995 25.674999 110.135002 44.790001 108.5M 101.25 33.75C 101.25 39.963203 106.286789 45 112.5 45C 118.713211 45 123.75 39.963203 123.75 33.75C 123.75 27.536797 118.713211 22.5 112.5 22.5C 106.286789 22.5 101.25 27.536797 101.25 33.75ZM 112.5 50C 104.215729 50 97.5 56.715733 97.5 65L 97.5 77.5L 105 77.5L 107.5 100L 117.5 100L 120 77.5L 127.5 77.5L 127.5 65C 127.5 56.715733 120.784271 50 112.5 50ZM 16.25 33.75C 16.25 39.963203 21.286797 45 27.5 45C 33.713203 45 38.75 39.963203 38.75 33.75C 38.75 27.536797 33.713203 22.5 27.5 22.5C 21.286797 22.5 16.25 27.536797 16.25 33.75ZM 27.5 50C 19.215729 50 12.5 56.715733 12.5 65L 12.5 77.5L 20 77.5L 22.5 100L 32.5 100L 35 77.5L 42.5 77.5L 42.5 65C 42.500004 56.715733 35.784271 50 27.5 50ZM 56.25 26.25C 56.25 33.843914 62.406086 40 70 40C 77.593918 40 83.75 33.843914 83.75 26.25C 83.75 18.656086 77.593918 12.500001 70 12.500001C 62.406086 12.500001 56.25 18.656086 56.25 26.25ZM 87.5 62.5C 87.500008 52.835022 79.664986 45.000004 70.000008 45.000004C 60.335022 45.000004 52.500004 52.835022 52.500004 62.5L 52.5 77.5L 60.415001 77.5L 62.5 102.5L 77.5 102.5L 79.584999 77.5L 87.5 77.5Z"></path></g></g></g><g id="g-root-ic_home_vb44dh172v8qz-stroke" data-item-order="0" transform="translate(638, 122)"><g id="ic_home_vb44dh172v8qz-stroke" fill="none" stroke-linecap="round" stroke-linejoin="round" stroke-miterlimit="4" stroke="#a6da37" stroke-width="2" stroke-opacity="1"><g><path d="M 112.5 67.5L 112.5 32.5C 112.5 29.738577 110.261421 27.5 107.5 27.5L 58.09 27.5C 56.196671 27.498989 54.46632 26.428646 53.619999 24.735001L 48.880001 15.264999C 48.033684 13.571353 46.303329 12.501011 44.41 12.5L 17.5 12.5C 14.738576 12.5 12.5 14.738576 12.5 17.5L 12.5 92.5C 12.5 95.261421 14.738576 97.5 17.5 97.5L 47.5 97.5M 72.5 91.540001L 72.5 122.5C 72.5 125.261421 74.738571 127.5 77.5 127.5L 112.5 127.5C 115.261421 127.5 117.5 125.261421 117.5 122.5L 117.5 91.540001M 62.5 100L 91.770004 75.235001C 93.634331 73.657249 96.365669 73.657249 98.229996 75.235001L 127.5 100M 102.5 127.5L 87.5 127.5L 87.5 112.5C 87.500008 108.357864 90.857864 105 95 105C 99.142143 105 102.5 108.357864 102.5 112.5Z"></path></g></g></g><g id="g-root-tx_strictbo_4mbodh172qyod-stroke" data-item-order="0" transform="translate(50, 314)"></g><g id="g-root-tx_adminacc_1lw5put172se8b-stroke" data-item-order="0" transform="translate(242, 314)"></g><g id="g-root-tx_groupmem_146r4md172ttsb-stroke" data-item-order="0" transform="translate(446, 314)"></g><g id="g-root-tx_resource_18mkmqt172v761-stroke" data-item-order="0" transform="translate(650, 314)"></g><g id="g-root-tx_enforces_6i691172qzgm-stroke" data-item-order="0" transform="translate(56, 350)"></g><g id="g-root-tx_allowssu_18kp7hh172sft8-stroke" data-item-order="0" transform="translate(242, 350)"></g><g id="g-root-tx_organize_146r4md172ttsc-stroke" data-item-order="0" transform="translate(434, 374)"></g><g id="g-root-tx_scopesre_146r4md172v7ya-stroke" data-item-order="0" transform="translate(626, 374)"></g></g></g><path id="whva43915f7g23" d="M65.283 12.757a.35.35 0 0 0 .584.157l5.203-5.141-6.183 3.523.396 1.461zm-2.216-11.7a.35.35 0 0 0-.522.305v3.111l3.276-1.868-2.754-1.548zm3.728 2.105l-4.25 2.421v2.445l6.391-3.644-2.141-1.222zm4.708 3.303a.35.35 0 0 0 0-.609l-1.592-.9-7.365 4.199v1.782a.35.35 0 0 0 .523.305l8.435-4.777z M44.542 2.513c0-.433.355-.783.792-.783s.792.35.792.783-.355.783-.792.783-.792-.35-.792-.783zm59.171 0c0-.433.355-.783.792-.783s.792.35.792.783-.355.783-.792.783-.792-.35-.792-.783zm-85.951 7.636h-1.27v-.487c-.276.201-.864.609-1.881.609-1.202 0-2.274-.794-2.137-2.078.118-1.106 1.153-1.584 1.848-1.727l2.17-.345c0-.539-.29-.956-1.064-1.006s-1.21.305-1.571 1.017l-1.124-.605c1.218-2.631 5.029-1.764 5.029.414v4.207zm-1.27-2.86c.006.396-.062 1.112-.819 1.59-.587.37-1.841.299-1.903-.395-.049-.555.461-.791.906-.898l1.816-.297zm72.662 2.86h-1.27v-.487c-.276.201-.864.609-1.881.609-1.202 0-2.274-.794-2.137-2.078.118-1.106 1.153-1.584 1.848-1.727l2.17-.345c0-.539-.29-.956-1.064-1.006s-1.21.305-1.571 1.017l-1.124-.605c1.218-2.631 5.029-1.764 5.029.414v4.207zm-1.27-2.86c.006.396-.062 1.112-.82 1.59-.587.37-1.841.299-1.903-.395-.049-.555.461-.791.906-.898l1.816-.297zM99.096 10.149H97.85v-8.45h1.246v4.895l2.68-2.559h1.738l-2.633 2.535 2.715 3.578h-1.556l-2.077-2.707-.867.844v1.863zm6.053-6.114h-1.255v6.113h1.255V4.035zm-59.2 0h-1.255v6.113h1.255V4.035zm5.584 6.113V1.697h1.255v2.695c.361-.346 1-.485 1.47-.485 1.452 0 2.477 1.082 2.457 2.448v3.792h-1.27v-3.68c0-.408-.214-1.339-1.315-1.339-.968 0-1.342.756-1.342 1.339v3.681h-1.255zm-4.76-4.894V4.039h.621a.45.45 0 0 0 .45-.45v-.855h1.251v1.305h1.309v1.215h-1.309v3.109c0 .293.105.664.648.664.365 0 .531-.035.736-.07v1.137s-.361.113-.857.113c-1.398 0-1.777-1.051-1.777-1.788V5.254h-1.071zM36.528 4.039h-1.394l2.191 6.106h1.125l1.234-3.918 1.238 3.918h1.129l2.188-6.106h-1.383l-1.359 3.93-1.256-3.93h-1.124l-1.242 3.957-1.348-3.957zM26.212 7.141c-.02 1.566 1.187 3.129 3.223 3.129 1.566 0 2.383-.918 2.734-1.719L31.172 8c-.315.399-.801 1.094-1.738 1.094-1.145 0-1.825-.781-1.891-1.52h4.625c.074-.284.148-.995-.03-1.559-.336-1.064-1.221-2.102-2.839-2.102s-3.088 1.152-3.088 3.227zm1.363-.75h3.348c-.055-.43-.566-1.301-1.623-1.301a1.79 1.79 0 0 0-1.725 1.301zm-8.758.75c.038 1.758 1.277 3.133 3.145 3.133 1.074 0 1.723-.477 1.961-.672v.547h1.242V1.703h-1.258v2.888c-.414-.36-1.062-.68-1.93-.68-1.91 0-3.198 1.473-3.16 3.23zm1.309-.08c0 1.119.723 1.978 1.836 1.978a1.88 1.88 0 0 0 1.94-1.904c0-1.371-1.011-1.99-1.972-1.99s-1.805.798-1.805 1.916zm76.683-.028C96.771 5.275 95.532 3.9 93.664 3.9c-1.074 0-1.723.477-1.961.672v-.547h-1.242v8.22h1.258V9.583c.414.36 1.063.68 1.93.68 1.91 0 3.198-1.473 3.16-3.23zm-1.309.08c0-1.119-.723-1.978-1.836-1.978a1.88 1.88 0 0 0-1.94 1.904c0 1.371 1.011 1.99 1.972 1.99S95.5 8.231 95.5 7.113zM106.441 10.173V4.036h1.254v.382c.361-.346 1-.485 1.47-.485 1.452 0 2.477 1.082 2.457 2.448v3.792h-1.27V6.492c0-.408-.214-1.339-1.315-1.339-.969 0-1.342.756-1.342 1.339v3.681h-1.254zm-30.383-.021V1.824h1.084l4.215 5.777V1.824h1.32v8.328h-1.094l-4.207-5.796v5.796h-1.319zM5.24 10.149H4V2.377h1.014l2.664 3.597 2.654-3.592h1.03v7.766h-1.256V4.762L7.678 8.068 5.24 4.742v5.407z" transform="translate(704, 506)" fill="#ababab88" stroke="none"></path></svg>