<?xml version="1.0" encoding="utf-8" standalone="yes"?>
<!DOCTYPE svg PUBLIC "-//W3C//DTD SVG 1.1//EN" "http://www.w3.org/Graphics/SVG/1.1/DTD/svg11.dtd">
<svg style="fill:none;stroke:none;fill-rule:evenodd;clip-rule:evenodd;stroke-linecap:round;stroke-linejoin:round;stroke-miterlimit:1.5;" version="1.1" xmlns="http://www.w3.org/2000/svg" xmlns:xlink="http://www.w3.org/1999/xlink" width="948" height="708" viewBox="0 0 948 708"><style class="text-font-style fontImports" data-font-family="Roboto">@import url(https://fonts.googleapis.com/css2?family=Roboto:wght@400;700&amp;amp;display=block);</style><g id="items" style="isolation: isolate"><g id="blend" style="mix-blend-mode: normal"><g id="g-root-cp_5_g-5_1cvits517muebt-fill" data-item-order="-550789" transform="translate(272.2889709472656, 330.5689697265625)"></g><g id="g-root-cp_4_g-4_1cvits517muebu-fill" data-item-order="-550783" transform="translate(324.3179931640625, 428.2750244140625)"></g><g id="g-root-cp_3_g-3_18fpbnp17muf43-fill" data-item-order="-550777" transform="translate(464.04901123046875, 428.2750244140625)"></g><g id="g-root-cp_2_g-2_18fpbnp17muf44-fill" data-item-order="-550771" transform="translate(464, 330.56890869140625)"></g><g id="g-root-cp_1_g-1_18fpbnp17muf45-fill" data-item-order="-550765" transform="translate(409.97998046875, 229.7039794921875)"></g><g id="g-root-tx_accessco_zk2bet17mufwu-fill" data-item-order="0" transform="translate(278, 38)"><g id="tx_accessco_zk2bet17mufwu-fill-merged" stroke="none" fill="#f4f4f4" fill-opacity="1"><g><text style="font: bold 25px &quot;Roboto&quot;, sans-serif; white-space: pre;" transform="translate(196, 28)" font-weight="bold" font-size="25px" font-family="'Roboto', sans-serif"><tspan x="-181.57" y="15" dominant-baseline="ideographic">Access control implementations</tspan></text></g></g></g><g id="g-root-tx_unixstyl_zjfubp17n01dw-fill" data-item-order="0" transform="translate(404, 98)"><g id="tx_unixstyl_zjfubp17n01dw-fill-merged" stroke="none" fill="#ffe711" fill-opacity="1"><g><text style="font: 20px &quot;Roboto&quot;, sans-serif; white-space: pre;" transform="translate(70, 34)" font-size="20px" font-family="'Roboto', sans-serif"><tspan x="-43.06" y="0" dominant-baseline="ideographic">Unix-style </tspan><tspan x="-54.64" y="24" dominant-baseline="ideographic">permissions</tspan></text></g></g></g><g id="g-root-tx_implemen_m8lt1h17mzzt1-fill" data-item-order="0" transform="translate(362, 158)"><g id="tx_implemen_m8lt1h17mzzt1-fill-merged" stroke="none" fill="#f4f4f4" fill-opacity="1"><g><text style="font: 15px &quot;Roboto&quot;, sans-serif; white-space: pre;" transform="translate(112, 40)" font-size="15px" font-family="'Roboto', sans-serif"><tspan x="-99.5" y="-9" dominant-baseline="ideographic">Implements classic Unix-style </tspan><tspan x="-94.18" y="9" dominant-baseline="ideographic">permission bits using MPE's </tspan><tspan x="-64.5" y="27" dominant-baseline="ideographic">annotation system.</tspan></text></g></g></g><g id="g-root-ic_acce_m98a4l17muebz-fill" data-item-order="0" transform="translate(439.97998046875, 259.7039794921875)"></g><g id="g-root-tx_apiquota_1cuwcp117mzzsy-fill" data-item-order="0" transform="translate(134, 278)"><g id="tx_apiquota_1cuwcp117mzzsy-fill-merged" stroke="none" fill="#a6da37" fill-opacity="1"><g><text style="font: 20px &quot;Roboto&quot;, sans-serif; white-space: pre;" transform="translate(130, 34)" font-size="20px" font-family="'Roboto', sans-serif"><tspan x="-89.3" y="0" dominant-baseline="ideographic">API quota </tspan><tspan x="-115.4" y="24" dominant-baseline="ideographic">enforcement</tspan></text></g></g></g><g id="g-root-tx_mcpserve_1d30ith17mym84-fill" data-item-order="0" transform="translate(674, 290)"><g id="tx_mcpserve_1d30ith17mym84-fill-merged" stroke="none" fill="#4f91fc" fill-opacity="1"><g><text style="font: 20px &quot;Roboto&quot;, sans-serif; white-space: pre;" transform="translate(10, 22)" font-size="20px" font-family="'Roboto', sans-serif"><tspan x="2" y="12" dominant-baseline="ideographic">MCP server protection</tspan></text></g></g></g><g id="g-root-tx_demonstr_13z9cg517n00ln-fill" data-item-order="0" transform="translate(50, 338)"><g id="tx_demonstr_13z9cg517n00ln-fill-merged" stroke="none" fill="#f4f4f4" fill-opacity="1"><g><text style="font: 15px &quot;Roboto&quot;, sans-serif; white-space: pre;" transform="translate(214, 40)" font-size="15px" font-family="'Roboto', sans-serif"><tspan x="-193.45" y="-9" dominant-baseline="ideographic">Demonstrates using MPE for </tspan><tspan x="-184.85" y="9" dominant-baseline="ideographic">API quota enforcement and </tspan><tspan x="-136.6" y="27" dominant-baseline="ideographic">tiered access levels.</tspan></text></g></g></g><g id="g-root-ic_clou_9c9117mymmj-fill" data-item-order="0" transform="translate(302.3030090332031, 359)"></g><g id="g-root-ic_secu_vtc517mvsp4-fill" data-item-order="0" transform="translate(578, 359)"></g><g id="g-root-tx_protects_qwjhad17mylfx-fill" data-item-order="0" transform="translate(674, 326)"><g id="tx_protects_qwjhad17mylfx-fill-merged" stroke="none" fill="#f4f4f4" fill-opacity="1"><g><text style="font: 15px &quot;Roboto&quot;, sans-serif; white-space: pre;" transform="translate(10, 40)" font-size="15px" font-family="'Roboto', sans-serif"><tspan x="2" y="-9" dominant-baseline="ideographic">Protects Model Context </tspan><tspan x="2" y="9" dominant-baseline="ideographic">Protocol servers with fine-</tspan><tspan x="2" y="27" dominant-baseline="ideographic">grained access control.</tspan></text></g></g></g><g id="g-root-ic_warn_1uuajb917mvt3e-fill" data-item-order="0" transform="translate(354, 522)"></g><g id="g-root-ic_hook_hzniv917mvu2p-fill" data-item-order="0" transform="translate(526, 522)"></g><g id="g-root-tx_hipaacom_4g2udh17n0000-fill" data-item-order="0" transform="translate(122, 542)"><g id="tx_hipaacom_4g2udh17n0000-fill-merged" stroke="none" fill="#43dd93" fill-opacity="1"><g><text style="font: 20px &quot;Roboto&quot;, sans-serif; white-space: pre;" transform="translate(190, 22)" font-size="20px" font-family="'Roboto', sans-serif"><tspan x="-167.4" y="12" dominant-baseline="ideographic">HIPAA compliance</tspan></text></g></g></g><g id="g-root-tx_tenantis_mgpz5x17mym86-fill" data-item-order="0" transform="translate(626, 542)"><g id="tx_tenantis_mgpz5x17mym86-fill-merged" stroke="none" fill="#1ac3fb" fill-opacity="1"><g><text style="font: 20px &quot;Roboto&quot;, sans-serif; white-space: pre;" transform="translate(10, 22)" font-size="20px" font-family="'Roboto', sans-serif"><tspan x="2" y="12" dominant-baseline="ideographic">Tenant isolation</tspan></text></g></g></g><g id="g-root-tx_modelshi_1q5qdz917n01dt-fill" data-item-order="0" transform="translate(98, 578)"><g id="tx_modelshi_1q5qdz917n01dt-fill-merged" stroke="none" fill="#f4f4f4" fill-opacity="1"><g><text style="font: 15px &quot;Roboto&quot;, sans-serif; white-space: pre;" transform="translate(214, 40)" font-size="15px" font-family="'Roboto', sans-serif"><tspan x="-168.75" y="-9" dominant-baseline="ideographic">Models HIPAA-compliant </tspan><tspan x="-191.6" y="9" dominant-baseline="ideographic">access control for electronic </tspan><tspan x="-101.33" y="27" dominant-baseline="ideographic">health records.</tspan></text></g></g></g><g id="g-root-tx_implemen_959gsl17mynt3-fill" data-item-order="0" transform="translate(626, 578)"><g id="tx_implemen_959gsl17mynt3-fill-merged" stroke="none" fill="#f4f4f4" fill-opacity="1"><g><text style="font: 15px &quot;Roboto&quot;, sans-serif; white-space: pre;" transform="translate(10, 28)" font-size="15px" font-family="'Roboto', sans-serif"><tspan x="2" y="0" dominant-baseline="ideographic">Implements tenant isolation </tspan><tspan x="2" y="18" dominant-baseline="ideographic">for a SaaS application.</tspan></text></g></g></g><g id="g-root-cp_5_g-5_1cvits517muebt-stroke" data-item-order="-550789" transform="translate(272.2889709472656, 330.5689697265625)"><g id="cp_5_g-5_1cvits517muebt-stroke" fill="none" stroke-linecap="round" stroke-linejoin="round" stroke-miterlimit="4" stroke="#a6da37" stroke-width="2" stroke-opacity="1"><g><path d="M 80.321831 12.5356C 85.787531 14.267 90.784431 16.7872 95.226831 19.9309C 97.131931 21.2791 98.935031 22.7419 100.629431 24.3064C 115.536031 38.0701 122.025731 59.7005 115.493331 80.3218C 115.475231 80.379 115.457031 80.436 115.438831 80.4931C 108.435331 102.3538 88.796231 116.674 67.152431 117.9379C 60.754331 118.3114 54.181031 117.5441 47.707231 115.4933C 19.276231 106.4871 3.529431 76.1381 12.535631 47.7072C 21.541931 19.2762 51.890831 3.5294 80.321831 12.5356ZM 68.369431 117.9379L 201.810231 107.7525L 100.629431 24.3064C 115.536031 38.0701 122.025731 59.7005 115.493331 80.3218C 115.475231 80.379 115.457031 80.436 115.438831 80.4931C 108.593631 101.9826 89.546831 116.206 68.369431 117.9379ZM 68.369431 117.9379L 67.152431 117.9379M 115.465531 80.4091C 115.456631 80.4371 115.447731 80.4651 115.438831 80.4931M 95.226831 19.9309L 97.625131 21.8287L 100.629431 24.3064"></path></g></g></g><g id="g-root-cp_4_g-4_1cvits517muebu-stroke" data-item-order="-550783" transform="translate(324.3179931640625, 428.2750244140625)"><g id="cp_4_g-4_1cvits517muebu-stroke" fill="none" stroke-linecap="round" stroke-linejoin="round" stroke-miterlimit="4" stroke="#43dd93" stroke-width="2" stroke-opacity="1"><g><path d="M 20.6456 93.9079C 2.8684 117.8538 7.869 151.677 31.8148 169.4543C 55.7607 187.2315 89.5839 182.2309 107.3612 158.285C 111.6212 152.5468 114.5732 146.2415 116.2699 139.7256C 116.5072 138.8145 116.7199 137.8994 116.9082 136.9811C 120.9933 117.0595 113.5973 95.6603 96.1919 82.7387C 77.7666 69.0598 53.4932 68.867 35.1816 80.4141C 29.6952 83.8738 24.744 88.3874 20.6456 93.9079ZM 149.7278 10L 37.1661 78.891L 35.1816 80.4141C 53.4932 68.867 77.7666 69.0598 96.1919 82.7387C 113.5973 95.6603 120.9933 117.0595 116.9082 136.9811L 149.7278 10ZM 116.2699 139.7256L 116.9001 137.0123L 116.9082 136.9811"></path></g></g></g><g id="g-root-cp_3_g-3_18fpbnp17muf43-stroke" data-item-order="-550777" transform="translate(464.04901123046875, 428.2750244140625)"><g id="cp_3_g-3_18fpbnp17muf43-stroke" fill="none" stroke-linecap="round" stroke-linejoin="round" stroke-miterlimit="4" stroke="#1ac3fb" stroke-width="2" stroke-opacity="1"><g><path d="M 139.0822 93.9079C 156.8595 117.8538 151.8588 151.677 127.913 169.4543C 103.9671 187.2315 70.1439 182.2309 52.3667 158.285C 47.9978 152.4002 45.0046 145.9188 43.3302 139.2256C 43.1437 138.4798 42.9735 137.7315 42.8196 136.981C 38.7345 117.0594 46.1306 95.6603 63.5359 82.7387C 81.8604 69.1347 105.9691 68.8695 124.245 80.2256C 129.8514 83.7093 134.909 88.2866 139.0822 93.9079ZM 122.5618 78.891L 10 10L 42.8196 136.981C 38.7345 117.0594 46.1306 95.6603 63.5359 82.7387C 81.8604 69.1347 105.9691 68.8695 124.245 80.2256L 122.5618 78.891ZM 43.3302 139.2256L 42.8277 137.0123L 42.8196 136.981"></path></g></g></g><g id="g-root-cp_2_g-2_18fpbnp17muf44-stroke" data-item-order="-550771" transform="translate(464, 330.56890869140625)"><g id="cp_2_g-2_18fpbnp17muf44-stroke" fill="none" stroke-linecap="round" stroke-linejoin="round" stroke-miterlimit="4" stroke="#4f91fc" stroke-width="2" stroke-opacity="1"><g><path d="M 131.4884 12.535661C 125.5738 14.409361 120.2081 17.206661 115.5 20.718161C 114.0913 21.768861 112.7415 22.883561 111.4534 24.056561C 96.3536 37.807361 89.7449 59.575261 96.3169 80.321861C 103.2724 102.279061 122.9576 116.670761 144.6578 117.937961C 151.0559 118.311461 157.6292 117.544161 164.1031 115.493361C 192.5341 106.487161 208.2809 76.138161 199.2746 47.707261C 190.2683 19.276261 159.9194 3.529461 131.4884 12.535661ZM 10 107.752561L 143.4408 117.937961L 144.6578 117.937961C 122.9576 116.670761 103.2724 102.279061 96.3169 80.321861C 89.7449 59.575261 96.3536 37.807361 111.4534 24.056561L 10 107.752561ZM 114.188 21.838161L 115.5 20.718161L 111.4534 24.056561"></path></g></g></g><g id="g-root-cp_1_g-1_18fpbnp17muf45-stroke" data-item-order="-550765" transform="translate(409.97998046875, 229.7039794921875)"><g id="cp_1_g-1_18fpbnp17muf45-stroke" fill="none" stroke-linecap="round" stroke-linejoin="round" stroke-miterlimit="4" stroke="#ffe711" stroke-width="2" stroke-opacity="1"><g><path d="M 118 64C 118 70.0493 117.0053 75.8663 115.1705 81.2964C 107.9598 102.6366 87.774 118 64 118C 42.165 118 23.3569 105.0405 14.8477 86.3936C 14.3849 85.3795 13.9526 84.3486 13.5519 83.302C 11.2572 77.3081 10 70.8009 10 64C 10 34.1766 34.1766 10 64 10C 93.8234 10 118 34.1766 118 64ZM 14.8477 86.3936L 64.0663 208.5709L 114.5159 83.302L 114.5061 83.3021L 115.1705 81.2964C 107.9598 102.6366 87.774 118 64 118C 42.165 118 23.3569 105.0405 14.8477 86.3936ZM 13.5519 83.302L 14.0591 84.436L 14.8477 86.3936"></path></g></g></g><g id="g-root-tx_accessco_zk2bet17mufwu-stroke" data-item-order="0" transform="translate(278, 38)"></g><g id="g-root-tx_unixstyl_zjfubp17n01dw-stroke" data-item-order="0" transform="translate(404, 98)"></g><g id="g-root-tx_implemen_m8lt1h17mzzt1-stroke" data-item-order="0" transform="translate(362, 158)"></g><g id="g-root-ic_acce_m98a4l17muebz-stroke" data-item-order="0" transform="translate(439.97998046875, 259.7039794921875)"><g id="ic_acce_m98a4l17muebz-stroke" fill="none" stroke-linecap="round" stroke-linejoin="round" stroke-miterlimit="4" stroke="#ffe711" stroke-width="2" stroke-opacity="1"><g><path d="M 21 43.5C 21 50.679703 26.820299 56.5 34 56.5C 41.179703 56.5 47 50.679703 47 43.5C 47 36.320297 41.179703 30.500002 34 30.500002C 26.820299 30.500002 21 36.320297 21 43.5M 30 43.5C 30 45.709141 31.790861 47.5 34 47.5C 36.209137 47.5 38 45.709141 38 43.5C 38 41.290863 36.209137 39.5 34 39.5C 31.790861 39.5 30 41.290863 30 43.5M 44 35.200001L 44 21.5C 44 15.977153 39.52285 11.5 34 11.5C 28.477154 11.5 24 15.977153 24 21.5L 24 24.5"></path></g></g></g><g id="g-root-tx_apiquota_1cuwcp117mzzsy-stroke" data-item-order="0" transform="translate(134, 278)"></g><g id="g-root-tx_mcpserve_1d30ith17mym84-stroke" data-item-order="0" transform="translate(674, 290)"></g><g id="g-root-tx_demonstr_13z9cg517n00ln-stroke" data-item-order="0" transform="translate(50, 338)"></g><g id="g-root-ic_clou_9c9117mymmj-stroke" data-item-order="0" transform="translate(302.3030090332031, 359)"><g id="ic_clou_9c9117mymmj-stroke" fill="none" stroke-linecap="round" stroke-linejoin="round" stroke-miterlimit="4" stroke="#a6da37" stroke-width="2" stroke-opacity="1"><g><path d="M 49.534 56.731998L 49.534 43.664001M 46.919998 43.664001L 52.147999 43.664001M 46.919998 56.731998L 52.147999 56.731998M 32.237999 56.731998L 32.237999 51.504002M 32.237999 51.504002L 36.16 51.504002C 38.324745 51.5037 40.07946 49.748745 40.07946 47.584C 40.07946 45.419254 38.324745 43.664299 36.16 43.664001L 32.237999 43.664001ZM 14.941999 56.731998L 16.417999 46.894001C 16.713694 45.051308 18.303732 43.696075 20.17 43.696075C 22.03627 43.696075 23.626307 45.051308 23.922001 46.894001L 25.4 56.731998M 15.628 52.158001L 24.712 52.158001M 57 29.268C 57.00251 26.553617 55.899284 23.955311 53.944599 22.071943C 51.98991 20.188576 49.352413 19.182644 46.639999 19.285999C 43.916706 13.503402 37.61792 10.304704 31.342236 11.517374C 25.066551 12.730043 20.412907 18.045113 20.040001 24.426001C 17.828627 23.962803 15.526266 24.520912 13.772458 25.945301C 12.01865 27.369688 11.000196 29.508636 11 31.768C 11 39.388 19 39.267998 19 39.267998L 48 39.267998C 48 39.267998 57 38.096001 57 29.268Z"></path></g></g></g><g id="g-root-ic_secu_vtc517mvsp4-stroke" data-item-order="0" transform="translate(578, 359)"><g id="ic_secu_vtc517mvsp4-stroke" fill="none" stroke-linecap="round" stroke-linejoin="round" stroke-miterlimit="4" stroke="#4f91fc" stroke-width="2" stroke-opacity="1"><g><path d="M 34.392998 41.436199C 34.142403 41.534599 33.863197 41.534599 33.6092 41.436199C 29.58884 39.884598 26.936041 36.0196 26.92968 31.707199L 26.92968 28.5308C 26.92968 27.931061 27.41836 27.442381 28.018101 27.442381L 39.9842 27.442381C 40.584 27.442381 41.072601 27.931061 41.072601 28.5308L 41.072601 31.707199C 41.069599 36.016399 38.413601 39.881401 34.392998 41.432999L 34.392998 41.436199ZM 19.105999 33.264C 19.104862 41.491638 25.774363 48.162056 34.001999 48.162056C 42.229637 48.162056 48.899136 41.491638 48.897999 33.264C 48.899136 25.036362 42.229637 18.365944 34.001999 18.365944C 25.774363 18.365944 19.104862 25.036362 19.105999 33.264M 50.245998 16.288C 50.246002 17.931599 51.578403 19.264 53.222 19.264C 54.865601 19.264 56.198002 17.931599 56.198002 16.288C 56.198002 14.644401 54.865601 13.312 53.222 13.312C 51.578403 13.312 50.246002 14.644401 50.246002 16.288M 17.754 16.288C 17.754 17.931599 16.4216 19.264 14.778 19.264C 13.134401 19.264 11.802 17.931599 11.802 16.288C 11.802 14.644401 13.134401 13.312 14.778 13.312C 16.4216 13.312 17.754 14.644401 17.754 16.288M 10 10M 26.25 46L 23.215519 50.291599L 11.84375 50.291401M 10 10M 42.375 45.6562L 45.636002 50.291401L 56.1996 50.291599M 26.1875 20.53124L 23.213779 16.2871L 17.75124 16.2871M 10 10M 41.812401 20.5625L 44.784199 16.2871L 50.246799 16.2871M 10 10M 51.8008 45.8946L 56.1978 50.291599L 51.8008 54.6884M 16.199221 54.6884L 11.802246 50.291599L 16.199221 45.8946"></path></g></g></g><g id="g-root-tx_protects_qwjhad17mylfx-stroke" data-item-order="0" transform="translate(674, 326)"></g><g id="g-root-ic_warn_1uuajb917mvt3e-stroke" data-item-order="0" transform="translate(354, 522)"><g id="ic_warn_1uuajb917mvt3e-stroke" fill="none" stroke-linecap="round" stroke-linejoin="round" stroke-miterlimit="4" stroke="#43dd93" stroke-width="2" stroke-opacity="1"><g><path d="M 21.900021 39.5L 33.900002 39.5C 35.5 39.5 36.900002 38.099998 36.900002 36.5L 36.900002 27.5C 36.900002 25.9 35.5 24.5 33.900002 24.5L 21.900021 24.5C 20.30002 24.5 18.900021 25.9 18.900021 27.5L 18.900021 36.5C 18.900021 38.099998 20.30002 39.5 21.900021 39.5ZM 33.900002 24.5L 33.900002 17.5C 33.900002 14.1 31.299999 11.5 27.900021 11.5C 24.500019 11.5 21.900021 14.1 21.900021 17.5L 21.900021 18.5M 27.899981 31.299999C 27.499981 31.299999 27.099979 31.700001 27.099979 32.099998C 27.099979 32.5 27.499981 32.900002 27.899981 32.900002M 27.89982 31.299999C 28.29982 31.299999 28.69982 31.700001 28.69982 32.099998C 28.69982 32.5 28.29982 32.900002 27.89982 32.900002M 11.5 46.5L 33.700001 46.5C 33.700001 52.099998 38.099998 56.5 43.700001 56.5C 49.299999 56.5 53.700001 52.099998 53.700001 46.5L 53.700001 40.101402M 53.5 40.099998C 55.156799 40.099998 56.5 38.757 56.5 37.099998C 56.5 35.443199 55.156799 34.099998 53.5 34.099998C 51.843201 34.099998 50.5 35.443199 50.5 37.099998C 50.5 38.757 51.843201 40.099998 53.5 40.099998Z"></path></g></g></g><g id="g-root-ic_hook_hzniv917mvu2p-stroke" data-item-order="0" transform="translate(526, 522)"><g id="ic_hook_hzniv917mvu2p-stroke" fill="none" stroke-linecap="round" stroke-linejoin="round" stroke-miterlimit="4" stroke="#1ac3fb" stroke-width="2" stroke-opacity="1"><g><path d="M 13 35L 55 35C 55 35 57 35 57 37L 57 55C 57 55 57 57 55 57L 13 57C 13 57 11 57 11 55L 11 37C 11 37 11 35 13 35M 15 35L 29 25M 53 35L 41.059998 26.18M 19 40L 19 52M 29 40L 29 52M 39 40L 39 52M 49 40L 49 52M 39 21C 39 23.209139 37.209137 25 35 25C 32.790863 25 31 23.209139 31 21C 31.055189 19.315426 32.121399 17.830633 33.699997 17.24C 34.477173 16.949644 34.994392 16.209621 35 15.38L 35 11"></path></g></g></g><g id="g-root-tx_hipaacom_4g2udh17n0000-stroke" data-item-order="0" transform="translate(122, 542)"></g><g id="g-root-tx_tenantis_mgpz5x17mym86-stroke" data-item-order="0" transform="translate(626, 542)"></g><g id="g-root-tx_modelshi_1q5qdz917n01dt-stroke" data-item-order="0" transform="translate(98, 578)"></g><g id="g-root-tx_implemen_959gsl17mynt3-stroke" data-item-order="0" transform="translate(626, 578)"></g></g></g><path id="w1upawyd14v6x3d" d="M65.283 12.757a.35.35 0 0 0 .584.157l5.203-5.141-6.183 3.523.396 1.461zm-2.216-11.7a.35.35 0 0 0-.522.305v3.111l3.276-1.868-2.754-1.548zm3.728 2.105l-4.25 2.421v2.445l6.391-3.644-2.141-1.222zm4.708 3.303a.35.35 0 0 0 0-.609l-1.592-.9-7.365 4.199v1.782a.35.35 0 0 0 .523.305l8.435-4.777z M44.542 2.513c0-.433.355-.783.792-.783s.792.35.792.783-.355.783-.792.783-.792-.35-.792-.783zm59.171 0c0-.433.355-.783.792-.783s.792.35.792.783-.355.783-.792.783-.792-.35-.792-.783zm-85.951 7.636h-1.27v-.487c-.276.201-.864.609-1.881.609-1.202 0-2.274-.794-2.137-2.078.118-1.106 1.153-1.584 1.848-1.727l2.17-.345c0-.539-.29-.956-1.064-1.006s-1.21.305-1.571 1.017l-1.124-.605c1.218-2.631 5.029-1.764 5.029.414v4.207zm-1.27-2.86c.006.396-.062 1.112-.819 1.59-.587.37-1.841.299-1.903-.395-.049-.555.461-.791.906-.898l1.816-.297zm72.662 2.86h-1.27v-.487c-.276.201-.864.609-1.881.609-1.202 0-2.274-.794-2.137-2.078.118-1.106 1.153-1.584 1.848-1.727l2.17-.345c0-.539-.29-.956-1.064-1.006s-1.21.305-1.571 1.017l-1.124-.605c1.218-2.631 5.029-1.764 5.029.414v4.207zm-1.27-2.86c.006.396-.062 1.112-.82 1.59-.587.37-1.841.299-1.903-.395-.049-.555.461-.791.906-.898l1.816-.297zM99.096 10.149H97.85v-8.45h1.246v4.895l2.68-2.559h1.738l-2.633 2.535 2.715 3.578h-1.556l-2.077-2.707-.867.844v1.863zm6.053-6.114h-1.255v6.113h1.255V4.035zm-59.2 0h-1.255v6.113h1.255V4.035zm5.584 6.113V1.697h1.255v2.695c.361-.346 1-.485 1.47-.485 1.452 0 2.477 1.082 2.457 2.448v3.792h-1.27v-3.68c0-.408-.214-1.339-1.315-1.339-.968 0-1.342.756-1.342 1.339v3.681h-1.255zm-4.76-4.894V4.039h.621a.45.45 0 0 0 .45-.45v-.855h1.251v1.305h1.309v1.215h-1.309v3.109c0 .293.105.664.648.664.365 0 .531-.035.736-.07v1.137s-.361.113-.857.113c-1.398 0-1.777-1.051-1.777-1.788V5.254h-1.071zM36.528 4.039h-1.394l2.191 6.106h1.125l1.234-3.918 1.238 3.918h1.129l2.188-6.106h-1.383l-1.359 3.93-1.256-3.93h-1.124l-1.242 3.957-1.348-3.957zM26.212 7.141c-.02 1.566 1.187 3.129 3.223 3.129 1.566 0 2.383-.918 2.734-1.719L31.172 8c-.315.399-.801 1.094-1.738 1.094-1.145 0-1.825-.781-1.891-1.52h4.625c.074-.284.148-.995-.03-1.559-.336-1.064-1.221-2.102-2.839-2.102s-3.088 1.152-3.088 3.227zm1.363-.75h3.348c-.055-.43-.566-1.301-1.623-1.301a1.79 1.79 0 0 0-1.725 1.301zm-8.758.75c.038 1.758 1.277 3.133 3.145 3.133 1.074 0 1.723-.477 1.961-.672v.547h1.242V1.703h-1.258v2.888c-.414-.36-1.062-.68-1.93-.68-1.91 0-3.198 1.473-3.16 3.23zm1.309-.08c0 1.119.723 1.978 1.836 1.978a1.88 1.88 0 0 0 1.94-1.904c0-1.371-1.011-1.99-1.972-1.99s-1.805.798-1.805 1.916zm76.683-.028C96.771 5.275 95.532 3.9 93.664 3.9c-1.074 0-1.723.477-1.961.672v-.547h-1.242v8.22h1.258V9.583c.414.36 1.063.68 1.93.68 1.91 0 3.198-1.473 3.16-3.23zm-1.309.08c0-1.119-.723-1.978-1.836-1.978a1.88 1.88 0 0 0-1.94 1.904c0 1.371 1.011 1.99 1.972 1.99S95.5 8.231 95.5 7.113zM106.441 10.173V4.036h1.254v.382c.361-.346 1-.485 1.47-.485 1.452 0 2.477 1.082 2.457 2.448v3.792h-1.27V6.492c0-.408-.214-1.339-1.315-1.339-.969 0-1.342.756-1.342 1.339v3.681h-1.254zm-30.383-.021V1.824h1.084l4.215 5.777V1.824h1.32v8.328h-1.094l-4.207-5.796v5.796h-1.319zM5.24 10.149H4V2.377h1.014l2.664 3.597 2.654-3.592h1.03v7.766h-1.256V4.762L7.678 8.068 5.24 4.742v5.407z" transform="translate(812, 674)" fill="#ababab88" stroke="none"></path></svg>