<?xml version="1.0" encoding="utf-8" standalone="yes"?>
<!DOCTYPE svg PUBLIC "-//W3C//DTD SVG 1.1//EN" "http://www.w3.org/Graphics/SVG/1.1/DTD/svg11.dtd">
<svg style="fill:none;stroke:none;fill-rule:evenodd;clip-rule:evenodd;stroke-linecap:round;stroke-linejoin:round;stroke-miterlimit:1.5;" version="1.1" xmlns="http://www.w3.org/2000/svg" xmlns:xlink="http://www.w3.org/1999/xlink" width="840" height="552" viewBox="0 0 840 552"><style class="text-font-style fontImports" data-font-family="Roboto">@import url(https://fonts.googleapis.com/css2?family=Roboto:wght@400;700&amp;amp;display=block);</style><g id="items" style="isolation: isolate"><g id="blend" style="mix-blend-mode: normal"><g id="g-root-cp_1_g-1_zkp59w155ao7e-fill" data-item-order="-361141" transform="translate(38, 266)"></g><g id="g-root-cp_2_g-2_m98mwk155apsb-fill" data-item-order="-361115" transform="translate(230, 266)"></g><g id="g-root-cp_3_g-3_htf4s4155aqkk-fill" data-item-order="-361089" transform="translate(422, 266)"></g><g id="g-root-cp_4_g-4_htf4s4155aqkl-fill" data-item-order="-361063" transform="translate(614, 266)"></g><g id="g-root-tx_permissi_8yelmc155ao7i-fill" data-item-order="0" transform="translate(230, 37.999969482421875)"><g id="tx_permissi_8yelmc155ao7i-fill-merged" stroke="none" fill="#f4f4f4" fill-opacity="1"><g><text style="font: bold 25px &quot;Roboto&quot;, sans-serif; white-space: pre;" transform="translate(190, 28)" font-weight="bold" font-size="25px" font-family="'Roboto', sans-serif"><tspan x="-174.08" y="15" dominant-baseline="ideographic">Permission Bit Implementation</tspan></text></g></g></g><g id="g-root-ic_redi_1q88n3o155aqdl-fill" data-item-order="0" transform="translate(62, 122)"></g><g id="g-root-ic_1_1hhlfjo155djpj-fill" data-item-order="0" transform="translate(254, 122)"></g><g id="g-root-ic_meet_4myf3o155ey2u-fill" data-item-order="0" transform="translate(446, 122)"></g><g id="g-root-ic_nigh_144w25w154ttl5-fill" data-item-order="0" transform="translate(638, 122)"></g><g id="g-root-tx_resource_4il3hw155aozr-fill" data-item-order="0" transform="translate(62, 314)"><g id="tx_resource_4il3hw155aozr-fill-merged" stroke="none" fill="#4f91fc" fill-opacity="1"><g><text style="font: bold 20px &quot;Roboto&quot;, sans-serif; white-space: pre;" transform="translate(70, 34)" font-weight="bold" font-size="20px" font-family="'Roboto', sans-serif"><tspan x="-42.37" y="0" dominant-baseline="ideographic">Resource </tspan><tspan x="-54.57" y="24" dominant-baseline="ideographic">Annotations</tspan></text></g></g></g><g id="g-root-tx_identity_1ut1xx0155di4k-fill" data-item-order="0" transform="translate(254, 314)"><g id="tx_identity_1ut1xx0155di4k-fill-merged" stroke="none" fill="#1ac3fb" fill-opacity="1"><g><text style="font: bold 20px &quot;Roboto&quot;, sans-serif; white-space: pre;" transform="translate(70, 34)" font-weight="bold" font-size="20px" font-family="'Roboto', sans-serif"><tspan x="-34.01" y="0" dominant-baseline="ideographic">Identity </tspan><tspan x="-54.51" y="24" dominant-baseline="ideographic">Comparison</tspan></text></g></g></g><g id="g-root-tx_groupmem_92rx84155exaj-fill" data-item-order="0" transform="translate(446, 314)"><g id="tx_groupmem_92rx84155exaj-fill-merged" stroke="none" fill="#43dd93" fill-opacity="1"><g><text style="font: bold 20px &quot;Roboto&quot;, sans-serif; white-space: pre;" transform="translate(70, 34)" font-weight="bold" font-size="20px" font-family="'Roboto', sans-serif"><tspan x="-27.19" y="0" dominant-baseline="ideographic">Group </tspan><tspan x="-56.51" y="24" dominant-baseline="ideographic">Membership</tspan></text></g></g></g><g id="g-root-tx_fallback_1hfq3g4154tv5x-fill" data-item-order="0" transform="translate(638, 314)"><g id="tx_fallback_1hfq3g4154tv5x-fill-merged" stroke="none" fill="#a6da37" fill-opacity="1"><g><text style="font: bold 20px &quot;Roboto&quot;, sans-serif; white-space: pre;" transform="translate(70, 34)" font-weight="bold" font-size="20px" font-family="'Roboto', sans-serif"><tspan x="-37.5" y="0" dominant-baseline="ideographic">Fallback </tspan><tspan x="-56.05" y="24" dominant-baseline="ideographic">Permissions</tspan></text></g></g></g><g id="g-root-tx_storeper_2rldg155aps0-fill" data-item-order="0" transform="translate(50, 374)"><g id="tx_storeper_2rldg155aps0-fill-merged" stroke="none" fill="#4f91fc" fill-opacity="1"><g><text style="font: 15px &quot;Roboto&quot;, sans-serif; white-space: pre;" transform="translate(82, 40)" font-size="15px" font-family="'Roboto', sans-serif"><tspan x="-58.39" y="-9" dominant-baseline="ideographic">Store permission </tspan><tspan x="-65.22" y="9" dominant-baseline="ideographic">bits using resource </tspan><tspan x="-43.57" y="27" dominant-baseline="ideographic">annotations.</tspan></text></g></g></g><g id="g-root-tx_comparep_1lxexo4155dix9-fill" data-item-order="0" transform="translate(242, 374)"><g id="tx_comparep_1lxexo4155dix9-fill-merged" stroke="none" fill="#1ac3fb" fill-opacity="1"><g><text style="font: 15px &quot;Roboto&quot;, sans-serif; white-space: pre;" transform="translate(82, 40)" font-size="15px" font-family="'Roboto', sans-serif"><tspan x="-60.92" y="-9" dominant-baseline="ideographic">Compare principal </tspan><tspan x="-50.98" y="9" dominant-baseline="ideographic">identity against </tspan><tspan x="-67.55" y="27" dominant-baseline="ideographic">resource ownership.</tspan></text></g></g></g><g id="g-root-tx_checkgro_92rx84155exak-fill" data-item-order="0" transform="translate(446, 374)"><g id="tx_checkgro_92rx84155exak-fill-merged" stroke="none" fill="#43dd93" fill-opacity="1"><g><text style="font: 15px &quot;Roboto&quot;, sans-serif; white-space: pre;" transform="translate(70, 46)" font-size="15px" font-family="'Roboto', sans-serif"><tspan x="-43.72" y="-18" dominant-baseline="ideographic">Check group </tspan><tspan x="-55.03" y="0" dominant-baseline="ideographic">membership for </tspan><tspan x="-38.37" y="18" dominant-baseline="ideographic">group-level </tspan><tspan x="-44.82" y="36" dominant-baseline="ideographic">permissions.</tspan></text></g></g></g><g id="g-root-tx_fallback_18k3378154tvyn-fill" data-item-order="0" transform="translate(626, 374)"><g id="tx_fallback_18k3378154tvyn-fill-merged" stroke="none" fill="#a6da37" fill-opacity="1"><g><text style="font: 15px &quot;Roboto&quot;, sans-serif; white-space: pre;" transform="translate(82, 40)" font-size="15px" font-family="'Roboto', sans-serif"><tspan x="-62.02" y="-9" dominant-baseline="ideographic">Fall back to "other" </tspan><tspan x="-52.28" y="9" dominant-baseline="ideographic">permissions for </tspan><tspan x="-67.58" y="27" dominant-baseline="ideographic">unrelated principals.</tspan></text></g></g></g><g id="g-root-cp_1_g-1_zkp59w155ao7e-stroke" data-item-order="-361141" transform="translate(38, 266)"><g id="cp_1_g-1_zkp59w155ao7e-stroke" fill="none" stroke-linecap="round" stroke-linejoin="round" stroke-miterlimit="4" stroke="#4f91fc" stroke-width="2" stroke-opacity="1"><g><path d="M 10 58L 10 46C 10 39.37 15.38 34 22 34L 70 34L 94 10L 118 34L 166 34C 172.63 34 178 39.37 178 46L 178 58M 178 58L 178 190M 10 190L 10 58M 178 190L 178 202C 178 208.63 172.63 214 166 214L 22 214C 15.37 214 10 208.63 10 202L 10 190"></path></g></g></g><g id="g-root-cp_2_g-2_m98mwk155apsb-stroke" data-item-order="-361115" transform="translate(230, 266)"><g id="cp_2_g-2_m98mwk155apsb-stroke" fill="none" stroke-linecap="round" stroke-linejoin="round" stroke-miterlimit="4" stroke="#1ac3fb" stroke-width="2" stroke-opacity="1"><g><path d="M 10 58L 10 46C 10 39.37 15.38 34 22 34L 70 34L 94 10L 118 34L 166 34C 172.63 34 178 39.37 178 46L 178 58M 178 58L 178 190M 10 190L 10 58M 178 190L 178 202C 178 208.63 172.63 214 166 214L 22 214C 15.37 214 10 208.63 10 202L 10 190"></path></g></g></g><g id="g-root-cp_3_g-3_htf4s4155aqkk-stroke" data-item-order="-361089" transform="translate(422, 266)"><g id="cp_3_g-3_htf4s4155aqkk-stroke" fill="none" stroke-linecap="round" stroke-linejoin="round" stroke-miterlimit="4" stroke="#43dd93" stroke-width="2" stroke-opacity="1"><g><path d="M 10 58L 10 46C 10 39.37 15.38 34 22 34L 70 34L 94 10L 118 34L 166 34C 172.63 34 178 39.37 178 46L 178 58M 178 58L 178 190M 10 190L 10 58M 178 190L 178 202C 178 208.63 172.63 214 166 214L 22 214C 15.37 214 10 208.63 10 202L 10 190"></path></g></g></g><g id="g-root-cp_4_g-4_htf4s4155aqkl-stroke" data-item-order="-361063" transform="translate(614, 266)"><g id="cp_4_g-4_htf4s4155aqkl-stroke" fill="none" stroke-linecap="round" stroke-linejoin="round" stroke-miterlimit="4" stroke="#a6da37" stroke-width="2" stroke-opacity="1"><g><path d="M 10 58L 10 46C 10 39.37 15.38 34 22 34L 70 34L 94 10L 118 34L 166 34C 172.63 34 178 39.37 178 46L 178 58M 178 58L 178 190M 10 190L 10 58M 178 190L 178 202C 178 208.63 172.63 214 166 214L 22 214C 15.37 214 10 208.63 10 202L 10 190"></path></g></g></g><g id="g-root-tx_permissi_8yelmc155ao7i-stroke" data-item-order="0" transform="translate(230, 37.999969482421875)"></g><g id="g-root-ic_redi_1q88n3o155aqdl-stroke" data-item-order="0" transform="translate(62, 122)"><g id="ic_redi_1q88n3o155aqdl-stroke" fill="none" stroke-linecap="round" stroke-linejoin="round" stroke-miterlimit="4" stroke="#4f91fc" stroke-width="2" stroke-opacity="1"><g><path d="M 52.749947 73.749969C 74.289001 73.749969 91.75 66.138474 91.75 56.749718C 91.75 47.36087 74.289001 39.749722 52.749947 39.749722C 31.21085 39.749722 13.75 47.36087 13.75 56.749718C 13.75 66.138474 31.21085 73.749969 52.749947 73.749969ZM 13.75 58.249474L 13.75 109.249466C 13.75 118.749474 31.24995 126.249474 52.749947 126.249474C 74.25 126.249474 91.75 118.749474 91.75 109.249466L 91.75 58.249474M 106.25 58.749969L 126.25 58.749969L 126.25 38.749969C 122.25 38.749969 118.75 35.249969 118.75 31.249969C 118.75 27.249969 122.25 23.749969 126.25 23.749969L 126.25 13.749969L 51.25 13.749969L 51.25 23.749969C 53.75 23.749969 55.75005 24.749969 56.75005 26.249969M 73.75 26.249969L 73.75 28.749969M 88.75 26.249969L 88.75 33.749969M 103.75 26.249969L 103.75 38.749969M 10 9.999969M 43.7668 112.21447L 43.7668 101.646469M 43.7668 101.646469L 43.7668 86.850471L 53.278297 86.850471C 57.364048 86.850471 60.675999 90.162468 60.675999 94.248474L 60.675999 94.248474C 60.675999 98.333969 57.364048 101.646469 53.278297 101.646469L 43.7668 101.646469ZM 10 9.999969M 54.33535 101.645973L 61.732998 112.21447"></path></g></g></g><g id="g-root-ic_1_1hhlfjo155djpj-stroke" data-item-order="0" transform="translate(254, 122)"><g id="ic_1_1hhlfjo155djpj-stroke" fill="none" stroke-linecap="round" stroke-linejoin="round" stroke-miterlimit="4" stroke="#1ac3fb" stroke-width="2" stroke-opacity="1"><g><path d="M 55.154999 84.844971C 45.406231 94.599945 29.593769 94.599945 19.844999 84.844971L 15 79.999969L 60 79.999969ZM 120.154999 84.844971C 110.406235 94.599945 94.593773 94.599945 84.845001 84.844971L 80 79.999969L 125 79.999969ZM 37.5 92.159966C 37.345131 98.205315 41.300064 103.589615 47.114998 105.249969L 56.160004 107.834969M 102.5 92.159966C 102.655479 98.203918 98.702942 103.587738 92.889999 105.249969L 83.845001 107.834969M 26.25 26.24497C 26.25 32.458172 31.286797 37.494968 37.5 37.494968C 43.713203 37.494968 48.75 32.458172 48.75 26.24497C 48.75 20.031767 43.713203 14.994969 37.5 14.994969C 31.286797 14.994969 26.25 20.031767 26.25 26.24497ZM 37.5 42.499969C 22.5 42.499969 22.5 54.214973 22.5 62.499969L 22.5 62.499969L 30 62.499969L 32.5 79.999969L 42.5 79.999969L 45 62.499969L 52.5 62.499969L 52.5 62.499969C 52.5 54.204967 52.5 42.499969 37.5 42.499969ZM 90.395004 121.204964L 90.465004 121.334969C 90.873398 122.110382 90.84594 123.04303 90.392639 123.793076C 89.939339 124.543121 89.126389 125.001038 88.25 124.999969L 51.75 124.999969C 50.872135 125.001961 50.057549 124.543365 49.603935 123.791786C 49.150322 123.040199 49.124157 122.105759 49.535 121.329971L 49.605 121.199966L 58.629997 102.799965C 59.472679 101.084953 61.219147 100.000206 63.130001 100.004967L 76.900002 100.004967C 78.810852 100.000206 80.55732 101.084953 81.400002 102.799965ZM 115 29.999969L 106.5 29.999969C 103.620575 29.981194 101.071976 31.85911 100.236931 34.614853C 99.401894 37.370602 100.479462 40.347309 102.884995 41.92997L 112.084999 48.064968C 114.490593 49.642944 115.572693 52.614571 114.745056 55.369915C 113.917404 58.125256 111.376945 60.008743 108.499992 59.999969L 100 59.999969M 110 30.004969L 110 25.004969M 105 65.004974L 105 60.004971"></path></g></g></g><g id="g-root-ic_meet_4myf3o155ey2u-stroke" data-item-order="0" transform="translate(446, 122)"><g id="ic_meet_4myf3o155ey2u-stroke" fill="none" stroke-linecap="round" stroke-linejoin="round" stroke-miterlimit="4" stroke="#43dd93" stroke-width="2" stroke-opacity="1"><g><path d="M 58.75 23.749969C 58.75 29.963173 63.786797 34.999969 70 34.999969C 76.213203 34.999969 81.25 29.963173 81.25 23.749969C 81.25 17.536766 76.213203 12.499969 70 12.499969C 63.786797 12.499969 58.75 17.536766 58.75 23.749969M 92.5 57.499969C 89.83329 47.256824 80.584579 40.107655 70 40.107655C 59.415417 40.107655 50.166718 47.256824 47.500004 57.499969ZM 23.75 93.749969C 23.75 99.963181 28.786797 104.999969 35 104.999969C 41.213203 104.999969 46.25 99.963181 46.25 93.749969C 46.25 87.536766 41.213203 82.499969 35 82.499969C 28.786797 82.499969 23.75 87.536766 23.75 93.749969M 57.5 127.499969C 54.833282 117.256828 45.584583 110.107658 35 110.107658C 24.415419 110.107658 15.166717 117.256828 12.5 127.499969ZM 93.75 93.749969C 93.75 99.963181 98.786789 104.999969 105 104.999969C 111.213211 104.999969 116.25 99.963181 116.25 93.749969C 116.25 87.536766 111.213211 82.499969 105 82.499969C 98.786789 82.499969 93.75 87.536766 93.75 93.749969M 127.5 127.499969C 124.83329 117.256828 115.584579 110.107658 105 110.107658C 94.415421 110.107658 85.166718 117.256828 82.500008 127.499969ZM 85 104.599968C 75.378693 108.491982 64.621307 108.491982 55 104.599968M 92.5 34.44997C 104.923927 42.896854 111.567123 57.593006 109.700005 72.499969M 47.5 34.44997C 35.076077 42.896854 28.432877 57.593006 30.299999 72.499969"></path></g></g></g><g id="g-root-ic_nigh_144w25w154ttl5-stroke" data-item-order="0" transform="translate(638, 122)"><g id="ic_nigh_144w25w154ttl5-stroke" fill="none" stroke-linecap="round" stroke-linejoin="round" stroke-miterlimit="4" stroke="#a6da37" stroke-width="2" stroke-opacity="1"><g><path d="M 12.5 127.069969C 12.567068 121.35746 13.756274 115.713821 16 110.459976C 18.450001 105.55497 28.695 102.154968 41.555 97.394974C 45.029999 96.104973 44.459999 87.024971 42.920002 85.329971C 37.957787 79.956535 35.527191 72.71933 36.239998 65.439964C 35.794643 60.809711 37.292484 56.20248 40.375553 52.71933C 43.458626 49.236179 47.849922 47.190067 52.5 47.069969C 57.153603 47.184612 61.550179 49.228374 64.637619 52.712173C 67.72506 56.195972 69.22554 60.806328 68.779999 65.439972C 69.492805 72.71933 67.06221 79.956535 62.099995 85.329964C 60.560001 87.024971 59.990002 96.104973 63.465 97.394974C 76.325005 102.154968 86.57 105.55497 89.019997 110.459961C 91.263725 115.713821 92.452934 121.35746 92.519997 127.069969ZM 107.180008 12.999969C 106.194084 12.732345 105.144531 13.091511 104.529282 13.907064C 103.914047 14.722617 103.856918 15.830455 104.385002 16.704969C 108.930084 24.465698 109.411942 33.953381 105.676537 42.134663C 101.941132 50.315941 94.456284 56.166183 85.615005 57.814972C 84.608215 57.989433 83.808929 58.759018 83.596489 59.758484C 83.384048 60.757946 83.801208 61.786091 84.650002 62.354969C 93.69912 68.454651 105.498856 68.626366 114.721634 62.792572C 123.944412 56.958778 128.844971 46.223431 127.210732 35.433529C 125.576477 24.643629 117.716675 15.840978 107.180008 12.999969Z"></path></g></g></g><g id="g-root-tx_resource_4il3hw155aozr-stroke" data-item-order="0" transform="translate(62, 314)"></g><g id="g-root-tx_identity_1ut1xx0155di4k-stroke" data-item-order="0" transform="translate(254, 314)"></g><g id="g-root-tx_groupmem_92rx84155exaj-stroke" data-item-order="0" transform="translate(446, 314)"></g><g id="g-root-tx_fallback_1hfq3g4154tv5x-stroke" data-item-order="0" transform="translate(638, 314)"></g><g id="g-root-tx_storeper_2rldg155aps0-stroke" data-item-order="0" transform="translate(50, 374)"></g><g id="g-root-tx_comparep_1lxexo4155dix9-stroke" data-item-order="0" transform="translate(242, 374)"></g><g id="g-root-tx_checkgro_92rx84155exak-stroke" data-item-order="0" transform="translate(446, 374)"></g><g id="g-root-tx_fallback_18k3378154tvyn-stroke" data-item-order="0" transform="translate(626, 374)"></g></g></g><path id="w1hckkr914v5g5g" d="M65.283 12.757a.35.35 0 0 0 .584.157l5.203-5.141-6.183 3.523.396 1.461zm-2.216-11.7a.35.35 0 0 0-.522.305v3.111l3.276-1.868-2.754-1.548zm3.728 2.105l-4.25 2.421v2.445l6.391-3.644-2.141-1.222zm4.708 3.303a.35.35 0 0 0 0-.609l-1.592-.9-7.365 4.199v1.782a.35.35 0 0 0 .523.305l8.435-4.777z M44.542 2.513c0-.433.355-.783.792-.783s.792.35.792.783-.355.783-.792.783-.792-.35-.792-.783zm59.171 0c0-.433.355-.783.792-.783s.792.35.792.783-.355.783-.792.783-.792-.35-.792-.783zm-85.951 7.636h-1.27v-.487c-.276.201-.864.609-1.881.609-1.202 0-2.274-.794-2.137-2.078.118-1.106 1.153-1.584 1.848-1.727l2.17-.345c0-.539-.29-.956-1.064-1.006s-1.21.305-1.571 1.017l-1.124-.605c1.218-2.631 5.029-1.764 5.029.414v4.207zm-1.27-2.86c.006.396-.062 1.112-.819 1.59-.587.37-1.841.299-1.903-.395-.049-.555.461-.791.906-.898l1.816-.297zm72.662 2.86h-1.27v-.487c-.276.201-.864.609-1.881.609-1.202 0-2.274-.794-2.137-2.078.118-1.106 1.153-1.584 1.848-1.727l2.17-.345c0-.539-.29-.956-1.064-1.006s-1.21.305-1.571 1.017l-1.124-.605c1.218-2.631 5.029-1.764 5.029.414v4.207zm-1.27-2.86c.006.396-.062 1.112-.82 1.59-.587.37-1.841.299-1.903-.395-.049-.555.461-.791.906-.898l1.816-.297zM99.096 10.149H97.85v-8.45h1.246v4.895l2.68-2.559h1.738l-2.633 2.535 2.715 3.578h-1.556l-2.077-2.707-.867.844v1.863zm6.053-6.114h-1.255v6.113h1.255V4.035zm-59.2 0h-1.255v6.113h1.255V4.035zm5.584 6.113V1.697h1.255v2.695c.361-.346 1-.485 1.47-.485 1.452 0 2.477 1.082 2.457 2.448v3.792h-1.27v-3.68c0-.408-.214-1.339-1.315-1.339-.968 0-1.342.756-1.342 1.339v3.681h-1.255zm-4.76-4.894V4.039h.621a.45.45 0 0 0 .45-.45v-.855h1.251v1.305h1.309v1.215h-1.309v3.109c0 .293.105.664.648.664.365 0 .531-.035.736-.07v1.137s-.361.113-.857.113c-1.398 0-1.777-1.051-1.777-1.788V5.254h-1.071zM36.528 4.039h-1.394l2.191 6.106h1.125l1.234-3.918 1.238 3.918h1.129l2.188-6.106h-1.383l-1.359 3.93-1.256-3.93h-1.124l-1.242 3.957-1.348-3.957zM26.212 7.141c-.02 1.566 1.187 3.129 3.223 3.129 1.566 0 2.383-.918 2.734-1.719L31.172 8c-.315.399-.801 1.094-1.738 1.094-1.145 0-1.825-.781-1.891-1.52h4.625c.074-.284.148-.995-.03-1.559-.336-1.064-1.221-2.102-2.839-2.102s-3.088 1.152-3.088 3.227zm1.363-.75h3.348c-.055-.43-.566-1.301-1.623-1.301a1.79 1.79 0 0 0-1.725 1.301zm-8.758.75c.038 1.758 1.277 3.133 3.145 3.133 1.074 0 1.723-.477 1.961-.672v.547h1.242V1.703h-1.258v2.888c-.414-.36-1.062-.68-1.93-.68-1.91 0-3.198 1.473-3.16 3.23zm1.309-.08c0 1.119.723 1.978 1.836 1.978a1.88 1.88 0 0 0 1.94-1.904c0-1.371-1.011-1.99-1.972-1.99s-1.805.798-1.805 1.916zm76.683-.028C96.771 5.275 95.532 3.9 93.664 3.9c-1.074 0-1.723.477-1.961.672v-.547h-1.242v8.22h1.258V9.583c.414.36 1.063.68 1.93.68 1.91 0 3.198-1.473 3.16-3.23zm-1.309.08c0-1.119-.723-1.978-1.836-1.978a1.88 1.88 0 0 0-1.94 1.904c0 1.371 1.011 1.99 1.972 1.99S95.5 8.231 95.5 7.113zM106.441 10.173V4.036h1.254v.382c.361-.346 1-.485 1.47-.485 1.452 0 2.477 1.082 2.457 2.448v3.792h-1.27V6.492c0-.408-.214-1.339-1.315-1.339-.969 0-1.342.756-1.342 1.339v3.681h-1.254zm-30.383-.021V1.824h1.084l4.215 5.777V1.824h1.32v8.328h-1.094l-4.207-5.796v5.796h-1.319zM5.24 10.149H4V2.377h1.014l2.664 3.597 2.654-3.592h1.03v7.766h-1.256V4.762L7.678 8.068 5.24 4.742v5.407z" transform="translate(704, 518)" fill="#ababab88" stroke="none"></path></svg>