<?xml version="1.0" encoding="utf-8" standalone="yes"?>
<!DOCTYPE svg PUBLIC "-//W3C//DTD SVG 1.1//EN" "http://www.w3.org/Graphics/SVG/1.1/DTD/svg11.dtd">
<svg style="fill:none;stroke:none;fill-rule:evenodd;clip-rule:evenodd;stroke-linecap:round;stroke-linejoin:round;stroke-miterlimit:1.5;" version="1.1" xmlns="http://www.w3.org/2000/svg" xmlns:xlink="http://www.w3.org/1999/xlink" width="840" height="460" viewBox="0 0 840 460"><style class="text-font-style fontImports" data-font-family="Roboto">@import url(https://fonts.googleapis.com/css2?family=Roboto:wght@400;700&amp;amp;display=block);</style><g id="items" style="isolation: isolate"><g id="blend" style="mix-blend-mode: normal"><g id="g-root-cp_1_g-1_1uo19i81557wgb-fill" data-item-order="-332629" transform="translate(38, 233.49951171875)"></g><g id="g-root-cp_2_g-2_1q87rds1557x8k-fill" data-item-order="-332603" transform="translate(230, 233.49951171875)"></g><g id="g-root-cp_3_g-3_1hd78801557uvh-fill" data-item-order="-332577" transform="translate(422, 233.49951171875)"></g><g id="g-root-cp_4_g-4_1hd78801557uvi-fill" data-item-order="-332551" transform="translate(614, 233.49951171875)"></g><g id="g-root-tx_annotati_1cxdq3k1557vnr-fill" data-item-order="0" transform="translate(290, 5.49951171875)"><g id="tx_annotati_1cxdq3k1557vnr-fill-merged" stroke="none" fill="#f4f4f4" fill-opacity="1"><g><text style="font: bold 25px &quot;Roboto&quot;, sans-serif; white-space: pre;" transform="translate(130, 28)" font-weight="bold" font-size="25px" font-family="'Roboto', sans-serif"><tspan x="-113.96" y="15" dominant-baseline="ideographic">Annotation Features</tspan></text></g></g></g><g id="g-root-ic_hier_dikjmo1557xmq-fill" data-item-order="0" transform="translate(62, 89.49951171875)"></g><g id="g-root-ic_sear_i09h0g155998n-fill" data-item-order="0" transform="translate(254, 89.49951171875)"></g><g id="g-root-ic_node_zs5ylc155apl6-fill" data-item-order="0" transform="translate(446, 89.49951171875)"></g><g id="g-root-ic_woma_detp40155c4jp-fill" data-item-order="0" transform="translate(638, 89.49951171875)"></g><g id="g-root-tx_attachme_1qa36n41557w8w-fill" data-item-order="0" transform="translate(62, 281.49951171875)"><g id="tx_attachme_1qa36n41557w8w-fill-merged" stroke="none" fill="#4f91fc" fill-opacity="1"><g><text style="font: bold 20px &quot;Roboto&quot;, sans-serif; white-space: pre;" transform="translate(70, 22)" font-weight="bold" font-size="20px" font-family="'Roboto', sans-serif"><tspan x="-52.61" y="12" dominant-baseline="ideographic">Attachment</tspan></text></g></g></g><g id="g-root-tx_accessib_dgp4dc1559c0d-fill" data-item-order="0" transform="translate(254, 281.49951171875)"><g id="tx_accessib_dgp4dc1559c0d-fill-merged" stroke="none" fill="#1ac3fb" fill-opacity="1"><g><text style="font: bold 20px &quot;Roboto&quot;, sans-serif; white-space: pre;" transform="translate(70, 22)" font-weight="bold" font-size="20px" font-family="'Roboto', sans-serif"><tspan x="-57.44" y="12" dominant-baseline="ideographic">Accessibility</tspan></text></g></g></g><g id="g-root-tx_jsonsupp_144v3a8155aoeg-fill" data-item-order="0" transform="translate(434, 281.49951171875)"><g id="tx_jsonsupp_144v3a8155aoeg-fill-merged" stroke="none" fill="#43dd93" fill-opacity="1"><g><text style="font: bold 20px &quot;Roboto&quot;, sans-serif; white-space: pre;" transform="translate(82, 22)" font-weight="bold" font-size="20px" font-family="'Roboto', sans-serif"><tspan x="-64.12" y="12" dominant-baseline="ideographic">JSON Support</tspan></text></g></g></g><g id="g-root-tx_inherita_4g2bfk155c4xv-fill" data-item-order="0" transform="translate(644, 281.49951171875)"><g id="tx_inherita_4g2bfk155c4xv-fill-merged" stroke="none" fill="#a6da37" fill-opacity="1"><g><text style="font: bold 20px &quot;Roboto&quot;, sans-serif; white-space: pre;" transform="translate(64, 22)" font-weight="bold" font-size="20px" font-family="'Roboto', sans-serif"><tspan x="-50.79" y="12" dominant-baseline="ideographic">Inheritance</tspan></text></g></g></g><g id="g-root-tx_annotati_1ur5mxs1557xmp-fill" data-item-order="0" transform="translate(50, 317.49951171875)"><g id="tx_annotati_1ur5mxs1557xmp-fill-merged" stroke="none" fill="#ffffff" fill-opacity="1"><g><text style="font: 15px &quot;Roboto&quot;, sans-serif; white-space: pre;" transform="translate(82, 40)" font-size="15px" font-family="'Roboto', sans-serif"><tspan x="-66.46" y="-9" dominant-baseline="ideographic">Annotations can be </tspan><tspan x="-65.87" y="9" dominant-baseline="ideographic">attached to various </tspan><tspan x="-28.36" y="27" dominant-baseline="ideographic">entities.</tspan></text></g></g></g><g id="g-root-tx_annotati_dikjmo1559b0m-fill" data-item-order="0" transform="translate(248, 317.49951171875)"><g id="tx_annotati_dikjmo1559b0m-fill-merged" stroke="none" fill="#ffffff" fill-opacity="1"><g><text style="font: 15px &quot;Roboto&quot;, sans-serif; white-space: pre;" transform="translate(76, 40)" font-size="15px" font-family="'Roboto', sans-serif"><tspan x="-54.81" y="-9" dominant-baseline="ideographic">Annotations are </tspan><tspan x="-60.29" y="9" dominant-baseline="ideographic">accessible during </tspan><tspan x="-59.62" y="27" dominant-baseline="ideographic">policy evaluation.</tspan></text></g></g></g><g id="g-root-tx_annotati_14641gg155aqkh-fill" data-item-order="0" transform="translate(434, 317.49951171875)"><g id="tx_annotati_14641gg155aqkh-fill-merged" stroke="none" fill="#ffffff" fill-opacity="1"><g><text style="font: 15px &quot;Roboto&quot;, sans-serif; white-space: pre;" transform="translate(82, 40)" font-size="15px" font-family="'Roboto', sans-serif"><tspan x="-69.14" y="-9" dominant-baseline="ideographic">Annotations support </tspan><tspan x="-50.99" y="9" dominant-baseline="ideographic">any valid JSON </tspan><tspan x="-24.31" y="27" dominant-baseline="ideographic">values.</tspan></text></g></g></g><g id="g-root-tx_annotati_8xr8tc155c35w-fill" data-item-order="0" transform="translate(626, 317.49951171875)"><g id="tx_annotati_8xr8tc155c35w-fill-merged" stroke="none" fill="#ffffff" fill-opacity="1"><g><text style="font: 15px &quot;Roboto&quot;, sans-serif; white-space: pre;" transform="translate(82, 40)" font-size="15px" font-family="'Roboto', sans-serif"><tspan x="-64.71" y="-9" dominant-baseline="ideographic">Annotations follow </tspan><tspan x="-38.87" y="9" dominant-baseline="ideographic">inheritance </tspan><tspan x="-40.46" y="27" dominant-baseline="ideographic">hierarchies.</tspan></text></g></g></g><g id="g-root-cp_1_g-1_1uo19i81557wgb-stroke" data-item-order="-332629" transform="translate(38, 233.49951171875)"><g id="cp_1_g-1_1uo19i81557wgb-stroke" fill="none" stroke-linecap="round" stroke-linejoin="round" stroke-miterlimit="4" stroke="#4f91fc" stroke-width="2" stroke-opacity="1"><g><path d="M 10 58L 10 46C 10 39.37 15.38 34 22 34L 70 34L 94 10L 118 34L 166 34C 172.63 34 178 39.37 178 46L 178 58M 178 58L 178 154M 10 154L 10 58M 178 154L 178 166C 178 172.63 172.63 178 166 178L 22 178C 15.37 178 10 172.63 10 166L 10 154"></path></g></g></g><g id="g-root-cp_2_g-2_1q87rds1557x8k-stroke" data-item-order="-332603" transform="translate(230, 233.49951171875)"><g id="cp_2_g-2_1q87rds1557x8k-stroke" fill="none" stroke-linecap="round" stroke-linejoin="round" stroke-miterlimit="4" stroke="#1ac3fb" stroke-width="2" stroke-opacity="1"><g><path d="M 10 58L 10 46C 10 39.37 15.38 34 22 34L 70 34L 94 10L 118 34L 166 34C 172.63 34 178 39.37 178 46L 178 58M 178 58L 178 154M 10 154L 10 58M 178 154L 178 166C 178 172.63 172.63 178 166 178L 22 178C 15.37 178 10 172.63 10 166L 10 154"></path></g></g></g><g id="g-root-cp_3_g-3_1hd78801557uvh-stroke" data-item-order="-332577" transform="translate(422, 233.49951171875)"><g id="cp_3_g-3_1hd78801557uvh-stroke" fill="none" stroke-linecap="round" stroke-linejoin="round" stroke-miterlimit="4" stroke="#43dd93" stroke-width="2" stroke-opacity="1"><g><path d="M 10 58L 10 46C 10 39.37 15.38 34 22 34L 70 34L 94 10L 118 34L 166 34C 172.63 34 178 39.37 178 46L 178 58M 178 58L 178 154M 10 154L 10 58M 178 154L 178 166C 178 172.63 172.63 178 166 178L 22 178C 15.37 178 10 172.63 10 166L 10 154"></path></g></g></g><g id="g-root-cp_4_g-4_1hd78801557uvi-stroke" data-item-order="-332551" transform="translate(614, 233.49951171875)"><g id="cp_4_g-4_1hd78801557uvi-stroke" fill="none" stroke-linecap="round" stroke-linejoin="round" stroke-miterlimit="4" stroke="#a6da37" stroke-width="2" stroke-opacity="1"><g><path d="M 10 58L 10 46C 10 39.37 15.38 34 22 34L 70 34L 94 10L 118 34L 166 34C 172.63 34 178 39.37 178 46L 178 58M 178 58L 178 154M 10 154L 10 58M 178 154L 178 166C 178 172.63 172.63 178 166 178L 22 178C 15.37 178 10 172.63 10 166L 10 154"></path></g></g></g><g id="g-root-tx_annotati_1cxdq3k1557vnr-stroke" data-item-order="0" transform="translate(290, 5.49951171875)"></g><g id="g-root-ic_hier_dikjmo1557xmq-stroke" data-item-order="0" transform="translate(62, 89.49951171875)"><g id="ic_hier_dikjmo1557xmq-stroke" fill="none" stroke-linecap="round" stroke-linejoin="round" stroke-miterlimit="4" stroke="#4f91fc" stroke-width="2" stroke-opacity="1"><g><path d="M 30 97.355003L 30 84.854996C 30 83.474289 31.119287 82.354996 32.5 82.354996L 107.5 82.354996C 108.880707 82.354996 110 83.474289 110 84.854996L 110 97.355003M 70 67.354996L 70 97.355003M 15 112.355003C 15.000001 120.639275 21.715729 127.355003 30 127.355003C 38.284271 127.355003 45 120.639275 45 112.355003C 45 104.070732 38.284271 97.355003 30 97.355003C 21.715729 97.355003 15.000001 104.070732 15.000001 112.355003ZM 55 112.355003C 55 120.639275 61.715733 127.355003 70 127.355003C 78.284271 127.355003 85 120.639275 85 112.355003C 85 104.070732 78.284271 97.355003 70 97.355003C 61.715733 97.355003 55 104.070732 55 112.355003ZM 95 112.355003C 95 120.639275 101.715736 127.355003 110 127.355003C 118.284271 127.355003 125 120.639275 125 112.355003C 125 104.070732 118.284271 97.355003 110 97.355003C 101.715736 97.355003 95 104.070732 95 112.355003ZM 47.5 67.354996C 47.5 54.928593 57.573593 44.855 70 44.855C 82.426407 44.855 92.5 54.928593 92.5 67.354996ZM 56.25 26.105C 56.25 33.698917 62.406086 39.855 70 39.855C 77.593918 39.855 83.75 33.698917 83.75 26.105001C 83.75 18.511086 77.593918 12.355 70 12.355C 62.406086 12.355 56.25 18.511086 56.25 26.105001Z"></path></g></g></g><g id="g-root-ic_sear_i09h0g155998n-stroke" data-item-order="0" transform="translate(254, 89.49951171875)"><g id="ic_sear_i09h0g155998n-stroke" fill="none" stroke-linecap="round" stroke-linejoin="round" stroke-miterlimit="4" stroke="#1ac3fb" stroke-width="2" stroke-opacity="1"><g><path d="M 82.5 59.955002L 82.5 37.455002L 27.5 37.455002L 27.5 102.449997L 57.5 102.454994M 97.5 54.955002L 97.5 27.455C 97.5 24.693577 95.261421 22.455 92.5 22.455L 70.260002 22.455C 67.60968 16.395742 61.623531 12.480347 55.009998 12.480347C 48.396469 12.480347 42.41032 16.395742 39.760002 22.455L 17.5 22.455C 14.738576 22.455 12.5 24.693577 12.5 27.455L 12.5 112.454994C 12.5 115.216431 14.738576 117.454994 17.5 117.454994L 62.5 117.454994M 42.5 52.455002L 67.5 52.455002M 42.5 67.455002L 67.5 67.455002M 42.5 82.455002L 57.5 82.455002M 72.5 95.104996C 72.5 107.611481 82.638512 117.75 95.144997 117.75C 107.651482 117.75 117.789993 107.611481 117.789993 95.104996C 117.789993 82.598511 107.651482 72.459999 95.144997 72.459999C 82.638512 72.459999 72.5 82.598511 72.5 95.104996ZM 127.5 127.454994L 111.260002 111.220001"></path></g></g></g><g id="g-root-ic_node_zs5ylc155apl6-stroke" data-item-order="0" transform="translate(446, 89.49951171875)"><g id="ic_node_zs5ylc155apl6-stroke" fill="none" stroke-linecap="round" stroke-linejoin="round" stroke-miterlimit="4" stroke="#43dd93" stroke-width="2" stroke-opacity="1"><g><path d="M 52.25 117.700005L 67.25 126.800003C 68.797005 127.693169 70.702995 127.693169 72.25 126.800003L 117.900002 99.399994C 119.453171 98.503296 120.40712 96.843422 120.400002 95.050003L 120.400002 45C 120.40712 43.206577 119.453171 41.546703 117.900002 40.650002L 72.600006 13.2C 71.052994 12.306836 69.147003 12.306836 67.600006 13.2L 21.75 40.599998C 20.196829 41.496704 19.24288 43.156578 19.25 44.949997L 19.25 95C 19.24288 96.793427 20.196829 98.453293 21.75 99.350006L 35.450001 107.550003C 38.875748 109.600136 43.138565 109.652634 46.613758 107.687492C 50.088955 105.722351 52.241119 102.042328 52.25 98.050003L 52.25 49.700001M 67.5 80C 67.490486 84.891899 71.142952 89.017036 76 89.599998C 80.316917 90.133469 84.68309 90.133469 89.000008 89.600006C 93.857048 89.017036 97.509506 84.891899 97.5 80C 97.480782 75.639969 94.305794 71.935814 89.999992 71.249992L 82.5 70L 75 68.75C 70.694199 68.064186 67.519211 64.360031 67.499992 60C 67.490486 55.108101 71.142952 50.982964 76 50.400002C 80.316917 49.866543 84.68309 49.866543 89.000008 50.400005C 93.857048 50.982964 97.509506 55.108101 97.5 60"></path></g></g></g><g id="g-root-ic_woma_detp40155c4jp-stroke" data-item-order="0" transform="translate(638, 89.49951171875)"><g id="ic_woma_detp40155c4jp-stroke" fill="none" stroke-linecap="round" stroke-linejoin="round" stroke-miterlimit="4" stroke="#a6da37" stroke-width="2" stroke-opacity="1"><g><path d="M 87.5 110L 75 110C 73.619293 110 72.5 108.880707 72.5 107.5L 72.5 32.5C 72.5 31.119287 73.619293 30 75 30L 87.5 30M 57.5 70L 72.5 70M 101.25 23.75C 101.25 28.582493 105.167511 32.5 110 32.5C 114.832497 32.5 118.75 28.582493 118.75 23.750002C 118.75 18.917509 114.832497 15.000001 110 15.000001C 105.167511 15.000001 101.25 18.917509 101.25 23.750002ZM 127.5 50C 125.460136 42.000458 118.255531 36.402466 110 36.402466C 101.744469 36.402466 94.539871 42.000458 92.5 50ZM 101.25 98.75C 101.25 103.582497 105.167511 107.5 110 107.5C 114.832497 107.5 118.75 103.582497 118.75 98.75C 118.75 93.917511 114.832497 90 110 90C 105.167511 90 101.25 93.917511 101.25 98.75ZM 127.5 125C 125.460136 117.000458 118.255531 111.402466 110 111.402466C 101.744469 111.402466 94.539871 117.000458 92.5 125ZM 21.254999 54.120003L 21.254999 57.439999C 21.383526 61.278149 20.387718 65.070206 18.389999 68.349998M 48.744999 54.120003L 48.744999 57.439999C 48.61647 61.278149 49.612278 65.070206 51.609997 68.349998M 12.5 95C 12.5 82.573593 22.573593 72.5 35 72.5C 47.426407 72.5 57.5 82.573593 57.5 95ZM 21.295 54.850002C 26.564531 54.805332 31.559036 52.491207 35.000004 48.5C 38.440968 52.491207 43.435471 54.805332 48.705002 54.850002M 21.25 53.75C 21.250002 61.343918 27.406086 67.5 35 67.5C 42.593914 67.5 48.75 61.343918 48.75 53.75C 48.75 46.156086 42.593914 40.000004 35 40.000004C 27.406086 40.000004 21.250002 46.156086 21.250002 53.75Z"></path></g></g></g><g id="g-root-tx_attachme_1qa36n41557w8w-stroke" data-item-order="0" transform="translate(62, 281.49951171875)"></g><g id="g-root-tx_accessib_dgp4dc1559c0d-stroke" data-item-order="0" transform="translate(254, 281.49951171875)"></g><g id="g-root-tx_jsonsupp_144v3a8155aoeg-stroke" data-item-order="0" transform="translate(434, 281.49951171875)"></g><g id="g-root-tx_inherita_4g2bfk155c4xv-stroke" data-item-order="0" transform="translate(644, 281.49951171875)"></g><g id="g-root-tx_annotati_1ur5mxs1557xmp-stroke" data-item-order="0" transform="translate(50, 317.49951171875)"></g><g id="g-root-tx_annotati_dikjmo1559b0m-stroke" data-item-order="0" transform="translate(248, 317.49951171875)"></g><g id="g-root-tx_annotati_14641gg155aqkh-stroke" data-item-order="0" transform="translate(434, 317.49951171875)"></g><g id="g-root-tx_annotati_8xr8tc155c35w-stroke" data-item-order="0" transform="translate(626, 317.49951171875)"></g></g></g><path id="wvq7k16j31u5" d="M65.283 12.757a.35.35 0 0 0 .584.157l5.203-5.141-6.183 3.523.396 1.461zm-2.216-11.7a.35.35 0 0 0-.522.305v3.111l3.276-1.868-2.754-1.548zm3.728 2.105l-4.25 2.421v2.445l6.391-3.644-2.141-1.222zm4.708 3.303a.35.35 0 0 0 0-.609l-1.592-.9-7.365 4.199v1.782a.35.35 0 0 0 .523.305l8.435-4.777z M44.542 2.513c0-.433.355-.783.792-.783s.792.35.792.783-.355.783-.792.783-.792-.35-.792-.783zm59.171 0c0-.433.355-.783.792-.783s.792.35.792.783-.355.783-.792.783-.792-.35-.792-.783zm-85.951 7.636h-1.27v-.487c-.276.201-.864.609-1.881.609-1.202 0-2.274-.794-2.137-2.078.118-1.106 1.153-1.584 1.848-1.727l2.17-.345c0-.539-.29-.956-1.064-1.006s-1.21.305-1.571 1.017l-1.124-.605c1.218-2.631 5.029-1.764 5.029.414v4.207zm-1.27-2.86c.006.396-.062 1.112-.819 1.59-.587.37-1.841.299-1.903-.395-.049-.555.461-.791.906-.898l1.816-.297zm72.662 2.86h-1.27v-.487c-.276.201-.864.609-1.881.609-1.202 0-2.274-.794-2.137-2.078.118-1.106 1.153-1.584 1.848-1.727l2.17-.345c0-.539-.29-.956-1.064-1.006s-1.21.305-1.571 1.017l-1.124-.605c1.218-2.631 5.029-1.764 5.029.414v4.207zm-1.27-2.86c.006.396-.062 1.112-.82 1.59-.587.37-1.841.299-1.903-.395-.049-.555.461-.791.906-.898l1.816-.297zM99.096 10.149H97.85v-8.45h1.246v4.895l2.68-2.559h1.738l-2.633 2.535 2.715 3.578h-1.556l-2.077-2.707-.867.844v1.863zm6.053-6.114h-1.255v6.113h1.255V4.035zm-59.2 0h-1.255v6.113h1.255V4.035zm5.584 6.113V1.697h1.255v2.695c.361-.346 1-.485 1.47-.485 1.452 0 2.477 1.082 2.457 2.448v3.792h-1.27v-3.68c0-.408-.214-1.339-1.315-1.339-.968 0-1.342.756-1.342 1.339v3.681h-1.255zm-4.76-4.894V4.039h.621a.45.45 0 0 0 .45-.45v-.855h1.251v1.305h1.309v1.215h-1.309v3.109c0 .293.105.664.648.664.365 0 .531-.035.736-.07v1.137s-.361.113-.857.113c-1.398 0-1.777-1.051-1.777-1.788V5.254h-1.071zM36.528 4.039h-1.394l2.191 6.106h1.125l1.234-3.918 1.238 3.918h1.129l2.188-6.106h-1.383l-1.359 3.93-1.256-3.93h-1.124l-1.242 3.957-1.348-3.957zM26.212 7.141c-.02 1.566 1.187 3.129 3.223 3.129 1.566 0 2.383-.918 2.734-1.719L31.172 8c-.315.399-.801 1.094-1.738 1.094-1.145 0-1.825-.781-1.891-1.52h4.625c.074-.284.148-.995-.03-1.559-.336-1.064-1.221-2.102-2.839-2.102s-3.088 1.152-3.088 3.227zm1.363-.75h3.348c-.055-.43-.566-1.301-1.623-1.301a1.79 1.79 0 0 0-1.725 1.301zm-8.758.75c.038 1.758 1.277 3.133 3.145 3.133 1.074 0 1.723-.477 1.961-.672v.547h1.242V1.703h-1.258v2.888c-.414-.36-1.062-.68-1.93-.68-1.91 0-3.198 1.473-3.16 3.23zm1.309-.08c0 1.119.723 1.978 1.836 1.978a1.88 1.88 0 0 0 1.94-1.904c0-1.371-1.011-1.99-1.972-1.99s-1.805.798-1.805 1.916zm76.683-.028C96.771 5.275 95.532 3.9 93.664 3.9c-1.074 0-1.723.477-1.961.672v-.547h-1.242v8.22h1.258V9.583c.414.36 1.063.68 1.93.68 1.91 0 3.198-1.473 3.16-3.23zm-1.309.08c0-1.119-.723-1.978-1.836-1.978a1.88 1.88 0 0 0-1.94 1.904c0 1.371 1.011 1.99 1.972 1.99S95.5 8.231 95.5 7.113zM106.441 10.173V4.036h1.254v.382c.361-.346 1-.485 1.47-.485 1.452 0 2.477 1.082 2.457 2.448v3.792h-1.27V6.492c0-.408-.214-1.339-1.315-1.339-.969 0-1.342.756-1.342 1.339v3.681h-1.254zm-30.383-.021V1.824h1.084l4.215 5.777V1.824h1.32v8.328h-1.094l-4.207-5.796v5.796h-1.319zM5.24 10.149H4V2.377h1.014l2.664 3.597 2.654-3.592h1.03v7.766h-1.256V4.762L7.678 8.068 5.24 4.742v5.407z" transform="translate(707, 428.49951171875)" fill="#ababab88" stroke="none"></path></svg>