<?xml version="1.0" encoding="utf-8" standalone="yes"?>
<!DOCTYPE svg PUBLIC "-//W3C//DTD SVG 1.1//EN" "http://www.w3.org/Graphics/SVG/1.1/DTD/svg11.dtd">
<svg style="fill:none;stroke:none;fill-rule:evenodd;clip-rule:evenodd;stroke-linecap:round;stroke-linejoin:round;stroke-miterlimit:1.5;" version="1.1" xmlns="http://www.w3.org/2000/svg" xmlns:xlink="http://www.w3.org/1999/xlink" width="876" height="732" viewBox="0 0 876 732"><style class="text-font-style fontImports" data-font-family="Roboto">@import url(https://fonts.googleapis.com/css2?family=Roboto:wght@400;700&amp;amp;display=block);</style><g id="items" style="isolation: isolate"><g id="blend" style="mix-blend-mode: normal"><g id="g-root-cp_5_g-5_58yloxdhvke-fill" data-item-order="-526591" transform="translate(200, 128)"></g><g id="g-root-cp_1_g-1_1uqjigcxdhw5j-fill" data-item-order="-526525" transform="translate(500, 122)"></g><g id="g-root-cp_4_g-4_1qbchf0xdhts0-fill" data-item-order="-526449" transform="translate(74, 314)"></g><g id="g-root-cp_-1_parent-5-part_1qbchf0xdhts1-fill" data-item-order="-526387" transform="translate(314, 359)"></g><g id="g-root-cp_2_g-2_1hfph64xdhukq-fill" data-item-order="-526327" transform="translate(590, 329)"></g><g id="g-root-cp_3_g-3_1czvz1oxdhvcz-fill" data-item-order="-526259" transform="translate(326, 524)"></g><g id="g-root-he_1czvz1oxdhvd1-fill" data-item-order="-526197" transform="translate(476, 146)"></g><g id="g-root-he_1448yssxdhw5r-fill" data-item-order="-526195" transform="translate(512, 170)"></g><g id="g-root-he_18k2gx8xdhw5d-fill" data-item-order="-526193" transform="translate(542, 353)"></g><g id="g-root-he_18k2gx8xdhw5f-fill" data-item-order="-526191" transform="translate(602, 377)"></g><g id="g-root-he_18k2gx8xdhw5h-fill" data-item-order="-526189" transform="translate(428, 443)"></g><g id="g-root-he_18k2gx8xdhw5j-fill" data-item-order="-526187" transform="translate(338, 572)"></g><g id="g-root-he_18k2gx8xdhw5l-fill" data-item-order="-526185" transform="translate(266, 338)"></g><g id="g-root-he_18k2gx8xdhw5n-fill" data-item-order="-526183" transform="translate(242, 362)"></g><g id="g-root-he_144vfvwxdhts5-fill" data-item-order="-526181" transform="translate(356, 152)"></g><g id="g-root-he_144vfvwxdhts7-fill" data-item-order="-526179" transform="translate(332, 176)"></g><g id="g-root-tx_policyde_18lxw6kxdhv67-fill" data-item-order="0" transform="translate(536, 248)"><g id="tx_policyde_18lxw6kxdhv67-fill-merged" stroke="none" fill="#f4f4f4" fill-opacity="1"><g><text style="font: 20px &quot;Roboto&quot;, sans-serif; white-space: pre;" transform="translate(10, 22)" font-size="20px" font-family="'Roboto', sans-serif"><tspan x="2" y="12" dominant-baseline="ideographic">Policy Details</tspan></text></g></g></g><g id="g-root-tx_forensic_1d1reb0xdhv5s-fill" data-item-order="0" transform="translate(86, 326)"><g id="tx_forensic_1d1reb0xdhv5s-fill-merged" stroke="none" fill="#faeeff" fill-opacity="1"><g><text style="font: 20px &quot;Roboto&quot;, sans-serif; white-space: pre;" transform="translate(178, 22)" font-size="20px" font-family="'Roboto', sans-serif"><tspan x="-157.93" y="12" dominant-baseline="ideographic">Forensic Analysis</tspan></text></g></g></g><g id="g-root-tx_policyop_1hhkwfgxdhudf-fill" data-item-order="0" transform="translate(140, 248)"><g id="tx_policyop_1hhkwfgxdhudf-fill-merged" stroke="none" fill="#f4f4f4" fill-opacity="1"><g><text style="font: 20px &quot;Roboto&quot;, sans-serif; white-space: pre;" transform="translate(190, 22)" font-size="20px" font-family="'Roboto', sans-serif"><tspan x="-174" y="12" dominant-baseline="ideographic">Policy Optimization</tspan></text></g></g></g><g id="g-root-tx_toplevel_1hhkwfgxdhudi-fill" data-item-order="0" transform="translate(536, 212)"><g id="tx_toplevel_1hhkwfgxdhudi-fill-merged" stroke="none" fill="#f4f4f4" fill-opacity="1"><g><text style="font: 20px &quot;Roboto&quot;, sans-serif; white-space: pre;" transform="translate(10, 22)" font-size="20px" font-family="'Roboto', sans-serif"><tspan x="2" y="12" dominant-baseline="ideographic">Top-Level Decision</tspan></text></g></g></g><g id="g-root-tx_decision_1lxeejwxdhtl6-fill" data-item-order="0" transform="translate(212, 188)"><g id="tx_decision_1lxeejwxdhtl6-fill-merged" stroke="none" fill="#f4f4f4" fill-opacity="1"><g><text style="font: 20px &quot;Roboto&quot;, sans-serif; white-space: pre;" transform="translate(118, 34)" font-size="20px" font-family="'Roboto', sans-serif"><tspan x="-78.7" y="0" dominant-baseline="ideographic">Decision </tspan><tspan x="-96.93" y="24" dominant-baseline="ideographic">Simulation</tspan></text></g></g></g><g id="g-root-tx_inputpor_1hhkwfgxdhudh-fill" data-item-order="0" transform="translate(536, 176)"><g id="tx_inputpor_1hhkwfgxdhudh-fill-merged" stroke="none" fill="#f4f4f4" fill-opacity="1"><g><text style="font: 20px &quot;Roboto&quot;, sans-serif; white-space: pre;" transform="translate(10, 22)" font-size="20px" font-family="'Roboto', sans-serif"><tspan x="2" y="12" dominant-baseline="ideographic">Input PORC</tspan></text></g></g></g><g id="g-root-tx_complian_1464e24xdhvyk-fill" data-item-order="0" transform="translate(602, 341)"><g id="tx_complian_1464e24xdhvyk-fill-merged" stroke="none" fill="#ffe9e8" fill-opacity="1"><g><text style="font: 20px &quot;Roboto&quot;, sans-serif; white-space: pre;" transform="translate(10, 22)" font-size="20px" font-family="'Roboto', sans-serif"><tspan x="2" y="12" dominant-baseline="ideographic">Compliance Reporting</tspan></text></g></g></g><g id="g-root-tx_accessre_1hhkwfgxdhudg-fill" data-item-order="0" transform="translate(512, 134)"><g id="tx_accessre_1hhkwfgxdhudg-fill-merged" stroke="none" fill="#fff0e2" fill-opacity="1"><g><text style="font: 20px &quot;Roboto&quot;, sans-serif; white-space: pre;" transform="translate(10, 22)" font-size="20px" font-family="'Roboto', sans-serif"><tspan x="2" y="12" dominant-baseline="ideographic">AccessRecord</tspan></text></g></g></g><g id="g-root-tx_incident_1d1reb0xdhv5t-fill" data-item-order="0" transform="translate(110, 374)"><g id="tx_incident_1d1reb0xdhv5t-fill-merged" stroke="none" fill="#f4f4f4" fill-opacity="1"><g><text style="font: 20px &quot;Roboto&quot;, sans-serif; white-space: pre;" transform="translate(130, 34)" font-size="20px" font-family="'Roboto', sans-serif"><tspan x="-73.3" y="0" dominant-baseline="ideographic">Incident </tspan><tspan x="-116.37" y="24" dominant-baseline="ideographic">Investigation</tspan></text></g></g></g><g id="g-root-tx_auditobs_1464e24xdhvyj-fill" data-item-order="0" transform="translate(350, 371)"><g id="tx_auditobs_1464e24xdhvyj-fill-merged" stroke="none" fill="#b7b7b7" fill-opacity="1"><g><text style="font: 25px &quot;Roboto&quot;, sans-serif; white-space: pre;" transform="translate(88, 40)" font-size="25px" font-family="'Roboto', sans-serif"><tspan x="-40.03" y="0" dominant-baseline="ideographic">Audit &amp; </tspan><tspan x="-71.95" y="30" dominant-baseline="ideographic">Observability</tspan></text></g></g></g><g id="g-root-tx_regulato_1464e24xdhvyl-fill" data-item-order="0" transform="translate(626, 383)"><g id="tx_regulato_1464e24xdhvyl-fill-merged" stroke="none" fill="#f4f4f4" fill-opacity="1"><g><text style="font: 20px &quot;Roboto&quot;, sans-serif; white-space: pre;" transform="translate(10, 34)" font-size="20px" font-family="'Roboto', sans-serif"><tspan x="2" y="0" dominant-baseline="ideographic">Regulatory </tspan><tspan x="2" y="24" dominant-baseline="ideographic">Standards</tspan></text></g></g></g><g id="g-root-tx_threshol_zqxd0sxdhtl5-fill" data-item-order="0" transform="translate(362, 620)"><g id="tx_threshol_zqxd0sxdhtl5-fill-merged" stroke="none" fill="#f4f4f4" fill-opacity="1"><g><text style="font: 20px &quot;Roboto&quot;, sans-serif; white-space: pre;" transform="translate(10, 22)" font-size="20px" font-family="'Roboto', sans-serif"><tspan x="2" y="12" dominant-baseline="ideographic">Threshold Alerts</tspan></text></g></g></g><g id="g-root-tx_rootcaus_1d1reb0xdhv5u-fill" data-item-order="0" transform="translate(122, 434)"><g id="tx_rootcaus_1d1reb0xdhv5u-fill-merged" stroke="none" fill="#f4f4f4" fill-opacity="1"><g><text style="font: 20px &quot;Roboto&quot;, sans-serif; white-space: pre;" transform="translate(118, 34)" font-size="20px" font-family="'Roboto', sans-serif"><tspan x="-104.48" y="0" dominant-baseline="ideographic">Root Cause </tspan><tspan x="-76.82" y="24" dominant-baseline="ideographic">Analysis</tspan></text></g></g></g><g id="g-root-tx_internal_1464e24xdhvym-fill" data-item-order="0" transform="translate(626, 443)"><g id="tx_internal_1464e24xdhvym-fill-merged" stroke="none" fill="#f4f4f4" fill-opacity="1"><g><text style="font: 20px &quot;Roboto&quot;, sans-serif; white-space: pre;" transform="translate(10, 22)" font-size="20px" font-family="'Roboto', sans-serif"><tspan x="2" y="12" dominant-baseline="ideographic">Internal Policies</tspan></text></g></g></g><g id="g-root-tx_policyre_1usexpoxdhvy9-fill" data-item-order="0" transform="translate(212, 140)"><g id="tx_policyre_1usexpoxdhvy9-fill-merged" stroke="none" fill="#f1eeff" fill-opacity="1"><g><text style="font: 20px &quot;Roboto&quot;, sans-serif; white-space: pre;" transform="translate(142, 22)" font-size="20px" font-family="'Roboto', sans-serif"><tspan x="-119.73" y="12" dominant-baseline="ideographic">Policy Replay</tspan></text></g></g></g><g id="g-root-tx_anomalyd_zqxd0sxdhtl3-fill" data-item-order="0" transform="translate(338, 536)"><g id="tx_anomalyd_zqxd0sxdhtl3-fill-merged" stroke="none" fill="#ffffff" fill-opacity="1"><g><text style="font: 20px &quot;Roboto&quot;, sans-serif; white-space: pre;" transform="translate(10, 22)" font-size="20px" font-family="'Roboto', sans-serif"><tspan x="2" y="12" dominant-baseline="ideographic">Anomaly Detection</tspan></text></g></g></g><g id="g-root-tx_auditobs_144vfvwxdhts8-fill" data-item-order="0" transform="translate(158, 38)"><g id="tx_auditobs_144vfvwxdhts8-fill-merged" stroke="none" fill="#f4f4f4" fill-opacity="1"><g><text style="font: bold 25px &quot;Roboto&quot;, sans-serif; white-space: pre;" transform="translate(280, 28)" font-weight="bold" font-size="25px" font-family="'Roboto', sans-serif"><tspan x="-265.73" y="15" dominant-baseline="ideographic">Audit &amp; Observability in Policy Decision Making</tspan></text></g></g></g><g id="g-root-tx_patternr_zqxd0sxdhtl4-fill" data-item-order="0" transform="translate(362, 584)"><g id="tx_patternr_zqxd0sxdhtl4-fill-merged" stroke="none" fill="#f4f4f4" fill-opacity="1"><g><text style="font: 20px &quot;Roboto&quot;, sans-serif; white-space: pre;" transform="translate(10, 22)" font-size="20px" font-family="'Roboto', sans-serif"><tspan x="2" y="12" dominant-baseline="ideographic">Pattern Recognition</tspan></text></g></g></g><g id="g-root-cp_5_g-5_58yloxdhvke-stroke" data-item-order="-526591" transform="translate(200, 128)"><g id="cp_5_g-5_58yloxdhvke-stroke" fill="none" stroke-linecap="round" stroke-linejoin="round" stroke-miterlimit="4" stroke="#4f91fc" stroke-width="2" stroke-opacity="1"><g><path d="M 16 10C 12.6863 10 10 12.6863 10 16M 16 10L 160 10M 160 10C 163.3137 10 166 12.6863 166 16M 166 52L 166 16M 10 52L 10 16M 10 52C 10 55.3137 12.6863 58 16 58M 160 58L 16 58M 160 58C 163.3137 58 166 55.3137 166 52"></path></g></g></g><g id="g-root-cp_1_g-1_1uqjigcxdhw5j-stroke" data-item-order="-526525" transform="translate(500, 122)"><g id="cp_1_g-1_1uqjigcxdhw5j-stroke" fill="none" stroke-linecap="round" stroke-linejoin="round" stroke-miterlimit="4" stroke="#ffe711" stroke-width="2" stroke-opacity="1"><g><path d="M 160 10C 163.3137 10 166 12.6863 166 16M 160 10L 16 10M 16 10C 12.6863 10 10 12.6863 10 16M 10 52L 10 16M 166 52L 166 16M 166 52C 166 55.3137 163.3137 58 160 58M 16 58L 160 58M 16 58C 12.6863 58 10 55.3137 10 52"></path></g></g></g><g id="g-root-cp_4_g-4_1qbchf0xdhts0-stroke" data-item-order="-526449" transform="translate(74, 314)"><g id="cp_4_g-4_1qbchf0xdhts0-stroke" fill="none" stroke-linecap="round" stroke-linejoin="round" stroke-miterlimit="4" stroke="#1ac3fb" stroke-width="2" stroke-opacity="1"><g><path d="M 16 10C 12.6863 10 10 12.6863 10 16M 16 10L 196 10M 196 10C 199.3137 10 202 12.6863 202 16M 202 52L 202 16M 10 52L 10 16M 10 52C 10 55.3137 12.6863 58 16 58M 196 58L 16 58M 196 58C 199.3137 58 202 55.3137 202 52"></path></g></g></g><g id="g-root-cp_-1_parent-5-part_1qbchf0xdhts1-stroke" data-item-order="-526387" transform="translate(314, 359)"><g id="cp_-1_parent-5-part_1qbchf0xdhts1-stroke" fill="none" stroke-linecap="round" stroke-linejoin="round" stroke-miterlimit="4" stroke="#f4f4f4" stroke-width="2" stroke-opacity="1"><g><path d="M 16 10C 12.6863 10 10 12.6863 10 16M 16 10L 232 10M 232 10C 235.3137 10 238 12.6863 238 16M 238 88L 238 16M 10 88L 10 16M 10 88C 10 91.3137 12.6863 94 16 94M 232 94L 16 94M 232 94C 235.3137 94 238 91.3137 238 88"></path></g></g></g><g id="g-root-cp_2_g-2_1hfph64xdhukq-stroke" data-item-order="-526327" transform="translate(590, 329)"><g id="cp_2_g-2_1hfph64xdhukq-stroke" fill="none" stroke-linecap="round" stroke-linejoin="round" stroke-miterlimit="4" stroke="#a6da37" stroke-width="2" stroke-opacity="1"><g><path d="M 232 10C 235.3137 10 238 12.6863 238 16M 232 10L 16 10M 16 10C 12.6863 10 10 12.6863 10 16M 10 52L 10 16M 238 52L 238 16M 238 52C 238 55.3137 235.3137 58 232 58M 16 58L 232 58M 16 58C 12.6863 58 10 55.3137 10 52"></path></g></g></g><g id="g-root-cp_3_g-3_1czvz1oxdhvcz-stroke" data-item-order="-526259" transform="translate(326, 524)"><g id="cp_3_g-3_1czvz1oxdhvcz-stroke" fill="none" stroke-linecap="round" stroke-linejoin="round" stroke-miterlimit="4" stroke="#43dd93" stroke-width="2" stroke-opacity="1"><g><path d="M 208 10C 211.3137 10 214 12.6863 214 16M 208 10L 16 10M 16 10C 12.6863 10 10 12.6863 10 16M 10 52L 10 16M 214 52L 214 16M 214 52C 214 55.3137 211.3137 58 208 58M 16 58L 208 58M 16 58C 12.6863 58 10 55.3137 10 52"></path></g></g></g><g id="g-root-he_1czvz1oxdhvd1-stroke" data-item-order="-526197" transform="translate(476, 146)"><g id="he_1czvz1oxdhvd1-stroke" fill="none" stroke-linecap="round" stroke-linejoin="round" stroke-miterlimit="4" stroke="#f4f4f4" stroke-width="2" stroke-opacity="1"><style>.fillAsHole-mk-18egtex119kljh { fill:#2C2C2C; }</style><g><path d="M 10 223L 10 22C 10 15.37 15.37 10 22 10L 31 10"></path><path d="M 31 10C 31.000001 11.656854 32.343146 13 34.000001 13C 35.656855 13 37.000001 11.656854 37.000001 10C 37.000001 8.343146 35.656855 7 34.000001 7C 32.343146 7 31.000001 8.343146 31.000001 10Z" stroke-dasharray="none" class="fillAsHole-mk-18egtex119kljh" fill="#2C2C2C"></path></g></g></g><g id="g-root-he_1448yssxdhw5r-stroke" data-item-order="-526195" transform="translate(512, 170)"><g id="he_1448yssxdhw5r-stroke" fill="none" stroke-linecap="round" stroke-linejoin="round" stroke-miterlimit="4" stroke="#f4f4f4" stroke-width="2" stroke-opacity="1"><style>.fillAsStrokeColor-mk-1uuxgbt119j6z2 { fill:#f4f4f4; }
.fillAsStrokeColor-mk-1uuxgbt119j6z3 { fill:#f4f4f4; }
.fillAsStrokeColor-mk-9mwh5119j75s { fill:#f4f4f4; }</style><g><path d="M 10 10L 10 88C 10 94.62742 15.372583 100.000003 22 100.000003L 22 100M 10 28L 22 28M 10 64L 22 64"></path><path d="M 20.5 100C 20.5 100.82843 21.171573 101.500003 22 101.500003C 22.828427 101.500003 23.5 100.82843 23.5 100.000003C 23.5 99.171576 22.828427 98.500003 22 98.500003C 21.171573 98.500003 20.5 99.171576 20.5 100.000003Z" stroke-dasharray="none" class="fillAsStrokeColor-mk-1uuxgbt119j6z2" fill="#f4f4f4"></path><path d="M 20.5 28C 20.5 28.828428 21.171573 29.500001 22 29.500001C 22.828427 29.500001 23.5 28.828428 23.5 28.000001C 23.5 27.171573 22.828427 26.500001 22 26.500001C 21.171573 26.500001 20.5 27.171573 20.5 28.000001Z" stroke-dasharray="none" class="fillAsStrokeColor-mk-1uuxgbt119j6z3" fill="#f4f4f4"></path><path d="M 20.5 64C 20.5 64.828429 21.171573 65.500002 22 65.500002C 22.828427 65.500002 23.5 64.828429 23.5 64.000002C 23.5 63.171574 22.828427 62.500002 22 62.500002C 21.171573 62.500002 20.5 63.171574 20.5 64.000002Z" stroke-dasharray="none" class="fillAsStrokeColor-mk-9mwh5119j75s" fill="#f4f4f4"></path></g></g></g><g id="g-root-he_18k2gx8xdhw5d-stroke" data-item-order="-526193" transform="translate(542, 353)"><g id="he_18k2gx8xdhw5d-stroke" fill="none" stroke-linecap="round" stroke-linejoin="round" stroke-miterlimit="4" stroke="#f4f4f4" stroke-width="2" stroke-opacity="1"><style>.fillAsHole-mk-1qf3y7d119j7rg { fill:#2C2C2C; }</style><g><path d="M 10 58L 22 58C 28.63 58 34 52.63 34 46L 34 22C 34 15.37 39.37 10 46 10L 55 10"></path><path d="M 55 10C 55.000001 11.656854 56.343147 13 58.000001 13C 59.656856 13 61.000001 11.656854 61.000001 10C 61.000001 8.343146 59.656856 7 58.000001 7C 56.343147 7 55.000001 8.343146 55.000001 10Z" stroke-dasharray="none" class="fillAsHole-mk-1qf3y7d119j7rg" fill="#2C2C2C"></path></g></g></g><g id="g-root-he_18k2gx8xdhw5f-stroke" data-item-order="-526191" transform="translate(602, 377)"><g id="he_18k2gx8xdhw5f-stroke" fill="none" stroke-linecap="round" stroke-linejoin="round" stroke-miterlimit="4" stroke="#f4f4f4" stroke-width="2" stroke-opacity="1"><style>.fillAsStrokeColor-mk-1qf3y7d119j7rh { fill:#f4f4f4; }
.fillAsStrokeColor-mk-1qf3y7d119j7ri { fill:#f4f4f4; }</style><g><path d="M 10 10L 10 76C 10 82.627419 15.372583 88.000003 22 88.000002L 22 88M 10 28L 22 28"></path><path d="M 20.5 88C 20.5 88.828429 21.171573 89.500002 22 89.500002C 22.828427 89.500002 23.5 88.828429 23.5 88.000002C 23.5 87.171575 22.828427 86.500002 22 86.500002C 21.171573 86.500002 20.5 87.171575 20.5 88.000002Z" stroke-dasharray="none" class="fillAsStrokeColor-mk-1qf3y7d119j7rh" fill="#f4f4f4"></path><path d="M 20.5 28C 20.5 28.828428 21.171573 29.500001 22 29.500001C 22.828427 29.500001 23.5 28.828428 23.5 28.000001C 23.5 27.171573 22.828427 26.500001 22 26.500001C 21.171573 26.500001 20.5 27.171573 20.5 28.000001Z" stroke-dasharray="none" class="fillAsStrokeColor-mk-1qf3y7d119j7ri" fill="#f4f4f4"></path></g></g></g><g id="g-root-he_18k2gx8xdhw5h-stroke" data-item-order="-526189" transform="translate(428, 443)"><g id="he_18k2gx8xdhw5h-stroke" fill="none" stroke-linecap="round" stroke-linejoin="round" stroke-miterlimit="4" stroke="#f4f4f4" stroke-width="2" stroke-opacity="1"><style>.fillAsHole-mk-1lzag2x119j8jr { fill:#2C2C2C; }</style><g><path d="M 10 10L 10 88"></path><path d="M 7 91C 7 92.656857 8.343146 94.000002 10 94.000002C 11.656854 94.000002 13 92.656857 13 91.000002C 13 89.343148 11.656854 88.000002 10 88.000002C 8.343146 88.000002 7 89.343148 7 91.000002Z" stroke-dasharray="none" class="fillAsHole-mk-1lzag2x119j8jr" fill="#2C2C2C"></path></g></g></g><g id="g-root-he_18k2gx8xdhw5j-stroke" data-item-order="-526187" transform="translate(338, 572)"><g id="he_18k2gx8xdhw5j-stroke" fill="none" stroke-linecap="round" stroke-linejoin="round" stroke-miterlimit="4" stroke="#f4f4f4" stroke-width="2" stroke-opacity="1"><style>.fillAsStrokeColor-mk-1lzag2x119j8js { fill:#f4f4f4; }
.fillAsStrokeColor-mk-1lzag2x119j8jt { fill:#f4f4f4; }</style><g><path d="M 10 10L 10 58C 10 64.627419 15.372583 70.000002 22 70.000002L 22 70M 10 34L 22 34"></path><path d="M 20.5 70C 20.5 70.828429 21.171573 71.500002 22 71.500002C 22.828427 71.500002 23.5 70.828429 23.5 70.000002C 23.5 69.171575 22.828427 68.500002 22 68.500002C 21.171573 68.500002 20.5 69.171575 20.5 70.000002Z" stroke-dasharray="none" class="fillAsStrokeColor-mk-1lzag2x119j8js" fill="#f4f4f4"></path><path d="M 20.5 34C 20.5 34.828428 21.171573 35.500001 22 35.500001C 22.828427 35.500001 23.5 34.828428 23.5 34.000001C 23.5 33.171574 22.828427 32.500001 22 32.500001C 21.171573 32.500001 20.5 33.171574 20.5 34.000001Z" stroke-dasharray="none" class="fillAsStrokeColor-mk-1lzag2x119j8jt" fill="#f4f4f4"></path></g></g></g><g id="g-root-he_18k2gx8xdhw5l-stroke" data-item-order="-526185" transform="translate(266, 338)"><g id="he_18k2gx8xdhw5l-stroke" fill="none" stroke-linecap="round" stroke-linejoin="round" stroke-miterlimit="4" stroke="#f4f4f4" stroke-width="2" stroke-opacity="1"><style>.fillAsHole-mk-1lzag2x119j8ju { fill:#2C2C2C; }</style><g><path d="M 58 73L 46 73C 39.37 73 34 67.63 34 61L 34 22C 34 15.37 28.63 10 22 10L 13 10"></path><path d="M 7 10C 7 11.656854 8.343146 13 10 13C 11.656854 13 13 11.656854 13 10C 13 8.343146 11.656854 7 10 7C 8.343146 7 7 8.343146 7 10Z" stroke-dasharray="none" class="fillAsHole-mk-1lzag2x119j8ju" fill="#2C2C2C"></path></g></g></g><g id="g-root-he_18k2gx8xdhw5n-stroke" data-item-order="-526183" transform="translate(242, 362)"><g id="he_18k2gx8xdhw5n-stroke" fill="none" stroke-linecap="round" stroke-linejoin="round" stroke-miterlimit="4" stroke="#f4f4f4" stroke-width="2" stroke-opacity="1"><style>.fillAsStrokeColor-mk-1ha3tnt119kkqr { fill:#f4f4f4; }
.fillAsStrokeColor-mk-1ha3tnt119kkqs { fill:#f4f4f4; }</style><g><path d="M 22 10L 22 82C 22.000001 88.627419 16.627417 94.000003 10 94.000003L 10 94M 22 34L 10 34"></path><path d="M 8.5 94C 8.5 94.82843 9.171573 95.500003 10 95.500003C 10.828427 95.500003 11.5 94.82843 11.5 94.000003C 11.5 93.171575 10.828427 92.500003 10 92.500003C 9.171573 92.500003 8.5 93.171575 8.5 94.000003Z" stroke-dasharray="none" class="fillAsStrokeColor-mk-1ha3tnt119kkqr" fill="#f4f4f4"></path><path d="M 8.5 34C 8.5 34.828428 9.171573 35.500001 10 35.500001C 10.828427 35.500001 11.5 34.828428 11.5 34.000001C 11.5 33.171574 10.828427 32.500001 10 32.500001C 9.171573 32.500001 8.5 33.171574 8.5 34.000001Z" stroke-dasharray="none" class="fillAsStrokeColor-mk-1ha3tnt119kkqs" fill="#f4f4f4"></path></g></g></g><g id="g-root-he_144vfvwxdhts5-stroke" data-item-order="-526181" transform="translate(356, 152)"><g id="he_144vfvwxdhts5-stroke" fill="none" stroke-linecap="round" stroke-linejoin="round" stroke-miterlimit="4" stroke="#f4f4f4" stroke-width="2" stroke-opacity="1"><style>.fillAsHole-mk-1qf3y7d119j7rd { fill:#2C2C2C; }</style><g><path d="M 34 217L 34 22C 34 15.37 28.63 10 22 10L 13 10"></path><path d="M 7 10C 7 11.656854 8.343146 13 10 13C 11.656854 13 13 11.656854 13 10C 13 8.343146 11.656854 7 10 7C 8.343146 7 7 8.343146 7 10Z" stroke-dasharray="none" class="fillAsHole-mk-1qf3y7d119j7rd" fill="#2C2C2C"></path></g></g></g><g id="g-root-he_144vfvwxdhts7-stroke" data-item-order="-526179" transform="translate(332, 176)"><g id="he_144vfvwxdhts7-stroke" fill="none" stroke-linecap="round" stroke-linejoin="round" stroke-miterlimit="4" stroke="#f4f4f4" stroke-width="2" stroke-opacity="1"><style>.fillAsStrokeColor-mk-1qf3y7d119j7re { fill:#f4f4f4; }
.fillAsStrokeColor-mk-1qf3y7d119j7rf { fill:#f4f4f4; }</style><g><path d="M 22 10L 22 82C 22.000001 88.627419 16.627417 94.000003 10 94.000003L 10 94M 22 34L 10 34"></path><path d="M 8.5 94C 8.5 94.82843 9.171573 95.500003 10 95.500003C 10.828427 95.500003 11.5 94.82843 11.5 94.000003C 11.5 93.171575 10.828427 92.500003 10 92.500003C 9.171573 92.500003 8.5 93.171575 8.5 94.000003Z" stroke-dasharray="none" class="fillAsStrokeColor-mk-1qf3y7d119j7re" fill="#f4f4f4"></path><path d="M 8.5 34C 8.5 34.828428 9.171573 35.500001 10 35.500001C 10.828427 35.500001 11.5 34.828428 11.5 34.000001C 11.5 33.171574 10.828427 32.500001 10 32.500001C 9.171573 32.500001 8.5 33.171574 8.5 34.000001Z" stroke-dasharray="none" class="fillAsStrokeColor-mk-1qf3y7d119j7rf" fill="#f4f4f4"></path></g></g></g><g id="g-root-tx_policyde_18lxw6kxdhv67-stroke" data-item-order="0" transform="translate(536, 248)"></g><g id="g-root-tx_forensic_1d1reb0xdhv5s-stroke" data-item-order="0" transform="translate(86, 326)"></g><g id="g-root-tx_policyop_1hhkwfgxdhudf-stroke" data-item-order="0" transform="translate(140, 248)"></g><g id="g-root-tx_toplevel_1hhkwfgxdhudi-stroke" data-item-order="0" transform="translate(536, 212)"></g><g id="g-root-tx_decision_1lxeejwxdhtl6-stroke" data-item-order="0" transform="translate(212, 188)"></g><g id="g-root-tx_inputpor_1hhkwfgxdhudh-stroke" data-item-order="0" transform="translate(536, 176)"></g><g id="g-root-tx_complian_1464e24xdhvyk-stroke" data-item-order="0" transform="translate(602, 341)"></g><g id="g-root-tx_accessre_1hhkwfgxdhudg-stroke" data-item-order="0" transform="translate(512, 134)"></g><g id="g-root-tx_incident_1d1reb0xdhv5t-stroke" data-item-order="0" transform="translate(110, 374)"></g><g id="g-root-tx_auditobs_1464e24xdhvyj-stroke" data-item-order="0" transform="translate(350, 371)"></g><g id="g-root-tx_regulato_1464e24xdhvyl-stroke" data-item-order="0" transform="translate(626, 383)"></g><g id="g-root-tx_threshol_zqxd0sxdhtl5-stroke" data-item-order="0" transform="translate(362, 620)"></g><g id="g-root-tx_rootcaus_1d1reb0xdhv5u-stroke" data-item-order="0" transform="translate(122, 434)"></g><g id="g-root-tx_internal_1464e24xdhvym-stroke" data-item-order="0" transform="translate(626, 443)"></g><g id="g-root-tx_policyre_1usexpoxdhvy9-stroke" data-item-order="0" transform="translate(212, 140)"></g><g id="g-root-tx_anomalyd_zqxd0sxdhtl3-stroke" data-item-order="0" transform="translate(338, 536)"></g><g id="g-root-tx_auditobs_144vfvwxdhts8-stroke" data-item-order="0" transform="translate(158, 38)"></g><g id="g-root-tx_patternr_zqxd0sxdhtl4-stroke" data-item-order="0" transform="translate(362, 584)"></g></g></g><path id="wmeu7e112wx24u" d="M65.283 12.757a.35.35 0 0 0 .584.157l5.203-5.141-6.183 3.523.396 1.461zm-2.216-11.7a.35.35 0 0 0-.522.305v3.111l3.276-1.868-2.754-1.548zm3.728 2.105l-4.25 2.421v2.445l6.391-3.644-2.141-1.222zm4.708 3.303a.35.35 0 0 0 0-.609l-1.592-.9-7.365 4.199v1.782a.35.35 0 0 0 .523.305l8.435-4.777z M44.542 2.513c0-.433.355-.783.792-.783s.792.35.792.783-.355.783-.792.783-.792-.35-.792-.783zm59.171 0c0-.433.355-.783.792-.783s.792.35.792.783-.355.783-.792.783-.792-.35-.792-.783zm-85.951 7.636h-1.27v-.487c-.276.201-.864.609-1.881.609-1.202 0-2.274-.794-2.137-2.078.118-1.106 1.153-1.584 1.848-1.727l2.17-.345c0-.539-.29-.956-1.064-1.006s-1.21.305-1.571 1.017l-1.124-.605c1.218-2.631 5.029-1.764 5.029.414v4.207zm-1.27-2.86c.006.396-.062 1.112-.819 1.59-.587.37-1.841.299-1.903-.395-.049-.555.461-.791.906-.898l1.816-.297zm72.662 2.86h-1.27v-.487c-.276.201-.864.609-1.881.609-1.202 0-2.274-.794-2.137-2.078.118-1.106 1.153-1.584 1.848-1.727l2.17-.345c0-.539-.29-.956-1.064-1.006s-1.21.305-1.571 1.017l-1.124-.605c1.218-2.631 5.029-1.764 5.029.414v4.207zm-1.27-2.86c.006.396-.062 1.112-.82 1.59-.587.37-1.841.299-1.903-.395-.049-.555.461-.791.906-.898l1.816-.297zM99.096 10.149H97.85v-8.45h1.246v4.895l2.68-2.559h1.738l-2.633 2.535 2.715 3.578h-1.556l-2.077-2.707-.867.844v1.863zm6.053-6.114h-1.255v6.113h1.255V4.035zm-59.2 0h-1.255v6.113h1.255V4.035zm5.584 6.113V1.697h1.255v2.695c.361-.346 1-.485 1.47-.485 1.452 0 2.477 1.082 2.457 2.448v3.792h-1.27v-3.68c0-.408-.214-1.339-1.315-1.339-.968 0-1.342.756-1.342 1.339v3.681h-1.255zm-4.76-4.894V4.039h.621a.45.45 0 0 0 .45-.45v-.855h1.251v1.305h1.309v1.215h-1.309v3.109c0 .293.105.664.648.664.365 0 .531-.035.736-.07v1.137s-.361.113-.857.113c-1.398 0-1.777-1.051-1.777-1.788V5.254h-1.071zM36.528 4.039h-1.394l2.191 6.106h1.125l1.234-3.918 1.238 3.918h1.129l2.188-6.106h-1.383l-1.359 3.93-1.256-3.93h-1.124l-1.242 3.957-1.348-3.957zM26.212 7.141c-.02 1.566 1.187 3.129 3.223 3.129 1.566 0 2.383-.918 2.734-1.719L31.172 8c-.315.399-.801 1.094-1.738 1.094-1.145 0-1.825-.781-1.891-1.52h4.625c.074-.284.148-.995-.03-1.559-.336-1.064-1.221-2.102-2.839-2.102s-3.088 1.152-3.088 3.227zm1.363-.75h3.348c-.055-.43-.566-1.301-1.623-1.301a1.79 1.79 0 0 0-1.725 1.301zm-8.758.75c.038 1.758 1.277 3.133 3.145 3.133 1.074 0 1.723-.477 1.961-.672v.547h1.242V1.703h-1.258v2.888c-.414-.36-1.062-.68-1.93-.68-1.91 0-3.198 1.473-3.16 3.23zm1.309-.08c0 1.119.723 1.978 1.836 1.978a1.88 1.88 0 0 0 1.94-1.904c0-1.371-1.011-1.99-1.972-1.99s-1.805.798-1.805 1.916zm76.683-.028C96.771 5.275 95.532 3.9 93.664 3.9c-1.074 0-1.723.477-1.961.672v-.547h-1.242v8.22h1.258V9.583c.414.36 1.063.68 1.93.68 1.91 0 3.198-1.473 3.16-3.23zm-1.309.08c0-1.119-.723-1.978-1.836-1.978a1.88 1.88 0 0 0-1.94 1.904c0 1.371 1.011 1.99 1.972 1.99S95.5 8.231 95.5 7.113zM106.441 10.173V4.036h1.254v.382c.361-.346 1-.485 1.47-.485 1.452 0 2.477 1.082 2.457 2.448v3.792h-1.27V6.492c0-.408-.214-1.339-1.315-1.339-.969 0-1.342.756-1.342 1.339v3.681h-1.254zm-30.383-.021V1.824h1.084l4.215 5.777V1.824h1.32v8.328h-1.094l-4.207-5.796v5.796h-1.319zM5.24 10.149H4V2.377h1.014l2.664 3.597 2.654-3.592h1.03v7.766h-1.256V4.762L7.678 8.068 5.24 4.742v5.407z" transform="translate(740, 698)" fill="#ababab88" stroke="none"></path></svg>