<?xml version="1.0" encoding="utf-8" standalone="yes"?>
<!DOCTYPE svg PUBLIC "-//W3C//DTD SVG 1.1//EN" "http://www.w3.org/Graphics/SVG/1.1/DTD/svg11.dtd">
<svg style="fill:none;stroke:none;fill-rule:evenodd;clip-rule:evenodd;stroke-linecap:round;stroke-linejoin:round;stroke-miterlimit:1.5;" version="1.1" xmlns="http://www.w3.org/2000/svg" xmlns:xlink="http://www.w3.org/1999/xlink" width="553" height="702" viewBox="0 0 553 702"><style class="text-font-style fontImports" data-font-family="Roboto">@import url(https://fonts.googleapis.com/css2?family=Roboto:wght@400;700&amp;amp;display=block);</style><g id="items" style="isolation: isolate"><g id="blend" style="mix-blend-mode: normal"><g id="g-root-ro_4kgim4123f5e4-fill" data-item-order="3000000000" transform="translate(177, 108.75)"></g><g id="g-root-ro_13zw664123i0at-fill" data-item-order="3000000000" transform="translate(101, 420.251953125)"></g><g id="g-root-tx_zog2u4119kkco-fill" data-item-order="3000000000" transform="translate(197.00003051757812, 246.390625)"><g id="tx_zog2u4119kkco-fill-merged" stroke="none" fill="#f4f4f4" fill-opacity="1"><g><text style="font: bold 15px &quot;Roboto&quot;, sans-serif; white-space: pre;" transform="translate(10, 22)" font-weight="bold" font-size="15px" font-family="'Roboto', sans-serif"><tspan x="2" y="9" dominant-baseline="ideographic">Push</tspan></text></g></g></g><g id="g-root-tx_1lxeue410pfsat-fill" data-item-order="3000000000" transform="translate(306.25, 246.390625)"><g id="tx_1lxeue410pfsat-fill-merged" stroke="none" fill="#f4f4f4" fill-opacity="1"><g><text style="font: bold 15px &quot;Roboto&quot;, sans-serif; white-space: pre;" transform="translate(10, 22)" font-weight="bold" font-size="15px" font-family="'Roboto', sans-serif"><tspan x="2" y="9" dominant-baseline="ideographic">Pull</tspan></text></g></g></g><g id="g-root-ro_4il3cs123gkjr-fill" data-item-order="3000000000" transform="translate(89, 304.251953125)"></g><g id="g-root-ro_1cuwsho122ycco-fill" data-item-order="3000000000" transform="translate(260.25, 569.75)"></g><g id="g-root-ro_1q7m2po12xfdop-fill" data-item-order="3000000000" transform="translate(64.25, 569.75)"></g><g id="g-root-ro_90c3g123i0ap-fill" data-item-order="3000000000" transform="translate(282, 351.2490234375)"></g><g id="g-root-tx_policydo_htf7ss122y9zi-fill" data-item-order="3000000000" transform="translate(104.03887939453125, 38)"><g id="tx_policydo_htf7ss122y9zi-fill-merged" stroke="none" fill="#f4f4f4" fill-opacity="1"><g><text style="font: bold 25px &quot;Roboto&quot;, sans-serif; white-space: pre;" transform="translate(172, 28)" font-weight="bold" font-size="25px" font-family="'Roboto', sans-serif"><tspan x="-159.55" y="15" dominant-baseline="ideographic">GitOps Deployment Patterns</tspan></text></g></g></g><g id="g-root-cu_m8m8u4122yccv-fill" data-item-order="3000000002" transform="translate(273, 204.75)"></g><g id="g-root-cu_m8m8u4122yccp-fill" data-item-order="3000000002" transform="translate(173, 251.251953125)"></g><g id="g-root-cn_8x5dukzlafpo-fill" data-item-order="3000000002" transform="translate(157.25, 447.25)"></g><g id="g-root-cu_m8m8u4122yccs-fill" data-item-order="3000000002" transform="translate(173, 400.251953125)"></g><g id="g-root-cu_htf7ss122y9zg-fill" data-item-order="3000000002" transform="translate(173, 516.251953125)"></g><g id="g-root-cu_qofqyk122ycch-fill" data-item-order="3000000002" transform="translate(372, 447.25)"></g><g id="g-root-tx_kubectla_18fpoak123hzij-fill" data-item-order="4000000000" transform="translate(149, 444.251953125)"><g id="tx_kubectla_18fpoak123hzij-fill-merged" stroke="none" fill="#ffffff" fill-opacity="1"><g><text style="font: 20px &quot;Roboto&quot;, sans-serif; white-space: pre;" transform="translate(52, 34)" font-size="20px" font-family="'Roboto', sans-serif"><tspan x="-34.92" y="0" dominant-baseline="ideographic">kubectl </tspan><tspan x="-26.33" y="24" dominant-baseline="ideographic">apply</tspan></text></g></g></g><g id="g-root-ic_nail_18fpoak123hzik-fill" data-item-order="4000000000" transform="translate(113, 453.251953125)"></g><g id="g-root-tx_gitopsop_4otu7w123hzif-fill" data-item-order="4000000000" transform="translate(330, 387.2490234375)"><g id="tx_gitopsop_4otu7w123hzif-fill-merged" stroke="none" fill="#ffffff" fill-opacity="1"><g><text style="font: 20px &quot;Roboto&quot;, sans-serif; white-space: pre;" transform="translate(10, 22)" font-size="20px" font-family="'Roboto', sans-serif"><tspan x="2" y="12" dominant-baseline="ideographic">Flux/ArgoCD</tspan></text></g></g></g><g id="g-root-ic_2_4otu7w123hzig-fill" data-item-order="4000000000" transform="translate(294, 384.2490234375)"></g><g id="g-root-tx_cipipeli_htf4n0123gm4l-fill" data-item-order="4000000000" transform="translate(137, 340.251953125)"><g id="tx_cipipeli_htf4n0123gm4l-fill-merged" stroke="none" fill="#ffffff" fill-opacity="1"><g><text style="font: 20px &quot;Roboto&quot;, sans-serif; white-space: pre;" transform="translate(10, 22)" font-size="20px" font-family="'Roboto', sans-serif"><tspan x="2" y="12" dominant-baseline="ideographic">CI Pipeline</tspan></text></g></g></g><g id="g-root-tx_kubernet_1haqam4122ybke-fill" data-item-order="4000000000" transform="translate(308.25, 596.75)"><g id="tx_kubernet_1haqam4122ybke-fill-merged" stroke="none" fill="#1ac3fb" fill-opacity="1"><g><text style="font: 20px &quot;Roboto&quot;, sans-serif; white-space: pre;" transform="translate(10, 22)" font-size="20px" font-family="'Roboto', sans-serif"><tspan x="2" y="12" dominant-baseline="ideographic">PolicyDomain CRD</tspan></text></g></g></g><g id="g-root-ic_2_8yelh8123gjri-fill" data-item-order="4000000000" transform="translate(101, 337.251953125)"></g><g id="g-root-ic_hier_1cuwsho122yccn-fill" data-item-order="4000000000" transform="translate(272.25, 593.75)"></g><g id="g-root-tx_gitrepos_dg3iv0123f4le-fill" data-item-order="4000000000" transform="translate(225, 120.75)"><g id="tx_gitrepos_dg3iv0123f4le-fill-merged" stroke="none" fill="#ffffff" fill-opacity="1"><g><text style="font: 20px &quot;Roboto&quot;, sans-serif; white-space: pre;" transform="translate(10, 46)" font-size="20px" font-family="'Roboto', sans-serif"><tspan x="2" y="-12" dominant-baseline="ideographic">PolicyDomain</tspan><tspan x="2" y="12" dominant-baseline="ideographic">Git </tspan><tspan x="2" y="36" dominant-baseline="ideographic">Repository</tspan></text></g></g></g><g id="g-root-tx_magsho136zj0t-fill" data-item-order="4000000000" transform="translate(112.25, 596.75)"><g id="tx_magsho136zj0t-fill-merged" stroke="none" fill="#1fa9d7" fill-opacity="1"><g><text style="font: 20px &quot;Roboto&quot;, sans-serif; white-space: pre;" transform="translate(64, 22)" font-size="20px" font-family="'Roboto', sans-serif"><tspan x="-48.68" y="12" dominant-baseline="ideographic">ConfigMap</tspan></text></g></g></g><g id="g-root-ic_shar_dg3iv0123f4lf-fill" data-item-order="4000000000" transform="translate(189, 141.75)"></g><g id="g-root-ic_lock_8ydjkc10pd0cg-fill" data-item-order="4000000000" transform="translate(76.25, 593.75)"></g><g id="g-root-ro_4kgim4123f5e4-stroke" data-item-order="3000000000" transform="translate(177, 108.75)"><g id="ro_4kgim4123f5e4-stroke" fill="none" stroke-linecap="round" stroke-linejoin="round" stroke-miterlimit="4" stroke="#3bc482" stroke-width="2" stroke-opacity="1"><g><path d="M 22 10L 190 10C 190 10 202 10 202 22L 202 94C 202 94 202 106 190 106L 22 106C 22 106 10 106 10 94L 10 22C 10 22 10 10 22 10"></path></g></g></g><g id="g-root-ro_13zw664123i0at-stroke" data-item-order="3000000000" transform="translate(101, 420.251953125)"><g id="ro_13zw664123i0at-stroke" fill="none" stroke-linecap="round" stroke-linejoin="round" stroke-miterlimit="4" stroke="#4f91fc" stroke-width="2" stroke-opacity="1"><g><path d="M 22 10L 142 10C 142 10 154 10 154 22L 154 94C 154 94 154 106 142 106L 22 106C 22 106 10 106 10 94L 10 22C 10 22 10 10 22 10"></path></g></g></g><g id="g-root-tx_zog2u4119kkco-stroke" data-item-order="3000000000" transform="translate(197.00003051757812, 246.390625)"></g><g id="g-root-tx_1lxeue410pfsat-stroke" data-item-order="3000000000" transform="translate(306.25, 246.390625)"></g><g id="g-root-ro_4il3cs123gkjr-stroke" data-item-order="3000000000" transform="translate(89, 304.251953125)"><g id="ro_4il3cs123gkjr-stroke" fill="none" stroke-linecap="round" stroke-linejoin="round" stroke-miterlimit="4" stroke="#8769fd" stroke-width="2" stroke-opacity="1"><g><path d="M 22 10L 166 10C 166 10 178 10 178 22L 178 94C 178 94 178 106 166 106L 22 106C 22 106 10 106 10 94L 10 22C 10 22 10 10 22 10"></path></g></g></g><g id="g-root-ro_1cuwsho122ycco-stroke" data-item-order="3000000000" transform="translate(260.25, 569.75)"><g id="ro_1cuwsho122ycco-stroke" fill="none" stroke-linecap="round" stroke-linejoin="round" stroke-miterlimit="4" stroke="#1ac3fb" stroke-width="2" stroke-opacity="1"><g><path d="M 22 10L 238 10C 238 10 250 10 250 22L 250 64C 250 64 250 76 238 76L 22 76C 22 76 10 76 10 64L 10 22C 10 22 10 10 22 10"></path></g></g></g><g id="g-root-ro_1q7m2po12xfdop-stroke" data-item-order="3000000000" transform="translate(64.25, 569.75)"><g id="ro_1q7m2po12xfdop-stroke" fill="none" stroke-linecap="round" stroke-linejoin="round" stroke-miterlimit="4" stroke="#1ac3fb" stroke-width="2" stroke-opacity="1"><g><path d="M 22 10L 184 10C 184 10 196 10 196 22L 196 64C 196 64 196 76 184 76L 22 76C 22 76 10 76 10 64L 10 22C 10 22 10 10 22 10"></path></g></g></g><g id="g-root-ro_90c3g123i0ap-stroke" data-item-order="3000000000" transform="translate(282, 351.2490234375)"><g id="ro_90c3g123i0ap-stroke" fill="none" stroke-linecap="round" stroke-linejoin="round" stroke-miterlimit="4" stroke="#a6da37" stroke-width="2" stroke-opacity="1"><g><path d="M 22 10L 178 10C 178 10 190 10 190 22L 190 94C 190 94 190 106 178 106L 22 106C 22 106 10 106 10 94L 10 22C 10 22 10 10 22 10"></path></g></g></g><g id="g-root-tx_policydo_htf7ss122y9zi-stroke" data-item-order="3000000000" transform="translate(104.03887939453125, 38)"></g><g id="g-root-cu_m8m8u4122yccv-stroke" data-item-order="3000000002" transform="translate(273, 204.75)"><g id="cu_m8m8u4122yccv-stroke" fill="none" stroke-linecap="round" stroke-linejoin="round" stroke-miterlimit="4" stroke="#f4f4f4" stroke-width="2" stroke-opacity="1"><g><path d="M 10 10L 10 46.6L 10 83.2L 59.5 83.2L 109 83.2L 109 119.9L 109 154.5"></path><path d="M 102.5 148.5L 109 155L 115.5 148.5" stroke-dasharray="none"></path></g></g></g><g id="g-root-cu_m8m8u4122yccp-stroke" data-item-order="3000000002" transform="translate(173, 251.251953125)"><g id="cu_m8m8u4122yccp-stroke" fill="none" stroke-linecap="round" stroke-linejoin="round" stroke-miterlimit="4" stroke="#f4f4f4" stroke-width="2" stroke-opacity="1"><g><path d="M 110 10L 110 23.3L 110 36.5L 60 36.5L 10 36.5L 10 49.8L 10 61"></path><path d="M 3.5 55L 10 61.5L 16.5 55" stroke-dasharray="none"></path></g></g></g><g id="g-root-cn_8x5dukzlafpo-stroke" data-item-order="3000000002" transform="translate(157.25, 447.25)"><g id="cn_8x5dukzlafpo-stroke" fill="none" stroke-linecap="round" stroke-linejoin="round" stroke-miterlimit="4" stroke="#f4f4f4" stroke-width="2" stroke-opacity="1"><g><path d="M 224.8 9.999023L 224.8 57.399023L 224.8 104.799023L 117.4 104.799023L 10 104.799023L 10 118.599023L 10 130.499023"></path><path d="M 3.5 124.499023L 10 130.999023L 16.5 124.499023" stroke-dasharray="none"></path></g></g></g><g id="g-root-cu_m8m8u4122yccs-stroke" data-item-order="3000000002" transform="translate(173, 400.251953125)"><g id="cu_m8m8u4122yccs-stroke" fill="none" stroke-linecap="round" stroke-linejoin="round" stroke-miterlimit="4" stroke="#f4f4f4" stroke-width="2" stroke-opacity="1"><g><path d="M 10 10L 10 20L 10 28"></path><path d="M 3.5 22L 10 28.5L 16.5 22" stroke-dasharray="none"></path></g></g></g><g id="g-root-cu_htf7ss122y9zg-stroke" data-item-order="3000000002" transform="translate(173, 516.251953125)"><g id="cu_htf7ss122y9zg-stroke" fill="none" stroke-linecap="round" stroke-linejoin="round" stroke-miterlimit="4" stroke="#f4f4f4" stroke-width="2" stroke-opacity="1"><g><path d="M 10 10L 10 23.4L 10 36.7L 113.6 36.7L 217.3 36.7L 217.3 50.1L 217.3 61.5"></path><path d="M 210.8 55.5L 217.2 62L 223.7 55.5" stroke-dasharray="none"></path></g></g></g><g id="g-root-cu_qofqyk122ycch-stroke" data-item-order="3000000002" transform="translate(372, 447.25)"><g id="cu_qofqyk122ycch-stroke" fill="none" stroke-linecap="round" stroke-linejoin="round" stroke-miterlimit="4" stroke="#f4f4f4" stroke-width="2" stroke-opacity="1"><g><path d="M 10 9.999023L 10 57.399023L 10 104.799023L 14.1 104.799023L 18.3 104.799023L 18.3 118.599023L 18.3 130.499023"></path><path d="M 11.8 124.499023L 18.2 130.999023L 24.7 124.499023" stroke-dasharray="none"></path></g></g></g><g id="g-root-tx_kubectla_18fpoak123hzij-stroke" data-item-order="4000000000" transform="translate(149, 444.251953125)"></g><g id="g-root-ic_nail_18fpoak123hzik-stroke" data-item-order="4000000000" transform="translate(113, 453.251953125)"><g id="ic_nail_18fpoak123hzik-stroke" fill="none" stroke-linecap="round" stroke-linejoin="round" stroke-miterlimit="4" stroke="#4f91fc" stroke-width="2" stroke-opacity="1"><g><path d="M 10 10M 10.625 25.835001L 17.8925 18.56625L 21.428749 22.102501L 10.625 32.90625M 29.85375 17.23625L 32.5 19.88125L 27.196251 25.184999L 24.55125 22.53875ZM 10 10M 27.616251 15.915L 24.522499 12.82125C 21.593466 9.891719 16.844034 9.891719 13.915 12.82125L 12.9 13.83625C 12.715115 14.021218 12.664943 14.301742 12.774255 14.539328C 12.883566 14.776914 13.129245 14.921318 13.389999 14.90125L 14.014999 14.85375C 15.091503 14.771556 16.173025 14.923805 17.184999 15.3C 17.81876 15.535921 18.288944 16.078079 18.432831 16.73884C 18.576715 17.399603 18.374533 18.088175 17.89625 18.56625L 21.428749 22.102501C 22.407879 21.12376 23.992525 21.115953 24.981249 22.085001L 24.987499 22.091251L 29.40625 17.672501ZM 39.375 33.125C 39.375 33.815353 38.815353 34.375 38.125 34.375L 34.375 34.375C 33.684647 34.375 33.125 33.815353 33.125 33.125C 33.125 32.434647 33.684647 31.875 34.375 31.875L 38.125 31.875C 38.815353 31.875 39.375 32.434647 39.375 33.125ZM 36.25 34.375L 36.25 39.375"></path></g></g></g><g id="g-root-tx_gitopsop_4otu7w123hzif-stroke" data-item-order="4000000000" transform="translate(330, 387.2490234375)"></g><g id="g-root-ic_2_4otu7w123hzig-stroke" data-item-order="4000000000" transform="translate(294, 384.2490234375)"><g id="ic_2_4otu7w123hzig-stroke" fill="none" stroke-linecap="round" stroke-linejoin="round" stroke-miterlimit="4" stroke="#a6da37" stroke-width="2" stroke-opacity="1"><g><path d="M 10.69125 39.09375L 10.69125 24.71875C 10.69125 23.338037 11.810538 22.21875 13.19125 22.21875L 22.875 22.21875C 24.255713 22.21875 25.375 23.338037 25.375 24.71875L 25.375 39.09375M 10.69125 30.65625L 25.37875 30.65625M 14.54125 22.21875L 13.76375 18.15625M 14.75375 26.59375C 14.75375 26.76634 14.893661 26.90625 15.06625 26.90625C 15.238839 26.90625 15.37875 26.76634 15.37875 26.59375C 15.37875 26.421162 15.238839 26.28125 15.06625 26.28125C 14.893661 26.28125 14.75375 26.421162 14.75375 26.59375M 20.37875 26.59375C 20.37875 26.76634 20.518661 26.90625 20.69125 26.90625C 20.86384 26.90625 21.00375 26.76634 21.00375 26.59375C 21.00375 26.421162 20.86384 26.28125 20.69125 26.28125C 20.518661 26.28125 20.37875 26.421162 20.37875 26.59375M 31.1675 10.90625C 28.986177 11.617929 27.428364 13.547194 27.192163 15.829488C 26.955961 18.11178 28.085655 20.319185 30.074999 21.4625C 31.894503 22.4401 34.083 22.4401 35.9025 21.4625C 37.891842 20.319185 39.021538 18.11178 38.785336 15.829488C 38.549133 13.547194 36.991322 11.617929 34.809998 10.90625L 34.809998 15.71375C 34.810001 16.719599 33.994602 17.535 32.98875 17.535C 31.982903 17.535 31.1675 16.719599 31.1675 15.71375L 31.1675 10.90625M 30.67375 36.35125C 30.357071 36.446301 30.018454 36.438866 29.706251 36.330002L 25.375 34.8125M 25.37875 31.455L 30.675001 33.357502M 31.435001 32.5975C 31.390797 32.444031 31.37056 32.284653 31.375 32.125L 31.467499 22M 34.592499 21.973751L 34.5 32.162498C 34.497993 32.309853 34.4757 32.45623 34.43375 32.5975M 30.223751 34.855C 30.223749 36.350311 31.435938 37.5625 32.931248 37.5625C 34.426559 37.5625 35.638748 36.350311 35.638748 34.855C 35.638748 33.359688 34.426559 32.147499 32.931248 32.147499C 31.435938 32.147499 30.223749 33.359688 30.223749 34.855M 14.385 39.09375L 14.385 33.982502L 21.684999 33.982502L 21.684999 39.09375M 14.385 37.075001L 21.684999 37.075001M 11.783751 16.55125C 11.783679 17.457737 12.518513 18.192627 13.425 18.192627C 14.331487 18.192627 15.06632 17.457737 15.06625 16.55125C 15.06632 15.644762 14.331487 14.909872 13.425 14.909872C 12.518513 14.909872 11.783679 15.644762 11.78375 16.55125M 21.40625 22.21875L 22.18375 18.15625M 20.88125 16.55125C 20.88118 17.457737 21.616013 18.192627 22.522499 18.192627C 23.428988 18.192627 24.16382 17.457737 24.16375 16.55125C 24.16382 15.644762 23.428988 14.909872 22.522499 14.909872C 21.616013 14.909872 20.88118 15.644762 20.88125 16.55125"></path></g></g></g><g id="g-root-tx_cipipeli_htf4n0123gm4l-stroke" data-item-order="4000000000" transform="translate(137, 340.251953125)"></g><g id="g-root-tx_kubernet_1haqam4122ybke-stroke" data-item-order="4000000000" transform="translate(308.25, 596.75)"></g><g id="g-root-ic_2_8yelh8123gjri-stroke" data-item-order="4000000000" transform="translate(101, 337.251953125)"><g id="ic_2_8yelh8123gjri-stroke" fill="none" stroke-linecap="round" stroke-linejoin="round" stroke-miterlimit="4" stroke="#8769fd" stroke-width="2" stroke-opacity="1"><g><path d="M 39.0625 35.893749C 39.0625 37.61964 37.663391 39.018749 35.9375 39.018749L 14.0625 39.018749C 12.33661 39.018749 10.9375 37.61964 10.9375 35.893749C 10.9375 34.167858 12.33661 32.768749 14.0625 32.768749L 35.9375 32.768749C 37.663391 32.768749 39.0625 34.167858 39.0625 35.893749ZM 15 26.3125L 20.875 26.3125C 21.565357 26.3125 22.125 26.872143 22.125 27.5625L 22.125 32.77L 22.125 32.77L 13.75 32.77L 13.75 32.77L 13.75 27.5625C 13.75 26.872143 14.309644 26.3125 15 26.3125ZM 28.462502 26.3125L 34.337498 26.3125C 35.027855 26.3125 35.587498 26.872143 35.587498 27.5625L 35.587498 32.77L 35.587498 32.77L 27.212502 32.77L 27.212502 32.77L 27.212502 27.5625C 27.212502 26.872143 27.772144 26.3125 28.462502 26.3125ZM 15 35.893749C 15 36.23893 15.279821 36.518749 15.625 36.518749C 15.970179 36.518749 16.25 36.23893 16.25 35.893749C 16.25 35.548573 15.970179 35.268749 15.625 35.268749C 15.279821 35.268749 15 35.548573 15 35.893749M 21.25 35.893749C 21.25 36.23893 21.529823 36.518749 21.875 36.518749C 22.220177 36.518749 22.5 36.23893 22.5 35.893749C 22.5 35.548573 22.220177 35.268749 21.875 35.268749C 21.529823 35.268749 21.25 35.548573 21.25 35.893749M 27.5525 35.893749C 27.5525 36.23893 27.832321 36.518749 28.1775 36.518749C 28.522678 36.518749 28.8025 36.23893 28.8025 35.893749C 28.8025 35.548573 28.522678 35.268749 28.1775 35.268749C 27.832321 35.268749 27.5525 35.548573 27.5525 35.893749M 33.802498 35.893749C 33.802498 36.23893 34.082321 36.518749 34.427498 36.518749C 34.772678 36.518749 35.052498 36.23893 35.052498 35.893749C 35.052498 35.548573 34.772678 35.268749 34.427498 35.268749C 34.082321 35.268749 33.802498 35.548573 33.802498 35.893749M 35.875 19.875L 26.72875 19.875C 25.562508 19.875328 24.616905 18.929993 24.616905 17.76375C 24.616905 16.597506 25.562508 15.652172 26.728748 15.6525L 35.875 15.6525M 33.766251 17.76375C 33.765923 18.929993 34.711258 19.875593 35.877499 19.875593C 37.043743 19.875593 37.989079 18.929993 37.988747 17.76375C 37.989079 16.597506 37.043743 15.651905 35.877499 15.651905C 34.711258 15.651905 33.765923 16.597506 33.766247 17.76375M 34.822498 10.98125L 37.285 16.190001M 33.436249 15.6525L 31.3025 10.98125M 21.0975 17.76375L 24.616249 17.76375M 16.875 15.6525L 21.0975 15.6525L 21.0975 19.875L 16.875 19.875ZM 18.98625 19.875L 18.98625 23.393749"></path></g></g></g><g id="g-root-ic_hier_1cuwsho122yccn-stroke" data-item-order="4000000000" transform="translate(272.25, 593.75)"><g id="ic_hier_1cuwsho122yccn-stroke" fill="none" stroke-linecap="round" stroke-linejoin="round" stroke-miterlimit="4" stroke="#1ac3fb" stroke-width="2" stroke-opacity="1"><g><path d="M 19.6875 22.346188L 30.3125 22.346188M 19.6875 26.264626L 30.3125 26.264626M 19.6875 30.378437L 27.1875 30.378437M 34.348812 17.727125L 28.123688 11.688944C 27.723688 11.300969 27.188375 11.083987 26.631124 11.083987L 17.143749 11.083987C 15.959787 11.083987 15 12.043775 15 13.227737L 15 36.774124C 15 37.958061 15.959787 38.917877 17.143749 38.917877L 32.856251 38.917877C 34.040188 38.917877 35 37.958061 35 36.774124L 35 19.265938C 35 18.686001 34.76506 18.130875 34.348812 17.727125ZM 27.8125 11.398925L 27.8125 16.529938C 27.8125 17.713875 28.772312 18.673687 29.956249 18.673687L 35 18.673687"></path></g></g></g><g id="g-root-tx_gitrepos_dg3iv0123f4le-stroke" data-item-order="4000000000" transform="translate(225, 120.75)"></g><g id="g-root-tx_magsho136zj0t-stroke" data-item-order="4000000000" transform="translate(112.25, 596.75)"></g><g id="g-root-ic_shar_dg3iv0123f4lf-stroke" data-item-order="4000000000" transform="translate(189, 141.75)"><g id="ic_shar_dg3iv0123f4lf-stroke" fill="none" stroke-linecap="round" stroke-linejoin="round" stroke-miterlimit="4" stroke="#3bc482" stroke-width="2" stroke-opacity="1"><g><path d="M 14.375 13.125L 34.375 13.125M 21.875 39.375L 14.375 39.375C 12.994288 39.375 11.875 38.255714 11.875 36.875L 11.875 13.125M 35.625 10.625L 14.375 10.625C 12.994288 10.625 11.875 11.744288 11.875 13.125C 11.875 14.505712 12.994288 15.625 14.375 15.625L 34.375 15.625C 35.065353 15.625 35.625 16.184645 35.625 16.875L 35.625 21.25M 23.12125 32.8125C 23.12125 34.365803 24.380449 35.625 25.93375 35.625C 27.487051 35.625 28.74625 34.365803 28.74625 32.8125C 28.74625 31.259197 27.487051 30 25.93375 30C 24.380449 30 23.12125 31.259197 23.12125 32.8125ZM 32.49625 36.5625C 32.49625 38.115803 33.755451 39.375 35.30875 39.375C 36.862053 39.375 38.12125 38.115803 38.12125 36.5625C 38.12125 35.009197 36.862053 33.75 35.30875 33.75C 33.755451 33.75 32.49625 35.009197 32.49625 36.5625ZM 32.49625 27.1875C 32.49625 28.740801 33.755451 30 35.30875 30C 36.862053 30 38.12125 28.740801 38.12125 27.1875C 38.12125 25.634199 36.862053 24.375 35.30875 24.375C 33.755451 24.375 32.49625 25.634199 32.49625 27.1875ZM 28.34 31.36875L 32.9025 28.63125M 28.543751 33.856247L 32.69875 35.518753"></path></g></g></g><g id="g-root-ic_lock_8ydjkc10pd0cg-stroke" data-item-order="4000000000" transform="translate(76.25, 593.75)"><g id="ic_lock_8ydjkc10pd0cg-stroke" fill="none" stroke-linecap="round" stroke-linejoin="round" stroke-miterlimit="4" stroke="#1fa9d7" stroke-width="2" stroke-opacity="1"><g><path d="M 19.6875 22.346189L 30.312502 22.346189M 19.6875 26.264626L 30.312502 26.264626M 19.6875 30.378439L 27.187502 30.378439M 34.348816 17.727125L 28.12369 11.688944C 27.72369 11.300969 27.188377 11.083987 26.631126 11.083987L 17.143751 11.083987C 15.959788 11.083987 15 12.043776 15 13.227737L 15 36.774128C 15 37.958065 15.959788 38.917877 17.143751 38.917877L 32.856251 38.917877C 34.040188 38.917877 35.000004 37.958065 35.000004 36.774128L 35.000004 19.265938C 35.000004 18.686001 34.765064 18.130877 34.348816 17.727125ZM 27.812502 11.398925L 27.812502 16.529938C 27.812502 17.713877 28.772314 18.673689 29.956251 18.673689L 35.000004 18.673689"></path></g></g></g></g></g><path id="w4pf69812derk4" d="M65.283 12.757a.35.35 0 0 0 .584.157l5.203-5.141-6.183 3.523.396 1.461zm-2.216-11.7a.35.35 0 0 0-.522.305v3.111l3.276-1.868-2.754-1.548zm3.728 2.105l-4.25 2.421v2.445l6.391-3.644-2.141-1.222zm4.708 3.303a.35.35 0 0 0 0-.609l-1.592-.9-7.365 4.199v1.782a.35.35 0 0 0 .523.305l8.435-4.777z M44.542 2.513c0-.433.355-.783.792-.783s.792.35.792.783-.355.783-.792.783-.792-.35-.792-.783zm59.171 0c0-.433.355-.783.792-.783s.792.35.792.783-.355.783-.792.783-.792-.35-.792-.783zm-85.951 7.636h-1.27v-.487c-.276.201-.864.609-1.881.609-1.202 0-2.274-.794-2.137-2.078.118-1.106 1.153-1.584 1.848-1.727l2.17-.345c0-.539-.29-.956-1.064-1.006s-1.21.305-1.571 1.017l-1.124-.605c1.218-2.631 5.029-1.764 5.029.414v4.207zm-1.27-2.86c.006.396-.062 1.112-.819 1.59-.587.37-1.841.299-1.903-.395-.049-.555.461-.791.906-.898l1.816-.297zm72.662 2.86h-1.27v-.487c-.276.201-.864.609-1.881.609-1.202 0-2.274-.794-2.137-2.078.118-1.106 1.153-1.584 1.848-1.727l2.17-.345c0-.539-.29-.956-1.064-1.006s-1.21.305-1.571 1.017l-1.124-.605c1.218-2.631 5.029-1.764 5.029.414v4.207zm-1.27-2.86c.006.396-.062 1.112-.82 1.59-.587.37-1.841.299-1.903-.395-.049-.555.461-.791.906-.898l1.816-.297zM99.096 10.149H97.85v-8.45h1.246v4.895l2.68-2.559h1.738l-2.633 2.535 2.715 3.578h-1.556l-2.077-2.707-.867.844v1.863zm6.053-6.114h-1.255v6.113h1.255V4.035zm-59.2 0h-1.255v6.113h1.255V4.035zm5.584 6.113V1.697h1.255v2.695c.361-.346 1-.485 1.47-.485 1.452 0 2.477 1.082 2.457 2.448v3.792h-1.27v-3.68c0-.408-.214-1.339-1.315-1.339-.968 0-1.342.756-1.342 1.339v3.681h-1.255zm-4.76-4.894V4.039h.621a.45.45 0 0 0 .45-.45v-.855h1.251v1.305h1.309v1.215h-1.309v3.109c0 .293.105.664.648.664.365 0 .531-.035.736-.07v1.137s-.361.113-.857.113c-1.398 0-1.777-1.051-1.777-1.788V5.254h-1.071zM36.528 4.039h-1.394l2.191 6.106h1.125l1.234-3.918 1.238 3.918h1.129l2.188-6.106h-1.383l-1.359 3.93-1.256-3.93h-1.124l-1.242 3.957-1.348-3.957zM26.212 7.141c-.02 1.566 1.187 3.129 3.223 3.129 1.566 0 2.383-.918 2.734-1.719L31.172 8c-.315.399-.801 1.094-1.738 1.094-1.145 0-1.825-.781-1.891-1.52h4.625c.074-.284.148-.995-.03-1.559-.336-1.064-1.221-2.102-2.839-2.102s-3.088 1.152-3.088 3.227zm1.363-.75h3.348c-.055-.43-.566-1.301-1.623-1.301a1.79 1.79 0 0 0-1.725 1.301zm-8.758.75c.038 1.758 1.277 3.133 3.145 3.133 1.074 0 1.723-.477 1.961-.672v.547h1.242V1.703h-1.258v2.888c-.414-.36-1.062-.68-1.93-.68-1.91 0-3.198 1.473-3.16 3.23zm1.309-.08c0 1.119.723 1.978 1.836 1.978a1.88 1.88 0 0 0 1.94-1.904c0-1.371-1.011-1.99-1.972-1.99s-1.805.798-1.805 1.916zm76.683-.028C96.771 5.275 95.532 3.9 93.664 3.9c-1.074 0-1.723.477-1.961.672v-.547h-1.242v8.22h1.258V9.583c.414.36 1.063.68 1.93.68 1.91 0 3.198-1.473 3.16-3.23zm-1.309.08c0-1.119-.723-1.978-1.836-1.978a1.88 1.88 0 0 0-1.94 1.904c0 1.371 1.011 1.99 1.972 1.99S95.5 8.231 95.5 7.113zM106.441 10.173V4.036h1.254v.382c.361-.346 1-.485 1.47-.485 1.452 0 2.477 1.082 2.457 2.448v3.792h-1.27V6.492c0-.408-.214-1.339-1.315-1.339-.969 0-1.342.756-1.342 1.339v3.681h-1.254zm-30.383-.021V1.824h1.084l4.215 5.777V1.824h1.32v8.328h-1.094l-4.207-5.796v5.796h-1.319zM5.24 10.149H4V2.377h1.014l2.664 3.597 2.654-3.592h1.03v7.766h-1.256V4.762L7.678 8.068 5.24 4.742v5.407z" transform="translate(419.8287353515625, 670.9990234375)" fill="#ababab88" stroke="none"></path></svg>