<?xml version="1.0" encoding="utf-8" standalone="yes"?>
<!DOCTYPE svg PUBLIC "-//W3C//DTD SVG 1.1//EN" "http://www.w3.org/Graphics/SVG/1.1/DTD/svg11.dtd">
<svg style="fill:none;stroke:none;fill-rule:evenodd;clip-rule:evenodd;stroke-linecap:round;stroke-linejoin:round;stroke-miterlimit:1.5;" version="1.1" xmlns="http://www.w3.org/2000/svg" xmlns:xlink="http://www.w3.org/1999/xlink" width="876" height="726" viewBox="0 0 876 726"><style class="text-font-style fontImports" data-font-family="Roboto">@import url(https://fonts.googleapis.com/css2?family=Roboto:wght@400;700&amp;amp;display=block);</style><g id="items" style="isolation: isolate"><g id="blend" style="mix-blend-mode: normal"><g id="g-root-cp_5_g-5_qtercq119f09a-fill" data-item-order="-521623" transform="translate(152, 122.00006103515625)"></g><g id="g-root-cp_1_g-1_me7qbe119exvr-fill" data-item-order="-521557" transform="translate(500, 152.00006103515625)"></g><g id="g-root-cp_4_g-4_92r7y2119ezgo-fill" data-item-order="-521489" transform="translate(50, 308)"></g><g id="g-root-cp_-1_parent-5-part_4mxptm119f08x-fill" data-item-order="-521427" transform="translate(314, 353)"></g><g id="g-root-cp_2_g-2_4mxptm119f08y-fill" data-item-order="-521367" transform="translate(590, 323)"></g><g id="g-root-cp_3_g-3_4mxptm119f08z-fill" data-item-order="-521299" transform="translate(326, 494)"></g><g id="g-root-he_1userju119f0ul-fill" data-item-order="-521237" transform="translate(476, 176)"></g><g id="g-root-he_1userju119f0un-fill" data-item-order="-521235" transform="translate(512, 200.00006103515625)"></g><g id="g-root-he_7qosa119exvl-fill" data-item-order="-521233" transform="translate(542, 347)"></g><g id="g-root-he_1qd7qii119eyh7-fill" data-item-order="-521231" transform="translate(602, 371)"></g><g id="g-root-he_1qd7qii119eyh9-fill" data-item-order="-521229" transform="translate(428, 413)"></g><g id="g-root-he_1qd7qii119eyhb-fill" data-item-order="-521227" transform="translate(338, 542)"></g><g id="g-root-he_1ut18my119eygx-fill" data-item-order="-521225" transform="translate(266, 332)"></g><g id="g-root-he_1ut18my119eygz-fill" data-item-order="-521223" transform="translate(242, 356)"></g><g id="g-root-he_1ut18my119eyh1-fill" data-item-order="-521221" transform="translate(356, 146)"></g><g id="g-root-he_1lxe8e2119ez9r-fill" data-item-order="-521219" transform="translate(332, 194.00006103515625)"></g><g id="g-root-tx_indirect_zqx6uy119ez9j-fill" data-item-order="0" transform="translate(62, 320)"><g id="tx_indirect_zqx6uy119ez9j-fill-merged" stroke="none" fill="#faeeff" fill-opacity="1"><g><text style="font: 20px &quot;Roboto&quot;, sans-serif; white-space: pre;" transform="translate(202, 22)" font-size="20px" font-family="'Roboto', sans-serif"><tspan x="-180.38" y="12" dominant-baseline="ideographic">Indirect Assignment</tspan></text></g></g></g><g id="g-root-tx_policyse_146qoze119eyha-fill" data-item-order="0" transform="translate(536, 242)"><g id="tx_policyse_146qoze119eyha-fill-merged" stroke="none" fill="#f4f4f4" fill-opacity="1"><g><text style="font: 20px &quot;Roboto&quot;, sans-serif; white-space: pre;" transform="translate(10, 22)" font-size="20px" font-family="'Roboto', sans-serif"><tspan x="2" y="12" dominant-baseline="ideographic">Policy Selection</tspan></text></g></g></g><g id="g-root-tx_grouprol_146qoze119eyh7-fill" data-item-order="0" transform="translate(200, 242)"><g id="tx_grouprol_146qoze119eyh7-fill-merged" stroke="none" fill="#f4f4f4" fill-opacity="1"><g><text style="font: 20px &quot;Roboto&quot;, sans-serif; white-space: pre;" transform="translate(130, 22)" font-size="20px" font-family="'Roboto', sans-serif"><tspan x="-110.33" y="12" dominant-baseline="ideographic">Group Roles</tspan></text></g></g></g><g id="g-root-tx_inherita_vb3oqi119f01v-fill" data-item-order="0" transform="translate(602, 335)"><g id="tx_inherita_vb3oqi119f01v-fill-merged" stroke="none" fill="#ffe9e8" fill-opacity="1"><g><text style="font: 20px &quot;Roboto&quot;, sans-serif; white-space: pre;" transform="translate(10, 22)" font-size="20px" font-family="'Roboto', sans-serif"><tspan x="2" y="12" dominant-baseline="ideographic">Inheritance</tspan></text></g></g></g><g id="g-root-tx_roles_146qoze119eyh9-fill" data-item-order="0" transform="translate(536, 206.00006103515625)"><g id="tx_roles_146qoze119eyh9-fill-merged" stroke="none" fill="#f4f4f4" fill-opacity="1"><g><text style="font: 20px &quot;Roboto&quot;, sans-serif; white-space: pre;" transform="translate(10, 22)" font-size="20px" font-family="'Roboto', sans-serif"><tspan x="2" y="12" dominant-baseline="ideographic">Roles</tspan></text></g></g></g><g id="g-root-tx_groups_vb3oqi119f01u-fill" data-item-order="0" transform="translate(380, 365)"><g id="tx_groups_vb3oqi119f01u-fill-merged" stroke="none" fill="#b7b7b7" fill-opacity="1"><g><text style="font: 25px &quot;Roboto&quot;, sans-serif; white-space: pre;" transform="translate(58, 28)" font-size="25px" font-family="'Roboto', sans-serif"><tspan x="-40.12" y="15" dominant-baseline="ideographic">Groups</tspan></text></g></g></g><g id="g-root-tx_directro_1d1r856119f0ua-fill" data-item-order="0" transform="translate(200, 206.00006103515625)"><g id="tx_directro_1d1r856119f0ua-fill-merged" stroke="none" fill="#f4f4f4" fill-opacity="1"><g><text style="font: 20px &quot;Roboto&quot;, sans-serif; white-space: pre;" transform="translate(130, 22)" font-size="20px" font-family="'Roboto', sans-serif"><tspan x="-108.68" y="12" dominant-baseline="ideographic">Direct Roles</tspan></text></g></g></g><g id="g-root-tx_principa_mfgohm119f0uk-fill" data-item-order="0" transform="translate(626, 377)"><g id="tx_principa_mfgohm119f0uk-fill-merged" stroke="none" fill="#f4f4f4" fill-opacity="1"><g><text style="font: 20px &quot;Roboto&quot;, sans-serif; white-space: pre;" transform="translate(10, 22)" font-size="20px" font-family="'Roboto', sans-serif"><tspan x="2" y="12" dominant-baseline="ideographic">Principals</tspan></text></g></g></g><g id="g-root-tx_roleaggr_146qoze119eyh8-fill" data-item-order="0" transform="translate(512, 164.00006103515625)"><g id="tx_roleaggr_146qoze119eyh8-fill-merged" stroke="none" fill="#fff0e2" fill-opacity="1"><g><text style="font: 20px &quot;Roboto&quot;, sans-serif; white-space: pre;" transform="translate(10, 22)" font-size="20px" font-family="'Roboto', sans-serif"><tspan x="2" y="12" dominant-baseline="ideographic">Role Aggregation</tspan></text></g></g></g><g id="g-root-tx_identity_vb3oqi119f01t-fill" data-item-order="0" transform="translate(98, 404)"><g id="tx_identity_vb3oqi119f01t-fill-merged" stroke="none" fill="#f4f4f4" fill-opacity="1"><g><text style="font: 20px &quot;Roboto&quot;, sans-serif; white-space: pre;" transform="translate(142, 34)" font-size="20px" font-family="'Roboto', sans-serif"><tspan x="-67.8" y="0" dominant-baseline="ideographic">Identity </tspan><tspan x="-119.85" y="24" dominant-baseline="ideographic">Management</tspan></text></g></g></g><g id="g-root-tx_roleinhe_mfgohm119f0ul-fill" data-item-order="0" transform="translate(626, 413)"><g id="tx_roleinhe_mfgohm119f0ul-fill-merged" stroke="none" fill="#f4f4f4" fill-opacity="1"><g><text style="font: 20px &quot;Roboto&quot;, sans-serif; white-space: pre;" transform="translate(10, 22)" font-size="20px" font-family="'Roboto', sans-serif"><tspan x="2" y="12" dominant-baseline="ideographic">Role Inheritance</tspan></text></g></g></g><g id="g-root-tx_policypa_i09nga119eyh4-fill" data-item-order="0" transform="translate(362, 590)"><g id="tx_policypa_i09nga119eyh4-fill-merged" stroke="none" fill="#f4f4f4" fill-opacity="1"><g><text style="font: 20px &quot;Roboto&quot;, sans-serif; white-space: pre;" transform="translate(10, 34)" font-size="20px" font-family="'Roboto', sans-serif"><tspan x="2" y="0" dominant-baseline="ideographic">Policy </tspan><tspan x="2" y="24" dominant-baseline="ideographic">Parameterization</tspan></text></g></g></g><g id="g-root-tx_annotati_mfgohm119f0um-fill" data-item-order="0" transform="translate(338, 506)"><g id="tx_annotati_mfgohm119f0um-fill-merged" stroke="none" fill="#ffffff" fill-opacity="1"><g><text style="font: 20px &quot;Roboto&quot;, sans-serif; white-space: pre;" transform="translate(10, 22)" font-size="20px" font-family="'Roboto', sans-serif"><tspan x="2" y="12" dominant-baseline="ideographic">Annotation-Enabled</tspan></text></g></g></g><g id="g-root-tx_compleme_1d1r856119f0u9-fill" data-item-order="0" transform="translate(164, 134.00006103515625)"><g id="tx_compleme_1d1r856119f0u9-fill-merged" stroke="none" fill="#f1eeff" fill-opacity="1"><g><text style="font: 20px &quot;Roboto&quot;, sans-serif; white-space: pre;" transform="translate(190, 34)" font-size="20px" font-family="'Roboto', sans-serif"><tspan x="-166.4" y="0" dominant-baseline="ideographic">Complementary to </tspan><tspan x="-108.68" y="24" dominant-baseline="ideographic">Direct Roles</tspan></text></g></g></g><g id="g-root-tx_annotati_i09nga119eyh3-fill" data-item-order="0" transform="translate(362, 554)"><g id="tx_annotati_i09nga119eyh3-fill-merged" stroke="none" fill="#f4f4f4" fill-opacity="1"><g><text style="font: 20px &quot;Roboto&quot;, sans-serif; white-space: pre;" transform="translate(10, 22)" font-size="20px" font-family="'Roboto', sans-serif"><tspan x="2" y="12" dominant-baseline="ideographic">Annotations</tspan></text></g></g></g><g id="g-root-tx_groupide_1qd7qii119ez9c-fill" data-item-order="0" transform="translate(92, 38.00006103515625)"><g id="tx_groupide_1qd7qii119ez9c-fill-merged" stroke="none" fill="#f4f4f4" fill-opacity="1"><g><text style="font: bold 25px &quot;Roboto&quot;, sans-serif; white-space: pre;" transform="translate(346, 28)" font-weight="bold" font-size="25px" font-family="'Roboto', sans-serif"><tspan x="-328.76" y="15" dominant-baseline="ideographic">Group Identity Management: Concepts and Characteristics</tspan></text></g></g></g><g id="g-root-tx_jwtclaim_zqx6uy119ez9k-fill" data-item-order="0" transform="translate(122, 368)"><g id="tx_jwtclaim_zqx6uy119ez9k-fill-merged" stroke="none" fill="#f4f4f4" fill-opacity="1"><g><text style="font: 20px &quot;Roboto&quot;, sans-serif; white-space: pre;" transform="translate(118, 22)" font-size="20px" font-family="'Roboto', sans-serif"><tspan x="-98.98" y="12" dominant-baseline="ideographic">JWT Claim</tspan></text></g></g></g><g id="g-root-cp_5_g-5_qtercq119f09a-stroke" data-item-order="-521623" transform="translate(152, 122.00006103515625)"><g id="cp_5_g-5_qtercq119f09a-stroke" fill="none" stroke-linecap="round" stroke-linejoin="round" stroke-miterlimit="4" stroke="#8769fd" stroke-width="2" stroke-opacity="1"><g><path d="M 16 10C 12.6863 10 10 12.6863 10 16M 16 10L 208 10M 208 10C 211.3137 10 214 12.6863 214 16M 214 76L 214 16M 10 76L 10 16M 10 76C 10 79.3137 12.6863 82 16 82M 208 82L 16 82M 208 82C 211.3137 82 214 79.3137 214 76"></path></g></g></g><g id="g-root-cp_1_g-1_me7qbe119exvr-stroke" data-item-order="-521557" transform="translate(500, 152.00006103515625)"><g id="cp_1_g-1_me7qbe119exvr-stroke" fill="none" stroke-linecap="round" stroke-linejoin="round" stroke-miterlimit="4" stroke="#a6da37" stroke-width="2" stroke-opacity="1"><g><path d="M 196 10C 199.3137 10 202 12.6863 202 16M 196 10L 16 10M 16 10C 12.6863 10 10 12.6863 10 16M 10 52L 10 16M 202 52L 202 16M 202 52C 202 55.3137 199.3137 58 196 58M 16 58L 196 58M 16 58C 12.6863 58 10 55.3137 10 52"></path></g></g></g><g id="g-root-cp_4_g-4_92r7y2119ezgo-stroke" data-item-order="-521489" transform="translate(50, 308)"><g id="cp_4_g-4_92r7y2119ezgo-stroke" fill="none" stroke-linecap="round" stroke-linejoin="round" stroke-miterlimit="4" stroke="#4f91fc" stroke-width="2" stroke-opacity="1"><g><path d="M 16 10C 12.6863 10 10 12.6863 10 16M 16 10L 220 10M 220 10C 223.3137 10 226 12.6863 226 16M 226 52L 226 16M 10 52L 10 16M 10 52C 10 55.3137 12.6863 58 16 58M 220 58L 16 58M 220 58C 223.3137 58 226 55.3137 226 52"></path></g></g></g><g id="g-root-cp_-1_parent-5-part_4mxptm119f08x-stroke" data-item-order="-521427" transform="translate(314, 353)"><g id="cp_-1_parent-5-part_4mxptm119f08x-stroke" fill="none" stroke-linecap="round" stroke-linejoin="round" stroke-miterlimit="4" stroke="#f4f4f4" stroke-width="2" stroke-opacity="1"><g><path d="M 16 10C 12.6863 10 10 12.6863 10 16M 16 10L 232 10M 232 10C 235.3137 10 238 12.6863 238 16M 238 64L 238 16M 10 64L 10 16M 10 64C 10 67.3137 12.6863 70 16 70M 232 70L 16 70M 232 70C 235.3137 70 238 67.3137 238 64"></path></g></g></g><g id="g-root-cp_2_g-2_4mxptm119f08y-stroke" data-item-order="-521367" transform="translate(590, 323)"><g id="cp_2_g-2_4mxptm119f08y-stroke" fill="none" stroke-linecap="round" stroke-linejoin="round" stroke-miterlimit="4" stroke="#43dd93" stroke-width="2" stroke-opacity="1"><g><path d="M 136 10C 139.3137 10 142 12.6863 142 16M 136.000008 10L 16 10M 16 10C 12.6863 10 10 12.6863 10 16M 10 52L 10 16M 142 52L 142 16M 142 52C 142 55.3137 139.3137 58 136 58M 16 58L 136.000008 58M 16 58C 12.6863 58 10 55.3137 10 52"></path></g></g></g><g id="g-root-cp_3_g-3_4mxptm119f08z-stroke" data-item-order="-521299" transform="translate(326, 494)"><g id="cp_3_g-3_4mxptm119f08z-stroke" fill="none" stroke-linecap="round" stroke-linejoin="round" stroke-miterlimit="4" stroke="#1ac3fb" stroke-width="2" stroke-opacity="1"><g><path d="M 208 10C 211.3137 10 214 12.6863 214 16M 208 10L 16 10M 16 10C 12.6863 10 10 12.6863 10 16M 10 52L 10 16M 214 52L 214 16M 214 52C 214 55.3137 211.3137 58 208 58M 16 58L 208 58M 16 58C 12.6863 58 10 55.3137 10 52"></path></g></g></g><g id="g-root-he_1userju119f0ul-stroke" data-item-order="-521237" transform="translate(476, 176)"><g id="he_1userju119f0ul-stroke" fill="none" stroke-linecap="round" stroke-linejoin="round" stroke-miterlimit="4" stroke="#f4f4f4" stroke-width="2" stroke-opacity="1"><style>.fillAsHole-mk-zs6bcq11j8yys { fill:#2C2C2C; }</style><g><path d="M 10 187.000061L 10 22.000061C 10 15.370061 15.37 10.000061 22 10.000061L 31 10.000061"></path><path d="M 31 10.000061C 31.000001 11.656915 32.343146 13.000061 34.000001 13.000061C 35.656855 13.000061 37.000001 11.656915 37.000001 10.000061C 37.000001 8.343207 35.656855 7.000061 34.000001 7.000061C 32.343146 7.000061 31.000001 8.343207 31.000001 10.000061Z" stroke-dasharray="none" class="fillAsHole-mk-zs6bcq11j8yys" fill="#2C2C2C"></path></g></g></g><g id="g-root-he_1userju119f0un-stroke" data-item-order="-521235" transform="translate(512, 200.00006103515625)"><g id="he_1userju119f0un-stroke" fill="none" stroke-linecap="round" stroke-linejoin="round" stroke-miterlimit="4" stroke="#f4f4f4" stroke-width="2" stroke-opacity="1"><style>.fillAsStrokeColor-mk-zs6bcq11j8yyt { fill:#f4f4f4; }
.fillAsStrokeColor-mk-zs6bcq11j8yyu { fill:#f4f4f4; }</style><g><path d="M 10 10L 10 52C 10 58.627419 15.372583 64.000002 22 64.000002L 22 64M 10 28L 22 28"></path><path d="M 20.5 64C 20.5 64.828429 21.171573 65.500002 22 65.500002C 22.828427 65.500002 23.5 64.828429 23.5 64.000002C 23.5 63.171574 22.828427 62.500002 22 62.500002C 21.171573 62.500002 20.5 63.171574 20.5 64.000002Z" stroke-dasharray="none" class="fillAsStrokeColor-mk-zs6bcq11j8yyt" fill="#f4f4f4"></path><path d="M 20.5 28C 20.5 28.828428 21.171573 29.500001 22 29.500001C 22.828427 29.500001 23.5 28.828428 23.5 28.000001C 23.5 27.171573 22.828427 26.500001 22 26.500001C 21.171573 26.500001 20.5 27.171573 20.5 28.000001Z" stroke-dasharray="none" class="fillAsStrokeColor-mk-zs6bcq11j8yyu" fill="#f4f4f4"></path></g></g></g><g id="g-root-he_7qosa119exvl-stroke" data-item-order="-521233" transform="translate(542, 347)"><g id="he_7qosa119exvl-stroke" fill="none" stroke-linecap="round" stroke-linejoin="round" stroke-miterlimit="4" stroke="#f4f4f4" stroke-width="2" stroke-opacity="1"><style>.fillAsHole-mk-qwjb3u11j8zrj { fill:#2C2C2C; }</style><g><path d="M 10 46L 22 46C 28.63 46 34 40.63 34 34L 34 22C 34 15.37 39.37 10 46 10L 55 10"></path><path d="M 55 10C 55.000001 11.656854 56.343147 13 58.000001 13C 59.656856 13 61.000001 11.656854 61.000001 10C 61.000001 8.343146 59.656856 7 58.000001 7C 56.343147 7 55.000001 8.343146 55.000001 10Z" stroke-dasharray="none" class="fillAsHole-mk-qwjb3u11j8zrj" fill="#2C2C2C"></path></g></g></g><g id="g-root-he_1qd7qii119eyh7-stroke" data-item-order="-521231" transform="translate(602, 371)"><g id="he_1qd7qii119eyh7-stroke" fill="none" stroke-linecap="round" stroke-linejoin="round" stroke-miterlimit="4" stroke="#f4f4f4" stroke-width="2" stroke-opacity="1"><style>.fillAsStrokeColor-mk-vcct8a11j8zr4 { fill:#f4f4f4; }
.fillAsStrokeColor-mk-vcct8a11j8zr5 { fill:#f4f4f4; }</style><g><path d="M 10 10L 10 52C 10 58.627419 15.372583 64.000002 22 64.000002L 22 64M 10 28L 22 28"></path><path d="M 20.5 64C 20.5 64.828429 21.171573 65.500002 22 65.500002C 22.828427 65.500002 23.5 64.828429 23.5 64.000002C 23.5 63.171574 22.828427 62.500002 22 62.500002C 21.171573 62.500002 20.5 63.171574 20.5 64.000002Z" stroke-dasharray="none" class="fillAsStrokeColor-mk-vcct8a11j8zr4" fill="#f4f4f4"></path><path d="M 20.5 28C 20.5 28.828428 21.171573 29.500001 22 29.500001C 22.828427 29.500001 23.5 28.828428 23.5 28.000001C 23.5 27.171573 22.828427 26.500001 22 26.500001C 21.171573 26.500001 20.5 27.171573 20.5 28.000001Z" stroke-dasharray="none" class="fillAsStrokeColor-mk-vcct8a11j8zr5" fill="#f4f4f4"></path></g></g></g><g id="g-root-he_1qd7qii119eyh9-stroke" data-item-order="-521229" transform="translate(428, 413)"><g id="he_1qd7qii119eyh9-stroke" fill="none" stroke-linecap="round" stroke-linejoin="round" stroke-miterlimit="4" stroke="#f4f4f4" stroke-width="2" stroke-opacity="1"><style>.fillAsHole-mk-m7cooq11jabyi { fill:#2C2C2C; }</style><g><path d="M 10 10L 10 88"></path><path d="M 7 91C 7 92.656857 8.343146 94.000002 10 94.000002C 11.656854 94.000002 13 92.656857 13 91.000002C 13 89.343148 11.656854 88.000002 10 88.000002C 8.343146 88.000002 7 89.343148 7 91.000002Z" stroke-dasharray="none" class="fillAsHole-mk-m7cooq11jabyi" fill="#2C2C2C"></path></g></g></g><g id="g-root-he_1qd7qii119eyhb-stroke" data-item-order="-521227" transform="translate(338, 542)"><g id="he_1qd7qii119eyhb-stroke" fill="none" stroke-linecap="round" stroke-linejoin="round" stroke-miterlimit="4" stroke="#f4f4f4" stroke-width="2" stroke-opacity="1"><style>.fillAsStrokeColor-mk-m7cooq11jabyj { fill:#f4f4f4; }
.fillAsStrokeColor-mk-m7cooq11jabyk { fill:#f4f4f4; }</style><g><path d="M 10 10L 10 58C 10 64.627419 15.372583 70.000002 22 70.000002L 22 70M 10 34L 22 34"></path><path d="M 20.5 70C 20.5 70.828429 21.171573 71.500002 22 71.500002C 22.828427 71.500002 23.5 70.828429 23.5 70.000002C 23.5 69.171575 22.828427 68.500002 22 68.500002C 21.171573 68.500002 20.5 69.171575 20.5 70.000002Z" stroke-dasharray="none" class="fillAsStrokeColor-mk-m7cooq11jabyj" fill="#f4f4f4"></path><path d="M 20.5 34C 20.5 34.828428 21.171573 35.500001 22 35.500001C 22.828427 35.500001 23.5 34.828428 23.5 34.000001C 23.5 33.171574 22.828427 32.500001 22 32.500001C 21.171573 32.500001 20.5 33.171574 20.5 34.000001Z" stroke-dasharray="none" class="fillAsStrokeColor-mk-m7cooq11jabyk" fill="#f4f4f4"></path></g></g></g><g id="g-root-he_1ut18my119eygx-stroke" data-item-order="-521225" transform="translate(266, 332)"><g id="he_1ut18my119eygx-stroke" fill="none" stroke-linecap="round" stroke-linejoin="round" stroke-miterlimit="4" stroke="#f4f4f4" stroke-width="2" stroke-opacity="1"><style>.fillAsHole-mk-m7cooq11jabyl { fill:#2C2C2C; }</style><g><path d="M 58 61L 46 61C 39.37 61 34 55.63 34 49L 34 22C 34 15.37 28.63 10 22 10L 13 10"></path><path d="M 7 10C 7 11.656854 8.343146 13 10 13C 11.656854 13 13 11.656854 13 10C 13 8.343146 11.656854 7 10 7C 8.343146 7 7 8.343146 7 10Z" stroke-dasharray="none" class="fillAsHole-mk-m7cooq11jabyl" fill="#2C2C2C"></path></g></g></g><g id="g-root-he_1ut18my119eygz-stroke" data-item-order="-521223" transform="translate(242, 356)"><g id="he_1ut18my119eygz-stroke" fill="none" stroke-linecap="round" stroke-linejoin="round" stroke-miterlimit="4" stroke="#f4f4f4" stroke-width="2" stroke-opacity="1"><style>.fillAsStrokeColor-mk-m7cooq11jabym { fill:#f4f4f4; }
.fillAsStrokeColor-mk-m7cooq11jabyn { fill:#f4f4f4; }</style><g><path d="M 22 10L 22 58C 22.000001 64.627419 16.627417 70.000002 10 70.000002L 10 70M 22 34L 10 34"></path><path d="M 8.5 70C 8.5 70.828429 9.171573 71.500002 10 71.500002C 10.828427 71.500002 11.5 70.828429 11.5 70.000002C 11.5 69.171575 10.828427 68.500002 10 68.500002C 9.171573 68.500002 8.5 69.171575 8.5 70.000002Z" stroke-dasharray="none" class="fillAsStrokeColor-mk-m7cooq11jabym" fill="#f4f4f4"></path><path d="M 8.5 34C 8.5 34.828428 9.171573 35.500001 10 35.500001C 10.828427 35.500001 11.5 34.828428 11.5 34.000001C 11.5 33.171574 10.828427 32.500001 10 32.500001C 9.171573 32.500001 8.5 33.171574 8.5 34.000001Z" stroke-dasharray="none" class="fillAsStrokeColor-mk-m7cooq11jabyn" fill="#f4f4f4"></path></g></g></g><g id="g-root-he_1ut18my119eyh1-stroke" data-item-order="-521221" transform="translate(356, 146)"><g id="he_1ut18my119eyh1-stroke" fill="none" stroke-linecap="round" stroke-linejoin="round" stroke-miterlimit="4" stroke="#f4f4f4" stroke-width="2" stroke-opacity="1"><style>.fillAsHole-mk-qn66t611jaby8 { fill:#2C2C2C; }</style><g><path d="M 34 217.000061L 34 22.000061C 34 15.370061 28.63 10.000061 22 10.000061L 13 10.000061"></path><path d="M 7 10.000061C 7 11.656915 8.343146 13.000061 10 13.000061C 11.656854 13.000061 13 11.656915 13 10.000061C 13 8.343207 11.656854 7.000061 10 7.000061C 8.343146 7.000061 7 8.343207 7 10.000061Z" stroke-dasharray="none" class="fillAsHole-mk-qn66t611jaby8" fill="#2C2C2C"></path></g></g></g><g id="g-root-he_1lxe8e2119ez9r-stroke" data-item-order="-521219" transform="translate(332, 194.00006103515625)"><g id="he_1lxe8e2119ez9r-stroke" fill="none" stroke-linecap="round" stroke-linejoin="round" stroke-miterlimit="4" stroke="#f4f4f4" stroke-width="2" stroke-opacity="1"><style>.fillAsStrokeColor-mk-qn66t611jaby9 { fill:#f4f4f4; }
.fillAsStrokeColor-mk-qn66t611jabya { fill:#f4f4f4; }</style><g><path d="M 22 10L 22 58C 22.000001 64.627419 16.627417 70.000002 10 70.000002L 10 70M 22 34L 10 34"></path><path d="M 8.5 70C 8.5 70.828429 9.171573 71.500002 10 71.500002C 10.828427 71.500002 11.5 70.828429 11.5 70.000002C 11.5 69.171575 10.828427 68.500002 10 68.500002C 9.171573 68.500002 8.5 69.171575 8.5 70.000002Z" stroke-dasharray="none" class="fillAsStrokeColor-mk-qn66t611jaby9" fill="#f4f4f4"></path><path d="M 8.5 34C 8.5 34.828428 9.171573 35.500001 10 35.500001C 10.828427 35.500001 11.5 34.828428 11.5 34.000001C 11.5 33.171574 10.828427 32.500001 10 32.500001C 9.171573 32.500001 8.5 33.171574 8.5 34.000001Z" stroke-dasharray="none" class="fillAsStrokeColor-mk-qn66t611jabya" fill="#f4f4f4"></path></g></g></g><g id="g-root-tx_indirect_zqx6uy119ez9j-stroke" data-item-order="0" transform="translate(62, 320)"></g><g id="g-root-tx_policyse_146qoze119eyha-stroke" data-item-order="0" transform="translate(536, 242)"></g><g id="g-root-tx_grouprol_146qoze119eyh7-stroke" data-item-order="0" transform="translate(200, 242)"></g><g id="g-root-tx_inherita_vb3oqi119f01v-stroke" data-item-order="0" transform="translate(602, 335)"></g><g id="g-root-tx_roles_146qoze119eyh9-stroke" data-item-order="0" transform="translate(536, 206.00006103515625)"></g><g id="g-root-tx_groups_vb3oqi119f01u-stroke" data-item-order="0" transform="translate(380, 365)"></g><g id="g-root-tx_directro_1d1r856119f0ua-stroke" data-item-order="0" transform="translate(200, 206.00006103515625)"></g><g id="g-root-tx_principa_mfgohm119f0uk-stroke" data-item-order="0" transform="translate(626, 377)"></g><g id="g-root-tx_roleaggr_146qoze119eyh8-stroke" data-item-order="0" transform="translate(512, 164.00006103515625)"></g><g id="g-root-tx_identity_vb3oqi119f01t-stroke" data-item-order="0" transform="translate(98, 404)"></g><g id="g-root-tx_roleinhe_mfgohm119f0ul-stroke" data-item-order="0" transform="translate(626, 413)"></g><g id="g-root-tx_policypa_i09nga119eyh4-stroke" data-item-order="0" transform="translate(362, 590)"></g><g id="g-root-tx_annotati_mfgohm119f0um-stroke" data-item-order="0" transform="translate(338, 506)"></g><g id="g-root-tx_compleme_1d1r856119f0u9-stroke" data-item-order="0" transform="translate(164, 134.00006103515625)"></g><g id="g-root-tx_annotati_i09nga119eyh3-stroke" data-item-order="0" transform="translate(362, 554)"></g><g id="g-root-tx_groupide_1qd7qii119ez9c-stroke" data-item-order="0" transform="translate(92, 38.00006103515625)"></g><g id="g-root-tx_jwtclaim_zqx6uy119ez9k-stroke" data-item-order="0" transform="translate(122, 368)"></g></g></g><path id="w1hhkdmi12d94p0" d="M65.283 12.757a.35.35 0 0 0 .584.157l5.203-5.141-6.183 3.523.396 1.461zm-2.216-11.7a.35.35 0 0 0-.522.305v3.111l3.276-1.868-2.754-1.548zm3.728 2.105l-4.25 2.421v2.445l6.391-3.644-2.141-1.222zm4.708 3.303a.35.35 0 0 0 0-.609l-1.592-.9-7.365 4.199v1.782a.35.35 0 0 0 .523.305l8.435-4.777z M44.542 2.513c0-.433.355-.783.792-.783s.792.35.792.783-.355.783-.792.783-.792-.35-.792-.783zm59.171 0c0-.433.355-.783.792-.783s.792.35.792.783-.355.783-.792.783-.792-.35-.792-.783zm-85.951 7.636h-1.27v-.487c-.276.201-.864.609-1.881.609-1.202 0-2.274-.794-2.137-2.078.118-1.106 1.153-1.584 1.848-1.727l2.17-.345c0-.539-.29-.956-1.064-1.006s-1.21.305-1.571 1.017l-1.124-.605c1.218-2.631 5.029-1.764 5.029.414v4.207zm-1.27-2.86c.006.396-.062 1.112-.819 1.59-.587.37-1.841.299-1.903-.395-.049-.555.461-.791.906-.898l1.816-.297zm72.662 2.86h-1.27v-.487c-.276.201-.864.609-1.881.609-1.202 0-2.274-.794-2.137-2.078.118-1.106 1.153-1.584 1.848-1.727l2.17-.345c0-.539-.29-.956-1.064-1.006s-1.21.305-1.571 1.017l-1.124-.605c1.218-2.631 5.029-1.764 5.029.414v4.207zm-1.27-2.86c.006.396-.062 1.112-.82 1.59-.587.37-1.841.299-1.903-.395-.049-.555.461-.791.906-.898l1.816-.297zM99.096 10.149H97.85v-8.45h1.246v4.895l2.68-2.559h1.738l-2.633 2.535 2.715 3.578h-1.556l-2.077-2.707-.867.844v1.863zm6.053-6.114h-1.255v6.113h1.255V4.035zm-59.2 0h-1.255v6.113h1.255V4.035zm5.584 6.113V1.697h1.255v2.695c.361-.346 1-.485 1.47-.485 1.452 0 2.477 1.082 2.457 2.448v3.792h-1.27v-3.68c0-.408-.214-1.339-1.315-1.339-.968 0-1.342.756-1.342 1.339v3.681h-1.255zm-4.76-4.894V4.039h.621a.45.45 0 0 0 .45-.45v-.855h1.251v1.305h1.309v1.215h-1.309v3.109c0 .293.105.664.648.664.365 0 .531-.035.736-.07v1.137s-.361.113-.857.113c-1.398 0-1.777-1.051-1.777-1.788V5.254h-1.071zM36.528 4.039h-1.394l2.191 6.106h1.125l1.234-3.918 1.238 3.918h1.129l2.188-6.106h-1.383l-1.359 3.93-1.256-3.93h-1.124l-1.242 3.957-1.348-3.957zM26.212 7.141c-.02 1.566 1.187 3.129 3.223 3.129 1.566 0 2.383-.918 2.734-1.719L31.172 8c-.315.399-.801 1.094-1.738 1.094-1.145 0-1.825-.781-1.891-1.52h4.625c.074-.284.148-.995-.03-1.559-.336-1.064-1.221-2.102-2.839-2.102s-3.088 1.152-3.088 3.227zm1.363-.75h3.348c-.055-.43-.566-1.301-1.623-1.301a1.79 1.79 0 0 0-1.725 1.301zm-8.758.75c.038 1.758 1.277 3.133 3.145 3.133 1.074 0 1.723-.477 1.961-.672v.547h1.242V1.703h-1.258v2.888c-.414-.36-1.062-.68-1.93-.68-1.91 0-3.198 1.473-3.16 3.23zm1.309-.08c0 1.119.723 1.978 1.836 1.978a1.88 1.88 0 0 0 1.94-1.904c0-1.371-1.011-1.99-1.972-1.99s-1.805.798-1.805 1.916zm76.683-.028C96.771 5.275 95.532 3.9 93.664 3.9c-1.074 0-1.723.477-1.961.672v-.547h-1.242v8.22h1.258V9.583c.414.36 1.063.68 1.93.68 1.91 0 3.198-1.473 3.16-3.23zm-1.309.08c0-1.119-.723-1.978-1.836-1.978a1.88 1.88 0 0 0-1.94 1.904c0 1.371 1.011 1.99 1.972 1.99S95.5 8.231 95.5 7.113zM106.441 10.173V4.036h1.254v.382c.361-.346 1-.485 1.47-.485 1.452 0 2.477 1.082 2.457 2.448v3.792h-1.27V6.492c0-.408-.214-1.339-1.315-1.339-.969 0-1.342.756-1.342 1.339v3.681h-1.254zm-30.383-.021V1.824h1.084l4.215 5.777V1.824h1.32v8.328h-1.094l-4.207-5.796v5.796h-1.319zM5.24 10.149H4V2.377h1.014l2.664 3.597 2.654-3.592h1.03v7.766h-1.256V4.762L7.678 8.068 5.24 4.742v5.407z" transform="translate(740, 692)" fill="#ababab88" stroke="none"></path></svg>