<?xml version="1.0" encoding="utf-8" standalone="yes"?>
<!DOCTYPE svg PUBLIC "-//W3C//DTD SVG 1.1//EN" "http://www.w3.org/Graphics/SVG/1.1/DTD/svg11.dtd">
<svg style="fill:none;stroke:none;fill-rule:evenodd;clip-rule:evenodd;stroke-linecap:round;stroke-linejoin:round;stroke-miterlimit:1.5;" version="1.1" xmlns="http://www.w3.org/2000/svg" xmlns:xlink="http://www.w3.org/1999/xlink" width="588" height="516" viewBox="0 0 588 516"><style class="text-font-style fontImports" data-font-family="Roboto">@import url(https://fonts.googleapis.com/css2?family=Roboto:wght@400;700&amp;amp;display=block);</style><g id="items" style="isolation: isolate"><g id="blend" style="mix-blend-mode: normal"><g id="g-root-cr_0_cr-big_m7yjmo17wvda9-fill" data-item-order="-82939" transform="translate(242, 230.00006103515625)"></g><g id="g-root-sy_4_cu_m7yjmo17wvdaa-fill" data-item-order="-82935" transform="translate(158.02593994140625, 145.99456787109375)"></g><g id="g-root-sy_3_cu_dcbjds17wve2z-fill" data-item-order="-82931" transform="translate(158.00811767578125, 289.99981689453125)"></g><g id="g-root-sy_2_cu_dcbjds17wve30-fill" data-item-order="-82927" transform="translate(301.9996337890625, 290.00390625)"></g><g id="g-root-sy_1_cu_8wi19c17wvev9-fill" data-item-order="-82923" transform="translate(302, 146.01190185546875)"></g><g id="g-root-tx_keyfeatu_8wi19c17wveva-fill" data-item-order="0" transform="translate(170, 38)"><g id="tx_keyfeatu_8wi19c17wveva-fill-merged" stroke="none" fill="#f4f4f4" fill-opacity="1"><g><text style="font: bold 25px &quot;Roboto&quot;, sans-serif; white-space: pre;" transform="translate(142, 28)" font-weight="bold" font-size="25px" font-family="'Roboto', sans-serif"><tspan x="-124.85" y="15" dominant-baseline="ideographic">Key Features of MRNs</tspan></text></g></g></g><g id="g-root-tx_patternm_qs5dcw17x2dxm-fill" data-item-order="0" transform="translate(14, 146)"><g id="tx_patternm_qs5dcw17x2dxm-fill-merged" stroke="none" fill="#ffffff" fill-opacity="1"><g><text style="font: 20px &quot;Roboto&quot;, sans-serif; white-space: pre;" transform="translate(178, 22)" font-size="20px" font-family="'Roboto', sans-serif"><tspan x="-155.43" y="12" dominant-baseline="ideographic">Pattern Matching</tspan></text></g></g></g><g id="g-root-tx_universa_hwid4017x2fi8-fill" data-item-order="0" transform="translate(422, 122)"><g id="tx_universa_hwid4017x2fi8-fill-merged" stroke="none" fill="#ffffff" fill-opacity="1"><g><text style="font: 20px &quot;Roboto&quot;, sans-serif; white-space: pre;" transform="translate(10, 34)" font-size="20px" font-family="'Roboto', sans-serif"><tspan x="2" y="0" dominant-baseline="ideographic">Universal </tspan><tspan x="2" y="24" dominant-baseline="ideographic">Identification</tspan></text></g></g></g><g id="g-root-ic_sear_145hazk17wvdan-fill" data-item-order="0" transform="translate(205.9371337890625, 193.81341552734375)"></g><g id="g-root-ic_netw_1hckhr417x11jf-fill" data-item-order="0" transform="translate(350.186767578125, 193.93682861328125)"></g><g id="g-root-ic_refr_1ums1y817wvd3b-fill" data-item-order="0" transform="translate(266, 253.99609375)"></g><g id="g-root-ic_clos_v9uaqo17wy77n-fill" data-item-order="0" transform="translate(205.813232421875, 338.06304931640625)"></g><g id="g-root-ic_word_18fojc017wzmrw-fill" data-item-order="0" transform="translate(350.063232421875, 338.18670654296875)"></g><g id="g-root-tx_selfdesc_mcbv8g17x2epw-fill" data-item-order="0" transform="translate(38, 410)"><g id="tx_selfdesc_mcbv8g17x2epw-fill-merged" stroke="none" fill="#ffffff" fill-opacity="1"><g><text style="font: 20px &quot;Roboto&quot;, sans-serif; white-space: pre;" transform="translate(154, 34)" font-size="20px" font-family="'Roboto', sans-serif"><tspan x="-136.38" y="0" dominant-baseline="ideographic">Self-Describing </tspan><tspan x="-83.5" y="24" dominant-baseline="ideographic">Structure</tspan></text></g></g></g><g id="g-root-tx_namespac_mcbv8g17x2epy-fill" data-item-order="0" transform="translate(422, 410)"><g id="tx_namespac_mcbv8g17x2epy-fill-merged" stroke="none" fill="#ffffff" fill-opacity="1"><g><text style="font: 20px &quot;Roboto&quot;, sans-serif; white-space: pre;" transform="translate(10, 22)" font-size="20px" font-family="'Roboto', sans-serif"><tspan x="2" y="12" dominant-baseline="ideographic">Namespacing</tspan></text></g></g></g><g id="g-root-cr_0_cr-big_m7yjmo17wvda9-stroke" data-item-order="-82939" transform="translate(242, 230.00006103515625)"><g id="cr_0_cr-big_m7yjmo17wvda9-stroke" fill="none" stroke-linecap="round" stroke-linejoin="round" stroke-miterlimit="4" stroke="#f4f4f4" stroke-width="2" stroke-opacity="1"><g><path d="M 10.000031 70C 10.000034 103.137088 36.862949 130.000003 70.000034 130.000003C 103.137119 130.000003 130.000034 103.137088 130.000034 70.000003C 130.000034 36.862918 103.137119 10.000003 70.000034 10.000003C 36.862949 10.000003 10.000034 36.862918 10.000034 70.000003Z"></path></g></g></g><g id="g-root-sy_4_cu_m7yjmo17wvdaa-stroke" data-item-order="-82935" transform="translate(158.02593994140625, 145.99456787109375)"><g id="sy_4_cu_m7yjmo17wvdaa-stroke" fill="none" stroke-linecap="round" stroke-linejoin="round" stroke-miterlimit="4" stroke="#ffe711" stroke-width="2" stroke-opacity="1"><g><path d="M 153.974 94L 153.974 10C 74.4569 10.0141 10 74.4797 10 154L 10 154.0054L 94.0002 154.0054L 94.0002 154C 94.0002 120.8716 120.8489 94.0141 153.974 94Z"></path></g></g></g><g id="g-root-sy_3_cu_dcbjds17wve2z-stroke" data-item-order="-82931" transform="translate(158.00811767578125, 289.99981689453125)"><g id="sy_3_cu_dcbjds17wve2z-stroke" fill="none" stroke-linecap="round" stroke-linejoin="round" stroke-miterlimit="4" stroke="#a6da37" stroke-width="2" stroke-opacity="1"><g><path d="M 94 10L 10 10C 10.0075 89.52 74.4713 153.9819 153.992 153.9862L 153.992 69.9858C 120.8633 69.9815 94.0077 43.1279 94 10Z"></path></g></g></g><g id="g-root-sy_2_cu_dcbjds17wve30-stroke" data-item-order="-82927" transform="translate(301.9996337890625, 290.00390625)"><g id="sy_2_cu_dcbjds17wve30-stroke" fill="none" stroke-linecap="round" stroke-linejoin="round" stroke-miterlimit="4" stroke="#43dd93" stroke-width="2" stroke-opacity="1"><g><path d="M 10 70C 43.1369 69.9998 69.9997 43.137 69.9997 10L 153.9998 10C 153.9998 89.5289 89.5289 153.9998 10.0001 154L 10 70Z"></path></g></g></g><g id="g-root-sy_1_cu_8wi19c17wvev9-stroke" data-item-order="-82923" transform="translate(302, 146.01190185546875)"><g id="sy_1_cu_8wi19c17wvev9-stroke" fill="none" stroke-linecap="round" stroke-linejoin="round" stroke-miterlimit="4" stroke="#1ac3fb" stroke-width="2" stroke-opacity="1"><g><path d="M 70.0067 153.988L 154.0068 153.988C 154.0003 74.4645 89.5318 10 10.0068 10L 10 10L 10 94.0001C 10.0022 94.0001 10.0045 94.0001 10.0067 94.0001C 43.1398 94.0001 70.0002 120.8565 70.0067 153.988Z"></path></g></g></g><g id="g-root-tx_keyfeatu_8wi19c17wveva-stroke" data-item-order="0" transform="translate(170, 38)"></g><g id="g-root-tx_patternm_qs5dcw17x2dxm-stroke" data-item-order="0" transform="translate(14, 146)"></g><g id="g-root-tx_universa_hwid4017x2fi8-stroke" data-item-order="0" transform="translate(422, 122)"></g><g id="g-root-ic_sear_145hazk17wvdan-stroke" data-item-order="0" transform="translate(205.9371337890625, 193.81341552734375)"><g id="ic_sear_145hazk17wvdan-stroke" fill="none" stroke-linecap="round" stroke-linejoin="round" stroke-miterlimit="4" stroke="#ffe711" stroke-width="2" stroke-opacity="1"><g><path d="M 45.166 45.09L 57.077999 57M 11 30.969999C 11 42.015694 19.954306 50.970001 31 50.970001C 42.045696 50.970001 51 42.015694 51 30.970001C 51 19.924305 42.045696 10.97 31 10.97C 19.954306 10.97 11 19.924305 11 30.970001ZM 38 25L 44 31L 38 37M 24 25L 18 31L 24 37M 34 23L 28 39"></path></g></g></g><g id="g-root-ic_netw_1hckhr417x11jf-stroke" data-item-order="0" transform="translate(350.186767578125, 193.93682861328125)"><g id="ic_netw_1hckhr417x11jf-stroke" fill="none" stroke-linecap="round" stroke-linejoin="round" stroke-miterlimit="4" stroke="#1ac3fb" stroke-width="2" stroke-opacity="1"><g><path d="M 11.072001 33.996002C 11.072001 46.698551 21.369452 56.996002 34.071999 56.996002C 46.774551 56.996002 57.071999 46.698551 57.071999 33.996002C 57.071999 21.293451 46.774551 10.996 34.071999 10.996C 21.369452 10.996 11.072001 21.293451 11.072001 33.996002ZM 23.071999 25.496C 23.072001 27.981281 25.08672 29.996 27.572001 29.996C 30.057281 29.996 32.071999 27.981281 32.071999 25.496C 32.071999 23.010719 30.057281 20.996 27.572001 20.996C 25.08672 20.996 23.072001 23.010719 23.072001 25.496ZM 36.071999 45.495998C 36.071999 46.876713 37.191288 47.996002 38.571999 47.996002C 39.952713 47.996002 41.071999 46.876713 41.071999 45.496002C 41.071999 44.115288 39.952713 42.996002 38.571999 42.996002C 37.191288 42.996002 36.071999 44.115288 36.071999 45.496002ZM 44.071999 30.496C 44.072002 32.428997 45.639004 33.996002 47.572002 33.996002C 49.504997 33.996002 51.072002 32.428997 51.072002 30.496C 51.072002 28.563004 49.504997 26.996 47.572002 26.996C 45.639004 26.996 44.072002 28.563004 44.072002 30.496ZM 32.071999 25C 36.542919 25.170311 40.80291 26.945305 44.071999 30M 48.27 33.928001L 49.07 34.996002C 49.07 34.996002 52.07 38.996002 52.07 47.995998M 43.717999 13.11L 44.071999 14C 45.519688 18.288517 46.1968 22.799444 46.071999 27.323999M 45.071999 33C 44.821491 37.13044 43.332851 41.089699 40.799999 44.362M 37.375999 47.692001L 37.071999 48C 37.071999 48 32.071999 53 21.071999 53M 34.071999 11C 31.335846 13.926501 29.135672 17.311386 27.571999 21M 25.236 29.344L 25.071999 30C 23.982292 35.408966 24.684383 41.0257 27.072001 46C 30.472 52.812 39.071999 56 39.071999 56L 39.818001 56.278M 23.071999 25.496C 23.071999 25.496 15.4 26.046 11.522 29.441999M 11.632 39.063999L 12.072001 38.996002C 12.072001 38.996002 25.834 36.879997 37.02 43.535999"></path></g></g></g><g id="g-root-ic_refr_1ums1y817wvd3b-stroke" data-item-order="0" transform="translate(266, 253.99609375)"><g id="ic_refr_1ums1y817wvd3b-stroke" fill="none" stroke-linecap="round" stroke-linejoin="round" stroke-miterlimit="4" stroke="#f4f4f4" stroke-width="2" stroke-opacity="1"><g><path d="M 70.048004 62.493996L 80.548004 62.493996L 80.548004 51.993999M 62.539001 80.5C 53.619976 80.505234 46.311211 73.421883 46.037117 64.507072C 45.763027 55.592255 52.622837 48.073284 61.525337 47.530579C 70.427841 46.987873 78.150177 53.617908 78.961006 62.5M 80.548004 51.993999L 80.548004 62.493996L 70.048004 62.493996M 41.548 80.5L 14.548 80.5C 12.891146 80.5 11.548 79.156853 11.548 77.5L 11.548 14.5C 11.548 12.843145 12.891146 11.5 14.548 11.5L 54.427002 11.5C 55.225613 11.505725 55.988979 11.829642 56.548 12.4L 67.668999 23.5C 68.231644 24.062479 68.547829 24.825417 68.548004 25.620998L 68.548004 38.5M 20.548 26.512001L 20.548 38.512001M 47.548 26.512001L 47.548 38.512001M 38.548 47.512001L 38.548 59.512001M 56.548 26.512001L 56.548 38.512001M 34.048 26.5C 36.533279 26.5 38.548004 28.514719 38.548004 31L 38.548 34C 38.548 36.485283 36.533279 38.5 34.048 38.5C 31.562719 38.5 29.548 36.485283 29.548 34L 29.548 31C 29.548 28.514719 31.562719 26.5 34.048 26.5ZM 25.048 47.5C 27.533281 47.5 29.548 49.514721 29.548 52L 29.548 55C 29.548 57.485283 27.533281 59.5 25.048 59.5C 22.562719 59.5 20.548 57.485283 20.548 55L 20.548 52C 20.548 49.514721 22.562719 47.5 25.048 47.5Z"></path></g></g></g><g id="g-root-ic_clos_v9uaqo17wy77n-stroke" data-item-order="0" transform="translate(205.813232421875, 338.06304931640625)"><g id="ic_clos_v9uaqo17wy77n-stroke" fill="none" stroke-linecap="round" stroke-linejoin="round" stroke-miterlimit="4" stroke="#a6da37" stroke-width="2" stroke-opacity="1"><g><path d="M 34 25.024L 54 15.024L 54 44.787998C 53.999596 45.54533 53.571461 46.237473 52.894001 46.576L 34 56.023998L 15.106 46.576C 14.428541 46.237473 14.000404 45.54533 14 44.787998L 14 15.024ZM 49.998001 11.976L 33.998001 20.071999L 17.998001 11.976M 34 25.024L 34 56.023998"></path></g></g></g><g id="g-root-ic_word_18fojc017wzmrw-stroke" data-item-order="0" transform="translate(350.063232421875, 338.18670654296875)"><g id="ic_word_18fojc017wzmrw-stroke" fill="none" stroke-linecap="round" stroke-linejoin="round" stroke-miterlimit="4" stroke="#43dd93" stroke-width="2" stroke-opacity="1"><g><path d="M 23 46L 23 52C 23 53.104568 23.895432 54 25 54L 55 54C 56.104568 54 57 53.104568 57 52L 57 16C 57 14.895431 56.104568 14 55 14L 25 14C 23.895432 14 23 14.895431 23 16L 23 22M 35 34L 57 34M 35 24L 57 24M 35 44L 57 44M 13 22L 33 22C 33 22 35 22 35 24L 35 44C 35 44 35 46 33 46L 13 46C 13 46 11 46 11 44L 11 24C 11 24 11 22 13 22M 16 28L 19 40L 23 28L 27 40L 30 28"></path></g></g></g><g id="g-root-tx_selfdesc_mcbv8g17x2epw-stroke" data-item-order="0" transform="translate(38, 410)"></g><g id="g-root-tx_namespac_mcbv8g17x2epy-stroke" data-item-order="0" transform="translate(422, 410)"></g></g></g><path id="w8xrc1y1cmlpts" d="M65.283 12.757a.35.35 0 0 0 .584.157l5.203-5.141-6.183 3.523.396 1.461zm-2.216-11.7a.35.35 0 0 0-.522.305v3.111l3.276-1.868-2.754-1.548zm3.728 2.105l-4.25 2.421v2.445l6.391-3.644-2.141-1.222zm4.708 3.303a.35.35 0 0 0 0-.609l-1.592-.9-7.365 4.199v1.782a.35.35 0 0 0 .523.305l8.435-4.777z M44.542 2.513c0-.433.355-.783.792-.783s.792.35.792.783-.355.783-.792.783-.792-.35-.792-.783zm59.171 0c0-.433.355-.783.792-.783s.792.35.792.783-.355.783-.792.783-.792-.35-.792-.783zm-85.951 7.636h-1.27v-.487c-.276.201-.864.609-1.881.609-1.202 0-2.274-.794-2.137-2.078.118-1.106 1.153-1.584 1.848-1.727l2.17-.345c0-.539-.29-.956-1.064-1.006s-1.21.305-1.571 1.017l-1.124-.605c1.218-2.631 5.029-1.764 5.029.414v4.207zm-1.27-2.86c.006.396-.062 1.112-.819 1.59-.587.37-1.841.299-1.903-.395-.049-.555.461-.791.906-.898l1.816-.297zm72.662 2.86h-1.27v-.487c-.276.201-.864.609-1.881.609-1.202 0-2.274-.794-2.137-2.078.118-1.106 1.153-1.584 1.848-1.727l2.17-.345c0-.539-.29-.956-1.064-1.006s-1.21.305-1.571 1.017l-1.124-.605c1.218-2.631 5.029-1.764 5.029.414v4.207zm-1.27-2.86c.006.396-.062 1.112-.82 1.59-.587.37-1.841.299-1.903-.395-.049-.555.461-.791.906-.898l1.816-.297zM99.096 10.149H97.85v-8.45h1.246v4.895l2.68-2.559h1.738l-2.633 2.535 2.715 3.578h-1.556l-2.077-2.707-.867.844v1.863zm6.053-6.114h-1.255v6.113h1.255V4.035zm-59.2 0h-1.255v6.113h1.255V4.035zm5.584 6.113V1.697h1.255v2.695c.361-.346 1-.485 1.47-.485 1.452 0 2.477 1.082 2.457 2.448v3.792h-1.27v-3.68c0-.408-.214-1.339-1.315-1.339-.968 0-1.342.756-1.342 1.339v3.681h-1.255zm-4.76-4.894V4.039h.621a.45.45 0 0 0 .45-.45v-.855h1.251v1.305h1.309v1.215h-1.309v3.109c0 .293.105.664.648.664.365 0 .531-.035.736-.07v1.137s-.361.113-.857.113c-1.398 0-1.777-1.051-1.777-1.788V5.254h-1.071zM36.528 4.039h-1.394l2.191 6.106h1.125l1.234-3.918 1.238 3.918h1.129l2.188-6.106h-1.383l-1.359 3.93-1.256-3.93h-1.124l-1.242 3.957-1.348-3.957zM26.212 7.141c-.02 1.566 1.187 3.129 3.223 3.129 1.566 0 2.383-.918 2.734-1.719L31.172 8c-.315.399-.801 1.094-1.738 1.094-1.145 0-1.825-.781-1.891-1.52h4.625c.074-.284.148-.995-.03-1.559-.336-1.064-1.221-2.102-2.839-2.102s-3.088 1.152-3.088 3.227zm1.363-.75h3.348c-.055-.43-.566-1.301-1.623-1.301a1.79 1.79 0 0 0-1.725 1.301zm-8.758.75c.038 1.758 1.277 3.133 3.145 3.133 1.074 0 1.723-.477 1.961-.672v.547h1.242V1.703h-1.258v2.888c-.414-.36-1.062-.68-1.93-.68-1.91 0-3.198 1.473-3.16 3.23zm1.309-.08c0 1.119.723 1.978 1.836 1.978a1.88 1.88 0 0 0 1.94-1.904c0-1.371-1.011-1.99-1.972-1.99s-1.805.798-1.805 1.916zm76.683-.028C96.771 5.275 95.532 3.9 93.664 3.9c-1.074 0-1.723.477-1.961.672v-.547h-1.242v8.22h1.258V9.583c.414.36 1.063.68 1.93.68 1.91 0 3.198-1.473 3.16-3.23zm-1.309.08c0-1.119-.723-1.978-1.836-1.978a1.88 1.88 0 0 0-1.94 1.904c0 1.371 1.011 1.99 1.972 1.99S95.5 8.231 95.5 7.113zM106.441 10.173V4.036h1.254v.382c.361-.346 1-.485 1.47-.485 1.452 0 2.477 1.082 2.457 2.448v3.792h-1.27V6.492c0-.408-.214-1.339-1.315-1.339-.969 0-1.342.756-1.342 1.339v3.681h-1.254zm-30.383-.021V1.824h1.084l4.215 5.777V1.824h1.32v8.328h-1.094l-4.207-5.796v5.796h-1.319zM5.24 10.149H4V2.377h1.014l2.664 3.597 2.654-3.592h1.03v7.766h-1.256V4.762L7.678 8.068 5.24 4.742v5.407z" transform="translate(455, 485)" fill="#ababab88" stroke="none"></path></svg>