<?xml version="1.0" encoding="utf-8" standalone="yes"?>
<!DOCTYPE svg PUBLIC "-//W3C//DTD SVG 1.1//EN" "http://www.w3.org/Graphics/SVG/1.1/DTD/svg11.dtd">
<svg style="fill:none;stroke:none;fill-rule:evenodd;clip-rule:evenodd;stroke-linecap:round;stroke-linejoin:round;stroke-miterlimit:1.5;" version="1.1" xmlns="http://www.w3.org/2000/svg" xmlns:xlink="http://www.w3.org/1999/xlink" width="924" height="930" viewBox="0 0 924 930"><style class="text-font-style fontImports" data-font-family="Roboto">@import url(https://fonts.googleapis.com/css2?family=Roboto:wght@400;700&amp;amp;display=block);</style><g id="items" style="isolation: isolate"><g id="blend" style="mix-blend-mode: normal"><g id="g-root-cp_5_text-5_1448cosyh50xz-fill" data-item-order="-730567" transform="translate(116, 146)"></g><g id="g-root-cp_1_text-1_mdkta4yh505c-fill" data-item-order="-730489" transform="translate(524, 122)"></g><g id="g-root-cp_4_text-4_dhxt18yh50y1-fill" data-item-order="-730409" transform="translate(134, 416)"></g><g id="g-root-cp_-1_parent-5-part_73rr0yh4zd6-fill" data-item-order="-730343" transform="translate(338, 428)"></g><g id="g-root-cp_2_text-2_1usebloyh4zyb-fill" data-item-order="-730279" transform="translate(614, 428)"></g><g id="g-root-cp_3_text-3_1hhkabgyh4ydg-fill" data-item-order="-730207" transform="translate(356, 650)"></g><g id="g-root-he_18lxa2kyh4z66-fill" data-item-order="-730141" transform="translate(500, 149)"></g><g id="g-root-he_1d1qs70yh4z5s-fill" data-item-order="-730139" transform="translate(536, 194)"></g><g id="g-root-he_1463ry4yh4zyi-fill" data-item-order="-730137" transform="translate(566, 455)"></g><g id="g-root-he_1463ry4yh4zyk-fill" data-item-order="-730135" transform="translate(626, 476)"></g><g id="g-root-he_1463ry4yh4zym-fill" data-item-order="-730133" transform="translate(452, 602)"></g><g id="g-root-he_zqa9toyh50qw-fill" data-item-order="-730131" transform="translate(368, 722)"></g><g id="g-root-he_zqa9toyh50qy-fill" data-item-order="-730129" transform="translate(290, 443)"></g><g id="g-root-he_vb38scyh4ydg-fill" data-item-order="-730127" transform="translate(266, 464)"></g><g id="g-root-he_vb38scyh4ydi-fill" data-item-order="-730125" transform="translate(380, 173)"></g><g id="g-root-he_vb38scyh4ydk-fill" data-item-order="-730123" transform="translate(356, 194)"></g><g id="g-root-tx_auditabl_1qckth8yhj0ua-fill" data-item-order="0" transform="translate(560, 326)"><g id="tx_auditabl_1qckth8yhj0ua-fill-merged" stroke="none" fill="#f4f4f4" fill-opacity="1"><g><text style="font: 20px &quot;Roboto&quot;, sans-serif; white-space: pre;" transform="translate(10, 34)" font-size="20px" font-family="'Roboto', sans-serif"><tspan x="2" y="0" dominant-baseline="ideographic">Auditable Decision </tspan><tspan x="2" y="24" dominant-baseline="ideographic">Records</tspan></text></g></g></g><g id="g-root-tx_complian_92qrzwyhg7wl-fill" data-item-order="0" transform="translate(188, 326)"><g id="tx_complian_92qrzwyhg7wl-fill-merged" stroke="none" fill="#f4f4f4" fill-opacity="1"><g><text style="font: 20px &quot;Roboto&quot;, sans-serif; white-space: pre;" transform="translate(166, 34)" font-size="20px" font-family="'Roboto', sans-serif"><tspan x="-150.35" y="0" dominant-baseline="ideographic">Compliance with </tspan><tspan x="-92.73" y="24" dominant-baseline="ideographic">Standards</tspan></text></g></g></g><g id="g-root-ic_buil_1hgxt8cyhj1n0-fill" data-item-order="0" transform="translate(248, 425)"></g><g id="g-root-tx_scalabil_1hgxt8cyhj1mz-fill" data-item-order="0" transform="translate(146, 428)"><g id="tx_scalabil_1hgxt8cyhj1mz-fill-merged" stroke="none" fill="#faeeff" fill-opacity="1"><g><text style="font: 20px &quot;Roboto&quot;, sans-serif; white-space: pre;" transform="translate(106, 22)" font-size="20px" font-family="'Roboto', sans-serif"><tspan x="-92.83" y="12" dominant-baseline="ideographic">Scalability</tspan></text></g></g></g><g id="g-root-tx_automati_1qckth8yhj0u9-fill" data-item-order="0" transform="translate(560, 266)"><g id="tx_automati_1qckth8yhj0u9-fill-merged" stroke="none" fill="#f4f4f4" fill-opacity="1"><g><text style="font: 20px &quot;Roboto&quot;, sans-serif; white-space: pre;" transform="translate(10, 34)" font-size="20px" font-family="'Roboto', sans-serif"><tspan x="2" y="0" dominant-baseline="ideographic">Automatic </tspan><tspan x="2" y="24" dominant-baseline="ideographic">Enforcement</tspan></text></g></g></g><g id="g-root-ic_acce_18f224cyhkf0o-fill" data-item-order="0" transform="translate(416, 446)"></g><g id="g-root-tx_detailed_92qrzwyhg7wk-fill" data-item-order="0" transform="translate(212, 266)"><g id="tx_detailed_92qrzwyhg7wk-fill-merged" stroke="none" fill="#f4f4f4" fill-opacity="1"><g><text style="font: 20px &quot;Roboto&quot;, sans-serif; white-space: pre;" transform="translate(142, 34)" font-size="20px" font-family="'Roboto', sans-serif"><tspan x="-126.42" y="0" dominant-baseline="ideographic">Detailed Audit </tspan><tspan x="-50.52" y="24" dominant-baseline="ideographic">Trails</tspan></text></g></g></g><g id="g-root-ic_2_zmjfb0yhkgzl-fill" data-item-order="0" transform="translate(626, 437)"></g><g id="g-root-tx_machiner_1qckth8yhj0u8-fill" data-item-order="0" transform="translate(560, 206)"><g id="tx_machiner_1qckth8yhj0u8-fill-merged" stroke="none" fill="#f4f4f4" fill-opacity="1"><g><text style="font: 20px &quot;Roboto&quot;, sans-serif; white-space: pre;" transform="translate(10, 34)" font-size="20px" font-family="'Roboto', sans-serif"><tspan x="2" y="0" dominant-baseline="ideographic">Machine-Readable </tspan><tspan x="2" y="24" dominant-baseline="ideographic">Policies</tspan></text></g></g></g><g id="g-root-tx_centrali_92qrzwyhg7wj-fill" data-item-order="0" transform="translate(176, 206)"><g id="tx_centrali_92qrzwyhg7wj-fill-merged" stroke="none" fill="#f4f4f4" fill-opacity="1"><g><text style="font: 20px &quot;Roboto&quot;, sans-serif; white-space: pre;" transform="translate(178, 34)" font-size="20px" font-family="'Roboto', sans-serif"><tspan x="-160.38" y="0" dominant-baseline="ideographic">Centralized Policy </tspan><tspan x="-119.85" y="24" dominant-baseline="ideographic">Management</tspan></text></g></g></g><g id="g-root-tx_enhanced_18gb0akyhn7ya-fill" data-item-order="0" transform="translate(662, 440)"><g id="tx_enhanced_18gb0akyhn7ya-fill-merged" stroke="none" fill="#ffe9e8" fill-opacity="1"><g><text style="font: 20px &quot;Roboto&quot;, sans-serif; white-space: pre;" transform="translate(10, 22)" font-size="20px" font-family="'Roboto', sans-serif"><tspan x="2" y="12" dominant-baseline="ideographic">Enhanced Security</tspan></text></g></g></g><g id="g-root-tx_governan_1usebloyhj01z-fill" data-item-order="0" transform="translate(572, 134)"><g id="tx_governan_1usebloyhj01z-fill-merged" stroke="none" fill="#fff0e2" fill-opacity="1"><g><text style="font: 20px &quot;Roboto&quot;, sans-serif; white-space: pre;" transform="translate(10, 34)" font-size="20px" font-family="'Roboto', sans-serif"><tspan x="2" y="0" dominant-baseline="ideographic">Governance That </tspan><tspan x="2" y="24" dominant-baseline="ideographic">Executes</tspan></text></g></g></g><g id="g-root-tx_accommod_1lpw3ekyhkglh-fill" data-item-order="0" transform="translate(98, 476)"><g id="tx_accommod_1lpw3ekyhkglh-fill-merged" stroke="none" fill="#f4f4f4" fill-opacity="1"><g><text style="font: 20px &quot;Roboto&quot;, sans-serif; white-space: pre;" transform="translate(166, 34)" font-size="20px" font-family="'Roboto', sans-serif"><tspan x="-143.48" y="0" dominant-baseline="ideographic">Accommodates </tspan><tspan x="-66.2" y="24" dominant-baseline="ideographic">Growth</tspan></text></g></g></g><g id="g-root-tx_finegrai_zko01oyhn8qz-fill" data-item-order="0" transform="translate(650, 488)"><g id="tx_finegrai_zko01oyhn8qz-fill-merged" stroke="none" fill="#f4f4f4" fill-opacity="1"><g><text style="font: 20px &quot;Roboto&quot;, sans-serif; white-space: pre;" transform="translate(10, 34)" font-size="20px" font-family="'Roboto', sans-serif"><tspan x="2" y="0" dominant-baseline="ideographic">Fine-Grained </tspan><tspan x="2" y="24" dominant-baseline="ideographic">Access Control</tspan></text></g></g></g><g id="g-root-tx_improved_hzmqf0yh4zyi-fill" data-item-order="0" transform="translate(128, 158)"><g id="tx_improved_hzmqf0yh4zyi-fill-merged" stroke="none" fill="#f1eeff" fill-opacity="1"><g><text style="font: 20px &quot;Roboto&quot;, sans-serif; white-space: pre;" transform="translate(214, 22)" font-size="20px" font-family="'Roboto', sans-serif"><tspan x="-196.38" y="12" dominant-baseline="ideographic">Improved Compliance</tspan></text></g></g></g><g id="g-root-tx_minimali_1cu935oyhkhe6-fill" data-item-order="0" transform="translate(122, 536)"><g id="tx_minimali_1cu935oyhkhe6-fill-merged" stroke="none" fill="#f4f4f4" fill-opacity="1"><g><text style="font: 20px &quot;Roboto&quot;, sans-serif; white-space: pre;" transform="translate(142, 46)" font-size="20px" font-family="'Roboto', sans-serif"><tspan x="-73.53" y="-12" dominant-baseline="ideographic">Minimal </tspan><tspan x="-122.63" y="12" dominant-baseline="ideographic">Infrastructure </tspan><tspan x="-80.12" y="36" dominant-baseline="ideographic">Changes</tspan></text></g></g></g><g id="g-root-tx_policyba_1cu935oyhkhe7-fill" data-item-order="0" transform="translate(362, 530)"><g id="tx_policyba_1cu935oyhkhe7-fill-merged" stroke="none" fill="#b7b7b7" fill-opacity="1"><g><text style="font: 25px &quot;Roboto&quot;, sans-serif; white-space: pre;" transform="translate(100, 40)" font-size="25px" font-family="'Roboto', sans-serif"><tspan x="-71.65" y="0" dominant-baseline="ideographic">Policy-Based </tspan><tspan x="-84.4" y="30" dominant-baseline="ideographic">Access Control</tspan></text></g></g></g><g id="g-root-tx_reduceda_zko01oyhn8r0-fill" data-item-order="0" transform="translate(650, 548)"><g id="tx_reduceda_zko01oyhn8r0-fill-merged" stroke="none" fill="#f4f4f4" fill-opacity="1"><g><text style="font: 20px &quot;Roboto&quot;, sans-serif; white-space: pre;" transform="translate(10, 34)" font-size="20px" font-family="'Roboto', sans-serif"><tspan x="2" y="0" dominant-baseline="ideographic">Reduced Attack </tspan><tspan x="2" y="24" dominant-baseline="ideographic">Surface</tspan></text></g></g></g><g id="g-root-ic_bloc_73rr0yhg8pa-fill" data-item-order="0" transform="translate(536, 143)"></g><g id="g-root-ic_appr_djt8akyh50qr-fill" data-item-order="0" transform="translate(338, 155)"></g><g id="g-root-ic_mana_v4uhx8yhn9j9-fill" data-item-order="0" transform="translate(368, 671)"></g><g id="g-root-tx_streamli_qn5np8yh3kzq-fill" data-item-order="0" transform="translate(404, 662)"><g id="tx_streamli_qn5np8yh3kzq-fill-merged" stroke="none" fill="#ffe8f6" fill-opacity="1"><g><text style="font: 20px &quot;Roboto&quot;, sans-serif; white-space: pre;" transform="translate(10, 34)" font-size="20px" font-family="'Roboto', sans-serif"><tspan x="2" y="0" dominant-baseline="ideographic">Streamlined </tspan><tspan x="2" y="24" dominant-baseline="ideographic">Management</tspan></text></g></g></g><g id="g-root-tx_benefits_qv9qnwyh4z5t-fill" data-item-order="0" transform="translate(218, 38)"><g id="tx_benefits_qv9qnwyh4z5t-fill-merged" stroke="none" fill="#f4f4f4" fill-opacity="1"><g><text style="font: bold 25px &quot;Roboto&quot;, sans-serif; white-space: pre;" transform="translate(244, 28)" font-weight="bold" font-size="25px" font-family="'Roboto', sans-serif"><tspan x="-227.23" y="15" dominant-baseline="ideographic">Benefits of Policy-Based Access Control</tspan></text></g></g></g><g id="g-root-tx_centrali_hringcyh3lsf-fill" data-item-order="0" transform="translate(392, 734)"><g id="tx_centrali_hringcyh3lsf-fill-merged" stroke="none" fill="#f4f4f4" fill-opacity="1"><g><text style="font: 20px &quot;Roboto&quot;, sans-serif; white-space: pre;" transform="translate(10, 34)" font-size="20px" font-family="'Roboto', sans-serif"><tspan x="2" y="0" dominant-baseline="ideographic">Centralized Policy </tspan><tspan x="2" y="24" dominant-baseline="ideographic">Enforcement</tspan></text></g></g></g><g id="g-root-tx_simplifi_m7c5ksyh3ls0-fill" data-item-order="0" transform="translate(392, 794)"><g id="tx_simplifi_m7c5ksyh3ls0-fill-merged" stroke="none" fill="#f4f4f4" fill-opacity="1"><g><text style="font: 20px &quot;Roboto&quot;, sans-serif; white-space: pre;" transform="translate(10, 34)" font-size="20px" font-family="'Roboto', sans-serif"><tspan x="2" y="0" dominant-baseline="ideographic">Simplified Access </tspan><tspan x="2" y="24" dominant-baseline="ideographic">Permissions</tspan></text></g></g></g><g id="g-root-cp_5_text-5_1448cosyh50xz-stroke" data-item-order="-730567" transform="translate(116, 146)"><g id="cp_5_text-5_1448cosyh50xz-stroke" fill="none" stroke-linecap="round" stroke-linejoin="round" stroke-miterlimit="4" stroke="#8769fd" stroke-width="2" stroke-opacity="1"><g><path d="M 16 10C 12.6863 10 10 12.6863 10 16M 16 10L 267.999985 10M 268 10C 271.3137 10 274 12.6863 274 16M 274 52L 274 16M 10 52L 10 16M 10 52C 10 55.3137 12.6863 58 16 58M 267.999985 58L 16 58M 268 58C 271.3137 58 274 55.3137 274 52"></path></g></g></g><g id="g-root-cp_1_text-1_mdkta4yh505c-stroke" data-item-order="-730489" transform="translate(524, 122)"><g id="cp_1_text-1_mdkta4yh505c-stroke" fill="none" stroke-linecap="round" stroke-linejoin="round" stroke-miterlimit="4" stroke="#f79438" stroke-width="2" stroke-opacity="1"><g><path d="M 16 9.999878C 12.6863 9.999878 10 12.686178 10 15.999878M 16 9.999878L 232 9.999878M 232 9.999878C 235.3137 9.999878 238 12.686178 238 15.999878M 238 76L 238 16M 10 76L 10 16M 10 76C 10 79.3137 12.6863 82 16 82M 232 82L 16 82M 232 82C 235.3137 82 238 79.3137 238 76"></path></g></g></g><g id="g-root-cp_4_text-4_dhxt18yh50y1-stroke" data-item-order="-730409" transform="translate(134, 416)"><g id="cp_4_text-4_dhxt18yh50y1-stroke" fill="none" stroke-linecap="round" stroke-linejoin="round" stroke-miterlimit="4" stroke="#cb68f9" stroke-width="2" stroke-opacity="1"><g><path d="M 16 10C 12.6863 10 10 12.6863 10 16M 16 10L 160 10M 160 10C 163.3137 10 166 12.6863 166 16M 166 52L 166 16M 10 52L 10 16M 10 52C 10 55.3137 12.6863 58 16 58M 160 58L 16 58M 160 58C 163.3137 58 166 55.3137 166 52"></path></g></g></g><g id="g-root-cp_-1_parent-5-part_73rr0yh4zd6-stroke" data-item-order="-730343" transform="translate(338, 428)"><g id="cp_-1_parent-5-part_73rr0yh4zd6-stroke" fill="none" stroke-linecap="round" stroke-linejoin="round" stroke-miterlimit="4" stroke="#f4f4f4" stroke-width="2" stroke-opacity="1"><g><path d="M 16 10C 12.6863 10 10 12.6863 10 16M 16 10L 232 10M 232 10C 235.3137 10 238 12.6863 238 16M 238 178L 238 16M 10 178L 10 16M 10 178C 10 181.3137 12.6863 184 16 184M 232 184L 16 184M 232 184C 235.3137 184 238 181.3137 238 178"></path></g></g></g><g id="g-root-cp_2_text-2_1usebloyh4zyb-stroke" data-item-order="-730279" transform="translate(614, 428)"><g id="cp_2_text-2_1usebloyh4zyb-stroke" fill="none" stroke-linecap="round" stroke-linejoin="round" stroke-miterlimit="4" stroke="#fb6762" stroke-width="2" stroke-opacity="1"><g><path d="M 16 10C 12.6863 10 10 12.6863 10 16M 16 10L 244 10M 244 10C 247.3137 10 250 12.6863 250 16M 250.000015 52L 250.000015 16M 10 52L 10 16M 10 52C 10 55.3137 12.6863 58 16 58M 244 58L 16 58M 244 58C 247.3137 58 250 55.3137 250 52"></path></g></g></g><g id="g-root-cp_3_text-3_1hhkabgyh4ydg-stroke" data-item-order="-730207" transform="translate(356, 650)"><g id="cp_3_text-3_1hhkabgyh4ydg-stroke" fill="none" stroke-linecap="round" stroke-linejoin="round" stroke-miterlimit="4" stroke="#f366bb" stroke-width="2" stroke-opacity="1"><g><path d="M 16 10C 12.6863 10 10 12.6863 10 16M 16 10L 196 10M 196 10C 199.3137 10 202 12.6863 202 16M 202 76L 202 16M 10 76L 10 16M 10 76C 10 79.3137 12.6863 82 16 82M 196 82L 16 82M 196 82C 199.3137 82 202 79.3137 202 76"></path></g></g></g><g id="g-root-he_18lxa2kyh4z66-stroke" data-item-order="-730141" transform="translate(500, 149)"><g id="he_18lxa2kyh4z66-stroke" fill="none" stroke-linecap="round" stroke-linejoin="round" stroke-miterlimit="4" stroke="#f4f4f4" stroke-width="2" stroke-opacity="1"><style>.fillAsHole-mk-14157i4zb2cjr { fill:#2C2C2C; }</style><g><path d="M 10 289L 10 22C 10 15.37 15.37 10 22 10L 31 10"></path><path d="M 31 10C 31.000001 11.656854 32.343146 13 34.000001 13C 35.656855 13 37.000001 11.656854 37.000001 10C 37.000001 8.343146 35.656855 7 34.000001 7C 32.343146 7 31.000001 8.343146 31.000001 10Z" stroke-dasharray="none" class="fillAsHole-mk-14157i4zb2cjr" fill="#2C2C2C"></path></g></g></g><g id="g-root-he_1d1qs70yh4z5s-stroke" data-item-order="-730139" transform="translate(536, 194)"><g id="he_1d1qs70yh4z5s-stroke" fill="none" stroke-linecap="round" stroke-linejoin="round" stroke-miterlimit="4" stroke="#f4f4f4" stroke-width="2" stroke-opacity="1"><style>.fillAsStrokeColor-mk-14157i4zb2cjs { fill:#f4f4f4; }
.fillAsStrokeColor-mk-14157i4zb2cjt { fill:#f4f4f4; }
.fillAsStrokeColor-mk-14157i4zb2cju { fill:#f4f4f4; }</style><g><path d="M 10 10L 10 142C 10 148.627421 15.372583 154.000004 22 154.000004L 22 154M 10 34L 22 34M 10 94L 22 94"></path><path d="M 20.5 154C 20.5 154.828431 21.171573 155.500004 22 155.500004C 22.828427 155.500004 23.5 154.828431 23.5 154.000004C 23.5 153.171577 22.828427 152.500004 22 152.500004C 21.171573 152.500004 20.5 153.171577 20.5 154.000004Z" stroke-dasharray="none" class="fillAsStrokeColor-mk-14157i4zb2cjs" fill="#f4f4f4"></path><path d="M 20.5 34C 20.5 34.828428 21.171573 35.500001 22 35.500001C 22.828427 35.500001 23.5 34.828428 23.5 34.000001C 23.5 33.171574 22.828427 32.500001 22 32.500001C 21.171573 32.500001 20.5 33.171574 20.5 34.000001Z" stroke-dasharray="none" class="fillAsStrokeColor-mk-14157i4zb2cjt" fill="#f4f4f4"></path><path d="M 20.5 94C 20.5 94.82843 21.171573 95.500003 22 95.500003C 22.828427 95.500003 23.5 94.82843 23.5 94.000003C 23.5 93.171575 22.828427 92.500003 22 92.500003C 21.171573 92.500003 20.5 93.171575 20.5 94.000003Z" stroke-dasharray="none" class="fillAsStrokeColor-mk-14157i4zb2cju" fill="#f4f4f4"></path></g></g></g><g id="g-root-he_1463ry4yh4zyi-stroke" data-item-order="-730137" transform="translate(566, 455)"><g id="he_1463ry4yh4zyi-stroke" fill="none" stroke-linecap="round" stroke-linejoin="round" stroke-miterlimit="4" stroke="#f4f4f4" stroke-width="2" stroke-opacity="1"><style>.fillAsHole-mk-zlbpdozb2dc3 { fill:#2C2C2C; }</style><g><path d="M 10 70L 22 70C 28.63 70 34 64.63 34 58L 34 22C 34 15.37 39.37 10 46 10L 55 10"></path><path d="M 55 10C 55.000001 11.656854 56.343147 13 58.000001 13C 59.656856 13 61.000001 11.656854 61.000001 10C 61.000001 8.343146 59.656856 7 58.000001 7C 56.343147 7 55.000001 8.343146 55.000001 10Z" stroke-dasharray="none" class="fillAsHole-mk-zlbpdozb2dc3" fill="#2C2C2C"></path></g></g></g><g id="g-root-he_1463ry4yh4zyk-stroke" data-item-order="-730135" transform="translate(626, 476)"><g id="he_1463ry4yh4zyk-stroke" fill="none" stroke-linecap="round" stroke-linejoin="round" stroke-miterlimit="4" stroke="#f4f4f4" stroke-width="2" stroke-opacity="1"><style>.fillAsStrokeColor-mk-zlbpdozb2dc4 { fill:#f4f4f4; }
.fillAsStrokeColor-mk-zlbpdozb2dc5 { fill:#f4f4f4; }</style><g><path d="M 10 10L 10 82C 10 88.627419 15.372583 94.000003 22 94.000003L 22 94M 10 34L 22 34"></path><path d="M 20.5 94C 20.5 94.82843 21.171573 95.500003 22 95.500003C 22.828427 95.500003 23.5 94.82843 23.5 94.000003C 23.5 93.171575 22.828427 92.500003 22 92.500003C 21.171573 92.500003 20.5 93.171575 20.5 94.000003Z" stroke-dasharray="none" class="fillAsStrokeColor-mk-zlbpdozb2dc4" fill="#f4f4f4"></path><path d="M 20.5 34C 20.5 34.828428 21.171573 35.500001 22 35.500001C 22.828427 35.500001 23.5 34.828428 23.5 34.000001C 23.5 33.171574 22.828427 32.500001 22 32.500001C 21.171573 32.500001 20.5 33.171574 20.5 34.000001Z" stroke-dasharray="none" class="fillAsStrokeColor-mk-zlbpdozb2dc5" fill="#f4f4f4"></path></g></g></g><g id="g-root-he_1463ry4yh4zym-stroke" data-item-order="-730133" transform="translate(452, 602)"><g id="he_1463ry4yh4zym-stroke" fill="none" stroke-linecap="round" stroke-linejoin="round" stroke-miterlimit="4" stroke="#f4f4f4" stroke-width="2" stroke-opacity="1"><style>.fillAsHole-mk-zlbpdozb2dc6 { fill:#2C2C2C; }</style><g><path d="M 10 10L 10 55"></path><path d="M 7 58C 7 59.656856 8.343146 61.000001 10 61.000001C 11.656854 61.000001 13 59.656856 13 58.000001C 13 56.343147 11.656854 55.000001 10 55.000001C 8.343146 55.000001 7 56.343147 7 58.000001Z" stroke-dasharray="none" class="fillAsHole-mk-zlbpdozb2dc6" fill="#2C2C2C"></path></g></g></g><g id="g-root-he_zqa9toyh50qw-stroke" data-item-order="-730131" transform="translate(368, 722)"><g id="he_zqa9toyh50qw-stroke" fill="none" stroke-linecap="round" stroke-linejoin="round" stroke-miterlimit="4" stroke="#f4f4f4" stroke-width="2" stroke-opacity="1"><style>.fillAsStrokeColor-mk-qpop4szb2e4v { fill:#f4f4f4; }
.fillAsStrokeColor-mk-v5i798zb2e4g { fill:#f4f4f4; }</style><g><path d="M 10 10L 10 82C 10 88.627419 15.372583 94.000003 22 94.000003L 22 94M 10 34L 22 34"></path><path d="M 20.5 94C 20.5 94.82843 21.171573 95.500003 22 95.500003C 22.828427 95.500003 23.5 94.82843 23.5 94.000003C 23.5 93.171575 22.828427 92.500003 22 92.500003C 21.171573 92.500003 20.5 93.171575 20.5 94.000003Z" stroke-dasharray="none" class="fillAsStrokeColor-mk-qpop4szb2e4v" fill="#f4f4f4"></path><path d="M 20.5 34C 20.5 34.828428 21.171573 35.500001 22 35.500001C 22.828427 35.500001 23.5 34.828428 23.5 34.000001C 23.5 33.171574 22.828427 32.500001 22 32.500001C 21.171573 32.500001 20.5 33.171574 20.5 34.000001Z" stroke-dasharray="none" class="fillAsStrokeColor-mk-v5i798zb2e4g" fill="#f4f4f4"></path></g></g></g><g id="g-root-he_zqa9toyh50qy-stroke" data-item-order="-730129" transform="translate(290, 443)"><g id="he_zqa9toyh50qy-stroke" fill="none" stroke-linecap="round" stroke-linejoin="round" stroke-miterlimit="4" stroke="#f4f4f4" stroke-width="2" stroke-opacity="1"><style>.fillAsHole-mk-v5i798zb2e4h { fill:#2C2C2C; }</style><g><path d="M 58 82L 46 82C 39.37 82 34 76.63 34 70L 34 22C 34 15.37 28.63 10 22 10L 13 10"></path><path d="M 7 10C 7 11.656854 8.343146 13 10 13C 11.656854 13 13 11.656854 13 10C 13 8.343146 11.656854 7 10 7C 8.343146 7 7 8.343146 7 10Z" stroke-dasharray="none" class="fillAsHole-mk-v5i798zb2e4h" fill="#2C2C2C"></path></g></g></g><g id="g-root-he_vb38scyh4ydg-stroke" data-item-order="-730127" transform="translate(266, 464)"><g id="he_vb38scyh4ydg-stroke" fill="none" stroke-linecap="round" stroke-linejoin="round" stroke-miterlimit="4" stroke="#f4f4f4" stroke-width="2" stroke-opacity="1"><style>.fillAsStrokeColor-mk-v5i798zb2e4i { fill:#f4f4f4; }
.fillAsStrokeColor-mk-v5i798zb2e4j { fill:#f4f4f4; }</style><g><path d="M 22 10L 22 82C 22.000001 88.627419 16.627417 94.000003 10 94.000003L 10 94M 22 34L 10 34"></path><path d="M 8.5 94C 8.5 94.82843 9.171573 95.500003 10 95.500003C 10.828427 95.500003 11.5 94.82843 11.5 94.000003C 11.5 93.171575 10.828427 92.500003 10 92.500003C 9.171573 92.500003 8.5 93.171575 8.5 94.000003Z" stroke-dasharray="none" class="fillAsStrokeColor-mk-v5i798zb2e4i" fill="#f4f4f4"></path><path d="M 8.5 34C 8.5 34.828428 9.171573 35.500001 10 35.500001C 10.828427 35.500001 11.5 34.828428 11.5 34.000001C 11.5 33.171574 10.828427 32.500001 10 32.500001C 9.171573 32.500001 8.5 33.171574 8.5 34.000001Z" stroke-dasharray="none" class="fillAsStrokeColor-mk-v5i798zb2e4j" fill="#f4f4f4"></path></g></g></g><g id="g-root-he_vb38scyh4ydi-stroke" data-item-order="-730125" transform="translate(380, 173)"><g id="he_vb38scyh4ydi-stroke" fill="none" stroke-linecap="round" stroke-linejoin="round" stroke-miterlimit="4" stroke="#f4f4f4" stroke-width="2" stroke-opacity="1"><style>.fillAsHole-mk-v5i798zb2e4k { fill:#2C2C2C; }</style><g><path d="M 34 265L 34 22C 34 15.37 28.63 10 22 10L 13 10"></path><path d="M 7 10C 7 11.656854 8.343146 13 10 13C 11.656854 13 13 11.656854 13 10C 13 8.343146 11.656854 7 10 7C 8.343146 7 7 8.343146 7 10Z" stroke-dasharray="none" class="fillAsHole-mk-v5i798zb2e4k" fill="#2C2C2C"></path></g></g></g><g id="g-root-he_vb38scyh4ydk-stroke" data-item-order="-730123" transform="translate(356, 194)"><g id="he_vb38scyh4ydk-stroke" fill="none" stroke-linecap="round" stroke-linejoin="round" stroke-miterlimit="4" stroke="#f4f4f4" stroke-width="2" stroke-opacity="1"><style>.fillAsStrokeColor-mk-v5i798zb2e4l { fill:#f4f4f4; }
.fillAsStrokeColor-mk-v5i798zb2e4m { fill:#f4f4f4; }
.fillAsStrokeColor-mk-v5i798zb2e4n { fill:#f4f4f4; }</style><g><path d="M 22 10L 22 142C 22.000001 148.627421 16.627417 154.000004 10 154.000004L 10 154M 22 34L 10 34M 22 94L 10 94"></path><path d="M 8.5 154C 8.5 154.828431 9.171573 155.500004 10 155.500004C 10.828427 155.500004 11.5 154.828431 11.5 154.000004C 11.5 153.171577 10.828427 152.500004 10 152.500004C 9.171573 152.500004 8.5 153.171577 8.5 154.000004Z" stroke-dasharray="none" class="fillAsStrokeColor-mk-v5i798zb2e4l" fill="#f4f4f4"></path><path d="M 8.5 34C 8.5 34.828428 9.171573 35.500001 10 35.500001C 10.828427 35.500001 11.5 34.828428 11.5 34.000001C 11.5 33.171574 10.828427 32.500001 10 32.500001C 9.171573 32.500001 8.5 33.171574 8.5 34.000001Z" stroke-dasharray="none" class="fillAsStrokeColor-mk-v5i798zb2e4m" fill="#f4f4f4"></path><path d="M 8.5 94C 8.5 94.82843 9.171573 95.500003 10 95.500003C 10.828427 95.500003 11.5 94.82843 11.5 94.000003C 11.5 93.171575 10.828427 92.500003 10 92.500003C 9.171573 92.500003 8.5 93.171575 8.5 94.000003Z" stroke-dasharray="none" class="fillAsStrokeColor-mk-v5i798zb2e4n" fill="#f4f4f4"></path></g></g></g><g id="g-root-tx_auditabl_1qckth8yhj0ua-stroke" data-item-order="0" transform="translate(560, 326)"></g><g id="g-root-tx_complian_92qrzwyhg7wl-stroke" data-item-order="0" transform="translate(188, 326)"></g><g id="g-root-ic_buil_1hgxt8cyhj1n0-stroke" data-item-order="0" transform="translate(248, 425)"><g id="ic_buil_1hgxt8cyhj1n0-stroke" fill="none" stroke-linecap="round" stroke-linejoin="round" stroke-miterlimit="4" stroke="#cb68f9" stroke-width="2" stroke-opacity="1"><g><path d="M 13.125 39.375L 13.125 16.875M 15.625 19.375L 13.125 16.875L 10.625 19.375M 16.875 13.125L 39.375 13.125M 19.375 10.625L 16.875 13.125L 19.375 15.625M 36.875 15.625L 39.375 13.125L 36.875 10.625M 36.875 38.75C 36.875 39.095177 36.595177 39.375 36.25 39.375L 28.125 39.375L 28.125 22.137501C 28.124971 21.934277 28.223753 21.743727 28.389843 21.626617C 28.555933 21.50951 28.768591 21.480467 28.960001 21.54875L 36.459999 24.22625C 36.708885 24.315037 36.875034 24.550753 36.875 24.815001ZM 35.625 23.75L 35.625 20M 28.125 26.875L 31.875 26.875M 19.375 30.625L 23.125 30.625M 19.375 34.375L 23.125 34.375M 28.125 30.625L 33.75 30.625M 31.25 34.375L 33.75 34.375C 34.095177 34.375 34.375 34.654823 34.375 35L 34.375 39.375L 34.375 39.375L 30.625 39.375L 30.625 39.375L 30.625 35C 30.625 34.654823 30.904823 34.375 31.25 34.375ZM 28.125 26.875L 20 26.875C 19.654821 26.875 19.375 27.154823 19.375 27.5L 19.375 38.75C 19.375 39.095177 19.654821 39.375 20 39.375L 28.125 39.375"></path></g></g></g><g id="g-root-tx_scalabil_1hgxt8cyhj1mz-stroke" data-item-order="0" transform="translate(146, 428)"></g><g id="g-root-tx_automati_1qckth8yhj0u9-stroke" data-item-order="0" transform="translate(560, 266)"></g><g id="g-root-ic_acce_18f224cyhkf0o-stroke" data-item-order="0" transform="translate(416, 446)"><g id="ic_acce_18f224cyhkf0o-stroke" fill="none" stroke-linecap="round" stroke-linejoin="round" stroke-miterlimit="4" stroke="#b7b7b7" stroke-width="2" stroke-opacity="1"><g><path d="M 26.5 60.25C 26.500002 71.019554 35.23045 79.75 46 79.75C 56.769554 79.75 65.5 71.019554 65.5 60.25C 65.5 49.48045 56.769554 40.750004 46 40.750004C 35.23045 40.750004 26.500002 49.48045 26.500002 60.25M 40 60.25C 40 63.563713 42.686291 66.25 46 66.25C 49.313709 66.25 52 63.563713 52 60.25C 52 56.936291 49.313709 54.25 46 54.25C 42.686291 54.25 40 56.936291 40 60.25M 61 47.800003L 61 27.25C 61 18.965729 54.284271 12.25 46 12.25C 37.715729 12.25 31 18.965729 31 27.25L 31 31.75"></path></g></g></g><g id="g-root-tx_detailed_92qrzwyhg7wk-stroke" data-item-order="0" transform="translate(212, 266)"></g><g id="g-root-ic_2_zmjfb0yhkgzl-stroke" data-item-order="0" transform="translate(626, 437)"><g id="ic_2_zmjfb0yhkgzl-stroke" fill="none" stroke-linecap="round" stroke-linejoin="round" stroke-miterlimit="4" stroke="#fb6762" stroke-width="2" stroke-opacity="1"><g><path d="M 10 10M 33.665001 24.93725L 34.165001 26.56225C 34.290001 27.18725 34.915001 27.43725 35.540001 27.31225L 37.165001 26.93725C 38.665001 26.56225 39.665001 28.31225 38.665001 29.43725L 37.540001 30.687252C 37.165001 31.18725 37.165001 31.81225 37.540001 32.187248L 38.665001 33.437248C 39.665001 34.562248 38.665001 36.312252 37.165001 35.937248L 35.540001 35.562252C 34.915001 35.437248 34.415001 35.812248 34.165001 36.312252L 33.665001 37.937248C 33.165001 39.437252 31.164999 39.437252 30.790001 37.937248L 30.290001 36.312252C 30.165001 35.687252 29.540001 35.437248 28.915001 35.562252L 27.289999 35.937248C 25.790001 36.312252 24.789999 34.562248 25.790001 33.437248L 26.914999 32.187248C 27.289999 31.68725 27.289999 31.06225 26.914999 30.687252L 25.790001 29.43725C 24.789999 28.31225 25.790001 26.56225 27.289999 26.93725L 28.915001 27.31225C 29.540001 27.43725 30.039999 27.06225 30.290001 26.56225L 30.790001 24.93725C 31.164999 23.43725 33.290001 23.43725 33.665001 24.93725ZM 22.1875 18.4375L 22.1875 15.6875C 22.1875 13.0625 20.062511 10.9375 17.437511 10.9375C 14.812512 10.9375 12.687525 13.0625 12.687525 15.6875L 12.687525 18.4375M 17.1875 29.6875L 12.8125 29.6875C 11.8125 29.6875 10.9375 28.8125 10.9375 27.8125L 10.9375 20.3125C 10.9375 19.3125 11.8125 18.4375 12.8125 18.4375L 22.1875 18.4375C 23.1875 18.4375 24.0625 19.3125 24.0625 20.3125L 24.0625 22.1875M 20.687412 29.6875L 25.937374 29.6875M 18.4375 26.31225L 22.5625 26.31225M 32.227501 33.160252C 33.179249 33.160252 33.950752 32.388748 33.950752 31.436998C 33.950752 30.48525 33.179249 29.713749 32.227501 29.713749C 31.275749 29.713749 30.50425 30.48525 30.50425 31.436998C 30.50425 32.388748 31.275749 33.160252 32.227501 33.160252Z"></path></g></g></g><g id="g-root-tx_machiner_1qckth8yhj0u8-stroke" data-item-order="0" transform="translate(560, 206)"></g><g id="g-root-tx_centrali_92qrzwyhg7wj-stroke" data-item-order="0" transform="translate(176, 206)"></g><g id="g-root-tx_enhanced_18gb0akyhn7ya-stroke" data-item-order="0" transform="translate(662, 440)"></g><g id="g-root-tx_governan_1usebloyhj01z-stroke" data-item-order="0" transform="translate(572, 134)"></g><g id="g-root-tx_accommod_1lpw3ekyhkglh-stroke" data-item-order="0" transform="translate(98, 476)"></g><g id="g-root-tx_finegrai_zko01oyhn8qz-stroke" data-item-order="0" transform="translate(650, 488)"></g><g id="g-root-tx_improved_hzmqf0yh4zyi-stroke" data-item-order="0" transform="translate(128, 158)"></g><g id="g-root-tx_minimali_1cu935oyhkhe6-stroke" data-item-order="0" transform="translate(122, 536)"></g><g id="g-root-tx_policyba_1cu935oyhkhe7-stroke" data-item-order="0" transform="translate(362, 530)"></g><g id="g-root-tx_reduceda_zko01oyhn8r0-stroke" data-item-order="0" transform="translate(650, 548)"></g><g id="g-root-ic_bloc_73rr0yhg8pa-stroke" data-item-order="0" transform="translate(536, 143)"><g id="ic_bloc_73rr0yhg8pa-stroke" fill="none" stroke-linecap="round" stroke-linejoin="round" stroke-miterlimit="4" stroke="#f79438" stroke-width="2" stroke-opacity="1"><g><path d="M 19.6875 28.25C 19.6875 29 19.1875 29.5 18.4375 29.5L 12.1875 29.5C 11.4375 29.5 10.9375 29 10.9375 28.25L 10.9375 21.25C 10.9375 20.5 11.4375 20 12.1875 20L 18.4375 20C 19.1875 20 19.6875 20.5 19.6875 21.25L 19.6875 28.25ZM 32.1875 28.25C 32.1875 29 31.6875 29.5 30.9375 29.5L 24.6875 29.5C 23.9375 29.5 23.4375 29 23.4375 28.25L 23.4375 21.25C 23.4375 20.5 23.9375 20 24.6875 20L 30.9375 20C 31.6875 20 32.1875 20.5 32.1875 21.25L 32.1875 28.25ZM 14.437412 16.124989C 16.937412 13.124988 20.687401 11.25 24.937374 11.25C 28.937376 11.25 32.562374 13 35.062374 15.625M 36.0625 33.125C 33.5625 36.5 29.5625 38.75 25.0625 38.75C 20.562525 38.75 16.5625 36.5 14.0625 33.125M 19.6875 24.749874L 23.4375 24.749874M 32.1875 24.749874L 39.0625 24.749874L 36.5625 22.249912M 10 10M 39.0625 24.749874L 36.5625 27.249874M 15.312537 26.12875C 16.074038 26.12875 16.691362 25.511499 16.691362 24.75C 16.691362 23.988499 16.074038 23.371126 15.312537 23.371126C 14.551038 23.371126 13.933713 23.988499 13.933713 24.75C 13.933713 25.511499 14.551038 26.12875 15.312537 26.12875ZM 27.8125 26.12875C 28.573999 26.12875 29.191376 25.511499 29.191376 24.75C 29.191376 23.988499 28.573999 23.371126 27.8125 23.371126C 27.051001 23.371126 26.43375 23.988499 26.43375 24.75C 26.43375 25.511499 27.051001 26.12875 27.8125 26.12875Z"></path></g></g></g><g id="g-root-ic_appr_djt8akyh50qr-stroke" data-item-order="0" transform="translate(338, 155)"><g id="ic_appr_djt8akyh50qr-stroke" fill="none" stroke-linecap="round" stroke-linejoin="round" stroke-miterlimit="4" stroke="#8769fd" stroke-width="2" stroke-opacity="1"><g><path d="M 39.375 37.5L 38.125 35.0825L 38.125 29.375C 38.177498 27.1525 35.52375 25.171249 33.125 23.125M 35.02375 31.875L 31.835001 28.616249C 31.448086 28.213539 30.875053 28.049019 30.333435 28.185146C 29.791819 28.321274 29.364666 28.737173 29.21413 29.274963C 29.063595 29.812754 29.212761 30.389975 29.605001 30.787502L 33.125 34.375L 33.125 36.25C 33.316418 37.368221 33.742424 38.433243 34.375 39.375M 10.625 12.5L 11.875 14.9175L 11.875 20.625C 11.8225 22.8475 14.47625 24.828751 16.875 26.875M 14.97625 18.125L 18.165001 21.383751C 18.551916 21.786463 19.124949 21.950981 19.666565 21.814854C 20.208183 21.678728 20.635336 21.262829 20.78587 20.725037C 20.936405 20.187246 20.787241 19.610027 20.395 19.2125L 16.875 15.625L 16.875 13.75C 16.683584 12.631779 16.257576 11.566757 15.625 10.625M 16.875 20.065001L 16.875 38.75C 16.875 39.095177 17.154821 39.375 17.5 39.375L 31.25 39.375M 23.75 13.125L 19.375 13.125M 33.125 29.934999L 33.125 22.5M 26.25 29.375L 19.375 29.375M 30.625 25.625L 19.375 25.625M 25 33.125L 19.375 33.125M 35.625 15.625C 35.625 18.386423 33.386425 20.625 30.625 20.625C 27.863577 20.625 25.625 18.386423 25.625 15.625C 25.625 12.863576 27.863577 10.625 30.625 10.625M 35.625 11.875L 31.067501 16.432499C 30.950245 16.550053 30.791035 16.616117 30.625 16.616117C 30.458965 16.616117 30.299755 16.550053 30.182499 16.432499L 28.75 15"></path></g></g></g><g id="g-root-ic_mana_v4uhx8yhn9j9-stroke" data-item-order="0" transform="translate(368, 671)"><g id="ic_mana_v4uhx8yhn9j9-stroke" fill="none" stroke-linecap="round" stroke-linejoin="round" stroke-miterlimit="4" stroke="#f366bb" stroke-width="2" stroke-opacity="1"><g><path d="M 22.5 36.875C 22.5 38.255714 23.619287 39.375 25 39.375C 26.380713 39.375 27.5 38.255714 27.5 36.875C 27.5 35.494286 26.380713 34.375 25 34.375C 23.619287 34.375 22.5 35.494286 22.5 36.875M 25 39.375C 23.992111 39.37077 23.085337 38.761719 22.700207 37.830303C 22.315077 36.898888 22.526924 35.827301 23.237499 35.112499L 35.112499 23.237499C 36.104401 22.388058 37.582985 22.445169 38.506409 23.368591C 39.429832 24.292015 39.486942 25.770599 38.637501 26.762501L 26.762501 38.637501C 26.295813 39.106983 25.661972 39.372208 25 39.375ZM 22.5 13.125C 22.5 14.505712 23.619287 15.625 25 15.625C 26.380713 15.625 27.5 14.505712 27.5 13.125C 27.5 11.744288 26.380713 10.625 25 10.625C 23.619287 10.625 22.5 11.744288 22.5 13.125M 22.5 25C 22.5 26.380713 23.619287 27.5 25 27.5C 26.380713 27.5 27.5 26.380713 27.5 25C 27.5 23.619287 26.380713 22.5 25 22.5C 23.619287 22.5 22.5 23.619287 22.5 25M 25 10.625C 26.007889 10.629231 26.914663 11.238282 27.299793 12.169697C 27.684923 13.101111 27.473076 14.1727 26.762501 14.8875L 14.8875 26.762501C 13.912406 27.731808 12.337594 27.731808 11.3625 26.762501C 10.393191 25.787407 10.393191 24.212593 11.3625 23.237499L 23.237499 11.3625C 23.704187 10.893015 24.338028 10.627791 25 10.625ZM 30.9375 16.5625C 31.945389 16.566732 32.852165 17.175783 33.237293 18.107197C 33.622425 19.038612 33.410576 20.110201 32.700001 20.825001L 20.825001 32.700001C 19.833099 33.549442 18.354515 33.492332 17.431091 32.568909C 16.507669 31.645487 16.450558 30.166901 17.299999 29.174999L 29.174999 17.299999C 29.641687 16.830515 30.275528 16.56529 30.9375 16.5625Z"></path></g></g></g><g id="g-root-tx_streamli_qn5np8yh3kzq-stroke" data-item-order="0" transform="translate(404, 662)"></g><g id="g-root-tx_benefits_qv9qnwyh4z5t-stroke" data-item-order="0" transform="translate(218, 38)"></g><g id="g-root-tx_centrali_hringcyh3lsf-stroke" data-item-order="0" transform="translate(392, 734)"></g><g id="g-root-tx_simplifi_m7c5ksyh3ls0-stroke" data-item-order="0" transform="translate(392, 794)"></g></g></g><path id="w1d1r4ukv5nw22" d="M65.283 12.757a.35.35 0 0 0 .584.157l5.203-5.141-6.183 3.523.396 1.461zm-2.216-11.7a.35.35 0 0 0-.522.305v3.111l3.276-1.868-2.754-1.548zm3.728 2.105l-4.25 2.421v2.445l6.391-3.644-2.141-1.222zm4.708 3.303a.35.35 0 0 0 0-.609l-1.592-.9-7.365 4.199v1.782a.35.35 0 0 0 .523.305l8.435-4.777z M44.542 2.513c0-.433.355-.783.792-.783s.792.35.792.783-.355.783-.792.783-.792-.35-.792-.783zm59.171 0c0-.433.355-.783.792-.783s.792.35.792.783-.355.783-.792.783-.792-.35-.792-.783zm-85.951 7.636h-1.27v-.487c-.276.201-.864.609-1.881.609-1.202 0-2.274-.794-2.137-2.078.118-1.106 1.153-1.584 1.848-1.727l2.17-.345c0-.539-.29-.956-1.064-1.006s-1.21.305-1.571 1.017l-1.124-.605c1.218-2.631 5.029-1.764 5.029.414v4.207zm-1.27-2.86c.006.396-.062 1.112-.819 1.59-.587.37-1.841.299-1.903-.395-.049-.555.461-.791.906-.898l1.816-.297zm72.662 2.86h-1.27v-.487c-.276.201-.864.609-1.881.609-1.202 0-2.274-.794-2.137-2.078.118-1.106 1.153-1.584 1.848-1.727l2.17-.345c0-.539-.29-.956-1.064-1.006s-1.21.305-1.571 1.017l-1.124-.605c1.218-2.631 5.029-1.764 5.029.414v4.207zm-1.27-2.86c.006.396-.062 1.112-.82 1.59-.587.37-1.841.299-1.903-.395-.049-.555.461-.791.906-.898l1.816-.297zM99.096 10.149H97.85v-8.45h1.246v4.895l2.68-2.559h1.738l-2.633 2.535 2.715 3.578h-1.556l-2.077-2.707-.867.844v1.863zm6.053-6.114h-1.255v6.113h1.255V4.035zm-59.2 0h-1.255v6.113h1.255V4.035zm5.584 6.113V1.697h1.255v2.695c.361-.346 1-.485 1.47-.485 1.452 0 2.477 1.082 2.457 2.448v3.792h-1.27v-3.68c0-.408-.214-1.339-1.315-1.339-.968 0-1.342.756-1.342 1.339v3.681h-1.255zm-4.76-4.894V4.039h.621a.45.45 0 0 0 .45-.45v-.855h1.251v1.305h1.309v1.215h-1.309v3.109c0 .293.105.664.648.664.365 0 .531-.035.736-.07v1.137s-.361.113-.857.113c-1.398 0-1.777-1.051-1.777-1.788V5.254h-1.071zM36.528 4.039h-1.394l2.191 6.106h1.125l1.234-3.918 1.238 3.918h1.129l2.188-6.106h-1.383l-1.359 3.93-1.256-3.93h-1.124l-1.242 3.957-1.348-3.957zM26.212 7.141c-.02 1.566 1.187 3.129 3.223 3.129 1.566 0 2.383-.918 2.734-1.719L31.172 8c-.315.399-.801 1.094-1.738 1.094-1.145 0-1.825-.781-1.891-1.52h4.625c.074-.284.148-.995-.03-1.559-.336-1.064-1.221-2.102-2.839-2.102s-3.088 1.152-3.088 3.227zm1.363-.75h3.348c-.055-.43-.566-1.301-1.623-1.301a1.79 1.79 0 0 0-1.725 1.301zm-8.758.75c.038 1.758 1.277 3.133 3.145 3.133 1.074 0 1.723-.477 1.961-.672v.547h1.242V1.703h-1.258v2.888c-.414-.36-1.062-.68-1.93-.68-1.91 0-3.198 1.473-3.16 3.23zm1.309-.08c0 1.119.723 1.978 1.836 1.978a1.88 1.88 0 0 0 1.94-1.904c0-1.371-1.011-1.99-1.972-1.99s-1.805.798-1.805 1.916zm76.683-.028C96.771 5.275 95.532 3.9 93.664 3.9c-1.074 0-1.723.477-1.961.672v-.547h-1.242v8.22h1.258V9.583c.414.36 1.063.68 1.93.68 1.91 0 3.198-1.473 3.16-3.23zm-1.309.08c0-1.119-.723-1.978-1.836-1.978a1.88 1.88 0 0 0-1.94 1.904c0 1.371 1.011 1.99 1.972 1.99S95.5 8.231 95.5 7.113zM106.441 10.173V4.036h1.254v.382c.361-.346 1-.485 1.47-.485 1.452 0 2.477 1.082 2.457 2.448v3.792h-1.27V6.492c0-.408-.214-1.339-1.315-1.339-.969 0-1.342.756-1.342 1.339v3.681h-1.254zm-30.383-.021V1.824h1.084l4.215 5.777V1.824h1.32v8.328h-1.094l-4.207-5.796v5.796h-1.319zM5.24 10.149H4V2.377h1.014l2.664 3.597 2.654-3.592h1.03v7.766h-1.256V4.762L7.678 8.068 5.24 4.742v5.407z" transform="translate(788, 896)" fill="#ababab88" stroke="none"></path></svg>