<?xml version="1.0" encoding="utf-8" standalone="yes"?>
<!DOCTYPE svg PUBLIC "-//W3C//DTD SVG 1.1//EN" "http://www.w3.org/Graphics/SVG/1.1/DTD/svg11.dtd">
<svg style="fill:none;stroke:none;fill-rule:evenodd;clip-rule:evenodd;stroke-linecap:round;stroke-linejoin:round;stroke-miterlimit:1.5;" version="1.1" xmlns="http://www.w3.org/2000/svg" xmlns:xlink="http://www.w3.org/1999/xlink" width="876" height="702" viewBox="0 0 876 702"><style class="text-font-style fontImports" data-font-family="Roboto">@import url(https://fonts.googleapis.com/css2?family=Roboto:wght@400;700&amp;amp;display=block);</style><g id="items" style="isolation: isolate"><g id="blend" style="mix-blend-mode: normal"><g id="g-root-cp_6_g-6_v2zihlxd9g5d-fill" data-item-order="-501751" transform="translate(224, 122)"></g><g id="g-root-cp_1_g-1_m7ci8pxd9gy2-fill" data-item-order="-501685" transform="translate(500, 128)"></g><g id="g-root-cp_5_g-5_hs5h7dxd9ekj-fill" data-item-order="-501617" transform="translate(170, 284)"></g><g id="g-root-cp_-1_parent-6-part_8wigyhxd9fd8-fill" data-item-order="-501555" transform="translate(314, 329)"></g><g id="g-root-cp_2_g-2_4goyu1xd9g5h-fill" data-item-order="-501491" transform="translate(590, 299)"></g><g id="g-root-cp_4_g-4_1um60k9xd9gr2-fill" data-item-order="-501423" transform="translate(164, 470)"></g><g id="g-root-cp_3_g-3_1um60k9xd9gr3-fill" data-item-order="-501357" transform="translate(500, 470)"></g><g id="g-root-he_1q6yzixxd9edl-fill" data-item-order="-501295" transform="translate(476, 152)"></g><g id="g-root-he_1q6yzixxd9edn-fill" data-item-order="-501293" transform="translate(512, 176)"></g><g id="g-root-he_1q6yzixxd9edp-fill" data-item-order="-501291" transform="translate(542, 323)"></g><g id="g-root-he_1q6yzixxd9edr-fill" data-item-order="-501289" transform="translate(602, 347)"></g><g id="g-root-he_1umshndxd9edd-fill" data-item-order="-501287" transform="translate(476, 389)"></g><g id="g-root-he_1umshndxd9edf-fill" data-item-order="-501285" transform="translate(512, 518)"></g><g id="g-root-he_1umshndxd9edh-fill" data-item-order="-501283" transform="translate(356, 389)"></g><g id="g-root-he_1lr5hehxd9f67-fill" data-item-order="-501281" transform="translate(332, 518)"></g><g id="g-root-he_1q6yzixxd9f5t-fill" data-item-order="-501279" transform="translate(266, 308)"></g><g id="g-root-he_1q6yzixxd9f5v-fill" data-item-order="-501277" transform="translate(242, 332)"></g><g id="g-root-he_1q6yzixxd9f5x-fill" data-item-order="-501275" transform="translate(356, 146)"></g><g id="g-root-he_1hbbza1xd9fyn-fill" data-item-order="-501273" transform="translate(332, 170)"></g><g id="g-root-tx_roles_140hxztxd9f5v-fill" data-item-order="0" transform="translate(602, 311)"><g id="tx_roles_140hxztxd9f5v-fill-merged" stroke="none" fill="#ffe9e8" fill-opacity="1"><g><text style="font: 20px &quot;Roboto&quot;, sans-serif; white-space: pre;" transform="translate(10, 22)" font-size="20px" font-family="'Roboto', sans-serif"><tspan x="2" y="12" dominant-baseline="ideographic">Roles</tspan></text></g></g></g><g id="g-root-tx_scopes_18gbg49xd9edj-fill" data-item-order="0" transform="translate(182, 296)"><g id="tx_scopes_18gbg49xd9edj-fill-merged" stroke="none" fill="#f1eeff" fill-opacity="1"><g><text style="font: 20px &quot;Roboto&quot;, sans-serif; white-space: pre;" transform="translate(82, 22)" font-size="20px" font-family="'Roboto', sans-serif"><tspan x="-67.9" y="12" dominant-baseline="ideographic">Scopes</tspan></text></g></g></g><g id="g-root-tx_oauthsco_18gbg49xd9edk-fill" data-item-order="0" transform="translate(98, 344)"><g id="tx_oauthsco_18gbg49xd9edk-fill-merged" stroke="none" fill="#f4f4f4" fill-opacity="1"><g><text style="font: 20px &quot;Roboto&quot;, sans-serif; white-space: pre;" transform="translate(142, 22)" font-size="20px" font-family="'Roboto', sans-serif"><tspan x="-127.95" y="12" dominant-baseline="ideographic">OAuth Scopes</tspan></text></g></g></g><g id="g-root-tx_policydo_140hxztxd9f5u-fill" data-item-order="0" transform="translate(344, 341)"><g id="tx_policydo_140hxztxd9f5u-fill-merged" stroke="none" fill="#b7b7b7" fill-opacity="1"><g><text style="font: 25px &quot;Roboto&quot;, sans-serif; white-space: pre;" transform="translate(94, 28)" font-size="25px" font-family="'Roboto', sans-serif"><tspan x="-76.5" y="15" dominant-baseline="ideographic">PolicyDomain</tspan></text></g></g></g><g id="g-root-tx_accessco_18gbg49xd9edi-fill" data-item-order="0" transform="translate(536, 218)"><g id="tx_accessco_18gbg49xd9edi-fill-merged" stroke="none" fill="#f4f4f4" fill-opacity="1"><g><text style="font: 20px &quot;Roboto&quot;, sans-serif; white-space: pre;" transform="translate(10, 22)" font-size="20px" font-family="'Roboto', sans-serif"><tspan x="2" y="12" dominant-baseline="ideographic">Access Control</tspan></text></g></g></g><g id="g-root-tx_userperm_v4uxqxxd9fyk-fill" data-item-order="0" transform="translate(626, 353)"><g id="tx_userperm_v4uxqxxd9fyk-fill-merged" stroke="none" fill="#f4f4f4" fill-opacity="1"><g><text style="font: 20px &quot;Roboto&quot;, sans-serif; white-space: pre;" transform="translate(10, 22)" font-size="20px" font-family="'Roboto', sans-serif"><tspan x="2" y="12" dominant-baseline="ideographic">User Permissions</tspan></text></g></g></g><g id="g-root-tx_policyse_1cvih5lxd9gqz-fill" data-item-order="0" transform="translate(164, 218)"><g id="tx_policyse_1cvih5lxd9gqz-fill-merged" stroke="none" fill="#f4f4f4" fill-opacity="1"><g><text style="font: 20px &quot;Roboto&quot;, sans-serif; white-space: pre;" transform="translate(166, 22)" font-size="20px" font-family="'Roboto', sans-serif"><tspan x="-142.8" y="12" dominant-baseline="ideographic">Policy Selection</tspan></text></g></g></g><g id="g-root-tx_roleaggr_m9uel5xd9edf-fill" data-item-order="0" transform="translate(536, 584)"><g id="tx_roleaggr_m9uel5xd9edf-fill-merged" stroke="none" fill="#f4f4f4" fill-opacity="1"><g><text style="font: 20px &quot;Roboto&quot;, sans-serif; white-space: pre;" transform="translate(10, 22)" font-size="20px" font-family="'Roboto', sans-serif"><tspan x="2" y="12" dominant-baseline="ideographic">Role Aggregation</tspan></text></g></g></g><g id="g-root-tx_permissi_18gbg49xd9edl-fill" data-item-order="0" transform="translate(122, 380)"><g id="tx_permissi_18gbg49xd9edl-fill-merged" stroke="none" fill="#f4f4f4" fill-opacity="1"><g><text style="font: 20px &quot;Roboto&quot;, sans-serif; white-space: pre;" transform="translate(118, 34)" font-size="20px" font-family="'Roboto', sans-serif"><tspan x="-102.22" y="0" dominant-baseline="ideographic">Permission </tspan><tspan x="-102.68" y="24" dominant-baseline="ideographic">Boundaries</tspan></text></g></g></g><g id="g-root-tx_rolebase_v4uxqxxd9fyl-fill" data-item-order="0" transform="translate(626, 389)"><g id="tx_rolebase_v4uxqxxd9fyl-fill-merged" stroke="none" fill="#f4f4f4" fill-opacity="1"><g><text style="font: 20px &quot;Roboto&quot;, sans-serif; white-space: pre;" transform="translate(10, 22)" font-size="20px" font-family="'Roboto', sans-serif"><tspan x="2" y="12" dominant-baseline="ideographic">Role-Based Access</tspan></text></g></g></g><g id="g-root-tx_requestr_1cvih5lxd9gqy-fill" data-item-order="0" transform="translate(164, 182)"><g id="tx_requestr_1cvih5lxd9gqy-fill-merged" stroke="none" fill="#f4f4f4" fill-opacity="1"><g><text style="font: 20px &quot;Roboto&quot;, sans-serif; white-space: pre;" transform="translate(166, 22)" font-size="20px" font-family="'Roboto', sans-serif"><tspan x="-148.2" y="12" dominant-baseline="ideographic">Request Routing</tspan></text></g></g></g><g id="g-root-tx_resource_v4uxqxxd9fym-fill" data-item-order="0" transform="translate(176, 482)"><g id="tx_resource_v4uxqxxd9fym-fill-merged" stroke="none" fill="#faeeff" fill-opacity="1"><g><text style="font: 20px &quot;Roboto&quot;, sans-serif; white-space: pre;" transform="translate(178, 22)" font-size="20px" font-family="'Roboto', sans-serif"><tspan x="-154.48" y="12" dominant-baseline="ideographic">Resource Groups</tspan></text></g></g></g><g id="g-root-tx_policies_1cvih5lxd9gr0-fill" data-item-order="0" transform="translate(512, 140)"><g id="tx_policies_1cvih5lxd9gr0-fill-merged" stroke="none" fill="#fff0e2" fill-opacity="1"><g><text style="font: 20px &quot;Roboto&quot;, sans-serif; white-space: pre;" transform="translate(10, 22)" font-size="20px" font-family="'Roboto', sans-serif"><tspan x="2" y="12" dominant-baseline="ideographic">Policies</tspan></text></g></g></g><g id="g-root-tx_groups_qp1fmhxd9gqx-fill" data-item-order="0" transform="translate(512, 482)"><g id="tx_groups_qp1fmhxd9gqx-fill-merged" stroke="none" fill="#ffe8f6" fill-opacity="1"><g><text style="font: 20px &quot;Roboto&quot;, sans-serif; white-space: pre;" transform="translate(10, 22)" font-size="20px" font-family="'Roboto', sans-serif"><tspan x="2" y="12" dominant-baseline="ideographic">Groups</tspan></text></g></g></g><g id="g-root-tx_operatio_1lr5hehxd9fy9-fill" data-item-order="0" transform="translate(236, 134)"><g id="tx_operatio_1lr5hehxd9fy9-fill-merged" stroke="none" fill="#ebf2ff" fill-opacity="1"><g><text style="font: 20px &quot;Roboto&quot;, sans-serif; white-space: pre;" transform="translate(118, 22)" font-size="20px" font-family="'Roboto', sans-serif"><tspan x="-99.05" y="12" dominant-baseline="ideographic">Operations</tspan></text></g></g></g><g id="g-root-tx_policydo_1lr5hehxd9fy8-fill" data-item-order="0" transform="translate(272, 38)"><g id="tx_policydo_1lr5hehxd9fy8-fill-merged" stroke="none" fill="#f4f4f4" fill-opacity="1"><g><text style="font: bold 25px &quot;Roboto&quot;, sans-serif; white-space: pre;" transform="translate(166, 28)" font-weight="bold" font-size="25px" font-family="'Roboto', sans-serif"><tspan x="-152.15" y="15" dominant-baseline="ideographic">PolicyDomain Components</tspan></text></g></g></g><g id="g-root-tx_resource_qp1fmhxd9gqv-fill" data-item-order="0" transform="translate(164, 530)"><g id="tx_resource_qp1fmhxd9gqv-fill-merged" stroke="none" fill="#f4f4f4" fill-opacity="1"><g><text style="font: 20px &quot;Roboto&quot;, sans-serif; white-space: pre;" transform="translate(166, 34)" font-size="20px" font-family="'Roboto', sans-serif"><tspan x="-146.42" y="0" dominant-baseline="ideographic">Resource-Based </tspan><tspan x="-67.22" y="24" dominant-baseline="ideographic">Access</tspan></text></g></g></g><g id="g-root-tx_organiza_qp1fmhxd9gqy-fill" data-item-order="0" transform="translate(536, 524)"><g id="tx_organiza_qp1fmhxd9gqy-fill-merged" stroke="none" fill="#f4f4f4" fill-opacity="1"><g><text style="font: 20px &quot;Roboto&quot;, sans-serif; white-space: pre;" transform="translate(10, 34)" font-size="20px" font-family="'Roboto', sans-serif"><tspan x="2" y="0" dominant-baseline="ideographic">Organizational </tspan><tspan x="2" y="24" dominant-baseline="ideographic">Structure</tspan></text></g></g></g><g id="g-root-tx_policyas_qp1fmhxd9gqw-fill" data-item-order="0" transform="translate(140, 590)"><g id="tx_policyas_qp1fmhxd9gqw-fill-merged" stroke="none" fill="#f4f4f4" fill-opacity="1"><g><text style="font: 20px &quot;Roboto&quot;, sans-serif; white-space: pre;" transform="translate(190, 22)" font-size="20px" font-family="'Roboto', sans-serif"><tspan x="-177.4" y="12" dominant-baseline="ideographic">Policy Assignments</tspan></text></g></g></g><g id="g-root-tx_regolang_1cvih5lxd9gr1-fill" data-item-order="0" transform="translate(536, 182)"><g id="tx_regolang_1cvih5lxd9gr1-fill-merged" stroke="none" fill="#f4f4f4" fill-opacity="1"><g><text style="font: 20px &quot;Roboto&quot;, sans-serif; white-space: pre;" transform="translate(10, 22)" font-size="20px" font-family="'Roboto', sans-serif"><tspan x="2" y="12" dominant-baseline="ideographic">Rego Language</tspan></text></g></g></g><g id="g-root-cp_6_g-6_v2zihlxd9g5d-stroke" data-item-order="-501751" transform="translate(224, 122)"><g id="cp_6_g-6_v2zihlxd9g5d-stroke" fill="none" stroke-linecap="round" stroke-linejoin="round" stroke-miterlimit="4" stroke="#4f91fc" stroke-width="2" stroke-opacity="1"><g><path d="M 16 10C 12.6863 10 10 12.6863 10 16M 16 10L 136.000008 10M 136 10C 139.3137 10 142 12.6863 142 16M 142 52L 142 16M 10 52L 10 16M 10 52C 10 55.3137 12.6863 58 16 58M 136.000008 58L 16 58M 136 58C 139.3137 58 142 55.3137 142 52"></path></g></g></g><g id="g-root-cp_1_g-1_m7ci8pxd9gy2-stroke" data-item-order="-501685" transform="translate(500, 128)"><g id="cp_1_g-1_m7ci8pxd9gy2-stroke" fill="none" stroke-linecap="round" stroke-linejoin="round" stroke-miterlimit="4" stroke="#f79438" stroke-width="2" stroke-opacity="1"><g><path d="M 112 10C 115.3137 10 118 12.6863 118 16M 112 10L 16 10M 16 10C 12.6863 10 10 12.6863 10 16M 10 52L 10 16M 118 52L 118 16M 118 52C 118 55.3137 115.3137 58 112 58M 16 58L 112 58M 16 58C 12.6863 58 10 55.3137 10 52"></path></g></g></g><g id="g-root-cp_5_g-5_hs5h7dxd9ekj-stroke" data-item-order="-501617" transform="translate(170, 284)"><g id="cp_5_g-5_hs5h7dxd9ekj-stroke" fill="none" stroke-linecap="round" stroke-linejoin="round" stroke-miterlimit="4" stroke="#8769fd" stroke-width="2" stroke-opacity="1"><g><path d="M 16 10C 12.6863 10 10 12.6863 10 16M 16 10L 100 10M 100 10C 103.3137 10 106 12.6863 106 16M 106 52L 106 16M 10 52L 10 16M 10 52C 10 55.3137 12.6863 58 16 58M 100 58L 16 58M 100 58C 103.3137 58 106 55.3137 106 52"></path></g></g></g><g id="g-root-cp_-1_parent-6-part_8wigyhxd9fd8-stroke" data-item-order="-501555" transform="translate(314, 329)"><g id="cp_-1_parent-6-part_8wigyhxd9fd8-stroke" fill="none" stroke-linecap="round" stroke-linejoin="round" stroke-miterlimit="4" stroke="#f4f4f4" stroke-width="2" stroke-opacity="1"><g><path d="M 16 10C 12.6863 10 10 12.6863 10 16M 16 10L 232 10M 232 10C 235.3137 10 238 12.6863 238 16M 238 64L 238 16M 10 64L 10 16M 10 64C 10 67.3137 12.6863 70 16 70M 232 70L 16 70M 232 70C 235.3137 70 238 67.3137 238 64"></path></g></g></g><g id="g-root-cp_2_g-2_4goyu1xd9g5h-stroke" data-item-order="-501491" transform="translate(590, 299)"><g id="cp_2_g-2_4goyu1xd9g5h-stroke" fill="none" stroke-linecap="round" stroke-linejoin="round" stroke-miterlimit="4" stroke="#fb6762" stroke-width="2" stroke-opacity="1"><g><path d="M 88 10C 91.3137 10 94 12.6863 94 16M 88 10L 16 10M 16 10C 12.6863 10 10 12.6863 10 16M 10 52L 10 16M 94 52L 94 16M 94 52C 94 55.3137 91.3137 58 88 58M 16 58L 88 58M 16 58C 12.6863 58 10 55.3137 10 52"></path></g></g></g><g id="g-root-cp_4_g-4_1um60k9xd9gr2-stroke" data-item-order="-501423" transform="translate(164, 470)"><g id="cp_4_g-4_1um60k9xd9gr2-stroke" fill="none" stroke-linecap="round" stroke-linejoin="round" stroke-miterlimit="4" stroke="#cb68f9" stroke-width="2" stroke-opacity="1"><g><path d="M 16 10C 12.6863 10 10 12.6863 10 16M 16 10L 196 10M 196 10C 199.3137 10 202 12.6863 202 16M 202 52L 202 16M 10 52L 10 16M 10 52C 10 55.3137 12.6863 58 16 58M 196 58L 16 58M 196 58C 199.3137 58 202 55.3137 202 52"></path></g></g></g><g id="g-root-cp_3_g-3_1um60k9xd9gr3-stroke" data-item-order="-501357" transform="translate(500, 470)"><g id="cp_3_g-3_1um60k9xd9gr3-stroke" fill="none" stroke-linecap="round" stroke-linejoin="round" stroke-miterlimit="4" stroke="#f366bb" stroke-width="2" stroke-opacity="1"><g><path d="M 100 10C 103.3137 10 106 12.6863 106 16M 100 10L 16 10M 16 10C 12.6863 10 10 12.6863 10 16M 10 52L 10 16M 106 52L 106 16M 106 52C 106 55.3137 103.3137 58 100 58M 16 58L 100 58M 16 58C 12.6863 58 10 55.3137 10 52"></path></g></g></g><g id="g-root-he_1q6yzixxd9edl-stroke" data-item-order="-501295" transform="translate(476, 152)"><g id="he_1q6yzixxd9edl-stroke" fill="none" stroke-linecap="round" stroke-linejoin="round" stroke-miterlimit="4" stroke="#f4f4f4" stroke-width="2" stroke-opacity="1"><style>.fillAsHole-mk-1cy07a1yrk26l { fill:#2C2C2C; }</style><g><path d="M 10 187L 10 22C 10 15.37 15.37 10 22 10L 31 10"></path><path d="M 31 10C 31.000001 11.656854 32.343146 13 34.000001 13C 35.656855 13 37.000001 11.656854 37.000001 10C 37.000001 8.343146 35.656855 7 34.000001 7C 32.343146 7 31.000001 8.343146 31.000001 10Z" stroke-dasharray="none" class="fillAsHole-mk-1cy07a1yrk26l" fill="#2C2C2C"></path></g></g></g><g id="g-root-he_1q6yzixxd9edn-stroke" data-item-order="-501293" transform="translate(512, 176)"><g id="he_1q6yzixxd9edn-stroke" fill="none" stroke-linecap="round" stroke-linejoin="round" stroke-miterlimit="4" stroke="#f4f4f4" stroke-width="2" stroke-opacity="1"><style>.fillAsStrokeColor-mk-1cy07a1yrk26m { fill:#f4f4f4; }
.fillAsStrokeColor-mk-1cy07a1yrk26n { fill:#f4f4f4; }</style><g><path d="M 10 10L 10 52C 10 58.627419 15.372583 64.000002 22 64.000002L 22 64M 10 28L 22 28"></path><path d="M 20.5 64C 20.5 64.828429 21.171573 65.500002 22 65.500002C 22.828427 65.500002 23.5 64.828429 23.5 64.000002C 23.5 63.171574 22.828427 62.500002 22 62.500002C 21.171573 62.500002 20.5 63.171574 20.5 64.000002Z" stroke-dasharray="none" class="fillAsStrokeColor-mk-1cy07a1yrk26m" fill="#f4f4f4"></path><path d="M 20.5 28C 20.5 28.828428 21.171573 29.500001 22 29.500001C 22.828427 29.500001 23.5 28.828428 23.5 28.000001C 23.5 27.171573 22.828427 26.500001 22 26.500001C 21.171573 26.500001 20.5 27.171573 20.5 28.000001Z" stroke-dasharray="none" class="fillAsStrokeColor-mk-1cy07a1yrk26n" fill="#f4f4f4"></path></g></g></g><g id="g-root-he_1q6yzixxd9edp-stroke" data-item-order="-501291" transform="translate(542, 323)"><g id="he_1q6yzixxd9edp-stroke" fill="none" stroke-linecap="round" stroke-linejoin="round" stroke-miterlimit="4" stroke="#f4f4f4" stroke-width="2" stroke-opacity="1"><style>.fillAsHole-mk-1hdtpehyrk268 { fill:#2C2C2C; }</style><g><path d="M 10 46L 22 46C 28.63 46 34 40.63 34 34L 34 22C 34 15.37 39.37 10 46 10L 55 10"></path><path d="M 55 10C 55.000001 11.656854 56.343147 13 58.000001 13C 59.656856 13 61.000001 11.656854 61.000001 10C 61.000001 8.343146 59.656856 7 58.000001 7C 56.343147 7 55.000001 8.343146 55.000001 10Z" stroke-dasharray="none" class="fillAsHole-mk-1hdtpehyrk268" fill="#2C2C2C"></path></g></g></g><g id="g-root-he_1q6yzixxd9edr-stroke" data-item-order="-501289" transform="translate(602, 347)"><g id="he_1q6yzixxd9edr-stroke" fill="none" stroke-linecap="round" stroke-linejoin="round" stroke-miterlimit="4" stroke="#f4f4f4" stroke-width="2" stroke-opacity="1"><style>.fillAsStrokeColor-mk-1hdtpehyrk269 { fill:#f4f4f4; }
.fillAsStrokeColor-mk-1hdtpehyrk26a { fill:#f4f4f4; }</style><g><path d="M 10 10L 10 52C 10 58.627419 15.372583 64.000002 22 64.000002L 22 64M 10 28L 22 28"></path><path d="M 20.5 64C 20.5 64.828429 21.171573 65.500002 22 65.500002C 22.828427 65.500002 23.5 64.828429 23.5 64.000002C 23.5 63.171574 22.828427 62.500002 22 62.500002C 21.171573 62.500002 20.5 63.171574 20.5 64.000002Z" stroke-dasharray="none" class="fillAsStrokeColor-mk-1hdtpehyrk269" fill="#f4f4f4"></path><path d="M 20.5 28C 20.5 28.828428 21.171573 29.500001 22 29.500001C 22.828427 29.500001 23.5 28.828428 23.5 28.000001C 23.5 27.171573 22.828427 26.500001 22 26.500001C 21.171573 26.500001 20.5 27.171573 20.5 28.000001Z" stroke-dasharray="none" class="fillAsStrokeColor-mk-1hdtpehyrk26a" fill="#f4f4f4"></path></g></g></g><g id="g-root-he_1umshndxd9edd-stroke" data-item-order="-501287" transform="translate(476, 389)"><g id="he_1umshndxd9edd-stroke" fill="none" stroke-linecap="round" stroke-linejoin="round" stroke-miterlimit="4" stroke="#f4f4f4" stroke-width="2" stroke-opacity="1"><style>.fillAsHole-mk-1hdtpehyrk26b { fill:#2C2C2C; }</style><g><path d="M 10 10L 10 103C 10 109.63 15.37 115 22 115L 31 115"></path><path d="M 31 115C 31.000001 116.656857 32.343146 118.000003 34.000001 118.000003C 35.656855 118.000003 37.000001 116.656857 37.000001 115.000003C 37.000001 113.343149 35.656855 112.000003 34.000001 112.000003C 32.343146 112.000003 31.000001 113.343149 31.000001 115.000003Z" stroke-dasharray="none" class="fillAsHole-mk-1hdtpehyrk26b" fill="#2C2C2C"></path></g></g></g><g id="g-root-he_1umshndxd9edf-stroke" data-item-order="-501285" transform="translate(512, 518)"><g id="he_1umshndxd9edf-stroke" fill="none" stroke-linecap="round" stroke-linejoin="round" stroke-miterlimit="4" stroke="#f4f4f4" stroke-width="2" stroke-opacity="1"><style>.fillAsStrokeColor-mk-18i6p5lyrk2z0 { fill:#f4f4f4; }
.fillAsStrokeColor-mk-18i6p5lyrk2z1 { fill:#f4f4f4; }</style><g><path d="M 10 10L 10 76C 10 82.627419 15.372583 88.000003 22 88.000002L 22 88M 10 28L 22 28"></path><path d="M 20.5 88C 20.5 88.828429 21.171573 89.500002 22 89.500002C 22.828427 89.500002 23.5 88.828429 23.5 88.000002C 23.5 87.171575 22.828427 86.500002 22 86.500002C 21.171573 86.500002 20.5 87.171575 20.5 88.000002Z" stroke-dasharray="none" class="fillAsStrokeColor-mk-18i6p5lyrk2z0" fill="#f4f4f4"></path><path d="M 20.5 28C 20.5 28.828428 21.171573 29.500001 22 29.500001C 22.828427 29.500001 23.5 28.828428 23.5 28.000001C 23.5 27.171573 22.828427 26.500001 22 26.500001C 21.171573 26.500001 20.5 27.171573 20.5 28.000001Z" stroke-dasharray="none" class="fillAsStrokeColor-mk-18i6p5lyrk2z1" fill="#f4f4f4"></path></g></g></g><g id="g-root-he_1umshndxd9edh-stroke" data-item-order="-501283" transform="translate(356, 389)"><g id="he_1umshndxd9edh-stroke" fill="none" stroke-linecap="round" stroke-linejoin="round" stroke-miterlimit="4" stroke="#f4f4f4" stroke-width="2" stroke-opacity="1"><style>.fillAsHole-mk-18i6p5lyrk2z2 { fill:#2C2C2C; }</style><g><path d="M 34 10L 34 103C 34 109.63 28.63 115 22 115L 13 115"></path><path d="M 7 115C 7 116.656857 8.343146 118.000003 10 118.000003C 11.656854 118.000003 13 116.656857 13 115.000003C 13 113.343149 11.656854 112.000003 10 112.000003C 8.343146 112.000003 7 113.343149 7 115.000003Z" stroke-dasharray="none" class="fillAsHole-mk-18i6p5lyrk2z2" fill="#2C2C2C"></path></g></g></g><g id="g-root-he_1lr5hehxd9f67-stroke" data-item-order="-501281" transform="translate(332, 518)"><g id="he_1lr5hehxd9f67-stroke" fill="none" stroke-linecap="round" stroke-linejoin="round" stroke-miterlimit="4" stroke="#f4f4f4" stroke-width="2" stroke-opacity="1"><style>.fillAsStrokeColor-mk-18i6p5lyrk2z3 { fill:#f4f4f4; }
.fillAsStrokeColor-mk-1cy07a1yrk2yo { fill:#f4f4f4; }</style><g><path d="M 22 10L 22 82C 22.000001 88.627419 16.627417 94.000003 10 94.000003L 10 94M 22 34L 10 34"></path><path d="M 8.5 94C 8.5 94.82843 9.171573 95.500003 10 95.500003C 10.828427 95.500003 11.5 94.82843 11.5 94.000003C 11.5 93.171575 10.828427 92.500003 10 92.500003C 9.171573 92.500003 8.5 93.171575 8.5 94.000003Z" stroke-dasharray="none" class="fillAsStrokeColor-mk-18i6p5lyrk2z3" fill="#f4f4f4"></path><path d="M 8.5 34C 8.5 34.828428 9.171573 35.500001 10 35.500001C 10.828427 35.500001 11.5 34.828428 11.5 34.000001C 11.5 33.171574 10.828427 32.500001 10 32.500001C 9.171573 32.500001 8.5 33.171574 8.5 34.000001Z" stroke-dasharray="none" class="fillAsStrokeColor-mk-1cy07a1yrk2yo" fill="#f4f4f4"></path></g></g></g><g id="g-root-he_1q6yzixxd9f5t-stroke" data-item-order="-501279" transform="translate(266, 308)"><g id="he_1q6yzixxd9f5t-stroke" fill="none" stroke-linecap="round" stroke-linejoin="round" stroke-miterlimit="4" stroke="#f4f4f4" stroke-width="2" stroke-opacity="1"><style>.fillAsHole-mk-1cy07a1yrk2yp { fill:#2C2C2C; }</style><g><path d="M 58 61L 46 61C 39.37 61 34 55.63 34 49L 34 22C 34 15.37 28.63 10 22 10L 13 10"></path><path d="M 7 10C 7 11.656854 8.343146 13 10 13C 11.656854 13 13 11.656854 13 10C 13 8.343146 11.656854 7 10 7C 8.343146 7 7 8.343146 7 10Z" stroke-dasharray="none" class="fillAsHole-mk-1cy07a1yrk2yp" fill="#2C2C2C"></path></g></g></g><g id="g-root-he_1q6yzixxd9f5v-stroke" data-item-order="-501277" transform="translate(242, 332)"><g id="he_1q6yzixxd9f5v-stroke" fill="none" stroke-linecap="round" stroke-linejoin="round" stroke-miterlimit="4" stroke="#f4f4f4" stroke-width="2" stroke-opacity="1"><style>.fillAsStrokeColor-mk-1cy07a1yrk2yq { fill:#f4f4f4; }
.fillAsStrokeColor-mk-1cy07a1yrk2yr { fill:#f4f4f4; }</style><g><path d="M 22 10L 22 58C 22.000001 64.627419 16.627417 70.000002 10 70.000002L 10 70M 22 34L 10 34"></path><path d="M 8.5 70C 8.5 70.828429 9.171573 71.500002 10 71.500002C 10.828427 71.500002 11.5 70.828429 11.5 70.000002C 11.5 69.171575 10.828427 68.500002 10 68.500002C 9.171573 68.500002 8.5 69.171575 8.5 70.000002Z" stroke-dasharray="none" class="fillAsStrokeColor-mk-1cy07a1yrk2yq" fill="#f4f4f4"></path><path d="M 8.5 34C 8.5 34.828428 9.171573 35.500001 10 35.500001C 10.828427 35.500001 11.5 34.828428 11.5 34.000001C 11.5 33.171574 10.828427 32.500001 10 32.500001C 9.171573 32.500001 8.5 33.171574 8.5 34.000001Z" stroke-dasharray="none" class="fillAsStrokeColor-mk-1cy07a1yrk2yr" fill="#f4f4f4"></path></g></g></g><g id="g-root-he_1q6yzixxd9f5x-stroke" data-item-order="-501275" transform="translate(356, 146)"><g id="he_1q6yzixxd9f5x-stroke" fill="none" stroke-linecap="round" stroke-linejoin="round" stroke-miterlimit="4" stroke="#f4f4f4" stroke-width="2" stroke-opacity="1"><style>.fillAsHole-mk-142zo49yrk0lo { fill:#2C2C2C; }</style><g><path d="M 34 193L 34 22C 34 15.37 28.63 10 22 10L 13 10"></path><path d="M 7 10C 7 11.656854 8.343146 13 10 13C 11.656854 13 13 11.656854 13 10C 13 8.343146 11.656854 7 10 7C 8.343146 7 7 8.343146 7 10Z" stroke-dasharray="none" class="fillAsHole-mk-142zo49yrk0lo" fill="#2C2C2C"></path></g></g></g><g id="g-root-he_1hbbza1xd9fyn-stroke" data-item-order="-501273" transform="translate(332, 170)"><g id="he_1hbbza1xd9fyn-stroke" fill="none" stroke-linecap="round" stroke-linejoin="round" stroke-miterlimit="4" stroke="#f4f4f4" stroke-width="2" stroke-opacity="1"><style>.fillAsStrokeColor-mk-142zo49yrk0lp { fill:#f4f4f4; }
.fillAsStrokeColor-mk-142zo49yrk0lq { fill:#f4f4f4; }</style><g><path d="M 22 10L 22 58C 22.000001 64.627419 16.627417 70.000002 10 70.000002L 10 70M 22 34L 10 34"></path><path d="M 8.5 70C 8.5 70.828429 9.171573 71.500002 10 71.500002C 10.828427 71.500002 11.5 70.828429 11.5 70.000002C 11.5 69.171575 10.828427 68.500002 10 68.500002C 9.171573 68.500002 8.5 69.171575 8.5 70.000002Z" stroke-dasharray="none" class="fillAsStrokeColor-mk-142zo49yrk0lp" fill="#f4f4f4"></path><path d="M 8.5 34C 8.5 34.828428 9.171573 35.500001 10 35.500001C 10.828427 35.500001 11.5 34.828428 11.5 34.000001C 11.5 33.171574 10.828427 32.500001 10 32.500001C 9.171573 32.500001 8.5 33.171574 8.5 34.000001Z" stroke-dasharray="none" class="fillAsStrokeColor-mk-142zo49yrk0lq" fill="#f4f4f4"></path></g></g></g><g id="g-root-tx_roles_140hxztxd9f5v-stroke" data-item-order="0" transform="translate(602, 311)"></g><g id="g-root-tx_scopes_18gbg49xd9edj-stroke" data-item-order="0" transform="translate(182, 296)"></g><g id="g-root-tx_oauthsco_18gbg49xd9edk-stroke" data-item-order="0" transform="translate(98, 344)"></g><g id="g-root-tx_policydo_140hxztxd9f5u-stroke" data-item-order="0" transform="translate(344, 341)"></g><g id="g-root-tx_accessco_18gbg49xd9edi-stroke" data-item-order="0" transform="translate(536, 218)"></g><g id="g-root-tx_userperm_v4uxqxxd9fyk-stroke" data-item-order="0" transform="translate(626, 353)"></g><g id="g-root-tx_policyse_1cvih5lxd9gqz-stroke" data-item-order="0" transform="translate(164, 218)"></g><g id="g-root-tx_roleaggr_m9uel5xd9edf-stroke" data-item-order="0" transform="translate(536, 584)"></g><g id="g-root-tx_permissi_18gbg49xd9edl-stroke" data-item-order="0" transform="translate(122, 380)"></g><g id="g-root-tx_rolebase_v4uxqxxd9fyl-stroke" data-item-order="0" transform="translate(626, 389)"></g><g id="g-root-tx_requestr_1cvih5lxd9gqy-stroke" data-item-order="0" transform="translate(164, 182)"></g><g id="g-root-tx_resource_v4uxqxxd9fym-stroke" data-item-order="0" transform="translate(176, 482)"></g><g id="g-root-tx_policies_1cvih5lxd9gr0-stroke" data-item-order="0" transform="translate(512, 140)"></g><g id="g-root-tx_groups_qp1fmhxd9gqx-stroke" data-item-order="0" transform="translate(512, 482)"></g><g id="g-root-tx_operatio_1lr5hehxd9fy9-stroke" data-item-order="0" transform="translate(236, 134)"></g><g id="g-root-tx_policydo_1lr5hehxd9fy8-stroke" data-item-order="0" transform="translate(272, 38)"></g><g id="g-root-tx_resource_qp1fmhxd9gqv-stroke" data-item-order="0" transform="translate(164, 530)"></g><g id="g-root-tx_organiza_qp1fmhxd9gqy-stroke" data-item-order="0" transform="translate(536, 524)"></g><g id="g-root-tx_policyas_qp1fmhxd9gqw-stroke" data-item-order="0" transform="translate(140, 590)"></g><g id="g-root-tx_regolang_1cvih5lxd9gr1-stroke" data-item-order="0" transform="translate(536, 182)"></g></g></g><path id="whuntg9yro9om" d="M65.283 12.757a.35.35 0 0 0 .584.157l5.203-5.141-6.183 3.523.396 1.461zm-2.216-11.7a.35.35 0 0 0-.522.305v3.111l3.276-1.868-2.754-1.548zm3.728 2.105l-4.25 2.421v2.445l6.391-3.644-2.141-1.222zm4.708 3.303a.35.35 0 0 0 0-.609l-1.592-.9-7.365 4.199v1.782a.35.35 0 0 0 .523.305l8.435-4.777z M44.542 2.513c0-.433.355-.783.792-.783s.792.35.792.783-.355.783-.792.783-.792-.35-.792-.783zm59.171 0c0-.433.355-.783.792-.783s.792.35.792.783-.355.783-.792.783-.792-.35-.792-.783zm-85.951 7.636h-1.27v-.487c-.276.201-.864.609-1.881.609-1.202 0-2.274-.794-2.137-2.078.118-1.106 1.153-1.584 1.848-1.727l2.17-.345c0-.539-.29-.956-1.064-1.006s-1.21.305-1.571 1.017l-1.124-.605c1.218-2.631 5.029-1.764 5.029.414v4.207zm-1.27-2.86c.006.396-.062 1.112-.819 1.59-.587.37-1.841.299-1.903-.395-.049-.555.461-.791.906-.898l1.816-.297zm72.662 2.86h-1.27v-.487c-.276.201-.864.609-1.881.609-1.202 0-2.274-.794-2.137-2.078.118-1.106 1.153-1.584 1.848-1.727l2.17-.345c0-.539-.29-.956-1.064-1.006s-1.21.305-1.571 1.017l-1.124-.605c1.218-2.631 5.029-1.764 5.029.414v4.207zm-1.27-2.86c.006.396-.062 1.112-.82 1.59-.587.37-1.841.299-1.903-.395-.049-.555.461-.791.906-.898l1.816-.297zM99.096 10.149H97.85v-8.45h1.246v4.895l2.68-2.559h1.738l-2.633 2.535 2.715 3.578h-1.556l-2.077-2.707-.867.844v1.863zm6.053-6.114h-1.255v6.113h1.255V4.035zm-59.2 0h-1.255v6.113h1.255V4.035zm5.584 6.113V1.697h1.255v2.695c.361-.346 1-.485 1.47-.485 1.452 0 2.477 1.082 2.457 2.448v3.792h-1.27v-3.68c0-.408-.214-1.339-1.315-1.339-.968 0-1.342.756-1.342 1.339v3.681h-1.255zm-4.76-4.894V4.039h.621a.45.45 0 0 0 .45-.45v-.855h1.251v1.305h1.309v1.215h-1.309v3.109c0 .293.105.664.648.664.365 0 .531-.035.736-.07v1.137s-.361.113-.857.113c-1.398 0-1.777-1.051-1.777-1.788V5.254h-1.071zM36.528 4.039h-1.394l2.191 6.106h1.125l1.234-3.918 1.238 3.918h1.129l2.188-6.106h-1.383l-1.359 3.93-1.256-3.93h-1.124l-1.242 3.957-1.348-3.957zM26.212 7.141c-.02 1.566 1.187 3.129 3.223 3.129 1.566 0 2.383-.918 2.734-1.719L31.172 8c-.315.399-.801 1.094-1.738 1.094-1.145 0-1.825-.781-1.891-1.52h4.625c.074-.284.148-.995-.03-1.559-.336-1.064-1.221-2.102-2.839-2.102s-3.088 1.152-3.088 3.227zm1.363-.75h3.348c-.055-.43-.566-1.301-1.623-1.301a1.79 1.79 0 0 0-1.725 1.301zm-8.758.75c.038 1.758 1.277 3.133 3.145 3.133 1.074 0 1.723-.477 1.961-.672v.547h1.242V1.703h-1.258v2.888c-.414-.36-1.062-.68-1.93-.68-1.91 0-3.198 1.473-3.16 3.23zm1.309-.08c0 1.119.723 1.978 1.836 1.978a1.88 1.88 0 0 0 1.94-1.904c0-1.371-1.011-1.99-1.972-1.99s-1.805.798-1.805 1.916zm76.683-.028C96.771 5.275 95.532 3.9 93.664 3.9c-1.074 0-1.723.477-1.961.672v-.547h-1.242v8.22h1.258V9.583c.414.36 1.063.68 1.93.68 1.91 0 3.198-1.473 3.16-3.23zm-1.309.08c0-1.119-.723-1.978-1.836-1.978a1.88 1.88 0 0 0-1.94 1.904c0 1.371 1.011 1.99 1.972 1.99S95.5 8.231 95.5 7.113zM106.441 10.173V4.036h1.254v.382c.361-.346 1-.485 1.47-.485 1.452 0 2.477 1.082 2.457 2.448v3.792h-1.27V6.492c0-.408-.214-1.339-1.315-1.339-.969 0-1.342.756-1.342 1.339v3.681h-1.254zm-30.383-.021V1.824h1.084l4.215 5.777V1.824h1.32v8.328h-1.094l-4.207-5.796v5.796h-1.319zM5.24 10.149H4V2.377h1.014l2.664 3.597 2.654-3.592h1.03v7.766h-1.256V4.762L7.678 8.068 5.24 4.742v5.407z" transform="translate(740, 668)" fill="#ababab88" stroke="none"></path></svg>