<?xml version="1.0" encoding="utf-8"?>
<svg style="fill:none;stroke:none;fill-rule:evenodd;clip-rule:evenodd;stroke-linecap:round;stroke-linejoin:round;stroke-miterlimit:1.5;" version="1.1" xmlns="http://www.w3.org/2000/svg" width="1077px" height="1152.845px" viewBox="0 0 1003 1073.467">
  <style class="text-font-style fontImports" data-font-family="Roboto">@import url(https://fonts.googleapis.com/css2?family=Roboto:wght@400;700&amp;amp;display=block);</style>
  <g id="items" style="isolation: isolate;" transform="matrix(1.677783, 0, 0, 1.625308, -32.309875, -30.694637)">
    <g id="blend" style="mix-blend-mode: normal">
      <g id="g-root-cp_1_g-1_959wmzvz794x-fill" data-item-order="-314989" transform="translate(139.99899291992188, 181.73199462890625)"/>
      <g id="g-root-cp_2_g-2_959wmzvz794y-fill" data-item-order="-314985" transform="translate(272.3929443359375, 181.73199462890625)"/>
      <g id="g-root-cp_3_g-3_9mwe3vz79xn-fill" data-item-order="-314979" transform="translate(262.906005859375, 349.7109375)"/>
      <g id="g-root-cp_4_g-4_9mwe3vz79xo-fill" data-item-order="-314975" transform="translate(124.0689697265625, 320.5679931640625)"/>
      <g id="g-root-tx_policyen_1ulkby3vz8lxh-fill" data-item-order="0" transform="translate(176, 38)">
        <g id="tx_policyen_1ulkby3vz8lxh-fill-merged" stroke="none" fill="#f4f4f4" fill-opacity="1">
          <g>
            <text style="font: bold 20px &quot;Roboto&quot;, sans-serif; white-space: pre;" transform="translate(130, 34)" font-weight="bold" font-size="20px" font-family="'Roboto', sans-serif"><tspan x="-112.23" y="0" dominant-baseline="ideographic">Multi-Phased Evaluation </tspan><tspan x="-27.25" y="24" dominant-baseline="ideographic">Cycle</tspan></text>
          </g>
        </g>
      </g>
      <g id="g-root-tx_evaluate_qrk4fvvzfpqm-fill" data-item-order="0" transform="translate(26, 198.25)">
        <g id="tx_evaluate_qrk4fvvzfpqm-fill-merged" stroke="none" fill="#1ac3fb" fill-opacity="1">
          <g>
            <text style="font: 12px &quot;Roboto&quot;, sans-serif; white-space: pre;" transform="translate(130, 22)" font-size="12px" font-family="'Roboto', sans-serif"><tspan x="-108.33" y="7.25" dominant-baseline="ideographic">Operation (Phase 1)</tspan></text>
          </g>
        </g>
      </g>
      <g id="g-root-tx_verifyid_mdm1krvzfpj6-fill" data-item-order="0" transform="translate(446, 198.25)">
        <g id="tx_verifyid_mdm1krvzfpj6-fill-merged" stroke="none" fill="#43dd93" fill-opacity="1">
          <g>
            <text style="font: 12px &quot;Roboto&quot;, sans-serif; white-space: pre;" transform="translate(10, 22)" font-size="12px" font-family="'Roboto', sans-serif"><tspan x="2" y="7.25" dominant-baseline="ideographic">Identity (Phase 2)</tspan></text>
          </g>
        </g>
      </g>
      <g id="g-root-tx_assessre_1ur6lq3vzfn5z-fill" data-item-order="0" transform="translate(38, 222.25)">
        <g id="tx_assessre_1ur6lq3vzfn5z-fill-merged" stroke="none" fill="#f4f4f4" fill-opacity="1">
          <g>
            <text style="font: 10.5px &quot;Roboto&quot;, sans-serif; white-space: pre;" transform="translate(118, 28)" font-size="10.5px" font-family="'Roboto', sans-serif"><tspan x="-94.57" y="-5.5" dominant-baseline="ideographic">Assess course-level </tspan><tspan x="-92.73" y="6.5" dominant-baseline="ideographic">request routing and </tspan><tspan x="-34.7" y="18.5" dominant-baseline="ideographic">control</tspan></text>
          </g>
        </g>
      </g>
      <g id="g-root-ic_cond_18iu4xnvzcwlh-fill" data-item-order="0" transform="translate(194, 239.25)"/>
      <g id="g-root-tx_confirmp_mdm1krvzfpj7-fill" data-item-order="0" transform="translate(446, 222.25)">
        <g id="tx_confirmp_mdm1krvzfpj7-fill-merged" stroke="none" fill="#f4f4f4" fill-opacity="1">
          <g>
            <text style="font: 10.5px &quot;Roboto&quot;, sans-serif; white-space: pre;" transform="translate(10, 28)" font-size="10.5px" font-family="'Roboto', sans-serif"><tspan x="2" y="-5.5" dominant-baseline="ideographic">Confirm principal's </tspan><tspan x="2" y="6.5" dominant-baseline="ideographic">entitlement to the </tspan><tspan x="2" y="18.5" dominant-baseline="ideographic">operation</tspan></text>
          </g>
        </g>
      </g>
      <g id="g-root-ic_chec_qnt9x7vz8nie-fill" data-item-order="0" transform="translate(377, 257.25)"/>
      <g id="g-root-ic_link_4ju4qjvzcw08-fill" data-item-order="0" transform="translate(179, 413.25)"/>
      <g id="g-root-ic_1_1lw62kbvza2h7-fill" data-item-order="0" transform="translate(362, 431.25)"/>
      <g id="g-root-tx_enforces_qvayyjvzfnr8-fill" data-item-order="0" transform="translate(50, 450.25)">
        <g id="tx_enforces_qvayyjvzfnr8-fill-merged" stroke="none" fill="#ffe711" fill-opacity="1">
          <g>
            <text style="font: 12px &quot;Roboto&quot;, sans-serif; white-space: pre;" transform="translate(106, 22)" font-size="12px" font-family="'Roboto', sans-serif"><tspan x="-89.65" y="7.25" dominant-baseline="ideographic">Scope (Phase 4)</tspan></text>
          </g>
        </g>
      </g>
      <g id="g-root-tx_checkres_4otxffvzfmz3-fill" data-item-order="0" transform="translate(446, 438.25)">
        <g id="tx_checkres_4otxffvzfmz3-fill-merged" stroke="none" fill="#a6da37" fill-opacity="1">
          <g>
            <text style="font: 12px &quot;Roboto&quot;, sans-serif; white-space: pre;" transform="translate(10, 28)" font-size="12px" font-family="'Roboto', sans-serif"><tspan x="2" y="0.25" dominant-baseline="ideographic">Resource (Phase </tspan><tspan x="2" y="14.25" dominant-baseline="ideographic">3)</tspan></text>
          </g>
        </g>
      </g>
      <g id="g-root-tx_applyacc_djugl7vzfpc5-fill" data-item-order="0" transform="translate(38, 474.25)">
        <g id="tx_applyacc_djugl7vzfpc5-fill-merged" stroke="none" fill="#f4f4f4" fill-opacity="1">
          <g>
            <text style="font: 10.5px &quot;Roboto&quot;, sans-serif; white-space: pre;" transform="translate(118, 28)" font-size="10.5px" font-family="'Roboto', sans-serif"><tspan x="-76.9" y="-5.5" dominant-baseline="ideographic">Apply additional </tspan><tspan x="-99.9" y="6.5" dominant-baseline="ideographic">constraints based on </tspan><tspan x="-73.6" y="18.5" dominant-baseline="ideographic">access method</tspan></text>
          </g>
        </g>
      </g>
      <g id="g-root-tx_determin_18ntxmjvzfnk9-fill" data-item-order="0" transform="translate(446, 474.25)">
        <g id="tx_determin_18ntxmjvzfnk9-fill-merged" stroke="none" fill="#f4f4f4" fill-opacity="1">
          <g>
            <text style="font: 10.5px &quot;Roboto&quot;, sans-serif; white-space: pre;" transform="translate(10, 34)" font-size="10.5px" font-family="'Roboto', sans-serif"><tspan x="2" y="-11.5" dominant-baseline="ideographic">Check principle's </tspan><tspan x="2" y="0.5" dominant-baseline="ideographic">attributes against </tspan><tspan x="2" y="12.5" dominant-baseline="ideographic">resource's </tspan><tspan x="2" y="24.5" dominant-baseline="ideographic">requirements</tspan></text>
          </g>
        </g>
      </g>
      <g id="g-root-cp_1_g-1_959wmzvz794x-stroke" data-item-order="-314989" transform="translate(139.99899291992188, 181.73199462890625)">
        <g id="cp_1_g-1_959wmzvz794x-stroke" fill="none" stroke-linecap="round" stroke-linejoin="round" stroke-miterlimit="4" stroke="#1ac3fb" stroke-width="2" stroke-opacity="1">
          <g>
            <path d="M 168.0108 85.5381L 198.8327 55.1081L 161.8765 25.5709L 142.3945 10L 143.2937 27.158C 67.8992 38.1522 10 103.0733 10 181.5175C 10 182.7773 10.0149 184.0337 10.0446 185.2864L 39.1773 148.8363L 70.0107 180.0667C 70.6874 134.3895 103.2653 96.4408 146.4566 87.5082L 147.4188 105.8684L 168.0108 85.5381Z"/>
          </g>
        </g>
      </g>
      <g id="g-root-cp_2_g-2_959wmzvz794y-stroke" data-item-order="-314985" transform="translate(272.3929443359375, 181.73199462890625)">
        <g id="cp_2_g-2_959wmzvz794y-stroke" fill="none" stroke-linecap="round" stroke-linejoin="round" stroke-miterlimit="4" stroke="#43dd93" stroke-width="2" stroke-opacity="1">
          <g>
            <path d="M 66.438161 55.1081L 35.616361 85.5381C 81.189661 86.4746 118.961161 119.1688 127.699861 162.3897L 109.406161 163.3484L 129.579361 183.7813L 160.166561 214.7623L 189.566161 177.9782L 205.274661 158.3242L 188.025161 159.2282C 177.209961 83.6303 112.194261 25.5175 33.605561 25.5175C 32.226761 25.5175 30.852161 25.5354 29.482061 25.5709L 66.438161 55.1081ZM 10.000061 10L 29.482061 25.5709"/>
          </g>
        </g>
      </g>
      <g id="g-root-cp_3_g-3_9mwe3vz79xn-stroke" data-item-order="-314979" transform="translate(262.906005859375, 349.7109375)">
        <g id="cp_3_g-3_9mwe3vz79xn-stroke" fill="none" stroke-linecap="round" stroke-linejoin="round" stroke-miterlimit="4" stroke="#a6da37" stroke-width="2" stroke-opacity="1">
          <g>
            <path d="M 41.3871 109.5244L 10 140.5126L 46.2776 169.5074L 66.4381 185.6207L 65.5115 167.9404C 141.0466 157.0698 199.0933 92.0833 199.0933 13.5393C 199.0933 12.3564 199.0802 11.1766 199.054 10L 169.6543 46.7841L 139.0672 15.8031C 138.0162 61.2179 105.4268 98.8363 62.3496 107.6075L 61.4139 89.7522L 41.3871 109.5244Z"/>
          </g>
        </g>
      </g>
      <g id="g-root-cp_4_g-4_9mwe3vz79xo-stroke" data-item-order="-314975" transform="translate(124.0689697265625, 320.5679931640625)">
        <g id="cp_4_g-4_9mwe3vz79xo-stroke" fill="none" stroke-linecap="round" stroke-linejoin="round" stroke-miterlimit="4" stroke="#ffe711" stroke-width="2" stroke-opacity="1">
          <g>
            <path d="M 85.9415 41.2304L 55.1081 10L 25.9754 46.4501L 10 66.4381L 27.5901 65.5163C 38.6395 140.8479 103.5313 198.6812 181.9308 198.6812C 182.9947 198.6812 184.0562 198.6705 185.1151 198.6493L 148.8374 169.6545L 180.2245 138.6663C 134.7067 137.873 96.9126 105.4 87.9481 62.353L 105.8684 61.4139L 85.9415 41.2304Z"/>
          </g>
        </g>
      </g>
      <g id="g-root-tx_policyen_1ulkby3vz8lxh-stroke" data-item-order="0" transform="translate(176, 38)"/>
      <g id="g-root-tx_evaluate_qrk4fvvzfpqm-stroke" data-item-order="0" transform="translate(26, 198.25)"/>
      <g id="g-root-tx_verifyid_mdm1krvzfpj6-stroke" data-item-order="0" transform="translate(446, 198.25)"/>
      <g id="g-root-tx_assessre_1ur6lq3vzfn5z-stroke" data-item-order="0" transform="translate(38, 222.25)"/>
      <g id="g-root-ic_cond_18iu4xnvzcwlh-stroke" data-item-order="0" transform="translate(194, 239.25)">
        <g id="ic_cond_18iu4xnvzcwlh-stroke" fill="none" stroke-linecap="round" stroke-linejoin="round" stroke-miterlimit="4" stroke="#1ac3fb" stroke-width="2" stroke-opacity="1">
          <g>
            <path d="M 10 10M 28.024 38.125L 19.529501 32.125L 28.024 26.125L 36.421001 32.125L 28.024 38.125ZM 28.024 26.125L 28.024 12.6445M 36.421001 32.125L 43.714001 32.125C 44.121494 32.124603 44.512413 32.286301 44.800556 32.574444C 45.088699 32.862587 45.250401 33.253506 45.25 33.660999L 45.25 43.355499M 19.529501 32.125L 12.286 32.125C 11.878506 32.124603 11.487586 32.286301 11.199444 32.574444C 10.911302 32.862587 10.749601 33.253506 10.75 33.660999L 10.75 43.355499M 36.274002 24.667L 43.774002 17.167M 43.774002 24.667L 36.274002 17.167M 12.274 21.667L 15.208 24.667L 21.208 17.167"/>
          </g>
        </g>
      </g>
      <g id="g-root-tx_confirmp_mdm1krvzfpj7-stroke" data-item-order="0" transform="translate(446, 222.25)"/>
      <g id="g-root-ic_chec_qnt9x7vz8nie-stroke" data-item-order="0" transform="translate(377, 257.25)">
        <g id="ic_chec_qnt9x7vz8nie-stroke" fill="none" stroke-linecap="round" stroke-linejoin="round" stroke-miterlimit="4" stroke="#43dd93" stroke-width="2" stroke-opacity="1">
          <g>
            <path d="M 44.875 25L 44.875 13.375C 44.875 12.13236 43.867641 11.125 42.625 11.125L 13.375 11.125C 12.13236 11.125 11.125 12.13236 11.125 13.375L 11.125 33.625C 11.125 34.867641 12.13236 35.875 13.375 35.875L 21.625 35.875M 18.076 18.799C 18.076 20.759058 19.664942 22.348 21.625 22.348C 23.585058 22.348 25.174 20.759058 25.174 18.799C 25.174 16.838942 23.585058 15.25 21.625 15.25C 19.664942 15.25 18.076 16.838942 18.076 18.799M 23.674 29.445999L 15.541 29.445999C 15.540647 27.024506 16.976318 24.833338 19.196548 23.866789C 21.416779 22.90024 23.998817 23.34235 25.771002 24.9925M 31.375 16.75L 38.125 16.75M 31.375 21.25L 40.375 21.25M 26.875 35.875C 26.875002 40.845566 30.904438 44.875 35.875 44.875C 40.845566 44.875 44.875 40.845566 44.875 35.875C 44.875 30.904438 40.845566 26.875002 35.875 26.875002C 30.904438 26.875002 26.875002 30.904438 26.875002 35.875M 39.886002 33.2575L 35.5285 39.068501C 35.154602 39.5662 34.447903 39.666294 33.9505 39.291996C 33.908588 39.260361 33.868988 39.225773 33.832001 39.188499L 31.581999 36.938499"/>
          </g>
        </g>
      </g>
      <g id="g-root-ic_link_4ju4qjvzcw08-stroke" data-item-order="0" transform="translate(179, 413.25)">
        <g id="ic_link_4ju4qjvzcw08-stroke" fill="none" stroke-linecap="round" stroke-linejoin="round" stroke-miterlimit="4" stroke="#ffe711" stroke-width="2" stroke-opacity="1">
          <g>
            <path d="M 36.4165 42.780998L 34.824997 44.370998C 33.6535 45.542145 31.754499 45.542145 30.583 44.370998L 29.522501 43.310501C 28.351353 42.139 28.351353 40.239998 29.522501 39.068501L 34.067501 34.521999C 35.071888 33.518753 36.699112 33.518753 37.703499 34.521999L 38.537498 35.355999M 37.477001 31.112499L 39.068501 29.522501C 40.239998 28.351353 42.139 28.351353 43.310501 29.522501L 44.370998 30.583C 45.542145 31.754499 45.542145 33.6535 44.370998 34.824997L 39.826 39.371498C 38.821095 40.374916 37.193398 40.374916 36.188499 39.371498L 35.355999 38.537498M 39.25 16.75L 39.25 25.75M 16.75 13.75L 36.25 13.75M 13.75 36.25L 13.75 16.75M 25.75 39.25L 16.75 39.25M 11.5 10.75L 16 10.75C 16 10.75 16.75 10.75 16.75 11.5L 16.75 16C 16.75 16 16.75 16.75 16 16.75L 11.5 16.75C 11.5 16.75 10.75 16.75 10.75 16L 10.75 11.5C 10.75 11.5 10.75 10.75 11.5 10.75M 37 10.75L 41.5 10.75C 41.5 10.75 42.25 10.75 42.25 11.5L 42.25 16C 42.25 16 42.25 16.75 41.5 16.75L 37 16.75C 37 16.75 36.25 16.75 36.25 16L 36.25 11.5C 36.25 11.5 36.25 10.75 37 10.75M 11.5 36.25L 16 36.25C 16 36.25 16.75 36.25 16.75 37L 16.75 41.5C 16.75 41.5 16.75 42.25 16 42.25L 11.5 42.25C 11.5 42.25 10.75 42.25 10.75 41.5L 10.75 37C 10.75 37 10.75 36.25 11.5 36.25"/>
          </g>
        </g>
      </g>
      <g id="g-root-ic_1_1lw62kbvza2h7-stroke" data-item-order="0" transform="translate(362, 431.25)">
        <g id="ic_1_1lw62kbvza2h7-stroke" fill="none" stroke-linecap="round" stroke-linejoin="round" stroke-miterlimit="4" stroke="#a6da37" stroke-width="2" stroke-opacity="1">
          <g>
            <path d="M 43.788399 31.157949L 43.788399 24.841795L 37.33165 24.841795L 37.33165 31.157949L 43.788399 31.157949ZM 10 10M 28.302401 20.034655L 32.756649 15.580315L 28.302401 11.125996L 23.848061 15.580315L 28.302401 20.034655ZM 10 10M 36.6964 18.966206L 40.476101 12.194335L 44.570648 18.966206L 36.6964 18.966206ZM 28.3027 31.73275C 30.383801 31.73275 32.07085 30.0457 32.07085 27.9646C 32.07085 25.88365 30.383801 24.196541 28.3027 24.196541C 26.2216 24.196541 24.53455 25.88365 24.53455 27.9646C 24.53455 30.0457 26.2216 31.73275 28.3027 31.73275ZM 10 10M 33.929352 38.875L 31.67935 36.625L 22.979336 36.625C 22.079334 34.375 19.979321 32.875 17.429319 32.875C 14.12932 32.875 11.429321 35.574997 11.429321 38.875C 11.429321 42.175003 14.12932 44.875 17.429319 44.875C 19.979321 44.875 22.079334 43.375 22.979336 41.125L 31.67935 41.125L 33.929352 38.875ZM 15.841061 40.35535C 16.658621 40.35535 17.321381 39.69265 17.321381 38.875149C 17.321381 38.057499 16.658621 37.394802 15.841061 37.394802C 15.023515 37.394802 14.360755 38.057499 14.360755 38.875149C 14.360755 39.69265 15.023515 40.35535 15.841061 40.35535Z"/>
          </g>
        </g>
      </g>
      <g id="g-root-tx_enforces_qvayyjvzfnr8-stroke" data-item-order="0" transform="translate(50, 450.25)"/>
      <g id="g-root-tx_checkres_4otxffvzfmz3-stroke" data-item-order="0" transform="translate(446, 438.25)"/>
      <g id="g-root-tx_applyacc_djugl7vzfpc5-stroke" data-item-order="0" transform="translate(38, 474.25)"/>
      <g id="g-root-tx_determin_18ntxmjvzfnk9-stroke" data-item-order="0" transform="translate(446, 474.25)"/>
    </g>
  </g>
  <path id="w18efxqjvzsaa4" d="M 875.845 998.558 C 875.963 998.979 876.505 999.121 876.824 998.814 L 885.553 990.457 L 875.181 996.183 L 875.845 998.558 Z M 872.127 979.543 C 871.735 979.329 871.25 979.602 871.251 980.038 L 871.251 985.095 L 876.748 982.058 L 872.127 979.543 Z M 878.383 982.965 L 871.251 986.899 L 871.251 990.873 L 881.974 984.95 L 878.383 982.965 Z M 886.282 988.332 C 886.674 988.116 886.678 987.57 886.289 987.347 C 886.287 987.346 886.284 987.345 886.282 987.342 L 883.609 985.88 L 871.253 992.704 L 871.253 995.6 C 871.251 996.038 871.739 996.313 872.129 996.096 L 886.283 988.332 L 886.282 988.332 Z M 841.047 981.908 C 841.047 981.205 841.642 980.636 842.374 980.636 C 843.108 980.636 843.703 981.205 843.703 981.908 C 843.703 982.613 843.108 983.181 842.374 983.181 C 841.642 983.181 841.047 982.613 841.047 981.908 Z M 940.322 981.908 C 940.322 981.205 940.918 980.636 941.652 980.636 C 942.384 980.636 942.979 981.205 942.979 981.908 C 942.979 982.613 942.384 983.181 941.652 983.181 C 940.918 983.181 940.322 982.613 940.322 981.908 Z M 796.115 994.321 L 793.984 994.321 L 793.984 993.529 C 793.521 993.855 792.535 994.518 790.829 994.518 C 788.811 994.518 787.012 993.227 787.242 991.14 C 787.441 989.344 789.178 988.567 790.345 988.334 L 793.984 987.773 C 793.984 986.897 793.498 986.22 792.199 986.137 C 790.9 986.056 790.169 986.633 789.563 987.791 L 787.678 986.807 C 789.72 982.532 796.115 983.941 796.115 987.48 L 796.115 994.317 L 796.115 994.321 Z M 793.984 989.671 C 793.994 990.315 793.88 991.478 792.61 992.255 C 791.625 992.856 789.521 992.741 789.417 991.614 C 789.335 990.712 790.191 990.328 790.937 990.154 L 793.984 989.671 Z M 915.896 994.321 L 913.764 994.321 L 913.764 993.529 C 913.301 993.855 912.315 994.518 910.608 994.518 C 908.591 994.518 906.794 993.227 907.023 991.14 C 907.222 989.344 908.958 988.567 910.123 988.334 L 913.764 987.773 C 913.764 986.897 913.279 986.22 911.979 986.137 C 910.681 986.056 909.949 986.633 909.344 987.791 L 907.458 986.807 C 909.501 982.532 915.896 983.941 915.896 987.48 L 915.896 994.317 L 915.896 994.321 Z M 913.764 989.671 C 913.775 990.315 913.66 991.478 912.388 992.255 C 911.404 992.856 909.3 992.741 909.196 991.614 C 909.115 990.712 909.969 990.328 910.716 990.154 L 913.763 989.671 L 913.764 989.671 Z M 932.576 994.321 L 930.485 994.321 L 930.485 980.585 L 932.576 980.585 L 932.576 988.542 L 937.072 984.383 L 939.989 984.383 L 935.571 988.504 L 940.127 994.317 L 937.516 994.317 L 934.029 989.918 L 932.576 991.29 L 932.576 994.317 L 932.576 994.321 Z M 942.732 984.383 L 940.626 984.383 L 940.626 994.317 L 942.732 994.317 L 942.732 984.383 Z M 843.407 984.383 L 841.301 984.383 L 841.301 994.317 L 843.407 994.317 L 843.407 984.383 Z M 852.777 994.317 L 852.777 980.583 L 854.88 980.583 L 854.88 984.963 C 855.487 984.401 856.558 984.175 857.348 984.175 C 859.783 984.175 861.504 985.934 861.47 988.153 L 861.47 994.316 L 859.339 994.316 L 859.339 988.336 C 859.339 987.672 858.979 986.158 857.134 986.158 C 855.509 986.158 854.88 987.388 854.88 988.336 L 854.88 994.317 L 852.777 994.317 Z M 844.79 986.364 L 844.79 984.39 L 845.832 984.39 C 846.249 984.39 846.586 984.062 846.586 983.657 L 846.586 982.268 L 848.685 982.268 L 848.685 984.39 L 850.88 984.39 L 850.88 986.364 L 848.685 986.364 L 848.685 991.417 C 848.685 991.894 848.86 992.496 849.773 992.496 C 850.384 992.496 850.663 992.439 851.006 992.383 L 851.006 994.231 C 851.006 994.231 850.402 994.415 849.569 994.415 C 847.223 994.415 846.587 992.705 846.587 991.508 L 846.587 986.364 L 844.791 986.364 L 844.79 986.364 Z M 827.6 984.39 L 825.262 984.39 L 828.939 994.314 L 830.825 994.314 L 832.896 987.944 L 834.973 994.314 L 836.867 994.314 L 840.538 984.39 L 838.217 984.39 L 835.938 990.778 L 833.83 984.39 L 831.944 984.39 L 829.86 990.822 L 827.599 984.39 L 827.6 984.39 Z M 810.292 989.432 C 810.259 991.976 812.284 994.517 815.7 994.517 C 818.327 994.517 819.698 993.025 820.286 991.722 L 818.615 990.828 C 818.085 991.476 817.27 992.605 815.699 992.605 C 813.778 992.605 812.637 991.336 812.526 990.134 L 820.285 990.134 C 820.41 989.673 820.533 988.518 820.235 987.602 C 819.672 985.871 818.186 984.184 815.471 984.184 C 812.757 984.184 810.291 986.056 810.291 989.428 L 810.292 989.432 Z M 812.579 988.211 L 818.196 988.211 C 818.104 987.513 817.247 986.098 815.473 986.098 C 814.128 986.095 812.947 986.959 812.579 988.211 Z M 797.884 989.432 C 797.949 992.287 800.028 994.523 803.162 994.523 C 804.964 994.523 806.054 993.747 806.451 993.431 L 806.451 994.321 L 808.535 994.321 L 808.535 980.592 L 806.425 980.592 L 806.425 985.286 C 805.73 984.701 804.644 984.182 803.187 984.182 C 799.983 984.182 797.821 986.575 797.884 989.432 Z M 800.081 989.301 C 800.081 991.119 801.294 992.516 803.162 992.516 C 804.959 992.572 806.44 991.163 806.417 989.421 C 806.417 987.194 804.72 986.187 803.108 986.187 C 801.496 986.187 800.08 987.484 800.08 989.301 L 800.081 989.301 Z M 928.739 989.255 C 928.675 986.399 926.596 984.163 923.462 984.163 C 921.661 984.163 920.572 984.939 920.172 985.255 L 920.172 984.367 L 918.088 984.367 L 918.088 997.728 L 920.198 997.728 L 920.198 993.4 C 920.893 993.985 921.983 994.505 923.436 994.505 C 926.641 994.505 928.803 992.111 928.739 989.255 Z M 926.542 989.385 C 926.542 987.567 925.329 986.17 923.462 986.17 C 921.664 986.114 920.183 987.523 920.208 989.265 C 920.208 991.494 921.904 992.5 923.516 992.5 C 925.129 992.5 926.542 991.204 926.542 989.385 Z M 944.899 994.359 L 944.899 984.384 L 947.003 984.384 L 947.003 985.005 C 947.609 984.443 948.68 984.218 949.469 984.218 C 951.905 984.218 953.625 985.975 953.592 988.196 L 953.592 994.359 L 951.461 994.359 L 951.461 988.376 C 951.461 987.712 951.103 986.2 949.254 986.2 C 947.628 986.2 947.003 987.429 947.003 988.376 L 947.003 994.359 L 944.899 994.359 Z M 893.923 994.325 L 893.923 980.79 L 895.742 980.79 L 902.814 990.179 L 902.814 980.79 L 905.028 980.79 L 905.028 994.325 L 903.192 994.325 L 896.135 984.904 L 896.135 994.325 L 893.921 994.325 L 893.923 994.325 Z M 775.106 994.321 L 773.025 994.321 L 773.025 981.688 L 774.727 981.688 L 779.196 987.534 L 783.649 981.696 L 785.376 981.696 L 785.376 994.317 L 783.27 994.317 L 783.27 985.565 L 779.196 990.938 L 775.106 985.531 L 775.106 994.321 Z" fill="#ababab88" stroke="none" style=""/>
</svg>