<?xml version="1.0" encoding="utf-8" standalone="yes"?>
<!DOCTYPE svg PUBLIC "-//W3C//DTD SVG 1.1//EN" "http://www.w3.org/Graphics/SVG/1.1/DTD/svg11.dtd">
<svg style="fill:none;stroke:none;fill-rule:evenodd;clip-rule:evenodd;stroke-linecap:round;stroke-linejoin:round;stroke-miterlimit:1.5;" version="1.1" xmlns="http://www.w3.org/2000/svg" xmlns:xlink="http://www.w3.org/1999/xlink" width="1068" height="751" viewBox="0 0 1068 751"><style class="text-font-style fontImports" data-font-family="Roboto">@import url(https://fonts.googleapis.com/css2?family=Roboto:wght@400;700&amp;amp;display=block);</style><g id="items" style="isolation: isolate"><g id="blend" style="mix-blend-mode: normal"><g id="g-root-ro_v4vq97y7gnbg-fill" data-item-order="1000000000" transform="translate(310.0004577636719, 394.499755859375)"></g><g id="g-root-tx_yes_1lr69wry7i1hj-fill" data-item-order="1000000000" transform="translate(871.0609741210938, 271.999755859375)"><g id="tx_yes_1lr69wry7i1hj-fill-merged" stroke="none" fill="#f4f4f4" fill-opacity="1"><g><text style="font: 15px &quot;Roboto&quot;, sans-serif; white-space: pre;" transform="translate(10, 10)" font-size="15px" font-family="'Roboto', sans-serif"><tspan x="2" y="18" dominant-baseline="ideographic">Yes</tspan></text></g></g></g><g id="g-root-tx_yes_14650ajz1l2bq-fill" data-item-order="1000000000" transform="translate(752.0000610351562, 386.91064453125)"><g id="tx_yes_14650ajz1l2bq-fill-merged" stroke="none" fill="#f4f4f4" fill-opacity="1"><g><text style="font: 15px &quot;Roboto&quot;, sans-serif; white-space: pre;" transform="translate(10, 10)" font-size="15px" font-family="'Roboto', sans-serif"><tspan x="2" y="18" dominant-baseline="ideographic">No</tspan></text></g></g></g><g id="g-root-ro_18lc1bfy7glxf-fill" data-item-order="1000000000" transform="translate(853.0609741210938, 428)"></g><g id="g-root-tx_policyev_140iqi3y7i1hg-fill" data-item-order="1000000000" transform="translate(416.00006103515625, 38)"><g id="tx_policyev_140iqi3y7i1hg-fill-merged" stroke="none" fill="#f4f4f4" fill-opacity="1"><g><text style="font: bold 25px &quot;Roboto&quot;, sans-serif; white-space: pre;" transform="translate(124, 40)" font-weight="bold" font-size="25px" font-family="'Roboto', sans-serif"><tspan x="-108.28" y="0" dominant-baseline="ideographic">Policy Conjunction </tspan><tspan x="-58.83" y="30" dominant-baseline="ideographic">Flowchart</tspan></text></g></g></g><g id="g-root-ro_93ehezy7f8jy-fill" data-item-order="1000000000" transform="translate(310.0004577636719, 219.499755859375)"></g><g id="g-root-di_2roh7y7go3y-fill" data-item-order="1000000000" transform="translate(628.2731323242188, 227.499755859375)"></g><g id="g-root-ro_qnt9yjy7i03q-fill" data-item-order="1000000000" transform="translate(646.2744750976562, 428)"></g><g id="g-root-ro_1d15jfvy7cg7c-fill" data-item-order="1000000000" transform="translate(14.000335693359375, 265.499755859375)"></g><g id="g-root-ro_1ly1huzy7f8ch-fill" data-item-order="1000000000" transform="translate(310.0004577636719, 311.499755859375)"></g><g id="g-root-ro_qqxne3y7f8y3-fill" data-item-order="1000000000" transform="translate(310.0004577636719, 127.499755859375)"></g><g id="g-root-cu_1cvj9nvy7i32j-fill" data-item-order="1000000002" transform="translate(158.00033569335938, 301.499755859375)"></g><g id="g-root-cu_140iqi3y7i1he-fill" data-item-order="1000000002" transform="translate(158.00033569335938, 163.499755859375)"></g><g id="g-root-cu_18gc8mjy7i0p2-fill" data-item-order="1000000002" transform="translate(158.00033569335938, 301.499755859375)"></g><g id="g-root-cu_1cvj9nvy7i32g-fill" data-item-order="1000000002" transform="translate(490.00042724609375, 163.499755859375)"></g><g id="g-root-cu_1cvj9nvy7i32a-fill" data-item-order="1000000002" transform="translate(490.00042724609375, 299.499755859375)"></g><g id="g-root-cu_140iqi3y7i1hc-fill" data-item-order="1000000002" transform="translate(158.00033569335938, 255.499755859375)"></g><g id="g-root-cu_18fprjfy7i32n-fill" data-item-order="1000000002" transform="translate(490.00042724609375, 299.499755859375)"></g><g id="g-root-cu_1cvj9nvy7i32d-fill" data-item-order="1000000002" transform="translate(490.00042724609375, 255.499755859375)"></g><g id="g-root-cn_1cuw3azyrk2kh-fill" data-item-order="1000000002" transform="translate(736.2744750976562, 371.5)"></g><g id="g-root-cu_1hbcrsby7i29w-fill" data-item-order="1000000002" transform="translate(844.2758178710938, 299.5)"></g><g id="g-root-ic_3_zmknmzy7f85e-fill" data-item-order="2000000000" transform="translate(322.0004577636719, 148.499755859375)"></g><g id="g-root-tx_operatio_zmknmzy7f85d-fill" data-item-order="2000000000" transform="translate(358.0004577636719, 139.499755859375)"><g id="tx_operatio_zmknmzy7f85d-fill-merged" stroke="none" fill="#1ac3fb" fill-opacity="1"><g><text style="font: 20px &quot;Roboto&quot;, sans-serif; white-space: pre;" transform="translate(10, 34)" font-size="20px" font-family="'Roboto', sans-serif"><tspan x="2" y="0" dominant-baseline="ideographic">Operation </tspan><tspan x="2" y="24" dominant-baseline="ideographic">Phase</tspan></text></g></g></g><g id="g-root-ic_user_93ehezy7f8jx-fill" data-item-order="2000000000" transform="translate(322.0004577636719, 240.499755859375)"></g><g id="g-root-tx_identity_hz1hnvy7f7r8-fill" data-item-order="2000000000" transform="translate(358.0004577636719, 231.499755859375)"><g id="tx_identity_hz1hnvy7f7r8-fill-merged" stroke="none" fill="#1ac3fb" fill-opacity="1"><g><text style="font: 20px &quot;Roboto&quot;, sans-serif; white-space: pre;" transform="translate(10, 34)" font-size="20px" font-family="'Roboto', sans-serif"><tspan x="2" y="0" dominant-baseline="ideographic">Identity </tspan><tspan x="2" y="24" dominant-baseline="ideographic">Phase</tspan></text></g></g></g><g id="g-root-ic_sear_1hgz1kby7cff3-fill" data-item-order="2000000000" transform="translate(26.000335693359375, 286.499755859375)"></g><g id="g-root-tx_porcrequ_1qcm1t7y7ceme-fill" data-item-order="2000000000" transform="translate(62.000335693359375, 277.499755859375)"><g id="tx_porcrequ_1qcm1t7y7ceme-fill-merged" stroke="none" fill="#efd80d" fill-opacity="1"><g><text style="font: 20px &quot;Roboto&quot;, sans-serif; white-space: pre;" transform="translate(10, 34)" font-size="20px" font-family="'Roboto', sans-serif"><tspan x="2" y="0" dominant-baseline="ideographic">PORC </tspan><tspan x="2" y="24" dominant-baseline="ideographic">Request</tspan></text></g></g></g><g id="g-root-tx_allrequi_2roh7y7go3x-fill" data-item-order="2000000000" transform="translate(682.2745361328125, 275.499755859375)"><g id="tx_allrequi_2roh7y7go3x-fill-merged" stroke="none" fill="#91bb39" fill-opacity="1"><g><text style="font: 20px &quot;Roboto&quot;, sans-serif; white-space: pre;" transform="translate(64, 34)" font-size="20px" font-family="'Roboto', sans-serif"><tspan x="-49.23" y="0" dominant-baseline="ideographic">All Phases </tspan><tspan x="-39.67" y="24" dominant-baseline="ideographic">GRANT?</tspan></text></g></g></g><g id="g-root-ic_2_1qduzzfy7f7k8-fill" data-item-order="2000000000" transform="translate(322.0004577636719, 332.499755859375)"></g><g id="g-root-tx_resource_1qduzzfy7f7k7-fill" data-item-order="2000000000" transform="translate(358.0004577636719, 323.499755859375)"><g id="tx_resource_1qduzzfy7f7k7-fill-merged" stroke="none" fill="#1ac3fb" fill-opacity="1"><g><text style="font: 20px &quot;Roboto&quot;, sans-serif; white-space: pre;" transform="translate(10, 34)" font-size="20px" font-family="'Roboto', sans-serif"><tspan x="2" y="0" dominant-baseline="ideographic">Resource </tspan><tspan x="2" y="24" dominant-baseline="ideographic">Phase</tspan></text></g></g></g><g id="g-root-tx_deny_13ynb8ry7i1ok-fill" data-item-order="2000000000" transform="translate(694.2744750976562, 443)"><g id="tx_deny_13ynb8ry7i1ok-fill-merged" stroke="none" fill="#fb6762" fill-opacity="1"><g><text style="font: 20px &quot;Roboto&quot;, sans-serif; white-space: pre;" transform="translate(10, 22)" font-size="20px" font-family="'Roboto', sans-serif"><tspan x="2" y="12" dominant-baseline="ideographic">DENY</tspan></text></g></g></g><g id="g-root-ic_sear_140iqi3y7gmir-fill" data-item-order="2000000000" transform="translate(322.0004577636719, 415.499755859375)"></g><g id="g-root-tx_scopepha_18gc8mjy7glqi-fill" data-item-order="2000000000" transform="translate(358.0004577636719, 406.499755859375)"><g id="tx_scopepha_18gc8mjy7glqi-fill-merged" stroke="none" fill="#1ac3fb" fill-opacity="1"><g><text style="font: 20px &quot;Roboto&quot;, sans-serif; white-space: pre;" transform="translate(10, 34)" font-size="20px" font-family="'Roboto', sans-serif"><tspan x="2" y="0" dominant-baseline="ideographic">Scope </tspan><tspan x="2" y="24" dominant-baseline="ideographic">Phase</tspan></text></g></g></g><g id="g-root-ic_fram_v30azvy7i2h9-fill" data-item-order="2000000000" transform="translate(658.2744750976562, 440)"></g><g id="g-root-ic_mark_18lc1bfy7glxe-fill" data-item-order="2000000000" transform="translate(865.0609741210938, 440)"></g><g id="g-root-tx_grant_1d0j2cry7goax-fill" data-item-order="2000000000" transform="translate(901.0609741210938, 443)"><g id="tx_grant_1d0j2cry7goax-fill-merged" stroke="none" fill="#43dd93" fill-opacity="1"><g><text style="font: 20px &quot;Roboto&quot;, sans-serif; white-space: pre;" transform="translate(10, 22)" font-size="20px" font-family="'Roboto', sans-serif"><tspan x="2" y="12" dominant-baseline="ideographic">GRANT</tspan></text></g></g></g><g id="g-root-ro_v4vq97y7gnbg-stroke" data-item-order="1000000000" transform="translate(310.0004577636719, 394.499755859375)"><g id="ro_v4vq97y7gnbg-stroke" fill="none" stroke-linecap="round" stroke-linejoin="round" stroke-miterlimit="4" stroke="#1ac3fb" stroke-width="2" stroke-opacity="1"><g><path d="M 22 10L 178 10C 178 10 190 10 190 22L 190 70C 190 70 190 82 178 82L 22 82C 22 82 10 82 10 70L 10 22C 10 22 10 10 22 10"></path></g></g></g><g id="g-root-tx_yes_1lr69wry7i1hj-stroke" data-item-order="1000000000" transform="translate(871.0609741210938, 271.999755859375)"></g><g id="g-root-tx_yes_14650ajz1l2bq-stroke" data-item-order="1000000000" transform="translate(752.0000610351562, 386.91064453125)"></g><g id="g-root-ro_18lc1bfy7glxf-stroke" data-item-order="1000000000" transform="translate(853.0609741210938, 428)"><g id="ro_18lc1bfy7glxf-stroke" fill="none" stroke-linecap="round" stroke-linejoin="round" stroke-miterlimit="4" stroke="#43dd93" stroke-width="2" stroke-opacity="1"><g><path d="M 22 10L 178 10C 178 10 190 10 190 22L 190 52C 190 52 190 64 178 64L 22 64C 22 64 10 64 10 52L 10 22C 10 22 10 10 22 10"></path></g></g></g><g id="g-root-tx_policyev_140iqi3y7i1hg-stroke" data-item-order="1000000000" transform="translate(416.00006103515625, 38)"></g><g id="g-root-ro_93ehezy7f8jy-stroke" data-item-order="1000000000" transform="translate(310.0004577636719, 219.499755859375)"><g id="ro_93ehezy7f8jy-stroke" fill="none" stroke-linecap="round" stroke-linejoin="round" stroke-miterlimit="4" stroke="#1ac3fb" stroke-width="2" stroke-opacity="1"><g><path d="M 22 10L 178 10C 178 10 190 10 190 22L 190 70C 190 70 190 82 178 82L 22 82C 22 82 10 82 10 70L 10 22C 10 22 10 10 22 10"></path></g></g></g><g id="g-root-di_2roh7y7go3y-stroke" data-item-order="1000000000" transform="translate(628.2731323242188, 227.499755859375)"><g id="di_2roh7y7go3y-stroke" fill="none" stroke-linecap="round" stroke-linejoin="round" stroke-miterlimit="4" stroke="#91bb39" stroke-width="2" stroke-opacity="1"><g><path d="M 10.001648 82L 118.001648 154L 226.001648 82L 118.001648 10Z"></path></g></g></g><g id="g-root-ro_qnt9yjy7i03q-stroke" data-item-order="1000000000" transform="translate(646.2744750976562, 428)"><g id="ro_qnt9yjy7i03q-stroke" fill="none" stroke-linecap="round" stroke-linejoin="round" stroke-miterlimit="4" stroke="#fb6762" stroke-width="2" stroke-opacity="1"><g><path d="M 22 10L 178 10C 178 10 190 10 190 22L 190 52C 190 52 190 64 178 64L 22 64C 22 64 10 64 10 52L 10 22C 10 22 10 10 22 10"></path></g></g></g><g id="g-root-ro_1d15jfvy7cg7c-stroke" data-item-order="1000000000" transform="translate(14.000335693359375, 265.499755859375)"><g id="ro_1d15jfvy7cg7c-stroke" fill="none" stroke-linecap="round" stroke-linejoin="round" stroke-miterlimit="4" stroke="#efd80d" stroke-width="2" stroke-opacity="1"><g><path d="M 22 10L 142 10C 142 10 154 10 154 22L 154 70C 154 70 154 82 142 82L 22 82C 22 82 10 82 10 70L 10 22C 10 22 10 10 22 10"></path></g></g></g><g id="g-root-ro_1ly1huzy7f8ch-stroke" data-item-order="1000000000" transform="translate(310.0004577636719, 311.499755859375)"><g id="ro_1ly1huzy7f8ch-stroke" fill="none" stroke-linecap="round" stroke-linejoin="round" stroke-miterlimit="4" stroke="#1ac3fb" stroke-width="2" stroke-opacity="1"><g><path d="M 22 10L 178 10C 178 10 190 10 190 22L 190 70C 190 70 190 82 178 82L 22 82C 22 82 10 82 10 70L 10 22C 10 22 10 10 22 10"></path></g></g></g><g id="g-root-ro_qqxne3y7f8y3-stroke" data-item-order="1000000000" transform="translate(310.0004577636719, 127.499755859375)"><g id="ro_qqxne3y7f8y3-stroke" fill="none" stroke-linecap="round" stroke-linejoin="round" stroke-miterlimit="4" stroke="#1ac3fb" stroke-width="2" stroke-opacity="1"><g><path d="M 22 10L 178 10C 178 10 190 10 190 22L 190 70C 190 70 190 82 178 82L 22 82C 22 82 10 82 10 70L 10 22C 10 22 10 10 22 10"></path></g></g></g><g id="g-root-cu_1cvj9nvy7i32j-stroke" data-item-order="1000000002" transform="translate(158.00033569335938, 301.499755859375)"><g id="cu_1cvj9nvy7i32j-stroke" fill="none" stroke-linecap="round" stroke-linejoin="round" stroke-miterlimit="4" stroke="#f4f4f4" stroke-width="2" stroke-opacity="1"><g><path d="M 10 10L 72 10L 134 10L 134 74.5L 134 139L 148 139L 160 139"></path><path d="M 154 145.5L 160.5 139L 154 132.5" stroke-dasharray="none"></path></g></g></g><g id="g-root-cu_140iqi3y7i1he-stroke" data-item-order="1000000002" transform="translate(158.00033569335938, 163.499755859375)"><g id="cu_140iqi3y7i1he-stroke" fill="none" stroke-linecap="round" stroke-linejoin="round" stroke-miterlimit="4" stroke="#f4f4f4" stroke-width="2" stroke-opacity="1"><g><path d="M 10 148L 72 148L 134 148L 134 79L 134 10L 148 10L 160 10"></path><path d="M 154 16.5L 160.5 10L 154 3.5" stroke-dasharray="none"></path></g></g></g><g id="g-root-cu_18gc8mjy7i0p2-stroke" data-item-order="1000000002" transform="translate(158.00033569335938, 301.499755859375)"><g id="cu_18gc8mjy7i0p2-stroke" fill="none" stroke-linecap="round" stroke-linejoin="round" stroke-miterlimit="4" stroke="#f4f4f4" stroke-width="2" stroke-opacity="1"><g><path d="M 10 10L 72 10L 134 10L 134 33L 134 56L 148 56L 160 56"></path><path d="M 154 62.5L 160.5 56L 154 49.5" stroke-dasharray="none"></path></g></g></g><g id="g-root-cu_1cvj9nvy7i32g-stroke" data-item-order="1000000002" transform="translate(490.00042724609375, 163.499755859375)"><g id="cu_1cvj9nvy7i32g-stroke" fill="none" stroke-linecap="round" stroke-linejoin="round" stroke-miterlimit="4" stroke="#f4f4f4" stroke-width="2" stroke-opacity="1"><g><path d="M 10 10L 44.6 10L 79.1 10L 79.1 78L 79.1 146L 113.7 146L 146.3 146"></path><path d="M 140.3 152.5L 146.8 146L 140.3 139.5" stroke-dasharray="none"></path></g></g></g><g id="g-root-cu_1cvj9nvy7i32a-stroke" data-item-order="1000000002" transform="translate(490.00042724609375, 299.499755859375)"><g id="cu_1cvj9nvy7i32a-stroke" fill="none" stroke-linecap="round" stroke-linejoin="round" stroke-miterlimit="4" stroke="#f4f4f4" stroke-width="2" stroke-opacity="1"><g><path d="M 10 58L 44.6 58L 79.1 58L 79.1 34L 79.1 10L 113.7 10L 146.3 10"></path><path d="M 140.3 16.5L 146.8 10L 140.3 3.5" stroke-dasharray="none"></path></g></g></g><g id="g-root-cu_140iqi3y7i1hc-stroke" data-item-order="1000000002" transform="translate(158.00033569335938, 255.499755859375)"><g id="cu_140iqi3y7i1hc-stroke" fill="none" stroke-linecap="round" stroke-linejoin="round" stroke-miterlimit="4" stroke="#f4f4f4" stroke-width="2" stroke-opacity="1"><g><path d="M 10 56L 72 56L 134 56L 134 33L 134 10L 148 10L 160 10"></path><path d="M 154 16.5L 160.5 10L 154 3.5" stroke-dasharray="none"></path></g></g></g><g id="g-root-cu_18fprjfy7i32n-stroke" data-item-order="1000000002" transform="translate(490.00042724609375, 299.499755859375)"><g id="cu_18fprjfy7i32n-stroke" fill="none" stroke-linecap="round" stroke-linejoin="round" stroke-miterlimit="4" stroke="#f4f4f4" stroke-width="2" stroke-opacity="1"><g><path d="M 10 141L 44.6 141L 79.1 141L 79.1 75.5L 79.1 10L 113.7 10L 146.3 10"></path><path d="M 140.3 16.5L 146.8 10L 140.3 3.5" stroke-dasharray="none"></path></g></g></g><g id="g-root-cu_1cvj9nvy7i32d-stroke" data-item-order="1000000002" transform="translate(490.00042724609375, 255.499755859375)"><g id="cu_1cvj9nvy7i32d-stroke" fill="none" stroke-linecap="round" stroke-linejoin="round" stroke-miterlimit="4" stroke="#f4f4f4" stroke-width="2" stroke-opacity="1"><g><path d="M 10 10L 44.6 10L 79.1 10L 79.1 32L 79.1 54L 113.7 54L 146.3 54"></path><path d="M 140.3 60.5L 146.8 54L 140.3 47.5" stroke-dasharray="none"></path></g></g></g><g id="g-root-cn_1cuw3azyrk2kh-stroke" data-item-order="1000000002" transform="translate(736.2744750976562, 371.5)"><g id="cn_1cuw3azyrk2kh-stroke" fill="none" stroke-linecap="round" stroke-linejoin="round" stroke-miterlimit="4" stroke="#f4f4f4" stroke-width="2" stroke-opacity="1"><g><path d="M 10 9.999756L 10 38.299756L 10 64.499756"></path><path d="M 3.5 58.499756L 10 64.999756L 16.5 58.499756" stroke-dasharray="none"></path></g></g></g><g id="g-root-cu_1hbcrsby7i29w-stroke" data-item-order="1000000002" transform="translate(844.2758178710938, 299.5)"><g id="cu_1hbcrsby7i29w-stroke" fill="none" stroke-linecap="round" stroke-linejoin="round" stroke-miterlimit="4" stroke="#f4f4f4" stroke-width="2" stroke-opacity="1"><g><path d="M 10 9.999756L 59.4 9.999756L 108.8 9.999756L 108.8 74.299756L 108.8 136.499756"></path><path d="M 102.3 130.499756L 108.8 136.999756L 115.3 130.499756" stroke-dasharray="none"></path></g></g></g><g id="g-root-ic_3_zmknmzy7f85e-stroke" data-item-order="2000000000" transform="translate(322.0004577636719, 148.499755859375)"><g id="ic_3_zmknmzy7f85e-stroke" fill="none" stroke-linecap="round" stroke-linejoin="round" stroke-miterlimit="4" stroke="#1ac3fb" stroke-width="2" stroke-opacity="1"><g><path d="M 32.02375 16.876249C 32.02375 17.868292 32.827957 18.672501 33.820004 18.672501C 34.812042 18.672501 35.616253 17.868292 35.616253 16.876251C 35.616253 15.884209 34.812042 15.08 33.820004 15.08C 32.827957 15.08 32.02375 15.884209 32.02375 16.876251ZM 35 11.5L 35.41 12.845C 35.552269 13.305866 36.026314 13.578619 36.49625 13.47L 37.860001 13.15375C 38.390629 13.034054 38.937317 13.274166 39.208187 13.745893C 39.479057 14.217618 39.410854 14.810804 39.040001 15.20875L 38.084999 16.25C 37.754723 16.60507 37.754723 17.15493 38.084999 17.51L 39.03875 18.539999C 39.408451 18.938095 39.47596 19.530491 39.205303 20.00156C 38.934647 20.472626 38.388863 20.712652 37.858749 20.59375L 36.5 20.27375C 36.030064 20.165131 35.556019 20.437883 35.41375 20.89875L 35 22.25C 34.843819 22.770885 34.364422 23.127625 33.820625 23.127625C 33.276829 23.127625 32.797432 22.770885 32.641251 22.25L 32.231251 20.905001C 32.088982 20.444134 31.614935 20.171381 31.145 20.280001L 29.78125 20.596251C 29.251135 20.715153 28.705351 20.475126 28.434696 20.004059C 28.16404 19.532991 28.231546 18.940596 28.60125 18.5425L 29.555 17.512501C 29.885277 17.157431 29.885277 16.607571 29.555 16.252501L 28.60125 15.22375C 28.230392 14.825804 28.162193 14.232618 28.433064 13.760892C 28.703934 13.289166 29.25062 13.049054 29.78125 13.16875L 31.145 13.485001C 31.614935 13.593618 32.088982 13.320867 32.231251 12.86L 32.639999 11.5C 32.79549 10.978065 33.275398 10.620285 33.82 10.620285C 34.364601 10.620285 34.844509 10.978065 35 11.5ZM 18.78875 22.032501C 19.097027 22.377193 19.537561 22.574219 20 22.574219C 20.462439 22.574219 20.902973 22.377193 21.21125 22.032499L 22 21.165001C 22.462837 20.651932 23.198561 20.485826 23.836939 20.750273C 24.475315 21.014721 24.878059 21.652433 24.842499 22.342499L 24.782501 23.51C 24.759304 23.971237 24.932398 24.420744 25.258953 24.747299C 25.585508 25.073854 26.035015 25.246948 26.49625 25.223751L 27.66375 25.16375C 28.353817 25.128191 28.991529 25.530933 29.255976 26.169312C 29.520422 26.807688 29.354317 27.543413 28.841249 28.00625L 27.973749 28.789999C 27.629055 29.098278 27.43203 29.538811 27.43203 30.001249C 27.43203 30.463688 27.629055 30.904221 27.973749 31.2125L 28.841249 31.99625C 29.354317 32.459087 29.520422 33.194813 29.255976 33.833187C 28.991529 34.471565 28.353817 34.87431 27.66375 34.838749L 26.49625 34.778751C 26.035015 34.755554 25.585508 34.92865 25.258953 35.255203C 24.932398 35.581757 24.759304 36.031265 24.782501 36.492504L 24.842499 37.66C 24.878059 38.350067 24.475315 38.987778 23.836939 39.252228C 23.198561 39.516674 22.462837 39.350567 22 38.837502L 21.216249 37.970001C 20.907972 37.625305 20.467438 37.42828 20.004999 37.42828C 19.542562 37.42828 19.102028 37.625305 18.793751 37.970001L 18 38.837502C 17.537163 39.350567 16.801439 39.516674 16.163061 39.252228C 15.524685 38.987778 15.121941 38.350067 15.1575 37.66L 15.2175 36.4925C 15.240697 36.031265 15.067604 35.581757 14.741048 35.255203C 14.414494 34.92865 13.964986 34.755554 13.50375 34.778751L 12.33625 34.838749C 11.648908 34.870087 11.015703 34.467102 10.753036 33.831154C 10.490368 33.195206 10.654633 32.462841 11.16375 32L 12.03125 31.216249C 12.375944 30.907972 12.572968 30.467438 12.572968 30.004999C 12.572968 29.542562 12.375944 29.102028 12.03125 28.793751L 11.16375 28.01C 10.650681 27.547163 10.484577 26.81144 10.749023 26.173061C 11.01347 25.534685 11.651182 25.131941 12.341249 25.1675L 13.50875 25.227501C 13.969986 25.250698 14.419494 25.077604 14.746048 24.751049C 15.072603 24.424494 15.245697 23.974987 15.222501 23.513752L 15.1625 22.342499C 15.129531 21.654823 15.531525 21.020378 16.167412 20.756498C 16.803301 20.492619 17.536386 20.656031 18 21.165001ZM 15.625 30.001249C 15.625001 32.417496 17.583755 34.376251 20 34.376251C 22.416246 34.376251 24.375 32.417496 24.375 30.001251C 24.375 27.585005 22.416246 25.626251 20 25.626251C 17.583755 25.626251 15.625001 27.585005 15.625001 30.001251Z"></path></g></g></g><g id="g-root-tx_operatio_zmknmzy7f85d-stroke" data-item-order="2000000000" transform="translate(358.0004577636719, 139.499755859375)"></g><g id="g-root-ic_user_93ehezy7f8jx-stroke" data-item-order="2000000000" transform="translate(322.0004577636719, 240.499755859375)"><g id="ic_user_93ehezy7f8jx-stroke" fill="none" stroke-linecap="round" stroke-linejoin="round" stroke-miterlimit="4" stroke="#1ac3fb" stroke-width="2" stroke-opacity="1"><g><path d="M 28.125 39.375C 28.125 36.268398 30.643398 33.75 33.75 33.75C 36.856602 33.75 39.375 36.268398 39.375 39.375ZM 30.797501 27.327501C 32.444233 29.024687 34.966309 29.532084 37.141251 28.60375M 30.3125 29.0625C 30.3125 30.960979 31.851522 32.5 33.75 32.5C 35.648479 32.5 37.1875 30.960979 37.1875 29.0625C 37.1875 27.164022 35.648479 25.625 33.75 25.625C 31.851522 25.625 30.3125 27.164022 30.3125 29.0625ZM 33.125 21.875C 33.128479 19.106838 32.107506 16.435299 30.258749 14.375M 10.625 24.375L 10.625 28.125C 10.623775 32.648777 13.332312 36.733253 17.5 38.4925M 27.5 12.1325C 24.115849 10.178708 19.960251 10.12096 16.523115 11.979959C 13.085979 13.83896 10.859713 17.348385 10.6425 21.25M 18.75 15.055C 21.072233 13.990606 23.776546 14.181402 25.926329 15.56131C 28.076111 16.941216 29.375702 19.320454 29.375 21.875L 29.375 23.657499M 27.465 33.125C 25.391895 35.442642 22.103645 36.240658 19.198803 35.131092C 16.293962 34.021526 14.375078 31.234541 14.375 28.125L 14.375 21.875C 14.372334 20.029648 15.052696 18.248594 16.285 16.875M 18.125 28.125C 18.125 30.196068 19.803932 31.875 21.875 31.875C 23.946068 31.875 25.625 30.196068 25.625 28.125L 25.625 21.875C 25.625 19.803932 23.946068 18.125 21.875 18.125C 19.803932 18.125 18.125 19.803932 18.125 21.875L 18.125 25.625M 21.875 21.875L 21.875 25.625M 21.875 28.125L 21.875 29.375M 21.875 39.375C 22.942135 39.375881 24.003984 39.225212 25.028751 38.927502"></path></g></g></g><g id="g-root-tx_identity_hz1hnvy7f7r8-stroke" data-item-order="2000000000" transform="translate(358.0004577636719, 231.499755859375)"></g><g id="g-root-ic_sear_1hgz1kby7cff3-stroke" data-item-order="2000000000" transform="translate(26.000335693359375, 286.499755859375)"><g id="ic_sear_1hgz1kby7cff3-stroke" fill="none" stroke-linecap="round" stroke-linejoin="round" stroke-miterlimit="4" stroke="#efd80d" stroke-width="2" stroke-opacity="1"><g><path d="M 25.625 31.286249C 25.625 34.412872 28.159628 36.947498 31.286249 36.947498C 34.412872 36.947498 36.947498 34.412872 36.947498 31.286249C 36.947498 28.159628 34.412872 25.625 31.286249 25.625C 28.159628 25.625 25.625 28.159628 25.625 31.286249ZM 39.375 39.375L 35.315002 35.315002M 15.625 20.625L 27.5 20.625M 15.625 24.375L 23.125 24.375M 15.625 16.875L 24.375 16.875M 15.625 28.125L 20.625 28.125M 15.625 31.875L 20.625 31.875M 25.625 39.375L 11.875 39.375C 11.184644 39.375 10.625 38.815353 10.625 38.125L 10.625 11.875C 10.625 11.184644 11.184644 10.625 11.875 10.625L 28.491251 10.625C 28.822744 10.625071 29.140635 10.756813 29.375 10.99125L 34.008751 15.625C 34.243187 15.859366 34.374928 16.177258 34.375 16.508749L 34.375 21.875"></path></g></g></g><g id="g-root-tx_porcrequ_1qcm1t7y7ceme-stroke" data-item-order="2000000000" transform="translate(62.000335693359375, 277.499755859375)"></g><g id="g-root-tx_allrequi_2roh7y7go3x-stroke" data-item-order="2000000000" transform="translate(682.2745361328125, 275.499755859375)"></g><g id="g-root-ic_2_1qduzzfy7f7k8-stroke" data-item-order="2000000000" transform="translate(322.0004577636719, 332.499755859375)"><g id="ic_2_1qduzzfy7f7k8-stroke" fill="none" stroke-linecap="round" stroke-linejoin="round" stroke-miterlimit="4" stroke="#1ac3fb" stroke-width="2" stroke-opacity="1"><g><path d="M 30.27375 13.4525C 30.27375 13.4525 31.099998 10.89 38.18 10.625C 38.471542 10.596922 38.762165 10.686946 38.986782 10.87491C 39.211399 11.062876 39.351246 11.333076 39.375004 11.625L 39.375 22.13875C 39.319016 22.717985 38.818821 23.151669 38.237503 23.125002C 31.112499 23.375 30.27375 25.953749 30.27375 25.953749L 30.27375 13.45375M 30.27375 13.4525C 30.27375 13.4525 29.4475 10.89 22.3675 10.625C 22.07596 10.596922 21.785339 10.686946 21.56072 10.87491C 21.336102 11.062876 21.196257 11.333076 21.172501 11.625L 21.172501 22.13875C 21.228483 22.717985 21.72868 23.151669 22.310001 23.125002C 29.435001 23.375 30.27375 25.953749 30.27375 25.953749L 30.27375 13.45375M 16.25 39.375L 33.75 39.375M 24.375 36.875L 24.375 39.375M 10.625 31.875L 39.375 31.875M 39.375 26.875L 39.375 35C 39.375 36.035534 38.535534 36.875 37.5 36.875L 12.5 36.875C 11.464466 36.875 10.625 36.035534 10.625 35L 10.625 16.25C 10.625 15.214466 11.464466 14.375 12.5 14.375L 17.5 14.375M 36.25 14.83125C 35.173336 14.940026 34.111679 15.165518 33.083752 15.50375M 24.299999 14.8325C 25.408718 14.942749 26.501217 15.179282 27.55625 15.537499M 36.231251 18.58375C 35.158718 18.693562 34.101273 18.919468 33.077499 19.2575M 24.317501 18.58375C 25.420345 18.695044 26.506929 18.931568 27.556252 19.28875"></path></g></g></g><g id="g-root-tx_resource_1qduzzfy7f7k7-stroke" data-item-order="2000000000" transform="translate(358.0004577636719, 323.499755859375)"></g><g id="g-root-tx_deny_13ynb8ry7i1ok-stroke" data-item-order="2000000000" transform="translate(694.2744750976562, 443)"></g><g id="g-root-ic_sear_140iqi3y7gmir-stroke" data-item-order="2000000000" transform="translate(322.0004577636719, 415.499755859375)"><g id="ic_sear_140iqi3y7gmir-stroke" fill="none" stroke-linecap="round" stroke-linejoin="round" stroke-miterlimit="4" stroke="#1ac3fb" stroke-width="2" stroke-opacity="1"><g><path d="M 25 36.8125C 19.487545 37.340996 14.236472 34.352795 11.875281 29.343678C 9.51409 24.33456 10.550864 18.382399 14.466632 14.466632C 18.382399 10.550864 24.33456 9.51409 29.343678 11.875281C 34.352795 14.236472 37.340996 19.487545 36.8125 25M 10.825 21.4625L 17.762501 21.4625C 18.677509 21.46793 19.551708 21.841942 20.1875 22.5L 21.4375 23.75C 22.72756 25.030104 22.788017 27.096668 21.575001 28.450001L 20 30.200001C 19.454004 30.839777 19.164526 31.659225 19.1875 32.5L 19.1875 36.087502M 33.175003 14.625L 26.5625 14.625C 25.14727 14.625 24 15.77227 24 17.1875C 24 18.60273 25.14727 19.75 26.5625 19.75L 27.050001 19.75C 28.190491 19.744297 29.258999 20.306669 29.9 21.25L 31.15 23.150002M 25.625 31.2875C 25.625002 34.414814 28.160189 36.950001 31.2875 36.950001C 34.414814 36.950001 36.950001 34.414814 36.950001 31.2875C 36.950001 28.160189 34.414814 25.625002 31.2875 25.625002C 28.160189 25.625002 25.625002 28.160189 25.625002 31.2875M 39.375 39.375L 35.3125 35.3125"></path></g></g></g><g id="g-root-tx_scopepha_18gc8mjy7glqi-stroke" data-item-order="2000000000" transform="translate(358.0004577636719, 406.499755859375)"></g><g id="g-root-ic_fram_v30azvy7i2h9-stroke" data-item-order="2000000000" transform="translate(658.2744750976562, 440)"><g id="ic_fram_v30azvy7i2h9-stroke" fill="none" stroke-linecap="round" stroke-linejoin="round" stroke-miterlimit="4" stroke="#fb6762" stroke-width="2" stroke-opacity="1"><g><path d="M 11.7725 25C 11.7725 31.253242 17.694653 36.322498 25 36.322498C 32.305344 36.322498 38.227497 31.253242 38.227497 25C 38.227497 18.746756 32.305344 13.6775 25 13.6775C 17.694653 13.6775 11.7725 18.746756 11.7725 25M 15.591738 17.050776L 34.406124 32.949249M 34.408249 17.050776L 15.593912 32.949249"></path></g></g></g><g id="g-root-ic_mark_18lc1bfy7glxe-stroke" data-item-order="2000000000" transform="translate(865.0609741210938, 440)"><g id="ic_mark_18lc1bfy7glxe-stroke" fill="none" stroke-linecap="round" stroke-linejoin="round" stroke-miterlimit="4" stroke="#43dd93" stroke-width="2" stroke-opacity="1"><g><path d="M 10 10M 12.5 28.75L 20.918749 39.0625C 20.918749 39.0625 23.418749 20.3125 34.043751 14.6875M 24.89625 25.559999C 22.331003 22.33226 22.499704 17.716846 25.293749 14.684999C 28.418749 10.935 37.793751 10.935 37.793751 10.935C 37.793751 10.935 38.338749 17.684999 35.293751 22.184999C 32.550003 26.24 28.4275 27.73 24.89625 25.559999Z"></path></g></g></g><g id="g-root-tx_grant_1d0j2cry7goax-stroke" data-item-order="2000000000" transform="translate(901.0609741210938, 443)"></g></g></g><path id="wdcci4rx37093" d="M65.283 12.757a.35.35 0 0 0 .584.157l5.203-5.141-6.183 3.523.396 1.461zm-2.216-11.7a.35.35 0 0 0-.522.305v3.111l3.276-1.868-2.754-1.548zm3.728 2.105l-4.25 2.421v2.445l6.391-3.644-2.141-1.222zm4.708 3.303a.35.35 0 0 0 0-.609l-1.592-.9-7.365 4.199v1.782a.35.35 0 0 0 .523.305l8.435-4.777z M44.542 2.513c0-.433.355-.783.792-.783s.792.35.792.783-.355.783-.792.783-.792-.35-.792-.783zm59.171 0c0-.433.355-.783.792-.783s.792.35.792.783-.355.783-.792.783-.792-.35-.792-.783zm-85.951 7.636h-1.27v-.487c-.276.201-.864.609-1.881.609-1.202 0-2.274-.794-2.137-2.078.118-1.106 1.153-1.584 1.848-1.727l2.17-.345c0-.539-.29-.956-1.064-1.006s-1.21.305-1.571 1.017l-1.124-.605c1.218-2.631 5.029-1.764 5.029.414v4.207zm-1.27-2.86c.006.396-.062 1.112-.819 1.59-.587.37-1.841.299-1.903-.395-.049-.555.461-.791.906-.898l1.816-.297zm72.662 2.86h-1.27v-.487c-.276.201-.864.609-1.881.609-1.202 0-2.274-.794-2.137-2.078.118-1.106 1.153-1.584 1.848-1.727l2.17-.345c0-.539-.29-.956-1.064-1.006s-1.21.305-1.571 1.017l-1.124-.605c1.218-2.631 5.029-1.764 5.029.414v4.207zm-1.27-2.86c.006.396-.062 1.112-.82 1.59-.587.37-1.841.299-1.903-.395-.049-.555.461-.791.906-.898l1.816-.297zM99.096 10.149H97.85v-8.45h1.246v4.895l2.68-2.559h1.738l-2.633 2.535 2.715 3.578h-1.556l-2.077-2.707-.867.844v1.863zm6.053-6.114h-1.255v6.113h1.255V4.035zm-59.2 0h-1.255v6.113h1.255V4.035zm5.584 6.113V1.697h1.255v2.695c.361-.346 1-.485 1.47-.485 1.452 0 2.477 1.082 2.457 2.448v3.792h-1.27v-3.68c0-.408-.214-1.339-1.315-1.339-.968 0-1.342.756-1.342 1.339v3.681h-1.255zm-4.76-4.894V4.039h.621a.45.45 0 0 0 .45-.45v-.855h1.251v1.305h1.309v1.215h-1.309v3.109c0 .293.105.664.648.664.365 0 .531-.035.736-.07v1.137s-.361.113-.857.113c-1.398 0-1.777-1.051-1.777-1.788V5.254h-1.071zM36.528 4.039h-1.394l2.191 6.106h1.125l1.234-3.918 1.238 3.918h1.129l2.188-6.106h-1.383l-1.359 3.93-1.256-3.93h-1.124l-1.242 3.957-1.348-3.957zM26.212 7.141c-.02 1.566 1.187 3.129 3.223 3.129 1.566 0 2.383-.918 2.734-1.719L31.172 8c-.315.399-.801 1.094-1.738 1.094-1.145 0-1.825-.781-1.891-1.52h4.625c.074-.284.148-.995-.03-1.559-.336-1.064-1.221-2.102-2.839-2.102s-3.088 1.152-3.088 3.227zm1.363-.75h3.348c-.055-.43-.566-1.301-1.623-1.301a1.79 1.79 0 0 0-1.725 1.301zm-8.758.75c.038 1.758 1.277 3.133 3.145 3.133 1.074 0 1.723-.477 1.961-.672v.547h1.242V1.703h-1.258v2.888c-.414-.36-1.062-.68-1.93-.68-1.91 0-3.198 1.473-3.16 3.23zm1.309-.08c0 1.119.723 1.978 1.836 1.978a1.88 1.88 0 0 0 1.94-1.904c0-1.371-1.011-1.99-1.972-1.99s-1.805.798-1.805 1.916zm76.683-.028C96.771 5.275 95.532 3.9 93.664 3.9c-1.074 0-1.723.477-1.961.672v-.547h-1.242v8.22h1.258V9.583c.414.36 1.063.68 1.93.68 1.91 0 3.198-1.473 3.16-3.23zm-1.309.08c0-1.119-.723-1.978-1.836-1.978a1.88 1.88 0 0 0-1.94 1.904c0 1.371 1.011 1.99 1.972 1.99S95.5 8.231 95.5 7.113zM106.441 10.173V4.036h1.254v.382c.361-.346 1-.485 1.47-.485 1.452 0 2.477 1.082 2.457 2.448v3.792h-1.27V6.492c0-.408-.214-1.339-1.315-1.339-.969 0-1.342.756-1.342 1.339v3.681h-1.254zm-30.383-.021V1.824h1.084l4.215 5.777V1.824h1.32v8.328h-1.094l-4.207-5.796v5.796h-1.319zM5.24 10.149H4V2.377h1.014l2.664 3.597 2.654-3.592h1.03v7.766h-1.256V4.762L7.678 8.068 5.24 4.742v5.407z" transform="translate(931.0608520507812, 716.5)" fill="#ababab88" stroke="none"></path></svg>