<?xml version="1.0" encoding="utf-8"?>
<svg style="fill:none;stroke:none;fill-rule:evenodd;clip-rule:evenodd;stroke-linecap:round;stroke-linejoin:round;stroke-miterlimit:1.5;" version="1.1" xmlns="http://www.w3.org/2000/svg" width="847px" height="875.764px" viewBox="0 0 958 794.97">
  <style class="text-font-style fontImports" data-font-family="Roboto">@import url(https://fonts.googleapis.com/css2?family=Roboto:wght@400;700&amp;amp;display=block);</style>
  <g id="items" style="isolation: isolate; transform-origin: 318.86px 324.678px;" transform="matrix(1.6771, 0.002139, -0.002124, 1.665187, 148.099091, 69.268555)">
    <g id="blend" style="mix-blend-mode: normal">
      <g id="g-root-cp_1_g-1_959wmzvz794x-fill" data-item-order="1999698547" transform="translate(145.07711791992188, 158.747802734375)"/>
      <g id="g-root-cp_2_g-2_959wmzvz794y-fill" data-item-order="1999698551" transform="translate(277.4710693359375, 158.747802734375)"/>
      <g id="g-root-cp_3_g-3_9mwe3vz79xn-fill" data-item-order="1999698557" transform="translate(267.984130859375, 326.726806640625)"/>
      <g id="g-root-cp_4_g-4_9mwe3vz79xo-fill" data-item-order="1999698561" transform="translate(129.14706420898438, 297.583740234375)"/>
      <g id="g-root-tx_policyen_1ulkby3vz8lxh-fill" data-item-order="2000000000" transform="translate(144.0625, 77.61004638671875)">
        <g id="tx_policyen_1ulkby3vz8lxh-fill-merged" stroke="none" fill="#f4f4f4" fill-opacity="1">
          <g>
            <text style="font: bold 20px &quot;Roboto&quot;, sans-serif; white-space: pre;" transform="translate(166, 34)" font-weight="bold" font-size="20px" font-family="'Roboto', sans-serif"><tspan x="-137" y="12" dominant-baseline="ideographic">Multi-Phased Evaluation Cycle</tspan></text>
          </g>
        </g>
      </g>
      <g id="g-root-tx_evaluate_qrk4fvvzfpqm-fill" data-item-order="2000000000" transform="translate(31.078125, 175.2657470703125)">
        <g id="tx_evaluate_qrk4fvvzfpqm-fill-merged" stroke="none" fill="#1ac3fb" fill-opacity="1">
          <g>
            <text style="font: 12px &quot;Roboto&quot;, sans-serif; white-space: pre;" transform="translate(130, 22)" font-size="12px" font-family="'Roboto', sans-serif"><tspan x="-108.33" y="7.25" dominant-baseline="ideographic">Operation (Phase 1)</tspan></text>
          </g>
        </g>
      </g>
      <g id="g-root-tx_verifyid_mdm1krvzfpj6-fill" data-item-order="2000000000" transform="translate(451.078125, 175.2657470703125)">
        <g id="tx_verifyid_mdm1krvzfpj6-fill-merged" stroke="none" fill="#43dd93" fill-opacity="1">
          <g>
            <text style="font: 12px &quot;Roboto&quot;, sans-serif; white-space: pre;" transform="translate(10, 22)" font-size="12px" font-family="'Roboto', sans-serif"><tspan x="2" y="7.25" dominant-baseline="ideographic">Identity (Phase 2)</tspan></text>
          </g>
        </g>
      </g>
      <g id="g-root-tx_assessre_1ur6lq3vzfn5z-fill" data-item-order="2000000000" transform="translate(43.078125, 199.2657470703125)">
        <g id="tx_assessre_1ur6lq3vzfn5z-fill-merged" stroke="none" fill="#f4f4f4" fill-opacity="1">
          <g>
            <text style="font: 10.5px &quot;Roboto&quot;, sans-serif; white-space: pre;" transform="translate(118, 28)" font-size="10.5px" font-family="'Roboto', sans-serif"><tspan x="-94.57" y="-5.5" dominant-baseline="ideographic">Assess course-level </tspan><tspan x="-92.73" y="6.5" dominant-baseline="ideographic">request routing and </tspan><tspan x="-34.7" y="18.5" dominant-baseline="ideographic">control</tspan></text>
          </g>
        </g>
      </g>
      <g id="g-root-ic_cond_18iu4xnvzcwlh-fill" data-item-order="2000000000" transform="translate(199.078125, 216.2657470703125)"/>
      <g id="g-root-tx_confirmp_mdm1krvzfpj7-fill" data-item-order="2000000000" transform="translate(451.078125, 199.2657470703125)">
        <g id="tx_confirmp_mdm1krvzfpj7-fill-merged" stroke="none" fill="#f4f4f4" fill-opacity="1">
          <g>
            <text style="font: 10.5px &quot;Roboto&quot;, sans-serif; white-space: pre;" transform="translate(10, 28)" font-size="10.5px" font-family="'Roboto', sans-serif"><tspan x="2" y="-5.5" dominant-baseline="ideographic">Confirm principal's </tspan><tspan x="2" y="6.5" dominant-baseline="ideographic">entitlement to the </tspan><tspan x="2" y="18.5" dominant-baseline="ideographic">operation</tspan></text>
          </g>
        </g>
      </g>
      <g id="g-root-ic_chec_qnt9x7vz8nie-fill" data-item-order="2000000000" transform="translate(382.078125, 234.2657470703125)"/>
      <g id="g-root-ic_link_4ju4qjvzcw08-fill" data-item-order="2000000000" transform="translate(184.078125, 390.2657470703125)"/>
      <g id="g-root-ic_1_1lw62kbvza2h7-fill" data-item-order="2000000000" transform="translate(367.078125, 408.2657470703125)"/>
      <g id="g-root-tx_enforces_qvayyjvzfnr8-fill" data-item-order="2000000000" transform="translate(55.078125, 427.2657470703125)">
        <g id="tx_enforces_qvayyjvzfnr8-fill-merged" stroke="none" fill="#ffe711" fill-opacity="1">
          <g>
            <text style="font: 12px &quot;Roboto&quot;, sans-serif; white-space: pre;" transform="translate(106, 22)" font-size="12px" font-family="'Roboto', sans-serif"><tspan x="-89.65" y="7.25" dominant-baseline="ideographic">Scope (Phase 4)</tspan></text>
          </g>
        </g>
      </g>
      <g id="g-root-tx_checkres_4otxffvzfmz3-fill" data-item-order="2000000000" transform="translate(451.078125, 415.265625)">
        <g id="tx_checkres_4otxffvzfmz3-fill-merged" stroke="none" fill="#a6da37" fill-opacity="1">
          <g>
            <text style="font: 12px &quot;Roboto&quot;, sans-serif; white-space: pre;" transform="translate(10, 28)" font-size="12px" font-family="'Roboto', sans-serif"><tspan x="2" y="7.25" dominant-baseline="ideographic">Resource (Phase 3)</tspan></text>
          </g>
        </g>
      </g>
      <g id="g-root-tx_applyacc_djugl7vzfpc5-fill" data-item-order="2000000000" transform="translate(43.078125, 451.2657470703125)">
        <g id="tx_applyacc_djugl7vzfpc5-fill-merged" stroke="none" fill="#f4f4f4" fill-opacity="1">
          <g>
            <text style="font: 10.5px &quot;Roboto&quot;, sans-serif; white-space: pre;" transform="translate(118, 28)" font-size="10.5px" font-family="'Roboto', sans-serif"><tspan x="-76.9" y="-5.5" dominant-baseline="ideographic">Apply additional </tspan><tspan x="-99.9" y="6.5" dominant-baseline="ideographic">constraints based on </tspan><tspan x="-73.6" y="18.5" dominant-baseline="ideographic">access method</tspan></text>
          </g>
        </g>
      </g>
      <g id="g-root-tx_determin_18ntxmjvzfnk9-fill" data-item-order="2000000000" transform="translate(451.078125, 451.265625)">
        <g id="tx_determin_18ntxmjvzfnk9-fill-merged" stroke="none" fill="#f4f4f4" fill-opacity="1">
          <g>
            <text style="font: 10.5px &quot;Roboto&quot;, sans-serif; white-space: pre;" transform="translate(10, 34)" font-size="10.5px" font-family="'Roboto', sans-serif"><tspan x="2" y="-11.5" dominant-baseline="ideographic">Check principle's </tspan><tspan x="2" y="0.5" dominant-baseline="ideographic">attributes against </tspan><tspan x="2" y="12.5" dominant-baseline="ideographic">resource's </tspan><tspan x="2" y="24.5" dominant-baseline="ideographic">requirements</tspan></text>
          </g>
        </g>
      </g>
      <g id="g-root-cp_1_g-1_959wmzvz794x-stroke" data-item-order="1999698547" transform="translate(145.07711791992188, 158.747802734375)">
        <g id="cp_1_g-1_959wmzvz794x-stroke" fill="none" stroke-linecap="round" stroke-linejoin="round" stroke-miterlimit="4" stroke="#4f91fc" stroke-width="2" stroke-opacity="1">
          <g>
            <path d="M 168.0108 85.5381L 198.8327 55.1081L 161.8765 25.5709L 142.3945 10L 143.2937 27.158C 67.8992 38.1522 10 103.0733 10 181.5175C 10 182.7773 10.0149 184.0337 10.0446 185.2864L 39.1773 148.8363L 70.0107 180.0667C 70.6874 134.3895 103.2653 96.4408 146.4566 87.5082L 147.4188 105.8684L 168.0108 85.5381Z"/>
          </g>
        </g>
      </g>
      <g id="g-root-cp_2_g-2_959wmzvz794y-stroke" data-item-order="1999698551" transform="translate(277.4710693359375, 158.747802734375)">
        <g id="cp_2_g-2_959wmzvz794y-stroke" fill="none" stroke-linecap="round" stroke-linejoin="round" stroke-miterlimit="4" stroke="#43dd93" stroke-width="2" stroke-opacity="1">
          <g>
            <path d="M 66.4381 55.1081L 35.6163 85.5381C 81.1896 86.4746 118.9611 119.1688 127.6998 162.3897L 109.4061 163.3484L 129.5793 183.7813L 160.1665 214.7623L 189.5661 177.9782L 205.2746 158.3242L 188.0251 159.2282C 177.2099 83.6303 112.1942 25.5175 33.6055 25.5175C 32.2267 25.5175 30.8521 25.5354 29.482 25.5709L 66.4381 55.1081ZM 10 10L 29.482 25.5709"/>
          </g>
        </g>
      </g>
      <g id="g-root-cp_3_g-3_9mwe3vz79xn-stroke" data-item-order="1999698557" transform="translate(267.984130859375, 326.726806640625)">
        <g id="cp_3_g-3_9mwe3vz79xn-stroke" fill="none" stroke-linecap="round" stroke-linejoin="round" stroke-miterlimit="4" stroke="#a6da37" stroke-width="2" stroke-opacity="1">
          <g>
            <path d="M 41.3871 109.5244L 10 140.5126L 46.2776 169.5074L 66.4381 185.6207L 65.5115 167.9404C 141.0466 157.0698 199.0933 92.0833 199.0933 13.5393C 199.0933 12.3564 199.0802 11.1766 199.054 10L 169.6543 46.7841L 139.0672 15.8031C 138.0162 61.2179 105.4268 98.8363 62.3496 107.6075L 61.4139 89.7522L 41.3871 109.5244Z"/>
          </g>
        </g>
      </g>
      <g id="g-root-cp_4_g-4_9mwe3vz79xo-stroke" data-item-order="1999698561" transform="translate(129.14706420898438, 297.583740234375)">
        <g id="cp_4_g-4_9mwe3vz79xo-stroke" fill="none" stroke-linecap="round" stroke-linejoin="round" stroke-miterlimit="4" stroke="#ffe711" stroke-width="2" stroke-opacity="1">
          <g>
            <path d="M 85.9415 41.2304L 55.1081 10L 25.9754 46.4501L 10 66.4381L 27.5901 65.5163C 38.6395 140.8479 103.5313 198.6812 181.9308 198.6812C 182.9947 198.6812 184.0562 198.6705 185.1151 198.6493L 148.8374 169.6545L 180.2245 138.6663C 134.7067 137.873 96.9126 105.4 87.9481 62.353L 105.8684 61.4139L 85.9415 41.2304Z"/>
          </g>
        </g>
      </g>
      <g id="g-root-tx_policyen_1ulkby3vz8lxh-stroke" data-item-order="2000000000" transform="translate(144.0625, 77.61004638671875)"/>
      <g id="g-root-tx_evaluate_qrk4fvvzfpqm-stroke" data-item-order="2000000000" transform="translate(31.078125, 175.2657470703125)"/>
      <g id="g-root-tx_verifyid_mdm1krvzfpj6-stroke" data-item-order="2000000000" transform="translate(451.078125, 175.2657470703125)"/>
      <g id="g-root-tx_assessre_1ur6lq3vzfn5z-stroke" data-item-order="2000000000" transform="translate(43.078125, 199.2657470703125)"/>
      <g id="g-root-ic_cond_18iu4xnvzcwlh-stroke" data-item-order="2000000000" transform="translate(199.078125, 216.2657470703125)">
        <g id="ic_cond_18iu4xnvzcwlh-stroke" fill="none" stroke-linecap="round" stroke-linejoin="round" stroke-miterlimit="4" stroke="#1ac3fb" stroke-width="2" stroke-opacity="1">
          <g>
            <path d="M 10 10M 28.024 38.125L 19.529501 32.125L 28.024 26.125L 36.421001 32.125L 28.024 38.125ZM 28.024 26.125L 28.024 12.6445M 36.421001 32.125L 43.714001 32.125C 44.121494 32.124603 44.512413 32.286301 44.800556 32.574444C 45.088699 32.862587 45.250401 33.253506 45.25 33.660999L 45.25 43.355499M 19.529501 32.125L 12.286 32.125C 11.878506 32.124603 11.487586 32.286301 11.199444 32.574444C 10.911302 32.862587 10.749601 33.253506 10.75 33.660999L 10.75 43.355499M 36.274002 24.667L 43.774002 17.167M 43.774002 24.667L 36.274002 17.167M 12.274 21.667L 15.208 24.667L 21.208 17.167"/>
          </g>
        </g>
      </g>
      <g id="g-root-tx_confirmp_mdm1krvzfpj7-stroke" data-item-order="2000000000" transform="translate(451.078125, 199.2657470703125)"/>
      <g id="g-root-ic_chec_qnt9x7vz8nie-stroke" data-item-order="2000000000" transform="translate(382.078125, 234.2657470703125)">
        <g id="ic_chec_qnt9x7vz8nie-stroke" fill="none" stroke-linecap="round" stroke-linejoin="round" stroke-miterlimit="4" stroke="#43dd93" stroke-width="2" stroke-opacity="1">
          <g>
            <path d="M 44.875 25L 44.875 13.375C 44.875 12.13236 43.867641 11.125 42.625 11.125L 13.375 11.125C 12.13236 11.125 11.125 12.13236 11.125 13.375L 11.125 33.625C 11.125 34.867641 12.13236 35.875 13.375 35.875L 21.625 35.875M 18.076 18.799C 18.076 20.759058 19.664942 22.348 21.625 22.348C 23.585058 22.348 25.174 20.759058 25.174 18.799C 25.174 16.838942 23.585058 15.25 21.625 15.25C 19.664942 15.25 18.076 16.838942 18.076 18.799M 23.674 29.445999L 15.541 29.445999C 15.540647 27.024506 16.976318 24.833338 19.196548 23.866789C 21.416779 22.90024 23.998817 23.34235 25.771002 24.9925M 31.375 16.75L 38.125 16.75M 31.375 21.25L 40.375 21.25M 26.875 35.875C 26.875002 40.845566 30.904438 44.875 35.875 44.875C 40.845566 44.875 44.875 40.845566 44.875 35.875C 44.875 30.904438 40.845566 26.875002 35.875 26.875002C 30.904438 26.875002 26.875002 30.904438 26.875002 35.875M 39.886002 33.2575L 35.5285 39.068501C 35.154602 39.5662 34.447903 39.666294 33.9505 39.291996C 33.908588 39.260361 33.868988 39.225773 33.832001 39.188499L 31.581999 36.938499"/>
          </g>
        </g>
      </g>
      <g id="g-root-ic_link_4ju4qjvzcw08-stroke" data-item-order="2000000000" transform="translate(184.078125, 390.2657470703125)">
        <g id="ic_link_4ju4qjvzcw08-stroke" fill="none" stroke-linecap="round" stroke-linejoin="round" stroke-miterlimit="4" stroke="#ffe711" stroke-width="2" stroke-opacity="1">
          <g>
            <path d="M 36.4165 42.780998L 34.824997 44.370998C 33.6535 45.542145 31.754499 45.542145 30.583 44.370998L 29.522501 43.310501C 28.351353 42.139 28.351353 40.239998 29.522501 39.068501L 34.067501 34.521999C 35.071888 33.518753 36.699112 33.518753 37.703499 34.521999L 38.537498 35.355999M 37.477001 31.112499L 39.068501 29.522501C 40.239998 28.351353 42.139 28.351353 43.310501 29.522501L 44.370998 30.583C 45.542145 31.754499 45.542145 33.6535 44.370998 34.824997L 39.826 39.371498C 38.821095 40.374916 37.193398 40.374916 36.188499 39.371498L 35.355999 38.537498M 39.25 16.75L 39.25 25.75M 16.75 13.75L 36.25 13.75M 13.75 36.25L 13.75 16.75M 25.75 39.25L 16.75 39.25M 11.5 10.75L 16 10.75C 16 10.75 16.75 10.75 16.75 11.5L 16.75 16C 16.75 16 16.75 16.75 16 16.75L 11.5 16.75C 11.5 16.75 10.75 16.75 10.75 16L 10.75 11.5C 10.75 11.5 10.75 10.75 11.5 10.75M 37 10.75L 41.5 10.75C 41.5 10.75 42.25 10.75 42.25 11.5L 42.25 16C 42.25 16 42.25 16.75 41.5 16.75L 37 16.75C 37 16.75 36.25 16.75 36.25 16L 36.25 11.5C 36.25 11.5 36.25 10.75 37 10.75M 11.5 36.25L 16 36.25C 16 36.25 16.75 36.25 16.75 37L 16.75 41.5C 16.75 41.5 16.75 42.25 16 42.25L 11.5 42.25C 11.5 42.25 10.75 42.25 10.75 41.5L 10.75 37C 10.75 37 10.75 36.25 11.5 36.25"/>
          </g>
        </g>
      </g>
      <g id="g-root-ic_1_1lw62kbvza2h7-stroke" data-item-order="2000000000" transform="translate(367.078125, 408.2657470703125)">
        <g id="ic_1_1lw62kbvza2h7-stroke" fill="none" stroke-linecap="round" stroke-linejoin="round" stroke-miterlimit="4" stroke="#a6da37" stroke-width="2" stroke-opacity="1">
          <g>
            <path d="M 43.788399 31.157949L 43.788399 24.841795L 37.33165 24.841795L 37.33165 31.157949L 43.788399 31.157949ZM 10 10M 28.302401 20.034655L 32.756649 15.580315L 28.302401 11.125996L 23.848061 15.580315L 28.302401 20.034655ZM 10 10M 36.6964 18.966206L 40.476101 12.194335L 44.570648 18.966206L 36.6964 18.966206ZM 28.3027 31.73275C 30.383801 31.73275 32.07085 30.0457 32.07085 27.9646C 32.07085 25.88365 30.383801 24.196541 28.3027 24.196541C 26.2216 24.196541 24.53455 25.88365 24.53455 27.9646C 24.53455 30.0457 26.2216 31.73275 28.3027 31.73275ZM 10 10M 33.929352 38.875L 31.67935 36.625L 22.979336 36.625C 22.079334 34.375 19.979321 32.875 17.429319 32.875C 14.12932 32.875 11.429321 35.574997 11.429321 38.875C 11.429321 42.175003 14.12932 44.875 17.429319 44.875C 19.979321 44.875 22.079334 43.375 22.979336 41.125L 31.67935 41.125L 33.929352 38.875ZM 15.841061 40.35535C 16.658621 40.35535 17.321381 39.69265 17.321381 38.875149C 17.321381 38.057499 16.658621 37.394802 15.841061 37.394802C 15.023515 37.394802 14.360755 38.057499 14.360755 38.875149C 14.360755 39.69265 15.023515 40.35535 15.841061 40.35535Z"/>
          </g>
        </g>
      </g>
      <g id="g-root-tx_enforces_qvayyjvzfnr8-stroke" data-item-order="2000000000" transform="translate(55.078125, 427.2657470703125)"/>
      <g id="g-root-tx_checkres_4otxffvzfmz3-stroke" data-item-order="2000000000" transform="translate(451.078125, 415.265625)"/>
      <g id="g-root-tx_applyacc_djugl7vzfpc5-stroke" data-item-order="2000000000" transform="translate(43.078125, 451.2657470703125)"/>
      <g id="g-root-tx_determin_18ntxmjvzfnk9-stroke" data-item-order="2000000000" transform="translate(451.078125, 451.265625)"/>
    </g>
  </g>
  <path id="w1uuag4vz1i70o" d="M 835.54 766.781 C 835.658 767.213 836.199 767.358 836.52 767.043 L 845.246 758.482 L 834.876 764.349 L 835.54 766.781 Z M 831.824 747.299 C 831.431 747.081 830.948 747.36 830.948 747.807 L 830.948 752.987 L 836.443 749.876 L 831.824 747.299 Z M 838.076 750.804 L 830.948 754.835 L 830.948 758.907 L 841.667 752.839 L 838.076 750.804 Z M 845.972 756.304 C 846.364 756.084 846.369 755.523 845.979 755.295 C 845.977 755.293 845.974 755.292 845.972 755.29 L 843.302 753.791 L 830.95 760.783 L 830.95 763.751 C 830.948 764.199 831.435 764.48 831.827 764.259 L 845.974 756.304 L 845.972 756.304 Z M 800.756 749.723 C 800.756 749.002 801.351 748.419 802.084 748.419 C 802.817 748.419 803.412 749.002 803.412 749.723 C 803.412 750.444 802.817 751.027 802.084 751.027 C 801.351 751.027 800.756 750.444 800.756 749.723 Z M 899.986 749.723 C 899.986 749.002 900.586 748.419 901.316 748.419 C 902.056 748.419 902.646 749.002 902.646 749.723 C 902.646 750.444 902.056 751.027 901.316 751.027 C 900.586 751.027 899.986 750.444 899.986 749.723 Z M 755.843 762.439 L 753.713 762.439 L 753.713 761.628 C 753.25 761.962 752.264 762.642 750.558 762.642 C 748.542 762.642 746.744 761.32 746.974 759.181 C 747.172 757.34 748.908 756.544 750.074 756.306 L 753.713 755.731 C 753.713 754.834 753.226 754.139 751.928 754.056 C 750.63 753.973 749.899 754.564 749.294 755.75 L 747.409 754.742 C 749.451 750.361 755.843 751.805 755.843 755.431 L 755.843 762.437 L 755.843 762.439 Z M 753.713 757.676 C 753.723 758.336 753.609 759.528 752.339 760.324 C 751.355 760.94 749.252 760.822 749.148 759.666 C 749.066 758.742 749.921 758.349 750.667 758.171 L 753.713 757.676 Z M 875.574 762.439 L 873.444 762.439 L 873.444 761.628 C 872.982 761.962 871.995 762.642 870.29 762.642 C 868.274 762.642 866.476 761.32 866.706 759.181 C 866.904 757.34 868.64 756.544 869.805 756.306 L 873.444 755.731 C 873.444 754.834 872.958 754.139 871.66 754.056 C 870.362 753.973 869.631 754.564 869.025 755.75 L 867.14 754.742 C 869.183 750.361 875.574 751.805 875.574 755.431 L 875.574 762.437 L 875.574 762.439 Z M 873.444 757.676 C 873.454 758.336 873.34 759.528 872.069 760.324 C 871.085 760.94 868.982 760.822 868.878 759.666 C 868.796 758.742 869.651 758.349 870.397 758.171 L 873.443 757.676 L 873.444 757.676 Z M 892.246 762.439 L 890.156 762.439 L 890.156 748.368 L 892.246 748.368 L 892.246 756.519 L 896.746 752.258 L 899.656 752.258 L 895.246 756.479 L 899.796 762.437 L 897.186 762.437 L 893.706 757.929 L 892.246 759.335 L 892.246 762.437 L 892.246 762.439 Z M 902.396 752.258 L 900.296 752.258 L 900.296 762.437 L 902.396 762.437 L 902.396 752.258 Z M 803.115 752.258 L 801.01 752.258 L 801.01 762.437 L 803.115 762.437 L 803.115 752.258 Z M 812.48 762.437 L 812.48 748.364 L 814.585 748.364 L 814.585 752.852 C 815.19 752.276 816.262 752.044 817.05 752.044 C 819.485 752.044 821.204 753.846 821.171 756.121 L 821.171 762.435 L 819.041 762.435 L 819.041 756.307 C 819.041 755.628 818.682 754.078 816.836 754.078 C 815.212 754.078 814.585 755.337 814.585 756.307 L 814.585 762.437 L 812.48 762.437 Z M 804.497 754.287 L 804.497 752.264 L 805.539 752.264 C 805.955 752.264 806.293 751.93 806.293 751.515 L 806.293 750.091 L 808.391 750.091 L 808.391 752.264 L 810.587 752.264 L 810.587 754.287 L 808.391 754.287 L 808.391 759.465 C 808.391 759.952 808.567 760.57 809.478 760.57 C 810.09 760.57 810.369 760.512 810.712 760.454 L 810.712 762.347 C 810.712 762.347 810.107 762.535 809.275 762.535 C 806.931 762.535 806.295 760.785 806.295 759.558 L 806.295 754.287 L 804.499 754.287 L 804.497 754.287 Z M 787.315 752.264 L 784.977 752.264 L 788.652 762.432 L 790.539 762.432 L 792.608 755.908 L 794.684 762.432 L 796.578 762.432 L 800.247 752.264 L 797.928 752.264 L 795.649 758.808 L 793.542 752.264 L 791.657 752.264 L 789.574 758.853 L 787.314 752.264 L 787.315 752.264 Z M 770.014 757.43 C 769.981 760.037 772.005 762.64 775.42 762.64 C 778.046 762.64 779.416 761.111 780.005 759.778 L 778.333 758.86 C 777.804 759.525 776.989 760.682 775.418 760.682 C 773.498 760.682 772.357 759.381 772.246 758.151 L 780.003 758.151 C 780.127 757.678 780.251 756.494 779.953 755.555 C 779.389 753.783 777.905 752.054 775.191 752.054 C 772.478 752.054 770.013 753.973 770.013 757.428 L 770.014 757.43 Z M 772.3 756.181 L 777.915 756.181 C 777.823 755.465 776.966 754.014 775.193 754.014 C 773.848 754.013 772.667 754.897 772.3 756.181 Z M 757.612 757.43 C 757.676 760.357 759.754 762.647 762.887 762.647 C 764.688 762.647 765.776 761.852 766.175 761.528 L 766.175 762.439 L 768.258 762.439 L 768.258 748.374 L 766.149 748.374 L 766.149 753.183 C 765.454 752.584 764.367 752.051 762.912 752.051 C 759.708 752.051 757.548 754.504 757.612 757.43 Z M 759.807 757.296 C 759.807 759.16 761.02 760.59 762.887 760.59 C 764.683 760.649 766.164 759.205 766.14 757.42 C 766.14 755.137 764.445 754.106 762.833 754.106 C 761.221 754.106 759.806 755.435 759.806 757.296 L 759.807 757.296 Z M 888.416 757.25 C 888.346 754.322 886.266 752.033 883.138 752.033 C 881.337 752.033 880.248 752.827 879.849 753.152 L 879.849 752.241 L 877.766 752.241 L 877.766 765.929 L 879.876 765.929 L 879.876 761.496 C 880.57 762.096 881.659 762.628 883.113 762.628 C 886.316 762.628 888.476 760.176 888.416 757.25 Z M 886.216 757.383 C 886.216 755.52 885.006 754.089 883.138 754.089 C 881.34 754.033 879.859 755.476 879.884 757.26 C 879.884 759.543 881.58 760.574 883.192 760.574 C 884.803 760.574 886.216 759.245 886.216 757.383 Z M 904.566 762.479 L 904.566 752.259 L 906.666 752.259 L 906.666 752.895 C 907.276 752.319 908.346 752.088 909.136 752.088 C 911.566 752.088 913.286 753.89 913.256 756.164 L 913.256 762.479 L 911.126 762.479 L 911.126 756.349 C 911.126 755.67 910.766 754.119 908.916 754.119 C 907.296 754.119 906.666 755.378 906.666 756.349 L 906.666 762.479 L 904.566 762.479 Z M 853.611 762.444 L 853.611 748.576 L 855.429 748.576 L 862.498 758.196 L 862.498 748.576 L 864.712 748.576 L 864.712 762.444 L 862.877 762.444 L 855.821 752.792 L 855.821 762.444 L 853.609 762.444 L 853.611 762.444 Z M 734.842 762.439 L 732.762 762.439 L 732.762 749.497 L 734.463 749.497 L 738.931 755.486 L 743.382 749.505 L 745.109 749.505 L 745.109 762.437 L 743.003 762.437 L 743.003 753.468 L 738.931 758.973 L 734.842 753.435 L 734.842 762.439 Z" fill="#ababab88" stroke="none" style="transform-origin: 466.96px 393.946px;" transform="matrix(0.999999, 0.001276, -0.001276, 0.999999, 0, 0)"/>
</svg>