<?xml version="1.0" encoding="utf-8" standalone="yes"?>
<!DOCTYPE svg PUBLIC "-//W3C//DTD SVG 1.1//EN" "http://www.w3.org/Graphics/SVG/1.1/DTD/svg11.dtd">
<svg style="fill:none;stroke:none;fill-rule:evenodd;clip-rule:evenodd;stroke-linecap:round;stroke-linejoin:round;stroke-miterlimit:1.5;" version="1.1" xmlns="http://www.w3.org/2000/svg" xmlns:xlink="http://www.w3.org/1999/xlink" width="900" height="612" viewBox="0 0 900 612"><style class="text-font-style fontImports" data-font-family="Roboto">@import url(https://fonts.googleapis.com/css2?family=Roboto:wght@400;700&amp;amp;display=block);</style><g id="items" style="isolation: isolate"><g id="blend" style="mix-blend-mode: normal"><g id="g-root-cp_-1_Common_4jtikpyrk2kn-fill" data-item-order="-439621" transform="translate(38, 122)"></g><g id="g-root-cp_4_g-4_4jtikpyrk2ko-fill" data-item-order="-439617" transform="translate(326, 230)"></g><g id="g-root-cp_4_g-4_1_4mhjdyrk075-fill" data-item-order="-439613" transform="translate(326, 230)"></g><g id="g-root-cp_3_g-3_4mhjdyrk076-fill" data-item-order="-439609" transform="translate(242, 230)"></g><g id="g-root-cp_2_g-2_4mhjdyrk077-fill" data-item-order="-439605" transform="translate(158, 230)"></g><g id="g-root-cp_1_g-1_1qa3j9lyrk0ss-fill" data-item-order="-439601" transform="translate(74, 230)"></g><g id="g-root-tx_porcexpr_1qa3j9lyrk0st-fill" data-item-order="0" transform="translate(284, 38)"><g id="tx_porcexpr_1qa3j9lyrk0st-fill-merged" stroke="none" fill="#f4f4f4" fill-opacity="1"><g><text style="font: bold 25px &quot;Roboto&quot;, sans-serif; white-space: pre;" transform="translate(166, 28)" font-weight="bold" font-size="25px" font-family="'Roboto', sans-serif"><tspan x="-153.39" y="15" dominant-baseline="ideographic">PORC Expression Structure</tspan></text></g></g></g><g id="g-root-ic_text_hx5g7dyrk008-fill" data-item-order="0" transform="translate(470, 164)"></g><g id="g-root-tx_principa_znszm1yrk0su-fill" data-item-order="0" transform="translate(530, 164)"><g id="tx_principa_znszm1yrk0su-fill-merged" stroke="none" fill="#1ac3fb" fill-opacity="1"><g><text style="font: 20px &quot;Roboto&quot;, sans-serif; white-space: pre;" transform="translate(10, 22)" font-size="20px" font-family="'Roboto', sans-serif"><tspan x="2" y="12" dominant-baseline="ideographic">Principal</tspan></text></g></g></g><g id="g-root-tx_identifi_mcch8pyrk2dr-fill" data-item-order="0" transform="translate(530, 200)"><g id="tx_identifi_mcch8pyrk2dr-fill-merged" stroke="none" fill="#f4f4f4" fill-opacity="1"><g><text style="font: 15px &quot;Roboto&quot;, sans-serif; white-space: pre;" transform="translate(10, 22)" font-size="15px" font-family="'Roboto', sans-serif"><tspan x="2" y="9" dominant-baseline="ideographic">Identifies the user making the request</tspan></text></g></g></g><g id="g-root-ic_voti_1uo1m4pyrmtc0-fill" data-item-order="0" transform="translate(470, 248)"></g><g id="g-root-tx_operatio_qof4uhyrmvwm-fill" data-item-order="0" transform="translate(530, 248)"><g id="tx_operatio_qof4uhyrmvwm-fill-merged" stroke="none" fill="#43dd93" fill-opacity="1"><g><text style="font: 20px &quot;Roboto&quot;, sans-serif; white-space: pre;" transform="translate(10, 22)" font-size="20px" font-family="'Roboto', sans-serif"><tspan x="2" y="12" dominant-baseline="ideographic">Operation</tspan></text></g></g></g><g id="g-root-tx_specifie_ddl3k9yrmubr-fill" data-item-order="0" transform="translate(530, 284)"><g id="tx_specifie_ddl3k9yrmubr-fill-merged" stroke="none" fill="#f4f4f4" fill-opacity="1"><g><text style="font: 15px &quot;Roboto&quot;, sans-serif; white-space: pre;" transform="translate(10, 22)" font-size="15px" font-family="'Roboto', sans-serif"><tspan x="2" y="9" dominant-baseline="ideographic">Specifies the action being requested</tspan></text></g></g></g><g id="g-root-ic_1_mcckehyr356o-fill" data-item-order="0" transform="translate(470, 332)"></g><g id="g-root-tx_resource_1hdu53dyr37k6-fill" data-item-order="0" transform="translate(530, 332)"><g id="tx_resource_1hdu53dyr37k6-fill-merged" stroke="none" fill="#a6da37" fill-opacity="1"><g><text style="font: 20px &quot;Roboto&quot;, sans-serif; white-space: pre;" transform="translate(10, 22)" font-size="20px" font-family="'Roboto', sans-serif"><tspan x="2" y="12" dominant-baseline="ideographic">Resource</tspan></text></g></g></g><g id="g-root-tx_indicate_v7d3k9yr36rz-fill" data-item-order="0" transform="translate(530, 368)"><g id="tx_indicate_v7d3k9yr36rz-fill-merged" stroke="none" fill="#f4f4f4" fill-opacity="1"><g><text style="font: 15px &quot;Roboto&quot;, sans-serif; white-space: pre;" transform="translate(10, 22)" font-size="15px" font-family="'Roboto', sans-serif"><tspan x="2" y="9" dominant-baseline="ideographic">Indicates the object being accessed</tspan></text></g></g></g><g id="g-root-ic_user_qnsqx5yr6139-fill" data-item-order="0" transform="translate(470, 416)"></g><g id="g-root-tx_context_1lpwsp5yr60az-fill" data-item-order="0" transform="translate(530, 416)"><g id="tx_context_1lpwsp5yr60az-fill-merged" stroke="none" fill="#ffe711" fill-opacity="1"><g><text style="font: 20px &quot;Roboto&quot;, sans-serif; white-space: pre;" transform="translate(10, 22)" font-size="20px" font-family="'Roboto', sans-serif"><tspan x="2" y="12" dominant-baseline="ideographic">Context</tspan></text></g></g></g><g id="g-root-tx_provides_13z99ahyr5zic-fill" data-item-order="0" transform="translate(530, 452)"><g id="tx_provides_13z99ahyr5zic-fill-merged" stroke="none" fill="#f4f4f4" fill-opacity="1"><g><text style="font: 15px &quot;Roboto&quot;, sans-serif; white-space: pre;" transform="translate(10, 28)" font-size="15px" font-family="'Roboto', sans-serif"><tspan x="2" y="0" dominant-baseline="ideographic">Provides additional relevant </tspan><tspan x="2" y="18" dominant-baseline="ideographic">information</tspan></text></g></g></g><g id="g-root-cp_-1_Common_4jtikpyrk2kn-stroke" data-item-order="-439621" transform="translate(38, 122)"><g id="cp_-1_Common_4jtikpyrk2kn-stroke" fill="none" stroke-linecap="round" stroke-linejoin="round" stroke-miterlimit="4" stroke="#f4f4f4" stroke-width="2" stroke-opacity="1"><g><path d="M 10 394L 22 394L 394 394L 406 394L 406 418L 10 418L 10 394ZM 34 370L 382 370L 382 382L 34 382L 34 370ZM 208 10L 406 82L 406 94L 394 94L 22 94L 10 94L 10 82L 208 10ZM 34 118L 382 118L 382 106L 34 106L 34 118ZM 22 94L 22 106L 34 106L 382 106L 394 106L 394 94L 22 94ZM 382 382L 34 382L 22 382L 22 394L 394 394L 394 382L 382 382Z"></path></g></g></g><g id="g-root-cp_4_g-4_4jtikpyrk2ko-stroke" data-item-order="-439617" transform="translate(326, 230)"><g id="cp_4_g-4_4jtikpyrk2ko-stroke" fill="none" stroke-linecap="round" stroke-linejoin="round" stroke-miterlimit="4" stroke="#ffe711" stroke-width="2" stroke-opacity="1"><g><path d="M 22 34L 70 34L 70 238L 22 238L 22 34ZM 16 22L 76 22L 82 22L 82 10L 10 10L 10 22L 16 22ZM 76 250L 16 250L 10 250L 10 262L 82 262L 82 250L 76 250ZM 76 250L 76 238L 70 238L 22 238L 16 238L 16 250L 76 250ZM 76 22L 16 22L 16 34L 22 34L 70 34L 76 34L 76 22Z"></path></g></g></g><g id="g-root-cp_4_g-4_1_4mhjdyrk075-stroke" data-item-order="-439613" transform="translate(326, 230)"><g id="cp_4_g-4_1_4mhjdyrk075-stroke" fill="none" stroke-linecap="round" stroke-linejoin="round" stroke-miterlimit="4" stroke="#ffe711" stroke-width="2" stroke-opacity="1"><g><path d="M 22 34L 70 34L 70 238L 22 238L 22 34ZM 16 22L 76 22L 82 22L 82 10L 10 10L 10 22L 16 22ZM 76 250L 16 250L 10 250L 10 262L 82 262L 82 250L 76 250ZM 76 250L 76 238L 70 238L 22 238L 16 238L 16 250L 76 250ZM 76 22L 16 22L 16 34L 22 34L 70 34L 76 34L 76 22Z"></path></g></g></g><g id="g-root-cp_3_g-3_4mhjdyrk076-stroke" data-item-order="-439609" transform="translate(242, 230)"><g id="cp_3_g-3_4mhjdyrk076-stroke" fill="none" stroke-linecap="round" stroke-linejoin="round" stroke-miterlimit="4" stroke="#a6da37" stroke-width="2" stroke-opacity="1"><g><path d="M 22 34L 70 34L 70 238L 22 238L 22 34ZM 16 22L 76 22L 82 22L 82 10L 10 10L 10 22L 16 22ZM 76 250L 16 250L 10 250L 10 262L 82 262L 82 250L 76 250ZM 76 250L 76 238L 70 238L 22 238L 16 238L 16 250L 76 250ZM 76 22L 16 22L 16 34L 22 34L 70 34L 76 34L 76 22Z"></path></g></g></g><g id="g-root-cp_2_g-2_4mhjdyrk077-stroke" data-item-order="-439605" transform="translate(158, 230)"><g id="cp_2_g-2_4mhjdyrk077-stroke" fill="none" stroke-linecap="round" stroke-linejoin="round" stroke-miterlimit="4" stroke="#43dd93" stroke-width="2" stroke-opacity="1"><g><path d="M 22 34L 70 34L 70 238L 22 238L 22 34ZM 16 22L 76 22L 82 22L 82 10L 10 10L 10 22L 16 22ZM 76 250L 16 250L 10 250L 10 262L 82 262L 82 250L 76 250ZM 76 250L 76 238L 70 238L 22 238L 16 238L 16 250L 76 250ZM 76 22L 16 22L 16 34L 22 34L 70 34L 76 34L 76 22Z"></path></g></g></g><g id="g-root-cp_1_g-1_1qa3j9lyrk0ss-stroke" data-item-order="-439601" transform="translate(74, 230)"><g id="cp_1_g-1_1qa3j9lyrk0ss-stroke" fill="none" stroke-linecap="round" stroke-linejoin="round" stroke-miterlimit="4" stroke="#1ac3fb" stroke-width="2" stroke-opacity="1"><g><path d="M 22 34L 70 34L 70 238L 22 238L 22 34ZM 16 22L 76 22L 82 22L 82 10L 10 10L 10 22L 16 22ZM 76 250L 16 250L 10 250L 10 262L 82 262L 82 250L 76 250ZM 76 250L 76 238L 70 238L 22 238L 16 238L 16 250L 76 250ZM 76 22L 16 22L 16 34L 22 34L 70 34L 76 34L 76 22Z"></path></g></g></g><g id="g-root-tx_porcexpr_1qa3j9lyrk0st-stroke" data-item-order="0" transform="translate(284, 38)"></g><g id="g-root-ic_text_hx5g7dyrk008-stroke" data-item-order="0" transform="translate(470, 164)"><g id="ic_text_hx5g7dyrk008-stroke" fill="none" stroke-linecap="round" stroke-linejoin="round" stroke-miterlimit="4" stroke="#1ac3fb" stroke-width="2" stroke-opacity="1"><g><path d="M 35 33L 55 33C 55 33 57 33 57 35L 57 55C 57 55 57 57 55 57L 35 57C 35 57 33 57 33 55L 33 35C 33 35 33 33 35 33M 10 10M 39 39L 51 39M 10 10M 39 45L 51 45M 10 10M 39 51L 43.5 51M 31.364 29.384001C 33.736435 29.648733 36.13031 29.129639 38.18 27.906C 38.421547 27.762133 38.588612 27.520359 38.637756 27.243542C 38.686897 26.966724 38.613266 26.682219 38.435997 26.463999C 37.620003 25.501999 37.052002 24.226 36.802002 20.529999C 36.323997 13.48 31.57 11 27.483999 11C 23.397999 11 18.644001 13.48 18.167999 20.529999C 17.917999 24.223999 17.35 25.501999 16.534 26.464001C 16.356733 26.682219 16.2831 26.966724 16.332243 27.243542C 16.381386 27.520359 16.548452 27.762133 16.789999 27.905998C 18.838049 29.128208 21.229557 29.647245 23.599998 29.383999M 31.364 29.386L 31.364 28.09C 31.361683 27.71007 31.520044 27.346859 31.799999 27.089998C 32.84108 26.242001 33.40255 24.939117 33.304001 23.6L 33.304001 19.728001C 31.023767 19.335838 28.959236 18.140396 27.483999 16.358C 26.009846 18.140671 23.945816 19.336233 21.666 19.728001L 21.666 23.6C 21.569456 24.937063 22.130733 26.237253 23.17 27.084C 23.449955 27.340858 23.608315 27.704071 23.605999 28.084L 23.605999 30.702C 23.601013 31.296726 23.229431 31.826649 22.672001 32.034C 17.354 34.003998 13.446 35.405998 12.434 37.433998C 11.570074 39.167908 11.081447 41.064491 11 43L 29 43"></path></g></g></g><g id="g-root-tx_principa_znszm1yrk0su-stroke" data-item-order="0" transform="translate(530, 164)"></g><g id="g-root-tx_identifi_mcch8pyrk2dr-stroke" data-item-order="0" transform="translate(530, 200)"></g><g id="g-root-ic_voti_1uo1m4pyrmtc0-stroke" data-item-order="0" transform="translate(470, 248)"><g id="ic_voti_1uo1m4pyrmtc0-stroke" fill="none" stroke-linecap="round" stroke-linejoin="round" stroke-miterlimit="4" stroke="#43dd93" stroke-width="2" stroke-opacity="1"><g><path d="M 28 31.006001C 28 29.90143 27.10457 29.006001 26 29.006001L 20 29.006001C 18.895432 29.006001 18 29.90143 18 31.006001M 33 31.007999C 33 29.903431 33.895432 29.007999 35 29.007999L 55 29.007999C 56.104568 29.007999 57 29.903431 57 31.007999L 57 36.007999C 57 37.112572 56.104568 38.007999 55 38.007999L 35 38.007999C 33.895432 38.007999 33 37.112572 33 36.007999L 33 31.007999ZM 18 17.006001C 18 15.90143 18.895432 15.006001 20 15.006001L 26 15.006001C 27.10457 15.006001 28 15.90143 28 17.006001L 28 22.006001C 28 23.110569 27.10457 24.006001 26 24.006001L 20 24.006001C 18.895432 24.006001 18 23.110569 18 22.006001L 18 17.006001ZM 33 17.004C 33 15.89943 33.895432 15.004 35 15.004L 55 15.004C 56.104568 15.004 57 15.89943 57 17.004L 57 22.004C 57 23.10857 56.104568 24.004 55 24.004L 35 24.004C 33.895432 24.004 33 23.10857 33 22.004L 33 17.004ZM 10 10M 38.134003 57L 38.334 54.754002C 38.607002 51.748859 36.605682 49.008499 33.66 48.354L 26.360001 46.73L 26.360001 37.049999C 26.360001 34.978935 24.681068 33.300003 22.610001 33.300003C 20.538933 33.300003 18.860001 34.978935 18.860001 37.050003L 18.860001 53.650002L 15.903999 51.431999C 14.683374 50.517773 12.976372 50.639645 11.898007 51.718006C 10.819642 52.796371 10.697771 54.503376 11.612 55.723999L 12.559999 56.987999"></path></g></g></g><g id="g-root-tx_operatio_qof4uhyrmvwm-stroke" data-item-order="0" transform="translate(530, 248)"></g><g id="g-root-tx_specifie_ddl3k9yrmubr-stroke" data-item-order="0" transform="translate(530, 284)"></g><g id="g-root-ic_1_mcckehyr356o-stroke" data-item-order="0" transform="translate(470, 332)"><g id="ic_1_mcckehyr356o-stroke" fill="none" stroke-linecap="round" stroke-linejoin="round" stroke-miterlimit="4" stroke="#a6da37" stroke-width="2" stroke-opacity="1"><g><path d="M 55.051201 38.210602L 55.051201 29.789061L 46.4422 29.789061L 46.4422 38.210602L 55.051201 38.210602ZM 10 10M 34.403198 23.379539L 40.342201 17.44042L 34.403198 11.501328L 28.464081 17.44042L 34.403198 23.379539ZM 10 10M 45.5952 21.954941L 50.6348 12.92578L 56.0942 21.954941L 45.5952 21.954941ZM 34.403603 38.976997C 37.178398 38.976997 39.427799 36.7276 39.427799 33.952801C 39.427799 31.1782 37.178398 28.92872 34.403603 28.92872C 31.628799 28.92872 29.3794 31.1782 29.3794 33.952801C 29.3794 36.7276 31.628799 38.976997 34.403603 38.976997ZM 10 10M 41.9058 48.5L 38.9058 45.5L 27.30578 45.5C 26.10578 42.5 23.305759 40.5 19.90576 40.5C 15.50576 40.5 11.905762 44.099998 11.905762 48.5C 11.905762 52.900002 15.50576 56.5 19.90576 56.5C 23.305759 56.5 26.10578 54.5 27.30578 51.5L 38.9058 51.5L 41.9058 48.5ZM 17.78808 50.473801C 18.87816 50.473801 19.761841 49.590199 19.761841 48.500198C 19.761841 47.41 18.87816 46.526402 17.78808 46.526402C 16.698021 46.526402 15.814341 47.41 15.814341 48.500198C 15.814341 49.590199 16.698021 50.473801 17.78808 50.473801Z"></path></g></g></g><g id="g-root-tx_resource_1hdu53dyr37k6-stroke" data-item-order="0" transform="translate(530, 332)"></g><g id="g-root-tx_indicate_v7d3k9yr36rz-stroke" data-item-order="0" transform="translate(530, 368)"></g><g id="g-root-ic_user_qnsqx5yr6139-stroke" data-item-order="0" transform="translate(470, 416)"><g id="ic_user_qnsqx5yr6139-stroke" fill="none" stroke-linecap="round" stroke-linejoin="round" stroke-miterlimit="4" stroke="#ffe711" stroke-width="2" stroke-opacity="1"><g><path d="M 44.866001 11C 41.675541 11.010678 38.622807 12.301193 36.392128 14.582251C 34.161453 16.863308 32.93943 19.944099 33 23.133999C 32.910019 25.367176 33.451389 27.580486 34.562 29.52L 31 37L 38.482002 33.436001C 42.855595 36.14727 48.464031 35.803398 52.473644 32.578133C 56.483253 29.352871 58.021049 23.948427 56.310055 19.095407C 54.59906 14.242387 50.011803 10.997408 44.866001 11ZM 45 27C 45.276142 27 45.5 27.223858 45.5 27.5C 45.5 27.776142 45.276142 28 45 28C 44.723858 28 44.5 27.776142 44.5 27.5C 44.5 27.223858 44.723858 27 45 27M 45 24.001999L 45 18.001999M 43 39.001999L 43 57.001999M 11 57L 11 21C 11 18.790861 12.790861 17 15 17L 30 17M 29 25.001999L 11 25.001999M 21.5 43.501999C 21.5 45.987282 23.514719 48.001999 26 48.001999C 28.485281 48.001999 30.5 45.987282 30.5 43.501999C 30.5 41.01672 28.485281 39.001999 26 39.001999C 23.514719 39.001999 21.5 41.01672 21.5 43.501999ZM 35 57C 33.950928 52.885952 30.245701 50.006985 26 50.006985C 21.754299 50.006985 18.049076 52.885952 17 57M 24 21.001999L 29 21.001999"></path></g></g></g><g id="g-root-tx_context_1lpwsp5yr60az-stroke" data-item-order="0" transform="translate(530, 416)"></g><g id="g-root-tx_provides_13z99ahyr5zic-stroke" data-item-order="0" transform="translate(530, 452)"></g></g></g><path id="w18koibdyrk2rx" d="M65.283 12.757a.35.35 0 0 0 .584.157l5.203-5.141-6.183 3.523.396 1.461zm-2.216-11.7a.35.35 0 0 0-.522.305v3.111l3.276-1.868-2.754-1.548zm3.728 2.105l-4.25 2.421v2.445l6.391-3.644-2.141-1.222zm4.708 3.303a.35.35 0 0 0 0-.609l-1.592-.9-7.365 4.199v1.782a.35.35 0 0 0 .523.305l8.435-4.777z M44.542 2.513c0-.433.355-.783.792-.783s.792.35.792.783-.355.783-.792.783-.792-.35-.792-.783zm59.171 0c0-.433.355-.783.792-.783s.792.35.792.783-.355.783-.792.783-.792-.35-.792-.783zm-85.951 7.636h-1.27v-.487c-.276.201-.864.609-1.881.609-1.202 0-2.274-.794-2.137-2.078.118-1.106 1.153-1.584 1.848-1.727l2.17-.345c0-.539-.29-.956-1.064-1.006s-1.21.305-1.571 1.017l-1.124-.605c1.218-2.631 5.029-1.764 5.029.414v4.207zm-1.27-2.86c.006.396-.062 1.112-.819 1.59-.587.37-1.841.299-1.903-.395-.049-.555.461-.791.906-.898l1.816-.297zm72.662 2.86h-1.27v-.487c-.276.201-.864.609-1.881.609-1.202 0-2.274-.794-2.137-2.078.118-1.106 1.153-1.584 1.848-1.727l2.17-.345c0-.539-.29-.956-1.064-1.006s-1.21.305-1.571 1.017l-1.124-.605c1.218-2.631 5.029-1.764 5.029.414v4.207zm-1.27-2.86c.006.396-.062 1.112-.82 1.59-.587.37-1.841.299-1.903-.395-.049-.555.461-.791.906-.898l1.816-.297zM99.096 10.149H97.85v-8.45h1.246v4.895l2.68-2.559h1.738l-2.633 2.535 2.715 3.578h-1.556l-2.077-2.707-.867.844v1.863zm6.053-6.114h-1.255v6.113h1.255V4.035zm-59.2 0h-1.255v6.113h1.255V4.035zm5.584 6.113V1.697h1.255v2.695c.361-.346 1-.485 1.47-.485 1.452 0 2.477 1.082 2.457 2.448v3.792h-1.27v-3.68c0-.408-.214-1.339-1.315-1.339-.968 0-1.342.756-1.342 1.339v3.681h-1.255zm-4.76-4.894V4.039h.621a.45.45 0 0 0 .45-.45v-.855h1.251v1.305h1.309v1.215h-1.309v3.109c0 .293.105.664.648.664.365 0 .531-.035.736-.07v1.137s-.361.113-.857.113c-1.398 0-1.777-1.051-1.777-1.788V5.254h-1.071zM36.528 4.039h-1.394l2.191 6.106h1.125l1.234-3.918 1.238 3.918h1.129l2.188-6.106h-1.383l-1.359 3.93-1.256-3.93h-1.124l-1.242 3.957-1.348-3.957zM26.212 7.141c-.02 1.566 1.187 3.129 3.223 3.129 1.566 0 2.383-.918 2.734-1.719L31.172 8c-.315.399-.801 1.094-1.738 1.094-1.145 0-1.825-.781-1.891-1.52h4.625c.074-.284.148-.995-.03-1.559-.336-1.064-1.221-2.102-2.839-2.102s-3.088 1.152-3.088 3.227zm1.363-.75h3.348c-.055-.43-.566-1.301-1.623-1.301a1.79 1.79 0 0 0-1.725 1.301zm-8.758.75c.038 1.758 1.277 3.133 3.145 3.133 1.074 0 1.723-.477 1.961-.672v.547h1.242V1.703h-1.258v2.888c-.414-.36-1.062-.68-1.93-.68-1.91 0-3.198 1.473-3.16 3.23zm1.309-.08c0 1.119.723 1.978 1.836 1.978a1.88 1.88 0 0 0 1.94-1.904c0-1.371-1.011-1.99-1.972-1.99s-1.805.798-1.805 1.916zm76.683-.028C96.771 5.275 95.532 3.9 93.664 3.9c-1.074 0-1.723.477-1.961.672v-.547h-1.242v8.22h1.258V9.583c.414.36 1.063.68 1.93.68 1.91 0 3.198-1.473 3.16-3.23zm-1.309.08c0-1.119-.723-1.978-1.836-1.978a1.88 1.88 0 0 0-1.94 1.904c0 1.371 1.011 1.99 1.972 1.99S95.5 8.231 95.5 7.113zM106.441 10.173V4.036h1.254v.382c.361-.346 1-.485 1.47-.485 1.452 0 2.477 1.082 2.457 2.448v3.792h-1.27V6.492c0-.408-.214-1.339-1.315-1.339-.969 0-1.342.756-1.342 1.339v3.681h-1.254zm-30.383-.021V1.824h1.084l4.215 5.777V1.824h1.32v8.328h-1.094l-4.207-5.796v5.796h-1.319zM5.24 10.149H4V2.377h1.014l2.664 3.597 2.654-3.592h1.03v7.766h-1.256V4.762L7.678 8.068 5.24 4.742v5.407z" transform="translate(764, 578)" fill="#ababab88" stroke="none"></path></svg>