<?xml version="1.0" encoding="utf-8" standalone="yes"?>
<!DOCTYPE svg PUBLIC "-//W3C//DTD SVG 1.1//EN" "http://www.w3.org/Graphics/SVG/1.1/DTD/svg11.dtd">
<svg style="fill:none;stroke:none;fill-rule:evenodd;clip-rule:evenodd;stroke-linecap:round;stroke-linejoin:round;stroke-miterlimit:1.5;" version="1.1" xmlns="http://www.w3.org/2000/svg" xmlns:xlink="http://www.w3.org/1999/xlink" width="863" height="673" viewBox="0 0 863 673"><style class="text-font-style fontImports" data-font-family="Roboto">@import url(https://fonts.googleapis.com/css2?family=Roboto:wght@400;700&amp;amp;display=block);</style><g id="items" style="isolation: isolate"><g id="blend" style="mix-blend-mode: normal"><g id="g-root-cp_1_circle-1_v48wfl16t2m88-fill" data-item-order="-428677" transform="translate(109.83984375, 138)"></g><g id="g-root-sy_1_Subtract_v48wfl16t2m89-fill" data-item-order="-428669" transform="translate(145.83987426757812, 210)"></g><g id="g-root-sy_2_Subtract_qofeb516t2n0i-fill" data-item-order="-428659" transform="translate(341.35986328125, 218)"></g><g id="g-root-sy_2_Subtract-start_qofeb516t2n0j-fill" data-item-order="-428657" transform="translate(338.3599853515625, 211)"></g><g id="g-root-cp_3_circle-3_qofeb516t2n0k-fill" data-item-order="-428651" transform="translate(501.51983642578125, 138)"></g><g id="g-root-sy_3_Subtract_hsse2916t2nt9-fill" data-item-order="-428643" transform="translate(537.5198364257812, 210)"></g><g id="g-root-sy_4_Subtract_hsse2916t2nta-fill" data-item-order="-428633" transform="translate(727.039794921875, 218)"></g><g id="g-root-sy_4_Subtract-start_hsse2916t2ntb-fill" data-item-order="-428631" transform="translate(724.0399169921875, 211)"></g><g id="g-root-cp_1_g-1_1_m8lw6p16t2nsw-fill" data-item-order="-428623" transform="translate(85, 283)"></g><g id="g-root-cp_0_g-0_dcyvxt16t2oll-fill" data-item-order="-428617" transform="translate(30, 295)"></g><g id="g-root-cp_2_g-2_1_8xruwh16t2m82-fill" data-item-order="-428593" transform="translate(269, 283)"></g><g id="g-root-cp_0_g-0_1_8xruwh16t2m83-fill" data-item-order="-428587" transform="translate(214, 295)"></g><g id="g-root-cp_1_g-1_2_8xruwh16t2m84-fill" data-item-order="-428573" transform="translate(214, 295)"></g><g id="g-root-cp_3_g-3_1_24unl16t2n0t-fill" data-item-order="-428559" transform="translate(453, 283)"></g><g id="g-root-cp_0_g-0_2_24unl16t2n0u-fill" data-item-order="-428553" transform="translate(398, 295)"></g><g id="g-root-cp_2_g-2_2_24unl16t2n0v-fill" data-item-order="-428539" transform="translate(398, 295)"></g><g id="g-root-cp_4_g-4_1_1unfei916t2nm0-fill" data-item-order="-428525" transform="translate(637, 283)"></g><g id="g-root-cp_0_g-0_3_1unfei916t2nm1-fill" data-item-order="-428519" transform="translate(582, 295)"></g><g id="g-root-cp_3_g-3_2_1unfei916t2nm2-fill" data-item-order="-428505" transform="translate(582, 295)"></g><g id="g-root-sy_1_Subtract_1_1q7lwdt16t2oeb-fill" data-item-order="-428487" transform="translate(127.9998779296875, 379)"></g><g id="g-root-sy_1_Subtract-start_1q7lwdt16t2oec-fill" data-item-order="-428485" transform="translate(125, 444)"></g><g id="g-root-sy_2_Subtract_1_1q7lwdt16t2oed-fill" data-item-order="-428473" transform="translate(293.83984375, 379)"></g><g id="g-root-cp_2_circle-2_1q7lwdt16t2oee-fill" data-item-order="-428471" transform="translate(257.83984375, 451)"></g><g id="g-root-sy_3_Subtract_1_1hcld8116t2m1b-fill" data-item-order="-428461" transform="translate(477.67987060546875, 379)"></g><g id="g-root-sy_3_Subtract-start_1lsevch16t2m0w-fill" data-item-order="-428459" transform="translate(474.67999267578125, 444)"></g><g id="g-root-sy_4_Subtract_1_1lsevch16t2m0x-fill" data-item-order="-428447" transform="translate(661.5198364257812, 379)"></g><g id="g-root-cp_4_circle-4_1cwrv3l16t2mtm-fill" data-item-order="-428445" transform="translate(625.5198364257812, 451)"></g><g id="g-root-tx_identity_1hdube916t2o7h-fill" data-item-order="0" transform="translate(299.67999267578125, 102)"><g id="tx_identity_1hdube916t2o7h-fill-merged" stroke="none" fill="#1ac3fb" fill-opacity="1"><g><text style="font: 20px &quot;Roboto&quot;, sans-serif; white-space: pre;" transform="translate(52, 34)" font-size="20px" font-family="'Roboto', sans-serif"><tspan x="-34.37" y="0" dominant-baseline="ideographic">Identity </tspan><tspan x="-36.4" y="24" dominant-baseline="ideographic">Policies</tspan></text></g></g></g><g id="g-root-tx_phase1_1d30lyp16t2oei-fill" data-item-order="0" transform="translate(66, 319)"><g id="tx_phase1_1d30lyp16t2oei-fill-merged" stroke="none" fill="#4f91fc" fill-opacity="1"><g><text style="font: bold 20px &quot;Roboto&quot;, sans-serif; white-space: pre;" transform="translate(10, 22)" font-weight="bold" font-size="20px" font-family="'Roboto', sans-serif"><tspan x="2" y="12" dominant-baseline="ideographic">Phase 1</tspan></text></g></g></g><g id="g-root-tx_phase2_1uljz8x16t42rv-fill" data-item-order="0" transform="translate(250, 319)"><g id="tx_phase2_1uljz8x16t42rv-fill-merged" stroke="none" fill="#1ac3fb" fill-opacity="1"><g><text style="font: bold 20px &quot;Roboto&quot;, sans-serif; white-space: pre;" transform="translate(10, 22)" font-weight="bold" font-size="20px" font-family="'Roboto', sans-serif"><tspan x="2" y="12" dominant-baseline="ideographic">Phase 2</tspan></text></g></g></g><g id="g-root-tx_phase3_m8lw6p16t41z8-fill" data-item-order="0" transform="translate(434, 319)"><g id="tx_phase3_m8lw6p16t41z8-fill-merged" stroke="none" fill="#43dd93" fill-opacity="1"><g><text style="font: bold 20px &quot;Roboto&quot;, sans-serif; white-space: pre;" transform="translate(10, 22)" font-weight="bold" font-size="20px" font-family="'Roboto', sans-serif"><tspan x="2" y="12" dominant-baseline="ideographic">Phase 3</tspan></text></g></g></g><g id="g-root-tx_phase4_18gycz516t40zx-fill" data-item-order="0" transform="translate(618, 319)"><g id="tx_phase4_18gycz516t40zx-fill-merged" stroke="none" fill="#a6da37" fill-opacity="1"><g><text style="font: bold 20px &quot;Roboto&quot;, sans-serif; white-space: pre;" transform="translate(10, 22)" font-weight="bold" font-size="20px" font-family="'Roboto', sans-serif"><tspan x="2" y="12" dominant-baseline="ideographic">Phase 4</tspan></text></g></g></g><g id="g-root-tx_porcsele_1hgyott16t42ru-fill" data-item-order="0" transform="translate(405.67999267578125, 523)"><g id="tx_porcsele_1hgyott16t42ru-fill-merged" stroke="none" fill="#f4f4f4" fill-opacity="1"><g><text style="font: 15px &quot;Roboto&quot;, sans-serif; white-space: pre;" transform="translate(82, 22)" font-size="15px" font-family="'Roboto', sans-serif"><tspan x="-69.11" y="9" dominant-baseline="ideographic">input.resource.group</tspan></text></g></g></g><g id="g-root-tx_porcsele_1464njl16t2nsx-fill" data-item-order="0" transform="translate(649.3599243164062, 174)"><g id="tx_porcsele_1464njl16t2nsx-fill-merged" stroke="none" fill="#f4f4f4" fill-opacity="1"><g><text style="font: 15px &quot;Roboto&quot;, sans-serif; white-space: pre;" transform="translate(88, 22)" font-size="15px" font-family="'Roboto', sans-serif"><tspan x="-73.43" y="9" dominant-baseline="ideographic">input.principal.scopes</tspan></text></g></g></g><g id="g-root-tx_3_qtf70116t2n7r-fill" data-item-order="0" transform="translate(525.679931640625, 156)"><g id="tx_3_qtf70116t2n7r-fill-merged" stroke="none" fill="#43dd93" fill-opacity="1"><g><text style="font: 22.5px &quot;Roboto&quot;, sans-serif; white-space: pre;" transform="translate(22, 28)" font-size="22.5px" font-family="'Roboto', sans-serif"><tspan x="-6.32" y="13.25" dominant-baseline="ideographic">3</tspan></text></g></g></g><g id="g-root-tx_porcsele_5983516t2o7i-fill" data-item-order="0" transform="translate(257.67999267578125, 162)"><g id="tx_porcsele_5983516t2o7i-fill-merged" stroke="none" fill="#f4f4f4" fill-opacity="1"><g><text style="font: 15px &quot;Roboto&quot;, sans-serif; white-space: pre;" transform="translate(94, 28)" font-size="15px" font-family="'Roboto', sans-serif"><tspan x="-72.28" y="0" dominant-baseline="ideographic">input.principal.mroles</tspan><tspan x="-79.03" y="18" dominant-baseline="ideographic">input.principal.mgroups</tspan></text></g></g></g><g id="g-root-tx_1_1hdube916t2o7g-fill" data-item-order="0" transform="translate(134, 156)"><g id="tx_1_1hdube916t2o7g-fill-merged" stroke="none" fill="#4f91fc" fill-opacity="1"><g><text style="font: 22.5px &quot;Roboto&quot;, sans-serif; white-space: pre;" transform="translate(22, 28)" font-size="22.5px" font-family="'Roboto', sans-serif"><tspan x="-6.32" y="13.25" dominant-baseline="ideographic">1</tspan></text></g></g></g><g id="g-root-tx_porcexpr_1cwrv3l16t2mtn-fill" data-item-order="0" transform="translate(265.5, 38)"><g id="tx_porcexpr_1cwrv3l16t2mtn-fill-merged" stroke="none" fill="#f4f4f4" fill-opacity="1"><g><text style="font: bold 25px &quot;Roboto&quot;, sans-serif; white-space: pre;" transform="translate(166, 28)" font-weight="bold" font-size="25px" font-family="'Roboto', sans-serif"><tspan x="-150.09" y="15" dominant-baseline="ideographic">PORC Expression Mapping</tspan></text></g></g></g><g id="g-root-tx_operatio_1ltntip16t41l2-fill" data-item-order="0" transform="translate(80, 463)"><g id="tx_operatio_1ltntip16t41l2-fill-merged" stroke="none" fill="#4f91fc" fill-opacity="1"><g><text style="font: 20px &quot;Roboto&quot;, sans-serif; white-space: pre;" transform="translate(58, 34)" font-size="20px" font-family="'Roboto', sans-serif"><tspan x="-45.85" y="0" dominant-baseline="ideographic">Operation </tspan><tspan x="-29.27" y="24" dominant-baseline="ideographic">Policy</tspan></text></g></g></g><g id="g-root-tx_2_v98p4h16t40lc-fill" data-item-order="0" transform="translate(281.8399963378906, 469)"><g id="tx_2_v98p4h16t40lc-fill-merged" stroke="none" fill="#1ac3fb" fill-opacity="1"><g><text style="font: 22.5px &quot;Roboto&quot;, sans-serif; white-space: pre;" transform="translate(22, 28)" font-size="22.5px" font-family="'Roboto', sans-serif"><tspan x="-6.32" y="13.25" dominant-baseline="ideographic">2</tspan></text></g></g></g><g id="g-root-tx_resource_v98p4h16t40ld-fill" data-item-order="0" transform="translate(429.67999267578125, 463)"><g id="tx_resource_v98p4h16t40ld-fill-merged" stroke="none" fill="#43dd93" fill-opacity="1"><g><text style="font: 20px &quot;Roboto&quot;, sans-serif; white-space: pre;" transform="translate(58, 34)" font-size="20px" font-family="'Roboto', sans-serif"><tspan x="-44.15" y="0" dominant-baseline="ideographic">Resource </tspan><tspan x="-29.27" y="24" dominant-baseline="ideographic">Policy</tspan></text></g></g></g><g id="g-root-tx_4_940lrl16t41z7-fill" data-item-order="0" transform="translate(649.5199584960938, 469)"><g id="tx_4_940lrl16t41z7-fill-merged" stroke="none" fill="#a6da37" fill-opacity="1"><g><text style="font: 22.5px &quot;Roboto&quot;, sans-serif; white-space: pre;" transform="translate(22, 28)" font-size="22.5px" font-family="'Roboto', sans-serif"><tspan x="-6.32" y="13.25" dominant-baseline="ideographic">4</tspan></text></g></g></g><g id="g-root-tx_porcexpr_90w8c116t40sv-fill" data-item-order="0" transform="translate(74, 523)"><g id="tx_porcexpr_90w8c116t40sv-fill-merged" stroke="none" fill="#f4f4f4" fill-opacity="1"><g><text style="font: 15px &quot;Roboto&quot;, sans-serif; white-space: pre;" transform="translate(64, 22)" font-size="15px" font-family="'Roboto', sans-serif"><tspan x="-50.36" y="9" dominant-baseline="ideographic">input.operation</tspan></text></g></g></g><g id="g-root-tx_scopepol_mdlovl16t2o00-fill" data-item-order="0" transform="translate(655.3599243164062, 138)"><g id="tx_scopepol_mdlovl16t2o00-fill-merged" stroke="none" fill="#a6da37" fill-opacity="1"><g><text style="font: 20px &quot;Roboto&quot;, sans-serif; white-space: pre;" transform="translate(82, 22)" font-size="20px" font-family="'Roboto', sans-serif"><tspan x="-65.21" y="12" dominant-baseline="ideographic">Scope Policies</tspan></text></g></g></g><g id="g-root-cp_1_circle-1_v48wfl16t2m88-stroke" data-item-order="-428677" transform="translate(109.83984375, 138)"><g id="cp_1_circle-1_v48wfl16t2m88-stroke" fill="none" stroke-linecap="round" stroke-linejoin="round" stroke-miterlimit="4" stroke="#4f91fc" stroke-width="2" stroke-opacity="1"><g><path d="M 10.000002 46C 10.000002 65.882251 26.117751 82 46.000002 82C 65.882253 82 82.000002 65.882251 82.000002 46C 82.000002 26.117749 65.882253 10 46.000002 10C 26.117751 10 10.000002 26.117749 10.000002 46"></path></g></g></g><g id="g-root-sy_1_Subtract_v48wfl16t2m89-stroke" data-item-order="-428669" transform="translate(145.83987426757812, 210)"><g id="sy_1_Subtract_v48wfl16t2m89-stroke" fill="none" stroke-linecap="round" stroke-linejoin="round" stroke-miterlimit="4" stroke="#4f91fc" stroke-width="2" stroke-opacity="1"><g><path d="M 10.000102 81.999998L 10.000002 9.999998"></path></g></g></g><g id="g-root-sy_2_Subtract_qofeb516t2n0i-stroke" data-item-order="-428659" transform="translate(341.35986328125, 218)"><g id="sy_2_Subtract_qofeb516t2n0i-stroke" fill="none" stroke-linecap="round" stroke-linejoin="round" stroke-miterlimit="4" stroke="#1ac3fb" stroke-width="2" stroke-opacity="1"><g><path d="M 10.000132 75L 10.000032 10"></path></g></g></g><g id="g-root-sy_2_Subtract-start_qofeb516t2n0j-stroke" data-item-order="-428657" transform="translate(338.3599853515625, 211)"><g id="sy_2_Subtract-start_qofeb516t2n0j-stroke" fill="none" stroke-linecap="round" stroke-linejoin="round" stroke-miterlimit="4" stroke="#f4f4f4" stroke-width="2" stroke-opacity="1"><g><path d="M 10.000001 13C 10.000001 14.6557 11.344301 16 13.000001 16C 14.655701 16 16 14.6557 16 13C 16 11.3443 14.655701 10 13.000001 10C 11.344301 10 10 11.3443 10.000001 13Z"></path></g></g></g><g id="g-root-cp_3_circle-3_qofeb516t2n0k-stroke" data-item-order="-428651" transform="translate(501.51983642578125, 138)"><g id="cp_3_circle-3_qofeb516t2n0k-stroke" fill="none" stroke-linecap="round" stroke-linejoin="round" stroke-miterlimit="4" stroke="#43dd93" stroke-width="2" stroke-opacity="1"><g><path d="M 10.000002 46C 10.000002 65.882251 26.117751 82 46.000002 82C 65.882253 82 82.000002 65.882251 82.000002 46C 82.000002 26.117749 65.882253 10 46.000002 10C 26.117751 10 10.000002 26.117749 10.000002 46"></path></g></g></g><g id="g-root-sy_3_Subtract_hsse2916t2nt9-stroke" data-item-order="-428643" transform="translate(537.5198364257812, 210)"><g id="sy_3_Subtract_hsse2916t2nt9-stroke" fill="none" stroke-linecap="round" stroke-linejoin="round" stroke-miterlimit="4" stroke="#43dd93" stroke-width="2" stroke-opacity="1"><g><path d="M 10.000102 81.999998L 10.000002 9.999998"></path></g></g></g><g id="g-root-sy_4_Subtract_hsse2916t2nta-stroke" data-item-order="-428633" transform="translate(727.039794921875, 218)"><g id="sy_4_Subtract_hsse2916t2nta-stroke" fill="none" stroke-linecap="round" stroke-linejoin="round" stroke-miterlimit="4" stroke="#a6da37" stroke-width="2" stroke-opacity="1"><g><path d="M 10.000101 75L 10.000001 10"></path></g></g></g><g id="g-root-sy_4_Subtract-start_hsse2916t2ntb-stroke" data-item-order="-428631" transform="translate(724.0399169921875, 211)"><g id="sy_4_Subtract-start_hsse2916t2ntb-stroke" fill="none" stroke-linecap="round" stroke-linejoin="round" stroke-miterlimit="4" stroke="#f4f4f4" stroke-width="2" stroke-opacity="1"><g><path d="M 10.000001 13C 10.000001 14.6557 11.344301 16 13.000001 16C 14.655701 16 16 14.6557 16 13C 16 11.3443 14.655701 10 13.000001 10C 11.344301 10 10 11.3443 10.000001 13Z"></path></g></g></g><g id="g-root-cp_1_g-1_1_m8lw6p16t2nsw-stroke" data-item-order="-428623" transform="translate(85, 283)"><g id="cp_1_g-1_1_m8lw6p16t2nsw-stroke" fill="none" stroke-linecap="round" stroke-linejoin="round" stroke-miterlimit="4" stroke="#4f91fc" stroke-width="2" stroke-opacity="1"><g><path d="M 16 22L 10 10L 131 10L 139 22M 16 94L 10 106L 131 106L 139 94"></path></g></g></g><g id="g-root-cp_0_g-0_dcyvxt16t2oll-stroke" data-item-order="-428617" transform="translate(30, 295)"><g id="cp_0_g-0_dcyvxt16t2oll-stroke" fill="none" stroke-linecap="round" stroke-linejoin="round" stroke-miterlimit="4" stroke="#f4f4f4" stroke-width="2" stroke-opacity="1"><g><path d="M 34 10L 178 10M 178 82L 34 82"></path></g></g><g id="cp_0_g-0_dcyvxt16t2oll-stroke" fill="none" stroke-linecap="round" stroke-linejoin="round" stroke-miterlimit="4" stroke="#f4f4f4" stroke-width="2" stroke-opacity="1"><g><path d="M 34 10L 10 10L 34 46L 10 82L 34 82"></path></g></g><g id="cp_0_g-0_dcyvxt16t2oll-stroke" fill="none" stroke-linecap="round" stroke-linejoin="round" stroke-miterlimit="4" stroke="#f4f4f4" stroke-width="2" stroke-opacity="1"><g><path d="M 172 82L 178 82L 202 46L 178 10L 172 10"></path></g></g></g><g id="g-root-cp_2_g-2_1_8xruwh16t2m82-stroke" data-item-order="-428593" transform="translate(269, 283)"><g id="cp_2_g-2_1_8xruwh16t2m82-stroke" fill="none" stroke-linecap="round" stroke-linejoin="round" stroke-miterlimit="4" stroke="#1ac3fb" stroke-width="2" stroke-opacity="1"><g><path d="M 16 22L 10 10L 131 10L 163 58L 131 106L 10 106L 16 94"></path></g></g></g><g id="g-root-cp_0_g-0_1_8xruwh16t2m83-stroke" data-item-order="-428587" transform="translate(214, 295)"><g id="cp_0_g-0_1_8xruwh16t2m83-stroke" fill="none" stroke-linecap="round" stroke-linejoin="round" stroke-miterlimit="4" stroke="#f4f4f4" stroke-width="2" stroke-opacity="1"><g><path d="M 34 10L 178 10M 178 82L 34 82"></path></g></g><g id="cp_0_g-0_1_8xruwh16t2m83-stroke" fill="none" stroke-linecap="round" stroke-linejoin="round" stroke-miterlimit="4" stroke="#f4f4f4" stroke-width="2" stroke-opacity="1"><g><path d="M 10 10L 34 10M 10 82L 34 82"></path></g></g><g id="cp_0_g-0_1_8xruwh16t2m83-stroke" fill="none" stroke-linecap="round" stroke-linejoin="round" stroke-miterlimit="4" stroke="#f4f4f4" stroke-width="2" stroke-opacity="1"><g><path d="M 172 82L 178 82L 202 46L 178 10L 172 10"></path></g></g></g><g id="g-root-cp_1_g-1_2_8xruwh16t2m84-stroke" data-item-order="-428573" transform="translate(214, 295)"><g id="cp_1_g-1_2_8xruwh16t2m84-stroke" fill="none" stroke-linecap="round" stroke-linejoin="round" stroke-miterlimit="4" stroke="#4f91fc" stroke-width="2" stroke-opacity="1"><g><path d="M 10 10L 34 46L 10 82"></path></g></g></g><g id="g-root-cp_3_g-3_1_24unl16t2n0t-stroke" data-item-order="-428559" transform="translate(453, 283)"><g id="cp_3_g-3_1_24unl16t2n0t-stroke" fill="none" stroke-linecap="round" stroke-linejoin="round" stroke-miterlimit="4" stroke="#43dd93" stroke-width="2" stroke-opacity="1"><g><path d="M 16 22L 10 10L 131 10L 163 58L 131 106L 10 106L 16 94"></path></g></g></g><g id="g-root-cp_0_g-0_2_24unl16t2n0u-stroke" data-item-order="-428553" transform="translate(398, 295)"><g id="cp_0_g-0_2_24unl16t2n0u-stroke" fill="none" stroke-linecap="round" stroke-linejoin="round" stroke-miterlimit="4" stroke="#f4f4f4" stroke-width="2" stroke-opacity="1"><g><path d="M 34 10L 178 10M 178 82L 34 82"></path></g></g><g id="cp_0_g-0_2_24unl16t2n0u-stroke" fill="none" stroke-linecap="round" stroke-linejoin="round" stroke-miterlimit="4" stroke="#f4f4f4" stroke-width="2" stroke-opacity="1"><g><path d="M 10 10L 34 10M 10 82L 34 82"></path></g></g><g id="cp_0_g-0_2_24unl16t2n0u-stroke" fill="none" stroke-linecap="round" stroke-linejoin="round" stroke-miterlimit="4" stroke="#f4f4f4" stroke-width="2" stroke-opacity="1"><g><path d="M 172 82L 178 82L 202 46L 178 10L 172 10"></path></g></g></g><g id="g-root-cp_2_g-2_2_24unl16t2n0v-stroke" data-item-order="-428539" transform="translate(398, 295)"><g id="cp_2_g-2_2_24unl16t2n0v-stroke" fill="none" stroke-linecap="round" stroke-linejoin="round" stroke-miterlimit="4" stroke="#1ac3fb" stroke-width="2" stroke-opacity="1"><g><path d="M 10 10L 34 46L 10 82"></path></g></g></g><g id="g-root-cp_4_g-4_1_1unfei916t2nm0-stroke" data-item-order="-428525" transform="translate(637, 283)"><g id="cp_4_g-4_1_1unfei916t2nm0-stroke" fill="none" stroke-linecap="round" stroke-linejoin="round" stroke-miterlimit="4" stroke="#a6da37" stroke-width="2" stroke-opacity="1"><g><path d="M 16 22L 10 10L 131 10L 163 58L 131 106L 10 106L 16 94"></path></g></g></g><g id="g-root-cp_0_g-0_3_1unfei916t2nm1-stroke" data-item-order="-428519" transform="translate(582, 295)"><g id="cp_0_g-0_3_1unfei916t2nm1-stroke" fill="none" stroke-linecap="round" stroke-linejoin="round" stroke-miterlimit="4" stroke="#f4f4f4" stroke-width="2" stroke-opacity="1"><g><path d="M 34 10L 178 10M 178 82L 34 82"></path></g></g><g id="cp_0_g-0_3_1unfei916t2nm1-stroke" fill="none" stroke-linecap="round" stroke-linejoin="round" stroke-miterlimit="4" stroke="#f4f4f4" stroke-width="2" stroke-opacity="1"><g><path d="M 10 10L 34 10M 10 82L 34 82"></path></g></g><g id="cp_0_g-0_3_1unfei916t2nm1-stroke" fill="none" stroke-linecap="round" stroke-linejoin="round" stroke-miterlimit="4" stroke="#f4f4f4" stroke-width="2" stroke-opacity="1"><g><path d="M 172 82L 178 82L 202 46L 178 10L 172 10"></path></g></g></g><g id="g-root-cp_3_g-3_2_1unfei916t2nm2-stroke" data-item-order="-428505" transform="translate(582, 295)"><g id="cp_3_g-3_2_1unfei916t2nm2-stroke" fill="none" stroke-linecap="round" stroke-linejoin="round" stroke-miterlimit="4" stroke="#43dd93" stroke-width="2" stroke-opacity="1"><g><path d="M 10 10L 34 46L 10 82"></path></g></g></g><g id="g-root-sy_1_Subtract_1_1q7lwdt16t2oeb-stroke" data-item-order="-428487" transform="translate(127.9998779296875, 379)"><g id="sy_1_Subtract_1_1q7lwdt16t2oeb-stroke" fill="none" stroke-linecap="round" stroke-linejoin="round" stroke-miterlimit="4" stroke="#4f91fc" stroke-width="2" stroke-opacity="1"><g><path d="M 10.000102 75.000013L 10.000002 10.000013"></path></g></g></g><g id="g-root-sy_1_Subtract-start_1q7lwdt16t2oec-stroke" data-item-order="-428485" transform="translate(125, 444)"><g id="sy_1_Subtract-start_1q7lwdt16t2oec-stroke" fill="none" stroke-linecap="round" stroke-linejoin="round" stroke-miterlimit="4" stroke="#f4f4f4" stroke-width="2" stroke-opacity="1"><g><path d="M 10 13C 10 14.6557 11.3443 16 13 16C 14.6557 16 16 14.6557 16 13C 16 11.3443 14.6557 10 13 10C 11.3443 10 10 11.3443 10 13Z"></path></g></g></g><g id="g-root-sy_2_Subtract_1_1q7lwdt16t2oed-stroke" data-item-order="-428473" transform="translate(293.83984375, 379)"><g id="sy_2_Subtract_1_1q7lwdt16t2oed-stroke" fill="none" stroke-linecap="round" stroke-linejoin="round" stroke-miterlimit="4" stroke="#1ac3fb" stroke-width="2" stroke-opacity="1"><g><path d="M 10.000133 82.000013L 10.000033 10.000013"></path></g></g></g><g id="g-root-cp_2_circle-2_1q7lwdt16t2oee-stroke" data-item-order="-428471" transform="translate(257.83984375, 451)"><g id="cp_2_circle-2_1q7lwdt16t2oee-stroke" fill="none" stroke-linecap="round" stroke-linejoin="round" stroke-miterlimit="4" stroke="#1ac3fb" stroke-width="2" stroke-opacity="1"><g><path d="M 10.000002 46C 10.000002 65.882251 26.117751 82 46.000002 82C 65.882253 82 82.000002 65.882251 82.000002 46C 82.000002 26.117749 65.882253 10 46.000002 10C 26.117751 10 10.000002 26.117749 10.000002 46"></path></g></g></g><g id="g-root-sy_3_Subtract_1_1hcld8116t2m1b-stroke" data-item-order="-428461" transform="translate(477.67987060546875, 379)"><g id="sy_3_Subtract_1_1hcld8116t2m1b-stroke" fill="none" stroke-linecap="round" stroke-linejoin="round" stroke-miterlimit="4" stroke="#43dd93" stroke-width="2" stroke-opacity="1"><g><path d="M 10.000102 75.000013L 10.000002 10.000013"></path></g></g></g><g id="g-root-sy_3_Subtract-start_1lsevch16t2m0w-stroke" data-item-order="-428459" transform="translate(474.67999267578125, 444)"><g id="sy_3_Subtract-start_1lsevch16t2m0w-stroke" fill="none" stroke-linecap="round" stroke-linejoin="round" stroke-miterlimit="4" stroke="#f4f4f4" stroke-width="2" stroke-opacity="1"><g><path d="M 10 13C 10 14.6557 11.3443 16 13 16C 14.6557 16 16 14.6557 16 13C 16 11.3443 14.6557 10 13 10C 11.3443 10 10 11.3443 10 13Z"></path></g></g></g><g id="g-root-sy_4_Subtract_1_1lsevch16t2m0x-stroke" data-item-order="-428447" transform="translate(661.5198364257812, 379)"><g id="sy_4_Subtract_1_1lsevch16t2m0x-stroke" fill="none" stroke-linecap="round" stroke-linejoin="round" stroke-miterlimit="4" stroke="#a6da37" stroke-width="2" stroke-opacity="1"><g><path d="M 10.000102 82.000013L 10.000002 10.000013"></path></g></g></g><g id="g-root-cp_4_circle-4_1cwrv3l16t2mtm-stroke" data-item-order="-428445" transform="translate(625.5198364257812, 451)"><g id="cp_4_circle-4_1cwrv3l16t2mtm-stroke" fill="none" stroke-linecap="round" stroke-linejoin="round" stroke-miterlimit="4" stroke="#a6da37" stroke-width="2" stroke-opacity="1"><g><path d="M 10.000002 46C 10.000002 65.882251 26.117751 82 46.000002 82C 65.882253 82 82.000002 65.882251 82.000002 46C 82.000002 26.117749 65.882253 10 46.000002 10C 26.117751 10 10.000002 26.117749 10.000002 46"></path></g></g></g><g id="g-root-tx_identity_1hdube916t2o7h-stroke" data-item-order="0" transform="translate(299.67999267578125, 102)"></g><g id="g-root-tx_phase1_1d30lyp16t2oei-stroke" data-item-order="0" transform="translate(66, 319)"></g><g id="g-root-tx_phase2_1uljz8x16t42rv-stroke" data-item-order="0" transform="translate(250, 319)"></g><g id="g-root-tx_phase3_m8lw6p16t41z8-stroke" data-item-order="0" transform="translate(434, 319)"></g><g id="g-root-tx_phase4_18gycz516t40zx-stroke" data-item-order="0" transform="translate(618, 319)"></g><g id="g-root-tx_porcsele_1hgyott16t42ru-stroke" data-item-order="0" transform="translate(405.67999267578125, 523)"></g><g id="g-root-tx_porcsele_1464njl16t2nsx-stroke" data-item-order="0" transform="translate(649.3599243164062, 174)"></g><g id="g-root-tx_3_qtf70116t2n7r-stroke" data-item-order="0" transform="translate(525.679931640625, 156)"></g><g id="g-root-tx_porcsele_5983516t2o7i-stroke" data-item-order="0" transform="translate(257.67999267578125, 162)"></g><g id="g-root-tx_1_1hdube916t2o7g-stroke" data-item-order="0" transform="translate(134, 156)"></g><g id="g-root-tx_porcexpr_1cwrv3l16t2mtn-stroke" data-item-order="0" transform="translate(265.5, 38)"></g><g id="g-root-tx_operatio_1ltntip16t41l2-stroke" data-item-order="0" transform="translate(80, 463)"></g><g id="g-root-tx_2_v98p4h16t40lc-stroke" data-item-order="0" transform="translate(281.8399963378906, 469)"></g><g id="g-root-tx_resource_v98p4h16t40ld-stroke" data-item-order="0" transform="translate(429.67999267578125, 463)"></g><g id="g-root-tx_4_940lrl16t41z7-stroke" data-item-order="0" transform="translate(649.5199584960938, 469)"></g><g id="g-root-tx_porcexpr_90w8c116t40sv-stroke" data-item-order="0" transform="translate(74, 523)"></g><g id="g-root-tx_scopepol_mdlovl16t2o00-stroke" data-item-order="0" transform="translate(655.3599243164062, 138)"></g></g></g><path id="w4g2o1t16j4hsc" d="M65.283 12.757a.35.35 0 0 0 .584.157l5.203-5.141-6.183 3.523.396 1.461zm-2.216-11.7a.35.35 0 0 0-.522.305v3.111l3.276-1.868-2.754-1.548zm3.728 2.105l-4.25 2.421v2.445l6.391-3.644-2.141-1.222zm4.708 3.303a.35.35 0 0 0 0-.609l-1.592-.9-7.365 4.199v1.782a.35.35 0 0 0 .523.305l8.435-4.777z M44.542 2.513c0-.433.355-.783.792-.783s.792.35.792.783-.355.783-.792.783-.792-.35-.792-.783zm59.171 0c0-.433.355-.783.792-.783s.792.35.792.783-.355.783-.792.783-.792-.35-.792-.783zm-85.951 7.636h-1.27v-.487c-.276.201-.864.609-1.881.609-1.202 0-2.274-.794-2.137-2.078.118-1.106 1.153-1.584 1.848-1.727l2.17-.345c0-.539-.29-.956-1.064-1.006s-1.21.305-1.571 1.017l-1.124-.605c1.218-2.631 5.029-1.764 5.029.414v4.207zm-1.27-2.86c.006.396-.062 1.112-.819 1.59-.587.37-1.841.299-1.903-.395-.049-.555.461-.791.906-.898l1.816-.297zm72.662 2.86h-1.27v-.487c-.276.201-.864.609-1.881.609-1.202 0-2.274-.794-2.137-2.078.118-1.106 1.153-1.584 1.848-1.727l2.17-.345c0-.539-.29-.956-1.064-1.006s-1.21.305-1.571 1.017l-1.124-.605c1.218-2.631 5.029-1.764 5.029.414v4.207zm-1.27-2.86c.006.396-.062 1.112-.82 1.59-.587.37-1.841.299-1.903-.395-.049-.555.461-.791.906-.898l1.816-.297zM99.096 10.149H97.85v-8.45h1.246v4.895l2.68-2.559h1.738l-2.633 2.535 2.715 3.578h-1.556l-2.077-2.707-.867.844v1.863zm6.053-6.114h-1.255v6.113h1.255V4.035zm-59.2 0h-1.255v6.113h1.255V4.035zm5.584 6.113V1.697h1.255v2.695c.361-.346 1-.485 1.47-.485 1.452 0 2.477 1.082 2.457 2.448v3.792h-1.27v-3.68c0-.408-.214-1.339-1.315-1.339-.968 0-1.342.756-1.342 1.339v3.681h-1.255zm-4.76-4.894V4.039h.621a.45.45 0 0 0 .45-.45v-.855h1.251v1.305h1.309v1.215h-1.309v3.109c0 .293.105.664.648.664.365 0 .531-.035.736-.07v1.137s-.361.113-.857.113c-1.398 0-1.777-1.051-1.777-1.788V5.254h-1.071zM36.528 4.039h-1.394l2.191 6.106h1.125l1.234-3.918 1.238 3.918h1.129l2.188-6.106h-1.383l-1.359 3.93-1.256-3.93h-1.124l-1.242 3.957-1.348-3.957zM26.212 7.141c-.02 1.566 1.187 3.129 3.223 3.129 1.566 0 2.383-.918 2.734-1.719L31.172 8c-.315.399-.801 1.094-1.738 1.094-1.145 0-1.825-.781-1.891-1.52h4.625c.074-.284.148-.995-.03-1.559-.336-1.064-1.221-2.102-2.839-2.102s-3.088 1.152-3.088 3.227zm1.363-.75h3.348c-.055-.43-.566-1.301-1.623-1.301a1.79 1.79 0 0 0-1.725 1.301zm-8.758.75c.038 1.758 1.277 3.133 3.145 3.133 1.074 0 1.723-.477 1.961-.672v.547h1.242V1.703h-1.258v2.888c-.414-.36-1.062-.68-1.93-.68-1.91 0-3.198 1.473-3.16 3.23zm1.309-.08c0 1.119.723 1.978 1.836 1.978a1.88 1.88 0 0 0 1.94-1.904c0-1.371-1.011-1.99-1.972-1.99s-1.805.798-1.805 1.916zm76.683-.028C96.771 5.275 95.532 3.9 93.664 3.9c-1.074 0-1.723.477-1.961.672v-.547h-1.242v8.22h1.258V9.583c.414.36 1.063.68 1.93.68 1.91 0 3.198-1.473 3.16-3.23zm-1.309.08c0-1.119-.723-1.978-1.836-1.978a1.88 1.88 0 0 0-1.94 1.904c0 1.371 1.011 1.99 1.972 1.99S95.5 8.231 95.5 7.113zM106.441 10.173V4.036h1.254v.382c.361-.346 1-.485 1.47-.485 1.452 0 2.477 1.082 2.457 2.448v3.792h-1.27V6.492c0-.408-.214-1.339-1.315-1.339-.969 0-1.342.756-1.342 1.339v3.681h-1.254zm-30.383-.021V1.824h1.084l4.215 5.777V1.824h1.32v8.328h-1.094l-4.207-5.796v5.796h-1.319zM5.24 10.149H4V2.377h1.014l2.664 3.597 2.654-3.592h1.03v7.766h-1.256V4.762L7.678 8.068 5.24 4.742v5.407z" transform="translate(727, 639)" fill="#ababab88" stroke="none"></path></svg>