<?xml version="1.0" encoding="utf-8" standalone="yes"?>
<!DOCTYPE svg PUBLIC "-//W3C//DTD SVG 1.1//EN" "http://www.w3.org/Graphics/SVG/1.1/DTD/svg11.dtd">
<svg style="fill:none;stroke:none;fill-rule:evenodd;clip-rule:evenodd;stroke-linecap:round;stroke-linejoin:round;stroke-miterlimit:1.5;" version="1.1" xmlns="http://www.w3.org/2000/svg" xmlns:xlink="http://www.w3.org/1999/xlink" width="912" height="445" viewBox="0 0 912 445"><style class="text-font-style fontImports" data-font-family="Roboto">@import url(https://fonts.googleapis.com/css2?family=Roboto:wght@400;700&amp;amp;display=block);</style><g id="items" style="isolation: isolate"><g id="blend" style="mix-blend-mode: normal"><g id="g-root-cp_1_g-1_18hkb8m1ap172e-fill" data-item-order="-342131" transform="translate(38, 122)"></g><g id="g-root-cp_2_g-2_mb39pi1ap16a7-fill" data-item-order="-342109" transform="translate(206, 122)"></g><g id="g-root-cp_3_g-3_hv9rl21ap172g-fill" data-item-order="-342089" transform="translate(374, 122)"></g><g id="g-root-cp_4_g-4_dfg9gm1ap17up-fill" data-item-order="-342069" transform="translate(542, 122)"></g><g id="g-root-cp_5_g-5_4kfqau1ap15hm-fill" data-item-order="-342049" transform="translate(710, 122)"></g><g id="g-root-tx_resource_4m86e1ap169v-fill" data-item-order="0" transform="translate(206, 38)"><g id="tx_resource_4m86e1ap169v-fill-merged" stroke="none" fill="#f4f4f4" fill-opacity="1"><g><text style="font: bold 25px &quot;Roboto&quot;, sans-serif; white-space: pre;" transform="translate(250, 28)" font-weight="bold" font-size="25px" font-family="'Roboto', sans-serif"><tspan x="-237.88" y="15" dominant-baseline="ideographic">Resource Group Policy Evaluation Process</tspan></text></g></g></g><g id="g-root-tx_identify_1cz98me1ap15ak-fill" data-item-order="0" transform="translate(62, 278)"><g id="tx_identify_1cz98me1ap15ak-fill-merged" stroke="none" fill="#4f91fc" fill-opacity="1"><g><text style="font: 20px &quot;Roboto&quot;, sans-serif; white-space: pre;" transform="translate(58, 46)" font-size="20px" font-family="'Roboto', sans-serif"><tspan x="-35.58" y="-12" dominant-baseline="ideographic">Identify </tspan><tspan x="-44.15" y="12" dominant-baseline="ideographic">Resource </tspan><tspan x="-29.42" y="36" dominant-baseline="ideographic">Group</tspan></text></g></g></g><g id="g-root-tx_evaluate_143m8di1ap16v4-fill" data-item-order="0" transform="translate(374, 278)"><g id="tx_evaluate_143m8di1ap16v4-fill-merged" stroke="none" fill="#a6da37" fill-opacity="1"><g><text style="font: 20px &quot;Roboto&quot;, sans-serif; white-space: pre;" transform="translate(82, 34)" font-size="20px" font-family="'Roboto', sans-serif"><tspan x="-68.04" y="0" dominant-baseline="ideographic">Evaluate PORC </tspan><tspan x="-50.79" y="24" dominant-baseline="ideographic">Expression</tspan></text></g></g></g><g id="g-root-tx_contribu_dhbopy1ap16v8-fill" data-item-order="0" transform="translate(716, 278)"><g id="tx_contribu_dhbopy1ap16v8-fill-merged" stroke="none" fill="#8769fd" fill-opacity="1"><g><text style="font: 20px &quot;Roboto&quot;, sans-serif; white-space: pre;" transform="translate(76, 46)" font-size="20px" font-family="'Roboto', sans-serif"><tspan x="-60.38" y="-12" dominant-baseline="ideographic">Contribute to </tspan><tspan x="-29.27" y="12" dominant-baseline="ideographic">Policy </tspan><tspan x="-55.82" y="36" dominant-baseline="ideographic">Conjunction</tspan></text></g></g></g><g id="g-root-tx_loadpoli_1cz98me1ap15am-fill" data-item-order="0" transform="translate(224, 350)"><g id="tx_loadpoli_1cz98me1ap15am-fill-merged" stroke="none" fill="#43dd93" fill-opacity="1"><g><text style="font: 20px &quot;Roboto&quot;, sans-serif; white-space: pre;" transform="translate(64, 22)" font-size="20px" font-family="'Roboto', sans-serif"><tspan x="-51.43" y="12" dominant-baseline="ideographic">Load Policy</tspan></text></g></g></g><g id="g-root-tx_returnde_qss73a1ap15aa-fill" data-item-order="0" transform="translate(542, 350)"><g id="tx_returnde_qss73a1ap15aa-fill-merged" stroke="none" fill="#1ac3fb" fill-opacity="1"><g><text style="font: 20px &quot;Roboto&quot;, sans-serif; white-space: pre;" transform="translate(82, 22)" font-size="20px" font-family="'Roboto', sans-serif"><tspan x="-70" y="12" dominant-baseline="ideographic">Return Decision</tspan></text></g></g></g><g id="g-root-cp_1_g-1_18hkb8m1ap172e-stroke" data-item-order="-342131" transform="translate(38, 122)"><g id="cp_1_g-1_18hkb8m1ap172e-stroke" fill="none" stroke-linecap="round" stroke-linejoin="round" stroke-miterlimit="4" stroke="#4f91fc" stroke-width="2" stroke-opacity="1"><g><path d="M 82 10L 139.6 10L 154 34L 139.6 58L 82 58L 96.4 34L 82 10ZM 38.8 10L 67.6 10L 82 34L 67.6 58L 38.8 58L 53.2 34L 38.8 10ZM 10 10L 24.4 10L 38.8 34L 24.4 58L 10 58L 24.4 34L 10 10ZM 82 34L 53.2 34M 38.8 34L 24.4 34M 96.4 34L 154 34M 82 70L 82 154"></path></g></g></g><g id="g-root-cp_2_g-2_mb39pi1ap16a7-stroke" data-item-order="-342109" transform="translate(206, 122)"><g id="cp_2_g-2_mb39pi1ap16a7-stroke" fill="none" stroke-linecap="round" stroke-linejoin="round" stroke-miterlimit="4" stroke="#43dd93" stroke-width="2" stroke-opacity="1"><g><path d="M 82 10L 139.6 10L 154 34L 139.6 58L 82 58L 96.4 34L 82 10ZM 38.8 10L 67.6 10L 82 34L 67.6 58L 38.8 58L 53.2 34L 38.8 10ZM 10 10L 24.4 10L 38.8 34L 24.4 58L 10 58L 24.4 34L 10 10ZM 82 34L 53.2 34M 38.8 34L 24.4 34M 96.4 34L 154 34M 82 70L 82 226"></path></g></g></g><g id="g-root-cp_3_g-3_hv9rl21ap172g-stroke" data-item-order="-342089" transform="translate(374, 122)"><g id="cp_3_g-3_hv9rl21ap172g-stroke" fill="none" stroke-linecap="round" stroke-linejoin="round" stroke-miterlimit="4" stroke="#a6da37" stroke-width="2" stroke-opacity="1"><g><path d="M 82 10L 139.6 10L 154 34L 139.6 58L 82 58L 96.4 34L 82 10ZM 38.8 10L 67.6 10L 82 34L 67.6 58L 38.8 58L 53.2 34L 38.8 10ZM 10 10L 24.4 10L 38.8 34L 24.4 58L 10 58L 24.4 34L 10 10ZM 82 34L 53.2 34M 38.8 34L 24.4 34M 96.4 34L 154 34M 82 70L 82 154"></path></g></g></g><g id="g-root-cp_4_g-4_dfg9gm1ap17up-stroke" data-item-order="-342069" transform="translate(542, 122)"><g id="cp_4_g-4_dfg9gm1ap17up-stroke" fill="none" stroke-linecap="round" stroke-linejoin="round" stroke-miterlimit="4" stroke="#1ac3fb" stroke-width="2" stroke-opacity="1"><g><path d="M 82 10L 139.6 10L 154 34L 139.6 58L 82 58L 96.4 34L 82 10ZM 38.8 10L 67.6 10L 82 34L 67.6 58L 38.8 58L 53.2 34L 38.8 10ZM 10 10L 24.4 10L 38.8 34L 24.4 58L 10 58L 24.4 34L 10 10ZM 82 34L 53.2 34M 38.8 34L 24.4 34M 96.4 34L 154 34M 82 70L 82 226"></path></g></g></g><g id="g-root-cp_5_g-5_4kfqau1ap15hm-stroke" data-item-order="-342049" transform="translate(710, 122)"><g id="cp_5_g-5_4kfqau1ap15hm-stroke" fill="none" stroke-linecap="round" stroke-linejoin="round" stroke-miterlimit="4" stroke="#8769fd" stroke-width="2" stroke-opacity="1"><g><path d="M 82 10L 139.6 10L 154 34L 139.6 58L 82 58L 96.4 34L 82 10ZM 38.8 10L 67.6 10L 82 34L 67.6 58L 38.8 58L 53.2 34L 38.8 10ZM 10 10L 24.4 10L 38.8 34L 24.4 58L 10 58L 24.4 34L 10 10ZM 82 34L 53.2 34M 38.8 34L 24.4 34M 96.4 34L 154 34M 82 70L 82 154"></path></g></g></g><g id="g-root-tx_resource_4m86e1ap169v-stroke" data-item-order="0" transform="translate(206, 38)"></g><g id="g-root-tx_identify_1cz98me1ap15ak-stroke" data-item-order="0" transform="translate(62, 278)"></g><g id="g-root-tx_evaluate_143m8di1ap16v4-stroke" data-item-order="0" transform="translate(374, 278)"></g><g id="g-root-tx_contribu_dhbopy1ap16v8-stroke" data-item-order="0" transform="translate(716, 278)"></g><g id="g-root-tx_loadpoli_1cz98me1ap15am-stroke" data-item-order="0" transform="translate(224, 350)"></g><g id="g-root-tx_returnde_qss73a1ap15aa-stroke" data-item-order="0" transform="translate(542, 350)"></g></g></g><path id="w1cws4qe1aerrwm" d="M65.283 12.757a.35.35 0 0 0 .584.157l5.203-5.141-6.183 3.523.396 1.461zm-2.216-11.7a.35.35 0 0 0-.522.305v3.111l3.276-1.868-2.754-1.548zm3.728 2.105l-4.25 2.421v2.445l6.391-3.644-2.141-1.222zm4.708 3.303a.35.35 0 0 0 0-.609l-1.592-.9-7.365 4.199v1.782a.35.35 0 0 0 .523.305l8.435-4.777z M44.542 2.513c0-.433.355-.783.792-.783s.792.35.792.783-.355.783-.792.783-.792-.35-.792-.783zm59.171 0c0-.433.355-.783.792-.783s.792.35.792.783-.355.783-.792.783-.792-.35-.792-.783zm-85.951 7.636h-1.27v-.487c-.276.201-.864.609-1.881.609-1.202 0-2.274-.794-2.137-2.078.118-1.106 1.153-1.584 1.848-1.727l2.17-.345c0-.539-.29-.956-1.064-1.006s-1.21.305-1.571 1.017l-1.124-.605c1.218-2.631 5.029-1.764 5.029.414v4.207zm-1.27-2.86c.006.396-.062 1.112-.819 1.59-.587.37-1.841.299-1.903-.395-.049-.555.461-.791.906-.898l1.816-.297zm72.662 2.86h-1.27v-.487c-.276.201-.864.609-1.881.609-1.202 0-2.274-.794-2.137-2.078.118-1.106 1.153-1.584 1.848-1.727l2.17-.345c0-.539-.29-.956-1.064-1.006s-1.21.305-1.571 1.017l-1.124-.605c1.218-2.631 5.029-1.764 5.029.414v4.207zm-1.27-2.86c.006.396-.062 1.112-.82 1.59-.587.37-1.841.299-1.903-.395-.049-.555.461-.791.906-.898l1.816-.297zM99.096 10.149H97.85v-8.45h1.246v4.895l2.68-2.559h1.738l-2.633 2.535 2.715 3.578h-1.556l-2.077-2.707-.867.844v1.863zm6.053-6.114h-1.255v6.113h1.255V4.035zm-59.2 0h-1.255v6.113h1.255V4.035zm5.584 6.113V1.697h1.255v2.695c.361-.346 1-.485 1.47-.485 1.452 0 2.477 1.082 2.457 2.448v3.792h-1.27v-3.68c0-.408-.214-1.339-1.315-1.339-.968 0-1.342.756-1.342 1.339v3.681h-1.255zm-4.76-4.894V4.039h.621a.45.45 0 0 0 .45-.45v-.855h1.251v1.305h1.309v1.215h-1.309v3.109c0 .293.105.664.648.664.365 0 .531-.035.736-.07v1.137s-.361.113-.857.113c-1.398 0-1.777-1.051-1.777-1.788V5.254h-1.071zM36.528 4.039h-1.394l2.191 6.106h1.125l1.234-3.918 1.238 3.918h1.129l2.188-6.106h-1.383l-1.359 3.93-1.256-3.93h-1.124l-1.242 3.957-1.348-3.957zM26.212 7.141c-.02 1.566 1.187 3.129 3.223 3.129 1.566 0 2.383-.918 2.734-1.719L31.172 8c-.315.399-.801 1.094-1.738 1.094-1.145 0-1.825-.781-1.891-1.52h4.625c.074-.284.148-.995-.03-1.559-.336-1.064-1.221-2.102-2.839-2.102s-3.088 1.152-3.088 3.227zm1.363-.75h3.348c-.055-.43-.566-1.301-1.623-1.301a1.79 1.79 0 0 0-1.725 1.301zm-8.758.75c.038 1.758 1.277 3.133 3.145 3.133 1.074 0 1.723-.477 1.961-.672v.547h1.242V1.703h-1.258v2.888c-.414-.36-1.062-.68-1.93-.68-1.91 0-3.198 1.473-3.16 3.23zm1.309-.08c0 1.119.723 1.978 1.836 1.978a1.88 1.88 0 0 0 1.94-1.904c0-1.371-1.011-1.99-1.972-1.99s-1.805.798-1.805 1.916zm76.683-.028C96.771 5.275 95.532 3.9 93.664 3.9c-1.074 0-1.723.477-1.961.672v-.547h-1.242v8.22h1.258V9.583c.414.36 1.063.68 1.93.68 1.91 0 3.198-1.473 3.16-3.23zm-1.309.08c0-1.119-.723-1.978-1.836-1.978a1.88 1.88 0 0 0-1.94 1.904c0 1.371 1.011 1.99 1.972 1.99S95.5 8.231 95.5 7.113zM106.441 10.173V4.036h1.254v.382c.361-.346 1-.485 1.47-.485 1.452 0 2.477 1.082 2.457 2.448v3.792h-1.27V6.492c0-.408-.214-1.339-1.315-1.339-.969 0-1.342.756-1.342 1.339v3.681h-1.254zm-30.383-.021V1.824h1.084l4.215 5.777V1.824h1.32v8.328h-1.094l-4.207-5.796v5.796h-1.319zM5.24 10.149H4V2.377h1.014l2.664 3.597 2.654-3.592h1.03v7.766h-1.256V4.762L7.678 8.068 5.24 4.742v5.407z" transform="translate(776, 411)" fill="#ababab88" stroke="none"></path></svg>