<?xml version="1.0" encoding="utf-8" standalone="yes"?>
<!DOCTYPE svg PUBLIC "-//W3C//DTD SVG 1.1//EN" "http://www.w3.org/Graphics/SVG/1.1/DTD/svg11.dtd">
<svg style="fill:none;stroke:none;fill-rule:evenodd;clip-rule:evenodd;stroke-linecap:round;stroke-linejoin:round;stroke-miterlimit:1.5;" version="1.1" xmlns="http://www.w3.org/2000/svg" xmlns:xlink="http://www.w3.org/1999/xlink" width="912" height="708" viewBox="0 0 912 708"><style class="text-font-style fontImports" data-font-family="Roboto">@import url(https://fonts.googleapis.com/css2?family=Roboto:wght@400;700&amp;amp;display=block);</style><g id="items" style="isolation: isolate"><g id="blend" style="mix-blend-mode: normal"><g id="g-root-cp_1_g-1_mfghzdvzfor1-fill" data-item-order="-528757" transform="translate(297.1679992675781, 230)"></g><g id="g-root-cp_2_g-2_mfghzdvzfor2-fill" data-item-order="-528751" transform="translate(415.10400390625, 370.20703125)"></g><g id="g-root-cp_3_g-3_hzmzuxvzfpjb-fill" data-item-order="-528745" transform="translate(233, 354.366943359375)"></g><g id="g-root-tx_policyen_dkfytlvzfn5s-fill" data-item-order="0" transform="translate(284, 38)"><g id="tx_policyen_dkfytlvzfn5s-fill-merged" stroke="none" fill="#f4f4f4" fill-opacity="1"><g><text style="font: bold 25px &quot;Roboto&quot;, sans-serif; white-space: pre;" transform="translate(172, 28)" font-weight="bold" font-size="25px" font-family="'Roboto', sans-serif"><tspan x="-158.37" y="15" dominant-baseline="ideographic">PolicyEngine Decision Cycle</tspan></text></g></g></g><g id="g-root-tx_applicat_4o6hhlvzmnm0-fill" data-item-order="0" transform="translate(386, 98)"><g id="tx_applicat_4o6hhlvzmnm0-fill-merged" stroke="none" fill="#a6da37" fill-opacity="1"><g><text style="font: 20px &quot;Roboto&quot;, sans-serif; white-space: pre;" transform="translate(70, 34)" font-size="20px" font-family="'Roboto', sans-serif"><tspan x="-52.72" y="0" dominant-baseline="ideographic">Application </tspan><tspan x="-38.88" y="24" dominant-baseline="ideographic">Request</tspan></text></g></g></g><g id="g-root-tx_applicat_8czd5vzmoe9-fill" data-item-order="0" transform="translate(362, 158)"><g id="tx_applicat_8czd5vzmoe9-fill-merged" stroke="none" fill="#f4f4f4" fill-opacity="1"><g><text style="font: 15px &quot;Roboto&quot;, sans-serif; white-space: pre;" transform="translate(94, 28)" font-size="15px" font-family="'Roboto', sans-serif"><tspan x="-65.56" y="0" dominant-baseline="ideographic">Application sends a </tspan><tspan x="-80.14" y="18" dominant-baseline="ideographic">request to PolicyEngine.</tspan></text></g></g></g><g id="g-root-ic_1_4osykpvzfnyh-fill" data-item-order="0" transform="translate(416, 266)"></g><g id="g-root-tx_decision_1ly0iyxvzmps4-fill" data-item-order="0" transform="translate(38, 506)"><g id="tx_decision_1ly0iyxvzmps4-fill-merged" stroke="none" fill="#43dd93" fill-opacity="1"><g><text style="font: 20px &quot;Roboto&quot;, sans-serif; white-space: pre;" transform="translate(166, 22)" font-size="20px" font-family="'Roboto', sans-serif"><tspan x="-143.83" y="12" dominant-baseline="ideographic">Decision Output</tspan></text></g></g></g><g id="g-root-ic_appr_1q7la89vzla11-fill" data-item-order="0" transform="translate(271.95001220703125, 507.52001953125)"></g><g id="g-root-ic_4_qs5mo9vzifwg-fill" data-item-order="0" transform="translate(566, 506)"></g><g id="g-root-tx_policyev_1qdu13dvzmozu-fill" data-item-order="0" transform="translate(698, 506)"><g id="tx_policyev_1qdu13dvzmozu-fill-merged" stroke="none" fill="#1ac3fb" fill-opacity="1"><g><text style="font: 20px &quot;Roboto&quot;, sans-serif; white-space: pre;" transform="translate(10, 22)" font-size="20px" font-family="'Roboto', sans-serif"><tspan x="2" y="12" dominant-baseline="ideographic">Policy Evaluation</tspan></text></g></g></g><g id="g-root-tx_policyen_1ly0iyxvzmps5-fill" data-item-order="0" transform="translate(38, 542)"><g id="tx_policyen_1ly0iyxvzmps5-fill-merged" stroke="none" fill="#f4f4f4" fill-opacity="1"><g><text style="font: 15px &quot;Roboto&quot;, sans-serif; white-space: pre;" transform="translate(166, 40)" font-size="15px" font-family="'Roboto', sans-serif"><tspan x="-153.93" y="-9" dominant-baseline="ideographic">PolicyEngine outputs a </tspan><tspan x="-133.03" y="9" dominant-baseline="ideographic">decision (GRANT or </tspan><tspan x="-49.2" y="27" dominant-baseline="ideographic">DENY).</tspan></text></g></g></g><g id="g-root-tx_policyen_1qdu13dvzmozv-fill" data-item-order="0" transform="translate(698, 542)"><g id="tx_policyen_1qdu13dvzmozv-fill-merged" stroke="none" fill="#f4f4f4" fill-opacity="1"><g><text style="font: 15px &quot;Roboto&quot;, sans-serif; white-space: pre;" transform="translate(10, 40)" font-size="15px" font-family="'Roboto', sans-serif"><tspan x="2" y="-9" dominant-baseline="ideographic">PolicyEngine evaluates </tspan><tspan x="2" y="9" dominant-baseline="ideographic">the request against </tspan><tspan x="2" y="27" dominant-baseline="ideographic">policies.</tspan></text></g></g></g><g id="g-root-cp_1_g-1_mfghzdvzfor1-stroke" data-item-order="-528757" transform="translate(297.1679992675781, 230)"><g id="cp_1_g-1_mfghzdvzfor1-stroke" fill="none" stroke-linecap="round" stroke-linejoin="round" stroke-miterlimit="4" stroke="#a6da37" stroke-width="2" stroke-opacity="1"><g><path d="M 92.162109 76C 92.162111 112.450795 121.711318 142.000002 158.162111 142.000002C 194.612905 142.000002 224.162111 112.450795 224.162111 76.000002C 224.162111 39.549208 194.612905 10.000002 158.162111 10.000002C 121.711318 10.000002 92.162111 39.549208 92.162111 76.000002"></path></g></g><g id="cp_1_g-1_mfghzdvzfor1-stroke" fill="none" stroke-linecap="round" stroke-linejoin="round" stroke-miterlimit="4" stroke="#a6da37" stroke-width="2" stroke-opacity="1"><g><path d="M 216.3369 107.200144C 221.3297 97.910044 224.1621 87.286244 224.1621 76.000944C 224.1621 73.666944 224.041 71.361244 223.8046 69.089844C 227.6751 70.620444 231.4967 72.293744 235.2615 74.108144C 261.2506 86.633444 283.667 105.467944 300.4773 128.869644L 325.8813 118.174644L 304.165 174.674644L 248.4611 150.768444L 264.2848 144.106744C 251.9157 129.057244 236.394 116.836844 218.7637 108.340044C 217.9581 107.951744 217.1491 107.571844 216.3369 107.200144ZM 100.9064 108.852944C 95.6856 111.425344 90.621 114.341844 85.7474 117.590644C 69.0017 128.753544 55.0093 143.507344 44.76 160.731744L 34.6265 134.367144L 10 144.935944C 23.3052 121.283844 42.0246 101.067644 64.67 85.971944C 73.4544 80.116144 82.7227 75.102144 92.3508 70.972144C 92.2258 72.632044 92.1621 74.309044 92.1621 76.000944C 92.1621 87.961344 95.3436 99.178744 100.9064 108.852944Z"></path></g></g></g><g id="g-root-cp_2_g-2_mfghzdvzfor2-stroke" data-item-order="-528751" transform="translate(415.10400390625, 370.20703125)"><g id="cp_2_g-2_mfghzdvzfor2-stroke" fill="none" stroke-linecap="round" stroke-linejoin="round" stroke-miterlimit="4" stroke="#1ac3fb" stroke-width="2" stroke-opacity="1"><g><path d="M 121.945313 177.3125C 121.945314 213.763295 151.494521 243.312502 187.945314 243.312502C 224.396108 243.312502 253.945314 213.763295 253.945314 177.312502C 253.945314 140.861708 224.396108 111.312502 187.945314 111.312502C 151.494521 111.312502 121.945314 140.861708 121.945314 177.312502"></path></g></g><g id="cp_2_g-2_mfghzdvzfor2-stroke" fill="none" stroke-linecap="round" stroke-linejoin="round" stroke-miterlimit="4" stroke="#1ac3fb" stroke-width="2" stroke-opacity="1"><g><path d="M 186.2287 34.4671L 160.011 23.2153L 159.6884 23.3967C 171.1459 43.7792 177.0928 66.7961 176.9426 90.1777C 176.8941 97.7231 176.2112 105.2224 174.9146 112.5995C 179.1271 111.756 183.4845 111.3134 187.9453 111.3134C 196.7538 111.3134 205.1593 113.039 212.8421 116.1706C 214.18 107.6814 214.8862 99.0753 214.9418 90.4219C 215.1217 62.4162 208.4812 34.8185 195.6329 10L 186.2287 34.4671ZM 145.374 227.7502C 135.5994 219.4916 128.2583 208.443 124.579 195.833C 119.9882 199.3737 115.159 202.6249 110.1171 205.5609C 92.8386 215.6222 73.5727 221.6838 53.733 223.3574L 53.8902 196.3134L 10 237.9967L 53.4019 280.3134L 53.5114 261.4769C 80.1577 259.7612 106.0893 251.8794 129.239 238.3991C 134.8282 235.1445 140.2137 231.5877 145.374 227.7502Z"></path></g></g></g><g id="g-root-cp_3_g-3_hzmzuxvzfpjb-stroke" data-item-order="-528745" transform="translate(233, 354.366943359375)"><g id="cp_3_g-3_hzmzuxvzfpjb-stroke" fill="none" stroke-linecap="round" stroke-linejoin="round" stroke-miterlimit="4" stroke="#43dd93" stroke-width="2" stroke-opacity="1"><g><path d="M 10 193.152344C 10.000002 229.603139 39.549208 259.152346 76.000002 259.152346C 112.450795 259.152346 142.000002 229.603139 142.000002 193.152346C 142.000002 156.701552 112.450795 127.152346 76.000002 127.152346C 39.549208 127.152346 10.000002 156.701552 10.000002 193.152346"></path></g></g><g id="cp_3_g-3_hzmzuxvzfpjb-stroke" fill="none" stroke-linecap="round" stroke-linejoin="round" stroke-miterlimit="4" stroke="#43dd93" stroke-width="2" stroke-opacity="1"><g><path d="M 63.74872 42.6031L 43.09082 33.9062L 98.79472 10L 120.51102 66.5L 98.78842 57.3549C 92.02332 75.1513 89.09552 94.2294 90.25852 113.3293C 90.58252 118.6514 91.22162 123.9332 92.16702 129.1483C 86.99372 127.8457 81.57772 127.1538 76.00002 127.1538C 68.26582 127.1538 60.84242 128.4841 53.94602 130.9284C 53.18182 125.8706 52.64112 120.7693 52.32872 115.6388C 50.81002 90.6959 54.73102 65.7821 63.74872 42.6031ZM 119.96832 242.3765C 128.09442 248.5684 136.78472 254.0495 145.94902 258.7383C 167.86982 269.954 191.88032 276.3189 216.35372 277.48L 192.10452 253.8371L 208.08052 238.6644C 192.50702 236.7455 177.33002 232.1093 163.25752 224.9091C 154.93452 220.6507 147.11272 215.5542 139.90372 209.7198C 136.59332 222.5263 129.53482 233.8252 119.96832 242.3765Z"></path></g></g></g><g id="g-root-tx_policyen_dkfytlvzfn5s-stroke" data-item-order="0" transform="translate(284, 38)"></g><g id="g-root-tx_applicat_4o6hhlvzmnm0-stroke" data-item-order="0" transform="translate(386, 98)"></g><g id="g-root-tx_applicat_8czd5vzmoe9-stroke" data-item-order="0" transform="translate(362, 158)"></g><g id="g-root-ic_1_4osykpvzfnyh-stroke" data-item-order="0" transform="translate(416, 266)"><g id="ic_1_4osykpvzfnyh-stroke" fill="none" stroke-linecap="round" stroke-linejoin="round" stroke-miterlimit="4" stroke="#a6da37" stroke-width="2" stroke-opacity="1"><g><path d="M 58.75 41.25L 58.75 26.195C 58.754143 17.942318 52.065182 11.249999 43.8125 11.25L 13.75 11.25C 12.369288 11.25 11.25 12.369288 11.25 13.75L 11.25 66.25C 11.25 67.630707 12.369288 68.75 13.75 68.75L 21.25 68.75M 46.25 11.46L 46.25 21.25C 46.25 22.630713 47.369286 23.75 48.75 23.75L 58.549999 23.75M 28.75 68.75L 28.75 53.75C 28.75 50.988575 30.988577 48.75 33.75 48.75C 36.511425 48.75 38.75 50.988575 38.75 53.75L 38.75 68.75M 28.75 58.759998L 38.75 58.759998M 68.75 53.75C 68.75 56.511425 66.511429 58.75 63.75 58.75L 58.75 58.75L 58.75 48.75L 63.75 48.75C 66.511429 48.75 68.75 50.988575 68.75 53.75ZM 58.75 68.760002L 58.75 58.759998M 53.75 53.75C 53.75 56.511425 51.511425 58.75 48.75 58.75L 43.75 58.75L 43.75 48.75L 48.75 48.75C 51.511425 48.75 53.75 50.988575 53.75 53.75ZM 43.75 68.760002L 43.75 58.759998"></path></g></g></g><g id="g-root-tx_decision_1ly0iyxvzmps4-stroke" data-item-order="0" transform="translate(38, 506)"></g><g id="g-root-ic_appr_1q7la89vzla11-stroke" data-item-order="0" transform="translate(271.95001220703125, 507.52001953125)"><g id="ic_appr_1q7la89vzla11-stroke" fill="none" stroke-linecap="round" stroke-linejoin="round" stroke-miterlimit="4" stroke="#43dd93" stroke-width="2" stroke-opacity="1"><g><path d="M 11.25 53.767502L 11.25 16.2675M 16.25 26.2675L 16.25 43.767502M 21.25 23.7675L 21.25 46.267502M 26.25 21.2675L 26.25 48.767502M 31.25 18.7675L 31.25 51.267502M 61.25 35.017502L 61.25 16.2675M 56.25 26.2675L 56.25 33.767502M 51.25 23.7675L 51.25 33.767502M 46.25 21.2675L 46.25 35.017502M 41.25 18.7675L 41.25 37.517502M 36.25 11.2675L 36.25 43.767502M 38.75 53.75C 38.750004 62.034271 45.465729 68.75 53.75 68.75C 62.034271 68.75 68.75 62.034271 68.75 53.75C 68.75 45.465729 62.034271 38.750004 53.75 38.750004C 45.465729 38.750004 38.750004 45.465729 38.750004 53.75ZM 60.434998 49.389999L 53.172497 59.072498C 52.846127 59.506565 52.34779 59.778046 51.806099 59.816875C 51.264412 59.855705 50.732445 59.658081 50.3475 59.274998L 46.5975 55.524998"></path></g></g></g><g id="g-root-ic_4_qs5mo9vzifwg-stroke" data-item-order="0" transform="translate(566, 506)"><g id="ic_4_qs5mo9vzifwg-stroke" fill="none" stroke-linecap="round" stroke-linejoin="round" stroke-miterlimit="4" stroke="#1ac3fb" stroke-width="2" stroke-opacity="1"><g><path d="M 22.640001 68.75L 22.640001 54.604996L 57.360001 54.604996L 57.360001 68.75M 21.699999 30.532501L 26.3125 31.012499L 29.217499 21.057499M 12.266785 18.125187L 30.324173 11.333185C 30.324173 11.333185 31.526907 10.880795 31.979294 12.08353L 40.129349 33.751457C 40.129349 33.751457 40.581738 34.954193 39.379002 35.406582L 21.321615 42.198586C 21.321615 42.198586 20.118883 42.650978 19.666492 41.448242L 11.51644 19.78031C 11.51644 19.78031 11.064053 18.577578 12.266785 18.125187M 47.642502 38.047501L 58.677502 42.197498C 59.341618 42.447304 60.082512 42.111549 60.332497 41.447498L 68.482498 19.782501C 68.730972 19.117756 68.395859 18.377148 67.732498 18.125L 49.677502 11.3325C 49.012707 11.082539 48.271061 11.418124 48.019997 12.0825L 44.122501 22.4475M 51.709999 21.3225L 56.645004 32.2075M 59.619999 24.297501L 48.732498 29.2325M 22.640001 54.604996L 30.997501 46.887501L 40 46.887501M 57.360001 54.604996L 49.002499 46.887501L 40 46.887501"></path></g></g></g><g id="g-root-tx_policyev_1qdu13dvzmozu-stroke" data-item-order="0" transform="translate(698, 506)"></g><g id="g-root-tx_policyen_1ly0iyxvzmps5-stroke" data-item-order="0" transform="translate(38, 542)"></g><g id="g-root-tx_policyen_1qdu13dvzmozv-stroke" data-item-order="0" transform="translate(698, 542)"></g></g></g><path id="w4hbm8bvpn4eg" d="M65.283 12.757a.35.35 0 0 0 .584.157l5.203-5.141-6.183 3.523.396 1.461zm-2.216-11.7a.35.35 0 0 0-.522.305v3.111l3.276-1.868-2.754-1.548zm3.728 2.105l-4.25 2.421v2.445l6.391-3.644-2.141-1.222zm4.708 3.303a.35.35 0 0 0 0-.609l-1.592-.9-7.365 4.199v1.782a.35.35 0 0 0 .523.305l8.435-4.777z M44.542 2.513c0-.433.355-.783.792-.783s.792.35.792.783-.355.783-.792.783-.792-.35-.792-.783zm59.171 0c0-.433.355-.783.792-.783s.792.35.792.783-.355.783-.792.783-.792-.35-.792-.783zm-85.951 7.636h-1.27v-.487c-.276.201-.864.609-1.881.609-1.202 0-2.274-.794-2.137-2.078.118-1.106 1.153-1.584 1.848-1.727l2.17-.345c0-.539-.29-.956-1.064-1.006s-1.21.305-1.571 1.017l-1.124-.605c1.218-2.631 5.029-1.764 5.029.414v4.207zm-1.27-2.86c.006.396-.062 1.112-.819 1.59-.587.37-1.841.299-1.903-.395-.049-.555.461-.791.906-.898l1.816-.297zm72.662 2.86h-1.27v-.487c-.276.201-.864.609-1.881.609-1.202 0-2.274-.794-2.137-2.078.118-1.106 1.153-1.584 1.848-1.727l2.17-.345c0-.539-.29-.956-1.064-1.006s-1.21.305-1.571 1.017l-1.124-.605c1.218-2.631 5.029-1.764 5.029.414v4.207zm-1.27-2.86c.006.396-.062 1.112-.82 1.59-.587.37-1.841.299-1.903-.395-.049-.555.461-.791.906-.898l1.816-.297zM99.096 10.149H97.85v-8.45h1.246v4.895l2.68-2.559h1.738l-2.633 2.535 2.715 3.578h-1.556l-2.077-2.707-.867.844v1.863zm6.053-6.114h-1.255v6.113h1.255V4.035zm-59.2 0h-1.255v6.113h1.255V4.035zm5.584 6.113V1.697h1.255v2.695c.361-.346 1-.485 1.47-.485 1.452 0 2.477 1.082 2.457 2.448v3.792h-1.27v-3.68c0-.408-.214-1.339-1.315-1.339-.968 0-1.342.756-1.342 1.339v3.681h-1.255zm-4.76-4.894V4.039h.621a.45.45 0 0 0 .45-.45v-.855h1.251v1.305h1.309v1.215h-1.309v3.109c0 .293.105.664.648.664.365 0 .531-.035.736-.07v1.137s-.361.113-.857.113c-1.398 0-1.777-1.051-1.777-1.788V5.254h-1.071zM36.528 4.039h-1.394l2.191 6.106h1.125l1.234-3.918 1.238 3.918h1.129l2.188-6.106h-1.383l-1.359 3.93-1.256-3.93h-1.124l-1.242 3.957-1.348-3.957zM26.212 7.141c-.02 1.566 1.187 3.129 3.223 3.129 1.566 0 2.383-.918 2.734-1.719L31.172 8c-.315.399-.801 1.094-1.738 1.094-1.145 0-1.825-.781-1.891-1.52h4.625c.074-.284.148-.995-.03-1.559-.336-1.064-1.221-2.102-2.839-2.102s-3.088 1.152-3.088 3.227zm1.363-.75h3.348c-.055-.43-.566-1.301-1.623-1.301a1.79 1.79 0 0 0-1.725 1.301zm-8.758.75c.038 1.758 1.277 3.133 3.145 3.133 1.074 0 1.723-.477 1.961-.672v.547h1.242V1.703h-1.258v2.888c-.414-.36-1.062-.68-1.93-.68-1.91 0-3.198 1.473-3.16 3.23zm1.309-.08c0 1.119.723 1.978 1.836 1.978a1.88 1.88 0 0 0 1.94-1.904c0-1.371-1.011-1.99-1.972-1.99s-1.805.798-1.805 1.916zm76.683-.028C96.771 5.275 95.532 3.9 93.664 3.9c-1.074 0-1.723.477-1.961.672v-.547h-1.242v8.22h1.258V9.583c.414.36 1.063.68 1.93.68 1.91 0 3.198-1.473 3.16-3.23zm-1.309.08c0-1.119-.723-1.978-1.836-1.978a1.88 1.88 0 0 0-1.94 1.904c0 1.371 1.011 1.99 1.972 1.99S95.5 8.231 95.5 7.113zM106.441 10.173V4.036h1.254v.382c.361-.346 1-.485 1.47-.485 1.452 0 2.477 1.082 2.457 2.448v3.792h-1.27V6.492c0-.408-.214-1.339-1.315-1.339-.969 0-1.342.756-1.342 1.339v3.681h-1.254zm-30.383-.021V1.824h1.084l4.215 5.777V1.824h1.32v8.328h-1.094l-4.207-5.796v5.796h-1.319zM5.24 10.149H4V2.377h1.014l2.664 3.597 2.654-3.592h1.03v7.766h-1.256V4.762L7.678 8.068 5.24 4.742v5.407z" transform="translate(776, 674)" fill="#ababab88" stroke="none"></path></svg>