<?xml version="1.0" encoding="utf-8" standalone="yes"?>
<!DOCTYPE svg PUBLIC "-//W3C//DTD SVG 1.1//EN" "http://www.w3.org/Graphics/SVG/1.1/DTD/svg11.dtd">
<svg style="fill:none;stroke:none;fill-rule:evenodd;clip-rule:evenodd;stroke-linecap:round;stroke-linejoin:round;stroke-miterlimit:1.5;" version="1.1" xmlns="http://www.w3.org/2000/svg" xmlns:xlink="http://www.w3.org/1999/xlink" width="852" height="696" viewBox="0 0 852 696"><style class="text-font-style fontImports" data-font-family="Roboto">@import url(https://fonts.googleapis.com/css2?family=Roboto:wght@400;700&amp;amp;display=block);</style><g id="items" style="isolation: isolate"><g id="blend" style="mix-blend-mode: normal"><g id="g-root-cp_-1_visual_qvaj3ez1nv2e-fill" data-item-order="-482391" transform="translate(380, 512)"></g><g id="g-root-cp_6_g-6_hzniuiz1nvv3-fill" data-item-order="-482385" transform="translate(416, 398)"></g><g id="g-root-cp_5_g-5_mfh0yyz1nvuo-fill" data-item-order="-482381" transform="translate(230, 368)"></g><g id="g-root-cp_4_g-4_dkght6z1nthl-fill" data-item-order="-482377" transform="translate(230, 254)"></g><g id="g-root-cp_3_g-3_dkght6z1nthm-fill" data-item-order="-482373" transform="translate(416, 224)"></g><g id="g-root-cp_2_g-2_94mzoqz1nu9v-fill" data-item-order="-482369" transform="translate(416, 110)"></g><g id="g-root-cp_1_g-1_94mzoqz1nu9w-fill" data-item-order="-482365" transform="translate(248, 110)"></g><g id="g-root-cp_-1_container_94mzoqz1nu9x-fill" data-item-order="-482357" transform="translate(14, 182)"></g><g id="g-root-cp_-1_container_1_8zzfuz1nv2m-fill" data-item-order="-482345" transform="translate(26, 338)"></g><g id="g-root-cp_-1_container_2_8zzfuz1nv2n-fill" data-item-order="-482333" transform="translate(62, 470)"></g><g id="g-root-cp_-1_container_3_4othkaz1nv28-fill" data-item-order="-482321" transform="translate(638, 182)"></g><g id="g-root-cp_-1_container_4_4othkaz1nv29-fill" data-item-order="-482309" transform="translate(638, 326)"></g><g id="g-root-cp_-1_container_5_1uuajaiz1nvnu-fill" data-item-order="-482297" transform="translate(638, 458)"></g><g id="g-root-cp_-1_container_6_1uuajaiz1nvnv-fill" data-item-order="-482285" transform="translate(638, 614)"></g><g id="g-root-tx_actionex_1qbcqwaz12scq-fill" data-item-order="0" transform="translate(638, 614)"><g id="tx_actionex_1qbcqwaz12scq-fill-merged" stroke="none" fill="#f4f4f4" fill-opacity="1"><g><text style="font: 15px &quot;Roboto&quot;, sans-serif; white-space: pre;" transform="translate(10, 22)" font-size="15px" font-family="'Roboto', sans-serif"><tspan x="2" y="9" dominant-baseline="ideographic">Action execution</tspan></text></g></g></g><g id="g-root-ic_sear_18kp7hmz12rk3-fill" data-item-order="0" transform="translate(314, 272)"></g><g id="g-root-ic_2_dfgsa2z1i96r-fill" data-item-order="0" transform="translate(470, 272)"></g><g id="g-root-tx_pepsends_4jts16z12ryl-fill" data-item-order="0" transform="translate(638, 242)"><g id="tx_pepsends_4jts16z12ryl-fill-merged" stroke="none" fill="#43dd93" fill-opacity="1"><g><text style="font: 20px &quot;Roboto&quot;, sans-serif; white-space: pre;" transform="translate(10, 46)" font-size="20px" font-family="'Roboto', sans-serif"><tspan x="2" y="-12" dominant-baseline="ideographic">PEP sends PORC to </tspan><tspan x="2" y="12" dominant-baseline="ideographic">PDP for </tspan><tspan x="2" y="36" dominant-baseline="ideographic">authorization</tspan></text></g></g></g><g id="g-root-tx_security_qqatkaz12sqs-fill" data-item-order="0" transform="translate(638, 182)"><g id="tx_security_qqatkaz12sqs-fill-merged" stroke="none" fill="#f4f4f4" fill-opacity="1"><g><text style="font: 15px &quot;Roboto&quot;, sans-serif; white-space: pre;" transform="translate(10, 22)" font-size="15px" font-family="'Roboto', sans-serif"><tspan x="2" y="9" dominant-baseline="ideographic">Security check initiation</tspan></text></g></g></g><g id="g-root-tx_userinte_dbpxrez12t5a-fill" data-item-order="0" transform="translate(14, 182)"><g id="tx_userinte_dbpxrez12t5a-fill-merged" stroke="none" fill="#f4f4f4" fill-opacity="1"><g><text style="font: 15px &quot;Roboto&quot;, sans-serif; white-space: pre;" transform="translate(190, 22)" font-size="15px" font-family="'Roboto', sans-serif"><tspan x="-167.72" y="9" dominant-baseline="ideographic">User interaction with app</tspan></text></g></g></g><g id="g-root-tx_policyde_1cviwx6z12rcw-fill" data-item-order="0" transform="translate(26, 338)"><g id="tx_policyde_1cviwx6z12rcw-fill-merged" stroke="none" fill="#f4f4f4" fill-opacity="1"><g><text style="font: 15px &quot;Roboto&quot;, sans-serif; white-space: pre;" transform="translate(178, 22)" font-size="15px" font-family="'Roboto', sans-serif"><tspan x="-158.95" y="9" dominant-baseline="ideographic">Policy decision process</tspan></text></g></g></g><g id="g-root-tx_policyev_1q9hbmyz12tce-fill" data-item-order="0" transform="translate(638, 326)"><g id="tx_policyev_1q9hbmyz12tce-fill-merged" stroke="none" fill="#f4f4f4" fill-opacity="1"><g><text style="font: 15px &quot;Roboto&quot;, sans-serif; white-space: pre;" transform="translate(10, 22)" font-size="15px" font-family="'Roboto', sans-serif"><tspan x="2" y="9" dominant-baseline="ideographic">Policy evaluation request</tspan></text></g></g></g><g id="g-root-tx_pepinter_1hcld7uz12sqr-fill" data-item-order="0" transform="translate(638, 98)"><g id="tx_pepinter_1hcld7uz12sqr-fill-merged" stroke="none" fill="#1ac3fb" fill-opacity="1"><g><text style="font: 20px &quot;Roboto&quot;, sans-serif; white-space: pre;" transform="translate(10, 46)" font-size="20px" font-family="'Roboto', sans-serif"><tspan x="2" y="-12" dominant-baseline="ideographic">PEP intercepts </tspan><tspan x="2" y="12" dominant-baseline="ideographic">request and builds </tspan><tspan x="2" y="36" dominant-baseline="ideographic">PORC expression</tspan></text></g></g></g><g id="g-root-ic_rota_vbqlgqz18fsz-fill" data-item-order="0" transform="translate(470, 128)"></g><g id="g-root-tx_pdpwrite_qp1ve2z12qkp-fill" data-item-order="0" transform="translate(38, 386)"><g id="tx_pdpwrite_qp1ve2z12qkp-fill-merged" stroke="none" fill="#ffe711" fill-opacity="1"><g><text style="font: 20px &quot;Roboto&quot;, sans-serif; white-space: pre;" transform="translate(166, 46)" font-size="20px" font-family="'Roboto', sans-serif"><tspan x="-99.48" y="-12" dominant-baseline="ideographic">PDP writes </tspan><tspan x="-152.6" y="12" dominant-baseline="ideographic">AccessRecord to </tspan><tspan x="-117.68" y="36" dominant-baseline="ideographic">Audit Stream</tspan></text></g></g></g><g id="g-root-ic_chec_5982yz15loq-fill" data-item-order="0" transform="translate(314, 416)"></g><g id="g-root-ic_spar_13zvwoaz1l0y4-fill" data-item-order="0" transform="translate(470, 416)"></g><g id="g-root-tx_pdpretur_1cynacqz12rrj-fill" data-item-order="0" transform="translate(638, 398)"><g id="tx_pdpretur_1cynacqz12rrj-fill-merged" stroke="none" fill="#f79438" fill-opacity="1"><g><text style="font: 20px &quot;Roboto&quot;, sans-serif; white-space: pre;" transform="translate(10, 34)" font-size="20px" font-family="'Roboto', sans-serif"><tspan x="2" y="0" dominant-baseline="ideographic">PDP returns </tspan><tspan x="2" y="24" dominant-baseline="ideographic">GRANT to PEP</tspan></text></g></g></g><g id="g-root-ic_app_1upxauiz1cmq7-fill" data-item-order="0" transform="translate(314, 128)"></g><g id="g-root-tx_usermake_zitgdmz12qrp-fill" data-item-order="0" transform="translate(50, 98)"><g id="tx_usermake_zitgdmz12qrp-fill-merged" stroke="none" fill="#4f91fc" fill-opacity="1"><g><text style="font: 20px &quot;Roboto&quot;, sans-serif; white-space: pre;" transform="translate(154, 46)" font-size="20px" font-family="'Roboto', sans-serif"><tspan x="-122.75" y="-12" dominant-baseline="ideographic">User makes a </tspan><tspan x="-135.28" y="12" dominant-baseline="ideographic">request to your </tspan><tspan x="-100.3" y="36" dominant-baseline="ideographic">application</tspan></text></g></g></g><g id="g-root-tx_audittra_2rbqiz12qkq-fill" data-item-order="0" transform="translate(62, 470)"><g id="tx_audittra_2rbqiz12qkq-fill-merged" stroke="none" fill="#f4f4f4" fill-opacity="1"><g><text style="font: 15px &quot;Roboto&quot;, sans-serif; white-space: pre;" transform="translate(142, 22)" font-size="15px" font-family="'Roboto', sans-serif"><tspan x="-123.87" y="9" dominant-baseline="ideographic">Audit trail creation</tspan></text></g></g></g><g id="g-root-tx_authoriz_v7zqy2z12qyw-fill" data-item-order="0" transform="translate(638, 458)"><g id="tx_authoriz_v7zqy2z12qyw-fill-merged" stroke="none" fill="#f4f4f4" fill-opacity="1"><g><text style="font: 15px &quot;Roboto&quot;, sans-serif; white-space: pre;" transform="translate(10, 22)" font-size="15px" font-family="'Roboto', sans-serif"><tspan x="2" y="9" dominant-baseline="ideographic">Authorization granted</tspan></text></g></g></g><g id="g-root-ic_add_vcd2juz1mfph-fill" data-item-order="0" transform="translate(470, 560)"></g><g id="g-root-tx_pepenfor_dgpqgaz12tc1-fill" data-item-order="0" transform="translate(638, 530)"><g id="tx_pepenfor_dgpqgaz12tc1-fill-merged" stroke="none" fill="#cb68f9" fill-opacity="1"><g><text style="font: 20px &quot;Roboto&quot;, sans-serif; white-space: pre;" transform="translate(10, 46)" font-size="20px" font-family="'Roboto', sans-serif"><tspan x="2" y="-12" dominant-baseline="ideographic">PEP enforces </tspan><tspan x="2" y="12" dominant-baseline="ideographic">decision and </tspan><tspan x="2" y="36" dominant-baseline="ideographic">updates document</tspan></text></g></g></g><g id="g-root-tx_requesta_1qf3i96z1ntac-fill" data-item-order="0" transform="translate(140, 38)"><g id="tx_requesta_1qf3i96z1ntac-fill-merged" stroke="none" fill="#f4f4f4" fill-opacity="1"><g><text style="font: bold 25px &quot;Roboto&quot;, sans-serif; white-space: pre;" transform="translate(286, 28)" font-weight="bold" font-size="25px" font-family="'Roboto', sans-serif"><tspan x="-271.58" y="15" dominant-baseline="ideographic">Request Authorization and Processing Workflow</tspan></text></g></g></g><g id="g-root-tx_pdplooks_1lqjg2yz12sy7-fill" data-item-order="0" transform="translate(50, 230)"><g id="tx_pdplooks_1lqjg2yz12sy7-fill-merged" stroke="none" fill="#a6da37" fill-opacity="1"><g><text style="font: 20px &quot;Roboto&quot;, sans-serif; white-space: pre;" transform="translate(154, 58)" font-size="20px" font-family="'Roboto', sans-serif"><tspan x="-120.68" y="-24" dominant-baseline="ideographic">PDP looks up </tspan><tspan x="-108.8" y="0" dominant-baseline="ideographic">policies and </tspan><tspan x="-137.67" y="24" dominant-baseline="ideographic">evaluates Rego </tspan><tspan x="-45.6" y="48" dominant-baseline="ideographic">rules</tspan></text></g></g></g><g id="g-root-cp_-1_visual_qvaj3ez1nv2e-stroke" data-item-order="-482391" transform="translate(380, 512)"><g id="cp_-1_visual_qvaj3ez1nv2e-stroke" fill="none" stroke-linecap="round" stroke-linejoin="round" stroke-miterlimit="4" stroke="#cb68f9" stroke-width="2" stroke-opacity="1"><g><path d="M 208 10C 208 37.7434 189.1703 61.0888 163.5937 67.9537C 157.8149 51.6652 142.2697 40 124 40C 104.9739 40 88.9026 52.6511 83.7393 70L 46 70L 46 58L 10 82L 46 106L 46 94L 83.7393 94C 88.9026 111.3489 104.9739 124 124 124C 143.6293 124 160.1134 110.5341 164.7186 92.3362C 203.1008 84.5847 232 50.6672 232 10L 208 10Z"></path></g></g></g><g id="g-root-cp_6_g-6_hzniuiz1nvv3-stroke" data-item-order="-482385" transform="translate(416, 398)"><g id="cp_6_g-6_hzniuiz1nvv3-stroke" fill="none" stroke-linecap="round" stroke-linejoin="round" stroke-miterlimit="4" stroke="#f79438" stroke-width="2" stroke-opacity="1"><g><path d="M 47.7393 64C 52.9026 81.3489 68.9739 94 88 94C 106.2697 94 121.8149 82.3348 127.5937 66.0463C 153.1703 72.9112 172 96.2566 172 124L 196 124C 196 83.3328 167.1008 49.4153 128.7186 41.6638C 124.1134 23.4659 107.6293 10 88 10C 68.9739 10 52.9026 22.6511 47.7393 40L 10 40L 10 64L 47.7393 64Z"></path></g></g></g><g id="g-root-cp_5_g-5_mfh0yyz1nvuo-stroke" data-item-order="-482381" transform="translate(230, 368)"><g id="cp_5_g-5_mfh0yyz1nvuo-stroke" fill="none" stroke-linecap="round" stroke-linejoin="round" stroke-miterlimit="4" stroke="#ffe711" stroke-width="2" stroke-opacity="1"><g><path d="M 78.4063 67.9537C 52.8297 61.0888 34 37.7434 34 10L 10 10C 10 50.6672 38.8992 84.5847 77.2814 92.3362C 81.8866 110.5341 98.3707 124 118 124C 137.0261 124 153.0974 111.3489 158.2607 94L 196 94L 196 70L 158.2607 70C 153.0974 52.6511 137.0261 40 118 40C 99.7303 40 84.1851 51.6652 78.4063 67.9537Z"></path></g></g></g><g id="g-root-cp_4_g-4_dkght6z1nthl-stroke" data-item-order="-482377" transform="translate(230, 254)"><g id="cp_4_g-4_dkght6z1nthl-stroke" fill="none" stroke-linecap="round" stroke-linejoin="round" stroke-miterlimit="4" stroke="#a6da37" stroke-width="2" stroke-opacity="1"><g><path d="M 78.4063 66.0463C 84.1851 82.3348 99.7303 94 118 94C 137.0261 94 153.0974 81.3489 158.2607 64L 196 64L 196 40L 158.2607 40C 153.0974 22.6511 137.0261 10 118 10C 98.3707 10 81.8866 23.4659 77.2814 41.6638C 38.8992 49.4153 10 83.3328 10 124L 34 124C 34 96.2566 52.8297 72.9112 78.4063 66.0463Z"></path></g></g></g><g id="g-root-cp_3_g-3_dkght6z1nthm-stroke" data-item-order="-482373" transform="translate(416, 224)"><g id="cp_3_g-3_dkght6z1nthm-stroke" fill="none" stroke-linecap="round" stroke-linejoin="round" stroke-miterlimit="4" stroke="#43dd93" stroke-width="2" stroke-opacity="1"><g><path d="M 128.7186 92.3362C 167.1008 84.5847 196 50.6672 196 10L 172 10C 172 37.7434 153.1703 61.0888 127.5937 67.9537C 121.8149 51.6652 106.2697 40 88 40C 68.9739 40 52.9026 52.6511 47.7393 70L 10 70L 10 94L 47.7393 94C 52.9026 111.3489 68.9739 124 88 124C 107.6293 124 124.1134 110.5341 128.7186 92.3362Z"></path></g></g></g><g id="g-root-cp_2_g-2_94mzoqz1nu9v-stroke" data-item-order="-482369" transform="translate(416, 110)"><g id="cp_2_g-2_94mzoqz1nu9v-stroke" fill="none" stroke-linecap="round" stroke-linejoin="round" stroke-miterlimit="4" stroke="#1ac3fb" stroke-width="2" stroke-opacity="1"><g><path d="M 47.7393 64C 52.9026 81.3489 68.9739 94 88 94C 106.2697 94 121.8149 82.3348 127.5937 66.0463C 153.1703 72.9112 172 96.2566 172 124L 196 124C 196 83.3328 167.1008 49.4153 128.7186 41.6638C 124.1134 23.4659 107.6293 10 88 10C 68.9739 10 52.9026 22.6511 47.7393 40L 10 40L 10 64L 47.7393 64Z"></path></g></g></g><g id="g-root-cp_1_g-1_94mzoqz1nu9w-stroke" data-item-order="-482365" transform="translate(248, 110)"><g id="cp_1_g-1_94mzoqz1nu9w-stroke" fill="none" stroke-linecap="round" stroke-linejoin="round" stroke-miterlimit="4" stroke="#4f91fc" stroke-width="2" stroke-opacity="1"><g><path d="M 59.7393 64C 64.9026 81.3489 80.9739 94 100 94C 119.0261 94 135.0974 81.3489 140.2607 64L 178 64L 178 40L 140.2607 40C 135.0974 22.6511 119.0261 10 100 10C 80.9739 10 64.9026 22.6511 59.7393 40L 10 40L 10 64L 59.7393 64Z"></path></g></g></g><g id="g-root-cp_-1_container_94mzoqz1nu9x-stroke" data-item-order="-482357" transform="translate(14, 182)"></g><g id="g-root-cp_-1_container_1_8zzfuz1nv2m-stroke" data-item-order="-482345" transform="translate(26, 338)"></g><g id="g-root-cp_-1_container_2_8zzfuz1nv2n-stroke" data-item-order="-482333" transform="translate(62, 470)"></g><g id="g-root-cp_-1_container_3_4othkaz1nv28-stroke" data-item-order="-482321" transform="translate(638, 182)"></g><g id="g-root-cp_-1_container_4_4othkaz1nv29-stroke" data-item-order="-482309" transform="translate(638, 326)"></g><g id="g-root-cp_-1_container_5_1uuajaiz1nvnu-stroke" data-item-order="-482297" transform="translate(638, 458)"></g><g id="g-root-cp_-1_container_6_1uuajaiz1nvnv-stroke" data-item-order="-482285" transform="translate(638, 614)"></g><g id="g-root-tx_actionex_1qbcqwaz12scq-stroke" data-item-order="0" transform="translate(638, 614)"></g><g id="g-root-ic_sear_18kp7hmz12rk3-stroke" data-item-order="0" transform="translate(314, 272)"><g id="ic_sear_18kp7hmz12rk3-stroke" fill="none" stroke-linecap="round" stroke-linejoin="round" stroke-miterlimit="4" stroke="#a6da37" stroke-width="2" stroke-opacity="1"><g><path d="M 50.5 23.5L 50.5 15.5C 50.5 13.3 48.700001 11.5 46.5 11.5L 15.5 11.5C 13.3 11.5 11.5 13.3 11.5 15.5L 11.5 23.5M 50.5 23.5L 11.5 23.5M 50.5 23.5L 37.5 23.5M 50.5 23.5L 50.5 30.9M 11.5 23.5L 11.5 43.099998C 11.5 45.299999 13.3 47.099998 15.5 47.099998L 24.5 47.099998M 11.5 23.5L 24.5 23.5M 24.5 23.5L 24.5 47.099998M 24.5 23.5L 37.5 23.5M 24.5 47.099998L 30.1 47.099998M 11.5 35.5L 32.5 35.5M 37.5 23.5L 37.5 30.9M 10 10M 56.5 56.500198L 51.463799 51.464199M 54.099998 45.099998C 54.099998 50.070599 50.070599 54.099998 45.099998 54.099998C 40.129402 54.099998 36.099998 50.070599 36.099998 45.099998C 36.099998 40.129601 40.129402 36.099998 45.099998 36.099998C 50.070599 36.099998 54.099998 40.129601 54.099998 45.099998Z"></path></g></g></g><g id="g-root-ic_2_dfgsa2z1i96r-stroke" data-item-order="0" transform="translate(470, 272)"><g id="ic_2_dfgsa2z1i96r-stroke" fill="none" stroke-linecap="round" stroke-linejoin="round" stroke-miterlimit="4" stroke="#43dd93" stroke-width="2" stroke-opacity="1"><g><path d="M 23 48L 23 54L 11 43L 23 32L 23 38L 37 38L 37 48L 23 48ZM 41 42L 54 42C 55.656853 42 57 40.656853 57 39L 57 17C 57 15.343145 55.656853 14 54 14L 18 14C 16.343143 14 15 15.343145 15 17L 15 30M 15.866001 14.892L 36 31L 56.133999 14.892"></path></g></g></g><g id="g-root-tx_pepsends_4jts16z12ryl-stroke" data-item-order="0" transform="translate(638, 242)"></g><g id="g-root-tx_security_qqatkaz12sqs-stroke" data-item-order="0" transform="translate(638, 182)"></g><g id="g-root-tx_userinte_dbpxrez12t5a-stroke" data-item-order="0" transform="translate(14, 182)"></g><g id="g-root-tx_policyde_1cviwx6z12rcw-stroke" data-item-order="0" transform="translate(26, 338)"></g><g id="g-root-tx_policyev_1q9hbmyz12tce-stroke" data-item-order="0" transform="translate(638, 326)"></g><g id="g-root-tx_pepinter_1hcld7uz12sqr-stroke" data-item-order="0" transform="translate(638, 98)"></g><g id="g-root-ic_rota_vbqlgqz18fsz-stroke" data-item-order="0" transform="translate(470, 128)"><g id="ic_rota_vbqlgqz18fsz-stroke" fill="none" stroke-linecap="round" stroke-linejoin="round" stroke-miterlimit="4" stroke="#1ac3fb" stroke-width="2" stroke-opacity="1"><g><path d="M 42.760799 45.349602C 42.760799 46.544399 41.7654 47.539799 40.570602 47.539799L 31.4114 47.539799C 30.2166 47.539799 29.22106 46.544399 29.22106 45.349602L 29.22106 39.575199C 29.22106 38.3806 30.2166 37.385002 31.4114 37.385002L 40.570602 37.385002C 41.7654 37.385002 42.760799 38.3806 42.760799 39.575199L 42.760799 45.349602ZM 23.247559 34.000198C 23.247559 31.4116 25.238701 29.42042 27.8272 29.42042C 30.4156 29.42042 32.406799 31.4116 32.406799 34.000198L 32.406799 37.385002M 44.553001 20.65918C 49.929199 24.04414 53.513199 30.216801 53.513199 36.986801C 53.513199 47.738998 44.752201 56.5 34 56.5C 23.24778 56.5 14.4867 47.738998 14.4867 36.986801C 14.4867 26.23456 23.24778 17.473381 34 17.473381L 38.3806 17.473381M 10 10M 32.606003 11.5L 38.579597 17.473461L 32.606003 23.44692"></path></g></g></g><g id="g-root-tx_pdpwrite_qp1ve2z12qkp-stroke" data-item-order="0" transform="translate(38, 386)"></g><g id="g-root-ic_chec_5982yz15loq-stroke" data-item-order="0" transform="translate(314, 416)"><g id="ic_chec_5982yz15loq-stroke" fill="none" stroke-linecap="round" stroke-linejoin="round" stroke-miterlimit="4" stroke="#ffe711" stroke-width="2" stroke-opacity="1"><g><path d="M 19 27L 38 27M 19 33L 31 33M 19 21L 33 21M 19 39L 27 39M 19 45L 27 45M 31 57L 13 57C 11.895431 57 11 56.104568 11 55L 11 13C 11 11.895431 11.895431 11 13 11L 39.585999 11C 40.11639 11.000113 40.625015 11.210901 41 11.586L 48.414001 19C 48.789101 19.374985 48.999886 19.88361 49 20.414L 49 27M 33 45C 33 51.627419 38.372581 57 45 57C 51.627419 57 57 51.627419 57 45C 57 38.372581 51.627419 33 45 33C 38.372581 33 33 38.372581 33 45ZM 50.348 41.512001L 44.537998 49.257999C 44.276516 49.605347 43.877514 49.822548 43.443855 49.853607C 43.010197 49.884663 42.584312 49.72654 42.276001 49.419998L 39.276001 46.419998"></path></g></g></g><g id="g-root-ic_spar_13zvwoaz1l0y4-stroke" data-item-order="0" transform="translate(470, 416)"><g id="ic_spar_13zvwoaz1l0y4-stroke" fill="none" stroke-linecap="round" stroke-linejoin="round" stroke-miterlimit="4" stroke="#f79438" stroke-width="2" stroke-opacity="1"><g><path d="M 50.5 35.099602L 52.900002 35.099602C 54.900002 35.099602 56.5 36.6996 56.5 38.6996C 56.5 40.6996 54.900002 42.299599 52.900002 42.299599L 50.5 42.299599M 50.5 49.499599L 51.099998 49.499599C 53.099998 49.499599 54.700001 47.899601 54.700001 45.899601C 54.700001 43.899601 53.099998 42.299599 51.099998 42.299599L 50.5 42.299599M 50.499802 35.099602L 51.899799 35.099602C 53.899799 35.099602 55.499802 33.499599 55.499802 31.499599C 55.499802 29.49962 53.899799 27.899639 51.899799 27.899639L 39.899799 27.899639L 40.0998 27.49962C 42.0998 24.099621 43.299801 20.09964 43.499802 15.89964C 43.699799 14.49964 43.0998 13.29962 41.899799 12.49962C 41.0998 11.899612 40.299801 11.899588 39.299801 12.09958C 38.299801 12.29958 37.499802 12.89962 37.0998 13.69962C 33.020798 20.837639 30.305401 29.84008 23.299801 34.899597L 11.5 34.899597M 50.5 49.499599L 49.099998 49.499599C 51.299999 49.499599 52.900002 51.299599 52.5 53.499599C 52.299999 55.299599 50.700001 56.499599 48.900002 56.499599L 35.900002 56.499599C 35.099998 56.499599 34.099998 56.499599 33.299999 56.299599L 22.700001 54.499599L 11.5 54.499599M 14.5 20.519661L 14.5 26.519661M 11.5 23.519661L 17.5 23.519661M 25.3999 11.5L 25.3999 17.5M 22.3999 14.5L 28.3999 14.5M 53.5 15.51966L 53.5 21.519661M 50.5 18.519661L 56.5 18.519661"></path></g></g></g><g id="g-root-tx_pdpretur_1cynacqz12rrj-stroke" data-item-order="0" transform="translate(638, 398)"></g><g id="g-root-ic_app_1upxauiz1cmq7-stroke" data-item-order="0" transform="translate(314, 128)"><g id="ic_app_1upxauiz1cmq7-stroke" fill="none" stroke-linecap="round" stroke-linejoin="round" stroke-miterlimit="4" stroke="#4f91fc" stroke-width="2" stroke-opacity="1"><g><path d="M 40.5 49L 11 49M 25.75 52.5C 26.026142 52.5 26.25 52.723858 26.25 53L 26.25 53C 26.25 53.276142 26.026142 53.5 25.75 53.5L 25.75 53.5C 25.473858 53.5 25.25 53.276142 25.25 53L 25.25 53C 25.25 52.723858 25.473858 52.5 25.75 52.5M 25.75 52.5L 25.75 52.5M 15 11L 36.5 11C 36.5 11 40.5 11 40.5 15L 40.5 53C 40.5 53 40.5 57 36.5 57L 15 57C 15 57 11 57 11 53L 11 15C 11 15 11 11 15 11M 45.054001 33.048C 46.140015 31.898626 46.140015 30.101376 45.054001 28.952002M 49 37.143997C 52.26004 33.696674 52.26004 28.303328 49.000004 24.856001M 49 37.143997C 52.26004 33.696674 52.26004 28.303328 49.000004 24.856001M 52.924 41.239998C 58.358067 35.49472 58.358067 26.50528 52.924 20.76M 52.924 41.239998C 58.358067 35.49472 58.358067 26.50528 52.924 20.76M 18 20L 22 20C 22 20 24 20 24 22L 24 26C 24 26 24 28 22 28L 18 28C 18 28 16 28 16 26L 16 22C 16 22 16 20 18 20M 30 20L 34 20C 34 20 36 20 36 22L 36 26C 36 26 36 28 34 28L 30 28C 30 28 28 28 28 26L 28 22C 28 22 28 20 30 20M 18 32L 22 32C 22 32 24 32 24 34L 24 38C 24 38 24 40 22 40L 18 40C 18 40 16 40 16 38L 16 34C 16 34 16 32 18 32M 30 32L 34 32C 34 32 36 32 36 34L 36 38C 36 38 36 40 34 40L 30 40C 30 40 28 40 28 38L 28 34C 28 34 28 32 30 32"></path></g></g></g><g id="g-root-tx_usermake_zitgdmz12qrp-stroke" data-item-order="0" transform="translate(50, 98)"></g><g id="g-root-tx_audittra_2rbqiz12qkq-stroke" data-item-order="0" transform="translate(62, 470)"></g><g id="g-root-tx_authoriz_v7zqy2z12qyw-stroke" data-item-order="0" transform="translate(638, 458)"></g><g id="g-root-ic_add_vcd2juz1mfph-stroke" data-item-order="0" transform="translate(470, 560)"><g id="ic_add_vcd2juz1mfph-stroke" fill="none" stroke-linecap="round" stroke-linejoin="round" stroke-miterlimit="4" stroke="#cb68f9" stroke-width="2" stroke-opacity="1"><g><path d="M 33 45C 33 51.627419 38.372581 57 45 57C 51.627419 57 57 51.627419 57 45C 57 38.372581 51.627419 33 45 33C 38.372581 33 33 38.372581 33 45ZM 45 39L 45 51M 51 45L 39 45M 19 27L 38 27M 19 33L 31 33M 19 21L 33 21M 19 39L 27 39M 19 45L 27 45M 31 57L 13 57C 11.895431 57 11 56.104568 11 55L 11 13C 11 11.895431 11.895431 11 13 11L 39.585999 11C 40.11639 11.000113 40.625015 11.210901 41 11.586L 48.414001 19C 48.789101 19.374985 48.999886 19.88361 49 20.414L 49 27"></path></g></g></g><g id="g-root-tx_pepenfor_dgpqgaz12tc1-stroke" data-item-order="0" transform="translate(638, 530)"></g><g id="g-root-tx_requesta_1qf3i96z1ntac-stroke" data-item-order="0" transform="translate(140, 38)"></g><g id="g-root-tx_pdplooks_1lqjg2yz12sy7-stroke" data-item-order="0" transform="translate(50, 230)"></g></g></g><path id="wqvx6nex3fgni" d="M65.283 12.757a.35.35 0 0 0 .584.157l5.203-5.141-6.183 3.523.396 1.461zm-2.216-11.7a.35.35 0 0 0-.522.305v3.111l3.276-1.868-2.754-1.548zm3.728 2.105l-4.25 2.421v2.445l6.391-3.644-2.141-1.222zm4.708 3.303a.35.35 0 0 0 0-.609l-1.592-.9-7.365 4.199v1.782a.35.35 0 0 0 .523.305l8.435-4.777z M44.542 2.513c0-.433.355-.783.792-.783s.792.35.792.783-.355.783-.792.783-.792-.35-.792-.783zm59.171 0c0-.433.355-.783.792-.783s.792.35.792.783-.355.783-.792.783-.792-.35-.792-.783zm-85.951 7.636h-1.27v-.487c-.276.201-.864.609-1.881.609-1.202 0-2.274-.794-2.137-2.078.118-1.106 1.153-1.584 1.848-1.727l2.17-.345c0-.539-.29-.956-1.064-1.006s-1.21.305-1.571 1.017l-1.124-.605c1.218-2.631 5.029-1.764 5.029.414v4.207zm-1.27-2.86c.006.396-.062 1.112-.819 1.59-.587.37-1.841.299-1.903-.395-.049-.555.461-.791.906-.898l1.816-.297zm72.662 2.86h-1.27v-.487c-.276.201-.864.609-1.881.609-1.202 0-2.274-.794-2.137-2.078.118-1.106 1.153-1.584 1.848-1.727l2.17-.345c0-.539-.29-.956-1.064-1.006s-1.21.305-1.571 1.017l-1.124-.605c1.218-2.631 5.029-1.764 5.029.414v4.207zm-1.27-2.86c.006.396-.062 1.112-.82 1.59-.587.37-1.841.299-1.903-.395-.049-.555.461-.791.906-.898l1.816-.297zM99.096 10.149H97.85v-8.45h1.246v4.895l2.68-2.559h1.738l-2.633 2.535 2.715 3.578h-1.556l-2.077-2.707-.867.844v1.863zm6.053-6.114h-1.255v6.113h1.255V4.035zm-59.2 0h-1.255v6.113h1.255V4.035zm5.584 6.113V1.697h1.255v2.695c.361-.346 1-.485 1.47-.485 1.452 0 2.477 1.082 2.457 2.448v3.792h-1.27v-3.68c0-.408-.214-1.339-1.315-1.339-.968 0-1.342.756-1.342 1.339v3.681h-1.255zm-4.76-4.894V4.039h.621a.45.45 0 0 0 .45-.45v-.855h1.251v1.305h1.309v1.215h-1.309v3.109c0 .293.105.664.648.664.365 0 .531-.035.736-.07v1.137s-.361.113-.857.113c-1.398 0-1.777-1.051-1.777-1.788V5.254h-1.071zM36.528 4.039h-1.394l2.191 6.106h1.125l1.234-3.918 1.238 3.918h1.129l2.188-6.106h-1.383l-1.359 3.93-1.256-3.93h-1.124l-1.242 3.957-1.348-3.957zM26.212 7.141c-.02 1.566 1.187 3.129 3.223 3.129 1.566 0 2.383-.918 2.734-1.719L31.172 8c-.315.399-.801 1.094-1.738 1.094-1.145 0-1.825-.781-1.891-1.52h4.625c.074-.284.148-.995-.03-1.559-.336-1.064-1.221-2.102-2.839-2.102s-3.088 1.152-3.088 3.227zm1.363-.75h3.348c-.055-.43-.566-1.301-1.623-1.301a1.79 1.79 0 0 0-1.725 1.301zm-8.758.75c.038 1.758 1.277 3.133 3.145 3.133 1.074 0 1.723-.477 1.961-.672v.547h1.242V1.703h-1.258v2.888c-.414-.36-1.062-.68-1.93-.68-1.91 0-3.198 1.473-3.16 3.23zm1.309-.08c0 1.119.723 1.978 1.836 1.978a1.88 1.88 0 0 0 1.94-1.904c0-1.371-1.011-1.99-1.972-1.99s-1.805.798-1.805 1.916zm76.683-.028C96.771 5.275 95.532 3.9 93.664 3.9c-1.074 0-1.723.477-1.961.672v-.547h-1.242v8.22h1.258V9.583c.414.36 1.063.68 1.93.68 1.91 0 3.198-1.473 3.16-3.23zm-1.309.08c0-1.119-.723-1.978-1.836-1.978a1.88 1.88 0 0 0-1.94 1.904c0 1.371 1.011 1.99 1.972 1.99S95.5 8.231 95.5 7.113zM106.441 10.173V4.036h1.254v.382c.361-.346 1-.485 1.47-.485 1.452 0 2.477 1.082 2.457 2.448v3.792h-1.27V6.492c0-.408-.214-1.339-1.315-1.339-.969 0-1.342.756-1.342 1.339v3.681h-1.254zm-30.383-.021V1.824h1.084l4.215 5.777V1.824h1.32v8.328h-1.094l-4.207-5.796v5.796h-1.319zM5.24 10.149H4V2.377h1.014l2.664 3.597 2.654-3.592h1.03v7.766h-1.256V4.762L7.678 8.068 5.24 4.742v5.407z" transform="translate(20, 662)" fill="#ababab88" stroke="none"></path></svg>