<?xml version="1.0" encoding="utf-8" standalone="yes"?>
<!DOCTYPE svg PUBLIC "-//W3C//DTD SVG 1.1//EN" "http://www.w3.org/Graphics/SVG/1.1/DTD/svg11.dtd">
<svg style="fill:none;stroke:none;fill-rule:evenodd;clip-rule:evenodd;stroke-linecap:round;stroke-linejoin:round;stroke-miterlimit:1.5;" version="1.1" xmlns="http://www.w3.org/2000/svg" xmlns:xlink="http://www.w3.org/1999/xlink" width="1057" height="845" viewBox="0 0 1057 845"><style class="text-font-style fontImports" data-font-family="Roboto">@import url(https://fonts.googleapis.com/css2?family=Roboto:wght@400;700&amp;amp;display=block);</style><g id="items" style="isolation: isolate"><g id="blend" style="mix-blend-mode: normal"><g id="g-root-cp_0_g-0_1ha3gwpzbf0n9-fill" data-item-order="-667143" transform="translate(70.59298706054688, 180.2750244140625)"></g><g id="g-root-cp_3_g-3_18eggntzbf1fy-fill" data-item-order="-667125" transform="translate(511.22802734375, 147)"></g><g id="g-root-cp_2_g-2_13z9fmhzbez2f-fill" data-item-order="-667115" transform="translate(368.6950378417969, 282.136962890625)"></g><g id="g-root-cp_2_g-2_mcc4jvyhlu6c-fill" data-item-order="-667109" transform="translate(227.50701904296875, 360.125)"></g><g id="g-root-cp_1_g-1_13z9fmhzbez2g-fill" data-item-order="-667103" transform="translate(64, 438.114990234375)"></g><g id="g-root-tx_policyen_zjfxi1zbezup-fill" data-item-order="0" transform="translate(248, 38)"><g id="tx_policyen_zjfxi1zbezup-fill-merged" stroke="none" fill="#f4f4f4" fill-opacity="1"><g><text style="font: bold 25px &quot;Roboto&quot;, sans-serif; white-space: pre;" transform="translate(268, 28)" font-weight="bold" font-size="25px" font-family="'Roboto', sans-serif"><tspan x="-250.76" y="15" dominant-baseline="ideographic">Authorization Challenges Addressed by MPE</tspan></text></g></g></g><g id="g-root-ic_mult_1hbyw61zbezno-fill" data-item-order="0" transform="translate(746, 290)"></g><g id="g-root-tx_auditabi_dcyvyxzbez2i-fill" data-item-order="0" transform="translate(746, 350)"><g id="tx_auditabi_dcyvyxzbez2i-fill-merged" stroke="none" fill="#a6da37" fill-opacity="1"><g><text style="font: 20px &quot;Roboto&quot;, sans-serif; white-space: pre;" transform="translate(10, 22)" font-size="20px" font-family="'Roboto', sans-serif"><tspan x="2" y="12" dominant-baseline="ideographic">Auditability</tspan></text></g></g></g><g id="g-root-ic_eye_18lbom1zbge17-fill" data-item-order="0" transform="translate(602, 380)"></g><g id="g-root-tx_maintain_1umsxg9zbf18j-fill" data-item-order="0" transform="translate(746, 386)"><g id="tx_maintain_1umsxg9zbf18j-fill-merged" stroke="none" fill="#f4f4f4" fill-opacity="1"><g><text style="font: 15px &quot;Roboto&quot;, sans-serif; white-space: pre;" transform="translate(10, 28)" font-size="15px" font-family="'Roboto', sans-serif"><tspan x="2" y="0" dominant-baseline="ideographic">Maintain an auditable decision </tspan><tspan x="2" y="18" dominant-baseline="ideographic">history</tspan></text></g></g></g><g id="g-root-tx_observab_18jg9cpzbgf0v-fill" data-item-order="0" transform="translate(602, 440)"><g id="tx_observab_18jg9cpzbgf0v-fill-merged" stroke="none" fill="#43dd93" fill-opacity="1"><g><text style="font: 20px &quot;Roboto&quot;, sans-serif; white-space: pre;" transform="translate(10, 22)" font-size="20px" font-family="'Roboto', sans-serif"><tspan x="2" y="12" dominant-baseline="ideographic">Observability</tspan></text></g></g></g><g id="g-root-ic_side_1hgc4kbvpn2mk-fill" data-item-order="0" transform="translate(458, 470)"></g><g id="g-root-tx_ensuring_qsspy1zbge88-fill" data-item-order="0" transform="translate(602, 476)"><g id="tx_ensuring_qsspy1zbge88-fill-merged" stroke="none" fill="#f4f4f4" fill-opacity="1"><g><text style="font: 15px &quot;Roboto&quot;, sans-serif; white-space: pre;" transform="translate(10, 28)" font-size="15px" font-family="'Roboto', sans-serif"><tspan x="2" y="0" dominant-baseline="ideographic">Ensure every decision is </tspan><tspan x="2" y="18" dominant-baseline="ideographic">observable</tspan></text></g></g></g><g id="g-root-tx_new_1hfp4i3yhlvk5-fill" data-item-order="0" transform="translate(458, 530)"><g id="tx_new_1hfp4i3yhlvk5-fill-merged" stroke="none" fill="#1ac3fb" fill-opacity="1"><g><text style="font: 20px &quot;Roboto&quot;, sans-serif; white-space: pre;" transform="translate(10, 22)" font-size="20px" font-family="'Roboto', sans-serif"><tspan x="2" y="12" dominant-baseline="ideographic">Expressability</tspan></text></g></g></g><g id="g-root-ic_3_1upatspzbj9qn-fill" data-item-order="0" transform="translate(314, 560)"></g><g id="g-root-tx_new_144v37vyhltza-fill" data-item-order="0" transform="translate(458, 566)"><g id="tx_new_144v37vyhltza-fill-merged" stroke="none" fill="#f4f4f4" fill-opacity="1"><g><text style="font: 15px &quot;Roboto&quot;, sans-serif; white-space: pre;" transform="translate(10, 28)" font-size="15px" font-family="'Roboto', sans-serif"><tspan x="2" y="0" dominant-baseline="ideographic">Customize the access control </tspan><tspan x="2" y="18" dominant-baseline="ideographic">model to your needs</tspan></text></g></g></g><g id="g-root-tx_policyma_zlxtuhzbj8ct-fill" data-item-order="0" transform="translate(314, 620)"><g id="tx_policyma_zlxtuhzbj8ct-fill-merged" stroke="none" fill="#4f91fc" fill-opacity="1"><g><text style="font: 20px &quot;Roboto&quot;, sans-serif; white-space: pre;" transform="translate(10, 22)" font-size="20px" font-family="'Roboto', sans-serif"><tspan x="2" y="12" dominant-baseline="ideographic">Manageability</tspan></text></g></g></g><g id="g-root-tx_updating_hvaaftzbj7k6-fill" data-item-order="0" transform="translate(314, 656)"><g id="tx_updating_hvaaftzbj7k6-fill-merged" stroke="none" fill="#f4f4f4" fill-opacity="1"><g><text style="font: 15px &quot;Roboto&quot;, sans-serif; white-space: pre;" transform="translate(10, 28)" font-size="15px" font-family="'Roboto', sans-serif"><tspan x="2" y="0" dominant-baseline="ideographic">Update policies without code </tspan><tspan x="2" y="18" dominant-baseline="ideographic">changes</tspan></text></g></g></g><g id="g-root-cp_0_g-0_1ha3gwpzbf0n9-stroke" data-item-order="-667143" transform="translate(70.59298706054688, 180.2750244140625)"><g id="cp_0_g-0_1ha3gwpzbf0n9-stroke" fill="none" stroke-linecap="round" stroke-linejoin="round" stroke-miterlimit="4" stroke="#f4f4f4" stroke-width="2" stroke-opacity="1"><g><path d="M 10 258.101222L 10 302.864422L 67.9674 335.758422M 10 258.101222L 37.5653 243.982422L 92.1711 274.721222M 10 258.101222L 71.329 292.533722M 213.0146 416.109222L 240.5799 401.990422L 240.5799 356.272322M 213.0146 416.109222L 213.0146 370.391122M 213.0146 416.109222L 143.3918 377.296322M 240.5799 356.272322L 213.0146 370.391122M 240.5799 356.272322L 168.2678 316.370722M 213.0146 370.391122L 146.8772 333.882022M 151.188232 180.956691L 151.188232 225.719891L 209.467532 257.724591M 151.188232 180.956691L 178.753532 166.837891L 233.671132 196.687391M 151.188232 180.956691L 212.829132 214.499991M 354.202832 338.964691L 381.768132 324.845891L 381.768132 279.127791M 354.202832 338.964691L 354.202832 293.246591M 354.202832 338.964691L 284.580032 300.151791M 381.768132 279.127791L 354.202832 293.246591M 381.768132 279.127791L 308.907132 238.724591M 354.202832 293.246591L 288.407132 254.724591M 292.250244 102.218409L 292.250244 146.981609L 350.407144 179.392309M 292.250244 102.218409L 319.815544 88.099609L 374.610744 118.355109M 292.250244 102.218409L 353.768744 136.167609M 494.341844 260.473709L 521.907144 246.354909L 521.907144 200.636809M 494.341844 260.473709L 494.341844 214.755709M 494.341844 260.473709L 425.642044 221.413509M 521.907144 200.636809L 494.341844 214.755709M 521.907144 200.636809L 450.518044 160.487909M 494.341844 214.755709L 429.127444 177.999209M 436.253662 24.1188L 436.253662 68.882L 494.406962 101.6994M 436.253662 24.1188L 463.818962 10L 518.610662 40.6622M 436.253662 24.1188L 497.768562 58.4747M 637.841662 182.2411L 665.406962 168.1223L 665.406962 122.4042M 637.841662 182.2411L 637.841662 136.523M 637.841662 182.2411L 569.645462 143.3139M 665.406962 122.4042L 637.841662 136.523M 665.406962 122.4042L 594.906962 82.2246M 637.841662 136.523L 573.130862 99.8996"></path></g></g></g><g id="g-root-cp_3_g-3_18eggntzbf1fy-stroke" data-item-order="-667125" transform="translate(511.22802734375, 147)"><g id="cp_3_g-3_18eggntzbf1fy-stroke" fill="none" stroke-linecap="round" stroke-linejoin="round" stroke-miterlimit="4" stroke="#a6da37" stroke-width="2" stroke-opacity="1"><g><path d="M 153.877197 95.3852L 250.019597 42.9439L 221.109597 24.7911L 354.902097 10L 344.817297 104.1254L 320.613597 87.9896L 211.024797 147.8265L 176.736197 128.3291"></path></g></g><g id="cp_3_g-3_18eggntzbf1fy-stroke" fill="none" stroke-linecap="round" stroke-linejoin="round" stroke-miterlimit="4" stroke="#a6da37" stroke-width="2" stroke-opacity="1"><g><path d="M 172.0301 125.820831C 172.0301 125.820831 172.0301 122.190331 172.0301 115.736031C 172.0301 109.960731 167.3239 109.012731 163.9623 110.357431C 163.9623 110.357431 160.4084 111.983331 153.8774 115.302631M 172.0301 125.820831L 177.4087 128.746731C 177.4 124.040431 177.4087 113.721031 177.4087 113.721031C 177.4087 108.343031 172.7025 104.306531 167.9962 102.289531L 106.1424 70.691431C 97.5366 65.850631 93.3682 66.790131 88.6619 68.674431C 83.9557 70.690331 71.8538 76.742331 71.8538 76.742331C 53.7011 85.481431 53.7011 104.307631 53.7011 104.307631L 53.7011 130.528231C 54.2389 146.664031 46.7537 153.835531 42.9439 155.404231L 10 173.211131M 172.0301 125.820831L 153.8774 115.302631M 153.8774 115.302631C 152.0815 116.215231 150.0606 117.256031 147.8265 118.426131C 130.346 127.581931 128.5532 142.181631 129.0014 148.680731C 129.0014 154.731631 129.0014 169.388331 129.0014 179.607631C 129.0014 189.826931 116.2272 198.431631 110.1763 201.793231L 66.4752 225.630131L 34.2037 207.660331"></path></g></g></g><g id="g-root-cp_2_g-2_13z9fmhzbez2f-stroke" data-item-order="-667115" transform="translate(368.6950378417969, 282.136962890625)"><g id="cp_2_g-2_13z9fmhzbez2f-stroke" fill="none" stroke-linecap="round" stroke-linejoin="round" stroke-miterlimit="4" stroke="#43dd93" stroke-width="2" stroke-opacity="1"><g><path d="M 170.685469 69.1645C 170.685469 69.1645 170.685469 65.0458 170.685469 58.5915C 170.685469 52.8162 165.979169 51.8682 162.617569 53.2129C 162.617569 53.2129 158.391469 55.2723 151.860369 58.5915M 170.685469 69.1645L 176.736369 72.5262C 176.727669 67.8199 176.736369 56.3904 176.736369 56.3904C 176.736369 51.0123 171.357769 47.162 166.651569 45.145L 104.797669 13.5469C 96.191969 8.7061 92.023569 9.6456 87.317269 11.5299C 82.610969 13.5458 70.509169 19.5978 70.509169 19.5978C 52.356369 28.3369 52.356369 47.1631 52.356369 47.1631L 52.356369 73.3837C 52.894269 89.5195 45.409069 96.691 41.599169 98.2597L 9.999969 115.3398M 170.685469 69.1645L 151.860369 58.5915M 151.860369 58.5915C 150.064569 59.5042 148.715869 60.1115 146.481769 61.2816C 129.001369 70.4374 127.208469 85.0371 127.656669 91.5362C 127.656669 97.5871 127.656669 112.2438 127.656669 122.4631C 127.656669 132.6824 114.882569 141.2871 108.831669 144.6487C 92.240369 153.6985 82.735369 158.883 66.538469 167.7177L 34.699169 150.1782"></path></g></g></g><g id="g-root-cp_2_g-2_mcc4jvyhlu6c-stroke" data-item-order="-667109" transform="translate(227.50701904296875, 360.125)"><g id="cp_2_g-2_mcc4jvyhlu6c-stroke" fill="none" stroke-linecap="round" stroke-linejoin="round" stroke-miterlimit="4" stroke="#1ac3fb" stroke-width="2" stroke-opacity="1"><g><path d="M 10 115.3398L 41.5992 98.2597C 45.4091 96.691 52.8943 89.5195 52.3564 73.3837L 52.3564 47.1631C 52.3564 47.1631 52.3564 28.3369 70.5092 19.5978C 70.5092 19.5978 82.611 13.5458 87.3173 11.5299C 92.0235 9.6456 96.192 8.7061 104.7977 13.5469L 166.6515 45.145C 171.3578 47.162 176.0641 51.1985 176.0641 56.5765C 176.0641 56.5765 176.059 66.8464 176.0641 72.295L 170.6855 69.3603M 170.6855 69.3603C 170.6855 67.1789 170.6855 63.0156 170.6855 58.5915C 170.6855 52.8162 165.9792 51.8682 162.6176 53.2129C 162.6176 53.2129 157.4644 55.8707 151.6239 58.846M 170.6855 69.3603L 151.6239 58.846M 151.6239 58.846C 151.0358 59.1456 150.4408 59.4484 149.8434 59.752C 149.8434 59.752 147.1541 60.9757 146.4818 61.2816C 128.5208 69.4544 127.2085 85.0371 127.6567 91.5362C 127.6567 97.5871 127.6567 112.2438 127.6567 122.4631C 127.6567 132.6825 114.8826 141.2871 108.8317 144.6487C 92.553 153.528 83.6206 158.4026 67.3419 167.2819L 34.8895 149.5771"></path></g></g></g><g id="g-root-cp_1_g-1_13z9fmhzbez2g-stroke" data-item-order="-667103" transform="translate(64, 438.114990234375)"><g id="cp_1_g-1_13z9fmhzbez2g-stroke" fill="none" stroke-linecap="round" stroke-linejoin="round" stroke-miterlimit="4" stroke="#4f91fc" stroke-width="2" stroke-opacity="1"><g><path d="M 193.0384 68.5475C 193.0384 68.5475 193.0039 65.0458 193.0039 58.5915C 193.0039 52.8162 188.2976 51.8682 184.936 53.2129C 184.936 53.2129 181.3822 54.8388 174.8511 58.158M 193.0384 68.5475L 198.417 71.4733C 198.4083 66.767 198.3825 56.5765 198.3825 56.5765C 198.3825 51.1984 193.6762 47.162 188.9699 45.145L 127.1161 13.5469C 118.5104 8.7061 114.3419 9.6456 109.6357 11.5299C 104.9294 13.5458 92.8276 19.5978 92.8276 19.5978C 74.6748 28.3369 74.6748 47.1631 74.6748 47.1631L 74.6748 73.3837C 75.2127 89.5195 67.7275 96.691 63.9176 98.2597L 27.1313 118.1435L 10 127.8848L 48.9999 150.3848L 83.9999 170.3848C 102.379 160.3598 112.7709 154.6737 131.15 144.6487C 137.201 141.2871 149.9751 132.6824 149.9751 122.4631C 149.9751 112.2438 149.9751 97.5871 149.9751 91.5362C 149.5269 85.0371 151.3198 70.4374 168.8002 61.2816C 171.0343 60.1115 173.0553 59.0707 174.8511 58.158M 193.0384 68.5475L 174.8511 58.158"></path></g></g></g><g id="g-root-tx_policyen_zjfxi1zbezup-stroke" data-item-order="0" transform="translate(248, 38)"></g><g id="g-root-ic_mult_1hbyw61zbezno-stroke" data-item-order="0" transform="translate(746, 290)"><g id="ic_mult_1hbyw61zbezno-stroke" fill="none" stroke-linecap="round" stroke-linejoin="round" stroke-miterlimit="4" stroke="#a6da37" stroke-width="2" stroke-opacity="1"><g><path d="M 21 44L 17 44C 15.895431 44 15 43.104568 15 42L 15 14C 15 12.895431 15.895431 12 17 12L 39 12C 40.104568 12 41 12.895431 41 14L 41 18M 27 50L 23 50C 21.895432 50 21 49.104568 21 48L 21 20C 21 18.895432 21.895432 18 23 18L 45 18C 46.104568 18 47 18.895432 47 20L 47 24M 29 24L 51 24C 51 24 53 24 53 26L 53 54C 53 54 53 56 51 56L 29 56C 29 56 27 56 27 54L 27 26C 27 26 27 24 29 24M 31 32L 31.732 33.464001C 31.870932 33.743011 32.135712 33.938057 32.443375 33.98801C 32.751034 34.037964 33.063927 33.936722 33.283997 33.716L 37 30M 41 32L 49 32M 31 42L 31.732 43.464001C 31.870932 43.743011 32.135712 43.938053 32.443375 43.98801C 32.751034 44.037964 33.063927 43.936718 33.283997 43.716L 37 40M 41 42L 49 42M 41 48L 45 48"></path></g></g></g><g id="g-root-tx_auditabi_dcyvyxzbez2i-stroke" data-item-order="0" transform="translate(746, 350)"></g><g id="g-root-ic_eye_18lbom1zbge17-stroke" data-item-order="0" transform="translate(602, 380)"><g id="ic_eye_18lbom1zbge17-stroke" fill="none" stroke-linecap="round" stroke-linejoin="round" stroke-miterlimit="4" stroke="#43dd93" stroke-width="2" stroke-opacity="1"><g><path d="M 33.999199 11.670486C 27.862261 11.568482 21.51524 15.855659 17.52492 20.247879C 17.106079 20.712879 16.8743 21.31654 16.8743 21.94236C 16.8743 22.56818 17.106079 23.171841 17.52492 23.63682C 21.426941 27.93618 27.757219 32.323799 33.999199 32.220398C 40.241199 32.323799 46.5714 27.93618 50.478001 23.63682C 50.896801 23.171841 51.128601 22.56818 51.128601 21.94236C 51.128601 21.31654 50.896801 20.712879 50.478001 20.247879C 46.4832 15.855659 40.1362 11.568482 33.999199 11.670486ZM 38.791401 21.946419C 38.791401 22.8941 38.510399 23.82052 37.983803 24.6085C 37.457199 25.396481 36.709 26.010639 35.833401 26.373301C 34.957802 26.73596 33.9944 26.83086 33.0648 26.645981C 32.135399 26.461081 31.281601 26.004721 30.611601 25.3346C 29.94138 24.66448 29.48502 23.810699 29.30014 22.88122C 29.115259 21.95174 29.21014 20.9883 29.572821 20.11274C 29.93548 19.237179 30.549601 18.48884 31.337601 17.96232C 32.125603 17.435801 33.052002 17.154779 33.999599 17.154779C 35.270599 17.154779 36.489201 17.65962 37.387802 18.55822C 38.2864 19.45682 38.791401 20.6756 38.791401 21.946419ZM 42.409 50.937599C 46.424 50.1404 49.855801 48.7906 52.270401 47.058601C 54.684799 45.326599 55.973598 43.290401 55.973598 41.207397C 55.973598 38.414001 53.658401 35.735199 49.537601 33.760201M 18.46236 33.760201C 16.43174 34.733398 14.808741 35.892998 13.6991 37.177002C 12.03598 39.101402 11.60083 41.219002 12.44868 43.262001C 13.29654 45.305 15.38932 47.181599 18.462379 48.654598C 21.535419 50.127399 25.450741 51.1306 29.7132 51.5368C 31.1318 51.672199 32.5676 51.739201 34 51.739201L 35.9324 51.739201M 10 10M 31.704 47.147202L 36.295998 51.739201L 31.704 56.3312"></path></g></g></g><g id="g-root-tx_maintain_1umsxg9zbf18j-stroke" data-item-order="0" transform="translate(746, 386)"></g><g id="g-root-tx_observab_18jg9cpzbgf0v-stroke" data-item-order="0" transform="translate(602, 440)"></g><g id="g-root-ic_side_1hgc4kbvpn2mk-stroke" data-item-order="0" transform="translate(458, 470)"><g id="ic_side_1hgc4kbvpn2mk-stroke" fill="none" stroke-linecap="round" stroke-linejoin="round" stroke-miterlimit="4" stroke="#1fa9d7" stroke-width="2" stroke-opacity="1"><g><path d="M 16.360479 52.302799L 16.360479 42.992401C 14.30704 41.09 12.87496 38.612801 12.25126 35.883801C 11.62754 33.154999 11.84119 30.3016 12.8643 27.69606C 13.88742 25.09054 15.67244 22.85408 17.986259 21.27874C 20.300079 19.7034 23.035179 18.8624 25.834381 18.86554C 28.27952 18.86554 30.282801 19.330441 31.9646 20.166061C 37.948601 23.13954 39.859802 30.8074 43.110199 38.928001L 38.652 38.928001L 38.652 43.3862C 38.652 44.5686 38.182198 45.702599 37.346199 46.538601C 36.510002 47.374802 35.376198 47.844601 34.1936 47.844601L 31.9646 47.844601L 31.9646 52.302799M 32.426201 31.752199C 32.1632 31.752199 31.950001 31.539 31.950001 31.275999C 31.950001 31.013201 32.1632 30.799999 32.426201 30.799999M 32.426201 31.751801C 32.688999 31.751801 32.902199 31.538601 32.902199 31.2756C 32.902199 31.0126 32.688999 30.7994 32.426201 30.7994M 10 10M 45.530998 22.190041L 48.160198 20.560459M 10 10M 45.530998 43.0742L 48.160198 44.7038M 10 10M 53.469601 17.326759L 56.098598 15.69718M 10 10M 53.469601 47.884399L 56.098598 49.514"></path></g></g></g><g id="g-root-tx_ensuring_qsspy1zbge88-stroke" data-item-order="0" transform="translate(602, 476)"></g><g id="g-root-tx_new_1hfp4i3yhlvk5-stroke" data-item-order="0" transform="translate(458, 530)"></g><g id="g-root-ic_3_1upatspzbj9qn-stroke" data-item-order="0" transform="translate(314, 560)"><g id="ic_3_1upatspzbj9qn-stroke" fill="none" stroke-linecap="round" stroke-linejoin="round" stroke-miterlimit="4" stroke="#4f91fc" stroke-width="2" stroke-opacity="1"><g><path d="M 56.124001 37.112C 56.627377 37.04911 57.003914 36.619274 57 36.112L 57 31.884001C 57.003914 31.376726 56.627377 30.946888 56.124001 30.884001L 51.622002 30.322001C 51.163094 28.117002 50.291088 26.018759 49.051998 24.138L 51.841999 20.538C 52.151066 20.14016 52.115929 19.57453 51.759998 19.218L 48.759998 16.218C 48.403469 15.862071 47.837841 15.826933 47.439999 16.136L 43.855999 18.950001C 41.974915 17.711102 39.876839 16.838486 37.671997 16.378L 37.110001 11.878C 37.047112 11.374624 36.617275 10.998087 36.110001 11.002L 31.882 11.002C 31.374725 10.998087 30.944889 11.374624 30.882 11.878L 30.32 16.378C 28.117947 16.839443 26.022665 17.712025 24.144001 18.950001L 20.554001 16.16C 20.15616 15.850933 19.59053 15.886071 19.234001 16.242001L 16.234001 19.242001C 15.878071 19.59853 15.842934 20.16416 16.152 20.562L 18.952 24.161999C 17.71291 26.042759 16.840904 28.141003 16.382 30.345999L 11.88 30.908001C 11.376624 30.970888 11.000087 31.400726 11.004 31.908001L 11.004 36.120003C 11.000087 36.627274 11.376624 37.057114 11.88 37.120003L 16.382 37.681999C 16.840904 39.886993 17.71291 41.985237 18.952 43.865997L 16.162001 47.466C 15.852934 47.863838 15.888071 48.42947 16.243999 48.785999L 19.243999 51.785999C 19.600529 52.14193 20.166161 52.177067 20.563999 51.868L 24.164 49.077999C 26.045086 50.316898 28.143162 51.189514 30.348 51.649998L 30.91 56.150002C 30.972889 56.653378 31.402725 57.029915 31.91 57.026001L 36.146 57.026001C 36.653275 57.029915 37.083111 56.653378 37.146 56.150002L 37.708 51.650002C 39.912834 51.189514 42.010914 50.316898 43.891998 49.077999L 47.481998 51.868C 47.879841 52.177067 48.445469 52.14193 48.801998 51.785999L 51.801998 48.785999C 52.157928 48.42947 52.193066 47.863838 51.883999 47.466L 49.094002 43.866001C 50.333088 41.985237 51.205093 39.886993 51.663998 37.681999ZM 21 34.001999C 21 41.181702 26.820299 47.002003 34 47.002003C 41.179703 47.002003 47 41.181702 47 34.001999C 47 26.8223 41.179703 21.002001 34 21.002001C 26.820299 21.002001 21 26.8223 21 34.001999ZM 34 21.001999L 34 31.002001M 31 34.001999C 31 35.658855 32.343147 37.001999 34 37.001999C 35.656853 37.001999 37 35.658855 37 34.001999C 37 32.345146 35.656853 31.002001 34 31.002001C 32.343147 31.002001 31 32.345146 31 34.001999ZM 36.360001 35.856003L 44.222 42.034M 31.639999 35.856003L 23.778 42.034"></path></g></g></g><g id="g-root-tx_new_144v37vyhltza-stroke" data-item-order="0" transform="translate(458, 566)"></g><g id="g-root-tx_policyma_zlxtuhzbj8ct-stroke" data-item-order="0" transform="translate(314, 620)"></g><g id="g-root-tx_updating_hvaaftzbj7k6-stroke" data-item-order="0" transform="translate(314, 656)"></g></g></g><path id="w141r8r3xd81z6" d="M65.283 12.757a.35.35 0 0 0 .584.157l5.203-5.141-6.183 3.523.396 1.461zm-2.216-11.7a.35.35 0 0 0-.522.305v3.111l3.276-1.868-2.754-1.548zm3.728 2.105l-4.25 2.421v2.445l6.391-3.644-2.141-1.222zm4.708 3.303a.35.35 0 0 0 0-.609l-1.592-.9-7.365 4.199v1.782a.35.35 0 0 0 .523.305l8.435-4.777z M44.542 2.513c0-.433.355-.783.792-.783s.792.35.792.783-.355.783-.792.783-.792-.35-.792-.783zm59.171 0c0-.433.355-.783.792-.783s.792.35.792.783-.355.783-.792.783-.792-.35-.792-.783zm-85.951 7.636h-1.27v-.487c-.276.201-.864.609-1.881.609-1.202 0-2.274-.794-2.137-2.078.118-1.106 1.153-1.584 1.848-1.727l2.17-.345c0-.539-.29-.956-1.064-1.006s-1.21.305-1.571 1.017l-1.124-.605c1.218-2.631 5.029-1.764 5.029.414v4.207zm-1.27-2.86c.006.396-.062 1.112-.819 1.59-.587.37-1.841.299-1.903-.395-.049-.555.461-.791.906-.898l1.816-.297zm72.662 2.86h-1.27v-.487c-.276.201-.864.609-1.881.609-1.202 0-2.274-.794-2.137-2.078.118-1.106 1.153-1.584 1.848-1.727l2.17-.345c0-.539-.29-.956-1.064-1.006s-1.21.305-1.571 1.017l-1.124-.605c1.218-2.631 5.029-1.764 5.029.414v4.207zm-1.27-2.86c.006.396-.062 1.112-.82 1.59-.587.37-1.841.299-1.903-.395-.049-.555.461-.791.906-.898l1.816-.297zM99.096 10.149H97.85v-8.45h1.246v4.895l2.68-2.559h1.738l-2.633 2.535 2.715 3.578h-1.556l-2.077-2.707-.867.844v1.863zm6.053-6.114h-1.255v6.113h1.255V4.035zm-59.2 0h-1.255v6.113h1.255V4.035zm5.584 6.113V1.697h1.255v2.695c.361-.346 1-.485 1.47-.485 1.452 0 2.477 1.082 2.457 2.448v3.792h-1.27v-3.68c0-.408-.214-1.339-1.315-1.339-.968 0-1.342.756-1.342 1.339v3.681h-1.255zm-4.76-4.894V4.039h.621a.45.45 0 0 0 .45-.45v-.855h1.251v1.305h1.309v1.215h-1.309v3.109c0 .293.105.664.648.664.365 0 .531-.035.736-.07v1.137s-.361.113-.857.113c-1.398 0-1.777-1.051-1.777-1.788V5.254h-1.071zM36.528 4.039h-1.394l2.191 6.106h1.125l1.234-3.918 1.238 3.918h1.129l2.188-6.106h-1.383l-1.359 3.93-1.256-3.93h-1.124l-1.242 3.957-1.348-3.957zM26.212 7.141c-.02 1.566 1.187 3.129 3.223 3.129 1.566 0 2.383-.918 2.734-1.719L31.172 8c-.315.399-.801 1.094-1.738 1.094-1.145 0-1.825-.781-1.891-1.52h4.625c.074-.284.148-.995-.03-1.559-.336-1.064-1.221-2.102-2.839-2.102s-3.088 1.152-3.088 3.227zm1.363-.75h3.348c-.055-.43-.566-1.301-1.623-1.301a1.79 1.79 0 0 0-1.725 1.301zm-8.758.75c.038 1.758 1.277 3.133 3.145 3.133 1.074 0 1.723-.477 1.961-.672v.547h1.242V1.703h-1.258v2.888c-.414-.36-1.062-.68-1.93-.68-1.91 0-3.198 1.473-3.16 3.23zm1.309-.08c0 1.119.723 1.978 1.836 1.978a1.88 1.88 0 0 0 1.94-1.904c0-1.371-1.011-1.99-1.972-1.99s-1.805.798-1.805 1.916zm76.683-.028C96.771 5.275 95.532 3.9 93.664 3.9c-1.074 0-1.723.477-1.961.672v-.547h-1.242v8.22h1.258V9.583c.414.36 1.063.68 1.93.68 1.91 0 3.198-1.473 3.16-3.23zm-1.309.08c0-1.119-.723-1.978-1.836-1.978a1.88 1.88 0 0 0-1.94 1.904c0 1.371 1.011 1.99 1.972 1.99S95.5 8.231 95.5 7.113zM106.441 10.173V4.036h1.254v.382c.361-.346 1-.485 1.47-.485 1.452 0 2.477 1.082 2.457 2.448v3.792h-1.27V6.492c0-.408-.214-1.339-1.315-1.339-.969 0-1.342.756-1.342 1.339v3.681h-1.254zm-30.383-.021V1.824h1.084l4.215 5.777V1.824h1.32v8.328h-1.094l-4.207-5.796v5.796h-1.319zM5.24 10.149H4V2.377h1.014l2.664 3.597 2.654-3.592h1.03v7.766h-1.256V4.762L7.678 8.068 5.24 4.742v5.407z" transform="translate(921, 811)" fill="#ababab88" stroke="none"></path></svg>