<?xml version="1.0" encoding="utf-8" standalone="yes"?>
<!DOCTYPE svg PUBLIC "-//W3C//DTD SVG 1.1//EN" "http://www.w3.org/Graphics/SVG/1.1/DTD/svg11.dtd">
<svg style="fill:none;stroke:none;fill-rule:evenodd;clip-rule:evenodd;stroke-linecap:round;stroke-linejoin:round;stroke-miterlimit:1.5;" version="1.1" xmlns="http://www.w3.org/2000/svg" xmlns:xlink="http://www.w3.org/1999/xlink" width="654" height="444" viewBox="0 0 654 444"><style class="text-font-style fontImports" data-font-family="Roboto">@import url(https://fonts.googleapis.com/css2?family=Roboto:wght@400;700&amp;amp;display=block);</style><g id="items" style="isolation: isolate"><g id="blend" style="mix-blend-mode: normal"><g id="g-root-cp_0_g-0_147cmyyy788aq-fill" data-item-order="-210877" transform="translate(98, 206)"></g><g id="g-root-sy_1_line_qwiloqy786pv-fill" data-item-order="-210867" transform="translate(230, 140)"></g><g id="g-root-sy_3_line_qwiloqy786pw-fill" data-item-order="-210861" transform="translate(230, 236)"></g><g id="g-root-sy_2_line_qwiloqy786px-fill" data-item-order="-210855" transform="translate(230, 236)"></g><g id="g-root-tx_whichpdp_dl23bey788au-fill" data-item-order="0" transform="translate(95, 38)"><g id="tx_whichpdp_dl23bey788au-fill-merged" stroke="none" fill="#f4f4f4" fill-opacity="1"><g><text style="font: bold 20px &quot;Roboto&quot;, sans-serif; white-space: pre;" transform="translate(232, 22)" font-weight="bold" font-size="20px" font-family="'Roboto', sans-serif"><tspan x="-215.49" y="12" dominant-baseline="ideographic">Which PDP deployment pattern should be used?</tspan></text></g></g></g><g id="g-root-ic_gith_mbpavey7kumg-fill" data-item-order="0" transform="translate(350, 122)"></g><g id="g-root-tx_embedded_8wi156y73zf1-fill" data-item-order="0" transform="translate(398, 119)"><g id="tx_embedded_8wi156y73zf1-fill-merged" stroke="none" fill="#1ac3fb" fill-opacity="1"><g><text style="font: 12px &quot;Roboto&quot;, sans-serif; white-space: pre;" transform="translate(10, 22)" font-size="12px" font-family="'Roboto', sans-serif"><tspan x="2" y="7.25" dominant-baseline="ideographic">Embedded</tspan></text></g></g></g><g id="g-root-tx_lowestla_1hbbjgqy73z7y-fill" data-item-order="0" transform="translate(398, 143)"><g id="tx_lowestla_1hbbjgqy73z7y-fill-merged" stroke="none" fill="#f4f4f4" fill-opacity="1"><g><text style="font: 10.5px &quot;Roboto&quot;, sans-serif; white-space: pre;" transform="translate(10, 22)" font-size="10.5px" font-family="'Roboto', sans-serif"><tspan x="2" y="0.5" dominant-baseline="ideographic">Lowest latency, scales with app, best for </tspan><tspan x="2" y="12.5" dominant-baseline="ideographic">Go applications needing minimal latency.</tspan></text></g></g></g><g id="g-root-ic_face_dg2amiy7nmyq-fill" data-item-order="0" transform="translate(110, 218)"></g><g id="g-root-ic_vehi_hz066iy7cf0m-fill" data-item-order="0" transform="translate(350, 218)"></g><g id="g-root-tx_sidecar_ddkhfuy740sv-fill" data-item-order="0" transform="translate(398, 209)"><g id="tx_sidecar_ddkhfuy740sv-fill-merged" stroke="none" fill="#43dd93" fill-opacity="1"><g><text style="font: 12px &quot;Roboto&quot;, sans-serif; white-space: pre;" transform="translate(10, 22)" font-size="12px" font-family="'Roboto', sans-serif"><tspan x="2" y="7.25" dominant-baseline="ideographic">Sidecar</tspan></text></g></g></g><g id="g-root-tx_verylowl_1uo100ay73zt4-fill" data-item-order="0" transform="translate(398, 233)"><g id="tx_verylowl_1uo100ay73zt4-fill-merged" stroke="none" fill="#f4f4f4" fill-opacity="1"><g><text style="font: 10.5px &quot;Roboto&quot;, sans-serif; white-space: pre;" transform="translate(10, 28)" font-size="10.5px" font-family="'Roboto', sans-serif"><tspan x="2" y="-5.5" dominant-baseline="ideographic">Very low latency, 1:1 with app, best for </tspan><tspan x="2" y="6.5" dominant-baseline="ideographic">Kubernetes environments with consistent </tspan><tspan x="2" y="18.5" dominant-baseline="ideographic">enforcement.</tspan></text></g></g></g><g id="g-root-ic_hier_1cu900ay79ngv-fill" data-item-order="0" transform="translate(350, 314)"></g><g id="g-root-tx_standalo_zlwy8ay740ld-fill" data-item-order="0" transform="translate(398, 305)"><g id="tx_standalo_zlwy8ay740ld-fill-merged" stroke="none" fill="#a6da37" fill-opacity="1"><g><text style="font: 12px &quot;Roboto&quot;, sans-serif; white-space: pre;" transform="translate(10, 22)" font-size="12px" font-family="'Roboto', sans-serif"><tspan x="2" y="7.25" dominant-baseline="ideographic">Standalone</tspan></text></g></g></g><g id="g-root-tx_lowlaten_3zebuy741e2-fill" data-item-order="0" transform="translate(398, 329)"><g id="tx_lowlaten_3zebuy741e2-fill-merged" stroke="none" fill="#f4f4f4" fill-opacity="1"><g><text style="font: 10.5px &quot;Roboto&quot;, sans-serif; white-space: pre;" transform="translate(10, 28)" font-size="10.5px" font-family="'Roboto', sans-serif"><tspan x="2" y="-5.5" dominant-baseline="ideographic">Low latency, independent scaling, best </tspan><tspan x="2" y="6.5" dominant-baseline="ideographic">for shared policy service in multi-</tspan><tspan x="2" y="18.5" dominant-baseline="ideographic">language environments.</tspan></text></g></g></g><g id="g-root-cp_0_g-0_147cmyyy788aq-stroke" data-item-order="-210877" transform="translate(98, 206)"><g id="cp_0_g-0_147cmyyy788aq-stroke" fill="none" stroke-linecap="round" stroke-linejoin="round" stroke-miterlimit="4" stroke="#b7b7b7" stroke-width="2" stroke-opacity="1"><g><path d="M 142 40L 70 40"></path></g></g><g id="cp_0_g-0_147cmyyy788aq-stroke" fill="none" stroke-linecap="round" stroke-linejoin="round" stroke-miterlimit="4" stroke="#b7b7b7" stroke-width="2" stroke-opacity="1"><g><path d="M 70 40C 70 56.5685 56.5685 70 40 70C 23.4315 70 10 56.5685 10 40C 10 23.4315 23.4315 10 40 10C 56.5685 10 70 23.4315 70 40Z"></path></g></g></g><g id="g-root-sy_1_line_qwiloqy786pv-stroke" data-item-order="-210867" transform="translate(230, 140)"><g id="sy_1_line_qwiloqy786pv-stroke" fill="none" stroke-linecap="round" stroke-linejoin="round" stroke-miterlimit="4" stroke="#1ac3fb" stroke-width="2" stroke-opacity="1"><g><path d="M 115.99 10L 57.94 10C 44.69 10 33.94 20.75 33.94 34L 34 82C 34 95.23 23.23 106 10 106"></path><path d="M 110 16.5L 116.5 10L 110 3.5" stroke-dasharray="none"></path></g></g></g><g id="g-root-sy_3_line_qwiloqy786pw-stroke" data-item-order="-210861" transform="translate(230, 236)"><g id="sy_3_line_qwiloqy786pw-stroke" fill="none" stroke-linecap="round" stroke-linejoin="round" stroke-miterlimit="4" stroke="#a6da37" stroke-width="2" stroke-opacity="1"><g><path d="M 116 106L 57.95 106C 44.7 106 34 95.25 34 82L 34 34C 34 20.77 23.23 10 10 10"></path><path d="M 110 112.5L 116.5 106L 110 99.5" stroke-dasharray="none"></path></g></g></g><g id="g-root-sy_2_line_qwiloqy786px-stroke" data-item-order="-210855" transform="translate(230, 236)"><g id="sy_2_line_qwiloqy786px-stroke" fill="none" stroke-linecap="round" stroke-linejoin="round" stroke-miterlimit="4" stroke="#43dd93" stroke-width="2" stroke-opacity="1"><g><path d="M 116 10L 10 10"></path><path d="M 110 16.5L 116.5 10L 110 3.5" stroke-dasharray="none"></path></g></g></g><g id="g-root-tx_whichpdp_dl23bey788au-stroke" data-item-order="0" transform="translate(95, 38)"></g><g id="g-root-ic_gith_mbpavey7kumg-stroke" data-item-order="0" transform="translate(350, 122)"><g id="ic_gith_mbpavey7kumg-stroke" fill="none" stroke-linecap="round" stroke-linejoin="round" stroke-miterlimit="4" stroke="#1ac3fb" stroke-width="2" stroke-opacity="1"><g><path d="M 39.188499 35.5C 39.188499 26.546501 32.9995 30.202 27.938499 30.202C 22.877501 30.202 16.688499 26.6395 16.688499 35.5C 16.688499 38.399494 19.039005 40.750004 21.938501 40.75L 33.938499 40.75C 36.837997 40.750004 39.188503 38.399494 39.188503 35.5ZM 42.233501 25.320999L 42.281502 25.355501C 42.281502 25.355501 46.2505 18.497499 41.3815 14.5C 38.3815 14.5 33.794498 19.450001 33.794498 19.450001L 33.827499 19.473999C 30.013786 18.374472 25.968201 18.366158 22.150002 19.450001C 22.1245 19.4275 17.5555 14.5 14.563 14.5C 9.8035 18.4 13.4695 25.018 13.642 25.3255C 11.980931 27.873665 11.242474 30.913776 11.5495 33.939999C 11.911 38.629002 15.82 43.75 20.522499 43.75L 35.349998 43.75C 40.052498 43.75 43.963001 38.629002 44.322998 33.939999C 44.634296 30.912476 43.896675 27.869856 42.233501 25.321001ZM 31.719999 35.5C 31.719999 36.742641 32.391571 37.75 33.220001 37.75C 34.048428 37.75 34.720001 36.742641 34.720001 35.5C 34.720001 34.257362 34.048428 33.25 33.220001 33.25C 32.391571 33.25 31.719999 34.257362 31.719999 35.5ZM 21.219999 35.5C 21.219999 36.742641 21.891573 37.75 22.719999 37.75C 23.548428 37.75 24.219999 36.742641 24.219999 35.5C 24.219999 34.257362 23.548428 33.25 22.719999 33.25C 21.891573 33.25 21.219999 34.257362 21.219999 35.5Z"></path></g></g></g><g id="g-root-tx_embedded_8wi156y73zf1-stroke" data-item-order="0" transform="translate(398, 119)"></g><g id="g-root-tx_lowestla_1hbbjgqy73z7y-stroke" data-item-order="0" transform="translate(398, 143)"></g><g id="g-root-ic_face_dg2amiy7nmyq-stroke" data-item-order="0" transform="translate(110, 218)"><g id="ic_face_dg2amiy7nmyq-stroke" fill="none" stroke-linecap="round" stroke-linejoin="round" stroke-miterlimit="4" stroke="#f4f4f4" stroke-width="2" stroke-opacity="1"><g><path d="M 28.299999 24.841C 26.799999 23.341 23.799999 22.591 22.299999 24.091M 13.45 27.841C 13.3 27.241001 13.3 26.640999 13.3 25.890999C 13.3 17.791 19.9 11.191 28 11.191C 36.099998 11.191 42.699997 17.791 42.699997 25.890999C 42.699997 31.291 39.849998 35.941002 35.5 38.490997M 25.224998 43.900002C 28.224998 42.699997 27.662498 40.0555 27.0625 37.655502L 31.838501 35.806C 32.945641 35.377548 33.524639 34.158295 33.157001 33.029503L 33.156998 33.029499C 32.966873 32.445686 32.544945 31.965803 31.990271 31.702511C 31.435596 31.439217 30.797033 31.415707 30.224501 31.637501L 21.4375 35.0425C 20.6875 35.342499 19.7875 34.7425 19.7875 33.9925L 19.729 32.571999C 19.705038 31.993246 19.44207 31.450363 19.002792 31.072781C 18.563515 30.695202 17.987289 30.51676 17.411501 30.580002L 17.411499 30.58C 16.352261 30.696966 15.550443 31.591824 15.55 32.657501L 15.55 38.7925C 15.55 42.692501 19.15 45.5425 22.900002 44.642498C 22.900002 44.642498 24.474998 44.199997 25.224998 43.900002ZM 20.9125 18.841C 20.601841 18.841 20.35 18.589161 20.35 18.2785C 20.35 17.96784 20.601841 17.716 20.9125 17.716M 20.9125 18.841C 21.22316 18.841 21.475 18.589161 21.475 18.2785C 21.475 17.96784 21.22316 17.716 20.9125 17.716M 28.900002 18.841C 28.58934 18.841 28.337502 18.589161 28.337502 18.2785C 28.337502 17.96784 28.58934 17.716 28.900002 17.716M 28.900002 18.841C 29.210661 18.841 29.462502 18.589161 29.462502 18.2785C 29.462502 17.96784 29.210661 17.716 28.900002 17.716"></path></g></g></g><g id="g-root-ic_vehi_hz066iy7cf0m-stroke" data-item-order="0" transform="translate(350, 218)"><g id="ic_vehi_hz066iy7cf0m-stroke" fill="none" stroke-linecap="round" stroke-linejoin="round" stroke-miterlimit="4" stroke="#43dd93" stroke-width="2" stroke-opacity="1"><g><path d="M 15.25 41.785C 15.25 43.64896 16.76104 45.16 18.625 45.16C 20.48896 45.16 22 43.64896 22 41.785C 22 39.92104 20.48896 38.41 18.625 38.41C 16.76104 38.41 15.25 39.92104 15.25 41.785M 34 41.785C 34 43.64896 35.51104 45.16 37.375 45.16C 39.23896 45.16 40.75 43.64896 40.75 41.785C 40.75 39.92104 39.23896 38.41 37.375 38.41C 35.51104 38.41 34 39.92104 34 41.785M 40.239998 33.654999C 40.4515 34.260044 41.024067 34.663857 41.665001 34.66L 45.25 34.66L 45.25 28.66L 40.614998 28.66C 40.126923 28.657377 39.668083 28.892391 39.385002 29.289999C 39.102333 29.686394 39.029629 30.195316 39.189999 30.655001ZM 22 42.16L 34 42.16M 15.25 24.16C 12.764719 24.16 10.75 26.174719 10.75 28.66L 10.75 40.66C 10.75 41.488426 11.421573 42.16 12.25 42.16L 15.25 42.16M 40.75 42.16L 43.75 42.16C 44.578426 42.16 45.25 41.488426 45.25 40.66L 45.25 28.66C 45.25 26.174719 43.235283 24.16 40.75 24.16L 36.34 24.16M 22 16.66C 24.191998 14.904998 27.308002 14.904998 29.5 16.66M 19.389999 13.48C 22.903812 9.970559 28.596189 9.970559 32.110001 13.48M 19.75 19.66L 31.75 19.66C 31.75 19.66 33.25 19.66 33.25 21.16L 33.25 33.16C 33.25 33.16 33.25 34.66 31.75 34.66L 19.75 34.66C 19.75 34.66 18.25 34.66 18.25 33.16L 18.25 21.16C 18.25 21.16 18.25 19.66 19.75 19.66M 22.75 26.41C 22.75 28.066854 24.093145 29.41 25.75 29.41C 27.406855 29.41 28.75 28.066854 28.75 26.41C 28.75 24.753145 27.406855 23.41 25.75 23.41C 24.093145 23.41 22.75 24.753145 22.75 26.41M 25.75 29.41L 25.75 31.66"></path></g></g></g><g id="g-root-tx_sidecar_ddkhfuy740sv-stroke" data-item-order="0" transform="translate(398, 209)"></g><g id="g-root-tx_verylowl_1uo100ay73zt4-stroke" data-item-order="0" transform="translate(398, 233)"></g><g id="g-root-ic_hier_1cu900ay79ngv-stroke" data-item-order="0" transform="translate(350, 314)"><g id="ic_hier_1cu900ay79ngv-stroke" fill="none" stroke-linecap="round" stroke-linejoin="round" stroke-miterlimit="4" stroke="#a6da37" stroke-width="2" stroke-opacity="1"><g><path d="M 19.75 22.001501C 19.75 24.072567 23.443651 25.751501 28 25.751501C 32.556351 25.751501 36.25 24.072567 36.25 22.001501C 36.25 19.930433 32.556351 18.251499 28 18.251499C 23.443651 18.251499 19.75 19.930433 19.75 22.001501ZM 37.75 13.0015C 37.75 14.244141 39.428932 15.2515 41.5 15.2515C 43.571068 15.2515 45.25 14.244141 45.25 13.0015C 45.25 11.75886 43.571068 10.7515 41.5 10.7515C 39.428932 10.7515 37.75 11.75886 37.75 13.0015ZM 45.25 13L 45.25 17.5C 45.25 18.742001 43.571503 19.75 41.5 19.75C 39.428497 19.75 37.75 18.7435 37.75 17.5L 37.75 13M 10.75 13.0015C 10.75 14.244141 12.428932 15.2515 14.5 15.2515C 16.571068 15.2515 18.25 14.244141 18.25 13.0015C 18.25 11.75886 16.571068 10.7515 14.5 10.7515C 12.428932 10.7515 10.75 11.75886 10.75 13.0015ZM 18.25 13L 18.25 17.5C 18.25 18.742001 16.571501 19.75 14.5 19.75C 12.4285 19.75 10.75 18.7435 10.75 17.5L 10.75 13M 37.75 38.501499C 37.75 39.744141 39.428932 40.751503 41.5 40.751503C 43.571068 40.751503 45.25 39.744141 45.25 38.501503C 45.25 37.258858 43.571068 36.251503 41.5 36.251503C 39.428932 36.251503 37.75 37.258858 37.75 38.501503ZM 45.25 38.5L 45.25 43C 45.25 44.241997 43.571503 45.25 41.5 45.25C 39.428497 45.25 37.75 44.241997 37.75 43L 37.75 38.5M 10.75 38.501499C 10.75 39.744141 12.428932 40.751503 14.5 40.751503C 16.571068 40.751503 18.25 39.744141 18.25 38.501503C 18.25 37.258858 16.571068 36.251503 14.5 36.251503C 12.428932 36.251503 10.75 37.258858 10.75 38.501503ZM 18.25 38.5L 18.25 43C 18.25 44.241997 16.571501 45.25 14.5 45.25C 12.4285 45.25 10.75 44.2435 10.75 43L 10.75 38.5M 36.25 28C 36.25 30.071499 32.5555 31.75 28 31.75C 23.4445 31.75 19.75 30.073 19.75 28M 19.75 22L 19.75 34C 19.75 36.071503 23.4445 37.75 28 37.75C 32.5555 37.75 36.25 36.071503 36.25 34L 36.25 22M 17.963501 18.367001L 20.276501 20.68M 38.036499 18.367001L 35.723499 20.68M 18.032499 37.745499L 20.359001 35.4175M 37.967499 37.745499L 35.640999 35.4175"></path></g></g></g><g id="g-root-tx_standalo_zlwy8ay740ld-stroke" data-item-order="0" transform="translate(398, 305)"></g><g id="g-root-tx_lowlaten_3zebuy741e2-stroke" data-item-order="0" transform="translate(398, 329)"></g></g></g><path id="w4jt5yjvzo3kc" d="M65.283 12.757a.35.35 0 0 0 .584.157l5.203-5.141-6.183 3.523.396 1.461zm-2.216-11.7a.35.35 0 0 0-.522.305v3.111l3.276-1.868-2.754-1.548zm3.728 2.105l-4.25 2.421v2.445l6.391-3.644-2.141-1.222zm4.708 3.303a.35.35 0 0 0 0-.609l-1.592-.9-7.365 4.199v1.782a.35.35 0 0 0 .523.305l8.435-4.777z M44.542 2.513c0-.433.355-.783.792-.783s.792.35.792.783-.355.783-.792.783-.792-.35-.792-.783zm59.171 0c0-.433.355-.783.792-.783s.792.35.792.783-.355.783-.792.783-.792-.35-.792-.783zm-85.951 7.636h-1.27v-.487c-.276.201-.864.609-1.881.609-1.202 0-2.274-.794-2.137-2.078.118-1.106 1.153-1.584 1.848-1.727l2.17-.345c0-.539-.29-.956-1.064-1.006s-1.21.305-1.571 1.017l-1.124-.605c1.218-2.631 5.029-1.764 5.029.414v4.207zm-1.27-2.86c.006.396-.062 1.112-.819 1.59-.587.37-1.841.299-1.903-.395-.049-.555.461-.791.906-.898l1.816-.297zm72.662 2.86h-1.27v-.487c-.276.201-.864.609-1.881.609-1.202 0-2.274-.794-2.137-2.078.118-1.106 1.153-1.584 1.848-1.727l2.17-.345c0-.539-.29-.956-1.064-1.006s-1.21.305-1.571 1.017l-1.124-.605c1.218-2.631 5.029-1.764 5.029.414v4.207zm-1.27-2.86c.006.396-.062 1.112-.82 1.59-.587.37-1.841.299-1.903-.395-.049-.555.461-.791.906-.898l1.816-.297zM99.096 10.149H97.85v-8.45h1.246v4.895l2.68-2.559h1.738l-2.633 2.535 2.715 3.578h-1.556l-2.077-2.707-.867.844v1.863zm6.053-6.114h-1.255v6.113h1.255V4.035zm-59.2 0h-1.255v6.113h1.255V4.035zm5.584 6.113V1.697h1.255v2.695c.361-.346 1-.485 1.47-.485 1.452 0 2.477 1.082 2.457 2.448v3.792h-1.27v-3.68c0-.408-.214-1.339-1.315-1.339-.968 0-1.342.756-1.342 1.339v3.681h-1.255zm-4.76-4.894V4.039h.621a.45.45 0 0 0 .45-.45v-.855h1.251v1.305h1.309v1.215h-1.309v3.109c0 .293.105.664.648.664.365 0 .531-.035.736-.07v1.137s-.361.113-.857.113c-1.398 0-1.777-1.051-1.777-1.788V5.254h-1.071zM36.528 4.039h-1.394l2.191 6.106h1.125l1.234-3.918 1.238 3.918h1.129l2.188-6.106h-1.383l-1.359 3.93-1.256-3.93h-1.124l-1.242 3.957-1.348-3.957zM26.212 7.141c-.02 1.566 1.187 3.129 3.223 3.129 1.566 0 2.383-.918 2.734-1.719L31.172 8c-.315.399-.801 1.094-1.738 1.094-1.145 0-1.825-.781-1.891-1.52h4.625c.074-.284.148-.995-.03-1.559-.336-1.064-1.221-2.102-2.839-2.102s-3.088 1.152-3.088 3.227zm1.363-.75h3.348c-.055-.43-.566-1.301-1.623-1.301a1.79 1.79 0 0 0-1.725 1.301zm-8.758.75c.038 1.758 1.277 3.133 3.145 3.133 1.074 0 1.723-.477 1.961-.672v.547h1.242V1.703h-1.258v2.888c-.414-.36-1.062-.68-1.93-.68-1.91 0-3.198 1.473-3.16 3.23zm1.309-.08c0 1.119.723 1.978 1.836 1.978a1.88 1.88 0 0 0 1.94-1.904c0-1.371-1.011-1.99-1.972-1.99s-1.805.798-1.805 1.916zm76.683-.028C96.771 5.275 95.532 3.9 93.664 3.9c-1.074 0-1.723.477-1.961.672v-.547h-1.242v8.22h1.258V9.583c.414.36 1.063.68 1.93.68 1.91 0 3.198-1.473 3.16-3.23zm-1.309.08c0-1.119-.723-1.978-1.836-1.978a1.88 1.88 0 0 0-1.94 1.904c0 1.371 1.011 1.99 1.972 1.99S95.5 8.231 95.5 7.113zM106.441 10.173V4.036h1.254v.382c.361-.346 1-.485 1.47-.485 1.452 0 2.477 1.082 2.457 2.448v3.792h-1.27V6.492c0-.408-.214-1.339-1.315-1.339-.969 0-1.342.756-1.342 1.339v3.681h-1.254zm-30.383-.021V1.824h1.084l4.215 5.777V1.824h1.32v8.328h-1.094l-4.207-5.796v5.796h-1.319zM5.24 10.149H4V2.377h1.014l2.664 3.597 2.654-3.592h1.03v7.766h-1.256V4.762L7.678 8.068 5.24 4.742v5.407z" transform="translate(20, 410)" fill="#ababab88" stroke="none"></path></svg>