<?xml version="1.0" encoding="utf-8"?>
<svg style="fill:none;stroke:none;fill-rule:evenodd;clip-rule:evenodd;stroke-linecap:round;stroke-linejoin:round;stroke-miterlimit:1.5;" version="1.1" xmlns="http://www.w3.org/2000/svg" width="1000px" height="678.899px" viewBox="0 0 1079 732.556">
  <style class="text-font-style fontImports" data-font-family="Roboto">@import url(https://fonts.googleapis.com/css2?family=Roboto:wght@400;700&amp;amp;display=block);</style>
  <g id="items" style="isolation: isolate;" transform="matrix(1.830299, 0, 0, 1.718003, -104.341576, -43.396271)">
    <g id="blend" style="mix-blend-mode: normal">
      <g id="g-root-cp_0_g-0_147cmyyy788aq-fill" data-item-order="-210877" transform="translate(98, 206)"/>
      <g id="g-root-sy_1_line_qwiloqy786pv-fill" data-item-order="-210867" transform="translate(230, 140)"/>
      <g id="g-root-sy_3_line_qwiloqy786pw-fill" data-item-order="-210861" transform="translate(230, 236)"/>
      <g id="g-root-sy_2_line_qwiloqy786px-fill" data-item-order="-210855" transform="translate(230, 236)"/>
      <g id="g-root-tx_whichpdp_dl23bey788au-fill" data-item-order="0" transform="translate(95, 38)">
        <g id="tx_whichpdp_dl23bey788au-fill-merged" stroke="none" fill="#f4f4f4" fill-opacity="1">
          <g>
            <text style="font: bold 20px &quot;Roboto&quot;, sans-serif; white-space: pre;" transform="translate(232, 22)" font-weight="bold" font-size="20px" font-family="'Roboto', sans-serif"><tspan x="-215.49" y="12" dominant-baseline="ideographic">Which PDP deployment pattern should be used?</tspan></text>
          </g>
        </g>
      </g>
      <g id="g-root-ic_gith_mbpavey7kumg-fill" data-item-order="0" transform="translate(350, 122)"/>
      <g id="g-root-tx_embedded_8wi156y73zf1-fill" data-item-order="0" transform="translate(398, 119)">
        <g id="tx_embedded_8wi156y73zf1-fill-merged" stroke="none" fill="#1ac3fb" fill-opacity="1">
          <g>
            <text style="font: 12px &quot;Roboto&quot;, sans-serif; white-space: pre;" transform="translate(10, 22)" font-size="12px" font-family="'Roboto', sans-serif"><tspan x="2" y="7.25" dominant-baseline="ideographic">Embedded</tspan></text>
          </g>
        </g>
      </g>
      <g id="g-root-tx_lowestla_1hbbjgqy73z7y-fill" data-item-order="0" transform="translate(398, 143)">
        <g id="tx_lowestla_1hbbjgqy73z7y-fill-merged" stroke="none" fill="#f4f4f4" fill-opacity="1">
          <g>
            <text style="font: 10.5px &quot;Roboto&quot;, sans-serif; white-space: pre;" transform="translate(10, 22)" font-size="10.5px" font-family="'Roboto', sans-serif"><tspan x="2" y="0.5" dominant-baseline="ideographic">Lowest latency, scales with app, best for </tspan><tspan x="2" y="12.5" dominant-baseline="ideographic">Go applications needing minimal latency.</tspan></text>
          </g>
        </g>
      </g>
      <g id="g-root-ic_face_dg2amiy7nmyq-fill" data-item-order="0" transform="translate(110, 218)"/>
      <g id="g-root-ic_vehi_hz066iy7cf0m-fill" data-item-order="0" transform="translate(350, 218)"/>
      <g id="g-root-tx_sidecar_ddkhfuy740sv-fill" data-item-order="0" transform="translate(398, 209)">
        <g id="tx_sidecar_ddkhfuy740sv-fill-merged" stroke="none" fill="#43dd93" fill-opacity="1">
          <g>
            <text style="font: 12px &quot;Roboto&quot;, sans-serif; white-space: pre;" transform="translate(10, 22)" font-size="12px" font-family="'Roboto', sans-serif"><tspan x="2" y="7.25" dominant-baseline="ideographic">Sidecar</tspan></text>
          </g>
        </g>
      </g>
      <g id="g-root-tx_verylowl_1uo100ay73zt4-fill" data-item-order="0" transform="translate(398, 233)">
        <g id="tx_verylowl_1uo100ay73zt4-fill-merged" stroke="none" fill="#f4f4f4" fill-opacity="1">
          <g>
            <text style="font: 10.5px &quot;Roboto&quot;, sans-serif; white-space: pre;" transform="translate(10, 28)" font-size="10.5px" font-family="'Roboto', sans-serif"><tspan x="2" y="-5.5" dominant-baseline="ideographic">Very low latency, 1:1 with app, best for </tspan><tspan x="2" y="6.5" dominant-baseline="ideographic">Kubernetes environments with consistent </tspan><tspan x="2" y="18.5" dominant-baseline="ideographic">enforcement.</tspan></text>
          </g>
        </g>
      </g>
      <g id="g-root-ic_hier_1cu900ay79ngv-fill" data-item-order="0" transform="translate(350, 314)"/>
      <g id="g-root-tx_standalo_zlwy8ay740ld-fill" data-item-order="0" transform="translate(398, 305)">
        <g id="tx_standalo_zlwy8ay740ld-fill-merged" stroke="none" fill="#a6da37" fill-opacity="1">
          <g>
            <text style="font: 12px &quot;Roboto&quot;, sans-serif; white-space: pre;" transform="translate(10, 22)" font-size="12px" font-family="'Roboto', sans-serif"><tspan x="2" y="7.25" dominant-baseline="ideographic">Standalone</tspan></text>
          </g>
        </g>
      </g>
      <g id="g-root-tx_lowlaten_3zebuy741e2-fill" data-item-order="0" transform="translate(398, 329)">
        <g id="tx_lowlaten_3zebuy741e2-fill-merged" stroke="none" fill="#f4f4f4" fill-opacity="1">
          <g>
            <text style="font: 10.5px &quot;Roboto&quot;, sans-serif; white-space: pre;" transform="translate(10, 28)" font-size="10.5px" font-family="'Roboto', sans-serif"><tspan x="2" y="-5.5" dominant-baseline="ideographic">Low latency, independent scaling, best </tspan><tspan x="2" y="6.5" dominant-baseline="ideographic">for shared policy service in multi-</tspan><tspan x="2" y="18.5" dominant-baseline="ideographic">language environments.</tspan></text>
          </g>
        </g>
      </g>
      <g id="g-root-cp_0_g-0_147cmyyy788aq-stroke" data-item-order="-210877" transform="translate(98, 206)">
        <g id="cp_0_g-0_147cmyyy788aq-stroke" fill="none" stroke-linecap="round" stroke-linejoin="round" stroke-miterlimit="4" stroke="#b7b7b7" stroke-width="2" stroke-opacity="1">
          <g>
            <path d="M 142 40L 70 40"/>
          </g>
        </g>
        <g id="cp_0_g-0_147cmyyy788aq-stroke-2" fill="none" stroke-linecap="round" stroke-linejoin="round" stroke-miterlimit="4" stroke="#b7b7b7" stroke-width="2" stroke-opacity="1">
          <g>
            <path d="M 70 40C 70 56.5685 56.5685 70 40 70C 23.4315 70 10 56.5685 10 40C 10 23.4315 23.4315 10 40 10C 56.5685 10 70 23.4315 70 40Z"/>
          </g>
        </g>
      </g>
      <g id="g-root-sy_1_line_qwiloqy786pv-stroke" data-item-order="-210867" transform="translate(230, 140)">
        <g id="sy_1_line_qwiloqy786pv-stroke" fill="none" stroke-linecap="round" stroke-linejoin="round" stroke-miterlimit="4" stroke="#1ac3fb" stroke-width="2" stroke-opacity="1">
          <g>
            <path d="M 115.99 10L 57.94 10C 44.69 10 33.94 20.75 33.94 34L 34 82C 34 95.23 23.23 106 10 106"/>
            <path d="M 110 16.5L 116.5 10L 110 3.5" stroke-dasharray="none"/>
          </g>
        </g>
      </g>
      <g id="g-root-sy_3_line_qwiloqy786pw-stroke" data-item-order="-210861" transform="translate(230, 236)">
        <g id="sy_3_line_qwiloqy786pw-stroke" fill="none" stroke-linecap="round" stroke-linejoin="round" stroke-miterlimit="4" stroke="#a6da37" stroke-width="2" stroke-opacity="1">
          <g>
            <path d="M 116 106L 57.95 106C 44.7 106 34 95.25 34 82L 34 34C 34 20.77 23.23 10 10 10"/>
            <path d="M 110 112.5L 116.5 106L 110 99.5" stroke-dasharray="none"/>
          </g>
        </g>
      </g>
      <g id="g-root-sy_2_line_qwiloqy786px-stroke" data-item-order="-210855" transform="translate(230, 236)">
        <g id="sy_2_line_qwiloqy786px-stroke" fill="none" stroke-linecap="round" stroke-linejoin="round" stroke-miterlimit="4" stroke="#43dd93" stroke-width="2" stroke-opacity="1">
          <g>
            <path d="M 116 10L 10 10"/>
            <path d="M 110 16.5L 116.5 10L 110 3.5" stroke-dasharray="none"/>
          </g>
        </g>
      </g>
      <g id="g-root-tx_whichpdp_dl23bey788au-stroke" data-item-order="0" transform="translate(95, 38)"/>
      <g id="g-root-ic_gith_mbpavey7kumg-stroke" data-item-order="0" transform="translate(350, 122)">
        <g id="ic_gith_mbpavey7kumg-stroke" fill="none" stroke-linecap="round" stroke-linejoin="round" stroke-miterlimit="4" stroke="#1ac3fb" stroke-width="2" stroke-opacity="1">
          <g>
            <path d="M 39.188499 35.5C 39.188499 26.546501 32.9995 30.202 27.938499 30.202C 22.877501 30.202 16.688499 26.6395 16.688499 35.5C 16.688499 38.399494 19.039005 40.750004 21.938501 40.75L 33.938499 40.75C 36.837997 40.750004 39.188503 38.399494 39.188503 35.5ZM 42.233501 25.320999L 42.281502 25.355501C 42.281502 25.355501 46.2505 18.497499 41.3815 14.5C 38.3815 14.5 33.794498 19.450001 33.794498 19.450001L 33.827499 19.473999C 30.013786 18.374472 25.968201 18.366158 22.150002 19.450001C 22.1245 19.4275 17.5555 14.5 14.563 14.5C 9.8035 18.4 13.4695 25.018 13.642 25.3255C 11.980931 27.873665 11.242474 30.913776 11.5495 33.939999C 11.911 38.629002 15.82 43.75 20.522499 43.75L 35.349998 43.75C 40.052498 43.75 43.963001 38.629002 44.322998 33.939999C 44.634296 30.912476 43.896675 27.869856 42.233501 25.321001ZM 31.719999 35.5C 31.719999 36.742641 32.391571 37.75 33.220001 37.75C 34.048428 37.75 34.720001 36.742641 34.720001 35.5C 34.720001 34.257362 34.048428 33.25 33.220001 33.25C 32.391571 33.25 31.719999 34.257362 31.719999 35.5ZM 21.219999 35.5C 21.219999 36.742641 21.891573 37.75 22.719999 37.75C 23.548428 37.75 24.219999 36.742641 24.219999 35.5C 24.219999 34.257362 23.548428 33.25 22.719999 33.25C 21.891573 33.25 21.219999 34.257362 21.219999 35.5Z"/>
          </g>
        </g>
      </g>
      <g id="g-root-tx_embedded_8wi156y73zf1-stroke" data-item-order="0" transform="translate(398, 119)"/>
      <g id="g-root-tx_lowestla_1hbbjgqy73z7y-stroke" data-item-order="0" transform="translate(398, 143)"/>
      <g id="g-root-ic_face_dg2amiy7nmyq-stroke" data-item-order="0" transform="translate(110, 218)">
        <g id="ic_face_dg2amiy7nmyq-stroke" fill="none" stroke-linecap="round" stroke-linejoin="round" stroke-miterlimit="4" stroke="#f4f4f4" stroke-width="2" stroke-opacity="1">
          <g>
            <path d="M 28.299999 24.841C 26.799999 23.341 23.799999 22.591 22.299999 24.091M 13.45 27.841C 13.3 27.241001 13.3 26.640999 13.3 25.890999C 13.3 17.791 19.9 11.191 28 11.191C 36.099998 11.191 42.699997 17.791 42.699997 25.890999C 42.699997 31.291 39.849998 35.941002 35.5 38.490997M 25.224998 43.900002C 28.224998 42.699997 27.662498 40.0555 27.0625 37.655502L 31.838501 35.806C 32.945641 35.377548 33.524639 34.158295 33.157001 33.029503L 33.156998 33.029499C 32.966873 32.445686 32.544945 31.965803 31.990271 31.702511C 31.435596 31.439217 30.797033 31.415707 30.224501 31.637501L 21.4375 35.0425C 20.6875 35.342499 19.7875 34.7425 19.7875 33.9925L 19.729 32.571999C 19.705038 31.993246 19.44207 31.450363 19.002792 31.072781C 18.563515 30.695202 17.987289 30.51676 17.411501 30.580002L 17.411499 30.58C 16.352261 30.696966 15.550443 31.591824 15.55 32.657501L 15.55 38.7925C 15.55 42.692501 19.15 45.5425 22.900002 44.642498C 22.900002 44.642498 24.474998 44.199997 25.224998 43.900002ZM 20.9125 18.841C 20.601841 18.841 20.35 18.589161 20.35 18.2785C 20.35 17.96784 20.601841 17.716 20.9125 17.716M 20.9125 18.841C 21.22316 18.841 21.475 18.589161 21.475 18.2785C 21.475 17.96784 21.22316 17.716 20.9125 17.716M 28.900002 18.841C 28.58934 18.841 28.337502 18.589161 28.337502 18.2785C 28.337502 17.96784 28.58934 17.716 28.900002 17.716M 28.900002 18.841C 29.210661 18.841 29.462502 18.589161 29.462502 18.2785C 29.462502 17.96784 29.210661 17.716 28.900002 17.716"/>
          </g>
        </g>
      </g>
      <g id="g-root-ic_vehi_hz066iy7cf0m-stroke" data-item-order="0" transform="translate(350, 218)">
        <g id="ic_vehi_hz066iy7cf0m-stroke" fill="none" stroke-linecap="round" stroke-linejoin="round" stroke-miterlimit="4" stroke="#43dd93" stroke-width="2" stroke-opacity="1">
          <g>
            <path d="M 15.25 41.785C 15.25 43.64896 16.76104 45.16 18.625 45.16C 20.48896 45.16 22 43.64896 22 41.785C 22 39.92104 20.48896 38.41 18.625 38.41C 16.76104 38.41 15.25 39.92104 15.25 41.785M 34 41.785C 34 43.64896 35.51104 45.16 37.375 45.16C 39.23896 45.16 40.75 43.64896 40.75 41.785C 40.75 39.92104 39.23896 38.41 37.375 38.41C 35.51104 38.41 34 39.92104 34 41.785M 40.239998 33.654999C 40.4515 34.260044 41.024067 34.663857 41.665001 34.66L 45.25 34.66L 45.25 28.66L 40.614998 28.66C 40.126923 28.657377 39.668083 28.892391 39.385002 29.289999C 39.102333 29.686394 39.029629 30.195316 39.189999 30.655001ZM 22 42.16L 34 42.16M 15.25 24.16C 12.764719 24.16 10.75 26.174719 10.75 28.66L 10.75 40.66C 10.75 41.488426 11.421573 42.16 12.25 42.16L 15.25 42.16M 40.75 42.16L 43.75 42.16C 44.578426 42.16 45.25 41.488426 45.25 40.66L 45.25 28.66C 45.25 26.174719 43.235283 24.16 40.75 24.16L 36.34 24.16M 22 16.66C 24.191998 14.904998 27.308002 14.904998 29.5 16.66M 19.389999 13.48C 22.903812 9.970559 28.596189 9.970559 32.110001 13.48M 19.75 19.66L 31.75 19.66C 31.75 19.66 33.25 19.66 33.25 21.16L 33.25 33.16C 33.25 33.16 33.25 34.66 31.75 34.66L 19.75 34.66C 19.75 34.66 18.25 34.66 18.25 33.16L 18.25 21.16C 18.25 21.16 18.25 19.66 19.75 19.66M 22.75 26.41C 22.75 28.066854 24.093145 29.41 25.75 29.41C 27.406855 29.41 28.75 28.066854 28.75 26.41C 28.75 24.753145 27.406855 23.41 25.75 23.41C 24.093145 23.41 22.75 24.753145 22.75 26.41M 25.75 29.41L 25.75 31.66"/>
          </g>
        </g>
      </g>
      <g id="g-root-tx_sidecar_ddkhfuy740sv-stroke" data-item-order="0" transform="translate(398, 209)"/>
      <g id="g-root-tx_verylowl_1uo100ay73zt4-stroke" data-item-order="0" transform="translate(398, 233)"/>
      <g id="g-root-ic_hier_1cu900ay79ngv-stroke" data-item-order="0" transform="translate(350, 314)">
        <g id="ic_hier_1cu900ay79ngv-stroke" fill="none" stroke-linecap="round" stroke-linejoin="round" stroke-miterlimit="4" stroke="#a6da37" stroke-width="2" stroke-opacity="1">
          <g>
            <path d="M 19.75 22.001501C 19.75 24.072567 23.443651 25.751501 28 25.751501C 32.556351 25.751501 36.25 24.072567 36.25 22.001501C 36.25 19.930433 32.556351 18.251499 28 18.251499C 23.443651 18.251499 19.75 19.930433 19.75 22.001501ZM 37.75 13.0015C 37.75 14.244141 39.428932 15.2515 41.5 15.2515C 43.571068 15.2515 45.25 14.244141 45.25 13.0015C 45.25 11.75886 43.571068 10.7515 41.5 10.7515C 39.428932 10.7515 37.75 11.75886 37.75 13.0015ZM 45.25 13L 45.25 17.5C 45.25 18.742001 43.571503 19.75 41.5 19.75C 39.428497 19.75 37.75 18.7435 37.75 17.5L 37.75 13M 10.75 13.0015C 10.75 14.244141 12.428932 15.2515 14.5 15.2515C 16.571068 15.2515 18.25 14.244141 18.25 13.0015C 18.25 11.75886 16.571068 10.7515 14.5 10.7515C 12.428932 10.7515 10.75 11.75886 10.75 13.0015ZM 18.25 13L 18.25 17.5C 18.25 18.742001 16.571501 19.75 14.5 19.75C 12.4285 19.75 10.75 18.7435 10.75 17.5L 10.75 13M 37.75 38.501499C 37.75 39.744141 39.428932 40.751503 41.5 40.751503C 43.571068 40.751503 45.25 39.744141 45.25 38.501503C 45.25 37.258858 43.571068 36.251503 41.5 36.251503C 39.428932 36.251503 37.75 37.258858 37.75 38.501503ZM 45.25 38.5L 45.25 43C 45.25 44.241997 43.571503 45.25 41.5 45.25C 39.428497 45.25 37.75 44.241997 37.75 43L 37.75 38.5M 10.75 38.501499C 10.75 39.744141 12.428932 40.751503 14.5 40.751503C 16.571068 40.751503 18.25 39.744141 18.25 38.501503C 18.25 37.258858 16.571068 36.251503 14.5 36.251503C 12.428932 36.251503 10.75 37.258858 10.75 38.501503ZM 18.25 38.5L 18.25 43C 18.25 44.241997 16.571501 45.25 14.5 45.25C 12.4285 45.25 10.75 44.2435 10.75 43L 10.75 38.5M 36.25 28C 36.25 30.071499 32.5555 31.75 28 31.75C 23.4445 31.75 19.75 30.073 19.75 28M 19.75 22L 19.75 34C 19.75 36.071503 23.4445 37.75 28 37.75C 32.5555 37.75 36.25 36.071503 36.25 34L 36.25 22M 17.963501 18.367001L 20.276501 20.68M 38.036499 18.367001L 35.723499 20.68M 18.032499 37.745499L 20.359001 35.4175M 37.967499 37.745499L 35.640999 35.4175"/>
          </g>
        </g>
      </g>
      <g id="g-root-tx_standalo_zlwy8ay740ld-stroke" data-item-order="0" transform="translate(398, 305)"/>
      <g id="g-root-tx_lowlaten_3zebuy741e2-stroke" data-item-order="0" transform="translate(398, 329)"/>
    </g>
  </g>
  <path id="w4jt5yjvzo3kc" d="M 899.874 680.975 C 900.005 681.421 900.596 681.568 900.943 681.247 L 910.464 672.413 L 899.149 678.465 L 899.874 680.975 Z M 895.817 660.875 C 895.39 660.647 894.864 660.937 894.864 661.399 L 894.864 666.743 L 900.857 663.535 L 895.817 660.875 Z M 902.642 664.491 L 894.864 668.652 L 894.864 672.852 L 906.56 666.591 L 902.642 664.491 Z M 911.258 670.165 C 911.688 669.937 911.69 669.358 911.267 669.126 C 911.265 669.123 911.262 669.122 911.258 669.12 L 908.342 667.574 L 894.865 674.788 L 894.865 677.85 C 894.865 678.311 895.394 678.602 895.823 678.373 L 911.26 670.165 L 911.258 670.165 Z M 861.912 663.376 C 861.912 662.634 862.562 662.031 863.363 662.031 C 864.161 662.031 864.81 662.634 864.81 663.376 C 864.81 664.12 864.161 664.722 863.363 664.722 C 862.562 664.722 861.912 664.12 861.912 663.376 Z M 970.212 663.376 C 970.212 662.634 970.862 662.031 971.66 662.031 C 972.461 662.031 973.111 662.634 973.111 663.376 C 973.111 664.12 972.461 664.722 971.66 664.722 C 970.862 664.722 970.212 664.12 970.212 663.376 Z M 812.896 676.495 L 810.572 676.495 L 810.572 675.66 C 810.067 676.003 808.991 676.706 807.128 676.706 C 804.929 676.706 802.966 675.342 803.217 673.134 C 803.434 671.236 805.327 670.414 806.6 670.169 L 810.572 669.575 C 810.572 668.65 810.04 667.932 808.624 667.845 C 807.208 667.761 806.41 668.371 805.749 669.594 L 803.692 668.554 C 805.92 664.034 812.896 665.523 812.896 669.265 L 812.896 676.493 L 812.896 676.495 Z M 810.572 671.581 C 810.583 672.263 810.458 673.491 809.072 674.314 C 807.999 674.95 805.703 674.828 805.589 673.633 C 805.501 672.681 806.433 672.276 807.249 672.092 L 810.572 671.581 Z M 943.565 676.495 L 941.241 676.495 L 941.241 675.66 C 940.733 676.003 939.659 676.706 937.796 676.706 C 935.597 676.706 933.636 675.342 933.886 673.134 C 934.1 671.236 935.995 670.414 937.268 670.169 L 941.241 669.575 C 941.241 668.65 940.71 667.932 939.293 667.845 C 937.875 667.761 937.078 668.371 936.417 669.594 L 934.36 668.554 C 936.589 664.034 943.565 665.523 943.565 669.265 L 943.565 676.493 L 943.565 676.495 Z M 941.241 671.581 C 941.25 672.263 941.126 673.491 939.74 674.314 C 938.665 674.95 936.369 674.828 936.255 673.633 C 936.166 672.681 937.1 672.276 937.914 672.092 L 941.24 671.581 L 941.241 671.581 Z M 961.762 676.495 L 959.48 676.495 L 959.48 661.978 L 961.762 661.978 L 961.762 670.389 L 966.666 665.991 L 969.849 665.991 L 965.027 670.347 L 969.997 676.493 L 967.149 676.493 L 963.346 671.842 L 961.762 673.292 L 961.762 676.493 L 961.762 676.495 Z M 972.841 665.991 L 970.544 665.991 L 970.544 676.493 L 972.841 676.493 L 972.841 665.991 Z M 864.488 665.991 L 862.189 665.991 L 862.189 676.493 L 864.488 676.493 L 864.488 665.991 Z M 874.705 676.493 L 874.705 661.975 L 877.005 661.975 L 877.005 666.605 C 877.665 666.009 878.834 665.77 879.694 665.77 C 882.353 665.77 884.229 667.629 884.191 669.976 L 884.191 676.491 L 881.867 676.491 L 881.867 670.17 C 881.867 669.467 881.474 667.869 879.461 667.869 C 877.688 667.869 877.005 669.167 877.005 670.17 L 877.005 676.493 L 874.705 676.493 Z M 865.995 668.085 L 865.995 665.998 L 867.132 665.998 C 867.587 665.998 867.955 665.652 867.955 665.225 L 867.955 663.756 L 870.245 663.756 L 870.245 665.998 L 872.642 665.998 L 872.642 668.085 L 870.245 668.085 L 870.245 673.428 C 870.245 673.93 870.439 674.569 871.43 674.569 C 872.1 674.569 872.402 674.508 872.777 674.447 L 872.777 676.4 C 872.777 676.4 872.119 676.594 871.21 676.594 C 868.649 676.594 867.957 674.79 867.957 673.522 L 867.957 668.085 L 865.997 668.085 L 865.995 668.085 Z M 847.244 665.998 L 844.691 665.998 L 848.701 676.488 L 850.761 676.488 L 853.019 669.757 L 855.286 676.488 L 857.353 676.488 L 861.357 665.998 L 858.826 665.998 L 856.338 672.749 L 854.038 665.998 L 851.981 665.998 L 849.708 672.797 L 847.242 665.998 L 847.244 665.998 Z M 828.363 671.327 C 828.324 674.018 830.533 676.703 834.26 676.703 C 837.126 676.703 838.624 675.126 839.266 673.749 L 837.44 672.803 C 836.864 673.49 835.975 674.682 834.259 674.682 C 832.164 674.682 830.918 673.341 830.798 672.071 L 839.265 672.071 C 839.399 671.583 839.534 670.361 839.207 669.392 C 838.593 667.565 836.973 665.783 834.012 665.783 C 831.051 665.783 828.361 667.761 828.361 671.326 L 828.363 671.327 Z M 830.857 670.039 L 836.984 670.039 C 836.885 669.301 835.948 667.805 834.013 667.805 C 832.548 667.8 831.258 668.714 830.857 670.039 Z M 814.827 671.327 C 814.896 674.348 817.165 676.708 820.584 676.708 C 822.549 676.708 823.738 675.891 824.173 675.555 L 824.173 676.495 L 826.447 676.495 L 826.447 661.984 L 824.143 661.984 L 824.143 666.947 C 823.384 666.327 822.199 665.778 820.61 665.778 C 817.115 665.778 814.756 668.309 814.827 671.327 Z M 817.224 671.189 C 817.224 673.113 818.546 674.588 820.584 674.588 C 822.544 674.646 824.161 673.157 824.133 671.317 C 824.133 668.962 822.284 667.898 820.525 667.898 C 818.766 667.898 817.222 669.268 817.222 671.189 L 817.224 671.189 Z M 957.575 671.141 C 957.506 668.121 955.238 665.759 951.818 665.759 C 949.854 665.759 948.665 666.58 948.23 666.914 L 948.23 665.974 L 945.956 665.974 L 945.956 680.096 L 948.261 680.096 L 948.261 675.522 C 949.018 676.141 950.205 676.69 951.792 676.69 C 955.289 676.69 957.645 674.159 957.575 671.141 Z M 955.179 671.278 C 955.179 669.357 953.857 667.882 951.818 667.882 C 949.859 667.824 948.243 669.31 948.27 671.153 C 948.27 673.508 950.119 674.571 951.877 674.571 C 953.637 674.571 955.179 673.2 955.179 671.278 Z M 975.205 676.535 L 975.205 665.992 L 977.501 665.992 L 977.501 666.648 C 978.16 666.054 979.329 665.815 980.191 665.815 C 982.849 665.815 984.725 667.675 984.686 670.022 L 984.686 676.535 L 982.362 676.535 L 982.362 670.213 C 982.362 669.511 981.972 667.911 979.958 667.911 C 978.183 667.911 977.501 669.209 977.501 670.213 L 977.501 676.535 L 975.205 676.535 Z M 919.595 676.5 L 919.595 662.194 L 921.58 662.194 L 929.293 672.118 L 929.293 662.194 L 931.711 662.194 L 931.711 676.5 L 929.708 676.5 L 922.008 666.542 L 922.008 676.5 L 919.594 676.5 L 919.595 676.5 Z M 789.978 676.495 L 787.707 676.495 L 787.707 663.143 L 789.563 663.143 L 794.439 669.324 L 799.297 663.151 L 801.183 663.151 L 801.183 676.493 L 798.882 676.493 L 798.882 667.24 L 794.439 672.918 L 789.978 667.206 L 789.978 676.495 Z" fill="#ababab88" stroke="none" style=""/>
</svg>