<?xml version="1.0" encoding="utf-8" standalone="yes"?>
<!DOCTYPE svg PUBLIC "-//W3C//DTD SVG 1.1//EN" "http://www.w3.org/Graphics/SVG/1.1/DTD/svg11.dtd">
<svg style="fill:none;stroke:none;fill-rule:evenodd;clip-rule:evenodd;stroke-linecap:round;stroke-linejoin:round;stroke-miterlimit:1.5;" version="1.1" xmlns="http://www.w3.org/2000/svg" xmlns:xlink="http://www.w3.org/1999/xlink" width="756" height="528" viewBox="0 0 756 528"><style class="text-font-style fontImports" data-font-family="Roboto">@import url(https://fonts.googleapis.com/css2?family=Roboto:wght@400;700&amp;amp;display=block);</style><g id="items" style="isolation: isolate"><g id="blend" style="mix-blend-mode: normal"><g id="g-root-cp_1_g-1_1hf36fuv5jqbv-fill" data-item-order="-305843" transform="translate(38, 122)"></g><g id="g-root-cp_2_g-2_1hf36fuv5jqbw-fill" data-item-order="-305835" transform="translate(266, 122)"></g><g id="g-root-cp_3_g-3_1hf36fuv5jqbx-fill" data-item-order="-305827" transform="translate(494, 122)"></g><g id="g-root-cp_1_g-1_1_1czw5eiv5jnye-fill" data-item-order="-305817" transform="translate(38, 314)"></g><g id="g-root-cp_2_g-2_1_1czw5eiv5jnyf-fill" data-item-order="-305799" transform="translate(266, 314)"></g><g id="g-root-cp_3_g-3_1_1czw5eiv5jnyg-fill" data-item-order="-305781" transform="translate(494, 314)"></g><g id="g-root-tx_pdpscala_18k2na2v5joqp-fill" data-item-order="0" transform="translate(278, 38)"><g id="tx_pdpscala_18k2na2v5joqp-fill-merged" stroke="none" fill="#f4f4f4" fill-opacity="1"><g><text style="font: bold 25px &quot;Roboto&quot;, sans-serif; white-space: pre;" transform="translate(100, 28)" font-weight="bold" font-size="25px" font-family="'Roboto', sans-serif"><tspan x="-85.73" y="15" dominant-baseline="ideographic">PDP Scalability</tspan></text></g></g></g><g id="g-root-ic_chec_hxs3miv5joqq-fill" data-item-order="0" transform="translate(80, 158)"></g><g id="g-root-ic_pin_zrk0gqv5mia1-fill" data-item-order="0" transform="translate(308, 158)"></g><g id="g-root-ic_phon_94mzq2v5pczo-fill" data-item-order="0" transform="translate(536, 158)"></g><g id="g-root-tx_scaletoa_9mgkav5paml-fill" data-item-order="0" transform="translate(80, 338)"><g id="tx_scaletoa_9mgkav5paml-fill-merged" stroke="none" fill="#a6da37" fill-opacity="1"><g><text style="font: bold 20px &quot;Roboto&quot;, sans-serif; white-space: pre;" transform="translate(70, 34)" font-weight="bold" font-size="20px" font-family="'Roboto', sans-serif"><tspan x="-57.1" y="0" dominant-baseline="ideographic">Scale to any </tspan><tspan x="-21.77" y="24" dominant-baseline="ideographic">load</tspan></text></g></g></g><g id="g-root-tx_deployan_4gpbh6v5qqkv-fill" data-item-order="0" transform="translate(320, 338)"><g id="tx_deployan_4gpbh6v5qqkv-fill-merged" stroke="none" fill="#1ac3fb" fill-opacity="1"><g><text style="font: bold 20px &quot;Roboto&quot;, sans-serif; white-space: pre;" transform="translate(58, 34)" font-weight="bold" font-size="20px" font-family="'Roboto', sans-serif"><tspan x="-30.78" y="0" dominant-baseline="ideographic">Deploy </tspan><tspan x="-43.3" y="24" dominant-baseline="ideographic">anywhere</tspan></text></g></g></g><g id="g-root-tx_achieveh_qp1s9mv5qqde-fill" data-item-order="0" transform="translate(530, 338)"><g id="tx_achieveh_qp1s9mv5qqde-fill-merged" stroke="none" fill="#43dd93" fill-opacity="1"><g><text style="font: bold 20px &quot;Roboto&quot;, sans-serif; white-space: pre;" transform="translate(76, 34)" font-weight="bold" font-size="20px" font-family="'Roboto', sans-serif"><tspan x="-60.44" y="0" dominant-baseline="ideographic">Achieve high </tspan><tspan x="-50.74" y="24" dominant-baseline="ideographic">availability</tspan></text></g></g></g><g id="g-root-tx_addmorep_13ymvdmv5qps6-fill" data-item-order="0" transform="translate(74, 398)"><g id="tx_addmorep_13ymvdmv5qps6-fill-merged" stroke="none" fill="#a6da37" fill-opacity="1"><g><text style="font: 15px &quot;Roboto&quot;, sans-serif; white-space: pre;" transform="translate(76, 40)" font-size="15px" font-family="'Roboto', sans-serif"><tspan x="-50.62" y="-9" dominant-baseline="ideographic">Add more PDP </tspan><tspan x="-60.82" y="9" dominant-baseline="ideographic">replicas to handle </tspan><tspan x="-57.45" y="27" dominant-baseline="ideographic">increased traffic.</tspan></text></g></g></g><g id="g-root-tx_runpdpsc_1hbcbx6v5qqdc-fill" data-item-order="0" transform="translate(296, 398)"><g id="tx_runpdpsc_1hbcbx6v5qqdc-fill-merged" stroke="none" fill="#1ac3fb" fill-opacity="1"><g><text style="font: 15px &quot;Roboto&quot;, sans-serif; white-space: pre;" transform="translate(82, 40)" font-size="15px" font-family="'Roboto', sans-serif"><tspan x="-63.14" y="-9" dominant-baseline="ideographic">Run PDPs close to </tspan><tspan x="-67.56" y="9" dominant-baseline="ideographic">your applications or </tspan><tspan x="-31.61" y="27" dominant-baseline="ideographic">centrally.</tspan></text></g></g></g><g id="g-root-tx_multiple_2r8m2v5qqdf-fill" data-item-order="0" transform="translate(518, 398)"><g id="tx_multiple_2r8m2v5qqdf-fill-merged" stroke="none" fill="#43dd93" fill-opacity="1"><g><text style="font: 15px &quot;Roboto&quot;, sans-serif; white-space: pre;" transform="translate(88, 40)" font-size="15px" font-family="'Roboto', sans-serif"><tspan x="-72.6" y="-9" dominant-baseline="ideographic">Multiple replicas with </tspan><tspan x="-54.05" y="9" dominant-baseline="ideographic">no coordination </tspan><tspan x="-34.58" y="27" dominant-baseline="ideographic">overhead.</tspan></text></g></g></g><g id="g-root-cp_1_g-1_1hf36fuv5jqbv-stroke" data-item-order="-305843" transform="translate(38, 122)"><g id="cp_1_g-1_1hf36fuv5jqbv-stroke" fill="none" stroke-linecap="round" stroke-linejoin="round" stroke-miterlimit="4" stroke="#a6da37" stroke-width="2" stroke-opacity="1"><g><path d="M 23 201L 201 201"></path></g></g></g><g id="g-root-cp_2_g-2_1hf36fuv5jqbw-stroke" data-item-order="-305835" transform="translate(266, 122)"><g id="cp_2_g-2_1hf36fuv5jqbw-stroke" fill="none" stroke-linecap="round" stroke-linejoin="round" stroke-miterlimit="4" stroke="#4f91fc" stroke-width="2" stroke-opacity="1"><g><path d="M 23 201L 201 201"></path></g></g></g><g id="g-root-cp_3_g-3_1hf36fuv5jqbx-stroke" data-item-order="-305827" transform="translate(494, 122)"><g id="cp_3_g-3_1hf36fuv5jqbx-stroke" fill="none" stroke-linecap="round" stroke-linejoin="round" stroke-miterlimit="4" stroke="#43dd93" stroke-width="2" stroke-opacity="1"><g><path d="M 23 201L 201 201"></path></g></g></g><g id="g-root-cp_1_g-1_1_1czw5eiv5jnye-stroke" data-item-order="-305817" transform="translate(38, 314)"></g><g id="g-root-cp_2_g-2_1_1czw5eiv5jnyf-stroke" data-item-order="-305799" transform="translate(266, 314)"></g><g id="g-root-cp_3_g-3_1_1czw5eiv5jnyg-stroke" data-item-order="-305781" transform="translate(494, 314)"></g><g id="g-root-tx_pdpscala_18k2na2v5joqp-stroke" data-item-order="0" transform="translate(278, 38)"></g><g id="g-root-ic_chec_hxs3miv5joqq-stroke" data-item-order="0" transform="translate(80, 158)"><g id="ic_chec_hxs3miv5joqq-stroke" fill="none" stroke-linecap="round" stroke-linejoin="round" stroke-miterlimit="4" stroke="#a6da37" stroke-width="2" stroke-opacity="1"><g><path d="M 99.75 46.000351L 39.75005 46.000351L 39.75005 126.000504L 99.75 126.000504L 99.75 46.000351ZM 109.75 73.999496L 125.75 73.999496M 109.75 93.999496L 125.75 93.999496M 109.75 113.999496L 120.75 113.999496C 123.75 113.999496 125.75 111.999504 125.75 108.999496L 125.75 58.999649C 125.75 55.999649 123.75 53.999649 120.75 53.999649L 109.75 53.999649M 42.25005 72.499496L 99.75 72.499496M 42.25005 99.999504L 99.75 99.999504M 29.74995 73.999496L 13.75 73.999496M 29.74995 93.999496L 13.75 93.999496M 29.75 113.999496L 18.75 113.999496C 15.75 113.999496 13.75 111.999504 13.75 108.999496L 13.75 58.999649C 13.75 55.999649 15.75 53.999649 18.75 53.999649L 29.75 53.999649M 10 10M 62.25 18.999649L 69.75 25.999599L 82.25 13.999635"></path></g></g></g><g id="g-root-ic_pin_zrk0gqv5mia1-stroke" data-item-order="0" transform="translate(308, 158)"><g id="ic_pin_zrk0gqv5mia1-stroke" fill="none" stroke-linecap="round" stroke-linejoin="round" stroke-miterlimit="4" stroke="#1ac3fb" stroke-width="2" stroke-opacity="1"><g><path d="M 20.004999 97.580002L 70.584999 97.580002M 23.075001 37.579998L 117.995003 37.579998M 73.014999 67.580002L 13.07 67.580002M 67.404999 127.5C 37.401245 125.843414 13.732699 101.363358 13.08814 71.320816C 12.44358 41.278278 35.040398 15.805608 64.945496 12.863677C 94.850586 9.921747 121.977959 30.502775 127.200005 60.095001M 66.860001 12.71C 36.860001 45.209999 37.404999 87.5 67.404999 127.5M 74.165001 12.71C 85.366119 24.375221 92.799767 39.139736 95.499992 55.084995M 95 86.474998C 95 90.617142 98.357864 93.974998 102.5 93.974998C 106.642143 93.974998 110 90.617142 110 86.474998C 110 82.33287 106.642143 78.974998 102.5 78.974998C 98.357864 78.974998 95 82.33287 95 86.474998ZM 125 86.5C 125 101.5 102.5 124 102.5 124C 102.5 124 80 101.5 80 86.5C 80 74.073593 90.073593 64 102.5 64C 114.926407 64 125 74.073593 125 86.5Z"></path></g></g></g><g id="g-root-ic_phon_94mzq2v5pczo-stroke" data-item-order="0" transform="translate(536, 158)"><g id="ic_phon_94mzq2v5pczo-stroke" fill="none" stroke-linecap="round" stroke-linejoin="round" stroke-miterlimit="4" stroke="#43dd93" stroke-width="2" stroke-opacity="1"><g><path d="M 70 88.75C 70.690353 88.75 71.25 89.309647 71.25 90C 71.25 90.690353 70.690353 91.25 70 91.25C 69.309647 91.25 68.75 90.690353 68.75 90C 68.75 89.309647 69.309647 88.75 70 88.75M 52.5 35L 87.5 35C 87.5 35 92.5 35 92.5 40L 92.5 100C 92.5 100 92.5 105 87.5 105L 52.5 105C 52.5 105 47.5 105 47.5 100L 47.5 40C 47.5 40 47.5 35 52.5 35M 17.5 28.875L 17.5 67.059998C 17.800938 92.905701 34.216515 115.810425 58.595001 124.399994L 64.199997 126.470001C 67.944412 127.845078 72.05558 127.845078 75.800003 126.469994L 81.404999 124.399994C 105.783478 115.810425 122.199059 92.905701 122.499992 67.059998L 122.5 28.875C 122.489731 25.808475 120.652771 23.043194 117.830002 21.844999C 102.683975 15.52327 86.411652 12.343992 70 12.5C 53.588352 12.343992 37.316032 15.52327 22.17 21.844999C 19.347235 23.043194 17.510269 25.808475 17.5 28.875Z"></path></g></g></g><g id="g-root-tx_scaletoa_9mgkav5paml-stroke" data-item-order="0" transform="translate(80, 338)"></g><g id="g-root-tx_deployan_4gpbh6v5qqkv-stroke" data-item-order="0" transform="translate(320, 338)"></g><g id="g-root-tx_achieveh_qp1s9mv5qqde-stroke" data-item-order="0" transform="translate(530, 338)"></g><g id="g-root-tx_addmorep_13ymvdmv5qps6-stroke" data-item-order="0" transform="translate(74, 398)"></g><g id="g-root-tx_runpdpsc_1hbcbx6v5qqdc-stroke" data-item-order="0" transform="translate(296, 398)"></g><g id="g-root-tx_multiple_2r8m2v5qqdf-stroke" data-item-order="0" transform="translate(518, 398)"></g></g></g><path id="w18f342jv5fitd" d="M65.283 12.757a.35.35 0 0 0 .584.157l5.203-5.141-6.183 3.523.396 1.461zm-2.216-11.7a.35.35 0 0 0-.522.305v3.111l3.276-1.868-2.754-1.548zm3.728 2.105l-4.25 2.421v2.445l6.391-3.644-2.141-1.222zm4.708 3.303a.35.35 0 0 0 0-.609l-1.592-.9-7.365 4.199v1.782a.35.35 0 0 0 .523.305l8.435-4.777z M44.542 2.513c0-.433.355-.783.792-.783s.792.35.792.783-.355.783-.792.783-.792-.35-.792-.783zm59.171 0c0-.433.355-.783.792-.783s.792.35.792.783-.355.783-.792.783-.792-.35-.792-.783zm-85.951 7.636h-1.27v-.487c-.276.201-.864.609-1.881.609-1.202 0-2.274-.794-2.137-2.078.118-1.106 1.153-1.584 1.848-1.727l2.17-.345c0-.539-.29-.956-1.064-1.006s-1.21.305-1.571 1.017l-1.124-.605c1.218-2.631 5.029-1.764 5.029.414v4.207zm-1.27-2.86c.006.396-.062 1.112-.819 1.59-.587.37-1.841.299-1.903-.395-.049-.555.461-.791.906-.898l1.816-.297zm72.662 2.86h-1.27v-.487c-.276.201-.864.609-1.881.609-1.202 0-2.274-.794-2.137-2.078.118-1.106 1.153-1.584 1.848-1.727l2.17-.345c0-.539-.29-.956-1.064-1.006s-1.21.305-1.571 1.017l-1.124-.605c1.218-2.631 5.029-1.764 5.029.414v4.207zm-1.27-2.86c.006.396-.062 1.112-.82 1.59-.587.37-1.841.299-1.903-.395-.049-.555.461-.791.906-.898l1.816-.297zM99.096 10.149H97.85v-8.45h1.246v4.895l2.68-2.559h1.738l-2.633 2.535 2.715 3.578h-1.556l-2.077-2.707-.867.844v1.863zm6.053-6.114h-1.255v6.113h1.255V4.035zm-59.2 0h-1.255v6.113h1.255V4.035zm5.584 6.113V1.697h1.255v2.695c.361-.346 1-.485 1.47-.485 1.452 0 2.477 1.082 2.457 2.448v3.792h-1.27v-3.68c0-.408-.214-1.339-1.315-1.339-.968 0-1.342.756-1.342 1.339v3.681h-1.255zm-4.76-4.894V4.039h.621a.45.45 0 0 0 .45-.45v-.855h1.251v1.305h1.309v1.215h-1.309v3.109c0 .293.105.664.648.664.365 0 .531-.035.736-.07v1.137s-.361.113-.857.113c-1.398 0-1.777-1.051-1.777-1.788V5.254h-1.071zM36.528 4.039h-1.394l2.191 6.106h1.125l1.234-3.918 1.238 3.918h1.129l2.188-6.106h-1.383l-1.359 3.93-1.256-3.93h-1.124l-1.242 3.957-1.348-3.957zM26.212 7.141c-.02 1.566 1.187 3.129 3.223 3.129 1.566 0 2.383-.918 2.734-1.719L31.172 8c-.315.399-.801 1.094-1.738 1.094-1.145 0-1.825-.781-1.891-1.52h4.625c.074-.284.148-.995-.03-1.559-.336-1.064-1.221-2.102-2.839-2.102s-3.088 1.152-3.088 3.227zm1.363-.75h3.348c-.055-.43-.566-1.301-1.623-1.301a1.79 1.79 0 0 0-1.725 1.301zm-8.758.75c.038 1.758 1.277 3.133 3.145 3.133 1.074 0 1.723-.477 1.961-.672v.547h1.242V1.703h-1.258v2.888c-.414-.36-1.062-.68-1.93-.68-1.91 0-3.198 1.473-3.16 3.23zm1.309-.08c0 1.119.723 1.978 1.836 1.978a1.88 1.88 0 0 0 1.94-1.904c0-1.371-1.011-1.99-1.972-1.99s-1.805.798-1.805 1.916zm76.683-.028C96.771 5.275 95.532 3.9 93.664 3.9c-1.074 0-1.723.477-1.961.672v-.547h-1.242v8.22h1.258V9.583c.414.36 1.063.68 1.93.68 1.91 0 3.198-1.473 3.16-3.23zm-1.309.08c0-1.119-.723-1.978-1.836-1.978a1.88 1.88 0 0 0-1.94 1.904c0 1.371 1.011 1.99 1.972 1.99S95.5 8.231 95.5 7.113zM106.441 10.173V4.036h1.254v.382c.361-.346 1-.485 1.47-.485 1.452 0 2.477 1.082 2.457 2.448v3.792h-1.27V6.492c0-.408-.214-1.339-1.315-1.339-.969 0-1.342.756-1.342 1.339v3.681h-1.254zm-30.383-.021V1.824h1.084l4.215 5.777V1.824h1.32v8.328h-1.094l-4.207-5.796v5.796h-1.319zM5.24 10.149H4V2.377h1.014l2.664 3.597 2.654-3.592h1.03v7.766h-1.256V4.762L7.678 8.068 5.24 4.742v5.407z" transform="translate(629, 503)" fill="#ababab88" stroke="none"></path></svg>