<?xml version="1.0" encoding="utf-8" standalone="yes"?>
<!DOCTYPE svg PUBLIC "-//W3C//DTD SVG 1.1//EN" "http://www.w3.org/Graphics/SVG/1.1/DTD/svg11.dtd">
<svg style="fill:none;stroke:none;fill-rule:evenodd;clip-rule:evenodd;stroke-linecap:round;stroke-linejoin:round;stroke-miterlimit:1.5;" version="1.1" xmlns="http://www.w3.org/2000/svg" xmlns:xlink="http://www.w3.org/1999/xlink" width="1047" height="769" viewBox="0 0 1047 769"><style class="text-font-style fontImports" data-font-family="Roboto">@import url(https://fonts.googleapis.com/css2?family=Roboto:wght@400;700&amp;amp;display=block);</style><g id="items" style="isolation: isolate"><g id="blend" style="mix-blend-mode: normal"><g id="g-root-cp_1_circle-1_zp1etlx3728b-fill" data-item-order="-672314" transform="translate(109.83984375, 182)"></g><g id="g-root-sy_1_Subtract_v9uds9x36zus-fill" data-item-order="-672306" transform="translate(145.83987426757812, 254)"></g><g id="g-root-sy_2_Subtract_v9uds9x36zut-fill" data-item-order="-672296" transform="translate(329.35986328125, 262)"></g><g id="g-root-sy_2_Subtract-start_v9uds9x36zuu-fill" data-item-order="-672294" transform="translate(326.3599853515625, 255)"></g><g id="g-root-cp_3_circle-3_v9uds9x36zuv-fill" data-item-order="-672288" transform="translate(477.51983642578125, 182)"></g><g id="g-root-sy_3_Subtract_qu0vntx370n4-fill" data-item-order="-672280" transform="translate(513.5198974609375, 254)"></g><g id="g-root-sy_4_Subtract_qu0vntx370n5-fill" data-item-order="-672270" transform="translate(697.0398559570312, 262)"></g><g id="g-root-sy_4_Subtract-start_qu0vntx370n6-fill" data-item-order="-672268" transform="translate(694.0399780273438, 255)"></g><g id="g-root-cp_5_circle-5_hydvexx371fv-fill" data-item-order="-672262" transform="translate(845.1998291015625, 182)"></g><g id="g-root-sy_5_Subtract_hydvexx371fw-fill" data-item-order="-672254" transform="translate(881.1998291015625, 254)"></g><g id="g-root-cp_1_g-1_1_hydvexx371fx-fill" data-item-order="-672248" transform="translate(85, 319)"></g><g id="g-root-cp_0_g-0_dikdahx37286-fill" data-item-order="-672242" transform="translate(30, 339)"></g><g id="g-root-cp_2_g-2_1_dikdahx37287-fill" data-item-order="-672222" transform="translate(269, 319)"></g><g id="g-root-cp_0_g-0_1_dikdahx37288-fill" data-item-order="-672216" transform="translate(214, 339)"></g><g id="g-root-cp_1_g-1_2_7qc09x370nd-fill" data-item-order="-672202" transform="translate(214, 339)"></g><g id="g-root-cp_3_g-3_1_7qc09x370ne-fill" data-item-order="-672190" transform="translate(453, 319)"></g><g id="g-root-cp_0_g-0_2_7qc09x370nf-fill" data-item-order="-672184" transform="translate(398, 339)"></g><g id="g-root-cp_2_g-2_2_7qc09x370ng-fill" data-item-order="-672170" transform="translate(398, 339)"></g><g id="g-root-cp_4_g-4_1_7qc09x370nh-fill" data-item-order="-672158" transform="translate(637, 319)"></g><g id="g-root-cp_0_g-0_3_1ut0vuxx3718m-fill" data-item-order="-672152" transform="translate(582, 339)"></g><g id="g-root-cp_3_g-3_2_1ut0vuxx3718n-fill" data-item-order="-672138" transform="translate(582, 339)"></g><g id="g-root-cp_5_g-5_1_1ut0vuxx3718o-fill" data-item-order="-672126" transform="translate(821, 319)"></g><g id="g-root-cp_0_g-0_4_1qd7dqhx3720x-fill" data-item-order="-672120" transform="translate(766, 339)"></g><g id="g-root-cp_4_g-4_2_1qd7dqhx3720y-fill" data-item-order="-672106" transform="translate(766, 339)"></g><g id="g-root-sy_1_Subtract_1_1qd7dqhx3720z-fill" data-item-order="-672090" transform="translate(145.9998779296875, 471)"></g><g id="g-root-sy_1_Subtract-start_1hi6ukpx36znw-fill" data-item-order="-672088" transform="translate(143, 536)"></g><g id="g-root-sy_2_Subtract_1_1hi6ukpx36znx-fill" data-item-order="-672076" transform="translate(329.83984375, 471)"></g><g id="g-root-cp_2_circle-2_1hi6ukpx36zny-fill" data-item-order="-672074" transform="translate(293.83984375, 543)"></g><g id="g-root-sy_3_Subtract_1_1hi6ukpx36znz-fill" data-item-order="-672064" transform="translate(513.6798706054688, 471)"></g><g id="g-root-sy_3_Subtract-start_1d2dcg9x370g8-fill" data-item-order="-672062" transform="translate(510.67999267578125, 536)"></g><g id="g-root-sy_4_Subtract_1_1d2dcg9x370g9-fill" data-item-order="-672050" transform="translate(697.5198364257812, 471)"></g><g id="g-root-cp_4_circle-4_1d2dcg9x370ga-fill" data-item-order="-672048" transform="translate(661.5198364257812, 543)"></g><g id="g-root-sy_5_Subtract_1_18mjubtx3718j-fill" data-item-order="-672038" transform="translate(881.3598022460938, 471)"></g><g id="g-root-sy_5_Subtract-start_18mjubtx3718k-fill" data-item-order="-672036" transform="translate(878.3599243164062, 536)"></g><g id="g-root-tx_pdppolic_1qa30axx38glo-fill" data-item-order="0" transform="translate(434, 375)"><g id="tx_pdppolic_1qa30axx38glo-fill-merged" stroke="none" fill="#43dd93" fill-opacity="1"><g><text style="font: bold 20px &quot;Roboto&quot;, sans-serif; white-space: pre;" transform="translate(10, 34)" font-weight="bold" font-size="20px" font-family="'Roboto', sans-serif"><tspan x="2" y="0" dominant-baseline="ideographic">PDP Policy </tspan><tspan x="2" y="24" dominant-baseline="ideographic">Evaluation</tspan></text></g></g></g><g id="g-root-tx_pdpretur_1cz8z0px38f0u-fill" data-item-order="0" transform="translate(618, 375)"><g id="tx_pdpretur_1cz8z0px38f0u-fill-merged" stroke="none" fill="#a6da37" fill-opacity="1"><g><text style="font: bold 20px &quot;Roboto&quot;, sans-serif; white-space: pre;" transform="translate(10, 34)" font-weight="bold" font-size="20px" font-family="'Roboto', sans-serif"><tspan x="2" y="0" dominant-baseline="ideographic">PDP Returns </tspan><tspan x="2" y="24" dominant-baseline="ideographic">Decision</tspan></text></g></g></g><g id="g-root-tx_pepcalls_v4ul3dx38g7a-fill" data-item-order="0" transform="translate(257.67999267578125, 170)"><g id="tx_pepcalls_v4ul3dx38g7a-fill-merged" stroke="none" fill="#f4f4f4" fill-opacity="1"><g><text style="font: 15px &quot;Roboto&quot;, sans-serif; white-space: pre;" transform="translate(82, 46)" font-size="15px" font-family="'Roboto', sans-serif"><tspan x="-65.77" y="-18" dominant-baseline="ideographic">PEP calls the Policy </tspan><tspan x="-69.72" y="0" dominant-baseline="ideographic">Decision Point (PDP) </tspan><tspan x="-59.02" y="18" dominant-baseline="ideographic">with the collected </tspan><tspan x="-25.22" y="36" dominant-baseline="ideographic">context</tspan></text></g></g></g><g id="g-root-tx_1_1cvi4i1x38gzu-fill" data-item-order="0" transform="translate(134, 200)"><g id="tx_1_1cvi4i1x38gzu-fill-merged" stroke="none" fill="#4f91fc" fill-opacity="1"><g><text style="font: 22.5px &quot;Roboto&quot;, sans-serif; white-space: pre;" transform="translate(22, 28)" font-size="22.5px" font-family="'Roboto', sans-serif"><tspan x="-6.32" y="13.25" dominant-baseline="ideographic">1</tspan></text></g></g></g><g id="g-root-tx_pdprespo_4ik1ftx38g7e-fill" data-item-order="0" transform="translate(625.3599853515625, 98)"><g id="tx_pdprespo_4ik1ftx38g7e-fill-merged" stroke="none" fill="#a6da37" fill-opacity="1"><g><text style="font: 20px &quot;Roboto&quot;, sans-serif; white-space: pre;" transform="translate(82, 46)" font-size="20px" font-family="'Roboto', sans-serif"><tspan x="-67.97" y="-12" dominant-baseline="ideographic">PDP Responds </tspan><tspan x="-51.62" y="12" dominant-baseline="ideographic">with Grant/</tspan><tspan x="-24.17" y="36" dominant-baseline="ideographic">Deny</tspan></text></g></g></g><g id="g-root-tx_pdpautho_dg2gy1x38ef6-fill" data-item-order="0" transform="translate(250, 363)"><g id="tx_pdpautho_dg2gy1x38ef6-fill-merged" stroke="none" fill="#1ac3fb" fill-opacity="1"><g><text style="font: bold 20px &quot;Roboto&quot;, sans-serif; white-space: pre;" transform="translate(10, 46)" font-weight="bold" font-size="20px" font-family="'Roboto', sans-serif"><tspan x="2" y="-12" dominant-baseline="ideographic">PDP </tspan><tspan x="2" y="12" dominant-baseline="ideographic">Authorization </tspan><tspan x="2" y="36" dominant-baseline="ideographic">Call</tspan></text></g></g></g><g id="g-root-tx_requestc_v6q0cpx38f7s-fill" data-item-order="0" transform="translate(66, 363)"><g id="tx_requestc_v6q0cpx38f7s-fill-merged" stroke="none" fill="#4f91fc" fill-opacity="1"><g><text style="font: bold 20px &quot;Roboto&quot;, sans-serif; white-space: pre;" transform="translate(10, 46)" font-weight="bold" font-size="20px" font-family="'Roboto', sans-serif"><tspan x="2" y="-12" dominant-baseline="ideographic">Request </tspan><tspan x="2" y="12" dominant-baseline="ideographic">Context </tspan><tspan x="2" y="36" dominant-baseline="ideographic">Gathering</tspan></text></g></g></g><g id="g-root-tx_pepsends_18gb3gpx38emc-fill" data-item-order="0" transform="translate(257.67999267578125, 110)"><g id="tx_pepsends_18gb3gpx38emc-fill-merged" stroke="none" fill="#1ac3fb" fill-opacity="1"><g><text style="font: 20px &quot;Roboto&quot;, sans-serif; white-space: pre;" transform="translate(82, 34)" font-size="20px" font-family="'Roboto', sans-serif"><tspan x="-48.35" y="0" dominant-baseline="ideographic">PEP Sends </tspan><tspan x="-69.42" y="24" dominant-baseline="ideographic">Request to PDP</tspan></text></g></g></g><g id="g-root-tx_policyde_1q6ymvdx38few-fill" data-item-order="0" transform="translate(267.5, 38)"><g id="tx_policyde_1q6ymvdx38few-fill-merged" stroke="none" fill="#f4f4f4" fill-opacity="1"><g><text style="font: bold 25px &quot;Roboto&quot;, sans-serif; white-space: pre;" transform="translate(256, 28)" font-weight="bold" font-size="25px" font-family="'Roboto', sans-serif"><tspan x="-241.18" y="15" dominant-baseline="ideographic">Policy Decision and Enforcement Workflow</tspan></text></g></g></g><g id="g-root-tx_pepenfor_metumhx38etc-fill" data-item-order="0" transform="translate(809.3599243164062, 615)"><g id="tx_pepenfor_metumhx38etc-fill-merged" stroke="none" fill="#f4f4f4" fill-opacity="1"><g><text style="font: 15px &quot;Roboto&quot;, sans-serif; white-space: pre;" transform="translate(82, 58)" font-size="15px" font-family="'Roboto', sans-serif"><tspan x="-58.32" y="-27" dominant-baseline="ideographic">PEP enforces the </tspan><tspan x="-68.95" y="-9" dominant-baseline="ideographic">decision, allowing or </tspan><tspan x="-54.78" y="9" dominant-baseline="ideographic">blocking access </tspan><tspan x="-47.95" y="27" dominant-baseline="ideographic">based on PDP </tspan><tspan x="-31.85" y="45" dominant-baseline="ideographic">response</tspan></text></g></g></g><g id="g-root-tx_3_4ik1ftx38g7c-fill" data-item-order="0" transform="translate(501.67999267578125, 200)"><g id="tx_3_4ik1ftx38g7c-fill-merged" stroke="none" fill="#43dd93" fill-opacity="1"><g><text style="font: 22.5px &quot;Roboto&quot;, sans-serif; white-space: pre;" transform="translate(22, 28)" font-size="22.5px" font-family="'Roboto', sans-serif"><tspan x="-6.32" y="13.25" dominant-baseline="ideographic">3</tspan></text></g></g></g><g id="g-root-tx_pdpretur_1lt0k09x38f7o-fill" data-item-order="0" transform="translate(625.3599853515625, 182)"><g id="tx_pdpretur_1lt0k09x38f7o-fill-merged" stroke="none" fill="#f4f4f4" fill-opacity="1"><g><text style="font: 15px &quot;Roboto&quot;, sans-serif; white-space: pre;" transform="translate(82, 40)" font-size="15px" font-family="'Roboto', sans-serif"><tspan x="-45.78" y="-9" dominant-baseline="ideographic">PDP returns a </tspan><tspan x="-53.83" y="9" dominant-baseline="ideographic">GRANT or DENY </tspan><tspan x="-64.6" y="27" dominant-baseline="ideographic">decision to the PEP</tspan></text></g></g></g><g id="g-root-tx_pepcolle_hx4x8px38ft6-fill" data-item-order="0" transform="translate(80, 555)"><g id="tx_pepcolle_hx4x8px38ft6-fill-merged" stroke="none" fill="#4f91fc" fill-opacity="1"><g><text style="font: 20px &quot;Roboto&quot;, sans-serif; white-space: pre;" transform="translate(76, 34)" font-size="20px" font-family="'Roboto', sans-serif"><tspan x="-57.92" y="0" dominant-baseline="ideographic">PEP Collects </tspan><tspan x="-60.69" y="24" dominant-baseline="ideographic">Request Data</tspan></text></g></g></g><g id="g-root-tx_2_1lw4xftx38gee-fill" data-item-order="0" transform="translate(317.8399963378906, 561)"><g id="tx_2_1lw4xftx38gee-fill-merged" stroke="none" fill="#1ac3fb" fill-opacity="1"><g><text style="font: 22.5px &quot;Roboto&quot;, sans-serif; white-space: pre;" transform="translate(22, 28)" font-size="22.5px" font-family="'Roboto', sans-serif"><tspan x="-6.32" y="13.25" dominant-baseline="ideographic">2</tspan></text></g></g></g><g id="g-root-tx_pdpevalu_1lw4xftx38geg-fill" data-item-order="0" transform="translate(441.67999267578125, 555)"><g id="tx_pdpevalu_1lw4xftx38geg-fill-merged" stroke="none" fill="#43dd93" fill-opacity="1"><g><text style="font: 20px &quot;Roboto&quot;, sans-serif; white-space: pre;" transform="translate(82, 34)" font-size="20px" font-family="'Roboto', sans-serif"><tspan x="-67.04" y="0" dominant-baseline="ideographic">PDP Evaluates </tspan><tspan x="-38.87" y="24" dominant-baseline="ideographic">Request</tspan></text></g></g></g><g id="g-root-tx_4_145he15x38flw-fill" data-item-order="0" transform="translate(685.5199584960938, 561)"><g id="tx_4_145he15x38flw-fill-merged" stroke="none" fill="#a6da37" fill-opacity="1"><g><text style="font: 22.5px &quot;Roboto&quot;, sans-serif; white-space: pre;" transform="translate(22, 28)" font-size="22.5px" font-family="'Roboto', sans-serif"><tspan x="-6.32" y="13.25" dominant-baseline="ideographic">4</tspan></text></g></g></g><g id="g-root-tx_pepenfor_quncqxx38e12-fill" data-item-order="0" transform="translate(809.3599243164062, 555)"><g id="tx_pepenfor_quncqxx38e12-fill-merged" stroke="none" fill="#ffe711" fill-opacity="1"><g><text style="font: 20px &quot;Roboto&quot;, sans-serif; white-space: pre;" transform="translate(82, 34)" font-size="20px" font-family="'Roboto', sans-serif"><tspan x="-60.16" y="0" dominant-baseline="ideographic">PEP Enforces </tspan><tspan x="-67.53" y="24" dominant-baseline="ideographic">Access Control</tspan></text></g></g></g><g id="g-root-tx_policyen_4mavyhx38e8c-fill" data-item-order="0" transform="translate(74, 615)"><g id="tx_policyen_4mavyhx38e8c-fill-merged" stroke="none" fill="#f4f4f4" fill-opacity="1"><g><text style="font: 15px &quot;Roboto&quot;, sans-serif; white-space: pre;" transform="translate(82, 46)" font-size="15px" font-family="'Roboto', sans-serif"><tspan x="-66.61" y="-18" dominant-baseline="ideographic">Policy Enforcement </tspan><tspan x="-67.13" y="0" dominant-baseline="ideographic">Point (PEP) gathers </tspan><tspan x="-60.23" y="18" dominant-baseline="ideographic">context about the </tspan><tspan x="-52.51" y="36" dominant-baseline="ideographic">current request</tspan></text></g></g></g><g id="g-root-tx_pdpevalu_1lw4xftx38gei-fill" data-item-order="0" transform="translate(441.67999267578125, 615)"><g id="tx_pdpevalu_1lw4xftx38gei-fill-merged" stroke="none" fill="#f4f4f4" fill-opacity="1"><g><text style="font: 15px &quot;Roboto&quot;, sans-serif; white-space: pre;" transform="translate(82, 58)" font-size="15px" font-family="'Roboto', sans-serif"><tspan x="-62.28" y="-27" dominant-baseline="ideographic">PDP evaluates the </tspan><tspan x="-53.37" y="-9" dominant-baseline="ideographic">request against </tspan><tspan x="-68.32" y="9" dominant-baseline="ideographic">defined policies and </tspan><tspan x="-44.85" y="27" dominant-baseline="ideographic">generates an </tspan><tspan x="-49.67" y="45" dominant-baseline="ideographic">AccessRecord</tspan></text></g></g></g><g id="g-root-tx_5_18hk1mxx38gsm-fill" data-item-order="0" transform="translate(869.3599853515625, 200)"><g id="tx_5_18hk1mxx38gsm-fill-merged" stroke="none" fill="#ffe711" fill-opacity="1"><g><text style="font: 22.5px &quot;Roboto&quot;, sans-serif; white-space: pre;" transform="translate(22, 28)" font-size="22.5px" font-family="'Roboto', sans-serif"><tspan x="-6.32" y="13.25" dominant-baseline="ideographic">5</tspan></text></g></g></g><g id="g-root-tx_pepenfor_143lyrtx38glc-fill" data-item-order="0" transform="translate(802, 375)"><g id="tx_pepenfor_143lyrtx38glc-fill-merged" stroke="none" fill="#ffe711" fill-opacity="1"><g><text style="font: bold 20px &quot;Roboto&quot;, sans-serif; white-space: pre;" transform="translate(10, 34)" font-weight="bold" font-size="20px" font-family="'Roboto', sans-serif"><tspan x="2" y="0" dominant-baseline="ideographic">PEP Enforces </tspan><tspan x="2" y="24" dominant-baseline="ideographic">Decision</tspan></text></g></g></g><g id="g-root-cp_1_circle-1_zp1etlx3728b-stroke" data-item-order="-672314" transform="translate(109.83984375, 182)"><g id="cp_1_circle-1_zp1etlx3728b-stroke" fill="none" stroke-linecap="round" stroke-linejoin="round" stroke-miterlimit="4" stroke="#4f91fc" stroke-width="2" stroke-opacity="1"><g><path d="M 10.000002 46C 10.000002 65.882251 26.117751 82 46.000002 82C 65.882253 82 82.000002 65.882251 82.000002 46C 82.000002 26.117749 65.882253 10 46.000002 10C 26.117751 10 10.000002 26.117749 10.000002 46"></path></g></g></g><g id="g-root-sy_1_Subtract_v9uds9x36zus-stroke" data-item-order="-672306" transform="translate(145.83987426757812, 254)"><g id="sy_1_Subtract_v9uds9x36zus-stroke" fill="none" stroke-linecap="round" stroke-linejoin="round" stroke-miterlimit="4" stroke="#4f91fc" stroke-width="2" stroke-opacity="1"><g><path d="M 10.000102 81.999998L 10.000002 9.999998"></path></g></g></g><g id="g-root-sy_2_Subtract_v9uds9x36zut-stroke" data-item-order="-672296" transform="translate(329.35986328125, 262)"><g id="sy_2_Subtract_v9uds9x36zut-stroke" fill="none" stroke-linecap="round" stroke-linejoin="round" stroke-miterlimit="4" stroke="#1ac3fb" stroke-width="2" stroke-opacity="1"><g><path d="M 10.000101 75L 10.000001 10"></path></g></g></g><g id="g-root-sy_2_Subtract-start_v9uds9x36zuu-stroke" data-item-order="-672294" transform="translate(326.3599853515625, 255)"><g id="sy_2_Subtract-start_v9uds9x36zuu-stroke" fill="none" stroke-linecap="round" stroke-linejoin="round" stroke-miterlimit="4" stroke="#f4f4f4" stroke-width="2" stroke-opacity="1"><g><path d="M 10.000001 13C 10.000001 14.6557 11.344301 16 13.000001 16C 14.655701 16 16 14.6557 16 13C 16 11.3443 14.655701 10 13.000001 10C 11.344301 10 10 11.3443 10.000001 13Z"></path></g></g></g><g id="g-root-cp_3_circle-3_v9uds9x36zuv-stroke" data-item-order="-672288" transform="translate(477.51983642578125, 182)"><g id="cp_3_circle-3_v9uds9x36zuv-stroke" fill="none" stroke-linecap="round" stroke-linejoin="round" stroke-miterlimit="4" stroke="#43dd93" stroke-width="2" stroke-opacity="1"><g><path d="M 10.000002 46C 10.000002 65.882251 26.117751 82 46.000002 82C 65.882253 82 82.000002 65.882251 82.000002 46C 82.000002 26.117749 65.882253 10 46.000002 10C 26.117751 10 10.000002 26.117749 10.000002 46"></path></g></g></g><g id="g-root-sy_3_Subtract_qu0vntx370n4-stroke" data-item-order="-672280" transform="translate(513.5198974609375, 254)"><g id="sy_3_Subtract_qu0vntx370n4-stroke" fill="none" stroke-linecap="round" stroke-linejoin="round" stroke-miterlimit="4" stroke="#43dd93" stroke-width="2" stroke-opacity="1"><g><path d="M 10.000102 81.999998L 10.000002 9.999998"></path></g></g></g><g id="g-root-sy_4_Subtract_qu0vntx370n5-stroke" data-item-order="-672270" transform="translate(697.0398559570312, 262)"><g id="sy_4_Subtract_qu0vntx370n5-stroke" fill="none" stroke-linecap="round" stroke-linejoin="round" stroke-miterlimit="4" stroke="#a6da37" stroke-width="2" stroke-opacity="1"><g><path d="M 10.000101 75L 10.000001 10"></path></g></g></g><g id="g-root-sy_4_Subtract-start_qu0vntx370n6-stroke" data-item-order="-672268" transform="translate(694.0399780273438, 255)"><g id="sy_4_Subtract-start_qu0vntx370n6-stroke" fill="none" stroke-linecap="round" stroke-linejoin="round" stroke-miterlimit="4" stroke="#f4f4f4" stroke-width="2" stroke-opacity="1"><g><path d="M 10.000001 13C 10.000001 14.6557 11.344301 16 13.000001 16C 14.655701 16 16 14.6557 16 13C 16 11.3443 14.655701 10 13.000001 10C 11.344301 10 10 11.3443 10.000001 13Z"></path></g></g></g><g id="g-root-cp_5_circle-5_hydvexx371fv-stroke" data-item-order="-672262" transform="translate(845.1998291015625, 182)"><g id="cp_5_circle-5_hydvexx371fv-stroke" fill="none" stroke-linecap="round" stroke-linejoin="round" stroke-miterlimit="4" stroke="#ffe711" stroke-width="2" stroke-opacity="1"><g><path d="M 10.000002 46C 10.000002 65.882251 26.117751 82 46.000002 82C 65.882253 82 82.000002 65.882251 82.000002 46C 82.000002 26.117749 65.882253 10 46.000002 10C 26.117751 10 10.000002 26.117749 10.000002 46"></path></g></g></g><g id="g-root-sy_5_Subtract_hydvexx371fw-stroke" data-item-order="-672254" transform="translate(881.1998291015625, 254)"><g id="sy_5_Subtract_hydvexx371fw-stroke" fill="none" stroke-linecap="round" stroke-linejoin="round" stroke-miterlimit="4" stroke="#ffe711" stroke-width="2" stroke-opacity="1"><g><path d="M 10.000102 81.999998L 10.000002 9.999998"></path></g></g></g><g id="g-root-cp_1_g-1_1_hydvexx371fx-stroke" data-item-order="-672248" transform="translate(85, 319)"><g id="cp_1_g-1_1_hydvexx371fx-stroke" fill="none" stroke-linecap="round" stroke-linejoin="round" stroke-miterlimit="4" stroke="#4f91fc" stroke-width="2" stroke-opacity="1"><g><path d="M 16 30L 10 10L 131 10L 139 30M 16 150L 10 170L 131 170L 139 150"></path></g></g></g><g id="g-root-cp_0_g-0_dikdahx37286-stroke" data-item-order="-672242" transform="translate(30, 339)"><g id="cp_0_g-0_dikdahx37286-stroke" fill="none" stroke-linecap="round" stroke-linejoin="round" stroke-miterlimit="4" stroke="#f4f4f4" stroke-width="2" stroke-opacity="1"><g><path d="M 34 10L 178 10M 178 130L 34 130"></path></g></g><g id="cp_0_g-0_dikdahx37286-stroke" fill="none" stroke-linecap="round" stroke-linejoin="round" stroke-miterlimit="4" stroke="#f4f4f4" stroke-width="2" stroke-opacity="1"><g><path d="M 34 10L 10 10L 34 70L 10 130L 34 130"></path></g></g><g id="cp_0_g-0_dikdahx37286-stroke" fill="none" stroke-linecap="round" stroke-linejoin="round" stroke-miterlimit="4" stroke="#f4f4f4" stroke-width="2" stroke-opacity="1"><g><path d="M 172 130L 178 130L 202 70L 178 10L 172 10"></path></g></g></g><g id="g-root-cp_2_g-2_1_dikdahx37287-stroke" data-item-order="-672222" transform="translate(269, 319)"><g id="cp_2_g-2_1_dikdahx37287-stroke" fill="none" stroke-linecap="round" stroke-linejoin="round" stroke-miterlimit="4" stroke="#1ac3fb" stroke-width="2" stroke-opacity="1"><g><path d="M 16 30L 10 10L 131 10L 163 90L 131 170L 10 170L 16 150"></path></g></g></g><g id="g-root-cp_0_g-0_1_dikdahx37288-stroke" data-item-order="-672216" transform="translate(214, 339)"><g id="cp_0_g-0_1_dikdahx37288-stroke" fill="none" stroke-linecap="round" stroke-linejoin="round" stroke-miterlimit="4" stroke="#f4f4f4" stroke-width="2" stroke-opacity="1"><g><path d="M 34 10L 178 10M 178 130L 34 130"></path></g></g><g id="cp_0_g-0_1_dikdahx37288-stroke" fill="none" stroke-linecap="round" stroke-linejoin="round" stroke-miterlimit="4" stroke="#f4f4f4" stroke-width="2" stroke-opacity="1"><g><path d="M 10 10L 34 10M 10 130L 34 130"></path></g></g><g id="cp_0_g-0_1_dikdahx37288-stroke" fill="none" stroke-linecap="round" stroke-linejoin="round" stroke-miterlimit="4" stroke="#f4f4f4" stroke-width="2" stroke-opacity="1"><g><path d="M 172 130L 178 130L 202 70L 178 10L 172 10"></path></g></g></g><g id="g-root-cp_1_g-1_2_7qc09x370nd-stroke" data-item-order="-672202" transform="translate(214, 339)"><g id="cp_1_g-1_2_7qc09x370nd-stroke" fill="none" stroke-linecap="round" stroke-linejoin="round" stroke-miterlimit="4" stroke="#4f91fc" stroke-width="2" stroke-opacity="1"><g><path d="M 10 10L 34 70L 10 130"></path></g></g></g><g id="g-root-cp_3_g-3_1_7qc09x370ne-stroke" data-item-order="-672190" transform="translate(453, 319)"><g id="cp_3_g-3_1_7qc09x370ne-stroke" fill="none" stroke-linecap="round" stroke-linejoin="round" stroke-miterlimit="4" stroke="#43dd93" stroke-width="2" stroke-opacity="1"><g><path d="M 16 30L 10 10L 131 10L 163 90L 131 170L 10 170L 16 150"></path></g></g></g><g id="g-root-cp_0_g-0_2_7qc09x370nf-stroke" data-item-order="-672184" transform="translate(398, 339)"><g id="cp_0_g-0_2_7qc09x370nf-stroke" fill="none" stroke-linecap="round" stroke-linejoin="round" stroke-miterlimit="4" stroke="#f4f4f4" stroke-width="2" stroke-opacity="1"><g><path d="M 34 10L 178 10M 178 130L 34 130"></path></g></g><g id="cp_0_g-0_2_7qc09x370nf-stroke" fill="none" stroke-linecap="round" stroke-linejoin="round" stroke-miterlimit="4" stroke="#f4f4f4" stroke-width="2" stroke-opacity="1"><g><path d="M 10 10L 34 10M 10 130L 34 130"></path></g></g><g id="cp_0_g-0_2_7qc09x370nf-stroke" fill="none" stroke-linecap="round" stroke-linejoin="round" stroke-miterlimit="4" stroke="#f4f4f4" stroke-width="2" stroke-opacity="1"><g><path d="M 172 130L 178 130L 202 70L 178 10L 172 10"></path></g></g></g><g id="g-root-cp_2_g-2_2_7qc09x370ng-stroke" data-item-order="-672170" transform="translate(398, 339)"><g id="cp_2_g-2_2_7qc09x370ng-stroke" fill="none" stroke-linecap="round" stroke-linejoin="round" stroke-miterlimit="4" stroke="#1ac3fb" stroke-width="2" stroke-opacity="1"><g><path d="M 10 10L 34 70L 10 130"></path></g></g></g><g id="g-root-cp_4_g-4_1_7qc09x370nh-stroke" data-item-order="-672158" transform="translate(637, 319)"><g id="cp_4_g-4_1_7qc09x370nh-stroke" fill="none" stroke-linecap="round" stroke-linejoin="round" stroke-miterlimit="4" stroke="#a6da37" stroke-width="2" stroke-opacity="1"><g><path d="M 16 30L 10 10L 131 10L 163 90L 131 170L 10 170L 16 150"></path></g></g></g><g id="g-root-cp_0_g-0_3_1ut0vuxx3718m-stroke" data-item-order="-672152" transform="translate(582, 339)"><g id="cp_0_g-0_3_1ut0vuxx3718m-stroke" fill="none" stroke-linecap="round" stroke-linejoin="round" stroke-miterlimit="4" stroke="#f4f4f4" stroke-width="2" stroke-opacity="1"><g><path d="M 34 10L 178 10M 178 130L 34 130"></path></g></g><g id="cp_0_g-0_3_1ut0vuxx3718m-stroke" fill="none" stroke-linecap="round" stroke-linejoin="round" stroke-miterlimit="4" stroke="#f4f4f4" stroke-width="2" stroke-opacity="1"><g><path d="M 10 10L 34 10M 10 130L 34 130"></path></g></g><g id="cp_0_g-0_3_1ut0vuxx3718m-stroke" fill="none" stroke-linecap="round" stroke-linejoin="round" stroke-miterlimit="4" stroke="#f4f4f4" stroke-width="2" stroke-opacity="1"><g><path d="M 172 130L 178 130L 202 70L 178 10L 172 10"></path></g></g></g><g id="g-root-cp_3_g-3_2_1ut0vuxx3718n-stroke" data-item-order="-672138" transform="translate(582, 339)"><g id="cp_3_g-3_2_1ut0vuxx3718n-stroke" fill="none" stroke-linecap="round" stroke-linejoin="round" stroke-miterlimit="4" stroke="#43dd93" stroke-width="2" stroke-opacity="1"><g><path d="M 10 10L 34 70L 10 130"></path></g></g></g><g id="g-root-cp_5_g-5_1_1ut0vuxx3718o-stroke" data-item-order="-672126" transform="translate(821, 319)"><g id="cp_5_g-5_1_1ut0vuxx3718o-stroke" fill="none" stroke-linecap="round" stroke-linejoin="round" stroke-miterlimit="4" stroke="#ffe711" stroke-width="2" stroke-opacity="1"><g><path d="M 16 30L 10 10L 131 10L 163 90L 131 170L 10 170L 16 150"></path></g></g></g><g id="g-root-cp_0_g-0_4_1qd7dqhx3720x-stroke" data-item-order="-672120" transform="translate(766, 339)"><g id="cp_0_g-0_4_1qd7dqhx3720x-stroke" fill="none" stroke-linecap="round" stroke-linejoin="round" stroke-miterlimit="4" stroke="#f4f4f4" stroke-width="2" stroke-opacity="1"><g><path d="M 34 10L 178 10M 178 130L 34 130"></path></g></g><g id="cp_0_g-0_4_1qd7dqhx3720x-stroke" fill="none" stroke-linecap="round" stroke-linejoin="round" stroke-miterlimit="4" stroke="#f4f4f4" stroke-width="2" stroke-opacity="1"><g><path d="M 10 10L 34 10M 10 130L 34 130"></path></g></g><g id="cp_0_g-0_4_1qd7dqhx3720x-stroke" fill="none" stroke-linecap="round" stroke-linejoin="round" stroke-miterlimit="4" stroke="#f4f4f4" stroke-width="2" stroke-opacity="1"><g><path d="M 172 130L 178 130L 202 70L 178 10L 172 10"></path></g></g></g><g id="g-root-cp_4_g-4_2_1qd7dqhx3720y-stroke" data-item-order="-672106" transform="translate(766, 339)"><g id="cp_4_g-4_2_1qd7dqhx3720y-stroke" fill="none" stroke-linecap="round" stroke-linejoin="round" stroke-miterlimit="4" stroke="#a6da37" stroke-width="2" stroke-opacity="1"><g><path d="M 10 10L 34 70L 10 130"></path></g></g></g><g id="g-root-sy_1_Subtract_1_1qd7dqhx3720z-stroke" data-item-order="-672090" transform="translate(145.9998779296875, 471)"><g id="sy_1_Subtract_1_1qd7dqhx3720z-stroke" fill="none" stroke-linecap="round" stroke-linejoin="round" stroke-miterlimit="4" stroke="#4f91fc" stroke-width="2" stroke-opacity="1"><g><path d="M 10.000102 75.000013L 10.000002 10.000013"></path></g></g></g><g id="g-root-sy_1_Subtract-start_1hi6ukpx36znw-stroke" data-item-order="-672088" transform="translate(143, 536)"><g id="sy_1_Subtract-start_1hi6ukpx36znw-stroke" fill="none" stroke-linecap="round" stroke-linejoin="round" stroke-miterlimit="4" stroke="#f4f4f4" stroke-width="2" stroke-opacity="1"><g><path d="M 10 13C 10 14.6557 11.3443 16 13 16C 14.6557 16 16 14.6557 16 13C 16 11.3443 14.6557 10 13 10C 11.3443 10 10 11.3443 10 13Z"></path></g></g></g><g id="g-root-sy_2_Subtract_1_1hi6ukpx36znx-stroke" data-item-order="-672076" transform="translate(329.83984375, 471)"><g id="sy_2_Subtract_1_1hi6ukpx36znx-stroke" fill="none" stroke-linecap="round" stroke-linejoin="round" stroke-miterlimit="4" stroke="#1ac3fb" stroke-width="2" stroke-opacity="1"><g><path d="M 10.000133 82.000013L 10.000033 10.000013"></path></g></g></g><g id="g-root-cp_2_circle-2_1hi6ukpx36zny-stroke" data-item-order="-672074" transform="translate(293.83984375, 543)"><g id="cp_2_circle-2_1hi6ukpx36zny-stroke" fill="none" stroke-linecap="round" stroke-linejoin="round" stroke-miterlimit="4" stroke="#1ac3fb" stroke-width="2" stroke-opacity="1"><g><path d="M 10.000002 46C 10.000002 65.882251 26.117751 82 46.000002 82C 65.882253 82 82.000002 65.882251 82.000002 46C 82.000002 26.117749 65.882253 10 46.000002 10C 26.117751 10 10.000002 26.117749 10.000002 46"></path></g></g></g><g id="g-root-sy_3_Subtract_1_1hi6ukpx36znz-stroke" data-item-order="-672064" transform="translate(513.6798706054688, 471)"><g id="sy_3_Subtract_1_1hi6ukpx36znz-stroke" fill="none" stroke-linecap="round" stroke-linejoin="round" stroke-miterlimit="4" stroke="#43dd93" stroke-width="2" stroke-opacity="1"><g><path d="M 10.000102 75.000013L 10.000002 10.000013"></path></g></g></g><g id="g-root-sy_3_Subtract-start_1d2dcg9x370g8-stroke" data-item-order="-672062" transform="translate(510.67999267578125, 536)"><g id="sy_3_Subtract-start_1d2dcg9x370g8-stroke" fill="none" stroke-linecap="round" stroke-linejoin="round" stroke-miterlimit="4" stroke="#f4f4f4" stroke-width="2" stroke-opacity="1"><g><path d="M 10 13C 10 14.6557 11.3443 16 13 16C 14.6557 16 16 14.6557 16 13C 16 11.3443 14.6557 10 13 10C 11.3443 10 10 11.3443 10 13Z"></path></g></g></g><g id="g-root-sy_4_Subtract_1_1d2dcg9x370g9-stroke" data-item-order="-672050" transform="translate(697.5198364257812, 471)"><g id="sy_4_Subtract_1_1d2dcg9x370g9-stroke" fill="none" stroke-linecap="round" stroke-linejoin="round" stroke-miterlimit="4" stroke="#a6da37" stroke-width="2" stroke-opacity="1"><g><path d="M 10.000102 82.000013L 10.000002 10.000013"></path></g></g></g><g id="g-root-cp_4_circle-4_1d2dcg9x370ga-stroke" data-item-order="-672048" transform="translate(661.5198364257812, 543)"><g id="cp_4_circle-4_1d2dcg9x370ga-stroke" fill="none" stroke-linecap="round" stroke-linejoin="round" stroke-miterlimit="4" stroke="#a6da37" stroke-width="2" stroke-opacity="1"><g><path d="M 10.000002 46C 10.000002 65.882251 26.117751 82 46.000002 82C 65.882253 82 82.000002 65.882251 82.000002 46C 82.000002 26.117749 65.882253 10 46.000002 10C 26.117751 10 10.000002 26.117749 10.000002 46"></path></g></g></g><g id="g-root-sy_5_Subtract_1_18mjubtx3718j-stroke" data-item-order="-672038" transform="translate(881.3598022460938, 471)"><g id="sy_5_Subtract_1_18mjubtx3718j-stroke" fill="none" stroke-linecap="round" stroke-linejoin="round" stroke-miterlimit="4" stroke="#ffe711" stroke-width="2" stroke-opacity="1"><g><path d="M 10.000102 75.000013L 10.000002 10.000013"></path></g></g></g><g id="g-root-sy_5_Subtract-start_18mjubtx3718k-stroke" data-item-order="-672036" transform="translate(878.3599243164062, 536)"><g id="sy_5_Subtract-start_18mjubtx3718k-stroke" fill="none" stroke-linecap="round" stroke-linejoin="round" stroke-miterlimit="4" stroke="#f4f4f4" stroke-width="2" stroke-opacity="1"><g><path d="M 10 13C 10 14.6557 11.3443 16 13 16C 14.6557 16 16 14.6557 16 13C 16 11.3443 14.6557 10 13 10C 11.3443 10 10 11.3443 10 13Z"></path></g></g></g><g id="g-root-tx_pdppolic_1qa30axx38glo-stroke" data-item-order="0" transform="translate(434, 375)"></g><g id="g-root-tx_pdpretur_1cz8z0px38f0u-stroke" data-item-order="0" transform="translate(618, 375)"></g><g id="g-root-tx_pepcalls_v4ul3dx38g7a-stroke" data-item-order="0" transform="translate(257.67999267578125, 170)"></g><g id="g-root-tx_1_1cvi4i1x38gzu-stroke" data-item-order="0" transform="translate(134, 200)"></g><g id="g-root-tx_pdprespo_4ik1ftx38g7e-stroke" data-item-order="0" transform="translate(625.3599853515625, 98)"></g><g id="g-root-tx_pdpautho_dg2gy1x38ef6-stroke" data-item-order="0" transform="translate(250, 363)"></g><g id="g-root-tx_requestc_v6q0cpx38f7s-stroke" data-item-order="0" transform="translate(66, 363)"></g><g id="g-root-tx_pepsends_18gb3gpx38emc-stroke" data-item-order="0" transform="translate(257.67999267578125, 110)"></g><g id="g-root-tx_policyde_1q6ymvdx38few-stroke" data-item-order="0" transform="translate(267.5, 38)"></g><g id="g-root-tx_pepenfor_metumhx38etc-stroke" data-item-order="0" transform="translate(809.3599243164062, 615)"></g><g id="g-root-tx_3_4ik1ftx38g7c-stroke" data-item-order="0" transform="translate(501.67999267578125, 200)"></g><g id="g-root-tx_pdpretur_1lt0k09x38f7o-stroke" data-item-order="0" transform="translate(625.3599853515625, 182)"></g><g id="g-root-tx_pepcolle_hx4x8px38ft6-stroke" data-item-order="0" transform="translate(80, 555)"></g><g id="g-root-tx_2_1lw4xftx38gee-stroke" data-item-order="0" transform="translate(317.8399963378906, 561)"></g><g id="g-root-tx_pdpevalu_1lw4xftx38geg-stroke" data-item-order="0" transform="translate(441.67999267578125, 555)"></g><g id="g-root-tx_4_145he15x38flw-stroke" data-item-order="0" transform="translate(685.5199584960938, 561)"></g><g id="g-root-tx_pepenfor_quncqxx38e12-stroke" data-item-order="0" transform="translate(809.3599243164062, 555)"></g><g id="g-root-tx_policyen_4mavyhx38e8c-stroke" data-item-order="0" transform="translate(74, 615)"></g><g id="g-root-tx_pdpevalu_1lw4xftx38gei-stroke" data-item-order="0" transform="translate(441.67999267578125, 615)"></g><g id="g-root-tx_5_18hk1mxx38gsm-stroke" data-item-order="0" transform="translate(869.3599853515625, 200)"></g><g id="g-root-tx_pepenfor_143lyrtx38glc-stroke" data-item-order="0" transform="translate(802, 375)"></g></g></g><path id="w1q6ypzuzbj6rv" d="M65.283 12.757a.35.35 0 0 0 .584.157l5.203-5.141-6.183 3.523.396 1.461zm-2.216-11.7a.35.35 0 0 0-.522.305v3.111l3.276-1.868-2.754-1.548zm3.728 2.105l-4.25 2.421v2.445l6.391-3.644-2.141-1.222zm4.708 3.303a.35.35 0 0 0 0-.609l-1.592-.9-7.365 4.199v1.782a.35.35 0 0 0 .523.305l8.435-4.777z M44.542 2.513c0-.433.355-.783.792-.783s.792.35.792.783-.355.783-.792.783-.792-.35-.792-.783zm59.171 0c0-.433.355-.783.792-.783s.792.35.792.783-.355.783-.792.783-.792-.35-.792-.783zm-85.951 7.636h-1.27v-.487c-.276.201-.864.609-1.881.609-1.202 0-2.274-.794-2.137-2.078.118-1.106 1.153-1.584 1.848-1.727l2.17-.345c0-.539-.29-.956-1.064-1.006s-1.21.305-1.571 1.017l-1.124-.605c1.218-2.631 5.029-1.764 5.029.414v4.207zm-1.27-2.86c.006.396-.062 1.112-.819 1.59-.587.37-1.841.299-1.903-.395-.049-.555.461-.791.906-.898l1.816-.297zm72.662 2.86h-1.27v-.487c-.276.201-.864.609-1.881.609-1.202 0-2.274-.794-2.137-2.078.118-1.106 1.153-1.584 1.848-1.727l2.17-.345c0-.539-.29-.956-1.064-1.006s-1.21.305-1.571 1.017l-1.124-.605c1.218-2.631 5.029-1.764 5.029.414v4.207zm-1.27-2.86c.006.396-.062 1.112-.82 1.59-.587.37-1.841.299-1.903-.395-.049-.555.461-.791.906-.898l1.816-.297zM99.096 10.149H97.85v-8.45h1.246v4.895l2.68-2.559h1.738l-2.633 2.535 2.715 3.578h-1.556l-2.077-2.707-.867.844v1.863zm6.053-6.114h-1.255v6.113h1.255V4.035zm-59.2 0h-1.255v6.113h1.255V4.035zm5.584 6.113V1.697h1.255v2.695c.361-.346 1-.485 1.47-.485 1.452 0 2.477 1.082 2.457 2.448v3.792h-1.27v-3.68c0-.408-.214-1.339-1.315-1.339-.968 0-1.342.756-1.342 1.339v3.681h-1.255zm-4.76-4.894V4.039h.621a.45.45 0 0 0 .45-.45v-.855h1.251v1.305h1.309v1.215h-1.309v3.109c0 .293.105.664.648.664.365 0 .531-.035.736-.07v1.137s-.361.113-.857.113c-1.398 0-1.777-1.051-1.777-1.788V5.254h-1.071zM36.528 4.039h-1.394l2.191 6.106h1.125l1.234-3.918 1.238 3.918h1.129l2.188-6.106h-1.383l-1.359 3.93-1.256-3.93h-1.124l-1.242 3.957-1.348-3.957zM26.212 7.141c-.02 1.566 1.187 3.129 3.223 3.129 1.566 0 2.383-.918 2.734-1.719L31.172 8c-.315.399-.801 1.094-1.738 1.094-1.145 0-1.825-.781-1.891-1.52h4.625c.074-.284.148-.995-.03-1.559-.336-1.064-1.221-2.102-2.839-2.102s-3.088 1.152-3.088 3.227zm1.363-.75h3.348c-.055-.43-.566-1.301-1.623-1.301a1.79 1.79 0 0 0-1.725 1.301zm-8.758.75c.038 1.758 1.277 3.133 3.145 3.133 1.074 0 1.723-.477 1.961-.672v.547h1.242V1.703h-1.258v2.888c-.414-.36-1.062-.68-1.93-.68-1.91 0-3.198 1.473-3.16 3.23zm1.309-.08c0 1.119.723 1.978 1.836 1.978a1.88 1.88 0 0 0 1.94-1.904c0-1.371-1.011-1.99-1.972-1.99s-1.805.798-1.805 1.916zm76.683-.028C96.771 5.275 95.532 3.9 93.664 3.9c-1.074 0-1.723.477-1.961.672v-.547h-1.242v8.22h1.258V9.583c.414.36 1.063.68 1.93.68 1.91 0 3.198-1.473 3.16-3.23zm-1.309.08c0-1.119-.723-1.978-1.836-1.978a1.88 1.88 0 0 0-1.94 1.904c0 1.371 1.011 1.99 1.972 1.99S95.5 8.231 95.5 7.113zM106.441 10.173V4.036h1.254v.382c.361-.346 1-.485 1.47-.485 1.452 0 2.477 1.082 2.457 2.448v3.792h-1.27V6.492c0-.408-.214-1.339-1.315-1.339-.969 0-1.342.756-1.342 1.339v3.681h-1.254zm-30.383-.021V1.824h1.084l4.215 5.777V1.824h1.32v8.328h-1.094l-4.207-5.796v5.796h-1.319zM5.24 10.149H4V2.377h1.014l2.664 3.597 2.654-3.592h1.03v7.766h-1.256V4.762L7.678 8.068 5.24 4.742v5.407z" transform="translate(17, 738)" fill="#ababab88" stroke="none"></path></svg>