<?xml version="1.0" encoding="utf-8" standalone="yes"?>
<!DOCTYPE svg PUBLIC "-//W3C//DTD SVG 1.1//EN" "http://www.w3.org/Graphics/SVG/1.1/DTD/svg11.dtd">
<svg style="fill:none;stroke:none;fill-rule:evenodd;clip-rule:evenodd;stroke-linecap:round;stroke-linejoin:round;stroke-miterlimit:1.5;" version="1.1" xmlns="http://www.w3.org/2000/svg" xmlns:xlink="http://www.w3.org/1999/xlink" width="592" height="770" viewBox="0 0 592 770"><style class="text-font-style fontImports" data-font-family="Roboto">@import url(https://fonts.googleapis.com/css2?family=Roboto:wght@400;700&amp;amp;display=block);</style><g id="items" style="isolation: isolate"><g id="blend" style="mix-blend-mode: normal"><g id="g-root-tx_accessco_dg333dwjeuiq-fill" data-item-order="0" transform="translate(196, 38)"><g id="tx_accessco_dg333dwjeuiq-fill-merged" stroke="none" fill="#f4f4f4" fill-opacity="1"><g><text style="font: bold 25px &quot;Roboto&quot;, sans-serif; white-space: pre;" transform="translate(100, 28)" font-weight="bold" font-size="25px" font-family="'Roboto', sans-serif"><tspan x="-87.73" y="15" dominant-baseline="ideographic">PEP Integration</tspan></text></g></g></g><g id="g-root-ro_vb3y3twj6fii-fill" data-item-order="0" transform="translate(190, 122)"></g><g id="g-root-ro_18hkns9wjew3u-fill" data-item-order="0" transform="translate(364, 658)"></g><g id="g-root-ro_8wiqg9wjewhz-fill" data-item-order="0" transform="translate(60, 658)"></g><g id="g-root-ro_147zwixwj7ua1-fill" data-item-order="0" transform="translate(14, 250)"></g><g id="g-root-ro_142dmqxwjaoss-fill" data-item-order="0" transform="translate(190, 250)"></g><g id="g-root-ro_142dmqxwjdfkf-fill" data-item-order="0" transform="translate(378, 250)"></g><g id="g-root-tx_grant_1ltnduzvf9fk9-fill" data-item-order="0" transform="translate(430, 586.125)"><g id="tx_grant_1ltnduzvf9fk9-fill-merged" stroke="none" fill="#f4f4f4" fill-opacity="1"><g><text style="font: 15px &quot;Roboto&quot;, sans-serif; white-space: pre;" transform="translate(10, 10)" font-size="15px" font-family="'Roboto', sans-serif"><tspan x="2" y="18" dominant-baseline="ideographic">DENY</tspan></text></g></g></g><g id="g-root-tx_grant_hva44pwjew3v-fill" data-item-order="0" transform="translate(72, 585.75)"><g id="tx_grant_hva44pwjew3v-fill-merged" stroke="none" fill="#f4f4f4" fill-opacity="1"><g><text style="font: 15px &quot;Roboto&quot;, sans-serif; white-space: pre;" transform="translate(10, 10)" font-size="15px" font-family="'Roboto', sans-serif"><tspan x="2" y="18" dominant-baseline="ideographic">GRANT</tspan></text></g></g></g><g id="g-root-di_1ly0yuhwjdgjo-fill" data-item-order="0" transform="translate(178, 506)"></g><g id="g-root-ro_1qdugyxwjdfre-fill" data-item-order="0" transform="translate(184, 378)"></g><g id="g-root-cu_hva44pwjew3w-fill" data-item-order="2" transform="translate(92, 194)"></g><g id="g-root-cu_dg333dwjetqf-fill" data-item-order="2" transform="translate(274, 194)"></g><g id="g-root-cu_dg333dwjetqh-fill" data-item-order="2" transform="translate(274, 194)"></g><g id="g-root-cu_dg333dwjeuio-fill" data-item-order="2" transform="translate(370, 554)"></g><g id="g-root-cu_909kyxwjeuj1-fill" data-item-order="2" transform="translate(132, 554)"></g><g id="g-root-cu_hvwl7twjetqa-fill" data-item-order="2" transform="translate(274, 450)"></g><g id="g-root-cu_dg333dwjetqj-fill" data-item-order="2" transform="translate(92, 322)"></g><g id="g-root-cu_dg333dwjetqm-fill" data-item-order="2" transform="translate(274, 322)"></g><g id="g-root-cu_hvwl7twjetq8-fill" data-item-order="2" transform="translate(274, 322)"></g><g id="g-root-tx_policyen_8df8pwjdf5s-fill" data-item-order="2000000000" transform="translate(232, 390)"><g id="tx_policyen_8df8pwjdf5s-fill-merged" stroke="none" fill="#4f91fc" fill-opacity="1"><g><text style="font: 20px &quot;Roboto&quot;, sans-serif; white-space: pre;" transform="translate(10, 34)" font-size="20px" font-family="'Roboto', sans-serif"><tspan x="2" y="0" dominant-baseline="ideographic">PolicyEngine </tspan><tspan x="2" y="24" dominant-baseline="ideographic">(PDP)</tspan></text></g></g></g><g id="g-root-ic_edge_8df8pwjdf5t-fill" data-item-order="2000000000" transform="translate(196, 399)"></g><g id="g-root-tx_pepadmin_1hd7o15wjdh59-fill" data-item-order="2000000000" transform="translate(426, 262)"><g id="tx_pepadmin_1hd7o15wjdh59-fill-merged" stroke="none" fill="#1ac3fb" fill-opacity="1"><g><text style="font: 20px &quot;Roboto&quot;, sans-serif; white-space: pre;" transform="translate(10, 34)" font-size="20px" font-family="'Roboto', sans-serif"><tspan x="2" y="0" dominant-baseline="ideographic">PEP: Admin </tspan><tspan x="2" y="24" dominant-baseline="ideographic">Panel</tspan></text></g></g></g><g id="g-root-tx_pepdatal_1hdu549wjan7u-fill" data-item-order="2000000000" transform="translate(238, 262)"><g id="tx_pepdatal_1hdu549wjan7u-fill-merged" stroke="none" fill="#1ac3fb" fill-opacity="1"><g><text style="font: 20px &quot;Roboto&quot;, sans-serif; white-space: pre;" transform="translate(10, 34)" font-size="20px" font-family="'Roboto', sans-serif"><tspan x="2" y="0" dominant-baseline="ideographic">PEP: Data </tspan><tspan x="2" y="24" dominant-baseline="ideographic">Layer</tspan></text></g></g></g><g id="g-root-tx_block_1hd7o15wjevb4-fill" data-item-order="2000000000" transform="translate(412, 673)"><g id="tx_block_1hd7o15wjevb4-fill-merged" stroke="none" fill="#fb6762" fill-opacity="1"><g><text style="font: 20px &quot;Roboto&quot;, sans-serif; white-space: pre;" transform="translate(10, 22)" font-size="20px" font-family="'Roboto', sans-serif"><tspan x="2" y="12" dominant-baseline="ideographic">Block</tspan></text></g></g></g><g id="g-root-tx_pepapiga_1hjgew9wj7sp3-fill" data-item-order="2000000000" transform="translate(62, 262)"><g id="tx_pepapiga_1hjgew9wj7sp3-fill-merged" stroke="none" fill="#1ac3fb" fill-opacity="1"><g><text style="font: 20px &quot;Roboto&quot;, sans-serif; white-space: pre;" transform="translate(10, 34)" font-size="20px" font-family="'Roboto', sans-serif"><tspan x="2" y="0" dominant-baseline="ideographic">PEP: API </tspan><tspan x="2" y="24" dominant-baseline="ideographic">Gateway</tspan></text></g></g></g><g id="g-root-ic_lock_1cxe5wpwjdhxi-fill" data-item-order="2000000000" transform="translate(390, 271)"></g><g id="g-root-ic_2_142dmqxwjaosr-fill" data-item-order="2000000000" transform="translate(202, 271)"></g><g id="g-root-ic_code_147zwixwj7ua0-fill" data-item-order="2000000000" transform="translate(26, 271)"></g><g id="g-root-ic_mark_dcc8kpwjevpq-fill" data-item-order="2000000000" transform="translate(72, 670)"></g><g id="g-root-tx_yourappl_18lxze1wj6h3c-fill" data-item-order="2000000000" transform="translate(238, 134)"><g id="tx_yourappl_18lxze1wj6h3c-fill-merged" stroke="none" fill="#b7b7b7" fill-opacity="1"><g><text style="font: 20px &quot;Roboto&quot;, sans-serif; white-space: pre;" transform="translate(10, 34)" font-size="20px" font-family="'Roboto', sans-serif"><tspan x="2" y="0" dominant-baseline="ideographic">Your </tspan><tspan x="2" y="24" dominant-baseline="ideographic">Application</tspan></text></g></g></g><g id="g-root-ic_stop_18hkns9wjew3t-fill" data-item-order="2000000000" transform="translate(376, 670)"></g><g id="g-root-tx_proceed_m7z8tlwjeux1-fill" data-item-order="2000000000" transform="translate(108, 673)"><g id="tx_proceed_m7z8tlwjeux1-fill-merged" stroke="none" fill="#a6da37" fill-opacity="1"><g><text style="font: 20px &quot;Roboto&quot;, sans-serif; white-space: pre;" transform="translate(10, 22)" font-size="20px" font-family="'Roboto', sans-serif"><tspan x="2" y="12" dominant-baseline="ideographic">Proceed</tspan></text></g></g></g><g id="g-root-ic_1_146qycpwj6ept-fill" data-item-order="2000000000" transform="translate(202, 143)"></g><g id="g-root-tx_grantden_1qdugyxwjdfrf-fill" data-item-order="2000000000" transform="translate(226, 530)"><g id="tx_grantden_1qdugyxwjdfrf-fill-merged" stroke="none" fill="#ffe711" fill-opacity="1"><g><text style="font: 20px &quot;Roboto&quot;, sans-serif; white-space: pre;" transform="translate(58, 34)" font-size="20px" font-family="'Roboto', sans-serif"><tspan x="-41.54" y="0" dominant-baseline="ideographic">GRANT / </tspan><tspan x="-32.46" y="24" dominant-baseline="ideographic">DENY?</tspan></text></g></g></g><g id="g-root-tx_accessco_dg333dwjeuiq-stroke" data-item-order="0" transform="translate(196, 38)"></g><g id="g-root-ro_vb3y3twj6fii-stroke" data-item-order="0" transform="translate(190, 122)"><g id="ro_vb3y3twj6fii-stroke" fill="none" stroke-linecap="round" stroke-linejoin="round" stroke-miterlimit="4" stroke="#b7b7b7" stroke-width="2" stroke-opacity="1"><g><path d="M 22 10L 166 10C 166 10 178 10 178 22L 178 70C 178 70 178 82 166 82L 22 82C 22 82 10 82 10 70L 10 22C 10 22 10 10 22 10"></path></g></g></g><g id="g-root-ro_18hkns9wjew3u-stroke" data-item-order="0" transform="translate(364, 658)"><g id="ro_18hkns9wjew3u-stroke" fill="none" stroke-linecap="round" stroke-linejoin="round" stroke-miterlimit="4" stroke="#fb6762" stroke-width="2" stroke-opacity="1"><g><path d="M 22 10L 118 10C 118 10 130 10 130 22L 130 52C 130 52 130 64 118 64L 22 64C 22 64 10 64 10 52L 10 22C 10 22 10 10 22 10"></path></g></g></g><g id="g-root-ro_8wiqg9wjewhz-stroke" data-item-order="0" transform="translate(60, 658)"><g id="ro_8wiqg9wjewhz-stroke" fill="none" stroke-linecap="round" stroke-linejoin="round" stroke-miterlimit="4" stroke="#a6da37" stroke-width="2" stroke-opacity="1"><g><path d="M 22 10L 142 10C 142 10 154 10 154 22L 154 52C 154 52 154 64 142 64L 22 64C 22 64 10 64 10 52L 10 22C 10 22 10 10 22 10"></path></g></g></g><g id="g-root-ro_147zwixwj7ua1-stroke" data-item-order="0" transform="translate(14, 250)"><g id="ro_147zwixwj7ua1-stroke" fill="none" stroke-linecap="round" stroke-linejoin="round" stroke-miterlimit="4" stroke="#1ac3fb" stroke-width="2" stroke-opacity="1"><g><path d="M 22 10L 154 10C 154 10 166 10 166 22L 166 70C 166 70 166 82 154 82L 22 82C 22 82 10 82 10 70L 10 22C 10 22 10 10 22 10"></path></g></g></g><g id="g-root-ro_142dmqxwjaoss-stroke" data-item-order="0" transform="translate(190, 250)"><g id="ro_142dmqxwjaoss-stroke" fill="none" stroke-linecap="round" stroke-linejoin="round" stroke-miterlimit="4" stroke="#1ac3fb" stroke-width="2" stroke-opacity="1"><g><path d="M 22 10L 166 10C 166 10 178 10 178 22L 178 70C 178 70 178 82 166 82L 22 82C 22 82 10 82 10 70L 10 22C 10 22 10 10 22 10"></path></g></g></g><g id="g-root-ro_142dmqxwjdfkf-stroke" data-item-order="0" transform="translate(378, 250)"><g id="ro_142dmqxwjdfkf-stroke" fill="none" stroke-linecap="round" stroke-linejoin="round" stroke-miterlimit="4" stroke="#1ac3fb" stroke-width="2" stroke-opacity="1"><g><path d="M 22 10L 178 10C 178 10 190 10 190 22L 190 70C 190 70 190 82 178 82L 22 82C 22 82 10 82 10 70L 10 22C 10 22 10 10 22 10"></path></g></g></g><g id="g-root-tx_grant_1ltnduzvf9fk9-stroke" data-item-order="0" transform="translate(430, 586.125)"></g><g id="g-root-tx_grant_hva44pwjew3v-stroke" data-item-order="0" transform="translate(72, 585.75)"></g><g id="g-root-di_1ly0yuhwjdgjo-stroke" data-item-order="0" transform="translate(178, 506)"><g id="di_1ly0yuhwjdgjo-stroke" fill="none" stroke-linecap="round" stroke-linejoin="round" stroke-miterlimit="4" stroke="#ffe711" stroke-width="2" stroke-opacity="1"><g><path d="M 10 58L 106 106L 202 58L 106 10Z"></path></g></g></g><g id="g-root-ro_1qdugyxwjdfre-stroke" data-item-order="0" transform="translate(184, 378)"><g id="ro_1qdugyxwjdfre-stroke" fill="none" stroke-linecap="round" stroke-linejoin="round" stroke-miterlimit="4" stroke="#4f91fc" stroke-width="2" stroke-opacity="1"><g><path d="M 22 10L 178 10C 178 10 190 10 190 22L 190 70C 190 70 190 82 178 82L 22 82C 22 82 10 82 10 70L 10 22C 10 22 10 10 22 10"></path></g></g></g><g id="g-root-cu_hva44pwjew3w-stroke" data-item-order="2" transform="translate(92, 194)"><g id="cu_hva44pwjew3w-stroke" fill="none" stroke-linecap="round" stroke-linejoin="round" stroke-miterlimit="4" stroke="#f4f4f4" stroke-width="2" stroke-opacity="1"><g><path d="M 192 10L 192 24L 192 38L 101 38L 10 38L 10 52L 10 64"></path><path d="M 3.5 58L 10 64.5L 16.5 58" stroke-dasharray="none"></path></g></g></g><g id="g-root-cu_dg333dwjetqf-stroke" data-item-order="2" transform="translate(274, 194)"><g id="cu_dg333dwjetqf-stroke" fill="none" stroke-linecap="round" stroke-linejoin="round" stroke-miterlimit="4" stroke="#f4f4f4" stroke-width="2" stroke-opacity="1"><g><path d="M 10 10L 10 38L 10 64"></path><path d="M 3.5 58L 10 64.5L 16.5 58" stroke-dasharray="none"></path></g></g></g><g id="g-root-cu_dg333dwjetqh-stroke" data-item-order="2" transform="translate(274, 194)"><g id="cu_dg333dwjetqh-stroke" fill="none" stroke-linecap="round" stroke-linejoin="round" stroke-miterlimit="4" stroke="#f4f4f4" stroke-width="2" stroke-opacity="1"><g><path d="M 10 10L 10 24L 10 38L 107 38L 204 38L 204 52L 204 64"></path><path d="M 197.5 58L 204 64.5L 210.5 58" stroke-dasharray="none"></path></g></g></g><g id="g-root-cu_dg333dwjeuio-stroke" data-item-order="2" transform="translate(370, 554)"><g id="cu_dg333dwjeuio-stroke" fill="none" stroke-linecap="round" stroke-linejoin="round" stroke-miterlimit="4" stroke="#f4f4f4" stroke-width="2" stroke-opacity="1"><g><path d="M 10 10L 37 10L 64 10L 64 62L 64 112"></path><path d="M 57.5 106L 64 112.5L 70.5 106" stroke-dasharray="none"></path></g></g></g><g id="g-root-cu_909kyxwjeuj1-stroke" data-item-order="2" transform="translate(132, 554)"><g id="cu_909kyxwjeuj1-stroke" fill="none" stroke-linecap="round" stroke-linejoin="round" stroke-miterlimit="4" stroke="#f4f4f4" stroke-width="2" stroke-opacity="1"><g><path d="M 56 10L 33 10L 10 10L 10 62L 10 112"></path><path d="M 3.5 106L 10 112.5L 16.5 106" stroke-dasharray="none"></path></g></g></g><g id="g-root-cu_hvwl7twjetqa-stroke" data-item-order="2" transform="translate(274, 450)"><g id="cu_hvwl7twjetqa-stroke" fill="none" stroke-linecap="round" stroke-linejoin="round" stroke-miterlimit="4" stroke="#f4f4f4" stroke-width="2" stroke-opacity="1"><g><path d="M 10 10L 10 38L 10 64"></path><path d="M 3.5 58L 10 64.5L 16.5 58" stroke-dasharray="none"></path></g></g></g><g id="g-root-cu_dg333dwjetqj-stroke" data-item-order="2" transform="translate(92, 322)"><g id="cu_dg333dwjetqj-stroke" fill="none" stroke-linecap="round" stroke-linejoin="round" stroke-miterlimit="4" stroke="#f4f4f4" stroke-width="2" stroke-opacity="1"><g><path d="M 10 10L 10 24L 10 38L 101 38L 192 38L 192 52L 192 64"></path><path d="M 185.5 58L 192 64.5L 198.5 58" stroke-dasharray="none"></path></g></g></g><g id="g-root-cu_dg333dwjetqm-stroke" data-item-order="2" transform="translate(274, 322)"><g id="cu_dg333dwjetqm-stroke" fill="none" stroke-linecap="round" stroke-linejoin="round" stroke-miterlimit="4" stroke="#f4f4f4" stroke-width="2" stroke-opacity="1"><g><path d="M 10 10L 10 38L 10 64"></path><path d="M 3.5 58L 10 64.5L 16.5 58" stroke-dasharray="none"></path></g></g></g><g id="g-root-cu_hvwl7twjetq8-stroke" data-item-order="2" transform="translate(274, 322)"><g id="cu_hvwl7twjetq8-stroke" fill="none" stroke-linecap="round" stroke-linejoin="round" stroke-miterlimit="4" stroke="#f4f4f4" stroke-width="2" stroke-opacity="1"><g><path d="M 204 10L 204 24L 204 38L 107 38L 10 38L 10 52L 10 64"></path><path d="M 3.5 58L 10 64.5L 16.5 58" stroke-dasharray="none"></path></g></g></g><g id="g-root-tx_policyen_8df8pwjdf5s-stroke" data-item-order="2000000000" transform="translate(232, 390)"></g><g id="g-root-ic_edge_8df8pwjdf5t-stroke" data-item-order="2000000000" transform="translate(196, 399)"><g id="ic_edge_8df8pwjdf5t-stroke" fill="none" stroke-linecap="round" stroke-linejoin="round" stroke-miterlimit="4" stroke="#4f91fc" stroke-width="2" stroke-opacity="1"><g><path d="M 25 18.6075L 23.385 18.6075L 17.328751 23.0825L 17.328751 32.671249L 25 32.671249M 25 18.6075L 26.615 18.6075L 32.671249 23.0825L 32.671249 32.671249L 25 32.671249M 17.328751 32.671249L 32.672501 32.671249L 32.672501 37.146248L 17.328751 37.146248ZM 17.328751 23.0825L 13.6875 18.856251L 19.6325 14.0075L 23.385 18.6075M 11.560515 15.236998L 16.515036 11.195614C 17.607723 10.305195 19.214861 10.466739 20.108479 11.556815L 21.11902 12.795686L 21.11902 12.795686L 12.201854 20.069387L 12.201854 20.069387L 11.19131 18.830515C 10.302726 17.735706 10.467878 16.12825 11.560515 15.236998ZM 16.66 16.43125L 18.075001 18.16625M 32.674999 23.315001L 36.3125 18.856251L 30.3675 14.0075L 26.615 18.6075M 37.801365 20.063898L 28.884197 12.790196L 28.884197 12.790196L 29.890789 11.556169C 30.783588 10.461646 32.39463 10.298117 33.489151 11.190914L 38.443672 15.232296C 39.53738 16.12532 39.700447 17.735725 38.807957 18.829868L 37.801365 20.063898L 37.801365 20.063898ZM 33.34 16.43125L 31.925001 18.16625M 17.328751 39.384998L 17.328751 32.671249M 32.671249 39.384998L 32.671249 32.671249M 22.442501 39.384998L 22.442501 32.671249M 27.557499 39.384998L 27.557499 32.671249M 15.924999 21.453751C 9.50875 22.395 11.06125 31.115 17.328751 29.375M 34.075001 21.453751C 40.491249 22.395 38.938747 31.115 32.671249 29.377501M 24.3575 25.63875C 24.357479 25.993607 24.645142 26.281286 25 26.281286C 25.354858 26.281286 25.642521 25.993607 25.6425 25.63875C 25.642521 25.283892 25.354858 24.996212 25 24.996212C 24.645142 24.996212 24.357479 25.283892 24.3575 25.63875M 25.883749 21.61375L 26.19125 22.62125C 26.294821 22.9692 26.65147 23.176287 27.005001 23.09375L 28.026249 22.8575C 28.4235 22.768158 28.832623 22.947985 29.035408 23.301067C 29.238194 23.65415 29.187351 24.098146 28.91 24.39625L 28.195 25.1675C 27.948671 25.433863 27.948671 25.844887 28.195 26.11125L 28.91 26.8825C 29.187351 27.180603 29.238194 27.624599 29.035408 27.977682C 28.832623 28.330765 28.4235 28.510592 28.026249 28.421249L 27.005001 28.185001C 26.65147 28.102465 26.294821 28.309551 26.191252 28.657501L 25.883749 29.665001C 25.766861 30.055464 25.407583 30.322941 25 30.322941C 24.592417 30.322941 24.233139 30.055464 24.116251 29.665001L 23.80875 28.657499C 23.705181 28.309551 23.34853 28.102465 22.995001 28.185001L 21.973751 28.421251C 21.5765 28.510592 21.167377 28.330765 20.964592 27.977682C 20.761806 27.624599 20.812647 27.180603 21.09 26.8825L 21.805 26.11125C 22.051327 25.844887 22.051327 25.433863 21.804998 25.1675L 21.09 24.39625C 20.812647 24.098146 20.761806 23.65415 20.964592 23.301067C 21.167377 22.947985 21.5765 22.768158 21.973749 22.8575L 22.994999 23.09375C 23.34853 23.176287 23.705181 22.9692 23.80875 22.62125L 24.116251 21.61375C 24.233139 21.223288 24.592417 20.955811 25 20.955811C 25.407583 20.955811 25.766861 21.223288 25.883749 21.61375Z"></path></g></g></g><g id="g-root-tx_pepadmin_1hd7o15wjdh59-stroke" data-item-order="2000000000" transform="translate(426, 262)"></g><g id="g-root-tx_pepdatal_1hdu549wjan7u-stroke" data-item-order="2000000000" transform="translate(238, 262)"></g><g id="g-root-tx_block_1hd7o15wjevb4-stroke" data-item-order="2000000000" transform="translate(412, 673)"></g><g id="g-root-tx_pepapiga_1hjgew9wj7sp3-stroke" data-item-order="2000000000" transform="translate(62, 262)"></g><g id="g-root-ic_lock_1cxe5wpwjdhxi-stroke" data-item-order="2000000000" transform="translate(390, 271)"><g id="ic_lock_1cxe5wpwjdhxi-stroke" fill="none" stroke-linecap="round" stroke-linejoin="round" stroke-miterlimit="4" stroke="#1ac3fb" stroke-width="2" stroke-opacity="1"><g><path d="M 11.875 10.62125L 36.875 10.62125C 36.875 10.62125 38.125 10.62125 38.125 11.87125L 38.125 36.87125C 38.125 36.87125 38.125 38.12125 36.875 38.12125L 11.875 38.12125C 11.875 38.12125 10.625 38.12125 10.625 36.87125L 10.625 11.87125C 10.625 11.87125 10.625 10.62125 11.875 10.62125M 10.625 18.12125L 38.125 18.12125M 19.375 18.17375L 19.375 38.12125"></path></g></g></g><g id="g-root-ic_2_142dmqxwjaosr-stroke" data-item-order="2000000000" transform="translate(202, 271)"><g id="ic_2_142dmqxwjaosr-stroke" fill="none" stroke-linecap="round" stroke-linejoin="round" stroke-miterlimit="4" stroke="#1ac3fb" stroke-width="2" stroke-opacity="1"><g><path d="M 15.9375 23.125126C 18.698925 23.125126 20.9375 22.229725 20.9375 21.125149C 20.9375 20.020588 18.698925 19.125151 15.9375 19.125151C 13.176075 19.125151 10.9375 20.020588 10.9375 21.125149C 10.9375 22.229725 13.176075 23.125126 15.9375 23.125126ZM 10.9375 21.124962L 10.9375 29.125C 10.9375 30.25 13.1875 31.125 15.9375 31.125C 18.6875 31.125 20.9375 30.25 20.9375 29.125L 20.9375 21.124962M 35.751751 14.216625C 37.519127 14.216625 38.951752 13.440588 38.951752 12.4833C 38.951752 11.526 37.519127 10.74996 35.751751 10.74996C 33.984497 10.74996 32.55175 11.526 32.55175 12.4833C 32.55175 13.440588 33.984497 14.216625 35.751751 14.216625ZM 32.55175 12.483362L 32.55175 17.016687C 32.55175 17.950026 34.018501 18.750025 35.751751 18.750025C 37.485126 18.750025 38.951752 17.950026 38.951752 17.016687L 38.951752 12.483362M 35.751751 24.600126C 37.519127 24.600126 38.951752 23.824001 38.951752 22.866749C 38.951752 21.909462 37.519127 21.133425 35.751751 21.133425C 33.984497 21.133425 32.55175 21.909462 32.55175 22.866749C 32.55175 23.824001 33.984497 24.600126 35.751751 24.600126ZM 32.55175 22.866875L 32.55175 27.400126C 32.55175 28.3335 34.018501 29.133499 35.751751 29.133499C 37.485126 29.133499 38.951752 28.3335 38.951752 27.400126L 38.951752 22.866875M 35.751751 34.716625C 37.519127 34.716625 38.951752 33.940624 38.951752 32.98325C 38.951752 32.026001 37.519127 31.25 35.751751 31.25C 33.984497 31.25 32.55175 32.026001 32.55175 32.98325C 32.55175 33.940624 33.984497 34.716625 35.751751 34.716625ZM 32.55175 32.983376L 32.55175 37.51675C 32.55175 38.450001 34.018501 39.25 35.751751 39.25C 37.485126 39.25 38.951752 38.450001 38.951752 37.51675L 38.951752 32.983376M 29.557249 14.625L 27.057249 14.625L 27.057249 35.375L 29.557249 35.375M 29.557249 25L 23.932249 25M 10.9375 25.163876C 10.9375 26.221125 13.099663 27.086 15.937525 27.086C 18.775375 27.086 20.937536 26.221125 20.937536 25.163876"></path></g></g></g><g id="g-root-ic_code_147zwixwj7ua0-stroke" data-item-order="2000000000" transform="translate(26, 271)"><g id="ic_code_147zwixwj7ua0-stroke" fill="none" stroke-linecap="round" stroke-linejoin="round" stroke-miterlimit="4" stroke="#1ac3fb" stroke-width="2" stroke-opacity="1"><g><path d="M 10 10M 17.8125 37.1875L 10.9375 32.1875L 10.9375 17.8125L 17.8125 12.1875L 17.8125 37.1875ZM 10 10M 32.1875 37.8125L 39.0625 32.1875L 39.0625 18.4375L 32.1875 12.1875L 32.1875 37.8125ZM 17.8125 17.8125L 20.0625 17.8125M 17.8125 32.1875L 20.0625 32.1875M 23.8125 17.8125L 26.3125 17.8125M 23.8125 32.1875L 26.3125 32.1875M 30.0625 17.8125L 32.1875 17.8125M 30.0625 32.1875L 32.1875 32.1875M 10 10M 23.8125 28.4375L 20.687563 25.9375L 23.8125 23.4375M 10 10M 26.9375 28.4375L 28.8125 21.5625"></path></g></g></g><g id="g-root-ic_mark_dcc8kpwjevpq-stroke" data-item-order="2000000000" transform="translate(72, 670)"><g id="ic_mark_dcc8kpwjevpq-stroke" fill="none" stroke-linecap="round" stroke-linejoin="round" stroke-miterlimit="4" stroke="#a6da37" stroke-width="2" stroke-opacity="1"><g><path d="M 11.0625 29.5625C 10.481103 30.151531 10.481103 31.098471 11.0625 31.6875L 18.3125 38.9375C 18.593952 39.219933 18.976273 39.378685 19.375 39.378685C 19.773727 39.378685 20.156048 39.219933 20.4375 38.9375L 38.9375 20.4375C 39.219933 20.156048 39.378685 19.773727 39.378685 19.375C 39.378685 18.976273 39.219933 18.593952 38.9375 18.3125L 36.0625 15.4375C 35.781048 15.155068 35.398727 14.996317 35 14.996317C 34.601273 14.996317 34.218952 15.155068 33.9375 15.4375L 19.375 30L 16.0625 26.6875C 15.473469 26.106104 14.526531 26.106104 13.9375 26.6875Z"></path></g></g></g><g id="g-root-tx_yourappl_18lxze1wj6h3c-stroke" data-item-order="2000000000" transform="translate(238, 134)"></g><g id="g-root-ic_stop_18hkns9wjew3t-stroke" data-item-order="2000000000" transform="translate(376, 670)"><g id="ic_stop_18hkns9wjew3t-stroke" fill="none" stroke-linecap="round" stroke-linejoin="round" stroke-miterlimit="4" stroke="#fb6762" stroke-width="2" stroke-opacity="1"><g><path d="M 23.125 28.125L 23.125 21.875M 21.875 21.875L 24.375 21.875M 31.875 28.125L 31.875 21.875M 31.875 21.875L 32.5 21.875C 33.535534 21.875 34.375 22.714466 34.375 23.75C 34.375 24.785534 33.535534 25.625 32.5 25.625L 31.875 25.625M 28.125 21.875C 27.434643 21.875 26.875 22.434643 26.875 23.125L 26.875 26.875C 26.875 27.565357 27.434643 28.125 28.125 28.125C 28.815357 28.125 29.375 27.565357 29.375 26.875L 29.375 23.125C 29.375 22.434643 28.815357 21.875 28.125 21.875ZM 19.375 21.875L 18.125 21.875C 17.434645 21.875 16.875 22.434643 16.875 23.125C 16.875 25 19.375 25 19.375 26.875C 19.375 27.565357 18.815355 28.125 18.125 28.125L 16.875 28.125M 30.436251 10.625L 19.561251 10.625C 19.229757 10.625071 18.911865 10.756813 18.6775 10.99125L 10.99125 18.68C 10.756813 18.914366 10.625071 19.232256 10.625 19.563749L 10.625 30.438749C 10.625071 30.770245 10.756813 31.088135 10.99125 31.3225L 18.68 39.01125C 18.914366 39.245686 19.232256 39.37743 19.563749 39.377502L 30.438749 39.377502C 30.770245 39.37743 31.088135 39.245686 31.3225 39.01125L 39.01125 31.3225C 39.245686 31.088135 39.37743 30.770245 39.377502 30.438749L 39.377502 19.563749C 39.37743 19.232256 39.245686 18.914366 39.01125 18.68L 31.32 10.99125C 31.085634 10.756813 30.767744 10.625071 30.436251 10.625Z"></path></g></g></g><g id="g-root-tx_proceed_m7z8tlwjeux1-stroke" data-item-order="2000000000" transform="translate(108, 673)"></g><g id="g-root-ic_1_146qycpwj6ept-stroke" data-item-order="2000000000" transform="translate(202, 143)"><g id="ic_1_146qycpwj6ept-stroke" fill="none" stroke-linecap="round" stroke-linejoin="round" stroke-miterlimit="4" stroke="#b7b7b7" stroke-width="2" stroke-opacity="1"><g><path d="M 24.875 28.1875L 24.875 30.9375M 36.4375 30.9375C 36.4375 30.1875 35.9375 29.6875 35.1875 29.6875L 14.562525 29.6875C 13.812525 29.6875 13.312525 30.1875 13.312525 30.9375M 23.125 21.3125L 23.125 12.1875C 23.125 11.4375 23.625 10.9375 24.375 10.9375L 25.625 10.9375C 26.375 10.9375 26.875 11.4375 26.875 12.1875L 26.875 21.1875M 34.375 23.8125C 34.375 24.5625 33.875 25.0625 33.125 25.0625L 16.875 25.0625C 16.125 25.0625 15.625 24.5625 15.625 23.8125L 15.625 22.5625C 15.625 21.812489 16.125 21.312487 16.875 21.312487L 33.125 21.312487C 33.875 21.312487 34.375 21.812489 34.375 22.5625L 34.375 23.8125ZM 26.875 13.4375C 30.125 14.3125 32.5 17.1875 32.5 20.6875L 32.5 21.3125M 23.125 13.4375C 19.875 14.3125 17.5 17.1875 17.5 20.6875L 17.5 21.3125M 15.9375 39.0625L 10.9375 39.0625L 10.9375 36.5625L 13.4375 34.0625L 15.9375 36.5625L 15.9375 39.0625ZM 27.1875 39.0625L 22.1875 39.0625L 22.1875 36.5625L 24.6875 34.0625L 27.1875 36.5625L 27.1875 39.0625ZM 39.0625 39.0625L 34.0625 39.0625L 34.0625 36.5625L 36.5625 34.0625L 39.0625 36.5625L 39.0625 39.0625Z"></path></g></g></g><g id="g-root-tx_grantden_1qdugyxwjdfrf-stroke" data-item-order="2000000000" transform="translate(226, 530)"></g></g></g><path id="w142zht7vzh348" d="M65.283 12.757a.35.35 0 0 0 .584.157l5.203-5.141-6.183 3.523.396 1.461zm-2.216-11.7a.35.35 0 0 0-.522.305v3.111l3.276-1.868-2.754-1.548zm3.728 2.105l-4.25 2.421v2.445l6.391-3.644-2.141-1.222zm4.708 3.303a.35.35 0 0 0 0-.609l-1.592-.9-7.365 4.199v1.782a.35.35 0 0 0 .523.305l8.435-4.777z M44.542 2.513c0-.433.355-.783.792-.783s.792.35.792.783-.355.783-.792.783-.792-.35-.792-.783zm59.171 0c0-.433.355-.783.792-.783s.792.35.792.783-.355.783-.792.783-.792-.35-.792-.783zm-85.951 7.636h-1.27v-.487c-.276.201-.864.609-1.881.609-1.202 0-2.274-.794-2.137-2.078.118-1.106 1.153-1.584 1.848-1.727l2.17-.345c0-.539-.29-.956-1.064-1.006s-1.21.305-1.571 1.017l-1.124-.605c1.218-2.631 5.029-1.764 5.029.414v4.207zm-1.27-2.86c.006.396-.062 1.112-.819 1.59-.587.37-1.841.299-1.903-.395-.049-.555.461-.791.906-.898l1.816-.297zm72.662 2.86h-1.27v-.487c-.276.201-.864.609-1.881.609-1.202 0-2.274-.794-2.137-2.078.118-1.106 1.153-1.584 1.848-1.727l2.17-.345c0-.539-.29-.956-1.064-1.006s-1.21.305-1.571 1.017l-1.124-.605c1.218-2.631 5.029-1.764 5.029.414v4.207zm-1.27-2.86c.006.396-.062 1.112-.82 1.59-.587.37-1.841.299-1.903-.395-.049-.555.461-.791.906-.898l1.816-.297zM99.096 10.149H97.85v-8.45h1.246v4.895l2.68-2.559h1.738l-2.633 2.535 2.715 3.578h-1.556l-2.077-2.707-.867.844v1.863zm6.053-6.114h-1.255v6.113h1.255V4.035zm-59.2 0h-1.255v6.113h1.255V4.035zm5.584 6.113V1.697h1.255v2.695c.361-.346 1-.485 1.47-.485 1.452 0 2.477 1.082 2.457 2.448v3.792h-1.27v-3.68c0-.408-.214-1.339-1.315-1.339-.968 0-1.342.756-1.342 1.339v3.681h-1.255zm-4.76-4.894V4.039h.621a.45.45 0 0 0 .45-.45v-.855h1.251v1.305h1.309v1.215h-1.309v3.109c0 .293.105.664.648.664.365 0 .531-.035.736-.07v1.137s-.361.113-.857.113c-1.398 0-1.777-1.051-1.777-1.788V5.254h-1.071zM36.528 4.039h-1.394l2.191 6.106h1.125l1.234-3.918 1.238 3.918h1.129l2.188-6.106h-1.383l-1.359 3.93-1.256-3.93h-1.124l-1.242 3.957-1.348-3.957zM26.212 7.141c-.02 1.566 1.187 3.129 3.223 3.129 1.566 0 2.383-.918 2.734-1.719L31.172 8c-.315.399-.801 1.094-1.738 1.094-1.145 0-1.825-.781-1.891-1.52h4.625c.074-.284.148-.995-.03-1.559-.336-1.064-1.221-2.102-2.839-2.102s-3.088 1.152-3.088 3.227zm1.363-.75h3.348c-.055-.43-.566-1.301-1.623-1.301a1.79 1.79 0 0 0-1.725 1.301zm-8.758.75c.038 1.758 1.277 3.133 3.145 3.133 1.074 0 1.723-.477 1.961-.672v.547h1.242V1.703h-1.258v2.888c-.414-.36-1.062-.68-1.93-.68-1.91 0-3.198 1.473-3.16 3.23zm1.309-.08c0 1.119.723 1.978 1.836 1.978a1.88 1.88 0 0 0 1.94-1.904c0-1.371-1.011-1.99-1.972-1.99s-1.805.798-1.805 1.916zm76.683-.028C96.771 5.275 95.532 3.9 93.664 3.9c-1.074 0-1.723.477-1.961.672v-.547h-1.242v8.22h1.258V9.583c.414.36 1.063.68 1.93.68 1.91 0 3.198-1.473 3.16-3.23zm-1.309.08c0-1.119-.723-1.978-1.836-1.978a1.88 1.88 0 0 0-1.94 1.904c0 1.371 1.011 1.99 1.972 1.99S95.5 8.231 95.5 7.113zM106.441 10.173V4.036h1.254v.382c.361-.346 1-.485 1.47-.485 1.452 0 2.477 1.082 2.457 2.448v3.792h-1.27V6.492c0-.408-.214-1.339-1.315-1.339-.969 0-1.342.756-1.342 1.339v3.681h-1.254zm-30.383-.021V1.824h1.084l4.215 5.777V1.824h1.32v8.328h-1.094l-4.207-5.796v5.796h-1.319zM5.24 10.149H4V2.377h1.014l2.664 3.597 2.654-3.592h1.03v7.766h-1.256V4.762L7.678 8.068 5.24 4.742v5.407z" transform="translate(463.5, 743.5)" fill="#ababab88" stroke="none"></path></svg>