<?xml version="1.0" encoding="utf-8" standalone="yes"?>
<!DOCTYPE svg PUBLIC "-//W3C//DTD SVG 1.1//EN" "http://www.w3.org/Graphics/SVG/1.1/DTD/svg11.dtd">
<svg style="fill:none;stroke:none;fill-rule:evenodd;clip-rule:evenodd;stroke-linecap:round;stroke-linejoin:round;stroke-miterlimit:1.5;" version="1.1" xmlns="http://www.w3.org/2000/svg" xmlns:xlink="http://www.w3.org/1999/xlink" width="828" height="660" viewBox="0 0 828 660"><style class="text-font-style fontImports" data-font-family="Roboto">@import url(https://fonts.googleapis.com/css2?family=Roboto:wght@400;700&amp;amp;display=block);</style><g id="items" style="isolation: isolate"><g id="blend" style="mix-blend-mode: normal"><g id="g-root-cp_3_g-3_mgpml6wtd150-fill" data-item-order="-439909" transform="translate(212, 104)"></g><g id="g-root-cp_2_g-2_dl2mcawtd1xp-fill" data-item-order="-439905" transform="translate(224.33099365234375, 350.8046875)"></g><g id="g-root-cp_1_g-1_dl2mcawtd1xq-fill" data-item-order="-439901" transform="translate(412.59197998046875, 116.1943359375)"></g><g id="g-root-tx_peppdppo_8zoawteexb-fill" data-item-order="0" transform="translate(260, 38)"><g id="tx_peppdppo_8zoawteexb-fill-merged" stroke="none" fill="#f4f4f4" fill-opacity="1"><g><text style="font: bold 25px &quot;Roboto&quot;, sans-serif; white-space: pre;" transform="translate(154, 28)" font-weight="bold" font-size="25px" font-family="'Roboto', sans-serif"><tspan x="-140.75" y="15" dominant-baseline="ideographic">MPE Policy Update Cycle</tspan></text></g></g></g><g id="g-root-tx_applypol_1upae1mwtk2rv-fill" data-item-order="0" transform="translate(74, 170)"><g id="tx_applypol_1upae1mwtk2rv-fill-merged" stroke="none" fill="#1ac3fb" fill-opacity="1"><g><text style="font: 20px &quot;Roboto&quot;, sans-serif; white-space: pre;" transform="translate(130, 22)" font-size="20px" font-family="'Roboto', sans-serif"><tspan x="-110.37" y="12" dominant-baseline="ideographic">Apply Policy</tspan></text></g></g></g><g id="g-root-tx_authorpo_1lvit22wtk2kt-fill" data-item-order="0" transform="translate(614, 170)"><g id="tx_authorpo_1lvit22wtk2kt-fill-merged" stroke="none" fill="#43dd93" fill-opacity="1"><g><text style="font: 20px &quot;Roboto&quot;, sans-serif; white-space: pre;" transform="translate(10, 22)" font-size="20px" font-family="'Roboto', sans-serif"><tspan x="2" y="12" dominant-baseline="ideographic">Author Policy</tspan></text></g></g></g><g id="g-root-tx_applicat_mccazewtk1z8-fill" data-item-order="0" transform="translate(38, 206)"><g id="tx_applicat_mccazewtk1z8-fill-merged" stroke="none" fill="#f4f4f4" fill-opacity="1"><g><text style="font: 15px &quot;Roboto&quot;, sans-serif; white-space: pre;" transform="translate(166, 28)" font-size="15px" font-family="'Roboto', sans-serif"><tspan x="-143.97" y="0" dominant-baseline="ideographic">Applications use new </tspan><tspan x="-138.97" y="18" dominant-baseline="ideographic">policies immediately</tspan></text></g></g></g><g id="g-root-ic_play_m7yzdmwtehvk-fill" data-item-order="0" transform="translate(242, 218)"></g><g id="g-root-ic_1_mb3ct6wth91m-fill" data-item-order="0" transform="translate(518, 218)"></g><g id="g-root-tx_createan_dikpzuwtk1s6-fill" data-item-order="0" transform="translate(614, 206)"><g id="tx_createan_dikpzuwtk1s6-fill-merged" stroke="none" fill="#f4f4f4" fill-opacity="1"><g><text style="font: 15px &quot;Roboto&quot;, sans-serif; white-space: pre;" transform="translate(10, 28)" font-size="15px" font-family="'Roboto', sans-serif"><tspan x="2" y="0" dominant-baseline="ideographic">Create and test policy </tspan><tspan x="2" y="18" dominant-baseline="ideographic">changes locally</tspan></text></g></g></g><g id="g-root-ic_tran_mg35i2wtfv2h-fill" data-item-order="0" transform="translate(380, 434)"></g><g id="g-root-tx_deploypo_1lxe8bewtk1l3-fill" data-item-order="0" transform="translate(337, 530)"><g id="tx_deploypo_1lxe8bewtk1l3-fill-merged" stroke="none" fill="#a6da37" fill-opacity="1"><g><text style="font: 20px &quot;Roboto&quot;, sans-serif; white-space: pre;" transform="translate(76, 22)" font-size="20px" font-family="'Roboto', sans-serif"><tspan x="-59.54" y="12" dominant-baseline="ideographic">Deploy Policy</tspan></text></g></g></g><g id="g-root-tx_updatepo_1hhkq6ywtk2dc-fill" data-item-order="0" transform="translate(319, 566)"><g id="tx_updatepo_1hhkq6ywtk2dc-fill-merged" stroke="none" fill="#f4f4f4" fill-opacity="1"><g><text style="font: 15px &quot;Roboto&quot;, sans-serif; white-space: pre;" transform="translate(94, 28)" font-size="15px" font-family="'Roboto', sans-serif"><tspan x="-77.32" y="0" dominant-baseline="ideographic">Update PolicyDomains </tspan><tspan x="-27.95" y="18" dominant-baseline="ideographic">in PDPs</tspan></text></g></g></g><g id="g-root-cp_3_g-3_mgpml6wtd150-stroke" data-item-order="-439909" transform="translate(212, 104)"><g id="cp_3_g-3_mgpml6wtd150-stroke" fill="none" stroke-linecap="round" stroke-linejoin="round" stroke-miterlimit="4" stroke="#1ac3fb" stroke-width="2" stroke-opacity="1"><g><path d="M 208 118L 210.5918 106.3368L 220 64L 210.7098 22.194L 208 10L 184 10.000001L 186.7984 22.593L 196 64L 186.7984 105.407L 186.4187 107.1157L 184 118L 208 118ZM 196 64L 186.7984 22.593C 87.8661 30.3421 10 113.0777 10 214C 10 245.8721 17.766 275.9304 31.5089 302.3858L 63.0964 273.412L 104.4462 260.3973C 97.7487 246.3404 94 230.608 94 214C 94 159.6445 134.155 114.6677 186.4187 107.1157L 186.7984 105.407L 196 64Z"></path></g></g></g><g id="g-root-cp_2_g-2_dl2mcawtd1xp-stroke" data-item-order="-439905" transform="translate(224.33099365234375, 350.8046875)"><g id="cp_2_g-2_dl2mcawtd1xp-stroke" fill="none" stroke-linecap="round" stroke-linejoin="round" stroke-miterlimit="4" stroke="#a6da37" stroke-width="2" stroke-opacity="1"><g><path d="M 103.5307 10L 92.1152 13.593L 50.7654 26.6077L 19.1779 55.5815L 10 64L 22 84.7846L 31.5007 76.07L 62.7654 47.3923L 104.9052 34.129L 115.5307 30.7846L 103.5307 10ZM 278.6157 28.4707C 259.1332 56.6977 226.5613 75.1957 189.6689 75.1957C 155.3025 75.1957 124.6851 59.144 104.9052 34.129L 62.7654 47.3923L 31.5007 76.07C 66.1315 126.2846 124.0568 159.1957 189.6689 159.1957C 257.6146 159.1957 317.3169 123.902 351.443 70.6475L 310.573 57.7838L 278.6157 28.4707Z"></path></g></g></g><g id="g-root-cp_1_g-1_dl2mcawtd1xq-stroke" data-item-order="-439901" transform="translate(412.59197998046875, 116.1943359375)"><g id="cp_1_g-1_dl2mcawtd1xq-stroke" fill="none" stroke-linecap="round" stroke-linejoin="round" stroke-miterlimit="4" stroke="#43dd93" stroke-width="2" stroke-opacity="1"><g><path d="M 81.5469 255.0017L 90.3549 263.081L 122.3122 292.394L 163.1823 305.2577L 175.0776 309.0017L 187.0776 288.2171L 174.8062 284.3547L 134.3122 271.6094L 101.7751 241.7645L 93.5469 234.2171L 81.5469 255.0017ZM 10.118 10L 19.4082 51.806L 10 94.1427C 65.63 98.5212 109.4082 145.0511 109.4082 201.806C 109.4082 215.9217 106.7001 229.405 101.7751 241.7645L 134.3122 271.6094L 174.8062 284.3547C 186.7322 259.3483 193.4082 231.3568 193.4082 201.806C 193.4082 98.6862 112.1142 14.5537 10.118 10Z"></path></g></g></g><g id="g-root-tx_peppdppo_8zoawteexb-stroke" data-item-order="0" transform="translate(260, 38)"></g><g id="g-root-tx_applypol_1upae1mwtk2rv-stroke" data-item-order="0" transform="translate(74, 170)"></g><g id="g-root-tx_authorpo_1lvit22wtk2kt-stroke" data-item-order="0" transform="translate(614, 170)"></g><g id="g-root-tx_applicat_mccazewtk1z8-stroke" data-item-order="0" transform="translate(38, 206)"></g><g id="g-root-ic_play_m7yzdmwtehvk-stroke" data-item-order="0" transform="translate(242, 218)"><g id="ic_play_m7yzdmwtehvk-stroke" fill="none" stroke-linecap="round" stroke-linejoin="round" stroke-miterlimit="4" stroke="#1ac3fb" stroke-width="2" stroke-opacity="1"><g><path d="M 22 34.001999C 22 40.629417 27.372583 46.001999 34 46.001999C 40.627419 46.001999 46 40.629417 46 34.001999C 46 27.374584 40.627419 22.002001 34 22.002001C 27.372583 22.002001 22 27.374584 22 34.001999ZM 31 28.128L 31 40.001999L 40.042 34.001999L 31 28.128ZM 49.846001 24.425999C 49.390205 25.384041 49.361801 26.490372 49.767822 27.470543C 50.173843 28.450716 50.976254 29.212891 51.975998 29.567999L 54.506001 30.468C 56.002064 30.999001 57.001671 32.414501 57.001671 34.001999C 57.001671 35.5895 56.002064 37.005001 54.506001 37.536003L 51.976002 38.436001C 50.976254 38.791107 50.173843 39.553284 49.767822 40.533455C 49.361801 41.513626 49.390205 42.619957 49.845997 43.577999L 51 46C 51.68758 47.434105 51.395199 49.146008 50.270603 50.270603C 49.146008 51.395199 47.434105 51.68758 45.999996 50.999996L 43.574001 49.848C 42.615955 49.392208 41.509628 49.3638 40.529453 49.769821C 39.549282 50.175842 38.787106 50.978252 38.431999 51.977997L 37.531998 54.507999C 37.000999 56.004063 35.585503 57.003674 33.998001 57.003674C 32.4105 57.003674 30.995001 56.004063 30.464001 54.508003L 29.563999 51.978001C 29.208891 50.978252 28.446714 50.175842 27.466543 49.769821C 26.486372 49.3638 25.380043 49.392208 24.421999 49.848L 22 51C 20.565891 51.68758 18.853992 51.395199 17.729395 50.270603C 16.604799 49.146008 16.312416 47.434105 17 45.999996L 18.152 43.574001C 18.60779 42.615955 18.636198 41.509628 18.230175 40.529453C 17.824154 39.549282 17.021744 38.787106 16.021999 38.431999L 13.492001 37.531998C 11.995939 37.000999 10.99633 35.585503 10.99633 33.998001C 10.99633 32.4105 11.995939 30.995001 13.492001 30.464001L 16.021999 29.563999C 17.021034 29.209169 17.823063 28.447838 18.229389 27.468616C 18.635715 26.489393 18.608322 25.383896 18.153999 24.425999L 17 22C 16.312416 20.565891 16.604799 18.853992 17.729395 17.729395C 18.853992 16.604799 20.565891 16.312416 22 17L 24.425999 18.152C 25.383316 18.607273 26.488651 18.635868 27.468225 18.230698C 28.4478 17.825527 29.209988 17.02449 29.565998 16.025999L 30.466 13.496C 30.997002 11.999939 32.412498 11.00033 34 11.00033C 35.587502 11.00033 37.003002 11.999939 37.534004 13.496L 38.433998 16.026001C 38.789108 17.025745 39.551285 17.828154 40.531456 18.234177C 41.511627 18.640198 42.617954 18.61179 43.575996 18.155998L 46 17C 47.434105 16.312416 49.146008 16.604799 50.270603 17.729395C 51.395199 18.853992 51.68758 20.565891 50.999996 22Z"></path></g></g></g><g id="g-root-ic_1_mb3ct6wth91m-stroke" data-item-order="0" transform="translate(518, 218)"><g id="ic_1_mb3ct6wth91m-stroke" fill="none" stroke-linecap="round" stroke-linejoin="round" stroke-miterlimit="4" stroke="#43dd93" stroke-width="2" stroke-opacity="1"><g><path d="M 44.5 56.5C 51.127399 56.5 56.5 51.127399 56.5 44.5C 56.5 37.872601 51.127399 32.5 44.5 32.5C 37.872601 32.5 32.5 37.872601 32.5 44.5C 32.5 51.127399 37.872601 56.5 44.5 56.5ZM 10 10M 49.900002 41.099998L 44.099998 48.9002C 43.900002 49.300201 43.5 49.500198 43.099998 49.500198C 42.700001 49.500198 42.299999 49.299999 41.900002 49.099998L 38.900002 46.099998M 25.2694 52.897999L 11.5 56.5L 15.09202 42.6926M 25.2694 52.897999L 15.09202 42.6926M 25.2694 52.897999L 27.06542 51.097M 15.09202 42.6926L 44.027802 13.67682C 46.821602 10.875308 51.4114 10.675198 54.404598 13.67682C 57.198399 16.47834 57.198399 21.08074 54.404598 24.08238L 51.012199 27.48424M 43.229401 14.4772L 53.6208 24.86846M 45.025398 26.684019L 38.041 19.68022"></path></g></g></g><g id="g-root-tx_createan_dikpzuwtk1s6-stroke" data-item-order="0" transform="translate(614, 206)"></g><g id="g-root-ic_tran_mg35i2wtfv2h-stroke" data-item-order="0" transform="translate(380, 434)"><g id="ic_tran_mg35i2wtfv2h-stroke" fill="none" stroke-linecap="round" stroke-linejoin="round" stroke-miterlimit="4" stroke="#a6da37" stroke-width="2" stroke-opacity="1"><g><path d="M 51 38.812C 54.14045 37.360321 56.10902 34.17202 55.999996 30.713999C 55.962135 28.155087 54.884983 25.721664 53.01619 23.973211C 51.1474 22.224758 48.64777 21.311714 46.091999 21.444C 43.813187 16.857494 39.121334 13.969126 34 14C 27.021046 13.90637 21.1735 19.258078 20.65 26.217999C 18.566479 25.759911 16.387331 26.259914 14.711922 27.580486C 13.036512 28.901056 12.041294 30.903114 12 33.035999C 11.833682 36.153412 13.95041 38.932251 17 39.600002M 22 48L 28 54L 34 48M 28 54L 28 36M 34 42L 40 36L 46 42M 40 36L 40 54"></path></g></g></g><g id="g-root-tx_deploypo_1lxe8bewtk1l3-stroke" data-item-order="0" transform="translate(337, 530)"></g><g id="g-root-tx_updatepo_1hhkq6ywtk2dc-stroke" data-item-order="0" transform="translate(319, 566)"></g></g></g><path id="w1upxnkqxn7m6l" d="M65.283 12.757a.35.35 0 0 0 .584.157l5.203-5.141-6.183 3.523.396 1.461zm-2.216-11.7a.35.35 0 0 0-.522.305v3.111l3.276-1.868-2.754-1.548zm3.728 2.105l-4.25 2.421v2.445l6.391-3.644-2.141-1.222zm4.708 3.303a.35.35 0 0 0 0-.609l-1.592-.9-7.365 4.199v1.782a.35.35 0 0 0 .523.305l8.435-4.777z M44.542 2.513c0-.433.355-.783.792-.783s.792.35.792.783-.355.783-.792.783-.792-.35-.792-.783zm59.171 0c0-.433.355-.783.792-.783s.792.35.792.783-.355.783-.792.783-.792-.35-.792-.783zm-85.951 7.636h-1.27v-.487c-.276.201-.864.609-1.881.609-1.202 0-2.274-.794-2.137-2.078.118-1.106 1.153-1.584 1.848-1.727l2.17-.345c0-.539-.29-.956-1.064-1.006s-1.21.305-1.571 1.017l-1.124-.605c1.218-2.631 5.029-1.764 5.029.414v4.207zm-1.27-2.86c.006.396-.062 1.112-.819 1.59-.587.37-1.841.299-1.903-.395-.049-.555.461-.791.906-.898l1.816-.297zm72.662 2.86h-1.27v-.487c-.276.201-.864.609-1.881.609-1.202 0-2.274-.794-2.137-2.078.118-1.106 1.153-1.584 1.848-1.727l2.17-.345c0-.539-.29-.956-1.064-1.006s-1.21.305-1.571 1.017l-1.124-.605c1.218-2.631 5.029-1.764 5.029.414v4.207zm-1.27-2.86c.006.396-.062 1.112-.82 1.59-.587.37-1.841.299-1.903-.395-.049-.555.461-.791.906-.898l1.816-.297zM99.096 10.149H97.85v-8.45h1.246v4.895l2.68-2.559h1.738l-2.633 2.535 2.715 3.578h-1.556l-2.077-2.707-.867.844v1.863zm6.053-6.114h-1.255v6.113h1.255V4.035zm-59.2 0h-1.255v6.113h1.255V4.035zm5.584 6.113V1.697h1.255v2.695c.361-.346 1-.485 1.47-.485 1.452 0 2.477 1.082 2.457 2.448v3.792h-1.27v-3.68c0-.408-.214-1.339-1.315-1.339-.968 0-1.342.756-1.342 1.339v3.681h-1.255zm-4.76-4.894V4.039h.621a.45.45 0 0 0 .45-.45v-.855h1.251v1.305h1.309v1.215h-1.309v3.109c0 .293.105.664.648.664.365 0 .531-.035.736-.07v1.137s-.361.113-.857.113c-1.398 0-1.777-1.051-1.777-1.788V5.254h-1.071zM36.528 4.039h-1.394l2.191 6.106h1.125l1.234-3.918 1.238 3.918h1.129l2.188-6.106h-1.383l-1.359 3.93-1.256-3.93h-1.124l-1.242 3.957-1.348-3.957zM26.212 7.141c-.02 1.566 1.187 3.129 3.223 3.129 1.566 0 2.383-.918 2.734-1.719L31.172 8c-.315.399-.801 1.094-1.738 1.094-1.145 0-1.825-.781-1.891-1.52h4.625c.074-.284.148-.995-.03-1.559-.336-1.064-1.221-2.102-2.839-2.102s-3.088 1.152-3.088 3.227zm1.363-.75h3.348c-.055-.43-.566-1.301-1.623-1.301a1.79 1.79 0 0 0-1.725 1.301zm-8.758.75c.038 1.758 1.277 3.133 3.145 3.133 1.074 0 1.723-.477 1.961-.672v.547h1.242V1.703h-1.258v2.888c-.414-.36-1.062-.68-1.93-.68-1.91 0-3.198 1.473-3.16 3.23zm1.309-.08c0 1.119.723 1.978 1.836 1.978a1.88 1.88 0 0 0 1.94-1.904c0-1.371-1.011-1.99-1.972-1.99s-1.805.798-1.805 1.916zm76.683-.028C96.771 5.275 95.532 3.9 93.664 3.9c-1.074 0-1.723.477-1.961.672v-.547h-1.242v8.22h1.258V9.583c.414.36 1.063.68 1.93.68 1.91 0 3.198-1.473 3.16-3.23zm-1.309.08c0-1.119-.723-1.978-1.836-1.978a1.88 1.88 0 0 0-1.94 1.904c0 1.371 1.011 1.99 1.972 1.99S95.5 8.231 95.5 7.113zM106.441 10.173V4.036h1.254v.382c.361-.346 1-.485 1.47-.485 1.452 0 2.477 1.082 2.457 2.448v3.792h-1.27V6.492c0-.408-.214-1.339-1.315-1.339-.969 0-1.342.756-1.342 1.339v3.681h-1.254zm-30.383-.021V1.824h1.084l4.215 5.777V1.824h1.32v8.328h-1.094l-4.207-5.796v5.796h-1.319zM5.24 10.149H4V2.377h1.014l2.664 3.597 2.654-3.592h1.03v7.766h-1.256V4.762L7.678 8.068 5.24 4.742v5.407z" transform="translate(692, 626)" fill="#ababab88" stroke="none"></path></svg>