<?xml version="1.0" encoding="utf-8" standalone="yes"?>
<!DOCTYPE svg PUBLIC "-//W3C//DTD SVG 1.1//EN" "http://www.w3.org/Graphics/SVG/1.1/DTD/svg11.dtd">
<svg style="fill:none;stroke:none;fill-rule:evenodd;clip-rule:evenodd;stroke-linecap:round;stroke-linejoin:round;stroke-miterlimit:1.5;" version="1.1" xmlns="http://www.w3.org/2000/svg" xmlns:xlink="http://www.w3.org/1999/xlink" width="924" height="672" viewBox="0 0 924 672"><style class="text-font-style fontImports" data-font-family="Roboto">@import url(https://fonts.googleapis.com/css2?family=Roboto:wght@400;700&amp;amp;display=block);</style><g id="items" style="isolation: isolate"><g id="blend" style="mix-blend-mode: normal"><g id="g-root-cp_4_text-4_mb3vujzbatcf-fill" data-item-order="-504559" transform="translate(146, 194)"></g><g id="g-root-cp_1_text-1_dg3corzbarr4-fill" data-item-order="-504489" transform="translate(614, 122)"></g><g id="g-root-cp_-1_parent-4-part_4kgcfvzbasjt-fill" data-item-order="-504407" transform="translate(338, 218)"></g><g id="g-root-cp_3_text-3_4mubfzbatc2-fill" data-item-order="-504321" transform="translate(134, 356)"></g><g id="g-root-cp_2_text-2_1qa3w1nzbatxn-fill" data-item-order="-504227" transform="translate(614, 356)"></g><g id="g-root-he_1luwv0bzbark5-fill" data-item-order="-504169" transform="translate(566, 149)"></g><g id="g-root-he_1luwv0bzbark7-fill" data-item-order="-504167" transform="translate(626, 170)"></g><g id="g-root-he_1hf3cvvzbasch-fill" data-item-order="-504165" transform="translate(566, 347.5999755859375)"></g><g id="g-root-he_1hf3cvvzbascj-fill" data-item-order="-504163" transform="translate(626, 404)"></g><g id="g-root-he_1hf3cvvzbascl-fill" data-item-order="-504161" transform="translate(290, 347.5999755859375)"></g><g id="g-root-he_1hf3cvvzbascn-fill" data-item-order="-504159" transform="translate(266, 404)"></g><g id="g-root-he_1cz9urfzbat4x-fill" data-item-order="-504157" transform="translate(290, 221)"></g><g id="g-root-he_1cz9urfzbat4z-fill" data-item-order="-504155" transform="translate(266, 242)"></g><g id="g-root-tx_role_1hd7xmjzbgflw-fill" data-item-order="0" transform="translate(650, 218)"><g id="tx_role_1hd7xmjzbgflw-fill-merged" stroke="none" fill="#f4f4f4" fill-opacity="1"><g><text style="font: 20px &quot;Roboto&quot;, sans-serif; white-space: pre;" transform="translate(10, 22)" font-size="20px" font-family="'Roboto', sans-serif"><tspan x="2" y="12" dominant-baseline="ideographic">Roles/Groups</tspan></text></g></g></g><g id="g-root-tx_time_zjg0sbzbgdmv-fill" data-item-order="0" transform="translate(194, 254)"><g id="tx_time_zjg0sbzbgdmv-fill-merged" stroke="none" fill="#f4f4f4" fill-opacity="1"><g><text style="font: 20px &quot;Roboto&quot;, sans-serif; white-space: pre;" transform="translate(70, 22)" font-size="20px" font-family="'Roboto', sans-serif"><tspan x="-46.93" y="12" dominant-baseline="ideographic">Time</tspan></text></g></g></g><g id="g-root-tx_new_hx53ilw9faio-fill" data-item-order="0" transform="translate(650, 254)"><g id="tx_new_hx53ilw9faio-fill-merged" stroke="none" fill="#ffffff" fill-opacity="1"><g><text style="font: 20px &quot;Roboto&quot;, sans-serif; white-space: pre;" transform="translate(10, 22)" font-size="20px" font-family="'Roboto', sans-serif"><tspan x="2" y="12" dominant-baseline="ideographic">Scopes</tspan></text></g></g></g><g id="g-root-tx_location_v3minvzbgef4-fill" data-item-order="0" transform="translate(170, 290)"><g id="tx_location_v3minvzbgef4-fill-merged" stroke="none" fill="#f4f4f4" fill-opacity="1"><g><text style="font: 20px &quot;Roboto&quot;, sans-serif; white-space: pre;" transform="translate(94, 22)" font-size="20px" font-family="'Roboto', sans-serif"><tspan x="-79.38" y="12" dominant-baseline="ideographic">Location</tspan></text></g></g></g><g id="g-root-tx_new_1uqjrx9vphh55-fill" data-item-order="0" transform="translate(650, 290)"><g id="tx_new_1uqjrx9vphh55-fill-merged" stroke="none" fill="#ffffff" fill-opacity="1"><g><text style="font: 20px &quot;Roboto&quot;, sans-serif; white-space: pre;" transform="translate(10, 22)" font-size="20px" font-family="'Roboto', sans-serif"><tspan x="2" y="12" dominant-baseline="ideographic">Annotations</tspan></text></g></g></g><g id="g-root-ic_ques_v3minvzbgef5-fill" data-item-order="0" transform="translate(626, 131)"></g><g id="g-root-ic_norm_18hkxdnzbggem-fill" data-item-order="0" transform="translate(416, 236)"></g><g id="g-root-tx_porcexpr_1hd7xmjzbgflx-fill" data-item-order="0" transform="translate(350, 320)"><g id="tx_porcexpr_1hd7xmjzbgflx-fill-merged" stroke="none" fill="#b7b7b7" fill-opacity="1"><g><text style="font: 25px &quot;Roboto&quot;, sans-serif; white-space: pre;" transform="translate(112, 28)" font-size="25px" font-family="'Roboto', sans-serif"><tspan x="-96.45" y="15" dominant-baseline="ideographic">PORC Expression</tspan></text></g></g></g><g id="g-root-tx_context_9259tnzbark5-fill" data-item-order="0" transform="translate(158, 206)"><g id="tx_context_9259tnzbark5-fill-merged" stroke="none" fill="#faeeff" fill-opacity="1"><g><text style="font: 20px &quot;Roboto&quot;, sans-serif; white-space: pre;" transform="translate(94, 22)" font-size="20px" font-family="'Roboto', sans-serif"><tspan x="-71.08" y="12" dominant-baseline="ideographic">Context</tspan></text></g></g></g><g id="g-root-tx_porcexpr_1cz9urfzbat50-fill" data-item-order="0" transform="translate(242, 38)"><g id="tx_porcexpr_1cz9urfzbat50-fill-merged" stroke="none" fill="#f4f4f4" fill-opacity="1"><g><text style="font: bold 25px &quot;Roboto&quot;, sans-serif; white-space: pre;" transform="translate(220, 28)" font-weight="bold" font-size="25px" font-family="'Roboto', sans-serif"><tspan x="-206.43" y="15" dominant-baseline="ideographic">PORC Expression: Conceptual Model</tspan></text></g></g></g><g id="g-root-ic_1_18fpi4bzbj8xs-fill" data-item-order="0" transform="translate(248, 365)"></g><g id="g-root-tx_new_146r1gdxdjaiu-fill" data-item-order="0" transform="translate(134, 560)"><g id="tx_new_146r1gdxdjaiu-fill-merged" stroke="none" fill="#ffffff" fill-opacity="1"><g><text style="font: 20px &quot;Roboto&quot;, sans-serif; white-space: pre;" transform="translate(130, 22)" font-size="20px" font-family="'Roboto', sans-serif"><tspan x="-110.17" y="12" dominant-baseline="ideographic">Annotations</tspan></text></g></g></g><g id="g-root-ic_shar_qvapkrzbkmbv-fill" data-item-order="0" transform="translate(626, 365)"></g><g id="g-root-tx_resource_13zvzzvzbj8y7-fill" data-item-order="0" transform="translate(146, 368)"><g id="tx_resource_13zvzzvzbj8y7-fill-merged" stroke="none" fill="#ffe8f6" fill-opacity="1"><g><text style="font: 20px &quot;Roboto&quot;, sans-serif; white-space: pre;" transform="translate(106, 22)" font-size="20px" font-family="'Roboto', sans-serif"><tspan x="-85.33" y="12" dominant-baseline="ideographic">Resource</tspan></text></g></g></g><g id="g-root-tx_operatio_18k2tq3zbnfno-fill" data-item-order="0" transform="translate(662, 368)"><g id="tx_operatio_18k2tq3zbnfno-fill-merged" stroke="none" fill="#ffe9e8" fill-opacity="1"><g><text style="font: 20px &quot;Roboto&quot;, sans-serif; white-space: pre;" transform="translate(10, 22)" font-size="20px" font-family="'Roboto', sans-serif"><tspan x="2" y="12" dominant-baseline="ideographic">Operation</tspan></text></g></g></g><g id="g-root-tx_useriden_1hd7xmjzbgflv-fill" data-item-order="0" transform="translate(650, 182)"><g id="tx_useriden_1hd7xmjzbgflv-fill-merged" stroke="none" fill="#f4f4f4" fill-opacity="1"><g><text style="font: 20px &quot;Roboto&quot;, sans-serif; white-space: pre;" transform="translate(10, 22)" font-size="20px" font-family="'Roboto', sans-serif"><tspan x="2" y="12" dominant-baseline="ideographic">User Identity</tspan></text></g></g></g><g id="g-root-tx_file_zqxptnzbklj5-fill" data-item-order="0" transform="translate(74, 416)"><g id="tx_file_zqxptnzbklj5-fill-merged" stroke="none" fill="#f4f4f4" fill-opacity="1"><g><text style="font: 20px &quot;Roboto&quot;, sans-serif; white-space: pre;" transform="translate(190, 22)" font-size="20px" font-family="'Roboto', sans-serif"><tspan x="-168.55" y="12" dominant-baseline="ideographic">Resource Identifier</tspan></text></g></g></g><g id="g-root-tx_read_zofth7zbnggd-fill" data-item-order="0" transform="translate(650, 416)"><g id="tx_read_zofth7zbnggd-fill-merged" stroke="none" fill="#f4f4f4" fill-opacity="1"><g><text style="font: 20px &quot;Roboto&quot;, sans-serif; white-space: pre;" transform="translate(10, 34)" font-size="20px" font-family="'Roboto', sans-serif"><tspan x="2" y="0" dominant-baseline="ideographic">e.g. Read/Write/</tspan><tspan x="2" y="24" dominant-baseline="ideographic">Delete</tspan></text></g></g></g><g id="g-root-tx_new_1d3mal9y7gnwk-fill" data-item-order="0" transform="translate(182, 452)"><g id="tx_new_1d3mal9y7gnwk-fill-merged" stroke="none" fill="#ffffff" fill-opacity="1"><g><text style="font: 20px &quot;Roboto&quot;, sans-serif; white-space: pre;" transform="translate(82, 22)" font-size="20px" font-family="'Roboto', sans-serif"><tspan x="-59.23" y="12" dominant-baseline="ideographic">Owner</tspan></text></g></g></g><g id="g-root-tx_new_4gpkwtwjq48y-fill" data-item-order="0" transform="translate(194, 488)"><g id="tx_new_4gpkwtwjq48y-fill-merged" stroke="none" fill="#ffffff" fill-opacity="1"><g><text style="font: 20px &quot;Roboto&quot;, sans-serif; white-space: pre;" transform="translate(70, 22)" font-size="20px" font-family="'Roboto', sans-serif"><tspan x="-55.87" y="12" dominant-baseline="ideographic">Group</tspan></text></g></g></g><g id="g-root-tx_new_m7zlelwtlgcr-fill" data-item-order="0" transform="translate(122, 524)"><g id="tx_new_m7zlelwtlgcr-fill-merged" stroke="none" fill="#ffffff" fill-opacity="1"><g><text style="font: 20px &quot;Roboto&quot;, sans-serif; white-space: pre;" transform="translate(142, 22)" font-size="20px" font-family="'Roboto', sans-serif"><tspan x="-122.57" y="12" dominant-baseline="ideographic">Classification</tspan></text></g></g></g><g id="g-root-tx_principa_1lt1fqzzbgetm-fill" data-item-order="0" transform="translate(662, 134)"><g id="tx_principa_1lt1fqzzbgetm-fill-merged" stroke="none" fill="#fff0e2" fill-opacity="1"><g><text style="font: 20px &quot;Roboto&quot;, sans-serif; white-space: pre;" transform="translate(10, 22)" font-size="20px" font-family="'Roboto', sans-serif"><tspan x="2" y="12" dominant-baseline="ideographic">Principal</tspan></text></g></g></g><g id="g-root-ic_info_9259tnzbark6-fill" data-item-order="0" transform="translate(248, 203)"></g><g id="g-root-cp_4_text-4_mb3vujzbatcf-stroke" data-item-order="-504559" transform="translate(146, 194)"><g id="cp_4_text-4_mb3vujzbatcf-stroke" fill="none" stroke-linecap="round" stroke-linejoin="round" stroke-miterlimit="4" stroke="#1ac3fb" stroke-width="2" stroke-opacity="1"><g><path d="M 16 10C 12.6863 10 10 12.6863 10 16M 16 10L 148 10M 148 10C 151.3137 10 154 12.6863 154 16M 154 52L 154 16M 10 52L 10 16M 10 52C 10 55.3137 12.6863 58 16 58M 148 58L 16 58M 148 58C 151.3137 58 154 55.3137 154 52"></path></g></g></g><g id="g-root-cp_1_text-1_dg3corzbarr4-stroke" data-item-order="-504489" transform="translate(614, 122)"><g id="cp_1_text-1_dg3corzbarr4-stroke" fill="none" stroke-linecap="round" stroke-linejoin="round" stroke-miterlimit="4" stroke="#4f91fc" stroke-width="2" stroke-opacity="1"><g><path d="M 16 10C 12.6863 10 10 12.6863 10 16M 16 10L 148 10M 148 10C 151.3137 10 154 12.6863 154 16M 154 52L 154 16M 10 52L 10 16M 10 52C 10 55.3137 12.6863 58 16 58M 148 58L 16 58M 148 58C 151.3137 58 154 55.3137 154 52"></path></g></g></g><g id="g-root-cp_-1_parent-4-part_4kgcfvzbasjt-stroke" data-item-order="-504407" transform="translate(338, 218)"><g id="cp_-1_parent-4-part_4kgcfvzbasjt-stroke" fill="none" stroke-linecap="round" stroke-linejoin="round" stroke-miterlimit="4" stroke="#f4f4f4" stroke-width="2" stroke-opacity="1"><g><path d="M 16 10C 12.6863 10 10 12.6863 10 16M 16 10L 232 10M 232 10C 235.3137 10 238 12.6863 238 16M 238 154L 238 16M 10 154L 10 16M 10 154C 10 157.3137 12.6863 160 16 160M 232 160L 16 160M 232 160C 235.3137 160 238 157.3137 238 154"></path></g></g></g><g id="g-root-cp_3_text-3_4mubfzbatc2-stroke" data-item-order="-504321" transform="translate(134, 356)"><g id="cp_3_text-3_4mubfzbatc2-stroke" fill="none" stroke-linecap="round" stroke-linejoin="round" stroke-miterlimit="4" stroke="#a6da37" stroke-width="2" stroke-opacity="1"><g><path d="M 16 10C 12.6863 10 10 12.6863 10 16M 16 10L 160 10M 160 10C 163.3137 10 166 12.6863 166 16M 166 52L 166 16M 10 52L 10 16M 10 52C 10 55.3137 12.6863 58 16 58M 160 58L 16 58M 160 58C 163.3137 58 166 55.3137 166 52"></path></g></g></g><g id="g-root-cp_2_text-2_1qa3w1nzbatxn-stroke" data-item-order="-504227" transform="translate(614, 356)"><g id="cp_2_text-2_1qa3w1nzbatxn-stroke" fill="none" stroke-linecap="round" stroke-linejoin="round" stroke-miterlimit="4" stroke="#43dd93" stroke-width="2" stroke-opacity="1"><g><path d="M 16 10C 12.6863 10 10 12.6863 10 16M 16 10L 160 10M 160 10C 163.3137 10 166 12.6863 166 16M 166 52L 166 16M 10 52L 10 16M 10 52C 10 55.3137 12.6863 58 16 58M 160 58L 16 58M 160 58C 163.3137 58 166 55.3137 166 52"></path></g></g></g><g id="g-root-he_1luwv0bzbark5-stroke" data-item-order="-504169" transform="translate(566, 149)"><g id="he_1luwv0bzbark5-stroke" fill="none" stroke-linecap="round" stroke-linejoin="round" stroke-miterlimit="4" stroke="#f4f4f4" stroke-width="2" stroke-opacity="1"><style>.fillAsHole-mk-1utnme5yrmvph { fill:#2C2C2C; }</style><g><path d="M 10 189.4L 22 189.4C 28.63 189.4 34 184.03 34 177.4L 34 22C 34 15.37 39.37 10 46 10L 55 10"></path><path d="M 55 10C 55.000001 11.656854 56.343147 13 58.000001 13C 59.656856 13 61.000001 11.656854 61.000001 10C 61.000001 8.343146 59.656856 7 58.000001 7C 56.343147 7 55.000001 8.343146 55.000001 10Z" stroke-dasharray="none" class="fillAsHole-mk-1utnme5yrmvph" fill="#2C2C2C"></path></g></g></g><g id="g-root-he_1luwv0bzbark7-stroke" data-item-order="-504167" transform="translate(626, 170)"><g id="he_1luwv0bzbark7-stroke" fill="none" stroke-linecap="round" stroke-linejoin="round" stroke-miterlimit="4" stroke="#f4f4f4" stroke-width="2" stroke-opacity="1"><style>.fillAsStrokeColor-mk-1utnme5yrmvpi { fill:#f4f4f4; }
.fillAsStrokeColor-mk-1utnme5yrmvpj { fill:#f4f4f4; }
.fillAsStrokeColor-mk-1utnme5yrmvpk { fill:#f4f4f4; }
.fillAsStrokeColor-mk-1utnme5yrmvpl { fill:#f4f4f4; }</style><g><path d="M 10 10L 10 130C 10 136.627421 15.372583 142.000004 22 142.000004L 22 142M 10 34L 22 34M 10 70L 22 70M 10 106L 22 106"></path><path d="M 20.5 142C 20.5 142.828431 21.171573 143.500004 22 143.500004C 22.828427 143.500004 23.5 142.828431 23.5 142.000004C 23.5 141.171577 22.828427 140.500004 22 140.500004C 21.171573 140.500004 20.5 141.171577 20.5 142.000004Z" stroke-dasharray="none" class="fillAsStrokeColor-mk-1utnme5yrmvpi" fill="#f4f4f4"></path><path d="M 20.5 34C 20.5 34.828428 21.171573 35.500001 22 35.500001C 22.828427 35.500001 23.5 34.828428 23.5 34.000001C 23.5 33.171574 22.828427 32.500001 22 32.500001C 21.171573 32.500001 20.5 33.171574 20.5 34.000001Z" stroke-dasharray="none" class="fillAsStrokeColor-mk-1utnme5yrmvpj" fill="#f4f4f4"></path><path d="M 20.5 70C 20.5 70.828429 21.171573 71.500002 22 71.500002C 22.828427 71.500002 23.5 70.828429 23.5 70.000002C 23.5 69.171575 22.828427 68.500002 22 68.500002C 21.171573 68.500002 20.5 69.171575 20.5 70.000002Z" stroke-dasharray="none" class="fillAsStrokeColor-mk-1utnme5yrmvpk" fill="#f4f4f4"></path><path d="M 20.5 106C 20.5 106.82843 21.171573 107.500003 22 107.500003C 22.828427 107.500003 23.5 106.82843 23.5 106.000003C 23.5 105.171576 22.828427 104.500003 22 104.500003C 21.171573 104.500003 20.5 105.171576 20.5 106.000003Z" stroke-dasharray="none" class="fillAsStrokeColor-mk-1utnme5yrmvpl" fill="#f4f4f4"></path></g></g></g><g id="g-root-he_1hf3cvvzbasch-stroke" data-item-order="-504165" transform="translate(566, 347.5999755859375)"><g id="he_1hf3cvvzbasch-stroke" fill="none" stroke-linecap="round" stroke-linejoin="round" stroke-miterlimit="4" stroke="#f4f4f4" stroke-width="2" stroke-opacity="1"><style>.fillAsHole-mk-1qeglctyrmtc2 { fill:#2C2C2C; }</style><g><path d="M 10 10L 22 10C 28.63 10 34 15.37 34 22L 34 33.4C 34 40.03 39.37 45.4 46 45.4L 55 45.4"></path><path d="M 55 45.4C 55.000001 47.056855 56.343147 48.400001 58.000001 48.400001C 59.656856 48.400001 61.000001 47.056855 61.000001 45.400001C 61.000001 43.743147 59.656856 42.400001 58.000001 42.400001C 56.343147 42.400001 55.000001 43.743147 55.000001 45.400001Z" stroke-dasharray="none" class="fillAsHole-mk-1qeglctyrmtc2" fill="#2C2C2C"></path></g></g></g><g id="g-root-he_1hf3cvvzbascj-stroke" data-item-order="-504163" transform="translate(626, 404)"><g id="he_1hf3cvvzbascj-stroke" fill="none" stroke-linecap="round" stroke-linejoin="round" stroke-miterlimit="4" stroke="#f4f4f4" stroke-width="2" stroke-opacity="1"><style>.fillAsStrokeColor-mk-1qeglctyrmtc3 { fill:#f4f4f4; }</style><g><path d="M 10 10L 10 22C 10 28.627418 15.372583 34.000001 22 34.000001L 22 34"></path><path d="M 20.5 34C 20.5 34.828428 21.171573 35.500001 22 35.500001C 22.828427 35.500001 23.5 34.828428 23.5 34.000001C 23.5 33.171574 22.828427 32.500001 22 32.500001C 21.171573 32.500001 20.5 33.171574 20.5 34.000001Z" stroke-dasharray="none" class="fillAsStrokeColor-mk-1qeglctyrmtc3" fill="#f4f4f4"></path></g></g></g><g id="g-root-he_1hf3cvvzbascl-stroke" data-item-order="-504161" transform="translate(290, 347.5999755859375)"><g id="he_1hf3cvvzbascl-stroke" fill="none" stroke-linecap="round" stroke-linejoin="round" stroke-miterlimit="4" stroke="#f4f4f4" stroke-width="2" stroke-opacity="1"><style>.fillAsHole-mk-1qeglctyrmtc4 { fill:#2C2C2C; }</style><g><path d="M 58 10L 46 10C 39.37 10 34 15.37 34 22L 34 33.4C 34 40.03 28.63 45.4 22 45.4L 13 45.4"></path><path d="M 7 45.4C 7 47.056855 8.343146 48.400001 10 48.400001C 11.656854 48.400001 13 47.056855 13 45.400001C 13 43.743147 11.656854 42.400001 10 42.400001C 8.343146 42.400001 7 43.743147 7 45.400001Z" stroke-dasharray="none" class="fillAsHole-mk-1qeglctyrmtc4" fill="#2C2C2C"></path></g></g></g><g id="g-root-he_1hf3cvvzbascn-stroke" data-item-order="-504159" transform="translate(266, 404)"><g id="he_1hf3cvvzbascn-stroke" fill="none" stroke-linecap="round" stroke-linejoin="round" stroke-miterlimit="4" stroke="#f4f4f4" stroke-width="2" stroke-opacity="1"><style>.fillAsStrokeColor-mk-1qeglctyrmtc5 { fill:#f4f4f4; }
.fillAsStrokeColor-mk-1qeglctyrmtc6 { fill:#f4f4f4; }
.fillAsStrokeColor-mk-1qeglctyrmtc7 { fill:#f4f4f4; }
.fillAsStrokeColor-mk-1qeglctyrmtc8 { fill:#f4f4f4; }
.fillAsStrokeColor-mk-1qeglctyrmtc9 { fill:#f4f4f4; }</style><g><path d="M 22 10L 22 166C 22.000001 172.627422 16.627417 178.000005 10 178.000005L 10 178M 22 34L 10 34M 22 70L 10 70M 22 106L 10 106M 22 142L 10 142"></path><path d="M 8.5 178C 8.5 178.828432 9.171573 179.500005 10 179.500005C 10.828427 179.500005 11.5 178.828432 11.5 178.000005C 11.5 177.171578 10.828427 176.500005 10 176.500005C 9.171573 176.500005 8.5 177.171578 8.5 178.000005Z" stroke-dasharray="none" class="fillAsStrokeColor-mk-1qeglctyrmtc5" fill="#f4f4f4"></path><path d="M 8.5 34C 8.5 34.828428 9.171573 35.500001 10 35.500001C 10.828427 35.500001 11.5 34.828428 11.5 34.000001C 11.5 33.171574 10.828427 32.500001 10 32.500001C 9.171573 32.500001 8.5 33.171574 8.5 34.000001Z" stroke-dasharray="none" class="fillAsStrokeColor-mk-1qeglctyrmtc6" fill="#f4f4f4"></path><path d="M 8.5 70C 8.5 70.828429 9.171573 71.500002 10 71.500002C 10.828427 71.500002 11.5 70.828429 11.5 70.000002C 11.5 69.171575 10.828427 68.500002 10 68.500002C 9.171573 68.500002 8.5 69.171575 8.5 70.000002Z" stroke-dasharray="none" class="fillAsStrokeColor-mk-1qeglctyrmtc7" fill="#f4f4f4"></path><path d="M 8.5 106C 8.5 106.82843 9.171573 107.500003 10 107.500003C 10.828427 107.500003 11.5 106.82843 11.5 106.000003C 11.5 105.171576 10.828427 104.500003 10 104.500003C 9.171573 104.500003 8.5 105.171576 8.5 106.000003Z" stroke-dasharray="none" class="fillAsStrokeColor-mk-1qeglctyrmtc8" fill="#f4f4f4"></path><path d="M 8.5 142C 8.5 142.828431 9.171573 143.500004 10 143.500004C 10.828427 143.500004 11.5 142.828431 11.5 142.000004C 11.5 141.171577 10.828427 140.500004 10 140.500004C 9.171573 140.500004 8.5 141.171577 8.5 142.000004Z" stroke-dasharray="none" class="fillAsStrokeColor-mk-1qeglctyrmtc9" fill="#f4f4f4"></path></g></g></g><g id="g-root-he_1cz9urfzbat4x-stroke" data-item-order="-504157" transform="translate(290, 221)"><g id="he_1cz9urfzbat4x-stroke" fill="none" stroke-linecap="round" stroke-linejoin="round" stroke-miterlimit="4" stroke="#f4f4f4" stroke-width="2" stroke-opacity="1"><style>.fillAsHole-mk-1lyn38dyrmu4i { fill:#2C2C2C; }</style><g><path d="M 58 117.4L 46 117.4C 39.37 117.4 34 112.03 34 105.4L 34 22C 34 15.37 28.63 10 22 10L 13 10"></path><path d="M 7 10C 7 11.656854 8.343146 13 10 13C 11.656854 13 13 11.656854 13 10C 13 8.343146 11.656854 7 10 7C 8.343146 7 7 8.343146 7 10Z" stroke-dasharray="none" class="fillAsHole-mk-1lyn38dyrmu4i" fill="#2C2C2C"></path></g></g></g><g id="g-root-he_1cz9urfzbat4z-stroke" data-item-order="-504155" transform="translate(266, 242)"><g id="he_1cz9urfzbat4z-stroke" fill="none" stroke-linecap="round" stroke-linejoin="round" stroke-miterlimit="4" stroke="#f4f4f4" stroke-width="2" stroke-opacity="1"><style>.fillAsStrokeColor-mk-1lyn38dyrmu4j { fill:#f4f4f4; }
.fillAsStrokeColor-mk-1lyn38dyrmu4k { fill:#f4f4f4; }</style><g><path d="M 22 10L 22 58C 22.000001 64.627419 16.627417 70.000002 10 70.000002L 10 70M 22 34L 10 34"></path><path d="M 8.5 70C 8.5 70.828429 9.171573 71.500002 10 71.500002C 10.828427 71.500002 11.5 70.828429 11.5 70.000002C 11.5 69.171575 10.828427 68.500002 10 68.500002C 9.171573 68.500002 8.5 69.171575 8.5 70.000002Z" stroke-dasharray="none" class="fillAsStrokeColor-mk-1lyn38dyrmu4j" fill="#f4f4f4"></path><path d="M 8.5 34C 8.5 34.828428 9.171573 35.500001 10 35.500001C 10.828427 35.500001 11.5 34.828428 11.5 34.000001C 11.5 33.171574 10.828427 32.500001 10 32.500001C 9.171573 32.500001 8.5 33.171574 8.5 34.000001Z" stroke-dasharray="none" class="fillAsStrokeColor-mk-1lyn38dyrmu4k" fill="#f4f4f4"></path></g></g></g><g id="g-root-tx_role_1hd7xmjzbgflw-stroke" data-item-order="0" transform="translate(650, 218)"></g><g id="g-root-tx_time_zjg0sbzbgdmv-stroke" data-item-order="0" transform="translate(194, 254)"></g><g id="g-root-tx_new_hx53ilw9faio-stroke" data-item-order="0" transform="translate(650, 254)"></g><g id="g-root-tx_location_v3minvzbgef4-stroke" data-item-order="0" transform="translate(170, 290)"></g><g id="g-root-tx_new_1uqjrx9vphh55-stroke" data-item-order="0" transform="translate(650, 290)"></g><g id="g-root-ic_ques_v3minvzbgef5-stroke" data-item-order="0" transform="translate(626, 131)"><g id="ic_ques_v3minvzbgef5-stroke" fill="none" stroke-linecap="round" stroke-linejoin="round" stroke-miterlimit="4" stroke="#4f91fc" stroke-width="2" stroke-opacity="1"><g><path d="M 24.375 18.125C 24.375002 22.267136 27.732864 25.625 31.875 25.625C 36.017136 25.625 39.375 22.267136 39.375 18.125C 39.375 13.982864 36.017136 10.625 31.875 10.625C 27.732864 10.625 24.375002 13.982864 24.375002 18.125ZM 29.53125 16.3025C 29.531252 15.008083 30.580582 13.958751 31.875 13.958751C 33.169418 13.958751 34.21875 15.008083 34.21875 16.3025C 34.21875 17.596918 33.169418 18.64625 31.875 18.64625L 31.875 19.89625M 31.875 22.39625C 32.047588 22.39625 32.1875 22.536161 32.1875 22.70875C 32.1875 22.881338 32.047588 23.02125 31.875 23.02125C 31.702412 23.02125 31.5625 22.881338 31.5625 22.70875C 31.5625 22.536161 31.702412 22.39625 31.875 22.39625M 19.375 39.375L 20 31.875L 23.125 31.875L 23.125 27.5C 23.125 24.048222 20.32678 21.25 16.875 21.25C 13.423221 21.25 10.625 24.048222 10.625 27.5L 10.625 31.875L 13.75 31.875L 14.375 39.375ZM 12.5 15C 12.5 17.416246 14.458755 19.375 16.875 19.375C 19.291246 19.375 21.25 17.416246 21.25 15C 21.25 12.583755 19.291246 10.625 16.875 10.625C 14.458755 10.625 12.5 12.583755 12.5 15Z"></path></g></g></g><g id="g-root-ic_norm_18hkxdnzbggem-stroke" data-item-order="0" transform="translate(416, 236)"><g id="ic_norm_18hkxdnzbggem-stroke" fill="none" stroke-linecap="round" stroke-linejoin="round" stroke-miterlimit="4" stroke="#b7b7b7" stroke-width="2" stroke-opacity="1"><g><path d="M 14.5 11.494L 77.5 11.494C 77.5 11.494 80.5 11.494 80.5 14.494L 80.5 77.493996C 80.5 77.493996 80.5 80.493996 77.5 80.493996L 14.5 80.493996C 14.5 80.493996 11.5 80.493996 11.5 77.493996L 11.5 14.494C 11.5 14.494 11.5 11.494 14.5 11.494M 29.5 26.493999L 71.5 26.493999M 20.5 38.493999L 71.5 38.493999M 20.5 50.493999L 71.5 50.493999M 20.5 62.493996L 41.5 62.493996"></path></g></g></g><g id="g-root-tx_porcexpr_1hd7xmjzbgflx-stroke" data-item-order="0" transform="translate(350, 320)"></g><g id="g-root-tx_context_9259tnzbark5-stroke" data-item-order="0" transform="translate(158, 206)"></g><g id="g-root-tx_porcexpr_1cz9urfzbat50-stroke" data-item-order="0" transform="translate(242, 38)"></g><g id="g-root-ic_1_18fpi4bzbj8xs-stroke" data-item-order="0" transform="translate(248, 365)"><g id="ic_1_18fpi4bzbj8xs-stroke" fill="none" stroke-linecap="round" stroke-linejoin="round" stroke-miterlimit="4" stroke="#a6da37" stroke-width="2" stroke-opacity="1"><g><path d="M 38.157001 27.631624L 38.157001 22.368162L 32.776375 22.368162L 32.776375 27.631624L 38.157001 27.631624ZM 10 10M 25.252001 18.362213L 28.963875 14.650263L 25.252001 10.93833L 21.540051 14.650263L 25.252001 18.362213ZM 10 10M 32.247002 17.471838L 35.396751 11.828612L 38.808876 17.471838L 32.247002 17.471838ZM 25.252251 28.110624C 26.9865 28.110624 28.392374 26.70475 28.392374 24.970501C 28.392374 23.236374 26.9865 21.83045 25.252251 21.83045C 23.518 21.83045 22.112125 23.236374 22.112125 24.970501C 22.112125 26.70475 23.518 28.110624 25.252251 28.110624ZM 10 10M 29.941124 34.0625L 28.066124 32.1875L 20.816113 32.1875C 20.066113 30.3125 18.316101 29.0625 16.191099 29.0625C 13.4411 29.0625 11.191101 31.3125 11.191101 34.0625C 11.191101 36.8125 13.4411 39.0625 16.191099 39.0625C 18.316101 39.0625 20.066113 37.8125 20.816113 35.9375L 28.066124 35.9375L 29.941124 34.0625ZM 14.86755 35.296127C 15.54885 35.296127 16.101151 34.743874 16.101151 34.062622C 16.101151 33.381248 15.54885 32.829002 14.86755 32.829002C 14.186262 32.829002 13.633963 33.381248 13.633963 34.062622C 13.633963 34.743874 14.186262 35.296127 14.86755 35.296127Z"></path></g></g></g><g id="g-root-tx_new_146r1gdxdjaiu-stroke" data-item-order="0" transform="translate(134, 560)"></g><g id="g-root-ic_shar_qvapkrzbkmbv-stroke" data-item-order="0" transform="translate(626, 365)"><g id="ic_shar_qvapkrzbkmbv-stroke" fill="none" stroke-linecap="round" stroke-linejoin="round" stroke-miterlimit="4" stroke="#43dd93" stroke-width="2" stroke-opacity="1"><g><path d="M 27.23625 10.625L 38.0975 10.625C 38.0975 10.625 39.375 10.625 39.375 11.9025L 39.375 22.125C 39.375 22.125 39.375 23.4025 38.0975 23.4025L 27.23625 23.4025C 27.23625 23.4025 25.95875 23.4025 25.95875 22.125L 25.95875 11.9025C 25.95875 11.9025 25.95875 10.625 27.23625 10.625M 25.95875 14.97625L 39.375 14.97625M 25.95875 19.190001L 39.375 19.190001M 32.026249 14.97625L 32.026249 23.4025M 35.623749 14.97625L 35.623749 23.4025M 16.375 18.5L 13.5 21.25L 13.5 18.5C 13.541012 16.42392 15.257687 14.774412 17.33375 14.81625L 22.125 14.81625M 10.625 18.5L 13.5 21.25625M 19.25 12.05625L 22.125 14.81625L 19.25 17.57625M 11.9025 24.68L 18.93125 24.68C 18.93125 24.68 20.20875 24.68 20.20875 25.9575L 20.20875 38.0975C 20.20875 38.0975 20.20875 39.375 18.93125 39.375L 11.9025 39.375C 11.9025 39.375 10.625 39.375 10.625 38.0975L 10.625 25.9575C 10.625 25.9575 10.625 24.68 11.9025 24.68M 10.625 35.541252L 20.20875 35.541252"></path></g></g></g><g id="g-root-tx_resource_13zvzzvzbj8y7-stroke" data-item-order="0" transform="translate(146, 368)"></g><g id="g-root-tx_operatio_18k2tq3zbnfno-stroke" data-item-order="0" transform="translate(662, 368)"></g><g id="g-root-tx_useriden_1hd7xmjzbgflv-stroke" data-item-order="0" transform="translate(650, 182)"></g><g id="g-root-tx_file_zqxptnzbklj5-stroke" data-item-order="0" transform="translate(74, 416)"></g><g id="g-root-tx_read_zofth7zbnggd-stroke" data-item-order="0" transform="translate(650, 416)"></g><g id="g-root-tx_new_1d3mal9y7gnwk-stroke" data-item-order="0" transform="translate(182, 452)"></g><g id="g-root-tx_new_4gpkwtwjq48y-stroke" data-item-order="0" transform="translate(194, 488)"></g><g id="g-root-tx_new_m7zlelwtlgcr-stroke" data-item-order="0" transform="translate(122, 524)"></g><g id="g-root-tx_principa_1lt1fqzzbgetm-stroke" data-item-order="0" transform="translate(662, 134)"></g><g id="g-root-ic_info_9259tnzbark6-stroke" data-item-order="0" transform="translate(248, 203)"><g id="ic_info_9259tnzbark6-stroke" fill="none" stroke-linecap="round" stroke-linejoin="round" stroke-miterlimit="4" stroke="#1ac3fb" stroke-width="2" stroke-opacity="1"><g><path d="M 31.875 39.375C 36.017124 39.375 39.375 36.017124 39.375 31.875C 39.375 27.732876 36.017124 24.375 31.875 24.375C 27.732876 24.375 24.375 27.732876 24.375 31.875C 24.375 36.017124 27.732876 39.375 31.875 39.375ZM 31.875 35.625L 31.875 31.25C 31.875 31.084249 31.809124 30.925251 31.691999 30.808001C 31.574749 30.690876 31.415751 30.625 31.25 30.625L 30 30.625M 30 35.625L 33.75 35.625M 21.25 30.625L 10.625 30.625C 10.641865 29.196875 10.939162 27.785999 11.5 26.4725C 12.1125 25.24625 14.67375 24.39625 17.88875 23.206249C 18.7575 22.883751 18.615 20.615 18.23 20.19125C 17.615875 19.527187 17.149162 18.740738 16.860476 17.883537C 16.5718 17.02635 16.467701 16.117775 16.555 15.2175C 16.499901 14.644438 16.563412 14.066162 16.741587 13.518725C 16.91975 12.971288 17.208763 12.466413 17.590601 12.03555C 17.972437 11.6047 18.438913 11.2571 18.960976 11.014418C 19.483025 10.771737 20.049475 10.639179 20.625 10.625C 21.200525 10.639179 21.766975 10.771737 22.289024 11.014418C 22.811125 11.2571 23.277624 11.6047 23.659374 12.03555C 24.04125 12.466413 24.33025 12.971288 24.508375 13.518725C 24.686625 14.066162 24.750126 14.644438 24.695 15.2175C 24.782999 16.117424 24.679625 17.025763 24.391876 17.88295C 24.104 18.740124 23.63825 19.526762 23.025 20.19125C 22.640001 20.615 22.497499 22.883751 23.366249 23.206249C 23.93375 23.41625 24.48 23.615 25 23.80875M 30.9375 28.125C 30.764875 28.125 30.625 27.985125 30.625 27.8125C 30.625 27.639875 30.764875 27.5 30.9375 27.5M 30.9375 28.125C 31.110125 28.125 31.25 27.985125 31.25 27.8125C 31.25 27.639875 31.110125 27.5 30.9375 27.5"></path></g></g></g></g></g><path id="w4hbpctz1ckjt" d="M65.283 12.757a.35.35 0 0 0 .584.157l5.203-5.141-6.183 3.523.396 1.461zm-2.216-11.7a.35.35 0 0 0-.522.305v3.111l3.276-1.868-2.754-1.548zm3.728 2.105l-4.25 2.421v2.445l6.391-3.644-2.141-1.222zm4.708 3.303a.35.35 0 0 0 0-.609l-1.592-.9-7.365 4.199v1.782a.35.35 0 0 0 .523.305l8.435-4.777z M44.542 2.513c0-.433.355-.783.792-.783s.792.35.792.783-.355.783-.792.783-.792-.35-.792-.783zm59.171 0c0-.433.355-.783.792-.783s.792.35.792.783-.355.783-.792.783-.792-.35-.792-.783zm-85.951 7.636h-1.27v-.487c-.276.201-.864.609-1.881.609-1.202 0-2.274-.794-2.137-2.078.118-1.106 1.153-1.584 1.848-1.727l2.17-.345c0-.539-.29-.956-1.064-1.006s-1.21.305-1.571 1.017l-1.124-.605c1.218-2.631 5.029-1.764 5.029.414v4.207zm-1.27-2.86c.006.396-.062 1.112-.819 1.59-.587.37-1.841.299-1.903-.395-.049-.555.461-.791.906-.898l1.816-.297zm72.662 2.86h-1.27v-.487c-.276.201-.864.609-1.881.609-1.202 0-2.274-.794-2.137-2.078.118-1.106 1.153-1.584 1.848-1.727l2.17-.345c0-.539-.29-.956-1.064-1.006s-1.21.305-1.571 1.017l-1.124-.605c1.218-2.631 5.029-1.764 5.029.414v4.207zm-1.27-2.86c.006.396-.062 1.112-.82 1.59-.587.37-1.841.299-1.903-.395-.049-.555.461-.791.906-.898l1.816-.297zM99.096 10.149H97.85v-8.45h1.246v4.895l2.68-2.559h1.738l-2.633 2.535 2.715 3.578h-1.556l-2.077-2.707-.867.844v1.863zm6.053-6.114h-1.255v6.113h1.255V4.035zm-59.2 0h-1.255v6.113h1.255V4.035zm5.584 6.113V1.697h1.255v2.695c.361-.346 1-.485 1.47-.485 1.452 0 2.477 1.082 2.457 2.448v3.792h-1.27v-3.68c0-.408-.214-1.339-1.315-1.339-.968 0-1.342.756-1.342 1.339v3.681h-1.255zm-4.76-4.894V4.039h.621a.45.45 0 0 0 .45-.45v-.855h1.251v1.305h1.309v1.215h-1.309v3.109c0 .293.105.664.648.664.365 0 .531-.035.736-.07v1.137s-.361.113-.857.113c-1.398 0-1.777-1.051-1.777-1.788V5.254h-1.071zM36.528 4.039h-1.394l2.191 6.106h1.125l1.234-3.918 1.238 3.918h1.129l2.188-6.106h-1.383l-1.359 3.93-1.256-3.93h-1.124l-1.242 3.957-1.348-3.957zM26.212 7.141c-.02 1.566 1.187 3.129 3.223 3.129 1.566 0 2.383-.918 2.734-1.719L31.172 8c-.315.399-.801 1.094-1.738 1.094-1.145 0-1.825-.781-1.891-1.52h4.625c.074-.284.148-.995-.03-1.559-.336-1.064-1.221-2.102-2.839-2.102s-3.088 1.152-3.088 3.227zm1.363-.75h3.348c-.055-.43-.566-1.301-1.623-1.301a1.79 1.79 0 0 0-1.725 1.301zm-8.758.75c.038 1.758 1.277 3.133 3.145 3.133 1.074 0 1.723-.477 1.961-.672v.547h1.242V1.703h-1.258v2.888c-.414-.36-1.062-.68-1.93-.68-1.91 0-3.198 1.473-3.16 3.23zm1.309-.08c0 1.119.723 1.978 1.836 1.978a1.88 1.88 0 0 0 1.94-1.904c0-1.371-1.011-1.99-1.972-1.99s-1.805.798-1.805 1.916zm76.683-.028C96.771 5.275 95.532 3.9 93.664 3.9c-1.074 0-1.723.477-1.961.672v-.547h-1.242v8.22h1.258V9.583c.414.36 1.063.68 1.93.68 1.91 0 3.198-1.473 3.16-3.23zm-1.309.08c0-1.119-.723-1.978-1.836-1.978a1.88 1.88 0 0 0-1.94 1.904c0 1.371 1.011 1.99 1.972 1.99S95.5 8.231 95.5 7.113zM106.441 10.173V4.036h1.254v.382c.361-.346 1-.485 1.47-.485 1.452 0 2.477 1.082 2.457 2.448v3.792h-1.27V6.492c0-.408-.214-1.339-1.315-1.339-.969 0-1.342.756-1.342 1.339v3.681h-1.254zm-30.383-.021V1.824h1.084l4.215 5.777V1.824h1.32v8.328h-1.094l-4.207-5.796v5.796h-1.319zM5.24 10.149H4V2.377h1.014l2.664 3.597 2.654-3.592h1.03v7.766h-1.256V4.762L7.678 8.068 5.24 4.742v5.407z" transform="translate(788, 638)" fill="#ababab88" stroke="none"></path></svg>