<?xml version="1.0" encoding="utf-8"?>
<svg id="Layer_1" data-name="Layer 1" viewBox="0 0 448.07 77.99" xmlns="http://www.w3.org/2000/svg" xmlns:xlink="http://www.w3.org/1999/xlink">
  <defs>
    <style>.cls-1{fill:#fff;}.cls-2{clip-path:url(#clip-path);}</style>
    <clipPath id="clip-1">
      <path class="cls-1" d="M427.07,17.52V56.71H416.51A10.53,10.53,0,0,1,406,46.24V17.52H385V46.24a31.46,31.46,0,0,0,31.56,31.28h31.56v-60Z"/>
    </clipPath>
    <linearGradient id="linear-gradient" x1="394.95" y1="69.09" x2="447.29" y2="16.74" gradientUnits="userSpaceOnUse">
      <stop offset="0" stop-color="#2a4aa6"/>
      <stop offset="0.22" stop-color="#2c3a9b"/>
      <stop offset="0.57" stop-color="#45a6e5"/>
      <stop offset="0.65" stop-color="#49acd8"/>
      <stop offset="0.88" stop-color="#53bbb8"/>
      <stop offset="1" stop-color="#57c1ac"/>
    </linearGradient>
    <linearGradient id="linear-gradient-3" x1="-4590.79" y1="-207.01" x2="-4591.76" y2="-206.03" gradientTransform="translate(-289347.12 -12986.25) rotate(180) scale(63.11)" xlink:href="#linear-gradient"/>
  </defs>
  <title>Manetu_text_C3</title>
  <path class="cls-1" d="M69.52,77,69.3,36.19,49.5,69.41H39.82L20.13,37.29V77H0V0H17.93L45,44.44,71.39,0H89.32l.22,77Z"/>
  <path class="cls-1" d="M153.56,23.16q7.81,6.77,7.81,20.73V77H141.9V69.3Q137.39,78,124.3,78a27.58,27.58,0,0,1-12-2.42A17.81,17.81,0,0,1,104.66,69a17.38,17.38,0,0,1-2.58-9.41q0-8.48,6.49-13.15t20-4.67h11.88q-.56-9.46-12.65-9.46a29.21,29.21,0,0,0-8.69,1.37,23.29,23.29,0,0,0-7.48,3.8l-7-14.19a39,39,0,0,1,12-5.11,57.3,57.3,0,0,1,14.25-1.82Q145.75,16.39,153.56,23.16ZM136.51,63a9.83,9.83,0,0,0,4-5.17V52.69h-9q-9.13,0-9.13,6.05a5.34,5.34,0,0,0,2.09,4.4,9,9,0,0,0,5.72,1.65A11.6,11.6,0,0,0,136.51,63Z"/>
  <path class="cls-1" d="M231.82,23q6.77,6.6,6.77,19.91V77h-20.9V46.31q0-12.21-9.79-12.21a11.18,11.18,0,0,0-8.64,3.52Q196,41.15,196,48.18V77h-20.9V17.38H195v6.49a23.54,23.54,0,0,1,8.36-5.55A28.14,28.14,0,0,1,214,16.39Q225.05,16.39,231.82,23Z"/>
  <path class="cls-1" d="M315,52.47H271.7a12.13,12.13,0,0,0,5.11,7.1A17.16,17.16,0,0,0,286.33,62a20.5,20.5,0,0,0,7.42-1.21,22.12,22.12,0,0,0,6.33-4l11,11.44Q302.38,78,285.67,78a40.56,40.56,0,0,1-18.37-4,29.14,29.14,0,0,1-16.61-26.95,29.39,29.39,0,0,1,15.95-26.73,37.51,37.51,0,0,1,33-.27,27.94,27.94,0,0,1,11.49,10.67,31.22,31.22,0,0,1,4.24,16.55C315.37,47.45,315.26,49.17,315,52.47ZM275.49,34a12.39,12.39,0,0,0-4.12,7.48h24.42A12.41,12.41,0,0,0,291.66,34a13.26,13.26,0,0,0-16.17,0Z"/>
  <path class="cls-1" d="M374.44,74.58A21.18,21.18,0,0,1,368,77.11a35.48,35.48,0,0,1-8.08.88Q348.25,78,342,72.27t-6.27-17v-20H327V19.58h8.69V4.07h20.9V19.58h13.64V35.2H356.62V55a7,7,0,0,0,1.7,5,6,6,0,0,0,4.57,1.82A11.06,11.06,0,0,0,369.27,60Z"/>
  <g class="cls-3" transform="matrix(1, 0, 0, 1, -0.365968, -0.032332)" style="clip-path: url(#clip-1);">
    <rect class="cls-4" x="384.95" y="17.52" width="63.11" height="60" style="fill: url(#linear-gradient-3);"/>
  </g>
</svg>