<?xml version="1.0" encoding="utf-8"?>
<svg id="Layer_1" data-name="Layer 1" viewBox="213.806 0 448.064 147.738" xmlns="http://www.w3.org/2000/svg" xmlns:xlink="http://www.w3.org/1999/xlink">
  <defs>
    <style>.cls-1{fill:url(#linear-gradient);}.cls-2{fill:#00c4ab;}.cls-3{fill:#03a3ed;}.cls-4{fill:#18185f;}.cls-5{fill:#1a145f;}.cls-6{clip-path:url(#clip-path);}.cls-7{fill:url(#linear-gradient-3);}</style>
    <linearGradient id="linear-gradient" x1="608.75" y1="103.08" x2="661.09" y2="50.74" gradientUnits="userSpaceOnUse">
      <stop offset="0" stop-color="#2a4aa6"/>
      <stop offset="0.22" stop-color="#2c3a9b"/>
      <stop offset="0.57" stop-color="#45a6e5"/>
      <stop offset="0.65" stop-color="#49acd8"/>
      <stop offset="0.88" stop-color="#53bbb8"/>
      <stop offset="1" stop-color="#57c1ac"/>
    </linearGradient>
    <clipPath id="clip-path">
      <path class="cls-1" d="M640.87,51.52V90.7H630.31a10.53,10.53,0,0,1-10.56-10.47V51.52h-21V80.23a31.47,31.47,0,0,0,31.56,31.29h31.56v-60Z"/>
    </clipPath>
    <linearGradient id="linear-gradient-3" x1="-4594.17" y1="909.43" x2="-4595.15" y2="910.41" gradientTransform="translate(-289347.12 57508.3) rotate(180) scale(63.11)" xlink:href="#linear-gradient"/>
  </defs>
  <title>Manetu_logo_gradient_A1</title>
  <path class="cls-5" d="M283.32,111l-.22-40.8L263.3,103.4h-9.68L233.93,71.28V111H213.8V34h17.93l27.06,44.45L285.19,34h17.93l.22,77Z"/>
  <path class="cls-5" d="M367.36,57.15q7.81,6.76,7.81,20.73V111H355.7v-7.7q-4.51,8.7-17.6,8.69a27.58,27.58,0,0,1-12-2.41,17.9,17.9,0,0,1-7.65-6.55,17.38,17.38,0,0,1-2.58-9.41q0-8.46,6.49-13.14t20-4.68h11.88q-.56-9.45-12.65-9.46a28.91,28.91,0,0,0-8.69,1.38,23.28,23.28,0,0,0-7.48,3.79l-7-14.18a38.73,38.73,0,0,1,12-5.12,57.3,57.3,0,0,1,14.25-1.82Q359.55,50.38,367.36,57.15ZM350.31,97a9.87,9.87,0,0,0,4-5.17V86.69h-9q-9.13,0-9.13,6a5.32,5.32,0,0,0,2.09,4.4,9,9,0,0,0,5.72,1.65A11.59,11.59,0,0,0,350.31,97Z"/>
  <path class="cls-5" d="M445.62,57q6.76,6.6,6.77,19.92V111h-20.9V80.3q0-12.21-9.79-12.21a11.21,11.21,0,0,0-8.64,3.52q-3.24,3.52-3.24,10.56V111h-20.9V51.37h19.91v6.49a23.63,23.63,0,0,1,8.36-5.55,28.34,28.34,0,0,1,10.56-1.93Q438.87,50.38,445.62,57Z"/>
  <path class="cls-5" d="M528.84,86.46H485.5a12.13,12.13,0,0,0,5.11,7.1A17.08,17.08,0,0,0,500.13,96a20.5,20.5,0,0,0,7.42-1.21,21.68,21.68,0,0,0,6.33-4l11,11.44q-8.7,9.69-25.41,9.68a40.69,40.69,0,0,1-18.37-4,30.1,30.1,0,0,1-.66-53.69,37.51,37.51,0,0,1,33-.27,28,28,0,0,1,11.49,10.67,31.25,31.25,0,0,1,4.24,16.55C529.17,81.44,529.06,83.16,528.84,86.46ZM489.29,68a12.47,12.47,0,0,0-4.12,7.48h24.42A12.43,12.43,0,0,0,505.46,68a13.26,13.26,0,0,0-16.17,0Z"/>
  <path class="cls-5" d="M588.24,108.57a21.18,21.18,0,0,1-6.44,2.54,36.06,36.06,0,0,1-8.08.87q-11.67,0-17.93-5.72t-6.27-17.05v-20h-8.69V53.57h8.69V38.07h20.9v15.5h13.64V69.19H570.42V89a7.05,7.05,0,0,0,1.7,5,6,6,0,0,0,4.57,1.82,11.07,11.07,0,0,0,6.38-1.88Z"/>
  <path class="cls-1" d="M640.87,51.52V90.7H630.31a10.53,10.53,0,0,1-10.56-10.47V51.52h-21V80.23a31.47,31.47,0,0,0,31.56,31.29h31.56v-60Z"/>
  <g class="cls-6">
    <rect class="cls-7" x="598.75" y="51.52" width="63.11" height="60"/>
  </g>
</svg>